<?xml version="1.0" encoding="UTF-8"?>
<svg xmlns="http://www.w3.org/2000/svg" xmlns:xlink="http://www.w3.org/1999/xlink" width="300pt" height="374.999991pt" viewBox="0 0 300 374.999991" version="1.2">
<defs>
<clipPath id="clip1">
  <path d="M 21.507812 20.4375 L 278.621094 20.4375 L 278.621094 330.148438 L 21.507812 330.148438 Z M 21.507812 20.4375 "/>
</clipPath>
<clipPath id="clip2">
  <path d="M 97 61.5625 L 203 61.5625 L 203 128 L 97 128 Z M 97 61.5625 "/>
</clipPath>
<clipPath id="clip3">
  <path d="M 46.324219 180 L 253.960938 180 L 253.960938 347.816406 L 46.324219 347.816406 Z M 46.324219 180 "/>
</clipPath>
</defs>
<g id="surface1">
<g clip-path="url(#clip1)" clip-rule="nonzero">
<path style=" stroke:none;fill-rule:nonzero;fill:rgb(98.039246%,74.508667%,75.289917%);fill-opacity:1;" d="M 140.574219 330.148438 C 94.320312 330.148438 86.261719 300.390625 66.167969 274.914062 C 50.292969 254.800781 31.203125 250.511719 23.292969 223.792969 C 16.222656 199.890625 32.171875 175.59375 35.867188 155.8125 C 42.46875 120.410156 2.847656 33.90625 56.609375 21.855469 C 92.949219 13.722656 120.441406 43.316406 158.28125 43.316406 C 203.933594 43.316406 252.546875 15.988281 272.300781 93.5625 C 283.363281 136.996094 284.214844 191.5 238.824219 201.476562 C 182.398438 213.886719 145.941406 215.828125 152.894531 238.140625 C 160.144531 261.390625 237.414062 245.15625 234.011719 291.996094 C 232.066406 318.75 165.382812 330.148438 140.574219 330.148438 "/>
</g>
<path style=" stroke:none;fill-rule:nonzero;fill:rgb(49.409485%,26.669312%,27.059937%);fill-opacity:1;" d="M 114.332031 84.648438 C 108.871094 78.351562 103.824219 71.214844 95 70.375 C 87.015625 69.539062 78.191406 71.214844 71.046875 75.414062 C 67.683594 77.09375 61.378906 81.289062 61.378906 85.488281 C 61.378906 92.203125 68.105469 85.90625 62.640625 93.042969 C 55.917969 102.273438 59.699219 111.089844 71.046875 112.765625 C 85.753906 114.449219 106.769531 101.4375 111.390625 88.003906 "/>
<path style=" stroke:none;fill-rule:nonzero;fill:rgb(49.409485%,26.669312%,27.059937%);fill-opacity:1;" d="M 185.957031 84.648438 C 191.417969 78.351562 196.464844 71.214844 205.289062 70.375 C 213.273438 69.539062 222.097656 71.214844 229.242188 75.414062 C 232.605469 77.09375 238.910156 81.289062 238.910156 85.488281 C 238.910156 92.203125 232.183594 85.90625 237.648438 93.042969 C 244.371094 102.273438 240.589844 111.089844 229.242188 112.769531 C 214.535156 114.449219 193.519531 101.4375 188.898438 88.003906 "/>
<g clip-path="url(#clip2)" clip-rule="nonzero">
<path style=" stroke:none;fill-rule:nonzero;fill:rgb(49.409485%,26.669312%,27.059937%);fill-opacity:1;" d="M 100.847656 127.039062 C 94.546875 111.507812 96.648438 90.523438 108.414062 78.351562 C 114.296875 72.054688 123.121094 64.921875 131.527344 63.664062 C 135.730469 63.242188 139.511719 64.082031 143.714844 63.664062 C 147.917969 62.824219 151.28125 61.5625 155.902344 61.5625 C 171.871094 61.984375 185.742188 67.859375 194.566406 81.710938 C 202.132812 93.878906 206.753906 110.671875 196.667969 122.839844 "/>
</g>
<path style=" stroke:none;fill-rule:nonzero;fill:rgb(100%,99.21875%,94.119263%);fill-opacity:1;" d="M 86.140625 337.316406 C 83.199219 345.710938 77.3125 352.84375 74.792969 361.65625 C 73.113281 367.535156 74.371094 368.792969 80.257812 369.632812 C 84.878906 370.472656 117.660156 374.25 129.007812 374.667969 C 141.613281 375.089844 211.402344 373.933594 217.703125 370.15625 C 228.210938 364.28125 211.796875 342.351562 210.117188 333.535156 "/>
<g clip-path="url(#clip3)" clip-rule="nonzero">
<path style=" stroke:none;fill-rule:nonzero;fill:rgb(14.898682%,38.038635%,31.369019%);fill-opacity:1;" d="M 251.511719 253.421875 C 241.425781 220.28125 203.601562 179.292969 167.460938 180.164062 L 132.828125 180.164062 C 96.6875 179.292969 58.863281 220.28125 48.777344 253.421875 C 43.734375 268.246094 45.414062 290.804688 63.90625 296.035156 C 71.707031 298.167969 81.488281 297.867188 90.53125 295.175781 C 89.761719 298.886719 88.675781 302.417969 87.101562 305.730469 C 83.058594 314.820312 68.5 333.957031 78.296875 341.511719 C 88.09375 349.066406 212.738281 349.835938 219.195312 342.582031 C 225.652344 335.328125 220.210938 316.242188 216.542969 307.410156 C 215.460938 304.800781 214.441406 300.914062 213.484375 296.136719 C 221.425781 297.898438 229.640625 297.875 236.382812 296.035156 C 254.871094 290.804688 256.554688 268.246094 251.511719 253.421875 "/>
</g>
<path style=" stroke:none;fill-rule:nonzero;fill:rgb(100%,99.21875%,94.119263%);fill-opacity:1;" d="M 90.511719 212.4375 C 94.417969 214.804688 97.644531 218.117188 99.34375 222.386719 C 100.78125 225.988281 101.136719 229.898438 102.824219 233.421875 C 105.808594 239.652344 112.90625 242.269531 118.933594 244.558594 C 126.660156 247.492188 134.816406 249.214844 143.035156 249.9375 C 159.386719 251.378906 176.027344 247.792969 189.875 238.894531 C 196.601562 234.570312 202.507812 229.109375 209.332031 224.921875 C 213.074219 222.628906 217.089844 221.171875 221.175781 219.628906 C 224.296875 218.453125 227.390625 217.207031 230.515625 216.0625 C 230.230469 215.714844 229.945312 215.371094 229.652344 215.023438 C 227.042969 215.980469 224.457031 217.015625 221.882812 218.015625 C 218.273438 219.417969 214.660156 220.617188 211.214844 222.40625 C 207.550781 224.3125 204.179688 226.753906 200.886719 229.234375 C 194.296875 234.191406 187.925781 239.1875 180.398438 242.683594 C 172.226562 246.476562 163.226562 248.339844 154.269531 248.859375 C 145.453125 249.371094 136.589844 248.289062 128.050781 246.117188 C 120.355469 244.160156 110.246094 241.425781 105.191406 234.867188 C 102.777344 231.738281 102.210938 227.628906 101.175781 223.929688 C 100.15625 220.277344 98.265625 217.304688 95.539062 214.691406 C 90.96875 210.300781 84.765625 207.761719 78.597656 206.390625 C 78.242188 206.738281 77.894531 207.089844 77.542969 207.445312 C 82.105469 208.363281 86.503906 210.011719 90.511719 212.4375 "/>
<path style=" stroke:none;fill-rule:nonzero;fill:rgb(100%,99.21875%,94.119263%);fill-opacity:1;" d="M 202.183594 279.292969 C 187.632812 286.613281 170.773438 289.140625 154.636719 289.625 C 145.757812 289.890625 136.722656 290.199219 127.863281 289.472656 C 118.3125 288.691406 109.199219 285.121094 100.085938 282.371094 C 100.988281 279.609375 101.445312 276.652344 101.753906 274.140625 C 102.289062 269.808594 102.59375 263.792969 100.554688 259.40625 C 104.285156 262.125 108.695312 264.046875 112.867188 265.730469 C 121.054688 269.03125 129.464844 270.921875 138.273438 271.519531 C 156.195312 272.746094 173.96875 268.472656 190.886719 262.988281 C 194.976562 261.660156 199.046875 260.273438 203.066406 258.757812 C 199.378906 264.566406 199.359375 272.699219 202.183594 279.292969 Z M 244.304688 236.457031 C 244.117188 236.113281 243.929688 235.761719 243.734375 235.414062 C 237.917969 239.375 231.796875 242.933594 225.84375 246.363281 C 209.609375 255.714844 191.996094 262.195312 173.796875 266.628906 C 155.652344 271.054688 136.269531 272.351562 118.300781 266.460938 C 110.222656 263.8125 101.175781 260.039062 95.929688 253.054688 C 93.699219 250.085938 92.050781 246.84375 89.953125 243.796875 C 88 240.960938 84.949219 238.992188 82.046875 237.246094 C 75.433594 233.261719 67.519531 230.621094 59.675781 230.09375 C 59.421875 230.5 59.167969 230.910156 58.917969 231.320312 C 65.878906 231.710938 72.734375 233.871094 78.9375 236.976562 C 82.601562 238.808594 86.363281 241.140625 88.863281 244.433594 C 91.269531 247.597656 93 251.238281 95.40625 254.441406 C 96.109375 255.382812 96.894531 256.242188 97.730469 257.050781 C 97.691406 257.230469 97.722656 257.421875 97.882812 257.59375 C 101.464844 261.460938 101.011719 268.585938 100.570312 273.417969 C 100.335938 275.996094 99.882812 279.242188 98.871094 282.195312 C 98.621094 282.34375 98.507812 282.679688 98.597656 282.964844 C 97.648438 285.429688 96.261719 287.621094 94.226562 288.925781 C 93.546875 289.359375 94.175781 290.449219 94.863281 290.011719 C 97.140625 288.550781 98.640625 286.195312 99.660156 283.558594 C 108.570312 286.234375 117.367188 289.542969 126.652344 290.613281 C 136.160156 291.710938 146.054688 291.140625 155.601562 290.855469 C 171.582031 290.375 188.308594 287.648438 202.707031 280.433594 C 204.195312 283.457031 206.304688 286.085938 208.957031 287.910156 C 209.628906 288.375 210.257812 287.28125 209.59375 286.824219 C 201.128906 281.003906 198.496094 265.914062 205.214844 257.925781 C 209.082031 256.414062 212.898438 254.769531 216.628906 252.914062 C 223.988281 249.253906 231.113281 244.886719 238.078125 240.519531 C 240.164062 239.210938 242.25 237.859375 244.304688 236.457031 "/>
<path style=" stroke:none;fill-rule:nonzero;fill:rgb(100%,99.21875%,94.119263%);fill-opacity:1;" d="M 217.683594 310.347656 C 217.546875 309.972656 217.410156 309.605469 217.273438 309.25 C 209.847656 311.179688 202.5 313.484375 194.894531 314.644531 C 181.054688 316.753906 167.015625 316.929688 153.046875 316.960938 C 139.664062 316.996094 126.496094 316.863281 113.183594 315.316406 C 103.527344 314.191406 93.746094 313.390625 84.277344 311.171875 C 84.066406 311.550781 83.851562 311.933594 83.636719 312.320312 C 92.601562 314.453125 101.867188 315.316406 111.011719 316.328125 C 124.265625 317.796875 137.292969 318.300781 150.625 318.230469 C 164.285156 318.160156 177.90625 318.054688 191.484375 316.371094 C 200.425781 315.265625 209 312.53125 217.683594 310.347656 "/>
<path style=" stroke:none;fill-rule:nonzero;fill:rgb(98.429871%,78.42865%,70.199585%);fill-opacity:1;" d="M 112.414062 125.921875 C 108.589844 117.878906 97.316406 116.671875 97.113281 127.527344 C 96.910156 135.976562 104.964844 141.601562 113.21875 140.195312 "/>
<path style=" stroke:none;fill-rule:nonzero;fill:rgb(96.859741%,56.079102%,52.938843%);fill-opacity:1;" d="M 103.179688 129.136719 C 103.226562 128.195312 103.75 127.316406 104.757812 127.191406 C 105.578125 127.09375 106.242188 127.824219 106.195312 128.601562 C 106.136719 129.710938 105.632812 130.820312 105.40625 131.90625 C 105.214844 132.8125 105.144531 133.765625 105.757812 134.523438 C 106.570312 135.535156 108.40625 134.902344 109.359375 134.570312 C 110.121094 134.304688 109.792969 133.085938 109.023438 133.355469 C 108.398438 133.574219 107.386719 134.03125 106.730469 133.703125 C 106.328125 133.5 106.5625 132.550781 106.621094 132.242188 C 106.859375 130.96875 107.390625 129.75 107.464844 128.449219 C 107.550781 126.988281 106.101562 125.929688 104.757812 125.9375 C 103.035156 125.945312 101.996094 127.597656 101.917969 129.136719 C 101.878906 129.949219 103.140625 129.945312 103.179688 129.136719 "/>
<path style=" stroke:none;fill-rule:nonzero;fill:rgb(98.429871%,78.42865%,70.199585%);fill-opacity:1;" d="M 187.875 125.921875 C 191.699219 117.878906 202.972656 116.671875 203.171875 127.527344 C 203.375 135.976562 195.320312 141.601562 187.066406 140.195312 "/>
<path style=" stroke:none;fill-rule:nonzero;fill:rgb(96.859741%,56.079102%,52.938843%);fill-opacity:1;" d="M 198.367188 129.136719 C 198.289062 127.628906 197.382812 126.160156 195.765625 125.964844 C 194.332031 125.789062 192.925781 126.828125 192.820312 128.304688 C 192.734375 129.539062 193.355469 130.859375 193.625 132.042969 C 193.71875 132.453125 193.941406 133.257812 193.640625 133.632812 C 193.203125 134.175781 191.734375 133.519531 191.265625 133.355469 C 190.492188 133.085938 190.167969 134.304688 190.929688 134.570312 C 191.921875 134.917969 193.519531 135.464844 194.433594 134.613281 C 195.140625 133.957031 195.058594 132.96875 194.917969 132.097656 C 194.738281 130.964844 194.304688 129.890625 194.109375 128.757812 C 193.972656 127.992188 194.496094 127.285156 195.292969 127.191406 C 196.40625 127.0625 197.0625 128.1875 197.109375 129.136719 C 197.148438 129.945312 198.410156 129.949219 198.367188 129.136719 "/>
<path style=" stroke:none;fill-rule:nonzero;fill:rgb(96.859741%,56.079102%,52.938843%);fill-opacity:1;" d="M 150.144531 186.40625 C 146.65625 186.582031 137.675781 179.730469 137.675781 175.507812 C 137.675781 171.292969 137.675781 151.382812 137.675781 151.382812 C 137.675781 144.628906 143.15625 139.152344 149.921875 139.152344 C 156.6875 139.152344 162.167969 144.628906 162.167969 151.382812 C 162.167969 151.382812 163.167969 169.695312 162.167969 174.691406 C 161.171875 179.6875 154.800781 186.164062 150.144531 186.40625 "/>
<path style=" stroke:none;fill-rule:nonzero;fill:rgb(98.429871%,78.42865%,70.199585%);fill-opacity:1;" d="M 150.144531 168.582031 C 170.839844 168.582031 189.144531 152.621094 190.792969 130.335938 C 192.652344 105.265625 187.777344 94.382812 181.148438 88.414062 C 174.519531 82.445312 160 80.398438 150.144531 80.554688 C 140.285156 80.398438 125.765625 82.445312 119.140625 88.414062 C 112.511719 94.382812 107.636719 105.265625 109.496094 130.335938 C 111.144531 152.621094 129.445312 168.582031 150.144531 168.582031 "/>
<path style=" stroke:none;fill-rule:nonzero;fill:rgb(49.409485%,26.669312%,27.059937%);fill-opacity:1;" d="M 161.242188 126.324219 C 160.601562 124.089844 161.34375 120.644531 163.742188 121.113281 C 166.339844 121.621094 166.03125 126.398438 164.796875 127.625 C 163.371094 129.035156 161.777344 128.179688 161.242188 126.324219 "/>
<path style=" stroke:none;fill-rule:nonzero;fill:rgb(49.409485%,26.669312%,27.059937%);fill-opacity:1;" d="M 166.183594 116.589844 C 164.917969 115.179688 162.289062 114.828125 160.804688 116.050781 C 159.644531 117.007812 158.203125 115.179688 159.359375 114.226562 C 161.859375 112.167969 165.914062 112.8125 168.011719 115.148438 C 169.015625 116.269531 167.179688 117.703125 166.183594 116.589844 "/>
<path style=" stroke:none;fill-rule:nonzero;fill:rgb(49.409485%,26.669312%,27.059937%);fill-opacity:1;" d="M 139.046875 126.324219 C 139.6875 124.089844 138.941406 120.644531 136.546875 121.113281 C 133.949219 121.621094 134.257812 126.398438 135.492188 127.625 C 136.914062 129.035156 138.511719 128.179688 139.046875 126.324219 "/>
<path style=" stroke:none;fill-rule:nonzero;fill:rgb(49.409485%,26.669312%,27.059937%);fill-opacity:1;" d="M 134.105469 116.589844 C 135.371094 115.179688 138 114.828125 139.480469 116.050781 C 140.644531 117.007812 142.082031 115.179688 140.929688 114.226562 C 138.429688 112.167969 134.375 112.8125 132.277344 115.148438 C 131.273438 116.269531 133.105469 117.703125 134.105469 116.589844 "/>
<path style=" stroke:none;fill-rule:nonzero;fill:rgb(96.859741%,56.079102%,52.938843%);fill-opacity:1;" d="M 145.15625 135.136719 C 147.25 133.648438 149.363281 131.6875 152.054688 132.976562 C 153.175781 133.511719 154.179688 134.429688 155.003906 135.351562 C 155.546875 135.960938 156.4375 135.066406 155.898438 134.460938 C 154.714844 133.140625 153.261719 132.046875 151.59375 131.421875 C 148.988281 130.445312 146.460938 132.671875 144.519531 134.050781 C 143.863281 134.515625 144.492188 135.609375 145.15625 135.136719 "/>
<path style=" stroke:none;fill-rule:nonzero;fill:rgb(96.859741%,56.079102%,52.938843%);fill-opacity:1;" d="M 179.113281 128.070312 C 190.050781 128.070312 188.371094 145.003906 177.433594 145.003906 C 166.496094 145.003906 168.179688 128.070312 179.113281 128.070312 "/>
<path style=" stroke:none;fill-rule:nonzero;fill:rgb(96.859741%,56.079102%,52.938843%);fill-opacity:1;" d="M 121.171875 128.070312 C 110.234375 128.070312 111.917969 145.003906 122.855469 145.003906 C 133.789062 145.003906 132.109375 128.070312 121.171875 128.070312 "/>
<path style=" stroke:none;fill-rule:nonzero;fill:rgb(100%,99.21875%,94.119263%);fill-opacity:1;" d="M 162.160156 139.488281 C 160.417969 138.273438 153.234375 141.730469 150.984375 141.734375 C 148.734375 141.738281 144.71875 139.601562 142.597656 139.246094 C 138.367188 138.675781 135.695312 141.039062 138.625 144.839844 C 143.15625 150.792969 154.425781 150.269531 158.695312 148.265625 C 162.96875 146.261719 165.871094 142.078125 162.160156 139.488281 "/>
<path style=" stroke:none;fill-rule:nonzero;fill:rgb(100%,99.21875%,94.119263%);fill-opacity:1;" d="M 197.027344 144.523438 C 194.664062 143.019531 153.566406 160.773438 150.132812 168.371094 C 148.40625 159.289062 101.65625 139.46875 97.792969 142.695312 C 93.933594 145.921875 109.511719 205.90625 112.136719 207.117188 C 130.378906 210.808594 146.875 224.828125 146.875 224.828125 C 148.707031 227.222656 152.566406 226.566406 153.386719 224.828125 C 153.386719 224.828125 169.882812 210.808594 188.125 207.117188 C 190.746094 205.910156 199.113281 165.234375 199.761719 149.789062 C 199.90625 146.355469 197.519531 144.835938 197.027344 144.523438 "/>
<path style=" stroke:none;fill-rule:nonzero;fill:rgb(49.409485%,26.669312%,27.059937%);fill-opacity:1;" d="M 203.875 142.113281 C 201.167969 140.394531 159.703125 162.960938 155.707031 166.25 C 151.710938 169.542969 148.769531 171.171875 144.582031 166.25 C 140.390625 161.328125 99.121094 140.394531 96.414062 142.113281 C 93.304688 144.089844 102.945312 212.136719 106.613281 213.828125 C 127.515625 218.058594 146.414062 234.121094 146.414062 234.121094 C 148.511719 236.863281 152.933594 236.113281 153.875 234.121094 C 153.875 234.121094 172.773438 218.058594 193.675781 213.828125 C 197.347656 212.136719 206.980469 144.089844 203.875 142.113281 "/>
<path style=" stroke:none;fill-rule:nonzero;fill:rgb(96.859741%,56.079102%,52.938843%);fill-opacity:1;" d="M 149.300781 172.074219 C 149.144531 177.121094 149.488281 182.128906 150.371094 187.101562 C 151.394531 192.871094 150.75 197.835938 149.996094 203.59375 C 149.277344 209.105469 149.90625 214.703125 150.101562 220.230469 C 150.246094 224.25 148.960938 228.535156 149.957031 232.46875 C 150.152344 233.257812 151.371094 232.921875 151.171875 232.136719 C 150.140625 228.058594 151.46875 223.21875 151.320312 219.019531 C 151.109375 213.136719 150.695312 207.414062 151.535156 201.558594 C 152.140625 197.34375 152.734375 193.253906 152.058594 189 C 151.152344 183.308594 150.382812 177.867188 150.5625 172.074219 C 150.585938 171.261719 149.324219 171.265625 149.300781 172.074219 "/>
<path style=" stroke:none;fill-rule:nonzero;fill:rgb(98.429871%,78.42865%,70.199585%);fill-opacity:1;" d="M 114.820312 178.6875 C 114.820312 176.789062 115.769531 170.628906 113.398438 170.15625 C 112.410156 169.992188 111.597656 170.574219 110.894531 171.457031 C 112.203125 165.140625 112.515625 158.433594 108.652344 159.261719 C 107.601562 159.410156 106.222656 161.121094 104.777344 163.484375 C 104.753906 162.765625 104.636719 162.132812 104.382812 161.628906 C 102.484375 156.417969 100.113281 161.628906 98.691406 164.945312 C 96.792969 168.261719 94.894531 171.105469 92.996094 174.421875 C 86.238281 186.230469 92.53125 199.691406 93.59375 204.941406 C 94.65625 210.191406 68.777344 242.648438 64.035156 253.070312 C 60.238281 260.648438 55.730469 277.273438 63.109375 284.578125 C 70.488281 291.878906 87.542969 282.445312 96.792969 269.652344 C 106.042969 256.859375 116.71875 223.695312 116.71875 213.035156 C 116.71875 202.375 112.210938 197.53125 112.683594 192.796875 C 113.160156 187.109375 114.34375 184.371094 114.820312 178.6875 "/>
<path style=" stroke:none;fill-rule:nonzero;fill:rgb(96.859741%,56.079102%,52.938843%);fill-opacity:1;" d="M 109.660156 172.996094 C 106.039062 178.726562 103.214844 185.621094 103.679688 192.515625 C 103.734375 193.320312 104.996094 193.324219 104.941406 192.515625 C 104.492188 185.855469 107.25 179.171875 110.75 173.628906 C 111.183594 172.941406 110.09375 172.308594 109.660156 172.996094 "/>
<path style=" stroke:none;fill-rule:nonzero;fill:rgb(96.859741%,56.079102%,52.938843%);fill-opacity:1;" d="M 103.042969 165.332031 C 98.976562 173.484375 94.949219 180.851562 94.863281 190.203125 C 94.855469 191.015625 96.117188 191.015625 96.125 190.203125 C 96.207031 181.085938 100.167969 173.914062 104.128906 165.96875 C 104.488281 165.246094 103.402344 164.605469 103.042969 165.332031 "/>
<path style=" stroke:none;fill-rule:nonzero;fill:rgb(98.429871%,78.42865%,70.199585%);fill-opacity:1;" d="M 185.46875 178.6875 C 185.46875 176.789062 184.519531 170.628906 186.890625 170.15625 C 187.875 169.992188 188.6875 170.574219 189.390625 171.457031 C 188.085938 165.140625 187.769531 158.433594 191.632812 159.261719 C 192.683594 159.410156 194.066406 161.121094 195.511719 163.484375 C 195.535156 162.765625 195.652344 162.132812 195.90625 161.628906 C 197.804688 156.417969 200.175781 161.628906 201.597656 164.945312 C 203.496094 168.261719 205.394531 171.105469 207.292969 174.421875 C 214.050781 186.230469 207.757812 199.691406 206.695312 204.941406 C 205.628906 210.191406 231.511719 242.648438 236.253906 253.070312 C 240.050781 260.648438 244.558594 277.273438 237.179688 284.578125 C 229.800781 291.878906 212.746094 282.445312 203.496094 269.652344 C 194.246094 256.859375 183.570312 223.695312 183.570312 213.035156 C 183.570312 202.375 188.078125 197.53125 187.605469 192.796875 C 187.128906 187.109375 185.941406 184.371094 185.46875 178.6875 "/>
<path style=" stroke:none;fill-rule:nonzero;fill:rgb(96.859741%,56.079102%,52.938843%);fill-opacity:1;" d="M 189.539062 173.628906 C 193.039062 179.171875 195.796875 185.855469 195.347656 192.515625 C 195.292969 193.328125 196.550781 193.320312 196.609375 192.515625 C 197.074219 185.625 194.25 178.726562 190.628906 172.996094 C 190.195312 172.308594 189.105469 172.941406 189.539062 173.628906 "/>
<path style=" stroke:none;fill-rule:nonzero;fill:rgb(96.859741%,56.079102%,52.938843%);fill-opacity:1;" d="M 196.160156 165.96875 C 200.121094 173.914062 204.078125 181.089844 204.164062 190.203125 C 204.171875 191.015625 205.433594 191.015625 205.425781 190.203125 C 205.339844 180.851562 201.3125 173.484375 197.246094 165.335938 C 196.882812 164.605469 195.796875 165.246094 196.160156 165.96875 "/>
<path style=" stroke:none;fill-rule:nonzero;fill:rgb(49.409485%,26.669312%,27.059937%);fill-opacity:1;" d="M 103.886719 117.929688 C 105.078125 121.796875 109.457031 127.316406 110.933594 126.617188 C 112.414062 125.921875 113.878906 121.160156 114.296875 117.804688 C 115.136719 112.765625 117.660156 110.25 122.28125 107.730469 C 127.324219 104.792969 128.164062 103.535156 129.425781 98.078125 C 133.628906 81.707031 134.46875 104.375 136.992188 106.890625 C 139.09375 109.828125 145.394531 109.410156 148.339844 108.988281 C 154.222656 108.148438 155.0625 106.472656 157.164062 101.4375 C 158.003906 99.757812 162.625 94.300781 161.363281 92.621094 C 158.003906 89.261719 157.582031 98.078125 157.582031 99.757812 C 158.003906 103.535156 158.003906 105.632812 161.785156 107.3125 C 164.308594 108.570312 169.769531 107.730469 171.871094 106.054688 C 173.972656 104.375 174.394531 98.078125 178.59375 99.757812 C 180.699219 100.597656 181.960938 107.3125 182.800781 109.410156 C 184.058594 112.765625 186.199219 127.824219 190.082031 128.070312 C 193.96875 128.3125 193.304688 109.410156 193.726562 105.632812 C 194.566406 96.402344 191.625 85.488281 184.480469 79.609375 C 171.03125 67.859375 144.554688 66.597656 129.007812 73.734375 C 120.179688 77.933594 114.296875 84.644531 109.253906 92.621094 C 105.984375 97.796875 103.640625 104.589844 103.023438 110.652344 C 102.8125 112.734375 103.097656 115.378906 103.886719 117.929688 "/>
<path style=" stroke:none;fill-rule:nonzero;fill:rgb(96.859741%,56.079102%,52.938843%);fill-opacity:1;" d="M 115.976562 93.671875 C 115.660156 96.65625 113.550781 99.539062 111.039062 101.101562 C 110.347656 101.527344 110.980469 102.621094 111.671875 102.191406 C 114.59375 100.371094 116.867188 97.121094 117.238281 93.671875 C 117.324219 92.863281 116.0625 92.871094 115.976562 93.671875 "/>
<path style=" stroke:none;fill-rule:nonzero;fill:rgb(96.859741%,56.079102%,52.938843%);fill-opacity:1;" d="M 149.785156 88.660156 C 151.160156 90.132812 151.347656 92.078125 150.671875 93.925781 C 150.394531 94.6875 151.613281 95.015625 151.886719 94.257812 C 152.71875 91.984375 152.34375 89.558594 150.675781 87.769531 C 150.121094 87.175781 149.230469 88.066406 149.785156 88.660156 "/>
<path style=" stroke:none;fill-rule:nonzero;fill:rgb(96.859741%,56.079102%,52.938843%);fill-opacity:1;" d="M 168.386719 87.691406 C 169.320312 89.5625 170.117188 91.324219 169.980469 93.460938 C 169.929688 94.273438 171.191406 94.265625 171.242188 93.460938 C 171.394531 91.113281 170.503906 89.113281 169.472656 87.058594 C 169.113281 86.332031 168.023438 86.96875 168.386719 87.691406 "/>
<path style=" stroke:none;fill-rule:nonzero;fill:rgb(14.898682%,38.038635%,31.369019%);fill-opacity:1;" d="M 85.617188 351.269531 C 91.648438 351.011719 97.730469 352.632812 103.730469 351.625 C 108.582031 350.8125 109.804688 344.191406 109.886719 340.25 C 109.902344 339.441406 108.640625 339.441406 108.625 340.25 C 108.574219 342.59375 108.203125 344.824219 107.234375 346.96875 C 105.902344 349.933594 103.371094 350.589844 100.367188 350.679688 C 95.4375 350.839844 90.546875 349.800781 85.617188 350.011719 C 84.804688 350.046875 84.804688 351.304688 85.617188 351.269531 "/>
<path style=" stroke:none;fill-rule:nonzero;fill:rgb(14.898682%,38.038635%,31.369019%);fill-opacity:1;" d="M 214.671875 350.011719 C 210.046875 349.8125 205.433594 350.582031 200.8125 350.683594 C 197.757812 350.75 195.183594 350.359375 193.414062 347.640625 C 192.039062 345.527344 191.714844 342.707031 191.660156 340.253906 C 191.644531 339.445312 190.382812 339.441406 190.402344 340.253906 C 190.484375 344.054688 191.515625 350.097656 195.855469 351.414062 C 201.785156 353.214844 208.589844 351.011719 214.671875 351.269531 C 215.484375 351.304688 215.480469 350.046875 214.671875 350.011719 "/>
<path style=" stroke:none;fill-rule:nonzero;fill:rgb(14.898682%,38.038635%,31.369019%);fill-opacity:1;" d="M 150.140625 369.695312 C 151.105469 365.777344 149.71875 362.132812 149.847656 358.195312 C 149.992188 353.660156 151.339844 349.183594 151.738281 344.660156 C 151.808594 343.851562 150.546875 343.855469 150.476562 344.660156 C 150.109375 348.835938 149.167969 352.925781 148.683594 357.085938 C 148.199219 361.246094 149.9375 365.246094 148.925781 369.359375 C 148.726562 370.148438 149.945312 370.484375 150.140625 369.695312 "/>
</g>
</svg>
