<?xml version="1.0" encoding="UTF-8"?>
<svg xmlns="http://www.w3.org/2000/svg" xmlns:xlink="http://www.w3.org/1999/xlink" width="375pt" height="374.999991pt" viewBox="0 0 375 374.999991" version="1.2">
<defs>
<clipPath id="clip1">
  <path d="M 5 71 L 256.5 71 L 256.5 323 L 5 323 Z M 5 71 "/>
</clipPath>
<clipPath id="clip2">
  <path d="M 24.027344 279 L 36 279 L 36 287 L 24.027344 287 Z M 24.027344 279 "/>
</clipPath>
<clipPath id="clip3">
  <path d="M 24.027344 279 L 37 279 L 37 282 L 24.027344 282 Z M 24.027344 279 "/>
</clipPath>
<clipPath id="clip4">
  <path d="M 261.699219 354.628906 L 312 354.628906 L 312 375 L 261.699219 375 Z M 261.699219 354.628906 "/>
</clipPath>
</defs>
<g id="surface1">
<g clip-path="url(#clip1)" clip-rule="nonzero">
<path style=" stroke:none;fill-rule:nonzero;fill:rgb(86.669922%,68.629456%,58.039856%);fill-opacity:1;" d="M 218.992188 105.433594 C 189.769531 91.6875 146.480469 58.695312 104.273438 76.691406 C 62.066406 94.683594 12.535156 156.832031 6.375 189.65625 C 0.214844 222.480469 19.109375 296.042969 94.199219 316.867188 C 169.292969 337.695312 232.3125 304.707031 256.285156 179.742188 C 256.285156 179.742188 248.210938 119.175781 218.992188 105.433594 Z M 146.316406 299.125 C 125.835938 304.207031 98.78125 294.707031 69.558594 272.046875 C 40.339844 249.386719 40.339844 232.558594 33.011719 210.566406 C 25.6875 188.574219 38.089844 165.914062 55.65625 141.835938 C 73.222656 117.761719 96.03125 104.933594 117.761719 101.597656 C 146.230469 97.183594 182.113281 106.015625 201.84375 113.261719 C 221.570312 120.511719 233.226562 151.335938 234.726562 171.828125 C 236.222656 192.324219 228.148438 210.566406 214.996094 242.058594 C 201.84375 273.546875 166.792969 294.042969 146.316406 299.125 Z M 146.316406 299.125 "/>
</g>
<path style=" stroke:none;fill-rule:nonzero;fill:rgb(31.369019%,61.569214%,36.079407%);fill-opacity:1;" d="M 121.007812 254.585938 C 104.996094 253.710938 25.691406 254.839844 38.40625 286.59375 C 44.960938 301.886719 61.917969 308.25 55.945312 325.855469 C 50.730469 341.246094 50.988281 348.542969 60.988281 354.460938 C 70.988281 360.378906 120.167969 359.957031 136.046875 349.675781 "/>
<path style=" stroke:none;fill-rule:nonzero;fill:rgb(100%,99.21875%,94.119263%);fill-opacity:1;" d="M 56.847656 347.496094 C 61.359375 347.605469 59.65625 354.769531 55.457031 354.140625 C 53.597656 353.863281 52.410156 352.023438 52.726562 350.238281 C 53.03125 348.550781 55.070312 347.453125 56.847656 347.496094 "/>
<path style=" stroke:none;fill-rule:nonzero;fill:rgb(100%,99.21875%,94.119263%);fill-opacity:1;" d="M 55.019531 352.035156 C 52.585938 355.921875 47.628906 358.160156 43.140625 356.910156 C 42.566406 356.75 42.8125 355.855469 43.390625 356.015625 C 47.46875 357.152344 52 355.105469 54.21875 351.570312 C 54.535156 351.0625 55.335938 351.527344 55.019531 352.035156 "/>
<path style=" stroke:none;fill-rule:nonzero;fill:rgb(100%,99.21875%,94.119263%);fill-opacity:1;" d="M 54.355469 352.242188 C 52.964844 353.285156 51.867188 354.5625 50.128906 355.023438 C 48.738281 355.371094 47 355.894531 45.554688 355.660156 C 44.222656 355.429688 42.890625 354.964844 42.714844 353.515625 C 42.542969 352.183594 43.414062 351.136719 44.742188 350.964844 C 46.539062 350.734375 48.507812 351.253906 50.246094 351.429688 C 51 351.484375 51.808594 351.660156 52.5625 351.601562 C 53.371094 351.542969 53.949219 351.082031 54.703125 350.792969 "/>
<path style=" stroke:none;fill-rule:nonzero;fill:rgb(100%,99.21875%,94.119263%);fill-opacity:1;" d="M 54.296875 351.710938 C 52.621094 351.820312 51.140625 351.652344 49.566406 351.0625 C 47.425781 350.265625 46.035156 349.640625 43.707031 350.136719 C 43.125 350.261719 42.878906 349.363281 43.460938 349.242188 C 47.414062 348.402344 50.382812 351.035156 54.296875 350.785156 C 54.894531 350.746094 54.890625 351.671875 54.296875 351.710938 "/>
<path style=" stroke:none;fill-rule:nonzero;fill:rgb(100%,99.21875%,94.119263%);fill-opacity:1;" d="M 37.347656 275.703125 C 41.785156 274.878906 41.59375 282.238281 37.351562 282.492188 C 35.476562 282.597656 33.933594 281.046875 33.882812 279.234375 C 33.832031 277.523438 35.597656 276.027344 37.347656 275.703125 "/>
<path style=" stroke:none;fill-rule:nonzero;fill:rgb(100%,99.21875%,94.119263%);fill-opacity:1;" d="M 36.5 280.5 C 34.925781 284.789062 30.542969 288.046875 25.898438 287.738281 C 25.304688 287.699219 25.304688 286.769531 25.898438 286.8125 C 30.113281 287.09375 34.167969 284.175781 35.605469 280.25 C 35.808594 279.695312 36.703125 279.9375 36.5 280.5 "/>
<g clip-path="url(#clip2)" clip-rule="nonzero">
<path style=" stroke:none;fill-rule:nonzero;fill:rgb(100%,99.21875%,94.119263%);fill-opacity:1;" d="M 35.882812 280.859375 C 34.738281 282.164062 33.925781 283.640625 32.320312 284.453125 C 31.03125 285.078125 29.4375 285.945312 27.972656 286.019531 C 26.625 286.066406 25.226562 285.886719 24.757812 284.503906 C 24.3125 283.234375 24.949219 282.035156 26.21875 281.589844 C 27.925781 280.992188 29.957031 281.097656 31.695312 280.910156 C 32.445312 280.8125 33.273438 280.8125 33.996094 280.601562 C 34.777344 280.378906 35.25 279.808594 35.929688 279.367188 "/>
</g>
<g clip-path="url(#clip3)" clip-rule="nonzero">
<path style=" stroke:none;fill-rule:nonzero;fill:rgb(100%,99.21875%,94.119263%);fill-opacity:1;" d="M 35.746094 280.347656 C 34.367188 280.726562 33.09375 280.90625 31.660156 280.796875 C 29.210938 280.605469 27.46875 279.921875 25.054688 280.980469 C 24.511719 281.21875 24.042969 280.417969 24.585938 280.179688 C 28.300781 278.550781 31.707031 280.507812 35.5 279.449219 C 36.078125 279.289062 36.320312 280.1875 35.746094 280.347656 "/>
</g>
<path style=" stroke:none;fill-rule:nonzero;fill:rgb(100%,99.21875%,94.119263%);fill-opacity:1;" d="M 102.605469 321.191406 C 90.367188 320.59375 80.859375 329.386719 73.359375 338.035156 C 72.96875 338.488281 72.316406 337.828125 72.703125 337.378906 C 80.363281 328.546875 90.125 319.65625 102.605469 320.261719 C 103.199219 320.292969 103.203125 321.222656 102.605469 321.191406 "/>
<path style=" stroke:none;fill-rule:nonzero;fill:rgb(100%,99.21875%,94.119263%);fill-opacity:1;" d="M 99.949219 316.707031 C 90.453125 318.078125 80.605469 316.269531 72.664062 310.738281 C 72.179688 310.398438 72.640625 309.597656 73.132812 309.9375 C 80.855469 315.320312 90.453125 317.148438 99.703125 315.8125 C 100.289062 315.726562 100.539062 316.621094 99.949219 316.707031 "/>
<path style=" stroke:none;fill-rule:nonzero;fill:rgb(89.019775%,43.919373%,33.329773%);fill-opacity:1;" d="M 241.675781 268.625 C 257.941406 271.410156 284.046875 324.542969 289.082031 335.386719 C 291.132812 339.84375 293.121094 341.882812 298.910156 344.101562 C 303.234375 346 308.613281 344.664062 313.175781 346.214844 C 318.550781 348.210938 317.269531 351.785156 313.472656 354.9375 C 309.679688 358.089844 302.902344 358.175781 297.347656 358.941406 C 291.15625 359.824219 276.015625 360.894531 272.84375 355.859375 C 267.527344 347.425781 237.703125 314.457031 229.546875 300.945312 C 221.386719 287.429688 225.410156 265.839844 241.675781 268.625 "/>
<path style=" stroke:none;fill-rule:nonzero;fill:rgb(14.898682%,38.038635%,31.369019%);fill-opacity:1;" d="M 146.722656 328.902344 C 146.75 316.253906 151.769531 304.023438 161.75 296.03125 C 168.632812 290.664062 176.550781 286.648438 184.414062 282.945312 C 193.152344 278.828125 202.144531 275.222656 211.265625 272.050781 C 217.714844 269.8125 224.574219 267.253906 231.453125 266.84375 C 239.261719 266.382812 246 268.921875 251.585938 274.207031 C 259.332031 281.53125 265.234375 290.957031 270.730469 300.007812 C 276.234375 309.066406 285.460938 320.898438 285.964844 327.910156 C 286.464844 334.921875 267.667969 344.441406 260.273438 340.609375 C 252.878906 336.777344 241.515625 318.585938 233.035156 306.890625 C 224.410156 315.5625 215.167969 323.648438 205.355469 330.949219 C 197.210938 337.007812 188.503906 343.21875 178.339844 345.078125 C 170.300781 346.546875 161.0625 346.253906 153.542969 342.78125 C 150.988281 341.605469 148.613281 339.785156 147.519531 337.121094 C 146.535156 334.71875 146.714844 331.441406 146.722656 328.902344 "/>
<path style=" stroke:none;fill-rule:nonzero;fill:rgb(16.468811%,8.239746%,6.269836%);fill-opacity:1;" d="M 169.769531 171.015625 C 173.117188 176.101562 184.183594 171.113281 179.164062 165.371094 C 184.488281 169.179688 187.84375 159.210938 181.652344 155.859375 C 185.765625 150.464844 181.605469 142.378906 175.109375 142.839844 C 176.789062 135.972656 166.585938 134.859375 163.03125 137.964844 C 161.609375 138.828125 161.761719 139.742188 160.644531 140.558594 C 159.476562 141.066406 157.496094 140.457031 156.738281 141.527344 C 154.5 143.152344 155.261719 147.730469 156.226562 149.765625 C 150.03125 152.054688 151.144531 166.296875 159.519531 163.953125 "/>
<path style=" stroke:none;fill-rule:nonzero;fill:rgb(16.468811%,8.239746%,6.269836%);fill-opacity:1;" d="M 118.074219 155.160156 C 126.203125 149.058594 142.882812 146.171875 151.546875 153.695312 C 172.273438 152.75 182.308594 179.863281 172.738281 195.984375 C 160.230469 216.394531 131.972656 213.613281 115.757812 199.695312 C 102.324219 187.632812 103.253906 166.296875 118.074219 155.160156 "/>
<path style=" stroke:none;fill-rule:nonzero;fill:rgb(89.019775%,43.919373%,33.329773%);fill-opacity:1;" d="M 199.371094 318.53125 C 199.390625 298.117188 180.023438 252.816406 175.390625 243.074219 C 173.484375 239.066406 172.742188 232.570312 169.71875 228.519531 C 166.699219 224.476562 155.351562 218.378906 137.882812 218.652344 C 128.257812 218.800781 115.535156 219.324219 104.574219 224.753906 C 101.6875 226.183594 99.660156 228.277344 97.105469 230.472656 C 86.375 239.691406 88.175781 259.269531 91.414062 289.589844 C 93.933594 313.183594 117.953125 345.304688 134.179688 351.332031 C 150.410156 357.363281 199.359375 338.941406 199.371094 318.53125 "/>
<path style=" stroke:none;fill-rule:nonzero;fill:rgb(100%,99.21875%,94.119263%);fill-opacity:1;" d="M 96.175781 229.921875 C 98.613281 227.832031 101.394531 226.003906 104.445312 224.492188 C 104.550781 224.441406 104.675781 224.457031 104.761719 224.527344 C 114.6875 232.535156 127.195312 236.941406 139.996094 236.941406 C 150.539062 236.941406 160.761719 233.945312 169.554688 228.277344 C 169.675781 228.199219 169.832031 228.21875 169.933594 228.324219 C 173.429688 232.023438 175.4375 236.273438 177.207031 240.019531 L 177.648438 240.960938 C 181.859375 249.808594 199.683594 297.714844 199.667969 318.53125 C 199.65625 335.992188 147.546875 354.972656 141.308594 356.132812 C 140.839844 356.21875 140.238281 356.265625 139.523438 356.265625 C 139.523438 356.265625 139.523438 356.265625 139.519531 356.265625 C 130.234375 356.265625 108.050781 349.871094 98.734375 330.097656 C 95.488281 323.207031 93.304688 313.292969 92.058594 299.785156 C 91.960938 298.691406 91.863281 297.597656 91.765625 296.503906 C 91.566406 294.246094 91.363281 291.910156 91.117188 289.617188 L 90.792969 286.605469 C 87.71875 257.898438 85.683594 238.933594 96.175781 229.921875 "/>
<path style=" stroke:none;fill-rule:nonzero;fill:rgb(14.898682%,38.038635%,31.369019%);fill-opacity:1;" d="M 149.421875 220.660156 C 149.929688 222.535156 146.847656 226.140625 142.660156 226.742188 C 137.65625 227.460938 131.304688 224.832031 130.742188 222.621094 C 129.714844 218.550781 128.3125 212.277344 128 206.851562 C 127.710938 201.800781 132.433594 197.574219 137.265625 197.574219 C 142.6875 197.574219 145.5 202.097656 146.421875 206.871094 C 146.609375 207.84375 148.3125 216.542969 149.421875 220.660156 "/>
<path style=" stroke:none;fill-rule:nonzero;fill:rgb(89.019775%,43.919373%,33.329773%);fill-opacity:1;" d="M 121.300781 168.445312 C 112.875 176.882812 109.476562 190.488281 112.691406 200.273438 C 115.90625 210.054688 122.664062 220.460938 140.699219 221.886719 C 163.582031 223.699219 166.367188 213.28125 169.417969 197.148438 C 172.851562 178.996094 171.917969 174.832031 167.5625 168.183594 C 161.484375 158.90625 134.847656 154.875 121.300781 168.445312 "/>
<path style=" stroke:none;fill-rule:nonzero;fill:rgb(89.019775%,43.919373%,33.329773%);fill-opacity:1;" d="M 112.691406 200.273438 C 115.90625 210.050781 122.671875 220.460938 140.699219 221.890625 C 158.5 223.300781 164.132812 217.308594 167.195312 206.992188 C 168.078125 204.042969 168.746094 200.738281 169.421875 197.148438 C 169.558594 196.40625 169.699219 195.683594 169.820312 194.984375 C 172.765625 178.65625 171.738281 174.566406 167.558594 168.183594 C 161.480469 158.902344 134.847656 154.875 121.300781 168.441406 C 112.878906 176.882812 109.476562 190.488281 112.691406 200.273438 "/>
<path style=" stroke:none;fill-rule:nonzero;fill:rgb(16.468811%,8.239746%,6.269836%);fill-opacity:1;" d="M 142.210938 191.726562 C 142.746094 190.09375 142.296875 187.539062 140.523438 187.816406 C 138.601562 188.121094 138.695312 191.644531 139.566406 192.585938 C 140.574219 193.664062 141.769531 193.074219 142.210938 191.726562 "/>
<path style=" stroke:none;fill-rule:nonzero;fill:rgb(16.468811%,8.239746%,6.269836%);fill-opacity:1;" d="M 138.855469 184.421875 C 139.824219 183.414062 141.765625 183.234375 142.820312 184.171875 C 143.644531 184.910156 144.753906 183.601562 143.933594 182.871094 C 142.15625 181.285156 139.15625 181.644531 137.554688 183.308594 C 136.785156 184.105469 138.09375 185.210938 138.855469 184.421875 "/>
<path style=" stroke:none;fill-rule:nonzero;fill:rgb(16.468811%,8.239746%,6.269836%);fill-opacity:1;" d="M 161.894531 195.28125 C 162.425781 193.65625 161.976562 191.097656 160.203125 191.375 C 158.28125 191.679688 158.375 195.203125 159.246094 196.140625 C 160.253906 197.21875 161.449219 196.632812 161.894531 195.28125 "/>
<path style=" stroke:none;fill-rule:nonzero;fill:rgb(16.468811%,8.239746%,6.269836%);fill-opacity:1;" d="M 164.1875 187.121094 C 163.15625 185.117188 160.632812 184.351562 158.773438 185.492188 C 157.898438 186.03125 158.742188 187.40625 159.609375 186.878906 C 160.757812 186.171875 162.335938 186.992188 162.917969 188.125 C 163.402344 189.0625 164.664062 188.054688 164.1875 187.121094 "/>
<path style=" stroke:none;fill-rule:nonzero;fill:rgb(14.898682%,38.038635%,31.369019%);fill-opacity:1;" d="M 133.203125 191.664062 C 125.292969 190.234375 123.082031 202.515625 130.992188 203.945312 C 138.898438 205.375 141.113281 193.09375 133.203125 191.664062 "/>
<path style=" stroke:none;fill-rule:nonzero;fill:rgb(14.898682%,38.038635%,31.369019%);fill-opacity:1;" d="M 166.289062 206.898438 C 166.605469 206.953125 166.910156 206.980469 167.195312 206.992188 C 168.078125 204.042969 168.742188 200.738281 169.421875 197.148438 C 169.558594 196.40625 169.699219 195.683594 169.820312 194.984375 C 169.421875 194.828125 168.976562 194.699219 168.503906 194.617188 C 160.589844 193.1875 158.375 205.46875 166.289062 206.898438 "/>
<path style=" stroke:none;fill-rule:nonzero;fill:rgb(89.019775%,43.919373%,33.329773%);fill-opacity:1;" d="M 115.230469 186.691406 C 113.515625 180.359375 105.519531 178.011719 103.957031 185.859375 C 102.707031 191.953125 107.796875 197.089844 113.949219 197.148438 "/>
<path style=" stroke:none;fill-rule:nonzero;fill:rgb(14.898682%,38.038635%,31.369019%);fill-opacity:1;" d="M 107.230469 187.609375 C 107.488281 186.496094 108.34375 185.691406 109.515625 185.683594 C 110.515625 185.683594 111.457031 186.683594 111.351562 187.691406 C 111.253906 188.597656 110.675781 189.453125 110.3125 190.273438 C 110.15625 190.628906 109.945312 191.101562 110.042969 191.5 C 110.15625 191.964844 111.464844 191.699219 111.730469 191.65625 C 112.3125 191.5625 112.5625 192.453125 111.972656 192.550781 C 111.144531 192.683594 110.066406 192.863281 109.402344 192.199219 C 108.875 191.671875 109.125 190.792969 109.351562 190.191406 C 109.660156 189.375 110.152344 188.625 110.394531 187.78125 C 110.558594 187.214844 110.0625 186.671875 109.511719 186.613281 C 108.753906 186.53125 108.273438 187.207031 108.121094 187.855469 C 107.992188 188.441406 107.09375 188.191406 107.230469 187.609375 "/>
<path style=" stroke:none;fill-rule:nonzero;fill:rgb(89.019775%,43.919373%,33.329773%);fill-opacity:1;" d="M 173.625 291.039062 C 191 283.144531 210.109375 276.742188 217.671875 275.71875 C 227.503906 274.546875 242.121094 277.890625 239.96875 291.996094 C 238.410156 302.230469 200.726562 339.511719 174.660156 353.167969 C 170.210938 355.5 164.578125 356.824219 158.871094 357.234375 C 166.078125 335.640625 172.589844 313.820312 173.625 291.039062 "/>
<path style=" stroke:none;fill-rule:nonzero;fill:rgb(100%,99.21875%,94.119263%);fill-opacity:1;" d="M 92.664062 233.992188 C 94.691406 230.949219 98.023438 229.128906 101.578125 229.128906 C 105.417969 229.128906 110.207031 231.476562 112.132812 238.058594 C 117.972656 258.011719 117.488281 293.890625 103.433594 304.695312 C 101.179688 306.425781 97.066406 307.457031 92.421875 307.457031 C 92.421875 307.457031 92.421875 307.457031 92.417969 307.457031 C 85.40625 307.457031 76.832031 305.078125 73.796875 298.398438 C 68.074219 285.792969 82.757812 247.96875 92.664062 233.992188 "/>
<path style=" stroke:none;fill-rule:nonzero;fill:rgb(100%,99.21875%,94.119263%);fill-opacity:1;" d="M 209.125 229.660156 C 206.0625 229.085938 199.089844 236.703125 196.777344 235.3125 C 189.402344 228.804688 181.386719 222.910156 180.058594 223.285156 C 177.527344 223.996094 153.457031 264.578125 153.390625 267.066406 C 153.324219 269.5625 182.023438 288.875 185.550781 290.234375 C 189.078125 291.589844 209.457031 256.703125 211.925781 252.707031 C 214.402344 248.710938 212.183594 230.234375 209.125 229.660156 "/>
<path style=" stroke:none;fill-rule:nonzero;fill:rgb(31.369019%,61.569214%,36.079407%);fill-opacity:1;" d="M 208.71875 252.191406 C 206.871094 250.71875 177.621094 227.253906 175.089844 227.96875 C 172.5625 228.683594 148.492188 269.261719 148.425781 271.753906 C 148.359375 274.246094 175.242188 296.351562 185.824219 294.257812 C 196.40625 292.167969 213.484375 258.738281 215.230469 253.898438 C 217.738281 246.953125 212.273438 231.324219 211.460938 230.503906 C 210.648438 229.6875 209.890625 230.191406 209.890625 230.191406 C 209.890625 230.191406 211.695312 236.828125 211.984375 239.972656 C 212.5 245.546875 212.339844 251.34375 212.21875 252.121094 C 211.976562 253.65625 209.058594 252.460938 208.71875 252.191406 "/>
<path style=" stroke:none;fill-rule:nonzero;fill:rgb(100%,99.21875%,94.119263%);fill-opacity:1;" d="M 197.863281 272.523438 C 193.707031 278.722656 188.070312 283.84375 184.738281 290.597656 C 184.476562 291.136719 183.675781 290.664062 183.9375 290.132812 C 187.269531 283.371094 192.902344 278.253906 197.0625 272.054688 C 197.394531 271.5625 198.195312 272.023438 197.863281 272.523438 "/>
<path style=" stroke:none;fill-rule:nonzero;fill:rgb(100%,99.21875%,94.119263%);fill-opacity:1;" d="M 207.667969 255.058594 C 206.023438 257.871094 204.441406 260.714844 202.863281 263.566406 C 202.570312 264.085938 201.769531 263.617188 202.058594 263.09375 C 203.640625 260.25 205.226562 257.402344 206.867188 254.59375 C 207.167969 254.074219 207.96875 254.542969 207.667969 255.058594 "/>
<path style=" stroke:none;fill-rule:nonzero;fill:rgb(89.019775%,43.919373%,33.329773%);fill-opacity:1;" d="M 230.558594 276.941406 C 247.601562 279.859375 274.953125 335.527344 280.230469 346.890625 C 282.378906 351.554688 284.460938 353.695312 290.527344 356.023438 C 295.0625 358.003906 300.691406 356.609375 305.46875 358.230469 C 311.105469 360.324219 309.761719 364.070312 305.785156 367.371094 C 301.808594 370.671875 294.707031 370.769531 288.890625 371.566406 C 282.398438 372.492188 266.539062 373.613281 263.214844 368.339844 C 257.648438 359.503906 226.398438 324.957031 217.847656 310.800781 C 209.304688 296.640625 213.519531 274.019531 230.558594 276.941406 "/>
<path style=" stroke:none;fill-rule:nonzero;fill:rgb(14.898682%,38.038635%,31.369019%);fill-opacity:1;" d="M 141.628906 355.640625 C 141.515625 355.714844 141.382812 355.789062 141.253906 355.84375 C 148.5 358.320312 156.828125 358.386719 164.207031 357.039062 C 174.851562 355.089844 183.96875 348.589844 192.507812 342.242188 C 202.792969 334.589844 212.464844 326.117188 221.507812 317.035156 C 230.390625 329.28125 240.835938 350.460938 250.042969 352.355469 C 259.253906 354.257812 279.652344 345.65625 276.957031 339.058594 C 274.269531 332.453125 266.765625 319.308594 261.003906 309.824219 C 255.242188 300.34375 249.0625 290.460938 240.945312 282.792969 C 235.089844 277.25 228.03125 274.589844 219.847656 275.082031 C 212.640625 275.507812 205.453125 278.179688 198.699219 280.527344 C 189.132812 283.847656 179.722656 287.636719 170.558594 291.949219 C 165.789062 294.191406 161.625 296.523438 158.871094 298.589844 C 156.117188 300.652344 155.484375 306.597656 153.667969 309.566406 C 150.269531 315.132812 139.152344 313.277344 141.308594 323.167969 C 141.933594 326.265625 146.871094 328.429688 145.332031 332.136719 C 144.089844 335.542969 139.152344 334.300781 137.921875 338.632812 C 136.679688 343.273438 146.871094 352.242188 141.628906 355.640625 "/>
<path style=" stroke:none;fill-rule:nonzero;fill:rgb(16.468811%,8.239746%,6.269836%);fill-opacity:1;" d="M 125.480469 157.40625 C 131.550781 156.972656 132.636719 144.871094 125.171875 146.441406 C 131.105469 143.65625 124.070312 135.847656 118.113281 139.613281 C 115.441406 133.378906 106.363281 133.050781 103.578125 138.949219 C 98.421875 134.125 92.449219 142.484375 93.40625 147.105469 C 93.460938 148.769531 94.332031 149.085938 94.496094 150.460938 C 94.363281 151.726562 92.863281 153.160156 93.417969 154.347656 C 93.742188 157.09375 98.097656 158.671875 100.339844 158.824219 C 99.296875 165.355469 112.234375 171.355469 114.304688 162.894531 "/>
<path style=" stroke:none;fill-rule:nonzero;fill:rgb(16.468811%,8.239746%,6.269836%);fill-opacity:1;" d="M 155.289062 159.644531 C 155.1875 159.644531 155.082031 159.644531 154.980469 159.644531 C 154.382812 159.644531 154.382812 158.71875 154.980469 158.71875 C 155.082031 158.71875 155.1875 158.71875 155.289062 158.71875 C 155.886719 158.71875 155.886719 159.644531 155.289062 159.644531 "/>
<path style=" stroke:none;fill-rule:nonzero;fill:rgb(16.468811%,8.239746%,6.269836%);fill-opacity:1;" d="M 126.050781 159.183594 C 137.179688 154.925781 159.554688 156.496094 165.125 161.429688 C 176.382812 171.402344 176.226562 187.351562 175.152344 191.3125 C 174.886719 192.308594 173.984375 193.984375 172.957031 194.34375 C 170.589844 195.167969 171.785156 192.226562 171.5 191.269531 C 170.628906 187.34375 170.214844 187.902344 167.496094 185.535156 C 164.726562 183.472656 165.296875 182.6875 165.734375 179.566406 C 166.53125 173.847656 158.402344 173.125 155.289062 166.082031 C 152.066406 173.125 146.855469 167.03125 143.074219 171.140625 C 140.890625 173.519531 141.277344 177.734375 137.914062 179.019531 C 134.550781 180.308594 132.191406 177.691406 129.152344 177.152344 C 126.109375 176.609375 122.191406 177.484375 119.933594 179.59375 C 116.195312 183.015625 119.625 184.878906 118.675781 188.480469 C 117.453125 193.601562 112.84375 187.757812 112.363281 185.160156 C 111.578125 182.507812 112.589844 164.332031 126.050781 159.183594 "/>
<path style=" stroke:none;fill-rule:nonzero;fill:rgb(14.898682%,38.038635%,31.369019%);fill-opacity:1;" d="M 152.261719 196.894531 C 152.8125 197.550781 153.453125 198.121094 154.023438 198.757812 C 154.273438 199.039062 154.535156 199.34375 154.683594 199.691406 C 154.761719 199.863281 154.6875 199.894531 154.75 199.804688 C 154.628906 199.976562 154.335938 200.027344 154.160156 200.085938 C 153.109375 200.429688 153.695312 202.039062 154.746094 201.695312 C 155.992188 201.289062 156.8125 200.285156 156.234375 198.964844 C 155.691406 197.738281 154.507812 196.921875 153.667969 195.917969 C 152.960938 195.074219 151.550781 196.046875 152.261719 196.894531 "/>
<path style=" stroke:none;fill-rule:nonzero;fill:rgb(89.019775%,43.919373%,33.329773%);fill-opacity:1;" d="M 160 252.523438 C 162.792969 253.40625 174.734375 261.570312 173.117188 264.03125 C 172.402344 265.109375 170.023438 264.273438 167.578125 263 C 169.957031 265.644531 172.351562 268.613281 172.261719 269.597656 C 172.152344 270.808594 171.15625 270.988281 170.214844 270.738281 C 170.84375 271.59375 171.125 272.378906 170.832031 273.023438 C 169.921875 275.027344 163.921875 271.507812 160.148438 269.109375 C 162.261719 271.175781 164.015625 273.335938 163.859375 274.34375 C 163.113281 279.199219 153.753906 270 152.675781 270.816406 C 151.59375 271.632812 144.324219 275.511719 139.183594 272.5 C 132.789062 278.023438 108.511719 300.75 97.296875 302.964844 C 84.519531 305.492188 76.640625 292.109375 88.519531 279.035156 C 100.398438 265.960938 157.292969 251.671875 160 252.523438 "/>
<path style=" stroke:none;fill-rule:nonzero;fill:rgb(14.898682%,38.038635%,31.369019%);fill-opacity:1;" d="M 158.566406 268.539062 C 157.113281 266.875 156.191406 264.90625 153.882812 264.324219 C 153.292969 264.171875 153.429688 263.226562 154.03125 263.375 C 156.664062 264.042969 157.664062 266.058594 159.339844 267.976562 C 159.746094 268.441406 158.96875 269 158.566406 268.539062 "/>
<path style=" stroke:none;fill-rule:nonzero;fill:rgb(14.898682%,38.038635%,31.369019%);fill-opacity:1;" d="M 168.75 269.675781 C 167.007812 267.945312 165.144531 266.359375 163.402344 264.617188 C 161.332031 262.542969 158.953125 259.613281 155.746094 259.679688 C 155.132812 259.691406 155.019531 258.742188 155.636719 258.726562 C 158.101562 258.675781 159.9375 260.003906 161.699219 261.617188 C 164.285156 263.984375 166.871094 266.464844 169.355469 268.929688 C 169.785156 269.363281 169.191406 270.109375 168.75 269.675781 "/>
<path style=" stroke:none;fill-rule:nonzero;fill:rgb(14.898682%,38.038635%,31.369019%);fill-opacity:1;" d="M 166.273438 262.773438 C 165.304688 261.675781 164.332031 260.578125 163.332031 259.511719 C 162.335938 258.449219 161.359375 256.882812 159.867188 256.503906 C 159.277344 256.355469 159.414062 255.40625 160.011719 255.558594 C 161.269531 255.878906 162.132812 256.769531 162.988281 257.699219 C 164.359375 259.183594 165.707031 260.691406 167.042969 262.207031 C 167.453125 262.671875 166.675781 263.234375 166.273438 262.773438 "/>
<path style=" stroke:none;fill-rule:nonzero;fill:rgb(89.019775%,43.919373%,33.329773%);fill-opacity:1;" d="M 213.171875 261.5625 C 213.933594 262.023438 214.089844 265.117188 213.238281 266.320312 C 212.339844 267.503906 210.679688 267.59375 209.328125 267.738281 C 206.390625 268.050781 202.5625 267.007812 203.21875 265.347656 C 204.039062 263.285156 212.40625 261.097656 213.171875 261.5625 "/>
<path style=" stroke:none;fill-rule:nonzero;fill:rgb(89.019775%,43.919373%,33.329773%);fill-opacity:1;" d="M 210.804688 267.082031 C 211.421875 267.726562 210.757812 270.734375 209.621094 271.664062 C 208.441406 272.566406 206.816406 272.214844 205.472656 272 C 202.558594 271.53125 199.136719 269.523438 200.207031 268.105469 C 201.542969 266.339844 210.191406 266.433594 210.804688 267.082031 "/>
<path style=" stroke:none;fill-rule:nonzero;fill:rgb(89.019775%,43.919373%,33.329773%);fill-opacity:1;" d="M 213.550781 262.261719 C 212.859375 262.636719 212.019531 262.847656 211.332031 263.046875 C 210.210938 263.386719 208.324219 264.011719 207.226562 263.3125 C 206.035156 262.507812 206.769531 260.5 207.71875 259.761719 C 208.773438 258.933594 210.765625 258.300781 211.882812 257.878906 C 213.003906 257.453125 213.421875 256.328125 213.96875 256.34375 C 214.511719 256.363281 215.363281 257.558594 214.851562 260.640625 C 214.722656 261.410156 214.203125 261.910156 213.550781 262.261719 "/>
<path style=" stroke:none;fill-rule:nonzero;fill:rgb(14.898682%,38.038635%,31.369019%);fill-opacity:1;" d="M 212.832031 263.164062 C 211.015625 263.832031 209.351562 264.074219 207.425781 263.882812 C 206.835938 263.824219 206.832031 262.898438 207.425781 262.957031 C 209.257812 263.140625 210.855469 262.90625 212.585938 262.269531 C 213.148438 262.0625 213.390625 262.960938 212.832031 263.164062 "/>
<path style=" stroke:none;fill-rule:nonzero;fill:rgb(14.898682%,38.038635%,31.369019%);fill-opacity:1;" d="M 209.867188 268.550781 C 207.886719 268.59375 206.199219 268.261719 204.40625 267.4375 C 203.863281 267.191406 204.335938 266.390625 204.875 266.636719 C 206.511719 267.390625 208.070312 267.664062 209.867188 267.625 C 210.464844 267.609375 210.460938 268.539062 209.867188 268.550781 "/>
<path style=" stroke:none;fill-rule:nonzero;fill:rgb(16.468811%,8.239746%,6.269836%);fill-opacity:1;" d="M 297.8125 357.886719 C 293.519531 358.105469 289.164062 357.183594 286.007812 354.121094 C 282.917969 351.121094 280.640625 347.25 278.214844 343.726562 C 277.878906 343.230469 278.679688 342.765625 279.019531 343.253906 C 281.207031 346.441406 283.304688 349.707031 285.863281 352.617188 C 288.929688 356.105469 293.289062 357.1875 297.8125 356.957031 C 298.410156 356.925781 298.410156 357.851562 297.8125 357.886719 "/>
<path style=" stroke:none;fill-rule:nonzero;fill:rgb(16.468811%,8.239746%,6.269836%);fill-opacity:1;" d="M 274.25 334.460938 C 270.632812 329.601562 268.007812 324.128906 264.941406 318.925781 C 261.519531 313.105469 257.519531 307.800781 253.394531 302.46875 C 250.292969 298.453125 247.785156 294.078125 244.816406 289.96875 C 240.996094 284.679688 236.273438 279.945312 230.257812 277.246094 C 221.84375 273.472656 212.4375 275.359375 204.363281 279.050781 C 203.824219 279.300781 203.351562 278.5 203.894531 278.25 C 211.785156 274.644531 220.527344 272.8125 228.929688 275.730469 C 235.257812 277.925781 240.320312 282.644531 244.371094 287.839844 C 247.539062 291.90625 249.972656 296.46875 253.09375 300.5625 C 257.191406 305.945312 261.492188 311.175781 264.914062 317.035156 C 268.230469 322.707031 271.113281 328.710938 275.050781 333.992188 C 275.40625 334.472656 274.601562 334.933594 274.25 334.460938 "/>
<path style=" stroke:none;fill-rule:nonzero;fill:rgb(14.898682%,38.038635%,31.369019%);fill-opacity:1;" d="M 154.207031 207.46875 C 151.957031 207.542969 149.632812 206.839844 147.71875 205.667969 C 147.210938 205.355469 147.679688 204.550781 148.1875 204.863281 C 149.96875 205.957031 152.113281 206.609375 154.207031 206.539062 C 154.804688 206.519531 154.804688 207.449219 154.207031 207.46875 "/>
<path style=" stroke:none;fill-rule:nonzero;fill:rgb(14.898682%,38.038635%,31.369019%);fill-opacity:1;" d="M 154.019531 161.074219 C 151.78125 158.769531 148.625 157.035156 145.699219 159.3125 C 144.371094 160.351562 143.511719 162.160156 142.441406 163.460938 C 140.519531 165.792969 137.898438 166.980469 135.71875 164.320312 C 135.34375 163.863281 135.996094 163.203125 136.375 163.664062 C 139.875 167.941406 143.128906 160.152344 145.5625 158.253906 C 148.597656 155.886719 152.421875 158.097656 154.675781 160.417969 C 155.089844 160.847656 154.433594 161.503906 154.019531 161.074219 "/>
<path style=" stroke:none;fill-rule:nonzero;fill:rgb(14.898682%,38.038635%,31.369019%);fill-opacity:1;" d="M 131.277344 171.046875 C 128.976562 173.410156 126.011719 173.007812 123.535156 171.117188 C 123.066406 170.761719 123.53125 169.957031 124.003906 170.316406 C 126.132812 171.9375 128.597656 172.472656 130.625 170.390625 C 131.042969 169.964844 131.695312 170.617188 131.277344 171.046875 "/>
<path style=" stroke:none;fill-rule:nonzero;fill:rgb(14.898682%,38.038635%,31.369019%);fill-opacity:1;" d="M 153.878906 159.882812 C 156.253906 158.53125 158.984375 159.082031 160.804688 161.074219 C 161.550781 161.886719 161.898438 163.140625 162.25 164.164062 C 162.992188 166.332031 163.996094 167.390625 166.28125 167.953125 C 166.863281 168.097656 166.613281 168.992188 166.035156 168.847656 C 164.144531 168.382812 162.585938 167.554688 161.824219 165.671875 C 161.347656 164.496094 161.003906 163.28125 160.429688 162.140625 C 159.320312 159.929688 156.289062 159.578125 154.347656 160.683594 C 153.824219 160.976562 153.359375 160.175781 153.878906 159.882812 "/>
<path style=" stroke:none;fill-rule:nonzero;fill:rgb(14.898682%,38.038635%,31.369019%);fill-opacity:1;" d="M 119.832031 150.773438 C 120.039062 146.527344 112.875 143.726562 110.507812 147.527344 C 110.1875 148.03125 109.390625 147.566406 109.707031 147.058594 C 112.550781 142.5 121.011719 145.566406 120.761719 150.773438 C 120.734375 151.367188 119.804688 151.371094 119.832031 150.773438 "/>
<path style=" stroke:none;fill-rule:nonzero;fill:rgb(14.898682%,38.038635%,31.369019%);fill-opacity:1;" d="M 111.511719 145.328125 C 110.527344 142.574219 106.957031 142.175781 104.875 143.910156 C 104.417969 144.289062 103.757812 143.636719 104.21875 143.253906 C 106.855469 141.054688 111.179688 141.640625 112.402344 145.082031 C 112.609375 145.648438 111.710938 145.886719 111.511719 145.328125 "/>
<path style=" stroke:none;fill-rule:nonzero;fill:rgb(14.898682%,38.038635%,31.369019%);fill-opacity:1;" d="M 171.714844 151.40625 C 170.019531 150.117188 168.074219 149.230469 165.929688 149.832031 C 163.640625 150.476562 162.824219 153.085938 162.683594 155.179688 C 162.644531 155.773438 161.71875 155.777344 161.757812 155.179688 C 161.929688 152.675781 162.824219 150.269531 165.203125 149.125 C 167.566406 147.984375 170.269531 149.152344 172.183594 150.605469 C 172.652344 150.960938 172.191406 151.765625 171.714844 151.40625 "/>
<path style=" stroke:none;fill-rule:nonzero;fill:rgb(14.898682%,38.038635%,31.369019%);fill-opacity:1;" d="M 160.257812 292.472656 C 157.253906 293.21875 153.929688 293.800781 151.6875 296.125 C 149.054688 298.847656 150.953125 302.945312 149.375 306.070312 C 147.976562 308.835938 144.074219 308.9375 141.609375 310.054688 C 137.917969 311.722656 135.621094 315.953125 135.160156 319.832031 C 134.902344 321.972656 135.632812 323.734375 136.613281 325.589844 C 137.109375 326.527344 137.769531 327.8125 137.539062 328.917969 C 136.921875 331.910156 133.792969 332.351562 132.269531 334.6875 C 130.804688 336.929688 132.261719 341 132.644531 343.398438 C 132.878906 344.890625 133.339844 347.011719 132.207031 348.253906 C 131.804688 348.695312 131.148438 348.039062 131.550781 347.597656 C 133.027344 345.976562 131.332031 341.3125 131.054688 339.40625 C 130.730469 337.1875 130.636719 335.078125 132.160156 333.292969 C 133.074219 332.226562 134.496094 331.617188 135.558594 330.71875 C 137.773438 328.839844 135.847656 326.230469 134.898438 324.269531 C 133.660156 321.71875 134.128906 318.386719 135.242188 315.878906 C 136.480469 313.078125 138.390625 310.675781 141.140625 309.253906 C 142.46875 308.566406 143.984375 308.277344 145.402344 307.835938 C 148.640625 306.824219 149.230469 304.371094 149.195312 301.300781 C 149.117188 294.59375 154.484375 292.949219 160.011719 291.582031 C 160.59375 291.433594 160.839844 292.332031 160.257812 292.472656 "/>
<path style=" stroke:none;fill-rule:nonzero;fill:rgb(14.898682%,38.038635%,31.369019%);fill-opacity:1;" d="M 99.558594 268.816406 C 92.296875 266.46875 85.683594 271.203125 81.429688 276.769531 C 77.191406 282.320312 77.03125 288.828125 79.515625 295.152344 C 79.734375 295.707031 78.835938 295.945312 78.621094 295.394531 C 75.882812 288.421875 76.496094 281.71875 81.082031 275.707031 C 85.441406 270.003906 92.511719 265.5625 99.804688 267.921875 C 100.371094 268.101562 100.128906 269 99.558594 268.816406 "/>
<path style=" stroke:none;fill-rule:nonzero;fill:rgb(14.898682%,38.038635%,31.369019%);fill-opacity:1;" d="M 167.316406 234.207031 C 148.1875 246.507812 120.097656 243.332031 102.371094 229.824219 C 101.902344 229.46875 102.363281 228.664062 102.839844 229.023438 C 120.320312 242.339844 147.972656 245.542969 166.851562 233.40625 C 167.355469 233.082031 167.820312 233.886719 167.316406 234.207031 "/>
<path style=" stroke:none;fill-rule:nonzero;fill:rgb(14.898682%,38.038635%,31.369019%);fill-opacity:1;" d="M 114.011719 255.417969 C 114.476562 258.484375 113.796875 261.699219 112.566406 264.503906 C 112.324219 265.046875 111.527344 264.578125 111.765625 264.03125 C 112.886719 261.480469 113.542969 258.464844 113.117188 255.664062 C 113.027344 255.078125 113.921875 254.828125 114.011719 255.417969 "/>
<g clip-path="url(#clip4)" clip-rule="nonzero">
<path style=" stroke:none;fill-rule:nonzero;fill:rgb(14.898682%,38.038635%,31.369019%);fill-opacity:1;" d="M 287.628906 364.851562 C 288.347656 362.46875 289.164062 359.765625 290.421875 357.664062 C 291.925781 355.230469 293.664062 354.882812 296.328125 355 C 300.710938 355.121094 305.761719 355.371094 309.304688 358.3125 C 312.199219 360.71875 312.273438 365.300781 309.636719 368.089844 C 306.933594 370.949219 302.835938 371.984375 299.144531 372.898438 C 289.703125 375.238281 279.945312 376.082031 270.320312 374.394531 C 268.164062 374.015625 265.597656 373.601562 263.851562 372.179688 C 261.121094 369.960938 261.71875 366.949219 263.214844 368.339844 C 264.890625 369.894531 268.046875 370.136719 270.199219 370.441406 C 275.886719 371.25 285.304688 372.554688 287.472656 365.378906 C 287.523438 365.203125 287.578125 365.03125 287.628906 364.851562 "/>
</g>
<path style=" stroke:none;fill-rule:nonzero;fill:rgb(14.898682%,38.038635%,31.369019%);fill-opacity:1;" d="M 293.925781 357.863281 C 294.949219 357.015625 295.757812 355.886719 296.21875 354.351562 C 296.273438 354.179688 296.324219 354.003906 296.378906 353.828125 C 297.09375 351.441406 297.910156 348.738281 299.167969 346.640625 C 300.675781 344.203125 302.414062 343.855469 305.078125 343.972656 C 309.460938 344.09375 314.511719 344.34375 318.050781 347.285156 C 320.949219 349.691406 321.023438 354.273438 318.386719 357.0625 C 315.683594 359.925781 311.585938 360.957031 307.894531 361.871094 C 305.777344 362.398438 303.644531 362.84375 301.5 363.207031 C 298.707031 361.84375 296.039062 360.125 293.925781 357.863281 "/>
<path style=" stroke:none;fill-rule:nonzero;fill:rgb(16.468811%,8.239746%,6.269836%);fill-opacity:1;" d="M 310.109375 360.160156 C 310.164062 356.121094 301.136719 355.097656 298.476562 355.738281 C 297.898438 355.875 297.652344 354.980469 298.234375 354.839844 C 301.53125 354.050781 311.105469 355.28125 311.039062 360.160156 C 311.027344 360.757812 310.101562 360.757812 310.109375 360.160156 "/>
<path style=" stroke:none;fill-rule:nonzero;fill:rgb(100%,99.21875%,94.119263%);fill-opacity:1;" d="M 192.222656 259.53125 L 195.054688 255.859375 C 194.867188 255.714844 190.492188 252.34375 188.085938 251.011719 C 186.257812 249.898438 184.605469 248.636719 182.855469 247.300781 C 181.269531 246.09375 179.632812 244.839844 177.867188 243.722656 L 175.390625 247.640625 C 176.988281 248.652344 178.472656 249.789062 180.046875 250.988281 C 181.828125 252.347656 183.671875 253.753906 185.722656 255.003906 L 185.816406 255.058594 C 187.539062 255.996094 191.027344 258.605469 192.222656 259.53125 "/>
<path style=" stroke:none;fill-rule:nonzero;fill:rgb(31.369019%,61.569214%,36.079407%);fill-opacity:1;" d="M 209.179688 250.089844 C 208.398438 247.480469 207.320312 245.1875 205.359375 243.257812 C 203.257812 241.191406 200.839844 239.402344 198.503906 237.613281 C 198.039062 237.253906 198.5 236.445312 198.972656 236.808594 C 201.566406 238.804688 204.183594 240.796875 206.515625 243.097656 C 208.359375 244.910156 209.347656 247.414062 210.074219 249.84375 C 210.246094 250.417969 209.351562 250.664062 209.179688 250.089844 "/>
<path style=" stroke:none;fill-rule:nonzero;fill:rgb(31.369019%,61.569214%,36.079407%);fill-opacity:1;" d="M 184.992188 228.953125 C 183.585938 227.945312 182.109375 227.046875 180.671875 226.089844 C 180.175781 225.761719 180.636719 224.957031 181.136719 225.289062 C 182.578125 226.246094 184.054688 227.144531 185.460938 228.152344 C 185.945312 228.492188 185.480469 229.300781 184.992188 228.953125 "/>
<path style=" stroke:none;fill-rule:nonzero;fill:rgb(31.369019%,61.569214%,36.079407%);fill-opacity:1;" d="M 183.527344 230.652344 C 182.097656 229.679688 180.609375 228.773438 179.050781 228.023438 C 178.511719 227.765625 178.980469 226.964844 179.515625 227.222656 C 181.074219 227.96875 182.566406 228.878906 183.996094 229.851562 C 184.484375 230.1875 184.023438 230.988281 183.527344 230.652344 "/>
<path style=" stroke:none;fill-rule:nonzero;fill:rgb(16.468811%,8.239746%,6.269836%);fill-opacity:1;" d="M 185.117188 339.636719 C 171.503906 343.015625 157.890625 348.382812 143.796875 344.273438 C 143.226562 344.105469 143.46875 343.214844 144.046875 343.378906 C 157.960938 347.4375 171.433594 342.074219 184.875 338.742188 C 185.453125 338.597656 185.699219 339.492188 185.117188 339.636719 "/>
</g>
</svg>
