<?xml version="1.0" encoding="UTF-8"?>
<svg xmlns="http://www.w3.org/2000/svg" xmlns:xlink="http://www.w3.org/1999/xlink" width="375pt" height="374.999991pt" viewBox="0 0 375 374.999991" version="1.2">
<defs>
<clipPath id="clip1">
  <path d="M 13.445312 137.148438 L 361 137.148438 L 361 369.648438 L 13.445312 369.648438 Z M 13.445312 137.148438 "/>
</clipPath>
<clipPath id="clip2">
  <path d="M 13.445312 137.148438 L 361 137.148438 L 361 323 L 13.445312 323 Z M 13.445312 137.148438 "/>
</clipPath>
<clipPath id="clip3">
  <path d="M 39 155 L 361.445312 155 L 361.445312 369.648438 L 39 369.648438 Z M 39 155 "/>
</clipPath>
</defs>
<g id="surface1">
<g clip-path="url(#clip1)" clip-rule="nonzero">
<path style=" stroke:none;fill-rule:nonzero;fill:rgb(99.21875%,97.24884%,96.078491%);fill-opacity:1;" d="M 81.558594 369.179688 C 76.921875 369.179688 72.648438 369.136719 68.480469 369.03125 C 61.820312 368.871094 56.324219 368.609375 51.171875 368.195312 C 50.097656 368.113281 49.015625 367.886719 47.957031 367.542969 C 46.855469 367.179688 46.082031 366.472656 45.585938 365.375 C 42.125 357.667969 40.289062 351.203125 39.808594 345.011719 C 39.238281 337.601562 40.019531 331.164062 42.207031 325.34375 C 42.28125 325.140625 42.371094 324.929688 42.453125 324.734375 C 42.613281 324.382812 42.777344 324.035156 42.949219 323.6875 C 43.078125 323.425781 43.203125 323.164062 43.324219 322.898438 L 43.46875 322.589844 L 41.742188 322.523438 C 40.285156 322.472656 38.828125 322.417969 37.371094 322.351562 C 37.046875 322.335938 36.714844 322.3125 36.394531 322.28125 L 35.824219 322.230469 C 35.558594 322.238281 35.320312 322.238281 35.078125 322.238281 C 34.644531 322.238281 34.199219 322.230469 33.765625 322.214844 C 32.414062 322.171875 30.988281 322.066406 29.523438 321.882812 C 28.824219 321.800781 28.132812 321.703125 27.441406 321.597656 L 27.105469 321.578125 C 24.714844 321.449219 22.246094 321.3125 19.925781 320.605469 C 13.617188 318.6875 13.640625 310.402344 13.660156 302.386719 C 13.667969 300.558594 13.714844 298.621094 14.1875 296.753906 C 14.847656 294.144531 16.363281 292.558594 18.828125 291.914062 C 19.550781 291.726562 25.1875 290.890625 27.921875 290.890625 L 28.191406 290.890625 C 28.988281 290.875 29.785156 290.851562 30.574219 290.824219 C 31.738281 290.785156 32.9375 290.746094 34.117188 290.746094 L 34.410156 290.746094 C 35.160156 290.753906 35.835938 290.769531 36.46875 290.808594 L 36.378906 290.71875 L 36.527344 290.761719 L 36.484375 290.816406 L 36.777344 290.816406 C 38.074219 290.816406 40.484375 290.808594 41.394531 290.769531 C 43.476562 291.605469 45.636719 291.929688 47.484375 292.140625 L 47.539062 291.6875 C 45.707031 291.484375 43.566406 291.160156 41.523438 290.335938 C 40.261719 289.242188 36.574219 283.289062 35.296875 275.265625 C 35.25 274.972656 31.242188 245.300781 41.65625 238.421875 C 43.761719 237.039062 46.367188 236.761719 48.890625 236.496094 C 49.484375 236.4375 50.074219 236.367188 50.65625 236.292969 C 55.09375 235.714844 59.597656 235.667969 63.472656 235.667969 L 67.941406 235.675781 C 69.007812 235.675781 70.066406 235.667969 71.132812 235.65625 C 71.597656 235.648438 72.058594 235.648438 72.523438 235.648438 L 72.679688 235.648438 C 73.25 235.648438 73.820312 235.640625 74.390625 235.625 C 75.578125 235.59375 76.496094 235.535156 77.34375 235.421875 L 77.390625 235.414062 L 78.15625 234.984375 L 75.105469 234.949219 C 73.371094 234.925781 71.636719 234.910156 69.910156 234.863281 C 68.316406 234.828125 66.453125 234.707031 64.691406 234.113281 L 64.578125 234.074219 C 64.320312 233.992188 64.074219 233.910156 63.828125 233.796875 C 63.519531 233.660156 63.285156 233.511719 63.097656 233.324219 L 63.058594 233.285156 L 63.007812 233.269531 C 62.421875 233.105469 61.964844 232.8125 61.609375 232.375 C 61.445312 232.171875 61.304688 231.941406 61.183594 231.675781 C 61.109375 231.519531 61.054688 231.347656 60.996094 231.164062 C 60.957031 231.046875 60.921875 230.925781 60.875 230.804688 C 57.910156 222.8125 56.691406 213.636719 57.269531 203.554688 C 57.496094 199.570312 58.1875 195.171875 58.800781 191.292969 C 58.929688 190.480469 59.058594 189.683594 59.171875 188.921875 C 59.367188 187.652344 59.5625 186.351562 60.621094 185.492188 C 61.429688 184.652344 62.46875 184.375 63.554688 184.074219 L 63.945312 183.96875 C 67.378906 183.003906 70.96875 182.578125 74.445312 182.15625 L 74.714844 182.125 C 76.007812 181.96875 77.292969 181.824219 78.582031 181.683594 C 81.660156 181.351562 84.710938 181.082031 87.65625 180.886719 C 88.164062 180.847656 90.597656 180.75 92.542969 180.667969 C 93.851562 180.613281 94.992188 180.570312 95.335938 180.546875 L 95.726562 180.546875 C 97.199219 180.546875 99.054688 180.523438 101.058594 180.492188 L 101.050781 180.042969 C 99 180.066406 97.253906 180.074219 96.667969 180.082031 L 96.660156 180.003906 L 96.382812 180.011719 C 96.1875 180.074219 95.855469 180.085938 95.320312 180.09375 C 94.910156 180.09375 94.488281 180.101562 94.074219 180.101562 C 93.308594 180.101562 92.550781 180.09375 91.785156 180.09375 L 90.246094 180.085938 C 88.382812 180.042969 86.492188 179.808594 84.636719 179.386719 C 84.066406 179.261719 83.457031 179.082031 82.839844 178.855469 C 80.617188 178.042969 77.660156 175.734375 76.546875 173.058594 C 74.730469 168.703125 71.660156 153.792969 75.480469 146.019531 C 76.660156 143.628906 78.394531 142.109375 80.648438 141.507812 C 83 140.875 85.476562 140.769531 87.871094 140.664062 C 88.660156 140.628906 89.441406 140.597656 90.222656 140.542969 C 90.75 140.507812 91.273438 140.46875 91.800781 140.429688 L 92.085938 140.410156 C 93.039062 140.332031 93.96875 140.296875 94.917969 140.25 C 95.816406 140.214844 96.726562 140.167969 97.671875 140.101562 C 99.804688 139.828125 101.976562 139.777344 104.078125 139.726562 L 104.949219 139.703125 C 105.65625 139.6875 106.359375 139.664062 107.066406 139.628906 C 107.089844 139.914062 107.128906 139.988281 107.277344 139.988281 C 107.292969 139.988281 107.40625 139.980469 107.40625 139.980469 L 107.464844 139.914062 C 107.519531 139.859375 107.523438 139.84375 107.511719 139.613281 C 107.984375 139.597656 108.449219 139.589844 108.921875 139.589844 L 110.140625 139.589844 C 110.746094 139.589844 111.355469 139.582031 111.957031 139.550781 C 113.332031 139.476562 114.960938 139.402344 116.628906 139.394531 C 126.417969 139.355469 136.453125 139.125 145.089844 138.914062 L 148.671875 138.824219 C 155.046875 138.671875 161.648438 138.507812 168.128906 138.242188 C 180.371094 137.738281 190.273438 137.5 199.316406 137.5 C 200.992188 137.5 202.671875 137.507812 204.347656 137.523438 C 214.058594 137.621094 233.644531 138.207031 234.152344 138.289062 C 237.203125 138.289062 240.222656 138.46875 242.878906 138.621094 L 243.242188 138.640625 C 244.082031 138.6875 244.929688 138.738281 245.777344 138.785156 C 247.730469 138.890625 249.429688 138.914062 251.066406 138.933594 C 253.054688 138.964844 254.925781 138.988281 256.976562 139.152344 L 258.980469 139.3125 C 260.796875 139.453125 262.902344 139.648438 264.929688 140.101562 C 266.722656 140.726562 267.960938 141.914062 268.59375 143.613281 C 268.683594 143.859375 268.757812 144.117188 268.828125 144.386719 C 269.441406 146.914062 269.472656 149.53125 269.417969 151.746094 C 269.300781 156.972656 268.976562 163.148438 267.503906 169.359375 L 267.4375 169.652344 C 267.183594 170.777344 266.933594 171.839844 265.71875 172.273438 C 264.570312 172.96875 263.652344 173.253906 262.601562 173.582031 L 262.195312 173.710938 L 262.261719 174.15625 L 264.140625 174.15625 C 269.765625 174.199219 279.617188 175.035156 282.890625 176.695312 C 284.035156 177.277344 284.769531 178.296875 285.226562 179.921875 C 286.007812 182.71875 286.460938 185.492188 286.570312 188.1875 C 286.78125 193.082031 286.789062 197.074219 286.59375 200.757812 C 286.445312 203.617188 286.078125 206.390625 285.691406 208.960938 C 285.070312 213.1875 284.355469 217.675781 283.101562 222.042969 C 282.628906 223.691406 282.097656 225.351562 281.578125 226.953125 C 281.335938 227.699219 281.097656 228.4375 280.863281 229.179688 L 280.773438 229.472656 L 281.707031 229.480469 C 282.035156 229.480469 282.367188 229.480469 282.6875 229.472656 C 284.054688 229.457031 285.414062 229.414062 286.78125 229.375 C 288.441406 229.324219 290.152344 229.269531 291.835938 229.269531 C 292.535156 229.269531 293.242188 229.277344 293.9375 229.300781 C 303.117188 229.59375 311.382812 229.902344 319.621094 230.765625 C 322.273438 231.046875 324.871094 231.40625 327.957031 231.855469 C 328.191406 231.894531 328.421875 231.933594 328.648438 231.984375 C 330.429688 232.382812 331.53125 233.257812 332.109375 234.722656 C 336.414062 245.0625 338.71875 257.617188 338.96875 272.054688 L 338.980469 272.8125 C 339.050781 275.566406 339.125 278.417969 337.609375 280.875 C 336.617188 282.476562 335.386719 283.90625 333.941406 285.125 C 333.742188 285.304688 333.539062 285.46875 333.328125 285.628906 C 333.011719 285.867188 332.644531 286.101562 332.214844 286.347656 C 331.074219 286.996094 329.8125 287.46875 328.597656 287.921875 L 328.414062 287.988281 L 326.679688 288.332031 L 326.742188 288.777344 C 328.289062 288.671875 329.070312 288.632812 330.722656 288.582031 L 333.742188 288.410156 L 334.078125 288.371094 C 336.234375 288.144531 338.464844 287.914062 340.664062 287.777344 C 341.429688 287.734375 342.203125 287.695312 342.96875 287.679688 C 344.976562 287.386719 346.703125 287.242188 348.277344 287.242188 C 349.796875 287.242188 351.183594 287.371094 352.539062 287.628906 C 352.828125 287.6875 353.121094 287.746094 353.410156 287.832031 C 353.992188 287.988281 354.558594 288.199219 355.058594 288.453125 C 355.332031 288.589844 355.585938 288.738281 355.832031 288.898438 C 360.550781 294.386719 361.210938 308.890625 360.851562 310.507812 C 360.691406 311.238281 360.484375 311.757812 359.949219 312.078125 L 359.910156 312.101562 L 359.882812 312.140625 C 359.011719 313.367188 357.582031 313.671875 356.320312 313.9375 C 353.371094 314.5625 350.308594 314.871094 346.957031 314.871094 C 346.53125 314.871094 346.109375 314.863281 345.679688 314.855469 C 345.554688 314.855469 345.425781 314.847656 345.304688 314.847656 C 345.304688 314.847656 344.320312 314.863281 344.132812 314.863281 C 343.625 314.863281 343.015625 314.847656 342.421875 314.710938 L 342.375 314.703125 L 342.332031 314.710938 C 341.769531 314.816406 341.160156 314.871094 340.410156 314.871094 C 340.027344 314.871094 339.636719 314.855469 339.253906 314.839844 C 339.253906 314.839844 338.449219 314.808594 338.164062 314.792969 C 337.914062 314.785156 337.660156 314.785156 337.414062 314.785156 C 337 314.785156 336.585938 314.792969 336.171875 314.800781 L 335.265625 314.816406 L 334.910156 314.816406 C 333.964844 314.816406 333.230469 314.769531 332.5625 314.671875 C 332.480469 314.410156 332.320312 314.222656 332.207031 314.101562 L 331.886719 314.417969 C 331.96875 314.507812 332.035156 314.589844 332.074219 314.671875 C 331.707031 314.6875 331.359375 314.695312 331.015625 314.695312 C 330.511719 314.695312 330.007812 314.679688 329.503906 314.671875 C 329.078125 314.667969 328.648438 314.652344 328.222656 314.652344 C 328.222656 314.652344 327.597656 314.652344 327.386719 314.660156 C 327.273438 314.660156 326.914062 314.679688 326.914062 314.679688 L 326.882812 315.125 C 327.003906 315.148438 327.148438 315.15625 327.296875 315.15625 C 327.441406 315.15625 327.589844 315.148438 327.734375 315.140625 C 327.835938 315.132812 327.941406 315.125 328.03125 315.125 C 328.304688 315.125 328.566406 315.117188 328.820312 315.117188 C 330.339844 315.117188 331.480469 315.183594 332.464844 315.523438 C 332.675781 315.589844 332.824219 315.671875 332.972656 315.757812 C 333.15625 315.855469 333.335938 315.953125 333.605469 316.035156 C 334.222656 316.101562 334.964844 316.183594 335.679688 316.34375 C 336.925781 316.621094 337.878906 317.066406 338.695312 317.75 C 340.125 318.945312 340.867188 320.417969 340.898438 322.140625 C 340.980469 326.644531 341.566406 331.164062 342.128906 335.523438 C 342.257812 336.496094 342.375 337.464844 342.503906 338.441406 C 343.171875 343.808594 343.601562 348.675781 343.820312 353.316406 C 343.894531 354.929688 343.8125 356.628906 343.554688 358.351562 C 343.136719 361.234375 341.859375 363.171875 339.636719 364.285156 C 338.90625 364.667969 338.125 364.925781 337.292969 365.03125 L 335.503906 365.261719 C 333.6875 365.496094 331.871094 365.730469 330.054688 365.945312 C 327.507812 366.246094 324.976562 366.308594 321.972656 366.308594 L 318.707031 366.300781 C 317.617188 366.300781 316.527344 366.308594 315.445312 366.339844 C 303.820312 366.652344 292.015625 366.902344 280.601562 367.148438 C 275.945312 367.246094 271.28125 367.339844 266.625 367.421875 C 262.429688 367.496094 258.222656 367.578125 254.023438 367.660156 C 239.132812 367.96875 226.074219 368.121094 214.09375 368.121094 L 212.652344 368.121094 C 208.597656 368.121094 204.46875 368.050781 200.480469 367.984375 C 196.363281 367.917969 192.105469 367.847656 187.925781 367.847656 C 185.835938 367.847656 183.929688 367.863281 182.089844 367.902344 C 173.625 368.058594 165.011719 368.097656 156.683594 368.136719 C 149.722656 368.164062 142.527344 368.203125 135.453125 368.300781 C 125.269531 368.445312 114.140625 368.644531 100.445312 368.933594 C 93.203125 369.113281 87.195312 369.179688 81.558594 369.179688 Z M 81.558594 369.179688 "/>
</g>
<path style=" stroke:none;fill-rule:nonzero;fill:rgb(89.019775%,43.919373%,33.329773%);fill-opacity:1;" d="M 41.441406 290.566406 C 43.683594 291.476562 46.035156 291.792969 48.402344 292.035156 C 49.191406 292.117188 49.976562 292.183594 50.773438 292.265625 C 54.996094 292.703125 59.222656 292.914062 63.464844 292.875 C 63.96875 292.867188 64.507812 293.027344 65.058594 292.628906 C 64.75 291.6875 64.023438 291.039062 63.480469 290.289062 C 60.851562 286.621094 57.96875 283.136719 55.691406 279.234375 C 53.074219 274.746094 51.246094 269.910156 50.683594 264.730469 C 49.964844 258.128906 51.449219 251.964844 55.109375 246.371094 C 56.535156 244.1875 58.019531 242.0625 59.664062 240.039062 C 60.453125 239.074219 61.410156 238.332031 62.511719 237.78125 C 63.894531 237.097656 65.101562 237.269531 66.011719 238.242188 C 66.867188 239.160156 66.941406 240.269531 66.140625 241.609375 C 65.457031 242.746094 64.703125 243.84375 64 244.964844 C 61.6875 248.601562 60.214844 252.59375 59.644531 256.835938 C 59.074219 261.054688 59.566406 265.21875 61.28125 269.167969 C 64.253906 276.03125 66.832031 283.070312 69.984375 289.859375 C 70.300781 290.535156 70.601562 291.222656 70.691406 291.964844 C 70.773438 292.628906 71.117188 292.882812 71.75 292.867188 C 72.386719 292.851562 73.027344 292.867188 73.65625 292.867188 C 75.886719 292.867188 78.109375 292.859375 80.339844 292.859375 C 82.886719 292.859375 85.410156 293.167969 87.941406 293.410156 C 89.683594 293.574219 91.433594 293.628906 93.167969 293.71875 C 95.652344 293.84375 98.136719 294.011719 100.617188 294.175781 C 104.265625 294.425781 107.914062 294.378906 111.566406 294.664062 C 114.621094 294.90625 117.722656 294.648438 120.796875 294.816406 C 128.003906 295.191406 135.214844 295.140625 142.421875 294.988281 C 145.53125 294.921875 148.671875 295.003906 151.773438 294.492188 C 152.238281 294.417969 152.726562 294.460938 153.199219 294.453125 C 164.921875 294.433594 176.652344 294.507812 188.375 294.347656 C 192.023438 294.304688 195.695312 294.296875 199.339844 294.035156 C 201.78125 293.851562 204.210938 293.914062 206.644531 293.769531 C 211.933594 293.445312 217.234375 293.363281 222.523438 293.101562 C 227.125 292.867188 231.726562 292.671875 236.332031 292.460938 C 240.671875 292.265625 245.003906 292.070312 249.339844 291.800781 C 251.832031 291.640625 254.316406 291.6875 256.804688 291.53125 C 262.464844 291.167969 268.136719 291.125 273.789062 290.851562 C 281.480469 290.484375 289.171875 290.824219 296.851562 290.542969 C 301.089844 290.394531 305.339844 290.507812 309.566406 290.234375 C 312.457031 290.046875 315.363281 289.746094 318.246094 289.410156 C 321.085938 289.078125 323.933594 288.851562 326.777344 288.582031 C 327.371094 288.460938 327.957031 288.339844 328.550781 288.230469 C 329.859375 287.738281 331.179688 287.257812 332.386719 286.566406 C 332.777344 286.339844 333.160156 286.109375 333.523438 285.828125 C 333.734375 285.671875 333.941406 285.5 334.144531 285.320312 C 333.222656 284.304688 332.253906 283.320312 331.382812 282.257812 C 330 280.574219 328.785156 278.761719 327.734375 276.851562 C 324.21875 270.46875 321.070312 263.917969 319.253906 256.8125 C 318.433594 253.617188 317.871094 250.371094 318.121094 247.046875 C 318.40625 243.25 319.757812 239.933594 322.617188 237.324219 C 324.617188 235.503906 327.109375 235.046875 329.675781 234.804688 C 330.570312 234.722656 331.480469 234.707031 332.375 234.65625 C 331.691406 232.941406 330.351562 232.144531 328.746094 231.78125 C 328.511719 231.730469 328.28125 231.683594 328.039062 231.65625 C 325.261719 231.25 322.492188 230.855469 319.695312 230.5625 C 311.152344 229.667969 302.574219 229.367188 294 229.097656 C 290.242188 228.976562 286.488281 229.234375 282.734375 229.269531 C 282.203125 229.277344 281.660156 229.277344 281.128906 229.269531 C 280.871094 229.5625 280.578125 229.738281 280.265625 229.851562 C 279.746094 230.03125 279.167969 230.015625 278.617188 230.007812 C 272.144531 229.878906 265.6875 230.269531 259.214844 230.253906 C 248.234375 230.226562 237.261719 230.40625 226.285156 230.511719 C 221.777344 230.554688 217.265625 230.578125 212.757812 230.707031 C 204.175781 230.960938 195.585938 231.179688 187.007812 231.609375 C 175.144531 232.203125 163.261719 232.261719 151.398438 232.632812 C 143.976562 232.863281 136.566406 233.226562 129.160156 233.722656 C 121.914062 234.203125 114.660156 234.472656 107.390625 234.558594 C 98.910156 234.65625 90.433594 235.015625 81.945312 235.242188 C 80.40625 235.277344 78.875 235.234375 77.335938 235.226562 C 76.359375 235.355469 75.382812 235.40625 74.40625 235.429688 C 73.835938 235.445312 73.273438 235.453125 72.703125 235.453125 C 72.183594 235.453125 71.675781 235.453125 71.15625 235.460938 C 64.320312 235.558594 57.464844 235.210938 50.652344 236.097656 C 47.554688 236.503906 44.203125 236.519531 41.558594 238.257812 C 31.578125 244.84375 34.605469 272.226562 35.101562 275.316406 C 36.378906 283.492188 40.09375 289.417969 41.441406 290.566406 Z M 294.441406 237.609375 C 296.257812 235.542969 298.210938 233.570312 300.707031 232.269531 C 301.792969 231.707031 302.890625 231.203125 304.167969 231.253906 C 306.089844 231.332031 307.066406 232.675781 306.40625 234.496094 C 306.03125 235.542969 305.503906 236.527344 304.820312 237.421875 C 302.746094 240.128906 300.914062 242.972656 299.535156 246.097656 C 298.273438 248.949219 297.46875 251.933594 297.460938 255.023438 C 297.453125 258.308594 297.964844 261.566406 298.820312 264.753906 C 300.554688 271.226562 302.949219 277.460938 305.667969 283.582031 C 305.945312 284.214844 306.226562 284.851562 306.277344 285.550781 C 306.425781 287.453125 304.910156 288.648438 303.085938 288.109375 C 302.0625 287.808594 301.335938 287.136719 300.707031 286.332031 C 299.089844 284.28125 297.777344 282.03125 296.589844 279.722656 C 294.285156 275.242188 292.03125 270.730469 290.09375 266.070312 C 288.613281 262.511719 287.742188 258.8125 287.625 256.355469 C 287.625 248.300781 290.09375 242.566406 294.441406 237.609375 Z M 123.484375 259.226562 C 124.722656 258.558594 126.089844 258.332031 127.449219 258.121094 C 132.261719 257.371094 137.121094 256.933594 141.972656 256.476562 C 147.035156 255.992188 152.089844 255.460938 157.15625 255.007812 C 160.589844 254.699219 164.027344 254.503906 167.460938 254.257812 C 171.320312 253.980469 175.171875 253.699219 179.03125 253.429688 C 179.671875 253.386719 180.300781 253.363281 180.941406 253.339844 C 187.03125 253.097656 193.121094 252.902344 199.210938 252.59375 C 205.566406 252.28125 211.925781 252.082031 218.285156 251.949219 C 221.09375 251.886719 223.902344 251.804688 226.710938 251.777344 C 229.519531 251.789062 232.328125 251.738281 235.136719 251.992188 C 236.363281 252.105469 237.5625 252.28125 238.636719 252.917969 C 240.09375 253.785156 240.230469 255.007812 239.003906 256.175781 C 237.863281 257.265625 236.378906 257.589844 234.914062 257.730469 C 230.910156 258.128906 226.890625 258.40625 222.882812 258.746094 C 219.929688 259 216.980469 259.289062 214.019531 259.542969 C 212.121094 259.707031 210.214844 259.835938 208.3125 259.996094 C 204.722656 260.289062 201.132812 260.589844 197.542969 260.875 C 194.429688 261.121094 191.3125 261.355469 188.195312 261.609375 C 185.394531 261.84375 182.601562 262.113281 179.804688 262.339844 C 176.164062 262.632812 172.523438 262.941406 168.871094 263.183594 C 164.007812 263.5 159.140625 263.761719 154.273438 264.039062 C 153.851562 264.0625 153.425781 264.085938 153.003906 264.09375 C 148.707031 264.21875 144.421875 264.324219 140.125 264.484375 C 136.574219 264.617188 133.027344 264.8125 129.484375 264.980469 C 127.996094 265.046875 126.515625 264.859375 125.054688 264.671875 C 124.488281 264.597656 123.925781 264.355469 123.421875 264.070312 C 122.5 263.542969 121.890625 262.785156 121.929688 261.625 C 121.960938 260.503906 122.53125 259.738281 123.484375 259.226562 Z M 264.988281 139.914062 C 266.882812 140.566406 268.15625 141.785156 268.8125 143.566406 C 268.902344 143.824219 268.984375 144.085938 269.050781 144.363281 C 269.644531 146.808594 269.710938 149.296875 269.652344 151.785156 C 269.515625 157.726562 269.113281 163.644531 267.730469 169.441406 C 267.445312 170.644531 267.25 171.996094 265.800781 172.515625 C 261.332031 170.589844 259.484375 166.921875 259.183594 162.320312 C 258.792969 156.28125 260.03125 150.515625 262.316406 144.941406 C 263.050781 143.175781 263.757812 141.410156 264.988281 139.914062 Z M 264.988281 139.914062 "/>
<g clip-path="url(#clip2)" clip-rule="nonzero">
<path style=" stroke:none;fill-rule:nonzero;fill:rgb(99.21875%,97.24884%,96.078491%);fill-opacity:1;" d="M 34.417969 293.125 C 34.214844 294.222656 32.34375 295.46875 31.949219 296.523438 C 30.632812 300.003906 33.125 302.890625 32.652344 306.589844 C 32.316406 309.230469 32.742188 311.757812 33.292969 314.289062 C 33.894531 317.09375 34.921875 319.765625 35.824219 322.480469 C 36.011719 322.492188 36.199219 322.507812 36.394531 322.523438 C 36.722656 322.554688 37.054688 322.582031 37.378906 322.589844 C 39.300781 322.675781 41.214844 322.742188 43.136719 322.816406 C 43.664062 322.792969 44.195312 322.765625 44.722656 322.757812 C 51.039062 322.71875 57.34375 322.695312 63.660156 322.628906 C 80.003906 322.441406 96.34375 322.433594 112.691406 322.277344 C 121.394531 322.191406 130.09375 322.269531 138.796875 321.921875 C 145.847656 321.636719 152.898438 321.457031 159.949219 321.296875 C 167.054688 321.140625 174.160156 320.855469 181.261719 320.652344 C 190.753906 320.386719 200.242188 320.058594 209.734375 319.695312 C 217.46875 319.402344 225.203125 319.058594 232.9375 318.726562 C 238.710938 318.476562 244.488281 318.246094 250.269531 318.09375 C 255.625 317.960938 260.980469 317.703125 266.324219 317.484375 C 273.324219 317.207031 280.324219 317.019531 287.324219 316.816406 C 292.46875 316.671875 297.609375 316.589844 302.753906 316.457031 C 306.359375 316.359375 309.964844 316.175781 313.5625 315.882812 C 317.632812 315.554688 321.703125 315.289062 325.773438 315.003906 C 326.171875 314.960938 326.570312 314.929688 326.960938 314.914062 C 327.117188 314.90625 327.273438 314.898438 327.433594 314.890625 C 327.710938 314.882812 327.988281 314.882812 328.265625 314.882812 C 329.648438 314.890625 331.035156 314.972656 332.417969 314.890625 C 332.382812 314.628906 332.246094 314.441406 332.082031 314.269531 C 331.914062 314.101562 331.726562 313.953125 331.570312 313.777344 C 328.421875 310.304688 326.832031 306.253906 327.335938 301.558594 C 327.726562 297.867188 329.160156 294.5 331.203125 291.410156 C 331.960938 290.265625 332.734375 289.125 333.753906 288.183594 C 332.75 288.242188 331.75 288.304688 330.742188 288.355469 C 329.136719 288.410156 328.339844 288.445312 326.757812 288.550781 C 323.917969 288.824219 321.0625 289.046875 318.226562 289.378906 C 315.335938 289.71875 312.433594 290.019531 309.542969 290.207031 C 305.316406 290.476562 301.074219 290.363281 296.832031 290.515625 C 289.148438 290.785156 281.457031 290.453125 273.769531 290.824219 C 268.105469 291.09375 262.4375 291.132812 256.78125 291.5 C 254.296875 291.65625 251.808594 291.621094 249.316406 291.769531 C 244.984375 292.039062 240.640625 292.238281 236.308594 292.433594 C 231.707031 292.636719 227.101562 292.839844 222.5 293.070312 C 217.210938 293.335938 211.910156 293.417969 206.625 293.742188 C 204.191406 293.890625 201.757812 293.832031 199.316406 294.003906 C 195.675781 294.265625 192.007812 294.273438 188.351562 294.320312 C 176.628906 294.476562 164.90625 294.410156 153.175781 294.425781 C 152.695312 294.425781 152.214844 294.378906 151.75 294.460938 C 148.65625 294.972656 145.507812 294.890625 142.402344 294.957031 C 135.191406 295.109375 127.980469 295.160156 120.773438 294.785156 C 117.699219 294.628906 114.605469 294.875 111.542969 294.636719 C 107.894531 294.347656 104.242188 294.394531 100.59375 294.144531 C 98.117188 293.980469 95.628906 293.816406 93.144531 293.6875 C 91.402344 293.597656 89.652344 293.542969 87.917969 293.378906 C 85.386719 293.140625 82.863281 292.832031 80.316406 292.832031 C 78.085938 292.832031 64.230469 276.003906 61.257812 269.136719 C 59.554688 265.191406 59.058594 261.023438 59.621094 256.804688 C 60.191406 252.558594 61.65625 248.574219 63.976562 244.933594 C 64.691406 243.8125 65.441406 242.714844 66.117188 241.578125 C 66.914062 240.242188 66.84375 239.128906 65.988281 238.210938 C 65.082031 237.242188 63.871094 237.066406 62.488281 237.753906 C 61.386719 238.300781 60.433594 239.046875 59.644531 240.007812 C 58 242.03125 56.511719 244.160156 55.085938 246.339844 C 51.429688 251.933594 49.941406 258.097656 50.660156 264.703125 C 51.226562 269.882812 53.050781 274.710938 55.671875 279.207031 C 57.945312 283.109375 60.835938 286.597656 63.457031 290.257812 C 64 291.011719 64.734375 291.65625 65.035156 292.597656 C 64.488281 292.996094 63.945312 292.84375 63.441406 292.84375 C 59.199219 292.882812 54.972656 292.671875 50.75 292.238281 C 49.964844 292.152344 49.167969 292.085938 48.378906 292.003906 C 46.011719 291.761719 43.664062 291.445312 41.417969 290.539062 C 40.484375 290.574219 37.699219 290.582031 36.46875 290.582031 C 36.519531 291.296875 34.539062 292.460938 34.417969 293.125 Z M 130.585938 305.597656 C 130.84375 304.898438 131.453125 304.890625 132.050781 305.027344 C 132.878906 305.207031 133.6875 305.457031 134.523438 305.605469 C 138.1875 306.28125 141.816406 305.890625 145.410156 305.109375 C 148.671875 304.402344 151.914062 303.628906 155.167969 302.855469 C 156.839844 302.453125 158.304688 302.621094 159.476562 304.050781 C 161.390625 306.363281 164.074219 306.46875 166.753906 306.410156 C 169.359375 306.351562 171.90625 305.792969 174.421875 305.132812 C 178.363281 304.085938 182.300781 303.019531 186.242188 301.964844 C 187.164062 301.71875 188.082031 301.476562 189.050781 301.449219 C 189.980469 301.410156 190.914062 301.546875 191.605469 302.152344 C 193.902344 304.199219 196.589844 304.011719 199.285156 303.53125 C 203.09375 302.855469 206.878906 302.054688 210.671875 301.320312 C 212.855469 300.890625 214.980469 300.851562 216.964844 302.132812 C 218.195312 302.929688 219.617188 302.832031 220.988281 302.703125 C 224.429688 302.394531 227.875 302.335938 231.324219 302.304688 C 233.816406 302.28125 236.308594 302.28125 238.773438 302.75 C 239.507812 302.882812 240.238281 303.042969 240.832031 303.53125 C 241.0625 303.726562 241.371094 303.953125 241.226562 304.3125 C 241.125 304.582031 240.824219 304.644531 240.550781 304.652344 C 240.019531 304.664062 239.492188 304.65625 238.960938 304.65625 C 237.636719 304.65625 236.308594 304.65625 234.988281 304.65625 C 231.050781 304.492188 227.15625 304.957031 223.257812 305.386719 C 222.101562 305.515625 220.9375 305.605469 219.773438 305.703125 C 218.082031 305.847656 216.5 305.53125 215.078125 304.554688 C 214.019531 303.824219 212.863281 303.65625 211.59375 303.839844 C 208.800781 304.230469 206.113281 305.035156 203.386719 305.734375 C 200.714844 306.417969 198.046875 307.09375 195.246094 306.953125 C 193.480469 306.855469 191.910156 306.3125 190.648438 305.054688 C 189.855469 304.265625 188.96875 304.050781 187.894531 304.230469 C 185.527344 304.628906 183.285156 305.425781 181.007812 306.140625 C 177.058594 307.386719 173.085938 308.5 168.953125 308.945312 C 166.792969 309.175781 164.628906 309.3125 162.464844 308.832031 C 160.632812 308.425781 159.019531 307.597656 157.992188 306.035156 C 157.179688 304.800781 156.21875 304.703125 154.988281 305.035156 C 152.484375 305.71875 149.984375 306.433594 147.46875 307.0625 C 144.4375 307.824219 141.371094 308.457031 138.21875 308.476562 C 136.503906 308.492188 134.839844 308.261719 133.1875 307.816406 C 132.519531 307.636719 131.871094 307.402344 131.277344 307.035156 C 130.746094 306.710938 130.347656 306.265625 130.585938 305.597656 Z M 107.277344 142.761719 C 107.1875 144.515625 107 146.257812 106.953125 148.011719 C 106.835938 153.257812 106.78125 158.492188 107.332031 163.726562 C 107.855469 168.726562 107.847656 174.269531 110.144531 180.101562 C 110.144531 180.101562 115.832031 179.953125 117.210938 179.871094 C 122.035156 179.605469 126.847656 179.28125 131.667969 179.003906 C 138.023438 178.644531 144.375 178.289062 150.734375 177.960938 C 158.417969 177.554688 166.101562 177.164062 173.785156 176.785156 C 181.464844 176.410156 189.15625 176.15625 196.832031 175.675781 C 203.132812 175.28125 209.445312 175.183594 215.746094 174.882812 C 217.03125 174.824219 218.316406 174.773438 219.601562 174.726562 C 222.28125 174.636719 224.960938 174.582031 227.644531 174.515625 C 228.820312 174.484375 229.992188 174.464844 231.171875 174.425781 C 231.226562 173.695312 231.046875 173.003906 230.886719 172.304688 C 230.835938 172.074219 230.78125 171.839844 230.738281 171.605469 C 229.492188 164.980469 229.566406 158.34375 230.640625 151.710938 C 231.398438 147.054688 232.488281 142.484375 234.214844 138.078125 C 233.800781 137.996094 213.847656 137.410156 204.371094 137.3125 C 192.289062 137.191406 180.210938 137.527344 168.136719 138.027344 C 160.460938 138.339844 152.777344 138.507812 145.097656 138.695312 C 135.613281 138.925781 126.125 139.136719 116.640625 139.175781 C 115.082031 139.183594 113.527344 139.25 111.964844 139.332031 C 110.402344 139.417969 108.847656 139.328125 107.285156 139.402344 C 107.34375 140.476562 107.332031 141.71875 107.277344 142.761719 Z M 137.941406 158.582031 C 139.285156 158.0625 140.6875 157.808594 142.109375 157.605469 C 146.777344 156.9375 151.480469 156.621094 156.179688 156.273438 C 165.753906 155.566406 175.339844 155.238281 185.128906 155.117188 C 189.757812 155.117188 194.578125 155.125 199.40625 155.109375 C 200.367188 155.109375 201.3125 155.230469 202.246094 155.410156 C 203.453125 155.644531 204.234375 156.453125 204.363281 157.492188 C 204.492188 158.539062 203.914062 159.5 202.816406 160.035156 C 202.238281 160.3125 201.621094 160.449219 200.984375 160.546875 C 197.152344 161.132812 193.292969 161.378906 189.449219 161.75 C 184.964844 162.167969 180.480469 162.558594 175.992188 162.921875 C 173.882812 163.09375 171.761719 163.191406 169.644531 163.289062 C 160.527344 163.703125 151.414062 163.816406 142.296875 163.734375 C 140.964844 163.71875 139.644531 163.679688 138.34375 163.386719 C 136.972656 163.070312 136.128906 162.222656 136.070312 161.085938 C 136.007812 160.003906 136.671875 159.070312 137.941406 158.582031 Z M 90.246094 180.34375 C 88.332031 180.296875 86.445312 180.058594 84.582031 179.636719 C 83.96875 179.492188 83.359375 179.3125 82.765625 179.09375 C 80.316406 178.199219 77.417969 175.765625 76.335938 173.175781 C 73.882812 167.28125 69.578125 144.257812 80.589844 141.320312 C 83.726562 140.484375 86.992188 140.566406 90.207031 140.355469 C 90.832031 140.320312 91.445312 140.265625 92.070312 140.222656 C 93.933594 140.078125 95.726562 140.054688 97.65625 139.921875 C 96.867188 142.0625 96.335938 144.460938 95.847656 146.6875 C 94.570312 152.492188 94.707031 158.378906 94.910156 164.253906 C 95.074219 169.125 95.757812 173.953125 96.660156 178.742188 C 96.953125 180.304688 96.921875 180.359375 95.328125 180.375 C 93.625 180.375 91.933594 180.351562 90.246094 180.34375 Z M 245.101562 143.933594 C 245.3125 142.152344 245.570312 140.371094 245.808594 138.589844 C 250.140625 138.816406 253.289062 138.664062 257.015625 138.957031 C 257.683594 139.011719 258.351562 139.0625 259.019531 139.117188 C 261.023438 139.273438 263.027344 139.46875 264.996094 139.914062 C 263.765625 141.410156 263.058594 143.183594 262.332031 144.949219 C 260.046875 150.523438 258.816406 156.289062 259.199219 162.328125 C 259.492188 166.929688 261.347656 170.597656 265.816406 172.523438 C 264.539062 173.296875 263.503906 173.574219 262.285156 173.960938 C 257.691406 174.378906 253.09375 174.449219 248.496094 174.359375 C 246.964844 174.328125 245.433594 174.28125 243.894531 174.230469 C 243.96875 168.140625 243.78125 162.050781 244.128906 155.957031 C 244.34375 151.9375 244.621094 147.929688 245.101562 143.933594 Z M 341.527344 289.523438 C 342.039062 288.851562 342.683594 288.273438 343 287.46875 C 346.207031 286.996094 349.414062 286.808594 352.621094 287.425781 C 352.921875 287.484375 353.214844 287.550781 353.507812 287.628906 C 354.089844 287.785156 354.65625 287.996094 355.203125 288.265625 C 355.472656 288.402344 355.742188 288.550781 356 288.71875 C 355.734375 289.335938 355.089844 289.402344 354.59375 289.679688 C 351.953125 291.167969 349.367188 292.734375 347.589844 295.3125 C 345.464844 298.402344 345.554688 301.945312 347.804688 304.945312 C 349.21875 306.824219 351.179688 307.980469 353.144531 309.148438 C 354.285156 309.824219 355.542969 310.304688 356.585938 311.140625 C 357.628906 311.972656 358.777344 312.417969 360.113281 312.289062 C 359.214844 313.570312 357.800781 313.882812 356.417969 314.175781 C 352.898438 314.921875 349.324219 315.175781 345.726562 315.09375 C 345.449219 315.085938 345.175781 315.085938 344.898438 315.09375 C 344.074219 315.109375 343.238281 315.132812 342.421875 314.953125 C 341.175781 313.582031 339.875 312.261719 338.695312 310.839844 C 335.476562 306.980469 334.605469 302.71875 336.542969 297.957031 C 337.78125 294.898438 339.53125 292.144531 341.527344 289.523438 Z M 13.445312 302.410156 C 13.453125 300.484375 13.503906 298.582031 13.976562 296.71875 C 14.628906 294.152344 16.140625 292.410156 18.777344 291.71875 C 19.550781 291.515625 25.5625 290.628906 28.207031 290.6875 C 25.925781 295.777344 24.828125 301.140625 24.550781 306.679688 C 24.308594 311.523438 25.300781 316.148438 27.082031 320.628906 C 27.238281 321.019531 27.449219 321.394531 27.417969 321.839844 C 24.882812 321.695312 22.320312 321.582031 19.871094 320.839844 C 13.445312 318.890625 13.421875 310.695312 13.445312 302.410156 Z M 290.078125 266.078125 C 288.597656 262.519531 287.726562 258.820312 287.609375 256.363281 C 287.625 248.300781 290.09375 242.566406 294.441406 237.609375 C 296.257812 235.542969 298.210938 233.570312 300.707031 232.269531 C 301.792969 231.707031 302.890625 231.203125 304.167969 231.253906 C 306.089844 231.332031 307.066406 232.675781 306.40625 234.496094 C 306.03125 235.542969 305.503906 236.527344 304.820312 237.421875 C 302.746094 240.128906 300.914062 242.972656 299.535156 246.097656 C 298.273438 248.949219 297.46875 251.933594 297.460938 255.023438 C 297.453125 258.308594 297.964844 261.566406 298.820312 264.753906 C 300.554688 271.226562 302.949219 277.460938 305.667969 283.582031 C 305.945312 284.214844 306.226562 284.851562 306.277344 285.550781 C 306.425781 287.453125 304.910156 288.648438 303.085938 288.109375 C 302.0625 287.808594 301.335938 287.136719 300.707031 286.332031 C 299.089844 284.28125 297.777344 282.03125 296.589844 279.722656 C 294.269531 275.242188 292.015625 270.730469 290.078125 266.078125 Z M 290.078125 266.078125 "/>
</g>
<path style=" stroke:none;fill-rule:nonzero;fill:rgb(14.898682%,38.038635%,31.369019%);fill-opacity:1;" d="M 81.925781 235.242188 C 90.402344 235.015625 98.882812 234.65625 107.367188 234.558594 C 114.636719 234.472656 121.890625 234.203125 129.136719 233.722656 C 136.542969 233.234375 143.960938 232.863281 151.375 232.632812 C 163.246094 232.261719 175.121094 232.203125 186.984375 231.609375 C 195.5625 231.179688 204.152344 230.960938 212.738281 230.707031 C 217.242188 230.570312 221.75 230.554688 226.261719 230.511719 C 237.242188 230.40625 248.210938 230.226562 259.191406 230.253906 C 265.664062 230.269531 272.125 229.871094 278.597656 230.007812 C 279.144531 230.015625 279.722656 230.03125 280.242188 229.851562 C 280.554688 229.746094 280.847656 229.5625 281.105469 229.269531 C 281.855469 226.894531 282.652344 224.527344 283.34375 222.128906 C 284.574219 217.835938 285.289062 213.433594 285.941406 209.023438 C 286.347656 206.285156 286.699219 203.554688 286.84375 200.796875 C 287.058594 196.601562 286.992188 192.402344 286.820312 188.207031 C 286.699219 185.390625 286.226562 182.605469 285.46875 179.890625 C 285.078125 178.5 284.417969 177.230469 283.019531 176.523438 C 279.503906 174.742188 269.105469 173.996094 264.164062 173.960938 C 263.734375 173.960938 262.976562 173.960938 262.285156 173.960938 C 257.691406 174.378906 253.09375 174.449219 248.496094 174.359375 C 246.964844 174.328125 245.433594 174.28125 243.894531 174.230469 C 243.359375 174.222656 242.835938 174.214844 242.300781 174.222656 C 238.59375 174.246094 234.890625 174.5625 231.171875 174.441406 C 229.992188 174.472656 228.820312 174.5 227.644531 174.53125 C 224.960938 174.589844 222.28125 174.652344 219.601562 174.742188 C 218.316406 174.785156 217.03125 174.832031 215.746094 174.898438 C 209.441406 175.199219 203.132812 175.289062 196.832031 175.6875 C 189.15625 176.171875 181.464844 176.425781 173.785156 176.800781 C 166.101562 177.179688 158.417969 177.570312 150.734375 177.976562 C 144.382812 178.304688 138.023438 178.660156 131.667969 179.019531 C 126.847656 179.296875 122.035156 179.613281 117.214844 179.882812 C 115.304688 179.988281 101.414062 180.386719 95.320312 180.375 C 94.464844 180.417969 88.488281 180.652344 87.640625 180.703125 C 84.605469 180.90625 81.578125 181.179688 78.558594 181.5 C 77.269531 181.644531 75.976562 181.785156 74.691406 181.945312 C 71.066406 182.382812 67.421875 182.808594 63.886719 183.792969 C 62.675781 184.132812 61.410156 184.394531 60.476562 185.367188 C 63.164062 185.074219 65.449219 186.140625 67.625 187.523438 C 70.097656 189.097656 71.140625 191.546875 71.628906 194.292969 C 72.351562 198.382812 71.898438 202.425781 71.082031 206.441406 C 69.5625 213.871094 67.730469 221.21875 65.539062 228.472656 C 64.984375 230.324219 64.238281 232.054688 62.957031 233.527344 C 63.1875 233.753906 63.464844 233.917969 63.75 234.046875 C 64.035156 234.171875 64.335938 234.269531 64.636719 234.367188 C 66.351562 234.941406 68.136719 235.082031 69.925781 235.128906 C 72.394531 235.1875 74.867188 235.203125 77.335938 235.242188 C 78.851562 235.234375 80.394531 235.285156 81.925781 235.242188 Z M 253.492188 198.5625 C 254.394531 197.707031 264.957031 195.570312 269.15625 196.285156 C 270.199219 196.464844 271.230469 196.742188 272.167969 197.261719 C 274.269531 198.433594 274.480469 200.496094 272.648438 202.042969 C 271.792969 202.773438 270.808594 203.285156 269.734375 203.636719 C 266.800781 204.617188 263.789062 205.140625 260.6875 205.179688 C 259.035156 205.210938 257.402344 205.089844 255.828125 204.53125 C 254.964844 204.230469 254.167969 203.816406 253.507812 203.195312 C 252.074219 201.824219 252.058594 199.929688 253.492188 198.5625 Z M 127.394531 208.132812 C 130.355469 205.945312 133.5 204.113281 137.113281 203.210938 C 138.546875 202.847656 139.953125 203.015625 141.339844 203.449219 C 142.347656 203.773438 143.355469 204.125 144.367188 204.425781 C 146.921875 205.171875 149.40625 204.863281 151.839844 203.902344 C 154.941406 202.675781 158.035156 201.414062 161.136719 200.1875 C 161.972656 199.855469 162.835938 199.59375 163.691406 199.3125 C 165.066406 198.863281 166.304688 199.164062 167.4375 200.019531 C 167.691406 200.210938 167.964844 200.398438 168.171875 200.621094 C 169.8125 202.390625 171.808594 202.570312 174.023438 202.050781 C 177.328125 201.277344 180.519531 200.105469 183.808594 199.285156 C 185.144531 198.953125 186.46875 198.578125 187.839844 198.398438 C 189.507812 198.171875 191.054688 198.472656 192.347656 199.511719 C 194.105469 200.921875 196.078125 201.398438 198.273438 201.398438 C 202.679688 201.398438 207.074219 201.253906 211.460938 200.804688 C 211.984375 200.75 212.519531 200.726562 213.042969 200.78125 C 213.652344 200.847656 213.765625 201.1875 213.367188 201.636719 C 212.894531 202.171875 212.277344 202.449219 211.59375 202.628906 C 209.949219 203.066406 208.269531 203.300781 206.585938 203.503906 C 203.746094 203.839844 200.902344 204.230469 198.03125 204.292969 C 196.972656 204.359375 195.921875 204.519531 194.855469 204.398438 C 193.398438 204.238281 192.015625 203.832031 190.921875 202.847656 C 189.492188 201.570312 187.945312 201.417969 186.191406 201.953125 C 183.757812 202.691406 181.359375 203.554688 178.957031 204.375 C 176.699219 205.148438 174.414062 205.8125 171.980469 205.796875 C 169.5625 205.789062 167.691406 204.796875 166.273438 202.863281 C 164.9375 201.042969 164.5625 200.9375 162.4375 201.773438 C 160.117188 202.683594 157.902344 203.832031 155.664062 204.929688 C 153.515625 205.984375 151.308594 206.847656 148.894531 207.140625 C 146.441406 207.441406 144.058594 207.1875 141.996094 205.855469 C 139.171875 204.035156 136.535156 204.335938 133.785156 205.929688 C 131.945312 207 130.175781 208.148438 128.5 209.464844 C 128.035156 209.832031 127.5625 210.496094 126.863281 209.863281 C 126.425781 209.472656 126.578125 208.734375 127.394531 208.132812 Z M 130.585938 305.597656 C 130.84375 304.898438 131.453125 304.890625 132.050781 305.027344 C 132.878906 305.207031 133.6875 305.457031 134.523438 305.605469 C 138.1875 306.28125 141.816406 305.890625 145.410156 305.109375 C 148.671875 304.402344 151.914062 303.628906 155.167969 302.855469 C 156.839844 302.453125 158.304688 302.621094 159.476562 304.050781 C 161.390625 306.363281 164.074219 306.46875 166.753906 306.410156 C 169.359375 306.351562 171.90625 305.792969 174.421875 305.132812 C 178.363281 304.085938 182.300781 303.019531 186.242188 301.964844 C 187.164062 301.71875 188.082031 301.476562 189.050781 301.449219 C 189.980469 301.410156 190.914062 301.546875 191.605469 302.152344 C 193.902344 304.199219 196.589844 304.011719 199.285156 303.53125 C 203.09375 302.855469 206.878906 302.054688 210.671875 301.320312 C 212.855469 300.890625 214.980469 300.851562 216.964844 302.132812 C 218.195312 302.929688 219.617188 302.832031 220.988281 302.703125 C 224.429688 302.394531 227.875 302.335938 231.324219 302.304688 C 233.816406 302.28125 236.308594 302.28125 238.773438 302.75 C 239.507812 302.882812 240.238281 303.042969 240.832031 303.53125 C 241.0625 303.726562 241.371094 303.953125 241.226562 304.3125 C 241.125 304.582031 240.824219 304.644531 240.550781 304.652344 C 240.019531 304.664062 239.492188 304.65625 238.960938 304.65625 C 237.636719 304.65625 236.308594 304.65625 234.988281 304.65625 C 231.050781 304.492188 227.15625 304.957031 223.257812 305.386719 C 222.101562 305.515625 220.9375 305.605469 219.773438 305.703125 C 218.082031 305.847656 216.5 305.53125 215.078125 304.554688 C 214.019531 303.824219 212.863281 303.65625 211.59375 303.839844 C 208.800781 304.230469 206.113281 305.035156 203.386719 305.734375 C 200.714844 306.417969 198.046875 307.09375 195.246094 306.953125 C 193.480469 306.855469 191.910156 306.3125 190.648438 305.054688 C 189.855469 304.265625 188.96875 304.050781 187.894531 304.230469 C 185.527344 304.628906 183.285156 305.425781 181.007812 306.140625 C 177.058594 307.386719 173.085938 308.5 168.953125 308.945312 C 166.792969 309.175781 164.628906 309.3125 162.464844 308.832031 C 160.632812 308.425781 159.019531 307.597656 157.992188 306.035156 C 157.179688 304.800781 156.21875 304.703125 154.988281 305.035156 C 152.484375 305.71875 149.984375 306.433594 147.46875 307.0625 C 144.4375 307.824219 141.371094 308.457031 138.21875 308.476562 C 136.503906 308.492188 134.839844 308.261719 133.1875 307.816406 C 132.519531 307.636719 131.871094 307.402344 131.277344 307.035156 C 130.746094 306.710938 130.347656 306.265625 130.585938 305.597656 Z M 130.585938 305.597656 "/>
<g clip-path="url(#clip3)" clip-rule="nonzero">
<path style=" stroke:none;fill-rule:nonzero;fill:rgb(51.368713%,64.309692%,45.098877%);fill-opacity:1;" d="M 325.773438 315.011719 C 321.703125 315.304688 317.632812 315.570312 313.5625 315.890625 C 309.964844 316.183594 306.359375 316.367188 302.753906 316.464844 C 297.609375 316.597656 292.46875 316.679688 287.324219 316.824219 C 280.324219 317.019531 273.324219 317.207031 266.324219 317.492188 C 260.972656 317.710938 255.625 317.960938 250.269531 318.101562 C 244.496094 318.253906 238.710938 318.484375 232.9375 318.734375 C 225.203125 319.066406 217.46875 319.410156 209.734375 319.703125 C 200.246094 320.066406 190.753906 320.386719 181.261719 320.660156 C 174.160156 320.855469 167.054688 321.140625 159.949219 321.304688 C 152.898438 321.464844 145.839844 321.652344 138.796875 321.929688 C 130.097656 322.277344 121.394531 322.199219 112.691406 322.28125 C 96.351562 322.441406 80.003906 322.449219 63.660156 322.636719 C 57.34375 322.710938 51.039062 322.726562 44.722656 322.765625 C 44.195312 322.765625 43.664062 322.800781 43.136719 322.824219 C 42.851562 323.441406 42.535156 324.042969 42.257812 324.660156 C 42.167969 324.863281 42.078125 325.074219 42.003906 325.285156 C 39.609375 331.675781 39.074219 338.320312 39.59375 345.050781 C 40.148438 352.230469 42.453125 358.953125 45.390625 365.488281 C 45.902344 366.625 46.71875 367.390625 47.890625 367.773438 C 48.949219 368.121094 50.039062 368.34375 51.15625 368.4375 C 56.925781 368.894531 62.707031 369.136719 68.480469 369.269531 C 79.144531 369.527344 89.808594 369.421875 100.472656 369.195312 C 112.144531 368.945312 123.8125 368.730469 135.484375 368.5625 C 151.027344 368.34375 166.574219 368.449219 182.121094 368.164062 C 192.308594 367.976562 202.492188 368.367188 212.675781 368.382812 C 226.472656 368.398438 240.265625 368.210938 254.054688 367.925781 C 262.917969 367.738281 271.769531 367.601562 280.632812 367.40625 C 292.25 367.15625 303.867188 366.902344 315.476562 366.59375 C 320.351562 366.464844 325.238281 366.773438 330.105469 366.203125 C 332.523438 365.917969 334.933594 365.601562 337.351562 365.285156 C 338.199219 365.179688 339.003906 364.925781 339.761719 364.519531 C 335.085938 362.992188 331.148438 360.441406 328.582031 356.128906 C 324.804688 349.773438 322.324219 342.984375 322.527344 335.480469 C 322.707031 328.683594 325.121094 322.855469 330.496094 318.457031 C 331.5625 317.582031 332.628906 316.71875 333.695312 315.847656 C 333.222656 315.695312 333.019531 315.492188 332.5625 315.335938 C 331.367188 314.929688 329.976562 314.90625 328.054688 314.921875 C 327.746094 314.921875 327.273438 314.980469 326.953125 314.921875 C 326.5625 314.945312 326.164062 314.96875 325.773438 315.011719 Z M 212.894531 343.992188 C 211.871094 344.691406 210.6875 345.027344 209.53125 345.390625 C 205.363281 346.683594 201.089844 347.457031 196.753906 347.910156 C 193.917969 348.203125 191.242188 347.691406 188.9375 345.910156 C 188.292969 345.40625 187.839844 345.523438 187.242188 345.886719 C 185.402344 346.976562 183.441406 347.773438 181.339844 348.1875 C 178.109375 348.832031 175.007812 348.53125 172.101562 346.871094 C 170.980469 346.230469 170.011719 345.414062 169.253906 344.195312 C 167.289062 345.570312 165.484375 346.789062 163.503906 347.699219 C 160.972656 348.855469 158.382812 349.691406 155.542969 349.652344 C 152.433594 349.609375 149.992188 348.441406 148.347656 345.75 C 148.265625 345.613281 148.167969 345.488281 148.070312 345.359375 C 148.039062 345.320312 147.988281 345.300781 147.925781 345.253906 C 147.425781 345.351562 147.199219 345.8125 146.875 346.132812 C 144.464844 348.539062 141.882812 350.734375 139.050781 352.636719 C 138.082031 353.292969 137.0625 353.847656 135.933594 354.203125 C 135.445312 354.351562 134.996094 354.375 134.574219 354.050781 C 133.96875 353.578125 134.027344 352.75 134.808594 352.367188 C 139.222656 350.179688 142.527344 346.621094 146.050781 343.328125 C 146.808594 342.613281 147.167969 341.878906 147.085938 340.824219 C 146.957031 339.097656 147.605469 337.601562 148.730469 336.304688 C 148.941406 336.066406 149.167969 335.839844 149.421875 335.652344 C 150.347656 334.953125 151.113281 334.832031 151.757812 335.277344 C 152.605469 335.855469 152.597656 336.71875 152.417969 337.570312 C 152.09375 339.105469 151.300781 340.417969 150.421875 341.699219 C 149.226562 343.441406 149.292969 344.140625 150.714844 345.699219 C 151.886719 346.984375 153.378906 347.570312 155.078125 347.726562 C 157.855469 347.984375 160.4375 347.269531 162.953125 346.1875 C 164.613281 345.464844 166.191406 344.601562 167.6875 343.578125 C 168.285156 343.164062 168.632812 342.765625 168.5625 341.90625 C 168.445312 340.269531 169.066406 338.78125 170.027344 337.457031 C 170.277344 337.117188 170.597656 336.816406 170.9375 336.570312 C 171.972656 335.808594 173.121094 335.796875 173.859375 336.488281 C 174.511719 337.101562 174.542969 337.960938 173.949219 339.132812 C 173.386719 340.238281 172.53125 341.109375 171.6875 342 C 170.824219 342.914062 170.808594 343.011719 171.742188 343.894531 C 173.101562 345.171875 174.753906 345.855469 176.578125 346.113281 C 179.980469 346.59375 183.082031 345.660156 186.0625 344.089844 C 186.769531 343.710938 186.886719 343.3125 186.625 342.5625 C 186.078125 341.007812 186.128906 339.433594 186.804688 337.902344 C 187.179688 337.058594 187.707031 336.335938 188.480469 335.816406 C 189.96875 334.824219 191.582031 335.269531 192.28125 336.921875 C 193.023438 338.675781 192.699219 340.351562 191.714844 341.9375 C 190.859375 343.308594 190.914062 343.523438 192.503906 344.074219 C 194.75 344.847656 197.078125 344.902344 199.421875 344.707031 C 203.761719 344.335938 208.066406 343.757812 212.25 342.488281 C 212.78125 342.320312 213.554688 341.984375 213.832031 342.5625 C 214.191406 343.246094 213.398438 343.652344 212.894531 343.992188 Z M 61.429688 232.550781 C 61.25 232.324219 61.101562 232.074219 60.972656 231.804688 C 60.84375 231.535156 60.769531 231.226562 60.65625 230.917969 C 56.292969 219.164062 56.804688 207.714844 57.039062 203.578125 C 57.316406 198.742188 58.269531 193.292969 58.9375 188.929688 C 59.132812 187.636719 59.335938 186.277344 60.46875 185.359375 C 63.15625 185.066406 65.441406 186.132812 67.617188 187.515625 C 70.089844 189.089844 71.132812 191.539062 71.621094 194.285156 C 72.34375 198.375 71.890625 202.417969 71.074219 206.433594 C 69.554688 213.863281 67.722656 221.210938 65.53125 228.464844 C 64.976562 230.316406 64.230469 232.046875 62.949219 233.519531 C 62.28125 233.332031 61.792969 232.992188 61.429688 232.550781 Z M 355.992188 288.734375 C 360.835938 294.363281 361.4375 309.078125 361.105469 310.582031 C 360.957031 311.261719 360.746094 311.90625 360.105469 312.304688 C 358.761719 312.425781 357.621094 311.988281 356.578125 311.15625 C 355.535156 310.328125 354.28125 309.847656 353.136719 309.164062 C 351.179688 307.996094 349.21875 306.839844 347.796875 304.957031 C 345.546875 301.964844 345.457031 298.425781 347.582031 295.328125 C 349.351562 292.746094 351.9375 291.183594 354.585938 289.695312 C 355.082031 289.417969 355.730469 289.339844 355.992188 288.734375 Z M 126.878906 209.878906 C 126.433594 209.472656 126.585938 208.734375 127.402344 208.132812 C 130.363281 205.945312 133.507812 204.113281 137.121094 203.210938 C 138.554688 202.847656 139.960938 203.015625 141.347656 203.449219 C 142.355469 203.773438 143.363281 204.125 144.375 204.425781 C 146.929688 205.171875 149.414062 204.863281 151.847656 203.902344 C 154.949219 202.675781 158.042969 201.414062 161.144531 200.1875 C 161.976562 199.855469 162.84375 199.59375 163.699219 199.3125 C 165.074219 198.863281 166.3125 199.164062 167.445312 200.019531 C 167.699219 200.210938 167.972656 200.398438 168.179688 200.621094 C 169.820312 202.390625 171.816406 202.570312 174.03125 202.050781 C 177.335938 201.277344 180.527344 200.105469 183.816406 199.285156 C 185.152344 198.953125 186.476562 198.578125 187.847656 198.398438 C 189.515625 198.171875 191.0625 198.472656 192.355469 199.511719 C 194.113281 200.921875 196.085938 201.398438 198.28125 201.398438 C 202.6875 201.398438 207.082031 201.253906 211.46875 200.804688 C 211.992188 200.75 212.527344 200.726562 213.050781 200.78125 C 213.660156 200.847656 213.773438 201.1875 213.375 201.636719 C 212.902344 202.171875 212.285156 202.449219 211.601562 202.628906 C 209.957031 203.066406 208.277344 203.300781 206.59375 203.503906 C 203.753906 203.839844 200.910156 204.230469 198.039062 204.292969 C 196.980469 204.359375 195.929688 204.519531 194.863281 204.398438 C 193.40625 204.238281 192.023438 203.832031 190.929688 202.847656 C 189.5 201.570312 187.953125 201.417969 186.195312 201.953125 C 183.765625 202.691406 181.367188 203.554688 178.964844 204.375 C 176.703125 205.148438 174.421875 205.8125 171.988281 205.796875 C 169.570312 205.789062 167.699219 204.796875 166.28125 202.863281 C 164.945312 201.042969 164.570312 200.9375 162.445312 201.773438 C 160.125 202.683594 157.90625 203.832031 155.671875 204.929688 C 153.523438 205.984375 151.316406 206.847656 148.902344 207.140625 C 146.449219 207.441406 144.066406 207.1875 142.003906 205.855469 C 139.179688 204.035156 136.542969 204.335938 133.792969 205.929688 C 131.953125 207 130.183594 208.148438 128.507812 209.464844 C 128.042969 209.839844 127.570312 210.511719 126.878906 209.878906 Z M 253.515625 203.195312 C 252.070312 201.824219 252.058594 199.929688 253.492188 198.5625 C 254.394531 197.707031 256.667969 196.886719 257.878906 196.621094 C 262.089844 195.710938 264.957031 195.570312 269.15625 196.277344 C 270.199219 196.457031 271.230469 196.734375 272.167969 197.253906 C 274.269531 198.425781 274.578125 201.117188 272.753906 202.667969 C 271.898438 203.398438 270.75 203.871094 269.683594 204.222656 C 266.746094 205.203125 263.796875 205.140625 260.699219 205.179688 C 259.046875 205.210938 257.417969 205.089844 255.84375 204.53125 C 254.972656 204.222656 254.183594 203.816406 253.515625 203.195312 Z M 136.070312 161.070312 C 136.007812 160.003906 136.671875 159.070312 137.941406 158.582031 C 139.285156 158.0625 140.6875 157.808594 142.109375 157.605469 C 146.777344 156.9375 151.480469 156.621094 156.179688 156.273438 C 165.753906 155.566406 175.339844 155.238281 185.128906 155.117188 C 189.757812 155.117188 194.578125 155.125 199.40625 155.109375 C 200.367188 155.109375 201.3125 155.230469 202.246094 155.410156 C 203.453125 155.644531 204.234375 156.453125 204.363281 157.492188 C 204.492188 158.539062 203.914062 159.5 202.816406 160.035156 C 202.238281 160.3125 201.621094 160.449219 200.984375 160.546875 C 197.152344 161.132812 193.292969 161.378906 189.449219 161.75 C 184.964844 162.167969 180.480469 162.558594 175.992188 162.921875 C 173.882812 163.09375 171.761719 163.191406 169.644531 163.289062 C 160.527344 163.703125 151.414062 163.816406 142.296875 163.734375 C 140.964844 163.71875 139.644531 163.679688 138.34375 163.386719 C 136.972656 163.0625 136.128906 162.214844 136.070312 161.070312 Z M 190.558594 338.472656 C 190.875 339.546875 190.425781 340.359375 189.570312 341.320312 C 189.277344 340.15625 189.277344 339.300781 189.628906 338.457031 C 189.726562 338.214844 189.871094 337.921875 190.175781 338.003906 C 190.335938 338.050781 190.507812 338.292969 190.558594 338.472656 Z M 170.886719 340.613281 C 171.183594 339.546875 171.449219 338.457031 172.851562 337.914062 C 172.566406 339.246094 171.816406 340 170.886719 340.613281 Z M 150.546875 337.164062 C 150.261719 338.097656 150.03125 338.621094 149.460938 339.140625 C 149.59375 338.382812 149.773438 337.832031 150.546875 337.164062 Z M 150.546875 337.164062 "/>
</g>
<path style=" stroke:none;fill-rule:nonzero;fill:rgb(16.468811%,8.239746%,6.269836%);fill-opacity:1;" d="M 333.703125 315.839844 C 334.402344 315.90625 335.09375 315.996094 335.761719 316.140625 C 336.878906 316.386719 337.9375 316.800781 338.878906 317.589844 C 340.304688 318.785156 341.121094 320.328125 341.160156 322.148438 C 341.257812 327.621094 342.089844 333.011719 342.757812 338.425781 C 343.375 343.375 343.839844 348.335938 344.082031 353.324219 C 344.164062 355.023438 344.058594 356.726562 343.820312 358.40625 C 343.433594 361.035156 342.285156 363.246094 339.777344 364.511719 C 335.101562 362.984375 331.164062 360.433594 328.597656 356.121094 C 324.820312 349.765625 322.339844 342.976562 322.542969 335.472656 C 322.722656 328.675781 325.132812 322.847656 330.511719 318.449219 C 331.570312 317.574219 332.636719 316.710938 333.703125 315.839844 Z M 329.648438 234.804688 C 327.085938 235.039062 324.585938 235.503906 322.589844 237.324219 C 319.726562 239.925781 318.375 243.25 318.089844 247.046875 C 317.84375 250.371094 318.40625 253.617188 319.222656 256.8125 C 321.042969 263.917969 324.1875 270.46875 327.703125 276.851562 C 328.753906 278.761719 329.96875 280.574219 331.351562 282.257812 C 332.222656 283.320312 333.191406 284.304688 334.117188 285.320312 C 335.582031 284.085938 336.828125 282.632812 337.824219 281.019531 C 339.371094 278.5 339.304688 275.617188 339.230469 272.828125 C 339.148438 269.542969 339.261719 251.285156 332.34375 234.660156 C 331.449219 234.707031 330.546875 234.722656 329.648438 234.804688 Z M 110.144531 180.09375 C 108.117188 175.484375 107.855469 168.539062 107.332031 163.53125 C 106.78125 158.304688 106.835938 153.0625 106.953125 147.816406 C 106.992188 146.0625 107.1875 144.320312 107.277344 142.566406 C 107.332031 141.515625 107.34375 140.46875 107.269531 139.410156 C 106.496094 139.445312 105.714844 139.46875 104.933594 139.492188 C 102.5 139.558594 100.066406 139.582031 97.644531 139.890625 C 96.855469 142.03125 96.320312 144.242188 95.832031 146.46875 C 94.554688 152.273438 94.691406 158.160156 94.894531 164.035156 C 95.058594 168.90625 96.109375 175.367188 96.449219 180.320312 C 96.457031 180.335938 110.214844 180.253906 110.144531 180.09375 Z M 230.640625 151.734375 C 229.566406 158.363281 229.492188 164.996094 230.738281 171.628906 C 230.78125 171.863281 230.835938 172.09375 230.886719 172.328125 C 231.050781 173.019531 231.226562 173.71875 231.171875 174.449219 C 234.882812 174.570312 238.59375 174.253906 242.300781 174.230469 C 242.835938 174.230469 243.359375 174.230469 243.894531 174.238281 C 243.96875 168.148438 243.78125 162.058594 244.128906 155.964844 C 244.351562 151.945312 244.628906 147.9375 245.101562 143.941406 C 245.3125 142.160156 245.570312 140.378906 245.808594 138.597656 C 244.839844 138.542969 243.878906 138.492188 242.910156 138.429688 C 240.011719 138.265625 237.113281 138.101562 234.214844 138.109375 C 232.488281 142.5 231.390625 147.070312 230.640625 151.734375 Z M 331.195312 291.433594 C 329.152344 294.523438 327.71875 297.890625 327.328125 301.582031 C 326.832031 306.273438 328.414062 310.328125 331.5625 313.800781 C 331.71875 313.972656 331.90625 314.117188 332.074219 314.289062 C 332.238281 314.457031 332.375 314.652344 332.410156 314.914062 C 333.371094 315.066406 334.332031 315.085938 335.300781 315.078125 C 335.542969 315.078125 335.78125 315.070312 336.023438 315.070312 C 336.746094 315.058594 337.472656 315.042969 338.195312 315.066406 C 338.554688 315.070312 338.914062 315.09375 339.273438 315.109375 C 340.320312 315.15625 341.371094 315.175781 342.40625 314.972656 C 341.160156 313.605469 339.859375 312.28125 338.683594 310.863281 C 335.460938 307.003906 334.589844 302.742188 336.527344 297.980469 C 337.773438 294.914062 339.523438 292.152344 341.519531 289.535156 C 342.03125 288.867188 342.675781 288.289062 342.992188 287.484375 C 342.21875 287.507812 341.445312 287.535156 340.679688 287.589844 C 338.367188 287.734375 336.0625 287.980469 333.753906 288.222656 C 332.734375 289.144531 331.953125 290.289062 331.195312 291.433594 Z M 123.410156 264.070312 C 123.902344 264.355469 124.476562 264.601562 125.039062 264.671875 C 126.511719 264.859375 127.980469 265.046875 129.46875 264.980469 C 133.011719 264.8125 136.566406 264.617188 140.109375 264.484375 C 144.398438 264.324219 148.695312 264.21875 152.988281 264.09375 C 153.410156 264.078125 153.835938 264.0625 154.257812 264.039062 C 159.125 263.753906 163.992188 263.5 168.855469 263.183594 C 172.507812 262.941406 176.148438 262.640625 179.792969 262.339844 C 182.59375 262.113281 185.386719 261.835938 188.179688 261.609375 C 191.296875 261.355469 194.414062 261.121094 197.527344 260.875 C 201.117188 260.589844 204.707031 260.28125 208.296875 259.996094 C 210.199219 259.835938 212.105469 259.707031 214.003906 259.542969 C 216.957031 259.289062 219.90625 258.992188 222.867188 258.746094 C 226.878906 258.398438 230.894531 258.128906 234.898438 257.730469 C 236.363281 257.589844 237.847656 257.265625 238.992188 256.175781 C 240.214844 255.007812 240.078125 253.785156 238.621094 252.917969 C 237.546875 252.28125 236.347656 252.097656 235.121094 251.992188 C 232.3125 251.746094 229.503906 251.789062 226.695312 251.777344 C 223.886719 251.804688 221.078125 251.886719 218.269531 251.949219 C 211.910156 252.082031 205.558594 252.28125 199.195312 252.59375 C 193.105469 252.894531 187.015625 253.089844 180.925781 253.339844 C 180.285156 253.363281 179.65625 253.390625 179.019531 253.429688 C 175.15625 253.699219 171.304688 253.980469 167.445312 254.257812 C 164.011719 254.503906 160.574219 254.707031 157.140625 255.007812 C 152.082031 255.460938 147.019531 255.992188 141.957031 256.476562 C 137.105469 256.933594 132.253906 257.371094 127.433594 258.121094 C 126.074219 258.332031 124.707031 258.558594 123.46875 259.226562 C 122.515625 259.746094 121.945312 260.503906 121.898438 261.632812 C 121.875 262.785156 122.484375 263.542969 123.410156 264.070312 Z M 213.847656 342.554688 C 214.191406 343.253906 213.398438 343.652344 212.894531 344 C 211.871094 344.699219 210.6875 345.035156 209.53125 345.398438 C 205.363281 346.691406 201.089844 347.464844 196.753906 347.917969 C 193.917969 348.210938 191.242188 347.699219 188.9375 345.914062 C 188.292969 345.414062 187.839844 345.53125 187.242188 345.894531 C 185.402344 346.984375 183.441406 347.78125 181.339844 348.195312 C 178.109375 348.839844 175.007812 348.539062 172.101562 346.878906 C 170.980469 346.238281 170.011719 345.417969 169.253906 344.203125 C 167.289062 345.578125 165.484375 346.796875 163.503906 347.707031 C 160.972656 348.863281 158.382812 349.699219 155.542969 349.660156 C 152.433594 349.617188 149.992188 348.449219 148.347656 345.757812 C 148.265625 345.621094 148.167969 345.496094 148.070312 345.367188 C 148.039062 345.328125 147.988281 345.308594 147.925781 345.261719 C 147.425781 345.359375 147.199219 345.816406 146.875 346.140625 C 144.464844 348.546875 141.882812 350.742188 139.050781 352.644531 C 138.082031 353.300781 137.0625 353.855469 135.933594 354.210938 C 135.445312 354.359375 134.996094 354.382812 134.574219 354.058594 C 133.96875 353.585938 134.027344 352.757812 134.808594 352.375 C 139.222656 350.1875 142.527344 346.628906 146.050781 343.335938 C 146.808594 342.621094 147.167969 341.886719 147.085938 340.832031 C 146.957031 339.105469 147.605469 337.605469 148.730469 336.3125 C 148.941406 336.074219 149.167969 335.847656 149.421875 335.660156 C 150.347656 334.960938 151.113281 334.839844 151.757812 335.285156 C 152.605469 335.863281 152.597656 336.726562 152.417969 337.578125 C 152.09375 339.109375 151.300781 340.425781 150.421875 341.707031 C 149.226562 343.449219 149.292969 344.148438 150.714844 345.707031 C 151.886719 346.992188 153.378906 347.578125 155.078125 347.734375 C 157.855469 347.992188 160.4375 347.277344 162.953125 346.195312 C 164.613281 345.472656 166.191406 344.609375 167.6875 343.585938 C 168.285156 343.171875 168.632812 342.773438 168.5625 341.914062 C 168.445312 340.277344 169.066406 338.789062 170.027344 337.464844 C 170.277344 337.125 170.597656 336.824219 170.9375 336.578125 C 171.972656 335.816406 173.121094 335.800781 173.859375 336.496094 C 174.511719 337.109375 174.542969 337.96875 173.949219 339.140625 C 173.386719 340.246094 172.53125 341.117188 171.6875 342.007812 C 170.824219 342.921875 170.808594 343.019531 171.742188 343.902344 C 173.101562 345.179688 174.753906 345.863281 176.578125 346.117188 C 179.980469 346.601562 183.082031 345.667969 186.0625 344.097656 C 186.769531 343.71875 186.886719 343.320312 186.625 342.570312 C 186.078125 341.011719 186.128906 339.441406 186.804688 337.90625 C 187.179688 337.066406 187.707031 336.34375 188.480469 335.824219 C 189.96875 334.832031 191.582031 335.277344 192.28125 336.929688 C 193.023438 338.683594 192.699219 340.359375 191.714844 341.945312 C 190.859375 343.3125 190.914062 343.53125 192.503906 344.082031 C 194.75 344.855469 197.078125 344.910156 199.421875 344.710938 C 203.761719 344.34375 208.066406 343.765625 212.25 342.496094 C 212.796875 342.3125 213.5625 341.976562 213.847656 342.554688 Z M 149.46875 339.140625 C 150.039062 338.621094 150.269531 338.097656 150.554688 337.164062 C 149.773438 337.832031 149.59375 338.382812 149.46875 339.140625 Z M 170.886719 340.613281 C 171.816406 340 172.566406 339.246094 172.851562 337.914062 C 171.449219 338.457031 171.183594 339.554688 170.886719 340.613281 Z M 190.558594 338.472656 C 190.507812 338.292969 190.335938 338.050781 190.175781 338.003906 C 189.871094 337.921875 189.726562 338.214844 189.628906 338.457031 C 189.277344 339.304688 189.277344 340.164062 189.570312 341.320312 C 190.425781 340.359375 190.875 339.546875 190.558594 338.472656 Z M 24.550781 306.679688 C 24.308594 311.523438 25.300781 316.148438 27.082031 320.628906 C 27.238281 321.019531 27.449219 321.394531 27.417969 321.839844 C 28.117188 321.945312 28.808594 322.042969 29.507812 322.125 C 30.925781 322.296875 32.34375 322.410156 33.773438 322.457031 C 34.457031 322.480469 35.140625 322.484375 35.824219 322.472656 C 34.929688 319.757812 33.894531 317.085938 33.292969 314.28125 C 32.75 311.75 32.464844 309.238281 32.652344 306.582031 C 33.238281 298.621094 36.519531 291.296875 36.492188 290.605469 C 35.800781 290.566406 35.109375 290.542969 34.417969 290.542969 C 32.34375 290.53125 30.28125 290.648438 28.207031 290.6875 C 25.925781 295.777344 24.828125 301.140625 24.550781 306.679688 Z M 24.550781 306.679688 "/>
</g>
</svg>
