<?xml version="1.0" encoding="UTF-8"?>
<svg xmlns="http://www.w3.org/2000/svg" xmlns:xlink="http://www.w3.org/1999/xlink" width="375pt" height="374.999991pt" viewBox="0 0 375 374.999991" version="1.2">
<defs>
<clipPath id="clip1">
  <path d="M 22 31.511719 L 294 31.511719 L 294 312.761719 L 22 312.761719 Z M 22 31.511719 "/>
</clipPath>
<clipPath id="clip2">
  <path d="M 118 161.226562 L 290.589844 161.226562 L 290.589844 349.433594 L 118 349.433594 Z M 118 161.226562 "/>
</clipPath>
<clipPath id="clip3">
  <path d="M 144 115.4375 L 222 115.4375 L 222 195 L 144 195 Z M 144 115.4375 "/>
</clipPath>
</defs>
<g id="surface1">
<g clip-path="url(#clip1)" clip-rule="nonzero">
<path style=" stroke:none;fill-rule:nonzero;fill:rgb(51.368713%,64.309692%,45.098877%);fill-opacity:1;" d="M 74.5625 126.089844 C 76.09375 125.734375 78.160156 124.847656 80.34375 124.730469 C 88.425781 124.199219 96.507812 123.785156 104.59375 123.550781 C 108.546875 123.433594 112.5 124.140625 116.449219 123.84375 C 123.414062 123.3125 130.375 122.074219 137.335938 121.542969 C 140.878906 121.304688 144.476562 122.074219 148.015625 122.074219 C 150.671875 122.074219 153.265625 121.601562 155.921875 121.484375 C 161.46875 121.246094 167.074219 121.246094 172.617188 120.835938 C 178.164062 120.421875 183.886719 119.59375 189.492188 119.121094 C 196.277344 118.53125 203.0625 118.175781 209.789062 117.644531 C 211.617188 117.527344 213.445312 117.234375 215.453125 116.996094 L 215.453125 119.417969 C 216.515625 118.769531 217.28125 117.882812 218.226562 117.707031 C 221.941406 116.996094 225.71875 115.992188 229.496094 115.992188 C 235.039062 115.933594 240.46875 115.875 246.015625 114.988281 C 252.269531 113.984375 258.757812 114.636719 265.128906 114.164062 C 270.914062 113.75 276.695312 112.980469 282.476562 112.15625 C 287.433594 111.507812 290.324219 113.394531 290.265625 117.527344 C 290.207031 119.417969 289.675781 120.183594 287.550781 120.304688 C 279.230469 120.835938 270.914062 121.71875 262.59375 122.308594 C 257.636719 122.664062 252.683594 122.664062 247.785156 122.960938 C 243.183594 123.3125 238.640625 123.964844 234.039062 124.316406 C 228.019531 124.789062 221.824219 125.910156 215.925781 125.085938 C 211.203125 124.433594 207.25 126.089844 202.945312 126.5 C 200.113281 126.796875 197.398438 126.972656 195.214844 124.496094 C 194.804688 124.023438 193.859375 124.023438 192.089844 123.433594 L 194.566406 126.914062 C 186.835938 127.445312 179.34375 127.976562 171.851562 128.449219 C 164.183594 128.921875 156.511719 129.570312 148.78125 129.808594 C 141.40625 130.042969 134.09375 129.867188 125.832031 129.867188 C 123.414062 130.222656 119.933594 130.988281 116.449219 131.226562 C 104.652344 132.050781 92.851562 133.171875 81.050781 133.113281 C 76.449219 133.113281 71.730469 132.996094 67.128906 132.996094 C 62.523438 132.996094 57.804688 133.46875 53.203125 133.46875 C 49.605469 133.46875 46.003906 133.054688 42.40625 132.996094 C 39.515625 132.996094 36.625 133.289062 33.4375 133.527344 C 33.617188 131.757812 33.675781 130.398438 33.96875 129.039062 C 34.738281 125.5 38.21875 126.207031 40.222656 126.03125 C 48.957031 125.320312 57.746094 125.203125 66.476562 125.085938 C 68.957031 125.144531 71.550781 125.734375 74.5625 126.089844 Z M 114.386719 123.964844 L 114.269531 124.140625 L 114.679688 124.199219 C 114.679688 124.140625 114.621094 124.082031 114.621094 123.964844 C 114.503906 123.964844 114.445312 123.964844 114.386719 123.964844 Z M 52.671875 185.300781 C 52.554688 185.242188 52.4375 185.125 52.4375 185.066406 C 52.554688 184.828125 52.789062 184.59375 52.910156 184.296875 C 50.195312 184.0625 47.480469 183.648438 44.765625 183.648438 C 37.507812 183.53125 30.191406 183.589844 22.9375 183.589844 L 22.464844 190.675781 C 25.710938 190.023438 28.953125 192.386719 31.90625 189.613281 C 32.140625 189.375 32.964844 189.847656 33.496094 189.90625 C 37.628906 190.378906 41.699219 191.027344 45.828125 191.207031 C 49.78125 191.382812 53.792969 190.96875 57.746094 191.027344 C 61.226562 191.085938 64.589844 190.144531 68.25 190.496094 C 74.265625 191.085938 80.460938 190.851562 86.539062 190.734375 C 90.375 190.675781 94.621094 188.960938 97.925781 190.144531 C 102.292969 191.679688 106.65625 190.734375 110.964844 191.738281 C 115.742188 192.859375 120.816406 192.210938 125.714844 192.621094 C 134.5625 193.332031 143.414062 193.09375 152.324219 193.09375 C 163.296875 193.09375 174.269531 192.859375 185.246094 192.742188 C 194.152344 192.683594 203.0625 192.800781 212.03125 192.742188 C 220.289062 192.683594 228.492188 192.445312 236.75 192.210938 C 243.125 192.03125 249.496094 191.738281 255.867188 191.441406 C 267.371094 190.910156 278.878906 190.320312 290.558594 189.730469 C 290.738281 187.308594 290.914062 185.066406 291.148438 182.46875 C 290.027344 182.410156 289.085938 182.292969 288.199219 182.292969 C 281.355469 182.585938 274.511719 183 267.609375 183.292969 C 260.707031 183.589844 253.921875 183.648438 247.078125 183.886719 C 244.953125 183.945312 242.828125 184.179688 240.703125 184.296875 L 241.945312 185.183594 L 241.472656 185.539062 L 240.765625 184.238281 L 199.523438 184.359375 C 198.933594 185.539062 198.34375 186.71875 197.753906 187.898438 L 196.925781 187.425781 L 197.339844 184.417969 C 193.917969 184.535156 190.4375 184.0625 187.191406 184.890625 C 184.417969 185.597656 181.234375 183.53125 178.753906 186.1875 C 178.402344 186.601562 177.222656 186.246094 176.394531 186.1875 C 171.96875 185.714844 167.605469 184.890625 163.179688 184.710938 C 159.933594 184.59375 156.628906 185.480469 153.386719 185.421875 C 147.898438 185.421875 142.410156 184.949219 136.925781 184.828125 C 132.792969 184.769531 128.722656 185.066406 124.59375 185.007812 C 120.464844 184.949219 116.449219 184.417969 112.4375 184.296875 C 108.425781 184.179688 104.238281 184.417969 100.167969 184.296875 C 96.6875 184.179688 93.265625 183.472656 89.78125 183.355469 C 83.765625 183.117188 77.6875 182.941406 71.671875 183.117188 C 65.535156 183.292969 59.339844 183.886719 53.203125 184.296875 Z M 28.070312 153.066406 C 32.90625 153.128906 37.746094 153.363281 42.582031 153.1875 C 53.261719 152.832031 63.941406 151.945312 74.621094 151.886719 C 81.109375 151.828125 87.601562 153.066406 94.148438 153.421875 C 97.6875 153.660156 101.230469 153.128906 104.769531 153.304688 C 113.148438 153.71875 121.523438 154.367188 129.902344 154.839844 C 136.273438 155.195312 142.648438 155.726562 149.078125 155.785156 C 154.976562 155.84375 160.878906 155.253906 166.777344 155.015625 C 170.613281 154.898438 174.449219 155.132812 178.28125 154.957031 C 183.003906 154.722656 187.722656 153.835938 192.382812 154.011719 C 199.050781 154.367188 205.421875 152.003906 212.089844 152.476562 C 218.757812 152.949219 225.484375 153.1875 232.148438 153.304688 C 238.34375 153.421875 244.539062 152.949219 250.734375 153.128906 C 256.929688 153.304688 263.007812 153.953125 269.144531 154.308594 C 274.867188 154.601562 280.589844 154.78125 286.3125 155.074219 C 287.726562 155.253906 289.203125 155.488281 290.558594 155.785156 C 290.085938 158.144531 289.554688 160.449219 289.085938 162.808594 C 283.773438 162.515625 278.464844 161.984375 273.214844 161.921875 C 265.191406 161.804688 257.105469 162.042969 249.023438 161.921875 C 244.65625 161.863281 240.351562 161.15625 235.984375 161.039062 C 232.738281 160.980469 229.554688 161.453125 226.308594 161.511719 C 221.882812 161.570312 217.457031 161.570312 213.035156 161.453125 C 209.964844 161.390625 206.898438 160.742188 203.890625 160.921875 C 196.160156 161.332031 188.429688 162.21875 180.644531 162.632812 C 174.269531 162.925781 167.898438 162.691406 161.527344 162.75 C 156.15625 162.808594 150.789062 162.984375 145.421875 162.867188 C 137.632812 162.75 129.785156 163.28125 122.175781 162.042969 C 110.375 160.09375 98.574219 160.683594 86.773438 160.09375 C 80.933594 159.796875 75.09375 158.972656 69.25 158.558594 C 67.066406 158.441406 64.886719 158.855469 62.703125 159.03125 C 58.570312 159.386719 54.5 159.855469 50.371094 160.035156 C 48.484375 160.09375 46.535156 159.5625 44.648438 159.445312 C 43.527344 159.386719 42.40625 159.5625 41.285156 159.5625 C 37.332031 159.5625 33.378906 159.5625 29.425781 159.5625 L 26.359375 157.96875 C 26.300781 157.613281 26.179688 157.199219 26.121094 156.847656 Z M 173.089844 156.726562 L 172.738281 156.195312 C 172.679688 156.257812 172.5 156.375 172.5 156.433594 C 172.558594 156.609375 172.617188 156.847656 172.738281 157.023438 Z M 267.785156 243.628906 L 270.558594 243.21875 C 271.914062 241.800781 273.390625 240.441406 274.628906 238.90625 C 275.335938 238.023438 275.691406 236.78125 276.222656 235.71875 C 273.507812 235.957031 270.792969 236.308594 268.023438 236.429688 C 262.359375 236.722656 256.632812 236.78125 250.96875 237.3125 C 240.527344 238.316406 230.144531 239.617188 219.699219 240.679688 C 214.507812 241.210938 209.257812 241.328125 204.066406 241.917969 C 195.273438 242.921875 186.542969 244.515625 177.75 245.164062 C 169.195312 245.816406 160.640625 245.519531 152.027344 245.753906 C 145.480469 245.875 138.929688 246.167969 132.382812 246.40625 C 131.789062 246.464844 131.261719 246.582031 130.671875 246.757812 C 127.71875 247.410156 124.238281 249.414062 121.9375 248.472656 C 117.691406 246.757812 113.738281 247.410156 109.667969 247.527344 C 105.832031 247.644531 101.996094 247.761719 98.21875 248.058594 C 97.335938 248.117188 96.507812 249.355469 95.742188 249.355469 C 92.734375 249.238281 89.722656 248.707031 86.714844 248.648438 C 84.589844 248.589844 82.46875 249.179688 80.34375 249.238281 C 71.671875 249.535156 62.996094 249.710938 54.382812 249.945312 L 54.441406 249.886719 C 53.96875 250.066406 53.5 250.183594 53.027344 250.242188 C 48.894531 249.886719 44.765625 248.765625 40.695312 250.65625 L 39.808594 250.300781 C 39.457031 250.242188 39.101562 250.183594 38.808594 250.125 L 37.332031 250.066406 L 35.738281 249.476562 L 35.917969 252.78125 C 36.507812 253.371094 37.15625 253.902344 37.921875 254.199219 C 38.394531 254.375 38.277344 254.671875 38.160156 254.671875 C 38.039062 254.671875 37.746094 254.550781 37.507812 254.492188 C 37.6875 254.316406 37.804688 254.078125 37.980469 253.960938 C 38.160156 253.84375 38.335938 254.078125 37.921875 254.199219 C 37.449219 255.082031 37.214844 256.085938 37.332031 257.089844 L 40.519531 256.855469 L 40.636719 256.265625 C 40.636719 256.441406 40.636719 256.617188 40.636719 256.796875 C 44.941406 257.03125 49.25 257.503906 53.558594 257.445312 C 60.164062 257.328125 66.773438 256.855469 73.320312 256.441406 C 76.449219 256.265625 79.574219 255.910156 82.703125 255.792969 C 87.246094 255.671875 91.730469 255.734375 96.273438 255.554688 C 96.980469 255.554688 97.6875 254.316406 98.339844 254.316406 C 101.109375 254.375 103.882812 254.847656 106.597656 254.847656 C 108.664062 254.847656 110.785156 254.375 112.851562 254.316406 C 121.761719 254.019531 130.609375 253.785156 139.460938 253.488281 C 145.597656 253.3125 151.734375 252.957031 157.929688 252.78125 C 162.648438 252.664062 167.367188 252.664062 172.089844 252.664062 C 174.269531 252.664062 176.453125 252.898438 178.636719 252.664062 C 182.414062 252.25 186.070312 251.246094 189.847656 251.011719 C 194.390625 250.714844 198.992188 251.011719 203.59375 250.832031 C 206.957031 250.714844 210.320312 250.183594 213.683594 249.828125 C 217.457031 249.414062 221.234375 249.003906 225.011719 248.472656 C 234.039062 247.230469 243.003906 245.519531 252.03125 244.929688 C 256.042969 244.632812 260.117188 242.804688 264.246094 244.574219 C 264.71875 244.8125 265.542969 244.160156 266.191406 243.925781 Z M 44.414062 114.222656 L 43.882812 113.394531 L 40.28125 114.636719 C 40.222656 115.109375 40.222656 115.578125 40.164062 116.050781 L 43.054688 117.707031 C 44.53125 115.046875 46.125 117.765625 47.65625 117.644531 C 51.847656 117.234375 56.09375 116.996094 60.285156 116.761719 C 64.945312 116.523438 69.664062 116.464844 74.324219 116.109375 C 79.398438 115.699219 84.414062 115.109375 89.429688 114.398438 C 90.433594 114.28125 91.316406 113.277344 92.554688 112.511719 C 93.558594 112.804688 94.621094 112.980469 95.742188 113.042969 C 101.9375 112.863281 108.25 111.683594 114.269531 112.449219 C 119.875 113.21875 125.066406 111.386719 130.671875 112.039062 C 136.039062 112.628906 141.585938 111.035156 147.070312 110.503906 C 153.207031 109.914062 159.285156 109.5 165.421875 109.027344 C 168.605469 108.789062 171.734375 108.257812 174.917969 108.320312 C 177.101562 108.378906 179.167969 108.910156 180.761719 106.84375 C 181.234375 106.429688 181.882812 106.191406 182.53125 106.253906 C 186.425781 106.253906 190.496094 107.019531 194.210938 106.3125 C 203.769531 104.480469 213.445312 103.183594 223.121094 102.414062 C 228.550781 102 234.039062 100.230469 239.347656 100.878906 C 246.308594 101.707031 252.742188 99.523438 259.40625 99.050781 C 264.601562 98.695312 269.671875 97.21875 274.867188 96.746094 C 276.222656 96.628906 278.464844 95.625 278.582031 94.800781 C 278.640625 93.207031 277.992188 91.671875 276.753906 90.609375 C 275.75 89.839844 273.804688 90.195312 272.328125 90.371094 C 270.5 90.609375 268.730469 91.257812 266.902344 91.492188 C 260.941406 92.320312 254.746094 92.023438 249.257812 95.269531 C 248.789062 95.566406 247.902344 95.152344 247.253906 95.035156 C 245.835938 94.679688 244.363281 94.445312 242.886719 94.328125 C 240.882812 94.328125 238.933594 94.445312 236.929688 94.679688 C 235.570312 94.800781 234.570312 95.921875 232.796875 95.269531 C 227.84375 93.5 222.710938 95.332031 217.695312 95.269531 C 210.613281 95.152344 203.535156 96.984375 196.453125 97.808594 C 193.976562 98.105469 191.441406 97.867188 188.902344 98.164062 C 185.539062 98.578125 182.175781 99.167969 178.871094 99.816406 C 177.160156 100.171875 175.570312 100.878906 173.386719 101.648438 C 171.378906 100.230469 168.664062 101.058594 165.539062 101.527344 C 157.160156 102.828125 148.605469 103.417969 140.109375 104.007812 C 133.5625 104.480469 126.953125 104.480469 120.402344 104.835938 C 114.800781 105.128906 109.195312 105.78125 103.53125 106.191406 C 97.15625 106.664062 90.667969 106.488281 84.414062 107.789062 C 78.457031 109.027344 72.554688 109.441406 66.539062 109.734375 C 59.632812 110.089844 52.730469 110.917969 45.828125 111.507812 C 45.296875 112.390625 44.824219 113.277344 44.414062 114.222656 Z M 65.710938 288.378906 C 75.859375 287.90625 85.949219 287.199219 96.097656 286.964844 C 106.773438 286.726562 117.453125 287.199219 128.132812 286.902344 C 133.972656 286.785156 139.757812 285.722656 145.539062 285.191406 C 148.488281 284.957031 151.4375 285.015625 154.386719 284.835938 C 159.285156 284.601562 164.183594 284.246094 169.078125 284.011719 C 172.089844 283.835938 175.15625 283.65625 178.164062 283.714844 C 178.695312 283.714844 179.167969 285.132812 179.460938 286.136719 C 182.824219 288.027344 183.003906 284.011719 184.890625 283.480469 L 239.113281 279.230469 C 238.992188 279.9375 239.113281 280.824219 238.816406 281 C 235.039062 283.125 232.621094 287.375 227.488281 287.375 C 222.945312 287.375 218.402344 287.964844 213.859375 288.4375 C 208.371094 288.96875 202.945312 289.679688 197.457031 290.210938 C 191.972656 290.742188 186.367188 291.332031 180.878906 291.6875 C 175.980469 291.980469 171.144531 292.039062 166.246094 292.21875 C 164.183594 292.277344 162.117188 292.277344 160.050781 292.453125 C 151.378906 293.101562 142.765625 293.929688 134.09375 294.519531 C 126.539062 294.992188 118.929688 295.226562 111.378906 295.464844 C 103.058594 295.757812 94.796875 295.996094 86.480469 296.171875 C 83.824219 296.230469 81.167969 296.113281 78.457031 296.113281 C 78.21875 295.40625 78.101562 294.222656 77.628906 294.105469 C 75.625 293.398438 73.5 292.984375 71.375 292.511719 C 70.429688 291.804688 69.488281 291.09375 68.542969 290.386719 C 67.597656 289.679688 66.714844 289.027344 65.710938 288.378906 Z M 145.65625 286.609375 L 144.890625 287.140625 C 145.066406 287.375 145.359375 287.847656 145.421875 287.847656 C 145.773438 287.671875 146.070312 287.433594 146.363281 287.199219 Z M 98.042969 295.289062 L 98.160156 295.050781 L 97.984375 295.050781 Z M 43.761719 267.835938 C 43.703125 268.542969 43.585938 269.253906 43.527344 269.960938 C 45.179688 270.609375 46.773438 271.554688 48.484375 271.789062 C 51.492188 272.203125 54.558594 272.203125 57.628906 272.320312 C 63.527344 272.617188 69.429688 273.148438 75.328125 273.03125 C 85.300781 272.734375 95.328125 272.027344 105.300781 271.496094 C 112.96875 271.082031 120.640625 270.609375 128.308594 270.316406 C 134.621094 270.078125 140.996094 269.960938 147.308594 269.902344 C 154.917969 269.785156 162.53125 269.902344 170.082031 269.605469 C 174.328125 269.429688 178.578125 268.367188 182.824219 268.128906 C 186.957031 267.953125 191.144531 268.78125 195.273438 268.425781 C 205.777344 267.480469 216.277344 266.535156 226.839844 266.003906 C 236.042969 265.53125 245.246094 264.824219 254.453125 264.117188 C 258.875 263.761719 263.066406 262.757812 265.128906 258.09375 C 262.710938 255.613281 259.878906 257.089844 257.226562 257.269531 C 244.597656 258.09375 231.972656 258.980469 219.347656 259.925781 C 216.808594 260.101562 214.035156 259.925781 213.09375 261.8125 C 209.082031 261.695312 205.539062 261.398438 201.941406 261.578125 C 195.804688 261.871094 189.667969 262.699219 183.535156 262.996094 C 175.804688 263.347656 168.074219 263.289062 160.347656 263.585938 C 151.496094 263.9375 142.648438 264.527344 133.796875 264.824219 C 123.472656 265.179688 113.148438 265.53125 102.820312 265.589844 C 95.445312 265.652344 88.308594 268.070312 80.816406 267.125 C 77.15625 266.65625 73.320312 266.949219 69.605469 267.125 C 68.542969 267.1875 67.480469 267.953125 66.417969 268.425781 C 64.765625 267.539062 62.9375 267.066406 61.050781 267.066406 C 59.339844 267.007812 57.570312 267.597656 55.859375 267.480469 C 50.785156 267.007812 45.769531 266.359375 40.695312 265.769531 L 39.929688 267.1875 L 41.402344 268.660156 Z M 205.128906 214.9375 C 197.105469 214.9375 189.078125 214.820312 180.996094 214.996094 C 176.984375 215.054688 173.03125 215.765625 169.019531 215.882812 C 165.480469 215.941406 161.882812 215.234375 158.339844 215.410156 C 149.609375 215.824219 140.878906 216.589844 132.144531 217.183594 C 126.304688 217.59375 120.402344 217.890625 114.5625 218.304688 C 111.496094 218.539062 108.484375 218.894531 105.417969 219.070312 C 98.21875 219.484375 91.023438 219.839844 83.765625 220.25 C 82.820312 220.3125 81.9375 220.84375 80.992188 220.902344 C 74.738281 221.195312 68.484375 221.375 62.230469 221.726562 C 58.21875 221.964844 54.265625 222.257812 50.253906 222.613281 C 46.242188 222.96875 42.40625 223.5 38.394531 223.558594 C 34.914062 223.617188 31.785156 226.449219 28.070312 224.5625 C 27.832031 224.441406 26.59375 225.445312 26.652344 225.800781 C 26.949219 227.394531 27.183594 229.167969 28.128906 230.40625 C 28.71875 231.113281 30.488281 231.234375 31.667969 231.113281 C 35.5625 230.640625 39.398438 229.636719 43.292969 229.34375 C 47.539062 228.988281 51.847656 229.460938 56.152344 229.105469 C 62.171875 228.636719 68.128906 227.691406 74.148438 227.160156 C 77.394531 226.863281 80.636719 227.039062 83.941406 226.921875 C 95.800781 226.390625 107.660156 225.859375 119.519531 225.152344 C 123.945312 224.855469 128.367188 224.089844 132.792969 223.558594 C 133.03125 223.558594 133.324219 223.792969 133.5625 223.851562 C 138.046875 224.382812 142.46875 224.914062 146.953125 223.558594 C 148.074219 223.320312 149.253906 223.203125 150.433594 223.261719 C 157.160156 223.144531 163.945312 223.027344 170.671875 222.910156 C 176.277344 222.847656 181.882812 222.847656 187.546875 222.730469 C 193.445312 222.613281 199.347656 222.316406 205.246094 222.140625 L 207.3125 222.140625 L 212.324219 221.550781 L 211.203125 219.601562 C 214.273438 217.949219 211.734375 215.941406 211.558594 214.113281 L 206.601562 214.9375 Z M 34.382812 209.742188 L 25.886719 209.449219 L 25.828125 205.730469 C 29.367188 203.542969 33.023438 204.132812 36.683594 205.199219 L 36.917969 205.847656 L 37.273438 205.433594 L 43.703125 204.3125 L 45.59375 204.726562 L 47.539062 204.785156 L 48.660156 204.960938 L 49.191406 205.199219 L 48.660156 204.960938 C 48.660156 204.84375 48.660156 204.726562 48.660156 204.605469 C 55.800781 204.3125 62.878906 203.957031 70.019531 203.664062 C 75.210938 203.425781 80.402344 203.25 85.59375 203.191406 C 93.675781 203.132812 101.820312 203.601562 109.84375 203.132812 C 115.449219 202.835938 120.933594 201.183594 126.539062 200.472656 C 130.199219 200.003906 133.972656 200.121094 137.632812 200.003906 C 143.296875 199.824219 149.019531 199.351562 154.683594 199.589844 C 158.105469 199.707031 161.703125 197.816406 165.066406 200.296875 C 165.65625 200.710938 167.191406 199.53125 168.371094 199.472656 C 176.039062 198.941406 183.710938 198.347656 191.320312 198.113281 C 199.464844 197.875 207.664062 197.996094 215.808594 197.9375 L 216.160156 198.410156 L 216.457031 197.875 C 216.867188 198.289062 217.636719 198.703125 217.695312 199.175781 C 217.8125 200.652344 217.8125 202.128906 217.753906 203.542969 L 218.578125 203.601562 C 218.578125 203.839844 218.578125 204.074219 218.578125 204.253906 C 213.917969 204.429688 209.257812 204.488281 204.65625 204.84375 C 196.75 205.375 188.785156 206.082031 180.878906 206.613281 C 178.105469 206.792969 175.273438 206.671875 172.441406 206.613281 C 169.90625 206.554688 167.367188 206.320312 164.832031 206.378906 C 157.457031 206.554688 150.140625 207.027344 142.765625 207.144531 C 138.046875 207.203125 133.265625 206.4375 128.546875 206.671875 C 124.179688 206.910156 119.933594 208.445312 115.566406 208.679688 C 106.421875 209.152344 97.277344 209.210938 88.132812 209.269531 C 87.128906 209.269531 86.125 208.328125 85.652344 208.089844 C 84.414062 208.503906 83.351562 209.152344 82.230469 209.210938 C 75.269531 209.507812 68.308594 209.742188 61.402344 209.921875 C 59.042969 209.980469 56.625 209.921875 54.265625 209.921875 L 47.125 209.921875 L 45.769531 207.796875 L 45.414062 207.675781 L 45.710938 207.914062 C 45.472656 208.621094 45.238281 209.390625 45.003906 210.15625 L 34.617188 208.738281 C 34.558594 209.035156 34.5 209.390625 34.382812 209.742188 Z M 156.511719 200.179688 C 156.394531 200.296875 156.15625 200.414062 156.15625 200.535156 C 156.15625 200.710938 156.21875 200.945312 156.335938 201.125 C 156.453125 201.003906 156.6875 200.886719 156.6875 200.769531 C 156.6875 200.59375 156.628906 200.355469 156.511719 200.179688 Z M 216.515625 79.980469 L 218.640625 79.625 L 219.996094 80.394531 L 220.410156 81.160156 C 220.527344 80.6875 220.644531 80.21875 220.761719 79.746094 L 228.609375 78.800781 L 230.675781 79.625 L 230.734375 79.625 L 231.382812 80.6875 L 232.148438 79.390625 C 232.269531 79.273438 232.445312 79.273438 232.5625 79.390625 C 233.917969 80.21875 234.449219 79.746094 234.332031 78.269531 L 236.574219 78.683594 L 236.632812 78.742188 L 243.59375 77.207031 L 244.1875 77.972656 L 245.011719 77.027344 L 246.425781 76.910156 L 247.195312 77.914062 L 247.84375 76.851562 L 254.273438 76.4375 C 255.691406 77.382812 257.816406 77.027344 258.523438 75.613281 L 266.3125 76.617188 L 268.433594 80.277344 L 257.816406 81.042969 L 256.28125 80.394531 L 253.332031 81.101562 C 253.09375 81.222656 252.976562 81.398438 252.859375 81.574219 L 250.675781 81.515625 L 249.613281 80.453125 L 248.550781 81.988281 L 247.078125 81.691406 L 241.472656 81.753906 L 241.292969 82.519531 C 241.058594 82.519531 240.824219 82.578125 240.585938 82.578125 L 239.289062 82.519531 L 238.640625 83.050781 L 232.148438 83.167969 C 230.96875 80.925781 230.203125 82.460938 229.375 83.464844 C 229.257812 83.878906 229.140625 84.230469 229.023438 84.644531 L 229.082031 84.644531 L 226.484375 84.171875 C 225.542969 83.285156 224.539062 81.160156 223.652344 84.230469 C 220.703125 84.703125 217.753906 85.234375 214.804688 85.589844 C 213.503906 85.648438 212.148438 85.589844 210.851562 85.414062 L 203.003906 86.179688 L 200.171875 86.121094 C 200.230469 85.589844 200.230469 85.058594 200.289062 84.527344 L 199.640625 84.410156 C 199.582031 85 199.523438 85.589844 199.464844 86.179688 C 195.394531 86.179688 191.378906 86.179688 187.308594 86.121094 C 186.957031 86.121094 186.484375 85.648438 186.246094 85.292969 C 184.773438 83.109375 183.355469 84.113281 181.941406 85.414062 C 181.351562 85.945312 180.289062 87.007812 180.054688 86.886719 C 177.28125 85.292969 174.800781 87.539062 172.265625 87.242188 C 170.730469 87.066406 169.257812 85.882812 167.722656 85.175781 C 166.894531 84.820312 166.070312 84.527344 165.242188 84.230469 C 165.125 85.058594 165.007812 85.882812 164.832031 86.949219 C 162.589844 87.125 160.347656 88.601562 157.691406 86.238281 C 156.570312 85.234375 153.324219 86.949219 151.082031 87.066406 C 143.53125 87.359375 135.980469 87.300781 128.429688 87.597656 C 121.585938 87.890625 114.679688 88.480469 107.835938 88.835938 C 102.703125 89.074219 97.570312 89.074219 92.4375 89.25 C 89.488281 89.367188 86.597656 89.542969 83.648438 89.839844 C 76.273438 90.609375 68.839844 91.433594 61.464844 92.203125 L 59.871094 92.203125 L 57.921875 92.496094 L 59.222656 88.953125 L 60.695312 88.363281 C 64.058594 87.300781 67.363281 85.765625 70.785156 85.292969 C 76.625 84.527344 82.585938 84.644531 88.484375 84.113281 C 97.277344 83.347656 106.066406 82.222656 114.859375 81.398438 C 119.105469 80.984375 123.414062 80.984375 127.660156 80.925781 C 139.164062 80.75 150.671875 80.511719 162.175781 80.453125 C 173.503906 80.394531 184.890625 80.453125 196.21875 80.6875 C 198.164062 80.75 200.113281 82.046875 202.296875 82.816406 C 202.117188 83.40625 202.238281 82.992188 202.355469 82.578125 L 202.886719 82.046875 C 205.894531 80.277344 209.023438 80.570312 212.207031 81.574219 C 212.5625 81.691406 213.09375 81.339844 213.566406 81.222656 Z M 259.996094 78.445312 C 259.878906 78.445312 259.820312 78.503906 259.703125 78.5625 C 259.703125 78.5625 259.761719 78.742188 259.761719 78.800781 C 259.878906 78.800781 259.9375 78.742188 260.058594 78.683594 C 260.058594 78.742188 260.058594 78.5625 259.996094 78.445312 Z M 227.132812 51.878906 L 218.226562 53.828125 C 218.34375 52.058594 218.460938 51.113281 218.519531 50.167969 L 217.519531 49.578125 L 214.6875 53.53125 C 212.03125 53.769531 208.902344 54.121094 205.777344 54.359375 C 199.640625 54.773438 193.445312 55.1875 187.25 55.480469 C 185.304688 55.539062 183.355469 54.890625 181.351562 54.949219 C 179.992188 55.007812 178.695312 55.953125 177.339844 56.070312 C 169.433594 56.660156 161.527344 57.429688 153.621094 57.488281 C 146.1875 57.546875 138.8125 57.960938 131.4375 58.726562 C 124.652344 59.4375 117.808594 59.4375 110.964844 59.730469 C 104.355469 60.027344 97.6875 60.320312 90.964844 60.027344 C 94.796875 57.902344 97.039062 53.058594 102.585938 54.359375 C 104.0625 54.714844 106.066406 52.707031 107.542969 53.058594 C 112.027344 54.003906 116.332031 52.648438 120.699219 52.410156 C 125.359375 52.175781 129.960938 51.523438 134.621094 51.230469 C 140.226562 50.933594 145.890625 50.992188 151.496094 50.699219 C 157.277344 50.402344 163.0625 49.8125 168.902344 49.519531 C 177.398438 49.105469 185.953125 48.808594 194.449219 48.394531 C 202.355469 47.984375 210.203125 47.394531 218.046875 46.921875 C 220.585938 46.800781 223.121094 46.800781 225.71875 46.800781 C 226.722656 48.394531 228.433594 49.695312 227.132812 51.878906 Z M 203.0625 49.8125 L 202.828125 49.339844 C 202.648438 49.519531 202.472656 49.695312 202.296875 49.871094 C 202.238281 49.929688 202.53125 50.167969 202.648438 50.285156 C 202.828125 50.109375 202.945312 49.992188 203.0625 49.8125 Z M 212.738281 47.984375 C 212.679688 47.925781 212.621094 47.804688 212.503906 47.804688 C 212.386719 47.804688 212.386719 47.925781 212.265625 47.984375 C 212.324219 48.042969 212.386719 48.160156 212.503906 48.160156 C 212.621094 48.160156 212.621094 48.042969 212.738281 47.984375 Z M 202.117188 35.347656 L 201.46875 34.996094 C 201.058594 33.875 200.585938 32.8125 200.054688 31.511719 C 190.96875 31.867188 181.410156 32.28125 171.910156 32.691406 C 166.304688 32.988281 160.699219 33.28125 155.097656 33.8125 C 150.140625 34.167969 145.183594 34.816406 140.285156 35.644531 C 136.214844 36.472656 132.320312 38.007812 128.308594 39.1875 C 126.363281 41.3125 124.476562 43.671875 121.171875 41.429688 L 120.285156 41.84375 C 120.402344 42.316406 120.464844 42.847656 120.582031 43.320312 C 121.703125 43.554688 122.882812 43.96875 124.003906 43.96875 C 128.074219 43.851562 132.085938 43.496094 136.15625 43.320312 C 146.1875 42.90625 156.277344 42.492188 166.304688 42.078125 C 169.726562 41.960938 173.089844 41.960938 176.453125 41.667969 C 182 41.195312 187.546875 40.25 193.09375 39.953125 C 198.285156 39.660156 203.476562 39.894531 208.667969 39.835938 C 208.609375 38.476562 208.550781 37.179688 208.492188 35.820312 C 207.960938 35.878906 207.429688 36 206.898438 36.234375 C 204.007812 37.886719 203.476562 37.59375 202.945312 34.167969 L 202.179688 34.816406 Z M 223.832031 220.960938 C 227.371094 220.664062 230.851562 219.660156 234.332031 219.425781 C 239.171875 219.128906 244.066406 219.660156 248.847656 219.128906 C 254.984375 218.480469 261.058594 217.242188 267.195312 216.121094 C 268.140625 215.941406 268.964844 215.054688 269.910156 214.996094 C 273.449219 214.761719 276.988281 214.761719 280.53125 214.644531 L 284.484375 211.867188 L 284.71875 211.808594 L 284.835938 207.734375 C 284.304688 207.558594 283.773438 207.203125 283.242188 207.265625 C 275.160156 207.972656 266.960938 208.207031 258.996094 209.683594 C 251.441406 211.042969 244.007812 212.929688 236.222656 212.753906 C 234.6875 212.695312 233.09375 213.933594 232.148438 214.289062 C 230.261719 213.757812 228.550781 212.929688 226.898438 212.992188 C 221.765625 213.109375 216.691406 213.640625 211.558594 213.933594 C 211.734375 215.765625 214.273438 217.832031 211.203125 219.425781 L 212.324219 221.375 C 216.101562 221.3125 219.996094 221.3125 223.832031 220.960938 Z M 218.640625 204.253906 C 218.640625 204.015625 218.640625 203.78125 218.640625 203.601562 C 220.878906 203.308594 221.292969 202.894531 221.472656 200.710938 C 221.117188 199.175781 220.289062 197.464844 223.242188 197.757812 C 225.660156 197.9375 228.078125 197.996094 230.496094 197.9375 C 236.75 197.816406 242.945312 197.523438 249.199219 197.464844 C 254.746094 197.40625 260.292969 197.699219 265.78125 197.464844 C 267.84375 197.40625 269.851562 195.871094 271.914062 195.574219 C 276.28125 194.984375 280.707031 194.628906 285.191406 194.570312 C 286.902344 194.570312 288.554688 195.691406 289.96875 196.222656 C 289.910156 200.652344 287.609375 201.300781 284.128906 201.539062 C 272.742188 202.246094 261.414062 203.542969 250.027344 204.132812 C 240.234375 204.667969 230.378906 204.488281 220.585938 204.667969 C 219.996094 204.605469 219.289062 204.488281 218.640625 204.253906 Z M 280.882812 195.871094 L 280.765625 196.046875 L 280.941406 196.046875 Z M 162.410156 310.164062 C 156.097656 310.695312 149.84375 311.34375 143.53125 311.640625 C 139.046875 311.816406 134.683594 312.761719 130.140625 310.753906 C 127.71875 309.691406 124.355469 311.109375 121.523438 310.636719 C 118.515625 310.164062 115.625 308.804688 112.675781 307.804688 L 112.085938 305.5 C 121.054688 306.917969 130.375 304.082031 139.34375 307.210938 L 139.226562 305.085938 C 143.945312 305.085938 148.664062 305.144531 153.324219 305.085938 C 155.097656 305.085938 156.808594 304.734375 158.578125 304.734375 C 159.875 304.851562 161.171875 305.085938 162.410156 305.441406 C 162.410156 307.035156 162.410156 308.628906 162.410156 310.164062 Z M 122.941406 310.164062 L 123.058594 309.929688 L 122.882812 309.929688 Z M 166.011719 310.222656 L 167.78125 309.75 C 169.785156 309.988281 171.851562 310.105469 173.859375 310.105469 C 175.980469 310.046875 178.046875 309.632812 180.113281 309.335938 L 183.003906 308.925781 L 184.417969 308.984375 C 184.890625 307.507812 185.363281 305.972656 185.835938 304.496094 C 179.640625 302.078125 173.386719 304.4375 167.132812 304.320312 C 165.539062 304.320312 163.945312 305.085938 162.410156 305.5 C 162.410156 307.035156 162.410156 308.628906 162.410156 310.164062 Z M 202.589844 304.496094 C 202.53125 303.964844 202.472656 303.492188 202.414062 302.960938 C 197.8125 302.84375 193.152344 302.667969 188.550781 302.726562 C 187.664062 302.726562 186.777344 303.847656 185.894531 304.496094 C 185.421875 305.972656 184.949219 307.507812 184.476562 308.984375 Z M 235.039062 53.296875 C 232.621094 48.335938 229.90625 46.683594 225.71875 46.921875 C 226.722656 48.394531 228.433594 49.695312 227.132812 51.878906 Z M 293.039062 163.105469 C 293.332031 161.273438 293.863281 159.503906 293.746094 157.730469 C 293.628906 155.84375 292.800781 154.25 290.441406 155.84375 C 289.96875 158.203125 289.4375 160.507812 288.964844 162.867188 Z M 211.441406 36.351562 C 209.964844 35.171875 208.667969 33.636719 207.015625 33.046875 C 205.953125 32.691406 204.359375 33.753906 203.003906 34.167969 C 203.535156 37.59375 204.066406 37.886719 206.957031 36.234375 C 207.488281 36.058594 208.019531 35.878906 208.550781 35.820312 Z M 105.0625 305.207031 C 105.714844 308.6875 109.902344 309.988281 112.675781 307.804688 L 112.085938 305.5 Z M 279.054688 235.777344 L 276.222656 235.777344 C 275.691406 236.839844 275.335938 238.082031 274.628906 238.964844 C 273.390625 240.5 271.914062 241.859375 270.558594 243.277344 C 275.988281 243.867188 275.988281 238.730469 279.054688 235.777344 Z M 219.40625 198.46875 C 218.640625 196.28125 218.226562 196.105469 216.457031 197.816406 C 216.867188 198.230469 217.636719 198.644531 217.695312 199.117188 C 217.8125 200.59375 217.8125 202.070312 217.753906 203.484375 L 218.578125 203.542969 C 220.820312 203.25 221.234375 202.835938 221.410156 200.652344 C 220.761719 199.941406 219.699219 199.351562 219.40625 198.46875 Z M 78.515625 296.054688 C 78.277344 295.347656 78.160156 294.164062 77.6875 294.046875 C 75.683594 293.339844 73.558594 292.925781 71.433594 292.453125 C 73.027344 296.230469 75.09375 297.292969 78.515625 296.054688 Z M 31.964844 249.121094 L 35.621094 256.265625 C 35.679688 255.082031 35.738281 253.84375 35.796875 252.664062 C 35.738281 251.542969 35.679688 250.476562 35.621094 249.355469 Z M 121.171875 41.488281 C 124.476562 43.734375 126.363281 41.371094 128.308594 39.246094 Z M 64.472656 288.320312 C 64.765625 289.148438 64.828125 290.503906 65.296875 290.683594 C 67.304688 291.390625 69.371094 291.980469 71.433594 292.453125 C 70.488281 291.746094 69.546875 291.035156 68.601562 290.328125 C 67.65625 289.621094 66.714844 289.027344 65.769531 288.320312 Z M 23.054688 204.902344 C 23.9375 206.671875 21.285156 210.570312 25.886719 209.449219 L 25.828125 205.730469 Z M 40.222656 114.636719 L 43.824219 113.394531 L 44.351562 114.222656 C 44.824219 113.277344 45.296875 112.390625 45.769531 111.507812 C 43.113281 111.152344 40.398438 110.621094 40.222656 114.636719 Z M 114.386719 42.964844 C 114.503906 43.496094 114.621094 44.085938 114.738281 44.617188 L 120.582031 43.378906 C 120.523438 42.90625 120.402344 42.433594 120.285156 41.902344 Z M 208.667969 39.835938 L 212.738281 39.601562 C 212.148438 38.125 211.792969 37.238281 211.382812 36.351562 L 208.492188 35.820312 C 208.550781 37.179688 208.609375 38.539062 208.667969 39.835938 Z M 54.324219 90.84375 L 54.441406 91.847656 L 57.921875 92.4375 L 59.222656 88.894531 Z M 202.945312 86.121094 L 210.792969 85.351562 Z M 287.492188 207.144531 L 284.777344 207.734375 L 284.660156 211.808594 C 287.492188 211.457031 287.019531 209.210938 287.492188 207.144531 Z M 285.605469 214.464844 L 284.421875 211.988281 L 280.46875 214.761719 Z M 37.804688 119.0625 L 42.996094 117.707031 L 40.105469 116.050781 Z M 247.078125 81.753906 L 241.472656 81.8125 C 243.300781 83.699219 245.128906 82.402344 247.078125 81.753906 Z M 266.3125 76.617188 L 268.433594 80.277344 C 269.671875 78.503906 269.144531 77.558594 266.3125 76.617188 Z M 24.589844 159.265625 L 25 160.210938 L 29.425781 159.503906 L 26.300781 157.910156 Z M 197.222656 184.476562 L 196.808594 187.488281 L 197.636719 187.957031 C 198.226562 186.777344 198.816406 185.597656 199.40625 184.417969 Z M 254.273438 76.496094 C 255.691406 77.441406 257.816406 77.089844 258.523438 75.671875 Z M 26.121094 156.847656 L 28.128906 153.066406 C 24.765625 152.949219 26.121094 155.253906 26.121094 156.847656 Z M 232.089844 83.167969 C 230.910156 80.925781 230.144531 82.460938 229.316406 83.464844 Z M 43.527344 269.902344 C 43.585938 269.191406 43.703125 268.484375 43.761719 267.777344 L 41.460938 268.425781 Z M 47.183594 209.859375 L 45.828125 207.734375 L 45.710938 207.855469 C 45.472656 208.5625 45.238281 209.328125 45.003906 210.097656 Z M 37.273438 256.972656 C 37.273438 256.027344 37.273438 255.082031 37.273438 254.078125 L 35.855469 252.664062 C 35.796875 253.902344 35.738281 255.082031 35.679688 256.265625 Z M 226.484375 84.171875 C 225.542969 83.285156 224.539062 81.160156 223.652344 84.230469 Z M 250.617188 81.574219 L 249.554688 80.511719 L 248.492188 82.046875 Z M 213.683594 81.101562 L 216.515625 79.921875 Z M 39.101562 265.828125 L 39.988281 267.007812 L 40.753906 265.589844 Z M 183.0625 308.925781 L 180.171875 309.335938 Z M 230.675781 79.746094 L 228.609375 78.917969 Z M 52.199219 209.921875 L 54.324219 209.921875 Z M 166.011719 310.222656 L 167.78125 309.75 Z M 256.222656 80.511719 L 257.753906 81.160156 Z M 232.5625 79.566406 C 233.917969 80.394531 234.449219 79.921875 234.332031 78.445312 Z M 207.25 222.023438 Z M 59.222656 88.894531 L 60.695312 88.304688 Z M 61.464844 92.082031 L 59.871094 92.082031 Z M 200.171875 86.121094 C 200.230469 85.589844 200.230469 85.058594 200.289062 84.527344 L 199.640625 84.410156 C 199.582031 85 199.523438 85.589844 199.464844 86.179688 Z M 230.734375 79.746094 L 231.382812 80.808594 L 232.148438 79.507812 Z M 267.785156 243.628906 L 266.25 243.808594 Z M 220.054688 79.6875 L 218.640625 79.6875 L 219.996094 80.453125 C 219.996094 80.21875 220.054688 79.921875 220.054688 79.6875 Z M 45.59375 204.726562 L 43.703125 204.3125 Z M 206.601562 214.820312 L 205.128906 214.9375 Z M 246.367188 77.027344 L 247.136719 78.03125 L 247.785156 76.96875 Z M 243.535156 77.324219 L 244.125 78.089844 L 244.953125 77.148438 Z M 38.6875 250.007812 L 37.214844 249.945312 Z M 220.410156 81.28125 C 220.527344 80.808594 220.644531 80.335938 220.761719 79.863281 L 220.054688 79.746094 C 220.054688 79.980469 219.996094 80.277344 219.996094 80.511719 Z M 34.382812 209.742188 C 34.5 209.390625 34.558594 208.976562 34.675781 208.621094 C 34.558594 209.035156 34.5 209.390625 34.382812 209.742188 Z M 40.460938 249.59375 L 39.691406 250.125 L 40.578125 250.476562 Z M 215.808594 197.875 L 216.160156 198.347656 L 216.457031 197.816406 C 216.21875 197.816406 215.984375 197.816406 215.808594 197.875 Z M 54.324219 249.828125 C 54.265625 249.710938 54.207031 249.59375 54.148438 249.476562 C 54.148438 249.535156 54.148438 249.59375 54.148438 249.652344 C 54.207031 249.710938 54.265625 249.769531 54.324219 249.828125 Z M 47.480469 204.785156 L 48.601562 204.960938 C 48.601562 204.84375 48.601562 204.726562 48.601562 204.605469 Z M 40.578125 256.675781 C 40.578125 256.5 40.578125 256.324219 40.578125 256.144531 L 40.460938 256.734375 Z M 229.023438 84.644531 L 228.847656 84.882812 Z M 241.234375 82.578125 C 241 82.578125 240.765625 82.636719 240.527344 82.636719 Z M 238.582031 83.050781 L 239.230469 82.519531 Z M 202.945312 81.988281 L 202.414062 82.519531 Z M 253.273438 81.160156 C 253.035156 81.28125 252.917969 81.457031 252.800781 81.632812 C 252.917969 81.457031 253.09375 81.339844 253.273438 81.160156 Z M 36.742188 205.199219 L 36.976562 205.847656 L 37.332031 205.433594 C 37.15625 205.257812 36.917969 205.199219 36.742188 205.199219 Z M 236.574219 78.859375 Z M 201.410156 35.054688 L 202.058594 35.410156 L 202.179688 34.878906 Z M 114.269531 124.199219 L 114.679688 124.257812 C 114.679688 124.199219 114.621094 124.140625 114.621094 124.023438 C 114.5625 123.964844 114.503906 124.023438 114.445312 124.023438 Z M 240.703125 184.359375 L 241.414062 185.65625 L 241.882812 185.300781 Z M 52.910156 184.359375 C 52.730469 184.59375 52.554688 184.828125 52.4375 185.125 C 52.4375 185.125 52.613281 185.242188 52.671875 185.359375 L 53.027344 184.476562 Z M 172.738281 156.195312 C 172.679688 156.257812 172.5 156.375 172.5 156.433594 C 172.558594 156.609375 172.617188 156.847656 172.738281 157.023438 L 173.148438 156.667969 Z M 37.921875 253.84375 C 37.746094 253.902344 37.628906 254.199219 37.449219 254.375 C 37.6875 254.433594 37.921875 254.609375 38.097656 254.550781 C 38.277344 254.492188 38.335938 254.257812 38.511719 254.078125 C 38.277344 253.960938 38.039062 253.785156 37.921875 253.84375 Z M 144.890625 287.140625 C 145.066406 287.375 145.359375 287.847656 145.421875 287.847656 C 145.773438 287.671875 146.070312 287.433594 146.363281 287.199219 L 145.65625 286.609375 Z M 98.160156 295.050781 L 97.984375 295.050781 L 98.042969 295.289062 Z M 156.15625 200.535156 C 156.15625 200.710938 156.21875 200.945312 156.335938 201.125 C 156.453125 201.003906 156.6875 200.886719 156.6875 200.769531 C 156.6875 200.59375 156.628906 200.355469 156.511719 200.179688 C 156.394531 200.296875 156.15625 200.414062 156.15625 200.535156 Z M 218.578125 203.542969 L 217.753906 203.484375 Z M 48.601562 204.960938 L 49.132812 205.199219 Z M 45.828125 207.796875 L 45.472656 207.675781 L 45.769531 207.914062 Z M 259.703125 78.5625 C 259.703125 78.5625 259.761719 78.742188 259.761719 78.800781 C 259.878906 78.800781 259.9375 78.742188 260.058594 78.683594 C 260.058594 78.683594 259.996094 78.503906 259.996094 78.445312 C 259.878906 78.503906 259.820312 78.503906 259.703125 78.5625 Z M 202.886719 49.339844 C 202.707031 49.519531 202.53125 49.695312 202.355469 49.871094 C 202.296875 49.929688 202.589844 50.167969 202.707031 50.285156 L 203.0625 49.8125 Z M 212.503906 47.804688 C 212.445312 47.804688 212.386719 47.925781 212.265625 47.984375 C 212.324219 48.042969 212.386719 48.160156 212.503906 48.160156 C 212.621094 48.160156 212.621094 48.042969 212.738281 47.984375 C 212.621094 47.925781 212.5625 47.746094 212.503906 47.804688 Z M 280.765625 196.046875 L 280.941406 196.046875 L 280.882812 195.8125 Z M 123.058594 309.929688 L 122.882812 309.929688 L 122.941406 310.164062 Z M 123.058594 309.929688 "/>
</g>
<path style=" stroke:none;fill-rule:nonzero;fill:rgb(51.368713%,64.309692%,45.098877%);fill-opacity:1;" d="M 138.085938 241.855469 C 133.777344 241.816406 129.417969 242.265625 125.070312 243.265625 C 115.316406 245.503906 103.6875 249.789062 95.390625 255.460938 C 88.855469 259.933594 82.027344 265.683594 77.246094 272.050781 C 66.511719 286.34375 58.996094 316.714844 73.667969 330.652344 C 87.621094 343.875 109.09375 339.941406 126.628906 339.941406 C 145.59375 339.941406 166.703125 342.085938 185.3125 337.796875 C 207.140625 332.796875 204.632812 302.066406 198.191406 285.628906 C 188.984375 260.796875 164.4375 242.113281 138.085938 241.855469 "/>
<g clip-path="url(#clip2)" clip-rule="nonzero">
<path style=" stroke:none;fill-rule:nonzero;fill:rgb(14.898682%,38.038635%,31.369019%);fill-opacity:1;" d="M 251.308594 170.160156 C 307.261719 194.027344 289.355469 329.875 281.523438 340.492188 C 273.6875 351.105469 196.832031 351.554688 166.894531 345.59375 C 145.425781 341.320312 175.753906 278.476562 160.421875 270.132812 C 145.089844 261.785156 127.527344 267.933594 123.769531 267.9375 C 102.710938 267.96875 145.105469 190.019531 166.894531 175.253906 C 188.683594 160.488281 218.101562 155.996094 251.308594 170.160156 "/>
</g>
<path style=" stroke:none;fill-rule:nonzero;fill:rgb(96.859741%,56.079102%,52.938843%);fill-opacity:1;" d="M 165.640625 177.070312 L 149.042969 152.910156 C 146.925781 148.445312 141.632812 149.351562 140.925781 153.410156 C 140.683594 155.105469 141.40625 156.632812 140.53125 158.105469 C 139.65625 159.574219 138.652344 159.074219 136.917969 160.800781 C 135.15625 163.234375 139.441406 168.851562 140.949219 171.371094 C 143.582031 176.246094 143.503906 181.34375 140.632812 186.839844 C 137.761719 192.335938 111.609375 219.757812 106.6875 226.71875 C 90.011719 257.917969 112.40625 272.796875 124.140625 269.738281 C 135.875 266.679688 159.597656 201.726562 161.105469 195.519531 C 162.617188 189.316406 169 185.457031 165.640625 177.070312 "/>
<path style=" stroke:none;fill-rule:nonzero;fill:rgb(98.429871%,78.42865%,70.199585%);fill-opacity:1;" d="M 154.929688 191.054688 C 152.5625 183.578125 148.460938 177.949219 143.589844 171.914062 C 141.4375 169.246094 138.976562 166.890625 136.914062 164.242188 C 137.8125 166.777344 139.964844 169.730469 140.949219 171.371094 C 143.578125 176.246094 143.503906 181.34375 140.632812 186.839844 C 137.761719 192.335938 111.605469 219.757812 106.6875 226.71875 C 90.011719 257.917969 112.40625 272.796875 124.140625 269.738281 C 133.296875 267.351562 149.746094 227.292969 157.253906 206.851562 C 157.238281 201.523438 156.566406 196.222656 154.929688 191.054688 "/>
<path style=" stroke:none;fill-rule:nonzero;fill:rgb(14.898682%,38.038635%,31.369019%);fill-opacity:1;" d="M 160.003906 207.261719 C 160.667969 203.117188 163.457031 201.746094 161.972656 198.460938 C 159.363281 192.6875 136.234375 191.757812 134.113281 192.503906 C 131.992188 193.246094 130.453125 197.902344 127.886719 199.765625 C 125.320312 201.628906 122.246094 201.070312 117.246094 204.925781 C 113.527344 207.789062 112.84375 213.835938 112.738281 216.75 C 109.28125 218.417969 106.820312 219.882812 106.019531 220.8125 C 101.542969 226.027344 96.695312 232.359375 95.203125 239.808594 C 92.964844 251.726562 100.425781 271.097656 114.226562 271.839844 C 127.953125 272.574219 139.378906 263.359375 146.117188 252.84375 C 166.605469 220.886719 159.339844 211.40625 160.003906 207.261719 "/>
<path style=" stroke:none;fill-rule:nonzero;fill:rgb(51.368713%,64.309692%,45.098877%);fill-opacity:1;" d="M 156.679688 233.761719 C 156.609375 233.761719 156.539062 233.746094 156.46875 233.71875 C 156.183594 233.601562 156.046875 233.277344 156.164062 232.992188 C 161.277344 220.574219 160.269531 214.144531 159.667969 210.304688 C 159.46875 209.03125 159.3125 208.027344 159.449219 207.171875 C 159.730469 205.425781 160.359375 204.167969 160.917969 203.058594 C 161.363281 202.164062 161.746094 201.394531 161.828125 200.585938 C 161.855469 200.277344 162.144531 200.054688 162.4375 200.082031 C 162.746094 200.113281 162.96875 200.386719 162.941406 200.691406 C 162.84375 201.710938 162.394531 202.605469 161.917969 203.554688 C 161.398438 204.59375 160.808594 205.773438 160.554688 207.351562 C 160.445312 208.03125 160.589844 208.957031 160.773438 210.132812 C 161.394531 214.085938 162.429688 220.710938 157.199219 233.414062 C 157.109375 233.628906 156.902344 233.761719 156.679688 233.761719 "/>
<path style=" stroke:none;fill-rule:nonzero;fill:rgb(96.859741%,56.079102%,52.938843%);fill-opacity:1;" d="M 183.765625 184.015625 C 185.898438 189.832031 193.015625 200.8125 195.480469 200.511719 C 197.945312 200.207031 209.117188 184.496094 207.113281 176.429688 C 205.105469 168.363281 204.253906 164.328125 201.523438 158.40625 C 198.976562 152.890625 190.511719 150.480469 184.34375 152.621094 C 177.417969 155.023438 176.433594 161.09375 178.011719 166.589844 C 178.332031 167.707031 181.636719 178.199219 183.765625 184.015625 "/>
<g clip-path="url(#clip3)" clip-rule="nonzero">
<path style=" stroke:none;fill-rule:nonzero;fill:rgb(98.429871%,78.42865%,70.199585%);fill-opacity:1;" d="M 145.503906 137.78125 C 147.84375 127.433594 161.027344 115.730469 184.261719 115.585938 C 207.5 115.441406 220.148438 139.585938 221.097656 150.234375 C 222.046875 160.882812 220.351562 176.070312 201.585938 187.238281 C 178.390625 201.039062 165.386719 192.273438 155.109375 175.367188 C 143.546875 156.347656 143.390625 147.121094 145.503906 137.78125 "/>
</g>
<path style=" stroke:none;fill-rule:nonzero;fill:rgb(96.859741%,56.079102%,52.938843%);fill-opacity:1;" d="M 185.210938 173.855469 C 182.882812 176.328125 180.234375 178.171875 176.761719 178.40625 C 175.429688 178.492188 175.417969 176.429688 176.742188 176.339844 C 179.644531 176.148438 181.792969 174.46875 183.71875 172.425781 C 184.636719 171.453125 186.125 172.886719 185.210938 173.855469 "/>
<path style=" stroke:none;fill-rule:nonzero;fill:rgb(47.839355%,29.798889%,31.759644%);fill-opacity:1;" d="M 157.332031 157.714844 C 157.648438 155.015625 160.179688 153.085938 162.769531 153.585938 C 163.988281 153.820312 163.609375 155.730469 162.40625 155.5 C 160.8125 155.191406 159.371094 156.78125 159.191406 158.308594 C 159.042969 159.570312 157.1875 158.964844 157.332031 157.714844 "/>
<path style=" stroke:none;fill-rule:nonzero;fill:rgb(47.839355%,29.798889%,31.759644%);fill-opacity:1;" d="M 161.273438 163.761719 C 162.390625 161.28125 165.390625 160.207031 167.707031 161.46875 C 168.796875 162.058594 167.855469 163.769531 166.78125 163.183594 C 165.351562 162.40625 163.496094 163.488281 162.863281 164.886719 C 162.34375 166.046875 160.753906 164.910156 161.273438 163.761719 "/>
<path style=" stroke:none;fill-rule:nonzero;fill:rgb(96.859741%,56.079102%,52.938843%);fill-opacity:1;" d="M 194.296875 149.726562 C 202.640625 144.769531 210.339844 157.683594 202 162.644531 C 193.660156 167.601562 185.957031 154.683594 194.296875 149.726562 "/>
<path style=" stroke:none;fill-rule:nonzero;fill:rgb(96.859741%,56.079102%,52.938843%);fill-opacity:1;" d="M 156.570312 170.53125 C 164.910156 165.570312 172.613281 178.484375 164.269531 183.445312 C 155.929688 188.40625 148.230469 175.488281 156.570312 170.53125 "/>
<path style=" stroke:none;fill-rule:nonzero;fill:rgb(51.368713%,64.309692%,45.098877%);fill-opacity:1;" d="M 213.890625 223.316406 C 211.605469 221.863281 171.824219 239.042969 168.496094 246.398438 C 166.828125 237.605469 121.574219 218.425781 117.835938 221.546875 C 114.101562 224.671875 129.179688 282.726562 131.722656 283.894531 C 149.378906 287.472656 165.347656 301.039062 165.347656 301.039062 C 167.117188 303.355469 170.855469 302.722656 171.648438 301.039062 C 171.648438 301.039062 187.617188 287.472656 205.273438 283.894531 C 207.8125 282.726562 215.910156 243.363281 216.539062 228.414062 C 216.679688 225.089844 214.371094 223.621094 213.890625 223.316406 "/>
<path style=" stroke:none;fill-rule:nonzero;fill:rgb(96.859741%,56.079102%,52.938843%);fill-opacity:1;" d="M 220.519531 220.984375 C 217.898438 219.320312 177.761719 241.160156 173.894531 244.34375 C 170.027344 247.53125 167.179688 249.109375 163.125 244.34375 C 159.070312 239.582031 119.121094 219.320312 116.5 220.984375 C 113.492188 222.894531 122.820312 288.757812 126.375 290.394531 C 146.605469 294.488281 164.898438 310.03125 164.898438 310.03125 C 166.925781 312.6875 171.210938 311.960938 172.121094 310.03125 C 172.121094 310.03125 190.414062 294.488281 210.644531 290.394531 C 214.199219 288.757812 223.527344 222.894531 220.519531 220.984375 "/>
<path style=" stroke:none;fill-rule:nonzero;fill:rgb(51.368713%,64.309692%,45.098877%);fill-opacity:1;" d="M 167.746094 249.980469 C 167.589844 254.886719 167.925781 259.753906 168.789062 264.582031 C 169.28125 267.320312 169.636719 269.832031 169.457031 272.617188 C 169.28125 275.3125 168.738281 277.984375 168.394531 280.667969 C 167.714844 285.992188 168.34375 291.414062 168.527344 296.753906 C 168.65625 300.585938 167.40625 304.675781 168.375 308.421875 C 168.554688 309.121094 169.632812 308.824219 169.453125 308.125 C 168.457031 304.269531 169.742188 299.648438 169.609375 295.667969 C 169.414062 289.996094 168.96875 284.453125 169.765625 278.800781 C 170.355469 274.609375 170.996094 270.542969 170.300781 266.316406 C 169.398438 260.828125 168.6875 255.566406 168.863281 249.984375 C 168.886719 249.261719 167.769531 249.265625 167.746094 249.980469 "/>
<path style=" stroke:none;fill-rule:nonzero;fill:rgb(98.429871%,78.42865%,70.199585%);fill-opacity:1;" d="M 304.714844 278.257812 C 306.015625 270.894531 301.988281 260.53125 300.082031 254.195312 C 295.292969 238.285156 288.78125 222.464844 280.679688 207.941406 C 277.285156 201.859375 273.328125 195.285156 267.925781 190.722656 C 250.769531 176.242188 238.085938 191.425781 240.699219 208.5625 C 242.292969 219.03125 250.855469 238.847656 258.292969 254.515625 C 232.3125 255.605469 202.359375 261.042969 200.519531 262.300781 C 197.597656 264.296875 186.660156 277.894531 189.394531 280.160156 C 190.597656 281.160156 193.058594 279.359375 195.433594 277.03125 C 193.613281 280.914062 191.886719 285.171875 192.335938 286.277344 C 192.890625 287.632812 194.101562 287.492188 195.105469 286.878906 C 194.675781 288.078125 194.625 289.085938 195.191406 289.726562 C 196.945312 291.714844 202.640625 285.550781 206.164062 281.464844 C 204.445312 284.589844 203.175781 287.695312 203.707031 288.804688 C 206.273438 294.136719 213.867188 280.25 215.398438 280.8125 C 216.933594 281.375 227.945312 282.371094 232.128906 280.609375 C 236.3125 278.851562 279.601562 287.480469 293.394531 286.878906 C 300.777344 286.554688 303.871094 283.039062 304.714844 278.257812 "/>
<path style=" stroke:none;fill-rule:nonzero;fill:rgb(96.859741%,56.079102%,52.938843%);fill-opacity:1;" d="M 207.152344 280.3125 C 208.902344 277.511719 210.996094 276.03125 214.363281 275.980469 C 215.085938 275.972656 215.085938 274.851562 214.363281 274.863281 C 210.597656 274.921875 208.148438 276.609375 206.1875 279.75 C 205.804688 280.363281 206.773438 280.925781 207.152344 280.3125 "/>
<path style=" stroke:none;fill-rule:nonzero;fill:rgb(96.859741%,56.079102%,52.938843%);fill-opacity:1;" d="M 196.039062 285.757812 C 196.242188 284.199219 197.292969 282.921875 198.199219 281.710938 C 199.3125 280.226562 200.207031 278.570312 201.261719 277.039062 C 203.363281 273.992188 206.738281 272.121094 210.316406 271.351562 C 211.019531 271.199219 210.722656 270.125 210.019531 270.273438 C 206.5625 271.015625 203.011719 272.808594 200.871094 275.699219 C 199.441406 277.632812 198.285156 279.742188 196.847656 281.664062 C 195.902344 282.929688 195.125 284.183594 194.921875 285.757812 C 194.828125 286.472656 195.949219 286.464844 196.039062 285.757812 "/>
<path style=" stroke:none;fill-rule:nonzero;fill:rgb(96.859741%,56.079102%,52.938843%);fill-opacity:1;" d="M 196.441406 275.992188 C 197.15625 273.804688 198.824219 272.066406 200.292969 270.351562 C 201.832031 268.554688 203.800781 267.171875 206.121094 266.601562 C 206.820312 266.433594 206.523438 265.351562 205.824219 265.523438 C 203.34375 266.132812 201.140625 267.621094 199.503906 269.5625 C 197.914062 271.441406 196.140625 273.304688 195.363281 275.691406 C 195.136719 276.378906 196.214844 276.671875 196.441406 275.992188 "/>
<path style=" stroke:none;fill-rule:nonzero;fill:rgb(47.839355%,29.798889%,31.759644%);fill-opacity:1;" d="M 184.824219 142.011719 C 182.261719 141.105469 179.40625 142.523438 178.71875 145.066406 C 178.390625 146.257812 180.277344 146.765625 180.597656 145.582031 C 181.023438 144.015625 183.089844 143.425781 184.539062 143.941406 C 185.738281 144.367188 186.015625 142.433594 184.824219 142.011719 "/>
<path style=" stroke:none;fill-rule:nonzero;fill:rgb(47.839355%,29.798889%,31.759644%);fill-opacity:1;" d="M 188.523438 148.210938 C 185.804688 148.121094 183.515625 150.335938 183.625 152.964844 C 183.675781 154.203125 185.625 154.117188 185.574219 152.894531 C 185.507812 151.269531 187.296875 150.082031 188.835938 150.132812 C 190.105469 150.175781 189.785156 148.253906 188.523438 148.210938 "/>
<path style=" stroke:none;fill-rule:nonzero;fill:rgb(51.368713%,64.309692%,45.098877%);fill-opacity:1;" d="M 175.234375 198.238281 C 176.269531 201.933594 178.144531 205.386719 180.46875 208.421875 C 181.851562 210.226562 184.863281 213.84375 187.527344 212.785156 C 188.613281 212.351562 189.160156 210.785156 189.652344 209.859375 C 191.152344 207.054688 193.6875 204.117188 197.046875 203.96875 C 199.664062 203.855469 202.25 205.839844 204.332031 207.195312 C 205.480469 207.945312 206.804688 208.941406 208.273438 208.738281 C 211.121094 208.339844 212.550781 205.308594 213.65625 203 C 215.605469 198.9375 217.449219 194.984375 218.15625 190.492188 C 218.605469 187.640625 218.742188 184.691406 218.894531 181.8125 C 219.019531 179.5625 219.609375 175.78125 218.195312 173.785156 C 217.777344 173.199219 216.808594 173.757812 217.226562 174.347656 C 218.492188 176.136719 217.875 179.765625 217.777344 181.8125 C 217.664062 184.246094 217.421875 186.667969 217.199219 189.09375 C 216.789062 193.542969 215.023438 197.355469 213.1875 201.355469 C 211.960938 204.03125 210.03125 209.066406 206.269531 207.105469 C 203.136719 205.472656 200.726562 203.148438 197.046875 202.851562 C 193.910156 202.597656 191.691406 205.167969 189.996094 207.40625 C 189.035156 208.675781 187.667969 212.671875 185.382812 211.46875 C 183.597656 210.527344 182.171875 208.820312 180.96875 207.246094 C 178.875 204.515625 177.242188 201.25 176.3125 197.941406 C 176.121094 197.25 175.039062 197.542969 175.234375 198.238281 "/>
<path style=" stroke:none;fill-rule:nonzero;fill:rgb(14.898682%,38.038635%,31.369019%);fill-opacity:1;" d="M 268.199219 182.9375 C 251.042969 168.457031 231.25 183.382812 233.859375 200.515625 C 235.457031 210.988281 243.195312 241.855469 253.546875 251.726562 C 248.03125 251.960938 239.890625 251.496094 237.933594 253.871094 C 233.730469 253.683594 227.75 253.460938 226.410156 255.917969 C 223.609375 260.945312 231.164062 271.839844 234.242188 275.472656 C 238.441406 280.5 244.3125 285.25 251.027344 285.808594 C 253.847656 286.027344 256.828125 285.902344 259.71875 285.578125 C 277.589844 292.542969 305.722656 296.90625 310.800781 280.03125 C 315.914062 263.066406 273.605469 187.5 268.199219 182.9375 "/>
<path style=" stroke:none;fill-rule:nonzero;fill:rgb(51.368713%,64.309692%,45.098877%);fill-opacity:1;" d="M 240.15625 208.414062 C 237.152344 216.3125 240.003906 225.710938 242.816406 233.242188 C 244.351562 237.351562 246.230469 241.339844 248.363281 245.171875 C 249.707031 247.582031 251.167969 250.164062 253.148438 252.121094 C 253.28125 251.804688 253.414062 251.484375 253.546875 251.167969 C 249.1875 251.328125 244.710938 251.039062 240.421875 251.992188 C 238.828125 252.34375 237.933594 253.308594 236.253906 253.246094 C 233.90625 253.15625 231.5625 253.191406 229.25 253.632812 C 228.542969 253.769531 228.84375 254.84375 229.550781 254.710938 C 232.046875 254.234375 234.582031 254.296875 237.109375 254.394531 C 238.566406 254.449219 239.289062 253.464844 240.71875 253.066406 C 244.773438 251.949219 249.378906 252.4375 253.546875 252.289062 C 254.023438 252.269531 254.296875 251.6875 253.941406 251.332031 C 249.324219 246.765625 246.464844 239.503906 244.148438 233.601562 C 241.210938 226.125 238.238281 216.59375 241.234375 208.710938 C 241.492188 208.035156 240.410156 207.746094 240.15625 208.414062 "/>
<path style=" stroke:none;fill-rule:nonzero;fill:rgb(51.368713%,64.309692%,45.098877%);fill-opacity:1;" d="M 240.765625 282.359375 C 243.601562 284.296875 246.578125 285.679688 249.980469 286.25 C 254.097656 286.9375 258.210938 285.652344 262.175781 287.085938 C 269.984375 289.910156 278.238281 291.753906 286.539062 292.238281 C 287.261719 292.28125 287.257812 291.160156 286.539062 291.121094 C 278.617188 290.65625 270.863281 288.867188 263.367188 286.320312 C 261.808594 285.792969 260.410156 284.949219 258.753906 285.121094 C 256.816406 285.320312 254.875 285.371094 252.929688 285.34375 C 248.613281 285.289062 244.859375 283.800781 241.332031 281.394531 C 240.734375 280.988281 240.175781 281.957031 240.765625 282.359375 "/>
<path style=" stroke:none;fill-rule:nonzero;fill:rgb(51.368713%,64.309692%,45.098877%);fill-opacity:1;" d="M 130.824219 202.1875 C 138.960938 202.191406 147.640625 202.164062 154.789062 206.582031 C 155.40625 206.960938 155.964844 205.992188 155.351562 205.617188 C 148.035156 201.097656 139.152344 201.074219 130.824219 201.070312 C 130.105469 201.070312 130.105469 202.1875 130.824219 202.1875 "/>
<path style=" stroke:none;fill-rule:nonzero;fill:rgb(51.368713%,64.309692%,45.098877%);fill-opacity:1;" d="M 238.441406 259.921875 C 238.105469 267.925781 245.535156 275.835938 252.144531 279.402344 C 252.78125 279.742188 253.34375 278.78125 252.710938 278.4375 C 246.441406 275.054688 239.242188 267.519531 239.558594 259.921875 C 239.585938 259.203125 238.46875 259.203125 238.441406 259.921875 "/>
<path style=" stroke:none;fill-rule:nonzero;fill:rgb(51.368713%,64.309692%,45.098877%);fill-opacity:1;" d="M 258.953125 250.425781 C 264.074219 250.105469 269.078125 249.195312 274.222656 249.699219 C 279.390625 250.199219 284.285156 252.234375 288.511719 255.191406 C 289.105469 255.605469 289.664062 254.632812 289.078125 254.226562 C 284.910156 251.308594 280.3125 249.496094 275.285156 248.714844 C 269.820312 247.867188 264.410156 248.96875 258.953125 249.304688 C 258.238281 249.351562 258.234375 250.46875 258.953125 250.425781 "/>
<path style=" stroke:none;fill-rule:nonzero;fill:rgb(14.898682%,38.038635%,31.369019%);fill-opacity:1;" d="M 108.632812 267.929688 C 96.648438 269.339844 84.824219 279.785156 85.691406 292.515625 C 85.738281 293.230469 86.859375 293.234375 86.8125 292.515625 C 85.988281 280.441406 97.214844 270.390625 108.632812 269.046875 C 109.339844 268.964844 109.347656 267.847656 108.632812 267.929688 "/>
<path style=" stroke:none;fill-rule:nonzero;fill:rgb(14.898682%,38.038635%,31.369019%);fill-opacity:1;" d="M 101.523438 287.648438 C 93.285156 294.394531 90.75 307.304688 95.277344 316.820312 C 95.589844 317.472656 96.554688 316.90625 96.246094 316.257812 C 91.917969 307.164062 94.484375 294.851562 102.3125 288.441406 C 102.871094 287.984375 102.074219 287.199219 101.523438 287.648438 "/>
<path style=" stroke:none;fill-rule:nonzero;fill:rgb(96.859741%,56.079102%,52.938843%);fill-opacity:1;" d="M 174.957031 163.6875 C 174.613281 164.660156 174.125 165.578125 173.753906 166.535156 C 173.589844 166.957031 173.425781 167.414062 173.398438 167.867188 C 173.386719 168.089844 173.480469 168.097656 173.375 168.027344 C 173.578125 168.167969 173.9375 168.101562 174.160156 168.089844 C 175.492188 168.035156 175.507812 170.097656 174.179688 170.15625 C 172.59375 170.222656 171.238281 169.4375 171.339844 167.707031 C 171.433594 166.089844 172.425781 164.671875 172.953125 163.179688 C 173.394531 161.9375 175.402344 162.433594 174.957031 163.6875 "/>
<path style=" stroke:none;fill-rule:nonzero;fill:rgb(98.429871%,78.42865%,70.199585%);fill-opacity:1;" d="M 212.523438 136.515625 C 211.785156 128.648438 219.832031 122.617188 224.921875 130.804688 C 228.914062 137.152344 225.332031 145.097656 218.398438 147.765625 "/>
<path style=" stroke:none;fill-rule:nonzero;fill:rgb(96.859741%,56.079102%,52.938843%);fill-opacity:1;" d="M 221.992188 134.210938 C 221.242188 133.113281 220.113281 132.546875 218.785156 132.878906 C 217.679688 133.160156 216.863281 134.53125 217.195312 135.640625 C 217.492188 136.625 218.441406 137.347656 219.15625 138.035156 C 219.59375 138.457031 220.027344 138.890625 220.332031 139.421875 C 220.824219 140.289062 218.980469 140.546875 218.488281 140.648438 C 217.78125 140.792969 218.082031 141.871094 218.785156 141.726562 C 220.679688 141.332031 222.464844 140.195312 220.886719 138.253906 C 220.210938 137.417969 219.363281 136.742188 218.644531 135.945312 C 217.285156 134.425781 219.882812 133.089844 221.023438 134.777344 C 221.429688 135.371094 222.398438 134.8125 221.992188 134.210938 "/>
<path style=" stroke:none;fill-rule:nonzero;fill:rgb(51.368713%,64.309692%,45.098877%);fill-opacity:1;" d="M 208.128906 305.035156 C 211.367188 305.683594 210.363281 310.695312 207.125 310.050781 C 203.886719 309.402344 204.890625 304.390625 208.128906 305.035156 "/>
<path style=" stroke:none;fill-rule:nonzero;fill:rgb(51.368713%,64.309692%,45.098877%);fill-opacity:1;" d="M 202.605469 213.03125 C 205.84375 213.675781 204.839844 218.691406 201.601562 218.042969 C 198.363281 217.398438 199.367188 212.386719 202.605469 213.03125 "/>
<path style=" stroke:none;fill-rule:nonzero;fill:rgb(51.368713%,64.309692%,45.098877%);fill-opacity:1;" d="M 205.089844 331.007812 C 208.328125 331.652344 207.324219 336.664062 204.089844 336.019531 C 200.851562 335.371094 201.851562 330.359375 205.089844 331.007812 "/>
<path style=" stroke:none;fill-rule:nonzero;fill:rgb(51.368713%,64.309692%,45.098877%);fill-opacity:1;" d="M 195.027344 203.910156 C 195.992188 211.128906 196.792969 218.203125 195.046875 225.375 C 194.894531 225.992188 195.84375 226.25 195.992188 225.636719 C 197.765625 218.375 196.988281 211.21875 196.011719 203.910156 C 195.929688 203.292969 194.945312 203.285156 195.027344 203.910156 "/>
<path style=" stroke:none;fill-rule:nonzero;fill:rgb(51.368713%,64.309692%,45.098877%);fill-opacity:1;" d="M 201.4375 298.5 C 200.316406 302.503906 199.8125 306.628906 199.246094 310.734375 C 198.714844 314.613281 197.867188 318.359375 196.984375 322.167969 C 196.269531 325.230469 195.800781 328.367188 195.613281 331.507812 C 195.445312 334.316406 195.5 337.328125 196.519531 339.984375 C 196.742188 340.570312 197.695312 340.316406 197.46875 339.726562 C 196.429688 337.015625 196.449219 334 196.617188 331.144531 C 196.808594 327.996094 197.347656 324.867188 198.078125 321.804688 C 198.972656 318.058594 199.734375 314.351562 200.257812 310.53125 C 200.800781 306.578125 201.304688 302.613281 202.382812 298.761719 C 202.554688 298.148438 201.605469 297.890625 201.4375 298.5 "/>
</g>
</svg>
