<?xml version="1.0" encoding="UTF-8"?>
<svg xmlns="http://www.w3.org/2000/svg" xmlns:xlink="http://www.w3.org/1999/xlink" width="375pt" height="374.999991pt" viewBox="0 0 375 374.999991" version="1.2">
<defs>
<clipPath id="clip1">
  <path d="M 170 131 L 370 131 L 370 375 L 170 375 Z M 170 131 "/>
</clipPath>
<clipPath id="clip2">
  <path d="M 317.929688 110.863281 L 376.859375 399.664062 L 212.988281 433.101562 L 154.054688 144.304688 Z M 317.929688 110.863281 "/>
</clipPath>
<clipPath id="clip3">
  <path d="M 317.929688 110.863281 L 376.859375 399.664062 L 212.988281 433.101562 L 154.054688 144.304688 Z M 317.929688 110.863281 "/>
</clipPath>
<clipPath id="clip4">
  <path d="M 318.035156 111.375 L 376.859375 399.671875 L 210.652344 433.589844 L 151.824219 145.292969 Z M 318.035156 111.375 "/>
</clipPath>
<clipPath id="clip5">
  <path d="M 318.035156 111.375 L 376.769531 399.226562 L 212.84375 432.675781 L 154.105469 144.824219 Z M 318.035156 111.375 "/>
</clipPath>
<clipPath id="clip6">
  <path d="M 0 182 L 53 182 L 53 332 L 0 332 Z M 0 182 "/>
</clipPath>
<clipPath id="clip7">
  <path d="M 63.628906 191.945312 L 3.273438 337.425781 L -52.144531 314.433594 L 8.207031 168.957031 Z M 63.628906 191.945312 "/>
</clipPath>
<clipPath id="clip8">
  <path d="M 63.628906 191.945312 L 3.273438 337.425781 L -52.144531 314.433594 L 8.207031 168.957031 Z M 63.628906 191.945312 "/>
</clipPath>
<clipPath id="clip9">
  <path d="M 63.589844 192.035156 L 2.828125 338.503906 L -54.101562 314.886719 L 6.664062 168.417969 Z M 63.589844 192.035156 "/>
</clipPath>
<clipPath id="clip10">
  <path d="M 63.589844 192.035156 L 3.324219 337.304688 L -52.0625 314.328125 L 8.207031 169.058594 Z M 63.589844 192.035156 "/>
</clipPath>
<clipPath id="clip11">
  <path d="M 0 205.496094 L 180.117188 205.496094 L 180.117188 375 L 0 375 Z M 0 205.496094 "/>
</clipPath>
<clipPath id="clip12">
  <path d="M 147 363 L 159 363 L 159 368 L 147 368 Z M 147 363 "/>
</clipPath>
<clipPath id="clip13">
  <path d="M -47.191406 327.523438 L 83.007812 187.433594 L 265.398438 356.949219 L 135.199219 497.035156 Z M -47.191406 327.523438 "/>
</clipPath>
<clipPath id="clip14">
  <path d="M -47.191406 327.523438 L 83.007812 187.433594 L 265.398438 356.949219 L 135.199219 497.035156 Z M -47.191406 327.523438 "/>
</clipPath>
<clipPath id="clip15">
  <path d="M -47.191406 327.523438 L 83.074219 187.367188 L 265.410156 356.832031 L 135.148438 496.988281 Z M -47.191406 327.523438 "/>
</clipPath>
<clipPath id="clip16">
  <path d="M 209 346 L 221 346 L 221 351 L 209 351 Z M 209 346 "/>
</clipPath>
<clipPath id="clip17">
  <path d="M -47.191406 327.523438 L 83.007812 187.433594 L 265.398438 356.949219 L 135.199219 497.035156 Z M -47.191406 327.523438 "/>
</clipPath>
<clipPath id="clip18">
  <path d="M -47.191406 327.523438 L 83.007812 187.433594 L 265.398438 356.949219 L 135.199219 497.035156 Z M -47.191406 327.523438 "/>
</clipPath>
<clipPath id="clip19">
  <path d="M -47.191406 327.523438 L 83.074219 187.367188 L 265.410156 356.832031 L 135.148438 496.988281 Z M -47.191406 327.523438 "/>
</clipPath>
<clipPath id="clip20">
  <path d="M 46 238 L 58 238 L 58 243 L 46 243 Z M 46 238 "/>
</clipPath>
<clipPath id="clip21">
  <path d="M -47.191406 327.523438 L 83.007812 187.433594 L 265.398438 356.949219 L 135.199219 497.035156 Z M -47.191406 327.523438 "/>
</clipPath>
<clipPath id="clip22">
  <path d="M -47.191406 327.523438 L 83.007812 187.433594 L 265.398438 356.949219 L 135.199219 497.035156 Z M -47.191406 327.523438 "/>
</clipPath>
<clipPath id="clip23">
  <path d="M -47.191406 327.523438 L 83.074219 187.367188 L 265.410156 356.832031 L 135.148438 496.988281 Z M -47.191406 327.523438 "/>
</clipPath>
<clipPath id="clip24">
  <path d="M 222 326 L 234 326 L 234 331 L 222 331 Z M 222 326 "/>
</clipPath>
<clipPath id="clip25">
  <path d="M -47.191406 327.523438 L 83.007812 187.433594 L 265.398438 356.949219 L 135.199219 497.035156 Z M -47.191406 327.523438 "/>
</clipPath>
<clipPath id="clip26">
  <path d="M -47.191406 327.523438 L 83.007812 187.433594 L 265.398438 356.949219 L 135.199219 497.035156 Z M -47.191406 327.523438 "/>
</clipPath>
<clipPath id="clip27">
  <path d="M -47.191406 327.523438 L 83.074219 187.367188 L 265.410156 356.832031 L 135.148438 496.988281 Z M -47.191406 327.523438 "/>
</clipPath>
<clipPath id="clip28">
  <path d="M 221.40625 328.539062 L 228.007812 321.433594 L 235.101562 328.027344 L 228.5 335.128906 Z M 221.40625 328.539062 "/>
</clipPath>
<clipPath id="clip29">
  <path d="M 221.40625 328.539062 L 227.511719 321.96875 L 234.605469 328.5625 L 228.5 335.128906 Z M 221.40625 328.539062 "/>
</clipPath>
<clipPath id="clip30">
  <path d="M 108 259 L 120 259 L 120 264 L 108 264 Z M 108 259 "/>
</clipPath>
<clipPath id="clip31">
  <path d="M -47.191406 327.523438 L 83.007812 187.433594 L 265.398438 356.949219 L 135.199219 497.035156 Z M -47.191406 327.523438 "/>
</clipPath>
<clipPath id="clip32">
  <path d="M -47.191406 327.523438 L 83.007812 187.433594 L 265.398438 356.949219 L 135.199219 497.035156 Z M -47.191406 327.523438 "/>
</clipPath>
<clipPath id="clip33">
  <path d="M -47.191406 327.523438 L 83.074219 187.367188 L 265.410156 356.832031 L 135.148438 496.988281 Z M -47.191406 327.523438 "/>
</clipPath>
<clipPath id="clip34">
  <path d="M 25 252 L 37 252 L 37 257 L 25 257 Z M 25 252 "/>
</clipPath>
<clipPath id="clip35">
  <path d="M -47.191406 327.523438 L 83.007812 187.433594 L 265.398438 356.949219 L 135.199219 497.035156 Z M -47.191406 327.523438 "/>
</clipPath>
<clipPath id="clip36">
  <path d="M -47.191406 327.523438 L 83.007812 187.433594 L 265.398438 356.949219 L 135.199219 497.035156 Z M -47.191406 327.523438 "/>
</clipPath>
<clipPath id="clip37">
  <path d="M -47.191406 327.523438 L 83.074219 187.367188 L 265.410156 356.832031 L 135.148438 496.988281 Z M -47.191406 327.523438 "/>
</clipPath>
<clipPath id="clip38">
  <path d="M 98 278 L 110 278 L 110 283 L 98 283 Z M 98 278 "/>
</clipPath>
<clipPath id="clip39">
  <path d="M -47.191406 327.523438 L 83.007812 187.433594 L 265.398438 356.949219 L 135.199219 497.035156 Z M -47.191406 327.523438 "/>
</clipPath>
<clipPath id="clip40">
  <path d="M -47.191406 327.523438 L 83.007812 187.433594 L 265.398438 356.949219 L 135.199219 497.035156 Z M -47.191406 327.523438 "/>
</clipPath>
<clipPath id="clip41">
  <path d="M -47.191406 327.523438 L 83.074219 187.367188 L 265.410156 356.832031 L 135.148438 496.988281 Z M -47.191406 327.523438 "/>
</clipPath>
<clipPath id="clip42">
  <path d="M 71 224 L 83 224 L 83 229 L 71 229 Z M 71 224 "/>
</clipPath>
<clipPath id="clip43">
  <path d="M -47.191406 327.523438 L 83.007812 187.433594 L 265.398438 356.949219 L 135.199219 497.035156 Z M -47.191406 327.523438 "/>
</clipPath>
<clipPath id="clip44">
  <path d="M -47.191406 327.523438 L 83.007812 187.433594 L 265.398438 356.949219 L 135.199219 497.035156 Z M -47.191406 327.523438 "/>
</clipPath>
<clipPath id="clip45">
  <path d="M -47.191406 327.523438 L 83.074219 187.367188 L 265.410156 356.832031 L 135.148438 496.988281 Z M -47.191406 327.523438 "/>
</clipPath>
<clipPath id="clip46">
  <path d="M 67 243 L 79 243 L 79 247 L 67 247 Z M 67 243 "/>
</clipPath>
<clipPath id="clip47">
  <path d="M -47.191406 327.523438 L 83.007812 187.433594 L 265.398438 356.949219 L 135.199219 497.035156 Z M -47.191406 327.523438 "/>
</clipPath>
<clipPath id="clip48">
  <path d="M -47.191406 327.523438 L 83.007812 187.433594 L 265.398438 356.949219 L 135.199219 497.035156 Z M -47.191406 327.523438 "/>
</clipPath>
<clipPath id="clip49">
  <path d="M -47.191406 327.523438 L 83.074219 187.367188 L 265.410156 356.832031 L 135.148438 496.988281 Z M -47.191406 327.523438 "/>
</clipPath>
<clipPath id="clip50">
  <path d="M 33 331 L 45 331 L 45 336 L 33 336 Z M 33 331 "/>
</clipPath>
<clipPath id="clip51">
  <path d="M -47.191406 327.523438 L 83.007812 187.433594 L 265.398438 356.949219 L 135.199219 497.035156 Z M -47.191406 327.523438 "/>
</clipPath>
<clipPath id="clip52">
  <path d="M -47.191406 327.523438 L 83.007812 187.433594 L 265.398438 356.949219 L 135.199219 497.035156 Z M -47.191406 327.523438 "/>
</clipPath>
<clipPath id="clip53">
  <path d="M -47.191406 327.523438 L 83.074219 187.367188 L 265.410156 356.832031 L 135.148438 496.988281 Z M -47.191406 327.523438 "/>
</clipPath>
<clipPath id="clip54">
  <path d="M 157 345 L 169 345 L 169 350 L 157 350 Z M 157 345 "/>
</clipPath>
<clipPath id="clip55">
  <path d="M -47.191406 327.523438 L 83.007812 187.433594 L 265.398438 356.949219 L 135.199219 497.035156 Z M -47.191406 327.523438 "/>
</clipPath>
<clipPath id="clip56">
  <path d="M -47.191406 327.523438 L 83.007812 187.433594 L 265.398438 356.949219 L 135.199219 497.035156 Z M -47.191406 327.523438 "/>
</clipPath>
<clipPath id="clip57">
  <path d="M -47.191406 327.523438 L 83.074219 187.367188 L 265.410156 356.832031 L 135.148438 496.988281 Z M -47.191406 327.523438 "/>
</clipPath>
<clipPath id="clip58">
  <path d="M 74 360 L 86 360 L 86 365 L 74 365 Z M 74 360 "/>
</clipPath>
<clipPath id="clip59">
  <path d="M -47.191406 327.523438 L 83.007812 187.433594 L 265.398438 356.949219 L 135.199219 497.035156 Z M -47.191406 327.523438 "/>
</clipPath>
<clipPath id="clip60">
  <path d="M -47.191406 327.523438 L 83.007812 187.433594 L 265.398438 356.949219 L 135.199219 497.035156 Z M -47.191406 327.523438 "/>
</clipPath>
<clipPath id="clip61">
  <path d="M -47.191406 327.523438 L 83.074219 187.367188 L 265.410156 356.832031 L 135.148438 496.988281 Z M -47.191406 327.523438 "/>
</clipPath>
<clipPath id="clip62">
  <path d="M 195 363 L 207 363 L 207 368 L 195 368 Z M 195 363 "/>
</clipPath>
<clipPath id="clip63">
  <path d="M -47.191406 327.523438 L 83.007812 187.433594 L 265.398438 356.949219 L 135.199219 497.035156 Z M -47.191406 327.523438 "/>
</clipPath>
<clipPath id="clip64">
  <path d="M -47.191406 327.523438 L 83.007812 187.433594 L 265.398438 356.949219 L 135.199219 497.035156 Z M -47.191406 327.523438 "/>
</clipPath>
<clipPath id="clip65">
  <path d="M -47.191406 327.523438 L 83.074219 187.367188 L 265.410156 356.832031 L 135.148438 496.988281 Z M -47.191406 327.523438 "/>
</clipPath>
<clipPath id="clip66">
  <path d="M 102 336 L 114 336 L 114 341 L 102 341 Z M 102 336 "/>
</clipPath>
<clipPath id="clip67">
  <path d="M -47.191406 327.523438 L 83.007812 187.433594 L 265.398438 356.949219 L 135.199219 497.035156 Z M -47.191406 327.523438 "/>
</clipPath>
<clipPath id="clip68">
  <path d="M -47.191406 327.523438 L 83.007812 187.433594 L 265.398438 356.949219 L 135.199219 497.035156 Z M -47.191406 327.523438 "/>
</clipPath>
<clipPath id="clip69">
  <path d="M -47.191406 327.523438 L 83.074219 187.367188 L 265.410156 356.832031 L 135.148438 496.988281 Z M -47.191406 327.523438 "/>
</clipPath>
<clipPath id="clip70">
  <path d="M 108 305 L 120 305 L 120 310 L 108 310 Z M 108 305 "/>
</clipPath>
<clipPath id="clip71">
  <path d="M -47.191406 327.523438 L 83.007812 187.433594 L 265.398438 356.949219 L 135.199219 497.035156 Z M -47.191406 327.523438 "/>
</clipPath>
<clipPath id="clip72">
  <path d="M -47.191406 327.523438 L 83.007812 187.433594 L 265.398438 356.949219 L 135.199219 497.035156 Z M -47.191406 327.523438 "/>
</clipPath>
<clipPath id="clip73">
  <path d="M -47.191406 327.523438 L 83.074219 187.367188 L 265.410156 356.832031 L 135.148438 496.988281 Z M -47.191406 327.523438 "/>
</clipPath>
<clipPath id="clip74">
  <path d="M 142 315 L 154 315 L 154 320 L 142 320 Z M 142 315 "/>
</clipPath>
<clipPath id="clip75">
  <path d="M -47.191406 327.523438 L 83.007812 187.433594 L 265.398438 356.949219 L 135.199219 497.035156 Z M -47.191406 327.523438 "/>
</clipPath>
<clipPath id="clip76">
  <path d="M -47.191406 327.523438 L 83.007812 187.433594 L 265.398438 356.949219 L 135.199219 497.035156 Z M -47.191406 327.523438 "/>
</clipPath>
<clipPath id="clip77">
  <path d="M -47.191406 327.523438 L 83.074219 187.367188 L 265.410156 356.832031 L 135.148438 496.988281 Z M -47.191406 327.523438 "/>
</clipPath>
<clipPath id="clip78">
  <path d="M 91 320 L 103 320 L 103 325 L 91 325 Z M 91 320 "/>
</clipPath>
<clipPath id="clip79">
  <path d="M -47.191406 327.523438 L 83.007812 187.433594 L 265.398438 356.949219 L 135.199219 497.035156 Z M -47.191406 327.523438 "/>
</clipPath>
<clipPath id="clip80">
  <path d="M -47.191406 327.523438 L 83.007812 187.433594 L 265.398438 356.949219 L 135.199219 497.035156 Z M -47.191406 327.523438 "/>
</clipPath>
<clipPath id="clip81">
  <path d="M -47.191406 327.523438 L 83.074219 187.367188 L 265.410156 356.832031 L 135.148438 496.988281 Z M -47.191406 327.523438 "/>
</clipPath>
<clipPath id="clip82">
  <path d="M 119 351 L 131 351 L 131 356 L 119 356 Z M 119 351 "/>
</clipPath>
<clipPath id="clip83">
  <path d="M -47.191406 327.523438 L 83.007812 187.433594 L 265.398438 356.949219 L 135.199219 497.035156 Z M -47.191406 327.523438 "/>
</clipPath>
<clipPath id="clip84">
  <path d="M -47.191406 327.523438 L 83.007812 187.433594 L 265.398438 356.949219 L 135.199219 497.035156 Z M -47.191406 327.523438 "/>
</clipPath>
<clipPath id="clip85">
  <path d="M -47.191406 327.523438 L 83.074219 187.367188 L 265.410156 356.832031 L 135.148438 496.988281 Z M -47.191406 327.523438 "/>
</clipPath>
<clipPath id="clip86">
  <path d="M 135 340 L 147 340 L 147 345 L 135 345 Z M 135 340 "/>
</clipPath>
<clipPath id="clip87">
  <path d="M -47.191406 327.523438 L 83.007812 187.433594 L 265.398438 356.949219 L 135.199219 497.035156 Z M -47.191406 327.523438 "/>
</clipPath>
<clipPath id="clip88">
  <path d="M -47.191406 327.523438 L 83.007812 187.433594 L 265.398438 356.949219 L 135.199219 497.035156 Z M -47.191406 327.523438 "/>
</clipPath>
<clipPath id="clip89">
  <path d="M -47.191406 327.523438 L 83.074219 187.367188 L 265.410156 356.832031 L 135.148438 496.988281 Z M -47.191406 327.523438 "/>
</clipPath>
<clipPath id="clip90">
  <path d="M 77 286 L 89 286 L 89 290 L 77 290 Z M 77 286 "/>
</clipPath>
<clipPath id="clip91">
  <path d="M -47.191406 327.523438 L 83.007812 187.433594 L 265.398438 356.949219 L 135.199219 497.035156 Z M -47.191406 327.523438 "/>
</clipPath>
<clipPath id="clip92">
  <path d="M -47.191406 327.523438 L 83.007812 187.433594 L 265.398438 356.949219 L 135.199219 497.035156 Z M -47.191406 327.523438 "/>
</clipPath>
<clipPath id="clip93">
  <path d="M -47.191406 327.523438 L 83.074219 187.367188 L 265.410156 356.832031 L 135.148438 496.988281 Z M -47.191406 327.523438 "/>
</clipPath>
<clipPath id="clip94">
  <path d="M 5 291 L 17 291 L 17 296 L 5 296 Z M 5 291 "/>
</clipPath>
<clipPath id="clip95">
  <path d="M -47.191406 327.523438 L 83.007812 187.433594 L 265.398438 356.949219 L 135.199219 497.035156 Z M -47.191406 327.523438 "/>
</clipPath>
<clipPath id="clip96">
  <path d="M -47.191406 327.523438 L 83.007812 187.433594 L 265.398438 356.949219 L 135.199219 497.035156 Z M -47.191406 327.523438 "/>
</clipPath>
<clipPath id="clip97">
  <path d="M -47.191406 327.523438 L 83.074219 187.367188 L 265.410156 356.832031 L 135.148438 496.988281 Z M -47.191406 327.523438 "/>
</clipPath>
<clipPath id="clip98">
  <path d="M 5 270 L 17 270 L 17 275 L 5 275 Z M 5 270 "/>
</clipPath>
<clipPath id="clip99">
  <path d="M -47.191406 327.523438 L 83.007812 187.433594 L 265.398438 356.949219 L 135.199219 497.035156 Z M -47.191406 327.523438 "/>
</clipPath>
<clipPath id="clip100">
  <path d="M -47.191406 327.523438 L 83.007812 187.433594 L 265.398438 356.949219 L 135.199219 497.035156 Z M -47.191406 327.523438 "/>
</clipPath>
<clipPath id="clip101">
  <path d="M -47.191406 327.523438 L 83.074219 187.367188 L 265.410156 356.832031 L 135.148438 496.988281 Z M -47.191406 327.523438 "/>
</clipPath>
<clipPath id="clip102">
  <path d="M 51 259 L 63 259 L 63 264 L 51 264 Z M 51 259 "/>
</clipPath>
<clipPath id="clip103">
  <path d="M -47.191406 327.523438 L 83.007812 187.433594 L 265.398438 356.949219 L 135.199219 497.035156 Z M -47.191406 327.523438 "/>
</clipPath>
<clipPath id="clip104">
  <path d="M -47.191406 327.523438 L 83.007812 187.433594 L 265.398438 356.949219 L 135.199219 497.035156 Z M -47.191406 327.523438 "/>
</clipPath>
<clipPath id="clip105">
  <path d="M -47.191406 327.523438 L 83.074219 187.367188 L 265.410156 356.832031 L 135.148438 496.988281 Z M -47.191406 327.523438 "/>
</clipPath>
<clipPath id="clip106">
  <path d="M 41 374 L 53 374 L 53 375 L 41 375 Z M 41 374 "/>
</clipPath>
<clipPath id="clip107">
  <path d="M -47.191406 327.523438 L 83.007812 187.433594 L 265.398438 356.949219 L 135.199219 497.035156 Z M -47.191406 327.523438 "/>
</clipPath>
<clipPath id="clip108">
  <path d="M -47.191406 327.523438 L 83.007812 187.433594 L 265.398438 356.949219 L 135.199219 497.035156 Z M -47.191406 327.523438 "/>
</clipPath>
<clipPath id="clip109">
  <path d="M -47.191406 327.523438 L 83.074219 187.367188 L 265.410156 356.832031 L 135.148438 496.988281 Z M -47.191406 327.523438 "/>
</clipPath>
<clipPath id="clip110">
  <path d="M 78 339 L 90 339 L 90 344 L 78 344 Z M 78 339 "/>
</clipPath>
<clipPath id="clip111">
  <path d="M -47.191406 327.523438 L 83.007812 187.433594 L 265.398438 356.949219 L 135.199219 497.035156 Z M -47.191406 327.523438 "/>
</clipPath>
<clipPath id="clip112">
  <path d="M -47.191406 327.523438 L 83.007812 187.433594 L 265.398438 356.949219 L 135.199219 497.035156 Z M -47.191406 327.523438 "/>
</clipPath>
<clipPath id="clip113">
  <path d="M -47.191406 327.523438 L 83.074219 187.367188 L 265.410156 356.832031 L 135.148438 496.988281 Z M -47.191406 327.523438 "/>
</clipPath>
<clipPath id="clip114">
  <path d="M 93 225 L 105 225 L 105 230 L 93 230 Z M 93 225 "/>
</clipPath>
<clipPath id="clip115">
  <path d="M -47.191406 327.523438 L 83.007812 187.433594 L 265.398438 356.949219 L 135.199219 497.035156 Z M -47.191406 327.523438 "/>
</clipPath>
<clipPath id="clip116">
  <path d="M -47.191406 327.523438 L 83.007812 187.433594 L 265.398438 356.949219 L 135.199219 497.035156 Z M -47.191406 327.523438 "/>
</clipPath>
<clipPath id="clip117">
  <path d="M -47.191406 327.523438 L 83.074219 187.367188 L 265.410156 356.832031 L 135.148438 496.988281 Z M -47.191406 327.523438 "/>
</clipPath>
<clipPath id="clip118">
  <path d="M 180 347 L 192 347 L 192 351 L 180 351 Z M 180 347 "/>
</clipPath>
<clipPath id="clip119">
  <path d="M -47.191406 327.523438 L 83.007812 187.433594 L 265.398438 356.949219 L 135.199219 497.035156 Z M -47.191406 327.523438 "/>
</clipPath>
<clipPath id="clip120">
  <path d="M -47.191406 327.523438 L 83.007812 187.433594 L 265.398438 356.949219 L 135.199219 497.035156 Z M -47.191406 327.523438 "/>
</clipPath>
<clipPath id="clip121">
  <path d="M -47.191406 327.523438 L 83.074219 187.367188 L 265.410156 356.832031 L 135.148438 496.988281 Z M -47.191406 327.523438 "/>
</clipPath>
<clipPath id="clip122">
  <path d="M 95 357 L 107 357 L 107 361 L 95 361 Z M 95 357 "/>
</clipPath>
<clipPath id="clip123">
  <path d="M -47.191406 327.523438 L 83.007812 187.433594 L 265.398438 356.949219 L 135.199219 497.035156 Z M -47.191406 327.523438 "/>
</clipPath>
<clipPath id="clip124">
  <path d="M -47.191406 327.523438 L 83.007812 187.433594 L 265.398438 356.949219 L 135.199219 497.035156 Z M -47.191406 327.523438 "/>
</clipPath>
<clipPath id="clip125">
  <path d="M -47.191406 327.523438 L 83.074219 187.367188 L 265.410156 356.832031 L 135.148438 496.988281 Z M -47.191406 327.523438 "/>
</clipPath>
<clipPath id="clip126">
  <path d="M 77 265 L 89 265 L 89 270 L 77 270 Z M 77 265 "/>
</clipPath>
<clipPath id="clip127">
  <path d="M -47.191406 327.523438 L 83.007812 187.433594 L 265.398438 356.949219 L 135.199219 497.035156 Z M -47.191406 327.523438 "/>
</clipPath>
<clipPath id="clip128">
  <path d="M -47.191406 327.523438 L 83.007812 187.433594 L 265.398438 356.949219 L 135.199219 497.035156 Z M -47.191406 327.523438 "/>
</clipPath>
<clipPath id="clip129">
  <path d="M -47.191406 327.523438 L 83.074219 187.367188 L 265.410156 356.832031 L 135.148438 496.988281 Z M -47.191406 327.523438 "/>
</clipPath>
<clipPath id="clip130">
  <path d="M 88 247 L 100 247 L 100 251 L 88 251 Z M 88 247 "/>
</clipPath>
<clipPath id="clip131">
  <path d="M -47.191406 327.523438 L 83.007812 187.433594 L 265.398438 356.949219 L 135.199219 497.035156 Z M -47.191406 327.523438 "/>
</clipPath>
<clipPath id="clip132">
  <path d="M -47.191406 327.523438 L 83.007812 187.433594 L 265.398438 356.949219 L 135.199219 497.035156 Z M -47.191406 327.523438 "/>
</clipPath>
<clipPath id="clip133">
  <path d="M -47.191406 327.523438 L 83.074219 187.367188 L 265.410156 356.832031 L 135.148438 496.988281 Z M -47.191406 327.523438 "/>
</clipPath>
<clipPath id="clip134">
  <path d="M 176 317 L 188 317 L 188 321 L 176 321 Z M 176 317 "/>
</clipPath>
<clipPath id="clip135">
  <path d="M -47.191406 327.523438 L 83.007812 187.433594 L 265.398438 356.949219 L 135.199219 497.035156 Z M -47.191406 327.523438 "/>
</clipPath>
<clipPath id="clip136">
  <path d="M -47.191406 327.523438 L 83.007812 187.433594 L 265.398438 356.949219 L 135.199219 497.035156 Z M -47.191406 327.523438 "/>
</clipPath>
<clipPath id="clip137">
  <path d="M -47.191406 327.523438 L 83.074219 187.367188 L 265.410156 356.832031 L 135.148438 496.988281 Z M -47.191406 327.523438 "/>
</clipPath>
<clipPath id="clip138">
  <path d="M 123 369 L 135 369 L 135 374 L 123 374 Z M 123 369 "/>
</clipPath>
<clipPath id="clip139">
  <path d="M -47.191406 327.523438 L 83.007812 187.433594 L 265.398438 356.949219 L 135.199219 497.035156 Z M -47.191406 327.523438 "/>
</clipPath>
<clipPath id="clip140">
  <path d="M -47.191406 327.523438 L 83.007812 187.433594 L 265.398438 356.949219 L 135.199219 497.035156 Z M -47.191406 327.523438 "/>
</clipPath>
<clipPath id="clip141">
  <path d="M -47.191406 327.523438 L 83.074219 187.367188 L 265.410156 356.832031 L 135.148438 496.988281 Z M -47.191406 327.523438 "/>
</clipPath>
<clipPath id="clip142">
  <path d="M 128 300 L 140 300 L 140 305 L 128 305 Z M 128 300 "/>
</clipPath>
<clipPath id="clip143">
  <path d="M -47.191406 327.523438 L 83.007812 187.433594 L 265.398438 356.949219 L 135.199219 497.035156 Z M -47.191406 327.523438 "/>
</clipPath>
<clipPath id="clip144">
  <path d="M -47.191406 327.523438 L 83.007812 187.433594 L 265.398438 356.949219 L 135.199219 497.035156 Z M -47.191406 327.523438 "/>
</clipPath>
<clipPath id="clip145">
  <path d="M -47.191406 327.523438 L 83.074219 187.367188 L 265.410156 356.832031 L 135.148438 496.988281 Z M -47.191406 327.523438 "/>
</clipPath>
<clipPath id="clip146">
  <path d="M 109 240 L 121 240 L 121 245 L 109 245 Z M 109 240 "/>
</clipPath>
<clipPath id="clip147">
  <path d="M -47.191406 327.523438 L 83.007812 187.433594 L 265.398438 356.949219 L 135.199219 497.035156 Z M -47.191406 327.523438 "/>
</clipPath>
<clipPath id="clip148">
  <path d="M -47.191406 327.523438 L 83.007812 187.433594 L 265.398438 356.949219 L 135.199219 497.035156 Z M -47.191406 327.523438 "/>
</clipPath>
<clipPath id="clip149">
  <path d="M -47.191406 327.523438 L 83.074219 187.367188 L 265.410156 356.832031 L 135.148438 496.988281 Z M -47.191406 327.523438 "/>
</clipPath>
<clipPath id="clip150">
  <path d="M 44 301 L 56 301 L 56 306 L 44 306 Z M 44 301 "/>
</clipPath>
<clipPath id="clip151">
  <path d="M -47.191406 327.523438 L 83.007812 187.433594 L 265.398438 356.949219 L 135.199219 497.035156 Z M -47.191406 327.523438 "/>
</clipPath>
<clipPath id="clip152">
  <path d="M -47.191406 327.523438 L 83.007812 187.433594 L 265.398438 356.949219 L 135.199219 497.035156 Z M -47.191406 327.523438 "/>
</clipPath>
<clipPath id="clip153">
  <path d="M -47.191406 327.523438 L 83.074219 187.367188 L 265.410156 356.832031 L 135.148438 496.988281 Z M -47.191406 327.523438 "/>
</clipPath>
<clipPath id="clip154">
  <path d="M 194 331 L 206 331 L 206 336 L 194 336 Z M 194 331 "/>
</clipPath>
<clipPath id="clip155">
  <path d="M -47.191406 327.523438 L 83.007812 187.433594 L 265.398438 356.949219 L 135.199219 497.035156 Z M -47.191406 327.523438 "/>
</clipPath>
<clipPath id="clip156">
  <path d="M -47.191406 327.523438 L 83.007812 187.433594 L 265.398438 356.949219 L 135.199219 497.035156 Z M -47.191406 327.523438 "/>
</clipPath>
<clipPath id="clip157">
  <path d="M -47.191406 327.523438 L 83.074219 187.367188 L 265.410156 356.832031 L 135.148438 496.988281 Z M -47.191406 327.523438 "/>
</clipPath>
<clipPath id="clip158">
  <path d="M 122 324 L 134 324 L 134 329 L 122 329 Z M 122 324 "/>
</clipPath>
<clipPath id="clip159">
  <path d="M -47.191406 327.523438 L 83.007812 187.433594 L 265.398438 356.949219 L 135.199219 497.035156 Z M -47.191406 327.523438 "/>
</clipPath>
<clipPath id="clip160">
  <path d="M -47.191406 327.523438 L 83.007812 187.433594 L 265.398438 356.949219 L 135.199219 497.035156 Z M -47.191406 327.523438 "/>
</clipPath>
<clipPath id="clip161">
  <path d="M -47.191406 327.523438 L 83.074219 187.367188 L 265.410156 356.832031 L 135.148438 496.988281 Z M -47.191406 327.523438 "/>
</clipPath>
<clipPath id="clip162">
  <path d="M 119 280 L 131 280 L 131 285 L 119 285 Z M 119 280 "/>
</clipPath>
<clipPath id="clip163">
  <path d="M -47.191406 327.523438 L 83.007812 187.433594 L 265.398438 356.949219 L 135.199219 497.035156 Z M -47.191406 327.523438 "/>
</clipPath>
<clipPath id="clip164">
  <path d="M -47.191406 327.523438 L 83.007812 187.433594 L 265.398438 356.949219 L 135.199219 497.035156 Z M -47.191406 327.523438 "/>
</clipPath>
<clipPath id="clip165">
  <path d="M -47.191406 327.523438 L 83.074219 187.367188 L 265.410156 356.832031 L 135.148438 496.988281 Z M -47.191406 327.523438 "/>
</clipPath>
<clipPath id="clip166">
  <path d="M 26 290 L 38 290 L 38 295 L 26 295 Z M 26 290 "/>
</clipPath>
<clipPath id="clip167">
  <path d="M -47.191406 327.523438 L 83.007812 187.433594 L 265.398438 356.949219 L 135.199219 497.035156 Z M -47.191406 327.523438 "/>
</clipPath>
<clipPath id="clip168">
  <path d="M -47.191406 327.523438 L 83.007812 187.433594 L 265.398438 356.949219 L 135.199219 497.035156 Z M -47.191406 327.523438 "/>
</clipPath>
<clipPath id="clip169">
  <path d="M -47.191406 327.523438 L 83.074219 187.367188 L 265.410156 356.832031 L 135.148438 496.988281 Z M -47.191406 327.523438 "/>
</clipPath>
<clipPath id="clip170">
  <path d="M 159 326 L 171 326 L 171 331 L 159 331 Z M 159 326 "/>
</clipPath>
<clipPath id="clip171">
  <path d="M -47.191406 327.523438 L 83.007812 187.433594 L 265.398438 356.949219 L 135.199219 497.035156 Z M -47.191406 327.523438 "/>
</clipPath>
<clipPath id="clip172">
  <path d="M -47.191406 327.523438 L 83.007812 187.433594 L 265.398438 356.949219 L 135.199219 497.035156 Z M -47.191406 327.523438 "/>
</clipPath>
<clipPath id="clip173">
  <path d="M -47.191406 327.523438 L 83.074219 187.367188 L 265.410156 356.832031 L 135.148438 496.988281 Z M -47.191406 327.523438 "/>
</clipPath>
<clipPath id="clip174">
  <path d="M 54 281 L 66 281 L 66 286 L 54 286 Z M 54 281 "/>
</clipPath>
<clipPath id="clip175">
  <path d="M -47.191406 327.523438 L 83.007812 187.433594 L 265.398438 356.949219 L 135.199219 497.035156 Z M -47.191406 327.523438 "/>
</clipPath>
<clipPath id="clip176">
  <path d="M -47.191406 327.523438 L 83.007812 187.433594 L 265.398438 356.949219 L 135.199219 497.035156 Z M -47.191406 327.523438 "/>
</clipPath>
<clipPath id="clip177">
  <path d="M -47.191406 327.523438 L 83.074219 187.367188 L 265.410156 356.832031 L 135.148438 496.988281 Z M -47.191406 327.523438 "/>
</clipPath>
<clipPath id="clip178">
  <path d="M 83 304 L 95 304 L 95 308 L 83 308 Z M 83 304 "/>
</clipPath>
<clipPath id="clip179">
  <path d="M -47.191406 327.523438 L 83.007812 187.433594 L 265.398438 356.949219 L 135.199219 497.035156 Z M -47.191406 327.523438 "/>
</clipPath>
<clipPath id="clip180">
  <path d="M -47.191406 327.523438 L 83.007812 187.433594 L 265.398438 356.949219 L 135.199219 497.035156 Z M -47.191406 327.523438 "/>
</clipPath>
<clipPath id="clip181">
  <path d="M -47.191406 327.523438 L 83.074219 187.367188 L 265.410156 356.832031 L 135.148438 496.988281 Z M -47.191406 327.523438 "/>
</clipPath>
<clipPath id="clip182">
  <path d="M 227 352 L 239 352 L 239 357 L 227 357 Z M 227 352 "/>
</clipPath>
<clipPath id="clip183">
  <path d="M -47.191406 327.523438 L 83.007812 187.433594 L 265.398438 356.949219 L 135.199219 497.035156 Z M -47.191406 327.523438 "/>
</clipPath>
<clipPath id="clip184">
  <path d="M -47.191406 327.523438 L 83.007812 187.433594 L 265.398438 356.949219 L 135.199219 497.035156 Z M -47.191406 327.523438 "/>
</clipPath>
<clipPath id="clip185">
  <path d="M -47.191406 327.523438 L 83.074219 187.367188 L 265.410156 356.832031 L 135.148438 496.988281 Z M -47.191406 327.523438 "/>
</clipPath>
<clipPath id="clip186">
  <path d="M 169 367 L 181 367 L 181 371 L 169 371 Z M 169 367 "/>
</clipPath>
<clipPath id="clip187">
  <path d="M -47.191406 327.523438 L 83.007812 187.433594 L 265.398438 356.949219 L 135.199219 497.035156 Z M -47.191406 327.523438 "/>
</clipPath>
<clipPath id="clip188">
  <path d="M -47.191406 327.523438 L 83.007812 187.433594 L 265.398438 356.949219 L 135.199219 497.035156 Z M -47.191406 327.523438 "/>
</clipPath>
<clipPath id="clip189">
  <path d="M -47.191406 327.523438 L 83.074219 187.367188 L 265.410156 356.832031 L 135.148438 496.988281 Z M -47.191406 327.523438 "/>
</clipPath>
<clipPath id="clip190">
  <path d="M 38 348 L 50 348 L 50 353 L 38 353 Z M 38 348 "/>
</clipPath>
<clipPath id="clip191">
  <path d="M -47.191406 327.523438 L 83.007812 187.433594 L 265.398438 356.949219 L 135.199219 497.035156 Z M -47.191406 327.523438 "/>
</clipPath>
<clipPath id="clip192">
  <path d="M -47.191406 327.523438 L 83.007812 187.433594 L 265.398438 356.949219 L 135.199219 497.035156 Z M -47.191406 327.523438 "/>
</clipPath>
<clipPath id="clip193">
  <path d="M -47.191406 327.523438 L 83.074219 187.367188 L 265.410156 356.832031 L 135.148438 496.988281 Z M -47.191406 327.523438 "/>
</clipPath>
<clipPath id="clip194">
  <path d="M 24 315 L 36 315 L 36 320 L 24 320 Z M 24 315 "/>
</clipPath>
<clipPath id="clip195">
  <path d="M -47.191406 327.523438 L 83.007812 187.433594 L 265.398438 356.949219 L 135.199219 497.035156 Z M -47.191406 327.523438 "/>
</clipPath>
<clipPath id="clip196">
  <path d="M -47.191406 327.523438 L 83.007812 187.433594 L 265.398438 356.949219 L 135.199219 497.035156 Z M -47.191406 327.523438 "/>
</clipPath>
<clipPath id="clip197">
  <path d="M -47.191406 327.523438 L 83.074219 187.367188 L 265.410156 356.832031 L 135.148438 496.988281 Z M -47.191406 327.523438 "/>
</clipPath>
<clipPath id="clip198">
  <path d="M 31 271 L 43 271 L 43 276 L 31 276 Z M 31 271 "/>
</clipPath>
<clipPath id="clip199">
  <path d="M -47.191406 327.523438 L 83.007812 187.433594 L 265.398438 356.949219 L 135.199219 497.035156 Z M -47.191406 327.523438 "/>
</clipPath>
<clipPath id="clip200">
  <path d="M -47.191406 327.523438 L 83.007812 187.433594 L 265.398438 356.949219 L 135.199219 497.035156 Z M -47.191406 327.523438 "/>
</clipPath>
<clipPath id="clip201">
  <path d="M -47.191406 327.523438 L 83.074219 187.367188 L 265.410156 356.832031 L 135.148438 496.988281 Z M -47.191406 327.523438 "/>
</clipPath>
<clipPath id="clip202">
  <path d="M 57 328 L 69 328 L 69 333 L 57 333 Z M 57 328 "/>
</clipPath>
<clipPath id="clip203">
  <path d="M -47.191406 327.523438 L 83.007812 187.433594 L 265.398438 356.949219 L 135.199219 497.035156 Z M -47.191406 327.523438 "/>
</clipPath>
<clipPath id="clip204">
  <path d="M -47.191406 327.523438 L 83.007812 187.433594 L 265.398438 356.949219 L 135.199219 497.035156 Z M -47.191406 327.523438 "/>
</clipPath>
<clipPath id="clip205">
  <path d="M -47.191406 327.523438 L 83.074219 187.367188 L 265.410156 356.832031 L 135.148438 496.988281 Z M -47.191406 327.523438 "/>
</clipPath>
<clipPath id="clip206">
  <path d="M 202 312 L 214 312 L 214 317 L 202 317 Z M 202 312 "/>
</clipPath>
<clipPath id="clip207">
  <path d="M -47.191406 327.523438 L 83.007812 187.433594 L 265.398438 356.949219 L 135.199219 497.035156 Z M -47.191406 327.523438 "/>
</clipPath>
<clipPath id="clip208">
  <path d="M -47.191406 327.523438 L 83.007812 187.433594 L 265.398438 356.949219 L 135.199219 497.035156 Z M -47.191406 327.523438 "/>
</clipPath>
<clipPath id="clip209">
  <path d="M -47.191406 327.523438 L 83.074219 187.367188 L 265.410156 356.832031 L 135.148438 496.988281 Z M -47.191406 327.523438 "/>
</clipPath>
<clipPath id="clip210">
  <path d="M 55 354 L 67 354 L 67 358 L 55 358 Z M 55 354 "/>
</clipPath>
<clipPath id="clip211">
  <path d="M -47.191406 327.523438 L 83.007812 187.433594 L 265.398438 356.949219 L 135.199219 497.035156 Z M -47.191406 327.523438 "/>
</clipPath>
<clipPath id="clip212">
  <path d="M -47.191406 327.523438 L 83.007812 187.433594 L 265.398438 356.949219 L 135.199219 497.035156 Z M -47.191406 327.523438 "/>
</clipPath>
<clipPath id="clip213">
  <path d="M -47.191406 327.523438 L 83.074219 187.367188 L 265.410156 356.832031 L 135.148438 496.988281 Z M -47.191406 327.523438 "/>
</clipPath>
<clipPath id="clip214">
  <path d="M 63 310 L 75 310 L 75 315 L 63 315 Z M 63 310 "/>
</clipPath>
<clipPath id="clip215">
  <path d="M -47.191406 327.523438 L 83.007812 187.433594 L 265.398438 356.949219 L 135.199219 497.035156 Z M -47.191406 327.523438 "/>
</clipPath>
<clipPath id="clip216">
  <path d="M -47.191406 327.523438 L 83.007812 187.433594 L 265.398438 356.949219 L 135.199219 497.035156 Z M -47.191406 327.523438 "/>
</clipPath>
<clipPath id="clip217">
  <path d="M -47.191406 327.523438 L 83.074219 187.367188 L 265.410156 356.832031 L 135.148438 496.988281 Z M -47.191406 327.523438 "/>
</clipPath>
<clipPath id="clip218">
  <path d="M 317 258 L 337.5 258 L 337.5 289 L 317 289 Z M 317 258 "/>
</clipPath>
<clipPath id="clip219">
  <path d="M 234.75 228 L 258 228 L 258 259 L 234.75 259 Z M 234.75 228 "/>
</clipPath>
</defs>
<g id="surface1">
<path style=" stroke:none;fill-rule:nonzero;fill:rgb(14.898682%,38.038635%,31.369019%);fill-opacity:1;" d="M 264.761719 382.347656 C 263.980469 367.09375 258.769531 351.695312 258.820312 336.222656 C 258.820312 328.773438 260.101562 321.34375 259.710938 313.890625 C 258.679688 294.164062 246.421875 277 233.96875 261.65625 C 224.203125 249.519531 213.527344 237.398438 199.457031 230.699219 C 150.90625 207.527344 130.769531 268.835938 126.515625 305.355469 C 127.976562 298.890625 129.445312 292.417969 130.929688 285.929688 C 128.410156 294.082031 126.414062 302.359375 124.941406 310.761719 C 123.472656 319.164062 122.535156 327.628906 122.132812 336.152344 C 121.730469 344.675781 121.867188 353.1875 122.539062 361.695312 C 123.214844 370.199219 124.421875 378.628906 126.160156 386.980469 C 129.238281 401.648438 134.21875 416.460938 144.289062 427.5625 C 154.359375 438.667969 170.457031 445.277344 184.726562 440.714844 C 190.3125 438.933594 195.398438 435.546875 201.199219 434.640625 C 205.808594 433.925781 210.503906 434.835938 215.148438 435.066406 C 237.578125 436.136719 259.480469 419.027344 263.855469 396.960938 C 264.78125 392.128906 265.085938 387.257812 264.761719 382.347656 Z M 264.761719 382.347656 "/>
<path style=" stroke:none;fill-rule:nonzero;fill:rgb(89.019775%,43.919373%,33.329773%);fill-opacity:1;" d="M 481.164062 417.34375 C 471.058594 439.941406 441.4375 445.433594 424.070312 427.796875 C 421.082031 424.757812 418.199219 421.683594 415.390625 418.691406 C 415.070312 418.347656 414.75 418.003906 414.433594 417.664062 C 394.550781 396.199219 366.863281 383.851562 337.621094 382.878906 C 336.804688 382.851562 335.976562 382.820312 335.132812 382.78125 C 299.726562 381.15625 255.617188 379.15625 243.816406 352.789062 C 219.480469 298.417969 244.488281 264.394531 263.589844 251.226562 C 277.839844 241.394531 287.53125 249.933594 295.835938 244.125 C 310.566406 233.816406 302.402344 207.484375 315.511719 193.132812 C 342.648438 163.4375 369.875 192.859375 373.847656 223.976562 C 379.199219 265.867188 379.074219 265.125 424.714844 275.363281 C 434.78125 277.609375 464.300781 277.917969 471.96875 286.316406 C 486.933594 302.707031 464.917969 326.988281 467.480469 343.125 C 470.976562 365.125 488.679688 377.285156 485.984375 403.265625 C 485.660156 406.410156 483.757812 411.539062 481.164062 417.34375 "/>
<g clip-path="url(#clip1)" clip-rule="nonzero">
<g clip-path="url(#clip2)" clip-rule="nonzero">
<g clip-path="url(#clip3)" clip-rule="nonzero">
<g clip-path="url(#clip4)" clip-rule="nonzero">
<g clip-path="url(#clip5)" clip-rule="nonzero">
<path style=" stroke:none;fill-rule:nonzero;fill:rgb(99.21875%,97.24884%,96.078491%);fill-opacity:1;" d="M 170.277344 224.074219 C 167.5625 210.78125 188.066406 152.679688 195.835938 143.527344 C 211.8125 124.679688 239.679688 130.957031 258.800781 144.757812 C 289.640625 167.007812 268.316406 192.898438 275.78125 221.089844 C 280.820312 240.132812 298.976562 242.628906 319.902344 241.148438 C 335.261719 240.078125 347.175781 254.394531 343.257812 269.273438 C 337.128906 292.535156 335.074219 323.519531 357.003906 344.871094 C 370.929688 358.429688 375.511719 367.988281 360.433594 389.445312 C 349.3125 405.273438 330.976562 412.246094 310.148438 408.570312 C 260.542969 399.796875 251.152344 356.058594 251.703125 356.890625 C 245.605469 327 260.183594 271.152344 215.609375 254.789062 C 197.984375 248.316406 173.5625 240.171875 170.277344 224.074219 "/>
</g>
</g>
</g>
</g>
</g>
<g clip-path="url(#clip6)" clip-rule="nonzero">
<g clip-path="url(#clip7)" clip-rule="nonzero">
<g clip-path="url(#clip8)" clip-rule="nonzero">
<g clip-path="url(#clip9)" clip-rule="nonzero">
<g clip-path="url(#clip10)" clip-rule="nonzero">
<path style=" stroke:none;fill-rule:nonzero;fill:rgb(16.468811%,8.239746%,6.269836%);fill-opacity:1;" d="M -24.425781 266.03125 C 12.464844 233.242188 -28.398438 168.601562 45.363281 184.617188 C 74.039062 190.835938 7.699219 326.53125 -2.5 331.140625 C -12.269531 335.570312 -73.082031 309.289062 -24.425781 266.03125 "/>
</g>
</g>
</g>
</g>
</g>
<g clip-path="url(#clip11)" clip-rule="nonzero">
<path style=" stroke:none;fill-rule:nonzero;fill:rgb(51.368713%,64.309692%,45.098877%);fill-opacity:1;" d="M 132.675781 413.621094 C 118.894531 423.234375 99.9375 419.253906 90.984375 405.042969 C 72.359375 375.480469 58.953125 383.175781 43.539062 394.429688 C -59.984375 470.105469 -63.242188 336.855469 -7.078125 310.191406 C 14.382812 300.023438 25.320312 290.679688 10.488281 270.46875 C -45.917969 193.5625 228.597656 169.503906 140.179688 284.671875 C 89.832031 350.25 257.941406 326.222656 132.675781 413.621094 "/>
</g>
<g clip-path="url(#clip12)" clip-rule="nonzero">
<g clip-path="url(#clip13)" clip-rule="nonzero">
<g clip-path="url(#clip14)" clip-rule="nonzero">
<g clip-path="url(#clip15)" clip-rule="nonzero">
<path style=" stroke:none;fill-rule:nonzero;fill:rgb(91.369629%,78.42865%,76.469421%);fill-opacity:1;" d="M 149.421875 367.34375 C 151.539062 367.378906 153.65625 367.40625 155.773438 367.441406 C 156.082031 367.445312 156.382812 367.449219 156.6875 367.457031 C 157.65625 367.46875 158.609375 366.679688 158.601562 365.664062 C 158.59375 364.679688 157.851562 363.773438 156.816406 363.757812 C 154.695312 363.722656 152.578125 363.695312 150.460938 363.664062 C 150.15625 363.65625 149.855469 363.652344 149.550781 363.644531 C 148.578125 363.632812 147.625 364.425781 147.636719 365.4375 C 147.648438 366.425781 148.386719 367.328125 149.421875 367.34375 "/>
</g>
</g>
</g>
</g>
<g clip-path="url(#clip16)" clip-rule="nonzero">
<g clip-path="url(#clip17)" clip-rule="nonzero">
<g clip-path="url(#clip18)" clip-rule="nonzero">
<g clip-path="url(#clip19)" clip-rule="nonzero">
<path style=" stroke:none;fill-rule:nonzero;fill:rgb(91.369629%,78.42865%,76.469421%);fill-opacity:1;" d="M 211.371094 349.933594 C 213.488281 349.96875 215.609375 350.003906 217.722656 350.03125 C 218.027344 350.039062 218.335938 350.042969 218.640625 350.046875 C 219.609375 350.0625 220.558594 349.269531 220.550781 348.257812 C 220.542969 347.269531 219.800781 346.363281 218.761719 346.347656 C 216.648438 346.316406 214.53125 346.28125 212.414062 346.253906 C 212.109375 346.246094 211.800781 346.242188 211.496094 346.238281 C 210.53125 346.222656 209.574219 347.011719 209.585938 348.027344 C 209.59375 349.015625 210.332031 349.917969 211.371094 349.933594 "/>
</g>
</g>
</g>
</g>
<g clip-path="url(#clip20)" clip-rule="nonzero">
<g clip-path="url(#clip21)" clip-rule="nonzero">
<g clip-path="url(#clip22)" clip-rule="nonzero">
<g clip-path="url(#clip23)" clip-rule="nonzero">
<path style=" stroke:none;fill-rule:nonzero;fill:rgb(91.369629%,78.42865%,76.469421%);fill-opacity:1;" d="M 48.566406 242.679688 C 50.683594 242.714844 52.800781 242.75 54.917969 242.78125 C 55.222656 242.785156 55.53125 242.789062 55.835938 242.792969 C 56.800781 242.808594 57.753906 242.015625 57.746094 241.007812 C 57.734375 240.019531 56.996094 239.109375 55.960938 239.09375 C 53.839844 239.066406 51.722656 239.03125 49.605469 238.996094 C 49.300781 238.992188 48.996094 238.988281 48.691406 238.984375 C 47.722656 238.96875 46.769531 239.761719 46.78125 240.773438 C 46.792969 241.761719 47.527344 242.667969 48.566406 242.679688 "/>
</g>
</g>
</g>
</g>
<g clip-path="url(#clip24)" clip-rule="nonzero">
<g clip-path="url(#clip25)" clip-rule="nonzero">
<g clip-path="url(#clip26)" clip-rule="nonzero">
<g clip-path="url(#clip27)" clip-rule="nonzero">
<g clip-path="url(#clip28)" clip-rule="nonzero">
<g clip-path="url(#clip29)" clip-rule="nonzero">
<path style=" stroke:none;fill-rule:nonzero;fill:rgb(91.369629%,78.42865%,76.469421%);fill-opacity:1;" d="M 224.410156 330.152344 C 226.527344 330.183594 228.648438 330.21875 230.765625 330.25 C 231.070312 330.253906 231.375 330.261719 231.679688 330.265625 C 232.644531 330.28125 233.601562 329.488281 233.589844 328.476562 C 233.582031 327.488281 232.839844 326.582031 231.804688 326.566406 C 229.6875 326.535156 227.566406 326.5 225.453125 326.46875 C 225.144531 326.464844 224.84375 326.460938 224.539062 326.453125 C 223.570312 326.4375 222.613281 327.230469 222.625 328.246094 C 222.636719 329.234375 223.375 330.136719 224.410156 330.152344 "/>
</g>
</g>
</g>
</g>
</g>
</g>
<g clip-path="url(#clip30)" clip-rule="nonzero">
<g clip-path="url(#clip31)" clip-rule="nonzero">
<g clip-path="url(#clip32)" clip-rule="nonzero">
<g clip-path="url(#clip33)" clip-rule="nonzero">
<path style=" stroke:none;fill-rule:nonzero;fill:rgb(91.369629%,78.42865%,76.469421%);fill-opacity:1;" d="M 110.15625 262.953125 C 112.273438 262.984375 114.394531 263.015625 116.507812 263.050781 C 116.816406 263.054688 117.121094 263.058594 117.425781 263.066406 C 118.394531 263.078125 119.347656 262.285156 119.335938 261.273438 C 119.324219 260.285156 118.585938 259.378906 117.550781 259.363281 C 115.433594 259.332031 113.316406 259.304688 111.195312 259.269531 C 110.890625 259.265625 110.585938 259.257812 110.28125 259.253906 C 109.316406 259.242188 108.359375 260.035156 108.371094 261.042969 C 108.382812 262.03125 109.121094 262.9375 110.15625 262.953125 "/>
</g>
</g>
</g>
</g>
<g clip-path="url(#clip34)" clip-rule="nonzero">
<g clip-path="url(#clip35)" clip-rule="nonzero">
<g clip-path="url(#clip36)" clip-rule="nonzero">
<g clip-path="url(#clip37)" clip-rule="nonzero">
<path style=" stroke:none;fill-rule:nonzero;fill:rgb(91.369629%,78.42865%,76.469421%);fill-opacity:1;" d="M 27.136719 256.621094 C 29.253906 256.652344 31.367188 256.683594 33.488281 256.714844 C 33.792969 256.722656 34.097656 256.726562 34.402344 256.730469 C 35.367188 256.742188 36.324219 255.953125 36.3125 254.941406 C 36.304688 253.953125 35.5625 253.046875 34.527344 253.03125 C 32.410156 253 30.292969 252.96875 28.175781 252.9375 C 27.871094 252.929688 27.566406 252.925781 27.261719 252.921875 C 26.292969 252.90625 25.339844 253.699219 25.347656 254.710938 C 25.359375 255.699219 26.097656 256.605469 27.136719 256.621094 "/>
</g>
</g>
</g>
</g>
<g clip-path="url(#clip38)" clip-rule="nonzero">
<g clip-path="url(#clip39)" clip-rule="nonzero">
<g clip-path="url(#clip40)" clip-rule="nonzero">
<g clip-path="url(#clip41)" clip-rule="nonzero">
<path style=" stroke:none;fill-rule:nonzero;fill:rgb(91.369629%,78.42865%,76.469421%);fill-opacity:1;" d="M 100.246094 282.382812 C 102.367188 282.417969 104.484375 282.449219 106.601562 282.480469 C 106.90625 282.488281 107.210938 282.488281 107.515625 282.492188 C 108.480469 282.511719 109.4375 281.71875 109.425781 280.703125 C 109.417969 279.71875 108.679688 278.8125 107.640625 278.796875 C 105.523438 278.765625 103.410156 278.730469 101.289062 278.699219 C 100.984375 278.699219 100.679688 278.691406 100.375 278.6875 C 99.410156 278.671875 98.449219 279.464844 98.460938 280.476562 C 98.472656 281.464844 99.210938 282.367188 100.246094 282.382812 "/>
</g>
</g>
</g>
</g>
<g clip-path="url(#clip42)" clip-rule="nonzero">
<g clip-path="url(#clip43)" clip-rule="nonzero">
<g clip-path="url(#clip44)" clip-rule="nonzero">
<g clip-path="url(#clip45)" clip-rule="nonzero">
<path style=" stroke:none;fill-rule:nonzero;fill:rgb(91.369629%,78.42865%,76.469421%);fill-opacity:1;" d="M 73.140625 228.21875 C 75.257812 228.25 77.375 228.285156 79.492188 228.316406 C 79.796875 228.320312 80.101562 228.324219 80.40625 228.332031 C 81.375 228.347656 82.328125 227.554688 82.316406 226.542969 C 82.304688 225.554688 81.566406 224.648438 80.53125 224.632812 C 78.414062 224.601562 76.296875 224.570312 74.179688 224.535156 C 73.875 224.53125 73.570312 224.523438 73.261719 224.523438 C 72.296875 224.507812 71.34375 225.300781 71.351562 226.308594 C 71.363281 227.304688 72.101562 228.207031 73.140625 228.21875 "/>
</g>
</g>
</g>
</g>
<g clip-path="url(#clip46)" clip-rule="nonzero">
<g clip-path="url(#clip47)" clip-rule="nonzero">
<g clip-path="url(#clip48)" clip-rule="nonzero">
<g clip-path="url(#clip49)" clip-rule="nonzero">
<path style=" stroke:none;fill-rule:nonzero;fill:rgb(91.369629%,78.42865%,76.469421%);fill-opacity:1;" d="M 69.722656 246.792969 C 71.839844 246.824219 73.957031 246.855469 76.074219 246.890625 C 76.382812 246.894531 76.6875 246.898438 76.988281 246.902344 C 77.957031 246.917969 78.910156 246.128906 78.902344 245.113281 C 78.890625 244.125 78.152344 243.222656 77.117188 243.203125 C 75 243.175781 72.878906 243.140625 70.761719 243.109375 C 70.457031 243.105469 70.152344 243.097656 69.847656 243.097656 C 68.878906 243.082031 67.925781 243.871094 67.9375 244.882812 C 67.949219 245.871094 68.683594 246.777344 69.722656 246.792969 "/>
</g>
</g>
</g>
</g>
<g clip-path="url(#clip50)" clip-rule="nonzero">
<g clip-path="url(#clip51)" clip-rule="nonzero">
<g clip-path="url(#clip52)" clip-rule="nonzero">
<g clip-path="url(#clip53)" clip-rule="nonzero">
<path style=" stroke:none;fill-rule:nonzero;fill:rgb(91.369629%,78.42865%,76.469421%);fill-opacity:1;" d="M 35.5625 335.410156 C 37.679688 335.445312 39.796875 335.476562 41.917969 335.507812 C 42.222656 335.515625 42.523438 335.519531 42.832031 335.523438 C 43.796875 335.535156 44.753906 334.746094 44.742188 333.734375 C 44.730469 332.746094 43.992188 331.839844 42.957031 331.824219 C 40.839844 331.792969 38.722656 331.757812 36.605469 331.730469 C 36.296875 331.726562 35.992188 331.71875 35.6875 331.714844 C 34.722656 331.699219 33.765625 332.488281 33.777344 333.503906 C 33.785156 334.492188 34.523438 335.394531 35.5625 335.410156 "/>
</g>
</g>
</g>
</g>
<g clip-path="url(#clip54)" clip-rule="nonzero">
<g clip-path="url(#clip55)" clip-rule="nonzero">
<g clip-path="url(#clip56)" clip-rule="nonzero">
<g clip-path="url(#clip57)" clip-rule="nonzero">
<path style=" stroke:none;fill-rule:nonzero;fill:rgb(91.369629%,78.42865%,76.469421%);fill-opacity:1;" d="M 159.382812 349.164062 C 161.496094 349.199219 163.613281 349.230469 165.734375 349.261719 C 166.039062 349.269531 166.34375 349.269531 166.648438 349.277344 C 167.613281 349.289062 168.574219 348.5 168.5625 347.488281 C 168.550781 346.496094 167.8125 345.59375 166.773438 345.578125 C 164.660156 345.546875 162.539062 345.511719 160.421875 345.480469 C 160.117188 345.476562 159.8125 345.472656 159.507812 345.46875 C 158.539062 345.453125 157.585938 346.246094 157.597656 347.253906 C 157.605469 348.246094 158.34375 349.152344 159.382812 349.164062 "/>
</g>
</g>
</g>
</g>
<g clip-path="url(#clip58)" clip-rule="nonzero">
<g clip-path="url(#clip59)" clip-rule="nonzero">
<g clip-path="url(#clip60)" clip-rule="nonzero">
<g clip-path="url(#clip61)" clip-rule="nonzero">
<path style=" stroke:none;fill-rule:nonzero;fill:rgb(91.369629%,78.42865%,76.469421%);fill-opacity:1;" d="M 76.75 364.28125 C 78.863281 364.3125 80.980469 364.347656 83.097656 364.378906 C 83.402344 364.382812 83.710938 364.386719 84.015625 364.390625 C 84.980469 364.40625 85.9375 363.617188 85.925781 362.605469 C 85.917969 361.613281 85.175781 360.707031 84.136719 360.695312 C 82.023438 360.660156 79.90625 360.628906 77.789062 360.597656 C 77.484375 360.589844 77.175781 360.589844 76.871094 360.582031 C 75.90625 360.566406 74.953125 361.359375 74.960938 362.371094 C 74.96875 363.363281 75.710938 364.265625 76.75 364.28125 "/>
</g>
</g>
</g>
</g>
<g clip-path="url(#clip62)" clip-rule="nonzero">
<g clip-path="url(#clip63)" clip-rule="nonzero">
<g clip-path="url(#clip64)" clip-rule="nonzero">
<g clip-path="url(#clip65)" clip-rule="nonzero">
<path style=" stroke:none;fill-rule:nonzero;fill:rgb(91.369629%,78.42865%,76.469421%);fill-opacity:1;" d="M 197.609375 367.539062 C 199.730469 367.570312 201.847656 367.601562 203.964844 367.632812 C 204.269531 367.640625 204.570312 367.644531 204.875 367.648438 C 205.84375 367.664062 206.800781 366.871094 206.789062 365.859375 C 206.78125 364.871094 206.039062 363.96875 205.003906 363.949219 C 202.886719 363.917969 200.769531 363.886719 198.652344 363.855469 C 198.34375 363.847656 198.042969 363.84375 197.738281 363.839844 C 196.769531 363.824219 195.8125 364.617188 195.824219 365.628906 C 195.835938 366.617188 196.574219 367.519531 197.609375 367.539062 "/>
</g>
</g>
</g>
</g>
<g clip-path="url(#clip66)" clip-rule="nonzero">
<g clip-path="url(#clip67)" clip-rule="nonzero">
<g clip-path="url(#clip68)" clip-rule="nonzero">
<g clip-path="url(#clip69)" clip-rule="nonzero">
<path style=" stroke:none;fill-rule:nonzero;fill:rgb(91.369629%,78.42865%,76.469421%);fill-opacity:1;" d="M 104.589844 340.503906 C 106.707031 340.535156 108.820312 340.570312 110.941406 340.601562 C 111.242188 340.605469 111.554688 340.613281 111.855469 340.613281 C 112.820312 340.628906 113.777344 339.839844 113.765625 338.828125 C 113.757812 337.835938 113.019531 336.933594 111.980469 336.917969 C 109.863281 336.882812 107.746094 336.851562 105.628906 336.820312 C 105.324219 336.816406 105.019531 336.8125 104.714844 336.804688 C 103.746094 336.792969 102.792969 337.582031 102.804688 338.597656 C 102.8125 339.585938 103.550781 340.488281 104.589844 340.503906 "/>
</g>
</g>
</g>
</g>
<g clip-path="url(#clip70)" clip-rule="nonzero">
<g clip-path="url(#clip71)" clip-rule="nonzero">
<g clip-path="url(#clip72)" clip-rule="nonzero">
<g clip-path="url(#clip73)" clip-rule="nonzero">
<path style=" stroke:none;fill-rule:nonzero;fill:rgb(91.369629%,78.42865%,76.469421%);fill-opacity:1;" d="M 110.4375 309.550781 C 112.554688 309.582031 114.675781 309.617188 116.789062 309.648438 C 117.097656 309.652344 117.402344 309.65625 117.707031 309.664062 C 118.671875 309.679688 119.625 308.886719 119.617188 307.871094 C 119.605469 306.882812 118.867188 305.980469 117.832031 305.960938 C 115.714844 305.933594 113.59375 305.898438 111.476562 305.867188 C 111.171875 305.863281 110.867188 305.855469 110.5625 305.851562 C 109.597656 305.835938 108.640625 306.632812 108.652344 307.640625 C 108.660156 308.628906 109.402344 309.535156 110.4375 309.550781 "/>
</g>
</g>
</g>
</g>
<g clip-path="url(#clip74)" clip-rule="nonzero">
<g clip-path="url(#clip75)" clip-rule="nonzero">
<g clip-path="url(#clip76)" clip-rule="nonzero">
<g clip-path="url(#clip77)" clip-rule="nonzero">
<path style=" stroke:none;fill-rule:nonzero;fill:rgb(91.369629%,78.42865%,76.469421%);fill-opacity:1;" d="M 143.984375 319.261719 C 146.101562 319.296875 148.21875 319.328125 150.335938 319.363281 C 150.644531 319.367188 150.949219 319.371094 151.25 319.375 C 152.21875 319.390625 153.171875 318.597656 153.160156 317.585938 C 153.15625 316.597656 152.414062 315.691406 151.375 315.679688 C 149.261719 315.644531 147.140625 315.613281 145.023438 315.578125 C 144.722656 315.578125 144.417969 315.570312 144.109375 315.566406 C 143.140625 315.550781 142.1875 316.34375 142.199219 317.355469 C 142.210938 318.34375 142.945312 319.25 143.984375 319.261719 "/>
</g>
</g>
</g>
</g>
<g clip-path="url(#clip78)" clip-rule="nonzero">
<g clip-path="url(#clip79)" clip-rule="nonzero">
<g clip-path="url(#clip80)" clip-rule="nonzero">
<g clip-path="url(#clip81)" clip-rule="nonzero">
<path style=" stroke:none;fill-rule:nonzero;fill:rgb(91.369629%,78.42865%,76.469421%);fill-opacity:1;" d="M 93.503906 324.652344 C 95.625 324.683594 97.742188 324.714844 99.859375 324.75 C 100.164062 324.753906 100.46875 324.753906 100.773438 324.761719 C 101.738281 324.777344 102.695312 323.984375 102.683594 322.972656 C 102.671875 321.984375 101.933594 321.082031 100.898438 321.066406 C 98.78125 321.03125 96.664062 321 94.542969 320.96875 C 94.238281 320.960938 93.9375 320.957031 93.632812 320.953125 C 92.664062 320.941406 91.707031 321.730469 91.71875 322.742188 C 91.730469 323.730469 92.46875 324.632812 93.503906 324.652344 "/>
</g>
</g>
</g>
</g>
<g clip-path="url(#clip82)" clip-rule="nonzero">
<g clip-path="url(#clip83)" clip-rule="nonzero">
<g clip-path="url(#clip84)" clip-rule="nonzero">
<g clip-path="url(#clip85)" clip-rule="nonzero">
<path style=" stroke:none;fill-rule:nonzero;fill:rgb(91.369629%,78.42865%,76.469421%);fill-opacity:1;" d="M 121.324219 355.0625 C 123.441406 355.097656 125.554688 355.125 127.675781 355.160156 C 127.980469 355.164062 128.28125 355.167969 128.585938 355.175781 C 129.554688 355.1875 130.511719 354.394531 130.5 353.382812 C 130.488281 352.394531 129.753906 351.492188 128.714844 351.476562 C 126.59375 351.441406 124.480469 351.414062 122.363281 351.375 C 122.058594 351.371094 121.75 351.367188 121.449219 351.363281 C 120.480469 351.351562 119.527344 352.140625 119.539062 353.152344 C 119.546875 354.144531 120.285156 355.046875 121.324219 355.0625 "/>
</g>
</g>
</g>
</g>
<g clip-path="url(#clip86)" clip-rule="nonzero">
<g clip-path="url(#clip87)" clip-rule="nonzero">
<g clip-path="url(#clip88)" clip-rule="nonzero">
<g clip-path="url(#clip89)" clip-rule="nonzero">
<path style=" stroke:none;fill-rule:nonzero;fill:rgb(91.369629%,78.42865%,76.469421%);fill-opacity:1;" d="M 137.371094 344.1875 C 139.488281 344.214844 141.609375 344.25 143.726562 344.28125 C 144.03125 344.285156 144.335938 344.289062 144.640625 344.292969 C 145.605469 344.3125 146.5625 343.519531 146.550781 342.507812 C 146.542969 341.519531 145.804688 340.613281 144.765625 340.597656 C 142.648438 340.566406 140.527344 340.53125 138.414062 340.5 C 138.105469 340.496094 137.800781 340.492188 137.496094 340.484375 C 136.53125 340.46875 135.574219 341.265625 135.585938 342.277344 C 135.597656 343.261719 136.335938 344.167969 137.371094 344.1875 "/>
</g>
</g>
</g>
</g>
<g clip-path="url(#clip90)" clip-rule="nonzero">
<g clip-path="url(#clip91)" clip-rule="nonzero">
<g clip-path="url(#clip92)" clip-rule="nonzero">
<g clip-path="url(#clip93)" clip-rule="nonzero">
<path style=" stroke:none;fill-rule:nonzero;fill:rgb(91.369629%,78.42865%,76.469421%);fill-opacity:1;" d="M 79.398438 289.703125 C 81.515625 289.734375 83.632812 289.765625 85.753906 289.796875 C 86.058594 289.804688 86.363281 289.808594 86.667969 289.8125 C 87.632812 289.828125 88.589844 289.035156 88.578125 288.023438 C 88.566406 287.035156 87.832031 286.128906 86.792969 286.113281 C 84.675781 286.082031 82.554688 286.050781 80.4375 286.015625 C 80.132812 286.015625 79.832031 286.007812 79.527344 286.003906 C 78.558594 285.988281 77.601562 286.78125 77.613281 287.792969 C 77.625 288.78125 78.363281 289.683594 79.398438 289.703125 "/>
</g>
</g>
</g>
</g>
<g clip-path="url(#clip94)" clip-rule="nonzero">
<g clip-path="url(#clip95)" clip-rule="nonzero">
<g clip-path="url(#clip96)" clip-rule="nonzero">
<g clip-path="url(#clip97)" clip-rule="nonzero">
<path style=" stroke:none;fill-rule:nonzero;fill:rgb(91.369629%,78.42865%,76.469421%);fill-opacity:1;" d="M 7.332031 294.988281 C 9.449219 295.023438 11.566406 295.054688 13.683594 295.085938 C 13.988281 295.089844 14.292969 295.097656 14.601562 295.101562 C 15.566406 295.113281 16.523438 294.324219 16.511719 293.3125 C 16.5 292.324219 15.761719 291.417969 14.722656 291.402344 C 12.609375 291.367188 10.492188 291.339844 8.371094 291.304688 C 8.066406 291.300781 7.761719 291.296875 7.457031 291.289062 C 6.492188 291.277344 5.535156 292.070312 5.546875 293.078125 C 5.558594 294.066406 6.296875 294.972656 7.332031 294.988281 "/>
</g>
</g>
</g>
</g>
<g clip-path="url(#clip98)" clip-rule="nonzero">
<g clip-path="url(#clip99)" clip-rule="nonzero">
<g clip-path="url(#clip100)" clip-rule="nonzero">
<g clip-path="url(#clip101)" clip-rule="nonzero">
<path style=" stroke:none;fill-rule:nonzero;fill:rgb(91.369629%,78.42865%,76.469421%);fill-opacity:1;" d="M 6.90625 274.183594 C 9.027344 274.21875 11.144531 274.246094 13.261719 274.28125 C 13.566406 274.285156 13.871094 274.292969 14.175781 274.292969 C 15.144531 274.308594 16.097656 273.515625 16.085938 272.503906 C 16.074219 271.515625 15.339844 270.609375 14.300781 270.597656 C 12.183594 270.5625 10.066406 270.53125 7.949219 270.496094 C 7.644531 270.496094 7.339844 270.492188 7.035156 270.484375 C 6.066406 270.46875 5.113281 271.261719 5.121094 272.277344 C 5.132812 273.265625 5.871094 274.167969 6.90625 274.183594 "/>
</g>
</g>
</g>
</g>
<g clip-path="url(#clip102)" clip-rule="nonzero">
<g clip-path="url(#clip103)" clip-rule="nonzero">
<g clip-path="url(#clip104)" clip-rule="nonzero">
<g clip-path="url(#clip105)" clip-rule="nonzero">
<path style=" stroke:none;fill-rule:nonzero;fill:rgb(91.369629%,78.42865%,76.469421%);fill-opacity:1;" d="M 53.160156 263.476562 C 55.273438 263.507812 57.394531 263.542969 59.507812 263.574219 C 59.8125 263.578125 60.121094 263.582031 60.425781 263.585938 C 61.394531 263.601562 62.347656 262.8125 62.335938 261.800781 C 62.328125 260.808594 61.589844 259.90625 60.550781 259.890625 C 58.433594 259.855469 56.316406 259.824219 54.199219 259.792969 C 53.894531 259.785156 53.585938 259.785156 53.28125 259.777344 C 52.316406 259.761719 51.363281 260.554688 51.371094 261.566406 C 51.378906 262.558594 52.121094 263.460938 53.160156 263.476562 "/>
</g>
</g>
</g>
</g>
<g clip-path="url(#clip106)" clip-rule="nonzero">
<g clip-path="url(#clip107)" clip-rule="nonzero">
<g clip-path="url(#clip108)" clip-rule="nonzero">
<g clip-path="url(#clip109)" clip-rule="nonzero">
<path style=" stroke:none;fill-rule:nonzero;fill:rgb(91.369629%,78.42865%,76.469421%);fill-opacity:1;" d="M 43.710938 377.972656 C 45.828125 378.003906 47.949219 378.035156 50.066406 378.066406 C 50.371094 378.070312 50.675781 378.078125 50.980469 378.082031 C 51.949219 378.09375 52.902344 377.304688 52.890625 376.292969 C 52.878906 375.304688 52.144531 374.398438 51.105469 374.382812 C 48.988281 374.351562 46.867188 374.320312 44.753906 374.285156 C 44.445312 374.28125 44.140625 374.277344 43.835938 374.273438 C 42.871094 374.257812 41.914062 375.050781 41.925781 376.0625 C 41.9375 377.050781 42.675781 377.953125 43.710938 377.972656 "/>
</g>
</g>
</g>
</g>
<g clip-path="url(#clip110)" clip-rule="nonzero">
<g clip-path="url(#clip111)" clip-rule="nonzero">
<g clip-path="url(#clip112)" clip-rule="nonzero">
<g clip-path="url(#clip113)" clip-rule="nonzero">
<path style=" stroke:none;fill-rule:nonzero;fill:rgb(91.369629%,78.42865%,76.469421%);fill-opacity:1;" d="M 80.398438 342.957031 C 82.511719 342.992188 84.632812 343.023438 86.753906 343.058594 C 87.054688 343.0625 87.359375 343.066406 87.664062 343.070312 C 88.632812 343.085938 89.589844 342.292969 89.578125 341.28125 C 89.566406 340.292969 88.828125 339.386719 87.792969 339.375 C 85.671875 339.339844 83.558594 339.308594 81.4375 339.273438 C 81.132812 339.269531 80.828125 339.265625 80.523438 339.261719 C 79.558594 339.246094 78.601562 340.039062 78.613281 341.046875 C 78.621094 342.039062 79.359375 342.945312 80.398438 342.957031 "/>
</g>
</g>
</g>
</g>
<g clip-path="url(#clip114)" clip-rule="nonzero">
<g clip-path="url(#clip115)" clip-rule="nonzero">
<g clip-path="url(#clip116)" clip-rule="nonzero">
<g clip-path="url(#clip117)" clip-rule="nonzero">
<path style=" stroke:none;fill-rule:nonzero;fill:rgb(91.369629%,78.42865%,76.469421%);fill-opacity:1;" d="M 94.902344 229.074219 C 97.019531 229.101562 99.132812 229.136719 101.253906 229.167969 C 101.5625 229.171875 101.863281 229.179688 102.167969 229.183594 C 103.132812 229.195312 104.089844 228.40625 104.082031 227.394531 C 104.070312 226.40625 103.332031 225.5 102.296875 225.484375 C 100.179688 225.453125 98.058594 225.417969 95.941406 225.390625 C 95.636719 225.382812 95.332031 225.378906 95.027344 225.375 C 94.058594 225.359375 93.105469 226.152344 93.117188 227.164062 C 93.125 228.152344 93.863281 229.058594 94.902344 229.074219 "/>
</g>
</g>
</g>
</g>
<g clip-path="url(#clip118)" clip-rule="nonzero">
<g clip-path="url(#clip119)" clip-rule="nonzero">
<g clip-path="url(#clip120)" clip-rule="nonzero">
<g clip-path="url(#clip121)" clip-rule="nonzero">
<path style=" stroke:none;fill-rule:nonzero;fill:rgb(91.369629%,78.42865%,76.469421%);fill-opacity:1;" d="M 182.359375 350.753906 C 184.476562 350.785156 186.59375 350.816406 188.714844 350.851562 C 189.015625 350.855469 189.320312 350.859375 189.625 350.867188 C 190.59375 350.878906 191.550781 350.085938 191.539062 349.074219 C 191.527344 348.085938 190.789062 347.183594 189.753906 347.167969 C 187.632812 347.132812 185.515625 347.105469 183.398438 347.066406 C 183.09375 347.066406 182.789062 347.058594 182.488281 347.054688 C 181.515625 347.042969 180.5625 347.835938 180.570312 348.84375 C 180.585938 349.835938 181.324219 350.738281 182.359375 350.753906 "/>
</g>
</g>
</g>
</g>
<g clip-path="url(#clip122)" clip-rule="nonzero">
<g clip-path="url(#clip123)" clip-rule="nonzero">
<g clip-path="url(#clip124)" clip-rule="nonzero">
<g clip-path="url(#clip125)" clip-rule="nonzero">
<path style=" stroke:none;fill-rule:nonzero;fill:rgb(91.369629%,78.42865%,76.469421%);fill-opacity:1;" d="M 97.652344 360.769531 C 99.769531 360.804688 101.886719 360.835938 104.003906 360.871094 C 104.3125 360.871094 104.617188 360.878906 104.917969 360.882812 C 105.886719 360.898438 106.84375 360.105469 106.832031 359.09375 C 106.824219 358.105469 106.082031 357.199219 105.046875 357.183594 C 102.929688 357.152344 100.808594 357.121094 98.695312 357.085938 C 98.390625 357.082031 98.085938 357.078125 97.78125 357.074219 C 96.8125 357.058594 95.855469 357.851562 95.867188 358.863281 C 95.878906 359.851562 96.617188 360.753906 97.652344 360.769531 "/>
</g>
</g>
</g>
</g>
<g clip-path="url(#clip126)" clip-rule="nonzero">
<g clip-path="url(#clip127)" clip-rule="nonzero">
<g clip-path="url(#clip128)" clip-rule="nonzero">
<g clip-path="url(#clip129)" clip-rule="nonzero">
<path style=" stroke:none;fill-rule:nonzero;fill:rgb(91.369629%,78.42865%,76.469421%);fill-opacity:1;" d="M 78.878906 269.523438 C 80.996094 269.558594 83.109375 269.589844 85.230469 269.621094 C 85.535156 269.628906 85.84375 269.628906 86.144531 269.636719 C 87.109375 269.648438 88.066406 268.859375 88.058594 267.847656 C 88.046875 266.855469 87.308594 265.953125 86.269531 265.9375 C 84.15625 265.90625 82.035156 265.871094 79.917969 265.839844 C 79.613281 265.835938 79.308594 265.832031 79.003906 265.828125 C 78.035156 265.8125 77.082031 266.601562 77.09375 267.613281 C 77.101562 268.605469 77.839844 269.507812 78.878906 269.523438 "/>
</g>
</g>
</g>
</g>
<g clip-path="url(#clip130)" clip-rule="nonzero">
<g clip-path="url(#clip131)" clip-rule="nonzero">
<g clip-path="url(#clip132)" clip-rule="nonzero">
<g clip-path="url(#clip133)" clip-rule="nonzero">
<path style=" stroke:none;fill-rule:nonzero;fill:rgb(91.369629%,78.42865%,76.469421%);fill-opacity:1;" d="M 90.328125 250.832031 C 92.449219 250.867188 94.566406 250.898438 96.679688 250.933594 C 96.984375 250.9375 97.292969 250.941406 97.597656 250.945312 C 98.566406 250.960938 99.519531 250.171875 99.507812 249.160156 C 99.5 248.167969 98.757812 247.261719 97.722656 247.246094 C 95.605469 247.214844 93.488281 247.183594 91.371094 247.152344 C 91.066406 247.148438 90.761719 247.140625 90.457031 247.136719 C 89.488281 247.121094 88.53125 247.914062 88.542969 248.925781 C 88.554688 249.914062 89.296875 250.820312 90.328125 250.832031 "/>
</g>
</g>
</g>
</g>
<g clip-path="url(#clip134)" clip-rule="nonzero">
<g clip-path="url(#clip135)" clip-rule="nonzero">
<g clip-path="url(#clip136)" clip-rule="nonzero">
<g clip-path="url(#clip137)" clip-rule="nonzero">
<path style=" stroke:none;fill-rule:nonzero;fill:rgb(91.369629%,78.42865%,76.469421%);fill-opacity:1;" d="M 178.667969 320.8125 C 180.785156 320.84375 182.902344 320.875 185.023438 320.90625 C 185.328125 320.914062 185.632812 320.917969 185.9375 320.921875 C 186.902344 320.933594 187.859375 320.144531 187.847656 319.132812 C 187.835938 318.140625 187.097656 317.238281 186.0625 317.222656 C 183.945312 317.195312 181.828125 317.160156 179.707031 317.125 C 179.40625 317.121094 179.097656 317.117188 178.792969 317.113281 C 177.828125 317.097656 176.871094 317.890625 176.882812 318.902344 C 176.894531 319.890625 177.632812 320.792969 178.667969 320.8125 "/>
</g>
</g>
</g>
</g>
<g clip-path="url(#clip138)" clip-rule="nonzero">
<g clip-path="url(#clip139)" clip-rule="nonzero">
<g clip-path="url(#clip140)" clip-rule="nonzero">
<g clip-path="url(#clip141)" clip-rule="nonzero">
<path style=" stroke:none;fill-rule:nonzero;fill:rgb(91.369629%,78.42865%,76.469421%);fill-opacity:1;" d="M 125.339844 373.382812 C 127.457031 373.414062 129.578125 373.449219 131.691406 373.480469 C 131.996094 373.484375 132.304688 373.488281 132.609375 373.496094 C 133.574219 373.511719 134.527344 372.71875 134.519531 371.707031 C 134.507812 370.714844 133.769531 369.8125 132.734375 369.792969 C 130.617188 369.761719 128.5 369.734375 126.378906 369.699219 C 126.074219 369.695312 125.769531 369.6875 125.464844 369.6875 C 124.5 369.671875 123.542969 370.464844 123.554688 371.472656 C 123.566406 372.464844 124.304688 373.371094 125.339844 373.382812 "/>
</g>
</g>
</g>
</g>
<g clip-path="url(#clip142)" clip-rule="nonzero">
<g clip-path="url(#clip143)" clip-rule="nonzero">
<g clip-path="url(#clip144)" clip-rule="nonzero">
<g clip-path="url(#clip145)" clip-rule="nonzero">
<path style=" stroke:none;fill-rule:nonzero;fill:rgb(91.369629%,78.42865%,76.469421%);fill-opacity:1;" d="M 130.105469 304.210938 C 132.21875 304.242188 134.339844 304.277344 136.457031 304.308594 C 136.761719 304.3125 137.066406 304.320312 137.371094 304.320312 C 138.339844 304.335938 139.292969 303.546875 139.28125 302.535156 C 139.273438 301.542969 138.535156 300.640625 137.496094 300.625 C 135.378906 300.59375 133.261719 300.558594 131.144531 300.527344 C 130.839844 300.519531 130.53125 300.519531 130.226562 300.511719 C 129.261719 300.5 128.308594 301.289062 128.316406 302.300781 C 128.328125 303.289062 129.066406 304.195312 130.105469 304.210938 "/>
</g>
</g>
</g>
</g>
<g clip-path="url(#clip146)" clip-rule="nonzero">
<g clip-path="url(#clip147)" clip-rule="nonzero">
<g clip-path="url(#clip148)" clip-rule="nonzero">
<g clip-path="url(#clip149)" clip-rule="nonzero">
<path style=" stroke:none;fill-rule:nonzero;fill:rgb(91.369629%,78.42865%,76.469421%);fill-opacity:1;" d="M 110.839844 244.195312 C 112.957031 244.226562 115.074219 244.257812 117.191406 244.289062 C 117.5 244.296875 117.800781 244.300781 118.105469 244.304688 C 119.074219 244.320312 120.03125 243.527344 120.019531 242.515625 C 120.007812 241.527344 119.269531 240.625 118.234375 240.605469 C 116.113281 240.574219 113.996094 240.542969 111.878906 240.507812 C 111.574219 240.503906 111.273438 240.5 110.96875 240.496094 C 110 240.480469 109.042969 241.273438 109.054688 242.285156 C 109.066406 243.273438 109.804688 244.175781 110.839844 244.195312 "/>
</g>
</g>
</g>
</g>
<g clip-path="url(#clip150)" clip-rule="nonzero">
<g clip-path="url(#clip151)" clip-rule="nonzero">
<g clip-path="url(#clip152)" clip-rule="nonzero">
<g clip-path="url(#clip153)" clip-rule="nonzero">
<path style=" stroke:none;fill-rule:nonzero;fill:rgb(91.369629%,78.42865%,76.469421%);fill-opacity:1;" d="M 46.15625 304.925781 C 48.273438 304.960938 50.390625 304.996094 52.507812 305.023438 C 52.8125 305.03125 53.121094 305.035156 53.421875 305.039062 C 54.390625 305.054688 55.34375 304.261719 55.335938 303.25 C 55.328125 302.261719 54.585938 301.355469 53.546875 301.339844 C 51.433594 301.308594 49.3125 301.277344 47.199219 301.246094 C 46.894531 301.238281 46.585938 301.238281 46.28125 301.230469 C 45.3125 301.214844 44.359375 302.007812 44.371094 303.019531 C 44.382812 304.007812 45.117188 304.910156 46.15625 304.925781 "/>
</g>
</g>
</g>
</g>
<g clip-path="url(#clip154)" clip-rule="nonzero">
<g clip-path="url(#clip155)" clip-rule="nonzero">
<g clip-path="url(#clip156)" clip-rule="nonzero">
<g clip-path="url(#clip157)" clip-rule="nonzero">
<path style=" stroke:none;fill-rule:nonzero;fill:rgb(91.369629%,78.42865%,76.469421%);fill-opacity:1;" d="M 196.179688 335.121094 C 198.296875 335.152344 200.414062 335.1875 202.53125 335.214844 C 202.835938 335.222656 203.144531 335.226562 203.449219 335.230469 C 204.414062 335.246094 205.367188 334.453125 205.359375 333.441406 C 205.347656 332.453125 204.609375 331.546875 203.570312 331.53125 C 201.453125 331.503906 199.335938 331.46875 197.21875 331.4375 C 196.914062 331.429688 196.609375 331.425781 196.304688 331.421875 C 195.335938 331.40625 194.382812 332.199219 194.394531 333.210938 C 194.402344 334.199219 195.144531 335.105469 196.179688 335.121094 "/>
</g>
</g>
</g>
</g>
<g clip-path="url(#clip158)" clip-rule="nonzero">
<g clip-path="url(#clip159)" clip-rule="nonzero">
<g clip-path="url(#clip160)" clip-rule="nonzero">
<g clip-path="url(#clip161)" clip-rule="nonzero">
<path style=" stroke:none;fill-rule:nonzero;fill:rgb(91.369629%,78.42865%,76.469421%);fill-opacity:1;" d="M 124.246094 328.152344 C 126.367188 328.183594 128.484375 328.214844 130.601562 328.25 C 130.90625 328.253906 131.210938 328.253906 131.515625 328.261719 C 132.484375 328.273438 133.4375 327.484375 133.425781 326.472656 C 133.414062 325.484375 132.675781 324.582031 131.640625 324.5625 C 129.523438 324.53125 127.40625 324.5 125.285156 324.464844 C 124.984375 324.464844 124.679688 324.457031 124.375 324.453125 C 123.40625 324.4375 122.453125 325.226562 122.460938 326.242188 C 122.472656 327.230469 123.210938 328.132812 124.246094 328.152344 "/>
</g>
</g>
</g>
</g>
<g clip-path="url(#clip162)" clip-rule="nonzero">
<g clip-path="url(#clip163)" clip-rule="nonzero">
<g clip-path="url(#clip164)" clip-rule="nonzero">
<g clip-path="url(#clip165)" clip-rule="nonzero">
<path style=" stroke:none;fill-rule:nonzero;fill:rgb(91.369629%,78.42865%,76.469421%);fill-opacity:1;" d="M 120.890625 284.386719 C 123.007812 284.417969 125.125 284.449219 127.246094 284.484375 C 127.546875 284.488281 127.851562 284.492188 128.15625 284.496094 C 129.125 284.511719 130.082031 283.71875 130.070312 282.707031 C 130.058594 281.71875 129.320312 280.816406 128.285156 280.800781 C 126.164062 280.765625 124.050781 280.734375 121.933594 280.699219 C 121.625 280.699219 121.324219 280.695312 121.015625 280.691406 C 120.050781 280.675781 119.09375 281.464844 119.101562 282.476562 C 119.117188 283.46875 119.851562 284.371094 120.890625 284.386719 "/>
</g>
</g>
</g>
</g>
<g clip-path="url(#clip166)" clip-rule="nonzero">
<g clip-path="url(#clip167)" clip-rule="nonzero">
<g clip-path="url(#clip168)" clip-rule="nonzero">
<g clip-path="url(#clip169)" clip-rule="nonzero">
<path style=" stroke:none;fill-rule:nonzero;fill:rgb(91.369629%,78.42865%,76.469421%);fill-opacity:1;" d="M 27.925781 294.570312 C 30.042969 294.605469 32.160156 294.636719 34.277344 294.667969 C 34.582031 294.675781 34.886719 294.679688 35.191406 294.679688 C 36.160156 294.695312 37.113281 293.90625 37.101562 292.894531 C 37.09375 291.90625 36.355469 291 35.320312 290.984375 C 33.203125 290.949219 31.085938 290.917969 28.964844 290.886719 C 28.660156 290.878906 28.355469 290.878906 28.050781 290.875 C 27.085938 290.859375 26.128906 291.648438 26.140625 292.664062 C 26.148438 293.652344 26.886719 294.554688 27.925781 294.570312 "/>
</g>
</g>
</g>
</g>
<g clip-path="url(#clip170)" clip-rule="nonzero">
<g clip-path="url(#clip171)" clip-rule="nonzero">
<g clip-path="url(#clip172)" clip-rule="nonzero">
<g clip-path="url(#clip173)" clip-rule="nonzero">
<path style=" stroke:none;fill-rule:nonzero;fill:rgb(91.369629%,78.42865%,76.469421%);fill-opacity:1;" d="M 161.714844 329.964844 C 163.828125 329.996094 165.949219 330.03125 168.066406 330.0625 C 168.371094 330.066406 168.675781 330.074219 168.976562 330.074219 C 169.949219 330.089844 170.902344 329.296875 170.890625 328.285156 C 170.878906 327.296875 170.140625 326.394531 169.105469 326.378906 C 166.988281 326.347656 164.867188 326.3125 162.75 326.277344 C 162.449219 326.273438 162.140625 326.273438 161.839844 326.265625 C 160.871094 326.25 159.914062 327.042969 159.925781 328.054688 C 159.9375 329.046875 160.675781 329.949219 161.714844 329.964844 "/>
</g>
</g>
</g>
</g>
<g clip-path="url(#clip174)" clip-rule="nonzero">
<g clip-path="url(#clip175)" clip-rule="nonzero">
<g clip-path="url(#clip176)" clip-rule="nonzero">
<g clip-path="url(#clip177)" clip-rule="nonzero">
<path style=" stroke:none;fill-rule:nonzero;fill:rgb(91.369629%,78.42865%,76.469421%);fill-opacity:1;" d="M 56.097656 285.257812 C 58.214844 285.292969 60.332031 285.324219 62.449219 285.355469 C 62.753906 285.359375 63.058594 285.367188 63.363281 285.371094 C 64.332031 285.382812 65.289062 284.59375 65.277344 283.582031 C 65.265625 282.59375 64.527344 281.691406 63.492188 281.671875 C 61.371094 281.640625 59.253906 281.609375 57.136719 281.574219 C 56.832031 281.570312 56.527344 281.570312 56.222656 281.5625 C 55.257812 281.546875 54.300781 282.339844 54.3125 283.351562 C 54.324219 284.339844 55.0625 285.242188 56.097656 285.257812 "/>
</g>
</g>
</g>
</g>
<g clip-path="url(#clip178)" clip-rule="nonzero">
<g clip-path="url(#clip179)" clip-rule="nonzero">
<g clip-path="url(#clip180)" clip-rule="nonzero">
<g clip-path="url(#clip181)" clip-rule="nonzero">
<path style=" stroke:none;fill-rule:nonzero;fill:rgb(91.369629%,78.42865%,76.469421%);fill-opacity:1;" d="M 85.742188 307.742188 C 87.859375 307.769531 89.976562 307.804688 92.09375 307.835938 C 92.398438 307.839844 92.703125 307.847656 93.007812 307.851562 C 93.976562 307.867188 94.929688 307.070312 94.921875 306.0625 C 94.910156 305.074219 94.167969 304.167969 93.132812 304.152344 C 91.015625 304.121094 88.898438 304.085938 86.78125 304.054688 C 86.476562 304.050781 86.171875 304.046875 85.867188 304.039062 C 84.898438 304.023438 83.945312 304.816406 83.953125 305.832031 C 83.964844 306.820312 84.707031 307.722656 85.742188 307.742188 "/>
</g>
</g>
</g>
</g>
<g clip-path="url(#clip182)" clip-rule="nonzero">
<g clip-path="url(#clip183)" clip-rule="nonzero">
<g clip-path="url(#clip184)" clip-rule="nonzero">
<g clip-path="url(#clip185)" clip-rule="nonzero">
<path style=" stroke:none;fill-rule:nonzero;fill:rgb(91.369629%,78.42865%,76.469421%);fill-opacity:1;" d="M 229.726562 355.9375 C 231.847656 355.96875 233.960938 356.003906 236.082031 356.035156 C 236.386719 356.042969 236.691406 356.046875 236.996094 356.046875 C 237.960938 356.0625 238.917969 355.273438 238.90625 354.261719 C 238.894531 353.269531 238.15625 352.367188 237.121094 352.351562 C 235.003906 352.320312 232.886719 352.285156 230.769531 352.253906 C 230.464844 352.25 230.160156 352.242188 229.851562 352.242188 C 228.886719 352.226562 227.929688 353.015625 227.941406 354.027344 C 227.953125 355.015625 228.691406 355.921875 229.726562 355.9375 "/>
</g>
</g>
</g>
</g>
<g clip-path="url(#clip186)" clip-rule="nonzero">
<g clip-path="url(#clip187)" clip-rule="nonzero">
<g clip-path="url(#clip188)" clip-rule="nonzero">
<g clip-path="url(#clip189)" clip-rule="nonzero">
<path style=" stroke:none;fill-rule:nonzero;fill:rgb(91.369629%,78.42865%,76.469421%);fill-opacity:1;" d="M 171.703125 370.71875 C 173.824219 370.753906 175.941406 370.78125 178.054688 370.816406 C 178.363281 370.820312 178.664062 370.824219 178.96875 370.832031 C 179.9375 370.84375 180.894531 370.050781 180.882812 369.039062 C 180.871094 368.050781 180.132812 367.148438 179.097656 367.132812 C 176.980469 367.097656 174.863281 367.070312 172.746094 367.03125 C 172.4375 367.03125 172.136719 367.027344 171.832031 367.019531 C 170.863281 367.007812 169.90625 367.800781 169.917969 368.8125 C 169.929688 369.800781 170.667969 370.703125 171.703125 370.71875 "/>
</g>
</g>
</g>
</g>
<g clip-path="url(#clip190)" clip-rule="nonzero">
<g clip-path="url(#clip191)" clip-rule="nonzero">
<g clip-path="url(#clip192)" clip-rule="nonzero">
<g clip-path="url(#clip193)" clip-rule="nonzero">
<path style=" stroke:none;fill-rule:nonzero;fill:rgb(91.369629%,78.42865%,76.469421%);fill-opacity:1;" d="M 40.734375 352.359375 C 42.851562 352.390625 44.96875 352.421875 47.089844 352.457031 C 47.390625 352.457031 47.695312 352.464844 48 352.46875 C 48.96875 352.480469 49.925781 351.691406 49.914062 350.679688 C 49.902344 349.691406 49.164062 348.785156 48.128906 348.769531 C 46.007812 348.738281 43.890625 348.707031 41.773438 348.671875 C 41.46875 348.667969 41.164062 348.664062 40.859375 348.660156 C 39.894531 348.644531 38.9375 349.4375 38.949219 350.449219 C 38.957031 351.4375 39.695312 352.339844 40.734375 352.359375 "/>
</g>
</g>
</g>
</g>
<g clip-path="url(#clip194)" clip-rule="nonzero">
<g clip-path="url(#clip195)" clip-rule="nonzero">
<g clip-path="url(#clip196)" clip-rule="nonzero">
<g clip-path="url(#clip197)" clip-rule="nonzero">
<path style=" stroke:none;fill-rule:nonzero;fill:rgb(91.369629%,78.42865%,76.469421%);fill-opacity:1;" d="M 26.445312 318.949219 C 28.566406 318.984375 30.683594 319.011719 32.800781 319.046875 C 33.105469 319.050781 33.410156 319.054688 33.714844 319.0625 C 34.679688 319.074219 35.636719 318.28125 35.625 317.269531 C 35.617188 316.28125 34.878906 315.378906 33.84375 315.363281 C 31.722656 315.328125 29.605469 315.300781 27.488281 315.265625 C 27.179688 315.261719 26.878906 315.253906 26.574219 315.25 C 25.609375 315.238281 24.652344 316.027344 24.660156 317.042969 C 24.671875 318.03125 25.410156 318.933594 26.445312 318.949219 "/>
</g>
</g>
</g>
</g>
<g clip-path="url(#clip198)" clip-rule="nonzero">
<g clip-path="url(#clip199)" clip-rule="nonzero">
<g clip-path="url(#clip200)" clip-rule="nonzero">
<g clip-path="url(#clip201)" clip-rule="nonzero">
<path style=" stroke:none;fill-rule:nonzero;fill:rgb(91.369629%,78.42865%,76.469421%);fill-opacity:1;" d="M 33.476562 275.484375 C 35.59375 275.515625 37.710938 275.550781 39.828125 275.582031 C 40.136719 275.585938 40.441406 275.589844 40.746094 275.597656 C 41.710938 275.609375 42.667969 274.820312 42.65625 273.808594 C 42.648438 272.816406 41.90625 271.914062 40.871094 271.898438 C 38.753906 271.863281 36.632812 271.832031 34.515625 271.800781 C 34.210938 271.796875 33.90625 271.789062 33.601562 271.785156 C 32.632812 271.773438 31.679688 272.5625 31.691406 273.574219 C 31.703125 274.5625 32.441406 275.46875 33.476562 275.484375 "/>
</g>
</g>
</g>
</g>
<g clip-path="url(#clip202)" clip-rule="nonzero">
<g clip-path="url(#clip203)" clip-rule="nonzero">
<g clip-path="url(#clip204)" clip-rule="nonzero">
<g clip-path="url(#clip205)" clip-rule="nonzero">
<path style=" stroke:none;fill-rule:nonzero;fill:rgb(91.369629%,78.42865%,76.469421%);fill-opacity:1;" d="M 59.382812 332.488281 C 61.496094 332.523438 63.617188 332.554688 65.734375 332.589844 C 66.039062 332.59375 66.34375 332.597656 66.648438 332.601562 C 67.617188 332.617188 68.570312 331.824219 68.558594 330.8125 C 68.546875 329.824219 67.8125 328.917969 66.773438 328.90625 C 64.65625 328.871094 62.539062 328.835938 60.421875 328.804688 C 60.117188 328.800781 59.808594 328.796875 59.507812 328.792969 C 58.539062 328.777344 57.585938 329.570312 57.59375 330.578125 C 57.605469 331.570312 58.34375 332.476562 59.382812 332.488281 "/>
</g>
</g>
</g>
</g>
<g clip-path="url(#clip206)" clip-rule="nonzero">
<g clip-path="url(#clip207)" clip-rule="nonzero">
<g clip-path="url(#clip208)" clip-rule="nonzero">
<g clip-path="url(#clip209)" clip-rule="nonzero">
<path style=" stroke:none;fill-rule:nonzero;fill:rgb(91.369629%,78.42865%,76.469421%);fill-opacity:1;" d="M 203.996094 316.183594 C 206.113281 316.210938 208.230469 316.246094 210.347656 316.277344 C 210.652344 316.28125 210.957031 316.285156 211.265625 316.289062 C 212.230469 316.308594 213.1875 315.515625 213.175781 314.503906 C 213.164062 313.515625 212.425781 312.605469 211.386719 312.589844 C 209.269531 312.5625 207.15625 312.527344 205.035156 312.496094 C 204.730469 312.492188 204.425781 312.488281 204.121094 312.480469 C 203.152344 312.464844 202.195312 313.257812 202.207031 314.269531 C 202.21875 315.257812 202.960938 316.164062 203.996094 316.183594 "/>
</g>
</g>
</g>
</g>
<g clip-path="url(#clip210)" clip-rule="nonzero">
<g clip-path="url(#clip211)" clip-rule="nonzero">
<g clip-path="url(#clip212)" clip-rule="nonzero">
<g clip-path="url(#clip213)" clip-rule="nonzero">
<path style=" stroke:none;fill-rule:nonzero;fill:rgb(91.369629%,78.42865%,76.469421%);fill-opacity:1;" d="M 57.480469 357.757812 C 59.597656 357.792969 61.714844 357.824219 63.832031 357.859375 C 64.136719 357.863281 64.445312 357.867188 64.746094 357.871094 C 65.714844 357.886719 66.667969 357.09375 66.660156 356.085938 C 66.652344 355.09375 65.910156 354.1875 64.871094 354.175781 C 62.757812 354.140625 60.636719 354.109375 58.519531 354.074219 C 58.21875 354.074219 57.914062 354.066406 57.605469 354.0625 C 56.636719 354.046875 55.683594 354.839844 55.695312 355.851562 C 55.707031 356.839844 56.441406 357.746094 57.480469 357.757812 "/>
</g>
</g>
</g>
</g>
<g clip-path="url(#clip214)" clip-rule="nonzero">
<g clip-path="url(#clip215)" clip-rule="nonzero">
<g clip-path="url(#clip216)" clip-rule="nonzero">
<g clip-path="url(#clip217)" clip-rule="nonzero">
<path style=" stroke:none;fill-rule:nonzero;fill:rgb(91.369629%,78.42865%,76.469421%);fill-opacity:1;" d="M 65.425781 314.570312 C 67.546875 314.605469 69.664062 314.636719 71.78125 314.667969 C 72.085938 314.675781 72.390625 314.675781 72.695312 314.679688 C 73.660156 314.699219 74.617188 313.90625 74.605469 312.890625 C 74.59375 311.90625 73.859375 311 72.820312 310.984375 C 70.703125 310.953125 68.585938 310.921875 66.46875 310.886719 C 66.160156 310.882812 65.859375 310.878906 65.554688 310.875 C 64.585938 310.859375 63.632812 311.648438 63.640625 312.664062 C 63.652344 313.652344 64.390625 314.554688 65.425781 314.570312 "/>
</g>
</g>
</g>
</g>
<path style=" stroke:none;fill-rule:nonzero;fill:rgb(16.468811%,8.239746%,6.269836%);fill-opacity:1;" d="M 279.121094 176.9375 C 277.550781 181 276.589844 185.203125 276.234375 189.546875 C 275.710938 194.410156 275.300781 200.535156 278.074219 204.765625 C 278.660156 205.730469 279.367188 206.59375 280.203125 207.351562 C 281.039062 208.113281 281.964844 208.734375 282.984375 209.222656 C 284 209.710938 285.066406 210.042969 286.183594 210.21875 C 287.296875 210.398438 288.414062 210.410156 289.53125 210.261719 C 290.644531 210.125 291.71875 209.828125 292.742188 209.371094 C 293.769531 208.914062 294.710938 208.320312 295.558594 207.589844 C 296.410156 206.855469 297.136719 206.015625 297.738281 205.066406 C 298.339844 204.117188 298.792969 203.101562 299.09375 202.019531 C 299.71875 199.574219 299.71875 197.128906 299.09375 194.683594 C 298.898438 193.914062 298.652344 193.171875 298.488281 192.402344 C 298.324219 191.632812 298.074219 190.617188 297.910156 189.65625 C 297.746094 188.695312 297.773438 186.632812 297.910156 189.464844 C 297.910156 186.058594 297.167969 182.652344 297.085938 179.242188 C 297.078125 178.699219 297.023438 178.160156 296.917969 177.625 C 296.8125 177.089844 296.660156 176.570312 296.460938 176.0625 C 296.265625 175.554688 296.023438 175.066406 295.738281 174.601562 C 295.453125 174.136719 295.128906 173.703125 294.765625 173.296875 C 294.402344 172.890625 294.007812 172.519531 293.578125 172.183594 C 293.148438 171.847656 292.691406 171.550781 292.210938 171.296875 C 291.730469 171.042969 291.230469 170.832031 290.710938 170.667969 C 290.191406 170.503906 289.660156 170.386719 289.121094 170.316406 C 288.578125 170.25 288.035156 170.234375 287.492188 170.265625 C 286.949219 170.296875 286.410156 170.378906 285.882812 170.503906 C 285.351562 170.628906 284.835938 170.800781 284.335938 171.019531 C 283.839844 171.234375 283.359375 171.492188 282.90625 171.792969 C 282.453125 172.09375 282.027344 172.433594 281.632812 172.808594 C 281.238281 173.183594 280.878906 173.589844 280.558594 174.03125 C 280.234375 174.46875 279.953125 174.929688 279.710938 175.417969 C 279.46875 175.90625 279.273438 176.414062 279.121094 176.9375 Z M 279.121094 176.9375 "/>
<path style=" stroke:none;fill-rule:nonzero;fill:rgb(16.468811%,8.239746%,6.269836%);fill-opacity:1;" d="M 308.789062 193.28125 C 307.257812 196.679688 306.480469 200.242188 306.457031 203.96875 L 306.207031 206.058594 C 306.371094 204.710938 306.207031 205.617188 306.207031 206.414062 C 305.988281 207.898438 305.742188 209.355469 305.492188 210.8125 C 304.476562 216.691406 307.390625 222.40625 313.734375 223.257812 C 314.4375 223.355469 315.140625 223.375 315.84375 223.324219 C 316.550781 223.273438 317.242188 223.144531 317.921875 222.945312 C 318.597656 222.746094 319.25 222.472656 319.871094 222.132812 C 320.492188 221.796875 321.066406 221.394531 321.601562 220.929688 C 322.136719 220.46875 322.617188 219.953125 323.042969 219.386719 C 323.464844 218.820312 323.828125 218.214844 324.121094 217.574219 C 324.417969 216.929688 324.640625 216.265625 324.792969 215.574219 C 324.945312 214.882812 325.023438 214.183594 325.027344 213.476562 C 324.835938 210.425781 324.585938 207.402344 324.230469 204.382812 C 324.203125 200.496094 323.285156 196.832031 321.484375 193.394531 C 321.320312 193.117188 321.144531 192.855469 320.949219 192.601562 C 320.753906 192.351562 320.542969 192.113281 320.320312 191.886719 C 320.09375 191.664062 319.855469 191.453125 319.601562 191.257812 C 319.347656 191.066406 319.085938 190.890625 318.808594 190.730469 C 318.53125 190.570312 318.25 190.429688 317.953125 190.304688 C 317.660156 190.183594 317.359375 190.078125 317.054688 189.996094 C 316.746094 189.910156 316.433594 189.847656 316.117188 189.804688 C 315.804688 189.761719 315.488281 189.738281 315.167969 189.734375 C 314.847656 189.730469 314.53125 189.75 314.214844 189.789062 C 313.898438 189.824219 313.585938 189.882812 313.277344 189.960938 C 312.96875 190.042969 312.667969 190.140625 312.371094 190.257812 C 312.074219 190.375 311.789062 190.511719 311.511719 190.667969 C 311.230469 190.820312 310.964844 190.992188 310.710938 191.183594 C 310.453125 191.371094 310.210938 191.578125 309.980469 191.796875 C 309.75 192.019531 309.535156 192.253906 309.335938 192.5 C 309.136719 192.75 308.957031 193.011719 308.789062 193.28125 Z M 308.789062 193.28125 "/>
<path style=" stroke:none;fill-rule:nonzero;fill:rgb(16.468811%,8.239746%,6.269836%);fill-opacity:1;" d="M 281.867188 238.175781 C 281.53125 244.683594 282.613281 250.945312 285.109375 256.964844 C 285.476562 257.59375 285.898438 258.183594 286.375 258.734375 C 286.851562 259.289062 287.375 259.792969 287.941406 260.25 C 288.507812 260.707031 289.113281 261.109375 289.753906 261.457031 C 290.390625 261.804688 291.058594 262.09375 291.75 262.320312 C 292.441406 262.546875 293.152344 262.710938 293.871094 262.808594 C 294.59375 262.90625 295.320312 262.941406 296.046875 262.90625 C 296.773438 262.875 297.492188 262.777344 298.203125 262.613281 C 298.914062 262.453125 299.605469 262.226562 300.273438 261.9375 C 300.941406 261.652344 301.582031 261.3125 302.1875 260.910156 C 302.796875 260.511719 303.363281 260.0625 303.890625 259.5625 C 304.417969 259.0625 304.898438 258.519531 305.328125 257.933594 C 305.761719 257.347656 306.136719 256.726562 306.457031 256.074219 C 306.777344 255.421875 307.035156 254.746094 307.234375 254.046875 C 307.433594 253.347656 307.570312 252.636719 307.644531 251.914062 C 307.714844 251.1875 307.722656 250.464844 307.667969 249.738281 C 307.609375 249.015625 307.492188 248.300781 307.308594 247.597656 C 306.917969 245.804688 306.242188 244.128906 305.273438 242.570312 C 305.605469 243.0625 306.125 244.851562 305.605469 243.3125 C 305.410156 242.707031 305.164062 242.128906 304.972656 241.5 C 304.296875 239.453125 303.746094 237.375 303.324219 235.261719 C 303.128906 234.648438 302.882812 234.058594 302.585938 233.492188 C 302.289062 232.921875 301.941406 232.382812 301.550781 231.875 C 301.160156 231.367188 300.726562 230.894531 300.25 230.464844 C 299.777344 230.03125 299.269531 229.644531 298.726562 229.300781 C 298.183594 228.957031 297.617188 228.664062 297.023438 228.417969 C 296.429688 228.175781 295.816406 227.984375 295.191406 227.847656 C 294.5625 227.710938 293.929688 227.628906 293.285156 227.605469 C 292.644531 227.578125 292.007812 227.609375 291.371094 227.695312 C 290.734375 227.78125 290.109375 227.921875 289.5 228.117188 C 288.886719 228.3125 288.296875 228.5625 287.730469 228.859375 C 287.160156 229.160156 286.625 229.503906 286.117188 229.898438 C 285.609375 230.292969 285.140625 230.726562 284.707031 231.203125 C 284.277344 231.675781 283.890625 232.1875 283.546875 232.730469 C 283.207031 233.273438 282.914062 233.84375 282.671875 234.4375 C 282.429688 235.03125 282.242188 235.644531 282.105469 236.269531 C 281.96875 236.898438 281.890625 237.53125 281.867188 238.175781 Z M 281.867188 238.175781 "/>
<g clip-path="url(#clip218)" clip-rule="nonzero">
<path style=" stroke:none;fill-rule:nonzero;fill:rgb(16.468811%,8.239746%,6.269836%);fill-opacity:1;" d="M 328.160156 258.230469 L 327.9375 258.230469 C 327.339844 258.390625 326.769531 258.628906 326.230469 258.941406 C 325.691406 259.253906 325.203125 259.632812 324.765625 260.074219 C 324.328125 260.515625 323.953125 261.003906 323.640625 261.542969 C 323.332031 262.085938 323.097656 262.65625 322.9375 263.257812 C 322.457031 265.695312 321.796875 268.085938 320.960938 270.425781 C 320.6875 271.167969 320.632812 271.222656 320.960938 270.425781 C 320.714844 270.976562 320.4375 271.554688 320.164062 272.101562 C 319.890625 272.652344 319.558594 273.175781 319.3125 273.722656 C 318.546875 275.476562 318.097656 277.308594 317.964844 279.21875 C 317.964844 280.210938 318.125 281.175781 318.441406 282.117188 C 318.757812 283.054688 319.21875 283.917969 319.816406 284.707031 C 320.417969 285.496094 321.128906 286.167969 321.949219 286.726562 C 322.769531 287.28125 323.660156 287.691406 324.613281 287.957031 C 325.574219 288.175781 326.546875 288.25 327.53125 288.167969 C 328.515625 288.089844 329.460938 287.863281 330.375 287.488281 C 331.289062 287.113281 332.121094 286.609375 332.878906 285.976562 C 333.636719 285.34375 334.277344 284.613281 334.808594 283.78125 C 336.867188 281.03125 337.058594 276.472656 337.363281 273.121094 C 337.609375 270.511719 337.609375 267.898438 337.363281 265.289062 C 337.34375 264.484375 337.199219 263.699219 336.925781 262.9375 C 336.65625 262.179688 336.269531 261.480469 335.773438 260.84375 C 335.273438 260.207031 334.691406 259.667969 334.015625 259.21875 C 333.34375 258.773438 332.621094 258.441406 331.839844 258.230469 C 330.613281 258.007812 329.386719 258.007812 328.160156 258.230469 Z M 328.160156 258.230469 "/>
</g>
<path style=" stroke:none;fill-rule:nonzero;fill:rgb(16.468811%,8.239746%,6.269836%);fill-opacity:1;" d="M 301.703125 297.734375 C 301.101562 298.378906 300.585938 299.082031 300.152344 299.847656 C 299.71875 300.613281 299.382812 301.417969 299.144531 302.265625 C 298.90625 303.109375 298.769531 303.972656 298.738281 304.851562 C 298.707031 305.730469 298.777344 306.601562 298.953125 307.460938 C 299.128906 308.890625 299.457031 310.28125 299.945312 311.636719 C 300.140625 312.328125 300.421875 312.984375 300.78125 313.601562 C 301.144531 314.222656 301.578125 314.789062 302.082031 315.300781 C 302.585938 315.8125 303.144531 316.253906 303.761719 316.621094 C 304.375 316.992188 305.027344 317.28125 305.714844 317.488281 C 306.144531 317.605469 306.582031 317.679688 307.027344 317.710938 C 307.472656 317.742188 307.917969 317.730469 308.363281 317.675781 C 308.804688 317.617188 309.238281 317.519531 309.664062 317.378906 C 310.085938 317.238281 310.492188 317.058594 310.882812 316.839844 C 311.269531 316.617188 311.632812 316.363281 311.972656 316.070312 C 312.308594 315.777344 312.617188 315.457031 312.894531 315.105469 C 313.167969 314.753906 313.40625 314.378906 313.609375 313.980469 C 313.8125 313.582031 313.972656 313.167969 314.09375 312.738281 C 314.34375 311.664062 314.394531 310.585938 314.242188 309.496094 C 314.089844 308.40625 313.746094 307.378906 313.214844 306.417969 C 312.9375 305.921875 312.636719 305.429688 312.335938 304.960938 C 311.703125 304.027344 312.335938 304.960938 312.058594 304.441406 C 311.253906 302.019531 310.089844 299.785156 308.570312 297.734375 C 308.34375 297.515625 308.097656 297.316406 307.832031 297.140625 C 307.566406 296.96875 307.285156 296.820312 306.992188 296.699219 C 306.695312 296.582031 306.394531 296.492188 306.082031 296.429688 C 305.769531 296.367188 305.453125 296.339844 305.136719 296.339844 C 304.820312 296.339844 304.503906 296.367188 304.191406 296.429688 C 303.878906 296.492188 303.578125 296.582031 303.28125 296.699219 C 302.988281 296.820312 302.707031 296.96875 302.441406 297.140625 C 302.175781 297.316406 301.929688 297.515625 301.703125 297.734375 Z M 301.703125 297.734375 "/>
<g clip-path="url(#clip219)" clip-rule="nonzero">
<path style=" stroke:none;fill-rule:nonzero;fill:rgb(16.468811%,8.239746%,6.269836%);fill-opacity:1;" d="M 237.003906 232.128906 C 235.703125 234.234375 235.042969 236.523438 235.023438 239 C 234.8125 241.054688 234.902344 243.097656 235.300781 245.125 C 235.5625 247.191406 236.144531 249.160156 237.042969 251.039062 C 237.9375 252.917969 239.109375 254.609375 240.546875 256.113281 C 241.335938 256.867188 242.222656 257.476562 243.207031 257.945312 C 244.191406 258.417969 245.226562 258.722656 246.308594 258.863281 C 247.390625 259.003906 248.464844 258.972656 249.539062 258.769531 C 250.609375 258.570312 251.625 258.207031 252.582031 257.679688 C 253.492188 257.097656 254.296875 256.390625 254.992188 255.554688 C 255.683594 254.722656 256.234375 253.804688 256.644531 252.800781 C 257.054688 251.796875 257.300781 250.753906 257.382812 249.675781 C 257.46875 248.59375 257.386719 247.527344 257.140625 246.472656 C 256.667969 244.6875 255.917969 243.03125 254.886719 241.5 C 254.640625 241.085938 253.320312 239.054688 254.640625 241.277344 C 254.488281 240.753906 254.359375 240.222656 254.257812 239.683594 C 253.84375 238.585938 253.265625 237.515625 252.855469 236.414062 C 253.292969 237.542969 253.265625 237.40625 252.855469 236.414062 C 252.214844 234.222656 251.171875 232.246094 249.722656 230.480469 C 248.847656 229.566406 247.808594 228.914062 246.609375 228.519531 C 245.40625 228.125 244.183594 228.039062 242.9375 228.257812 C 241.710938 228.4375 240.582031 228.863281 239.542969 229.542969 C 238.507812 230.21875 237.660156 231.082031 237.003906 232.128906 Z M 237.003906 232.128906 "/>
</g>
<path style=" stroke:none;fill-rule:nonzero;fill:rgb(16.468811%,8.239746%,6.269836%);fill-opacity:1;" d="M 264.53125 285.484375 C 259.75 286.226562 259.476562 291.417969 259.035156 295.289062 C 258.71875 297.261719 258.71875 299.230469 259.035156 301.199219 C 259.417969 303.351562 260.332031 305.246094 261.785156 306.882812 C 262.042969 307.140625 262.324219 307.367188 262.636719 307.5625 C 262.945312 307.753906 263.273438 307.910156 263.617188 308.027344 C 263.964844 308.144531 264.320312 308.222656 264.683594 308.257812 C 265.046875 308.296875 265.40625 308.289062 265.769531 308.242188 C 266.132812 308.199219 266.484375 308.109375 266.824219 307.984375 C 267.167969 307.855469 267.492188 307.691406 267.796875 307.492188 C 268.101562 307.289062 268.378906 307.058594 268.628906 306.792969 C 268.882812 306.527344 269.097656 306.238281 269.285156 305.921875 C 270.261719 303.929688 270.785156 301.824219 270.851562 299.605469 C 270.851562 297.789062 270.628906 295.921875 270.574219 294.109375 C 270.574219 291.609375 270.851562 289.136719 268.953125 287.160156 C 268.414062 286.511719 267.75 286.039062 266.964844 285.738281 C 266.175781 285.441406 265.363281 285.355469 264.53125 285.484375 Z M 264.53125 285.484375 "/>
</g>
</svg>
