<?xml version="1.0" encoding="UTF-8"?>
<svg xmlns="http://www.w3.org/2000/svg" xmlns:xlink="http://www.w3.org/1999/xlink" width="1440pt" height="809.999993pt" viewBox="0 0 1440 809.999993" version="1.2">
<defs>
<filter id="alpha" filterUnits="objectBoundingBox" x="0%" y="0%" width="100%" height="100%">
  <feColorMatrix type="matrix" in="SourceGraphic" values="0 0 0 0 1 0 0 0 0 1 0 0 0 0 1 0 0 0 1 0"/>
</filter>
<mask id="mask0">
  <g filter="url(#alpha)">
<rect x="0" y="0" width="1440" height="809.999993" style="fill:rgb(0%,0%,0%);fill-opacity:0.2078;stroke:none;"/>
  </g>
</mask>
<clipPath id="clip1">
  <rect x="0" y="0" width="705" height="550"/>
</clipPath>
<g id="surface5" clip-path="url(#clip1)">
<path style=" stroke:none;fill-rule:nonzero;fill:rgb(51.368713%,64.309692%,45.098877%);fill-opacity:1;" d="M 601.808594 309.121094 C 603.125 305.273438 604.660156 301.511719 606.414062 297.839844 C 616.574219 279.476562 628.386719 262.242188 641.847656 246.136719 C 696.828125 171.875 720.042969 64.992188 670.042969 -12.933594 C 643.347656 -54.957031 599.835938 -82.78125 557.257812 -109.382812 C 479.910156 -158.640625 389.871094 -210.15625 299.925781 -187.3125 C 229.0625 -169.074219 176.804688 -107.691406 108.855469 -80.054688 C 49.644531 -55.707031 -30.148438 -54.859375 -72.347656 -0.621094 C -120.09375 60.953125 -128.269531 187.292969 -120.375 262.214844 C -111.539062 345.40625 -64.925781 430.105469 13.367188 459.621094 C 57.820312 476.355469 107.351562 473.722656 154.34375 466.765625 C 167.089844 463.902344 179.9375 463.371094 192.878906 465.167969 C 212.425781 469.398438 227.371094 483.96875 243.066406 496.753906 C 246.574219 499.488281 250.160156 502.113281 253.828125 504.628906 C 257.496094 507.140625 261.242188 509.539062 265.058594 511.824219 C 268.875 514.105469 272.757812 516.269531 276.707031 518.3125 C 280.65625 520.359375 284.667969 522.277344 288.738281 524.074219 C 292.804688 525.871094 296.925781 527.539062 301.097656 529.082031 C 305.269531 530.621094 309.484375 532.035156 313.742188 533.316406 C 318 534.597656 322.296875 535.746094 326.625 536.761719 C 330.957031 537.777344 335.3125 538.660156 339.695312 539.40625 C 344.082031 540.152344 348.484375 540.765625 352.90625 541.242188 C 357.328125 541.71875 361.757812 542.054688 366.203125 542.257812 C 370.644531 542.460938 375.089844 542.523438 379.535156 542.453125 C 383.984375 542.378906 388.421875 542.167969 392.859375 541.824219 C 397.292969 541.476562 401.710938 540.992188 406.113281 540.375 C 410.519531 539.753906 414.898438 539 419.257812 538.109375 C 423.613281 537.222656 427.941406 536.199219 432.234375 535.039062 C 436.527344 533.882812 440.785156 532.59375 445 531.175781 C 449.214844 529.757812 453.378906 528.207031 457.5 526.53125 C 461.617188 524.855469 465.683594 523.050781 469.691406 521.125 C 473.699219 519.199219 477.644531 517.148438 481.523438 514.976562 C 485.40625 512.804688 489.21875 510.515625 492.957031 508.109375 C 496.699219 505.703125 500.359375 503.183594 503.945312 500.550781 C 507.53125 497.917969 511.03125 495.179688 514.445312 492.332031 C 517.863281 489.480469 521.1875 486.53125 524.421875 483.476562 C 527.65625 480.421875 530.792969 477.273438 533.832031 474.023438 C 536.871094 470.777344 539.804688 467.4375 542.640625 464.011719 C 545.472656 460.582031 548.195312 457.070312 550.8125 453.472656 C 553.429688 449.875 555.933594 446.199219 558.324219 442.449219 C 560.710938 438.699219 562.984375 434.875 565.136719 430.984375 C 567.292969 427.09375 569.324219 423.136719 571.234375 419.121094 C 573.144531 415.105469 574.929688 411.03125 576.585938 406.90625 C 578.246094 402.777344 579.773438 398.601562 581.175781 394.378906 C 582.578125 390.160156 583.847656 385.898438 584.984375 381.597656 C 591.28125 357.628906 593.445312 332.339844 601.808594 309.121094 Z M 601.808594 309.121094 "/>
</g>
<mask id="mask1">
  <g filter="url(#alpha)">
<rect x="0" y="0" width="1440" height="809.999993" style="fill:rgb(0%,0%,0%);fill-opacity:0.2863;stroke:none;"/>
  </g>
</mask>
<clipPath id="clip3">
  <path d="M 0.199219 6 L 467 6 L 467 478 L 0.199219 478 Z M 0.199219 6 "/>
</clipPath>
<clipPath id="clip2">
  <rect x="0" y="0" width="467" height="478"/>
</clipPath>
<g id="surface8" clip-path="url(#clip2)">
<g clip-path="url(#clip3)" clip-rule="nonzero">
<path style=" stroke:none;fill-rule:nonzero;fill:rgb(17.248535%,30.979919%,25.099182%);fill-opacity:1;" d="M 581.9375 381.953125 C 668.648438 204.949219 543.410156 -1.652344 353.082031 6.265625 C 198.082031 14.632812 -35.769531 55.460938 5.058594 275.816406 C 15.894531 330.234375 21.34375 379.144531 34.933594 430.808594 C 67.730469 544.808594 192.632812 601.917969 306.863281 577.433594 C 334.042969 571.816406 361.226562 569.289062 388.40625 566.59375 C 475.457031 555.699219 543.410156 493.144531 571.660156 411.546875 C 575.644531 401.71875 578.789062 391.894531 581.9375 381.953125 Z M 581.9375 381.953125 "/>
</g>
</g>
</defs>
<g id="surface1">
<use xlink:href="#surface5" transform="matrix(1,0,0,1,0,0.000000000000039746)" mask="url(#mask0)"/>
<use xlink:href="#surface8" transform="matrix(1,0,0,1,973,332)" mask="url(#mask1)"/>
</g>
</svg>
