<?xml version="1.0" encoding="UTF-8"?>
<svg xmlns="http://www.w3.org/2000/svg" xmlns:xlink="http://www.w3.org/1999/xlink" width="675pt" height="149.999998pt" viewBox="0 0 675 149.999998" version="1.2">
<defs>
<clipPath id="clip1">
  <path d="M 0 16 L 675 16 L 675 129 L 0 129 Z M 0 16 "/>
</clipPath>
<clipPath id="clip2">
  <path d="M 8.457031 -22.050781 L 676.265625 28.945312 L 665.355469 171.78125 L -2.449219 120.785156 Z M 8.457031 -22.050781 "/>
</clipPath>
<clipPath id="clip3">
  <path d="M 0.382812 -22.667969 L 684.640625 29.585938 L 673.734375 172.421875 L -10.523438 120.167969 Z M 0.382812 -22.667969 "/>
</clipPath>
</defs>
<g id="surface1">
<g clip-path="url(#clip1)" clip-rule="nonzero">
<g clip-path="url(#clip2)" clip-rule="nonzero">
<g clip-path="url(#clip3)" clip-rule="nonzero">
<path style=" stroke:none;fill-rule:nonzero;fill:rgb(51.368713%,64.309692%,45.098877%);fill-opacity:1;" d="M 555.417969 45.304688 C 565.359375 45.5625 575.269531 45.558594 585.195312 45.707031 C 605.089844 46.128906 624.835938 45.816406 644.652344 45.8125 C 643.308594 50.789062 642 55.976562 644.519531 60.539062 C 644.519531 60.539062 647.597656 60.378906 651.425781 59.9375 C 655.261719 59.542969 659.859375 59.070312 662.929688 58.753906 C 687.957031 68.164062 683.09375 85.441406 670.777344 98.707031 C 667.628906 101.46875 664.074219 104.582031 660.058594 107.734375 C 656.894531 107.5625 653.730469 107.390625 650.597656 107.222656 C 636.332031 106.523438 622.253906 106.136719 608.011719 106.246094 C 593.882812 106.027344 579.679688 106.09375 565.277344 106.273438 C 536.546875 106.308594 527.894531 108.175781 496.988281 106.203125 C 453.722656 102.214844 540.261719 106.121094 496.988281 106.203125 C 548.203125 108.3125 464.75 107.433594 516.929688 108.566406 C 529.988281 108.90625 522.183594 107.65625 535.15625 107.996094 C 548.144531 108.515625 561.078125 109.027344 573.933594 109.542969 C 586.839844 110.058594 599.582031 110.984375 612.367188 111.753906 C 625.199219 112.433594 637.84375 113.492188 650.546875 114.585938 C 640.421875 121.050781 628.351562 126.257812 614.125 127.21875 C 580.402344 126.851562 547.148438 126.492188 514.179688 126.132812 C 514.210938 123.714844 488.382812 126.152344 465.730469 125.871094 C 443.101562 125.4375 421.242188 119.316406 398.855469 118.128906 C 354.054688 115.894531 263.988281 122.941406 263.25 124.484375 C 263.023438 124.488281 262.800781 124.492188 262.589844 124.496094 C 262.800781 124.492188 263.023438 124.488281 263.25 124.484375 C 262.585938 125.84375 262.929688 126.898438 268.699219 126.933594 C 262.929688 126.898438 262.585938 125.84375 263.25 124.484375 C 354.574219 122.683594 418.945312 123.429688 510.425781 126.121094 C 439.371094 125.445312 390.683594 127.328125 320.707031 127.785156 C 250.746094 128.207031 180.382812 128.671875 107.933594 127.585938 C 101.765625 127.492188 89.40625 127.300781 83.226562 127.203125 C 58.8125 119.605469 34.183594 116.769531 9.539062 116.296875 C 16.191406 104.425781 -7.503906 80 41.65625 85.710938 C 41.753906 83.316406 41.949219 78.519531 42.046875 76.125 C 17.566406 69.683594 1.277344 57.957031 -3.347656 46.8125 C -5.445312 41.289062 -4.707031 35.761719 0.164062 31.167969 C 5.21875 26.550781 13.347656 22.820312 25.804688 20.65625 C 81.613281 12.117188 155.128906 22.867188 223.027344 18.683594 C 272.378906 16.757812 321.683594 14.597656 370.742188 19.328125 C 438.230469 26.445312 491.246094 21.832031 558.523438 29.125 C 570.761719 29.859375 587.578125 27.890625 602.863281 26.648438 C 618.085938 25.238281 631.65625 24.207031 637.804688 27.4375 C 646.578125 30.304688 647.058594 35.375 645.828125 41.144531 C 625.738281 42.015625 605.738281 43.242188 585.625 43.613281 C 575.585938 43.863281 565.585938 44.246094 555.570312 44.34375 C 545.554688 44.40625 535.566406 44.464844 525.605469 44.523438 "/>
</g>
</g>
</g>
</g>
</svg>
