<?xml version="1.0" encoding="UTF-8"?>
<svg xmlns="http://www.w3.org/2000/svg" xmlns:xlink="http://www.w3.org/1999/xlink" width="375pt" height="374.999991pt" viewBox="0 0 375 374.999991" version="1.2">
<defs>
<clipPath id="clip1">
  <path d="M 11.8125 148.929688 L 268.496094 148.929688 L 268.496094 374.488281 L 11.8125 374.488281 Z M 11.8125 148.929688 "/>
</clipPath>
<clipPath id="clip2">
  <path d="M 162 77 L 375 77 L 375 374 L 162 374 Z M 162 77 "/>
</clipPath>
<clipPath id="clip3">
  <path d="M 96.078125 316.941406 L 264.398438 59.601562 L 420.683594 161.824219 L 252.363281 419.164062 Z M 96.078125 316.941406 "/>
</clipPath>
<clipPath id="clip4">
  <path d="M 96.078125 316.941406 L 264.398438 59.601562 L 420.683594 161.824219 L 252.363281 419.164062 Z M 96.078125 316.941406 "/>
</clipPath>
<clipPath id="clip5">
  <path d="M 136.566406 244.035156 L 174.738281 244.035156 L 174.738281 253.886719 L 136.566406 253.886719 Z M 136.566406 244.035156 "/>
</clipPath>
<clipPath id="clip6">
  <path d="M 270.28125 148.578125 L 365.089844 148.578125 L 365.089844 298 L 270.28125 298 Z M 270.28125 148.578125 "/>
</clipPath>
<clipPath id="clip7">
  <path d="M 259 115.601562 L 304 115.601562 L 304 150 L 259 150 Z M 259 115.601562 "/>
</clipPath>
</defs>
<g id="surface1">
<path style=" stroke:none;fill-rule:nonzero;fill:rgb(96.078491%,85.879517%,83.529663%);fill-opacity:1;" d="M 293.132812 188.921875 C 293.613281 187.519531 294.171875 186.152344 294.808594 184.816406 C 298.507812 178.128906 302.808594 171.855469 307.707031 165.992188 C 327.71875 138.953125 336.167969 100.039062 317.96875 71.667969 C 308.253906 56.367188 292.414062 46.238281 276.921875 36.550781 C 248.769531 18.617188 215.996094 -0.136719 183.261719 8.179688 C 157.46875 14.820312 138.449219 37.167969 113.71875 47.230469 C 92.167969 56.09375 63.128906 56.402344 47.769531 76.152344 C 30.390625 98.566406 27.414062 144.566406 30.289062 171.84375 C 33.503906 202.132812 50.472656 232.96875 78.964844 243.71875 C 95.144531 249.808594 113.171875 248.851562 130.277344 246.316406 C 134.914062 245.277344 139.589844 245.082031 144.300781 245.734375 C 151.414062 247.277344 156.855469 252.582031 162.566406 257.234375 C 163.84375 258.230469 165.148438 259.1875 166.484375 260.101562 C 167.820312 261.019531 169.183594 261.890625 170.570312 262.722656 C 171.960938 263.554688 173.375 264.34375 174.8125 265.085938 C 176.25 265.828125 177.707031 266.527344 179.1875 267.183594 C 180.671875 267.835938 182.167969 268.445312 183.6875 269.003906 C 185.207031 269.566406 186.742188 270.082031 188.289062 270.546875 C 189.839844 271.015625 191.402344 271.433594 192.980469 271.800781 C 194.554688 272.171875 196.140625 272.492188 197.738281 272.765625 C 199.332031 273.039062 200.933594 273.261719 202.542969 273.433594 C 204.152344 273.605469 205.765625 273.730469 207.382812 273.804688 C 209 273.875 210.617188 273.902344 212.238281 273.875 C 213.855469 273.847656 215.472656 273.769531 217.085938 273.644531 C 218.699219 273.519531 220.308594 273.34375 221.910156 273.117188 C 223.511719 272.890625 225.105469 272.617188 226.691406 272.292969 C 228.277344 271.96875 229.851562 271.597656 231.417969 271.175781 C 232.980469 270.753906 234.527344 270.285156 236.0625 269.769531 C 237.597656 269.253906 239.113281 268.6875 240.613281 268.078125 C 242.109375 267.46875 243.589844 266.8125 245.050781 266.109375 C 246.507812 265.40625 247.945312 264.660156 249.355469 263.871094 C 250.769531 263.082031 252.15625 262.246094 253.515625 261.371094 C 254.878906 260.496094 256.210938 259.578125 257.515625 258.621094 C 258.820312 257.660156 260.09375 256.664062 261.339844 255.625 C 262.582031 254.589844 263.792969 253.515625 264.96875 252.402344 C 266.144531 251.289062 267.285156 250.144531 268.394531 248.960938 C 269.5 247.777344 270.566406 246.5625 271.597656 245.316406 C 272.628906 244.066406 273.621094 242.789062 274.574219 241.476562 C 275.527344 240.167969 276.4375 238.832031 277.308594 237.464844 C 278.175781 236.097656 279.003906 234.707031 279.789062 233.289062 C 280.570312 231.875 281.3125 230.433594 282.007812 228.972656 C 282.703125 227.507812 283.351562 226.027344 283.953125 224.523438 C 284.558594 223.019531 285.113281 221.5 285.625 219.964844 C 286.136719 218.425781 286.597656 216.875 287.011719 215.308594 C 289.304688 206.582031 290.089844 197.375 293.132812 188.921875 Z M 293.132812 188.921875 "/>
<g clip-path="url(#clip1)" clip-rule="nonzero">
<path style=" stroke:none;fill-rule:nonzero;fill:rgb(14.898682%,38.038635%,31.369019%);fill-opacity:1;" d="M 102.117188 363.441406 C 79.558594 382.320312 45.273438 376.160156 29.308594 351.445312 C 7.519531 317.734375 -0.253906 300.222656 43.945312 236.230469 C 75.390625 190.703125 81.585938 148.929688 117.488281 148.929688 C 267.867188 148.929688 322.449219 337.632812 204.683594 337.632812 C 164.632812 337.632812 150.679688 310.800781 105.976562 359.796875 C 104.863281 361.019531 103.570312 362.238281 102.117188 363.441406 "/>
</g>
<g clip-path="url(#clip2)" clip-rule="nonzero">
<g clip-path="url(#clip3)" clip-rule="nonzero">
<g clip-path="url(#clip4)" clip-rule="nonzero">
<path style=" stroke:none;fill-rule:nonzero;fill:rgb(51.368713%,64.309692%,45.098877%);fill-opacity:1;" d="M 306.554688 88.113281 C 302.128906 84.171875 297.101562 81.273438 291.472656 79.410156 C 289.675781 78.851562 287.851562 78.410156 286 78.089844 C 284.144531 77.765625 282.28125 77.5625 280.402344 77.476562 C 278.523438 77.394531 276.644531 77.429688 274.773438 77.585938 C 272.898438 77.742188 271.042969 78.019531 269.203125 78.414062 C 267.367188 78.808594 265.5625 79.316406 263.789062 79.945312 C 262.019531 80.570312 260.292969 81.308594 258.617188 82.15625 C 256.9375 83.003906 255.324219 83.953125 253.769531 85.007812 C 252.214844 86.066406 250.734375 87.214844 249.328125 88.460938 C 241.667969 95.410156 236.730469 104.777344 232.230469 114.097656 C 224.796875 129.335938 217.597656 144.988281 215.527344 161.867188 C 212.839844 184.179688 219.359375 206.78125 217.40625 229.171875 C 217.238281 232.75 216.667969 236.261719 215.695312 239.707031 C 214.726562 243.15625 213.378906 246.449219 211.65625 249.585938 C 205.917969 259.132812 195.757812 264.90625 187.25 272.0625 C 154.003906 299.929688 151.757812 353.363281 197.652344 368.867188 C 201.105469 369.996094 204.609375 370.914062 208.167969 371.625 C 211.730469 372.332031 215.320312 372.824219 218.9375 373.101562 C 222.554688 373.378906 226.179688 373.4375 229.804688 373.28125 C 233.429688 373.121094 237.03125 372.746094 240.609375 372.15625 C 244.191406 371.5625 247.71875 370.761719 251.203125 369.746094 C 254.683594 368.730469 258.09375 367.507812 261.425781 366.082031 C 264.761719 364.65625 267.996094 363.035156 271.136719 361.222656 C 274.273438 359.40625 277.292969 357.410156 280.191406 355.230469 C 283.042969 353 285.753906 350.605469 288.320312 348.050781 C 290.882812 345.496094 293.285156 342.792969 295.527344 339.949219 C 297.765625 337.101562 299.828125 334.132812 301.710938 331.039062 C 303.59375 327.945312 305.28125 324.75 306.78125 321.453125 C 308.277344 318.15625 309.570312 314.78125 310.664062 311.328125 C 311.753906 307.875 312.632812 304.367188 313.304688 300.804688 C 313.972656 297.246094 314.425781 293.660156 314.664062 290.042969 C 314.902344 286.429688 314.921875 282.8125 314.722656 279.195312 C 313.722656 273.636719 317.769531 268.265625 322.691406 265.464844 C 327.613281 262.664062 333.285156 261.699219 338.644531 259.894531 C 340.859375 259.148438 343.011719 258.257812 345.105469 257.222656 C 347.199219 256.191406 349.214844 255.019531 351.152344 253.71875 C 353.085938 252.414062 354.925781 250.988281 356.671875 249.4375 C 358.417969 247.886719 360.050781 246.230469 361.574219 244.460938 C 363.097656 242.691406 364.496094 240.828125 365.769531 238.875 C 367.039062 236.917969 368.179688 234.886719 369.179688 232.777344 C 370.179688 230.667969 371.035156 228.503906 371.746094 226.28125 C 372.457031 224.058594 373.015625 221.796875 373.421875 219.496094 C 373.832031 217.199219 374.085938 214.882812 374.183594 212.550781 C 374.28125 210.21875 374.222656 207.890625 374.007812 205.5625 C 373.792969 203.238281 373.425781 200.9375 372.90625 198.660156 C 372.382812 196.382812 371.710938 194.152344 370.890625 191.964844 C 370.070312 189.777344 369.109375 187.652344 368.003906 185.59375 C 366.898438 183.535156 365.660156 181.558594 364.292969 179.664062 C 362.925781 177.769531 361.433594 175.972656 359.824219 174.277344 C 358.21875 172.582031 356.503906 171 354.683594 169.535156 C 345.046875 161.765625 332.28125 156.957031 326.289062 146.132812 C 320.582031 135.800781 322.769531 123.042969 320.316406 111.5 C 319.320312 106.972656 317.644531 102.710938 315.292969 98.714844 C 312.941406 94.71875 310.03125 91.183594 306.554688 88.113281 Z M 306.554688 88.113281 "/>
</g>
</g>
</g>
<path style=" stroke:none;fill-rule:nonzero;fill:rgb(47.839355%,29.798889%,31.759644%);fill-opacity:1;" d="M 37.664062 193.460938 C 37.058594 199.996094 35.101562 241.273438 35.277344 242.363281 C 35.453125 243.453125 38.449219 243.820312 38.820312 242.070312 C 39.1875 240.316406 45.503906 193.460938 45.503906 193.460938 "/>
<path style=" stroke:none;fill-rule:nonzero;fill:rgb(47.839355%,29.798889%,31.759644%);fill-opacity:1;" d="M 75.953125 193.460938 C 76.5625 199.996094 78.515625 241.273438 78.339844 242.363281 C 78.167969 243.453125 75.167969 243.820312 74.800781 242.070312 C 74.433594 240.316406 68.117188 193.460938 68.117188 193.460938 "/>
<path style=" stroke:none;fill-rule:nonzero;fill:rgb(100%,99.21875%,94.119263%);fill-opacity:1;" d="M 42.535156 197.828125 C 41.773438 205.996094 39.332031 257.585938 39.550781 258.949219 C 39.769531 260.308594 43.515625 260.769531 43.976562 258.582031 C 44.4375 256.390625 52.328125 197.828125 52.328125 197.828125 "/>
<path style=" stroke:none;fill-rule:nonzero;fill:rgb(100%,99.21875%,94.119263%);fill-opacity:1;" d="M 90.390625 197.828125 C 91.152344 205.996094 93.59375 257.585938 93.375 258.949219 C 93.160156 260.308594 89.410156 260.769531 88.949219 258.582031 C 88.488281 256.390625 80.597656 197.828125 80.597656 197.828125 "/>
<path style=" stroke:none;fill-rule:nonzero;fill:rgb(93.328857%,56.079102%,37.649536%);fill-opacity:1;" d="M 52.351562 176.144531 C 43.191406 176.996094 32.6875 178.714844 27.066406 185.835938 C 18.601562 196.554688 31.96875 204.148438 40.878906 205.9375 C 49.792969 207.722656 60.042969 207.722656 69.398438 207.277344 C 79.203125 206.832031 89.898438 207.722656 99.699219 204.148438 C 116.300781 198.097656 106.546875 183.175781 95.023438 179.152344 C 83.238281 175.035156 70.34375 174.648438 58.015625 175.671875 C 56.230469 175.816406 54.320312 175.960938 52.351562 176.144531 "/>
<path style=" stroke:none;fill-rule:nonzero;fill:rgb(47.839355%,29.798889%,31.759644%);fill-opacity:1;" d="M 72.417969 27.917969 C 74.425781 23 75.761719 19.652344 80.886719 16.746094 C 86.457031 13.398438 94.03125 12.058594 100.269531 14.960938 C 111.410156 20.324219 112.078125 32.382812 112.746094 42.882812 C 113.640625 54.273438 107.621094 64.101562 98.488281 70.800781 C 93.585938 74.152344 86.902344 76.609375 81.109375 76.164062 C 74.871094 75.714844 69.96875 68.121094 68.410156 62.539062 C 67.519531 58.964844 67.296875 54.941406 67.296875 51.144531 "/>
<path style=" stroke:none;fill-rule:nonzero;fill:rgb(47.839355%,29.798889%,31.759644%);fill-opacity:1;" d="M 83.03125 11.890625 C 76.414062 8.574219 69.085938 14.261719 63.886719 17.8125 C 57.035156 22.316406 53.253906 29.421875 52.074219 37.242188 C 51.128906 42.691406 50.65625 48.613281 48.527344 53.824219 C 45.929688 60.222656 41.203125 62.117188 36.238281 66.378906 C 32.695312 69.695312 32.929688 74.90625 38.128906 76.089844 C 40.257812 76.566406 42.621094 75.855469 44.273438 77.277344 C 46.636719 79.171875 44.746094 81.066406 45.691406 83.199219 C 47.347656 86.753906 54.90625 86.042969 57.980469 84.855469 C 62.46875 83.199219 66.015625 80.117188 69.558594 77.039062 L 83.03125 11.890625 "/>
<path style=" stroke:none;fill-rule:nonzero;fill:rgb(93.328857%,56.079102%,37.649536%);fill-opacity:1;" d="M 124.988281 245.191406 C 125.195312 244.5 127.945312 235.773438 129.164062 233.445312 C 130.382812 231.113281 111.871094 223.578125 110.910156 225.894531 C 109.945312 228.214844 108.230469 232.449219 107.585938 233.445312 C 105.242188 237.074219 101 240.132812 103.714844 243.625 C 104.882812 245.125 110.335938 247.003906 115.105469 252.121094 C 121.4375 258.914062 125.023438 266.644531 130.148438 266.003906 C 135.273438 265.363281 122.113281 254.773438 124.988281 245.191406 "/>
<path style=" stroke:none;fill-rule:nonzero;fill:rgb(93.328857%,56.079102%,37.649536%);fill-opacity:1;" d="M 124.988281 245.191406 C 125.195312 244.5 127.945312 235.773438 129.164062 233.445312 C 130.382812 231.113281 111.871094 223.578125 110.910156 225.894531 C 109.945312 228.214844 108.230469 232.449219 107.585938 233.445312 C 105.242188 237.074219 101 240.132812 103.714844 243.625 C 104.882812 245.125 110.335938 247.003906 115.105469 252.121094 C 121.4375 258.914062 125.023438 266.644531 130.148438 266.003906 C 135.273438 265.363281 122.113281 254.773438 124.988281 245.191406 "/>
<path style=" stroke:none;fill-rule:nonzero;fill:rgb(100%,99.21875%,94.119263%);fill-opacity:1;" d="M 110.292969 225.628906 C 116.796875 228.472656 123.367188 231.148438 129.96875 233.761719 C 137.941406 215.398438 152.46875 180.289062 150.253906 168.386719 C 147.261719 152.296875 94.320312 142.507812 89.671875 144.621094 C 85.019531 146.734375 61.753906 162.203125 65.984375 166.925781 C 73.28125 174.910156 116.8125 171.449219 124.113281 179.4375 C 119.988281 190.578125 113.9375 213.453125 110.292969 225.628906 "/>
<path style=" stroke:none;fill-rule:nonzero;fill:rgb(93.728638%,73.728943%,45.878601%);fill-opacity:1;" d="M 154.007812 238.675781 C 153.570312 237.800781 149.792969 226.75 149.066406 225.03125 C 148.34375 223.308594 128.042969 224.371094 129.753906 227.574219 C 131.464844 230.78125 134.796875 239.902344 136.027344 243.019531 C 137.257812 246.144531 137.53125 250.808594 141.359375 251.410156 C 145.191406 252.003906 173.441406 255.074219 173.796875 251.167969 C 174.558594 242.734375 158.472656 247.625 154.007812 238.675781 "/>
<g clip-path="url(#clip5)" clip-rule="nonzero">
<path style=" stroke:none;fill-rule:nonzero;fill:rgb(100%,99.21875%,94.119263%);fill-opacity:1;" d="M 163.585938 244.550781 C 160.945312 246.457031 163.65625 249.105469 160 249.242188 C 152.125 249.550781 137.984375 245.914062 136.953125 247.089844 C 135.917969 248.265625 137.09375 251.78125 139.59375 252.171875 C 143.421875 252.769531 174.367188 255.101562 174.722656 251.195312 C 175.027344 247.855469 171.789062 245.027344 163.585938 244.550781 "/>
</g>
<path style=" stroke:none;fill-rule:nonzero;fill:rgb(100%,99.21875%,94.119263%);fill-opacity:1;" d="M 126.589844 255.5625 C 123.328125 254.40625 122.492188 260.433594 119.09375 259.078125 C 111.769531 256.15625 100.308594 247.082031 98.890625 247.738281 C 97.472656 248.394531 97.125 252.089844 99.253906 253.460938 C 102.511719 255.566406 129.863281 270.273438 131.769531 266.847656 C 133.390625 263.917969 129.847656 256.722656 126.589844 255.5625 "/>
<path style=" stroke:none;fill-rule:nonzero;fill:rgb(100%,99.21875%,94.119263%);fill-opacity:1;" d="M 150.417969 224.792969 C 145.449219 212.996094 138.707031 196.960938 134.507812 187.335938 C 134.507812 187.335938 127.929688 168.609375 121.449219 163.867188 C 114.96875 159.125 78.308594 148.453125 72.789062 148.058594 C 67.269531 147.664062 40.824219 147.078125 38.882812 151.8125 C 36.945312 156.550781 37.21875 169.796875 38.003906 174.539062 C 39.054688 181.652344 44.835938 183.757812 51.144531 184.289062 C 61.921875 185.078125 100.027344 187.289062 104.808594 189.28125 C 107.972656 190.601562 120.335938 212.117188 128.527344 227.574219 C 135.890625 227.152344 143.167969 226.09375 150.417969 224.792969 "/>
<path style=" stroke:none;fill-rule:nonzero;fill:rgb(48.629761%,47.44873%,21.958923%);fill-opacity:1;" d="M 129.617188 175.84375 C 132.386719 181.054688 134.65625 186.476562 136.773438 191.980469 C 138.257812 195.832031 139.398438 199.828125 141.109375 203.589844 C 141.289062 203.980469 141.867188 203.640625 141.6875 203.25 C 139.949219 199.441406 138.796875 195.378906 137.292969 191.476562 C 135.199219 186.027344 132.9375 180.664062 130.195312 175.507812 C 129.992188 175.125 129.414062 175.464844 129.617188 175.84375 "/>
<path style=" stroke:none;fill-rule:nonzero;fill:rgb(48.629761%,47.44873%,21.958923%);fill-opacity:1;" d="M 117.046875 208.222656 C 119.066406 212.214844 121.621094 215.867188 123.851562 219.734375 C 125.136719 221.957031 126.414062 224.179688 127.691406 226.402344 C 127.90625 226.777344 128.484375 226.441406 128.269531 226.066406 C 127.054688 223.953125 125.839844 221.839844 124.621094 219.730469 C 122.328125 215.753906 119.703125 211.992188 117.625 207.886719 C 117.429688 207.5 116.851562 207.839844 117.046875 208.222656 "/>
<path style=" stroke:none;fill-rule:nonzero;fill:rgb(48.629761%,47.44873%,21.958923%);fill-opacity:1;" d="M 137.875 136.097656 C 138.875 131.414062 136.375 127.40625 136.015625 125.65625 C 135.273438 122.074219 132.820312 105.457031 128.570312 96.082031 C 125.445312 89.191406 124.347656 82.320312 117.703125 77.601562 C 111.976562 73.53125 105.730469 74.375 99.324219 76.027344 C 84.273438 79.90625 69.25 83.164062 54.316406 87.539062 C 49.5625 88.929688 44.722656 90.03125 40.132812 91.914062 C 33.875 94.476562 17.328125 123.910156 20.957031 130.925781 C 22.800781 134.496094 30.007812 136.097656 39.910156 136.414062 C 45.558594 136.597656 25.523438 157.949219 39.558594 161.972656 C 44.769531 163.464844 63.3125 162.320312 79.433594 157.503906 C 86.335938 155.445312 93.1875 152.800781 98.9375 148.355469 C 101.90625 146.0625 104.148438 143.203125 105.914062 140.039062 C 106.832031 138.394531 107.234375 136.410156 108.234375 136.007812 C 109.238281 135.605469 110.554688 137.515625 111.414062 138.296875 C 114.976562 141.871094 119.433594 143.878906 124.335938 144.324219 C 135.03125 145.21875 136.871094 140.785156 137.875 136.097656 "/>
<path style=" stroke:none;fill-rule:nonzero;fill:rgb(100%,99.21875%,94.119263%);fill-opacity:1;" d="M 111.636719 107.035156 C 111.214844 106.65625 112.167969 101.636719 112.386719 100.601562 C 112.601562 99.570312 116.410156 98.53125 117.09375 100.222656 C 117.894531 102.191406 116.664062 104.042969 115.382812 105.3125 C 114.363281 106.328125 112.054688 107.414062 111.636719 107.035156 Z M 119.265625 98.882812 C 118.082031 96.484375 114.5625 95.59375 112.234375 96.605469 C 112.09375 95.945312 111.925781 95.300781 111.738281 94.679688 C 109.417969 87.800781 87.574219 87.4375 87.5 96.734375 C 87.425781 106.023438 86.382812 115.019531 101.507812 114.066406 C 105.9375 113.789062 108.808594 112.007812 110.542969 109.488281 C 112.9375 109.386719 115.210938 107.964844 116.90625 106.277344 C 118.6875 104.511719 120.523438 101.421875 119.265625 98.882812 "/>
<path style=" stroke:none;fill-rule:nonzero;fill:rgb(47.839355%,29.798889%,31.759644%);fill-opacity:1;" d="M 100.574219 91.0625 C 97.75 90.828125 94.621094 91.316406 92.351562 92.910156 C 91.765625 93.304688 91.179688 93.695312 91.128906 94.480469 C 91.082031 95.265625 91.523438 95.660156 92.207031 96.003906 C 93.527344 96.691406 95.292969 96.738281 96.761719 96.886719 C 99.648438 97.179688 102.929688 97.378906 105.820312 96.835938 C 106.796875 96.640625 108.511719 96.445312 108.804688 95.316406 C 109.210938 93.765625 106.984375 92.816406 105.902344 92.324219 C 104.253906 91.566406 102.371094 91.210938 100.574219 91.0625 "/>
<path style=" stroke:none;fill-rule:nonzero;fill:rgb(93.728638%,73.728943%,45.878601%);fill-opacity:1;" d="M 74.390625 91.914062 C 59.054688 96.265625 45.730469 95.878906 40.132812 91.914062 C 45.15625 83.75 62.011719 70.882812 68.015625 69.390625 C 74.019531 67.902344 81.863281 66.914062 87.515625 66.828125 C 96.523438 66.6875 113.753906 66.824219 117.09375 78.109375 C 115.117188 81.582031 89.730469 87.5625 74.390625 91.914062 "/>
<path style=" stroke:none;fill-rule:nonzero;fill:rgb(93.328857%,56.079102%,37.649536%);fill-opacity:1;" d="M 91.632812 68.566406 C 91.570312 72.273438 88.902344 75.566406 84.777344 76.082031 C 80.648438 76.597656 77.410156 73.816406 76.957031 68.855469 C 76.507812 63.898438 76.199219 61.449219 76.582031 57.558594 C 76.9375 53.941406 81.246094 50.914062 85.148438 50.914062 C 89.53125 50.914062 91.277344 54.152344 91.464844 57.574219 C 91.503906 58.269531 91.695312 64.855469 91.632812 68.566406 "/>
<path style=" stroke:none;fill-rule:nonzero;fill:rgb(93.728638%,73.728943%,45.878601%);fill-opacity:1;" d="M 100.820312 21.746094 C 96.453125 17.132812 83.3125 16.539062 74.136719 22.183594 C 74.871094 28.945312 75.707031 35.980469 72.761719 42.277344 C 71.101562 45.824219 68.589844 48.671875 65.832031 51.320312 C 65.882812 51.414062 65.921875 51.511719 65.96875 51.601562 C 69.503906 58.144531 74.121094 64.402344 87.171875 64.410156 C 103.296875 64.417969 107.289062 55.914062 107.390625 44.054688 C 107.507812 30.710938 104.765625 25.910156 100.820312 21.746094 "/>
<path style=" stroke:none;fill-rule:nonzero;fill:rgb(93.328857%,56.079102%,37.649536%);fill-opacity:1;" d="M 91.476562 52.496094 C 93.429688 53.058594 95.355469 53.199219 97.207031 52.253906 C 97.917969 51.890625 97.292969 50.824219 96.585938 51.183594 C 95.035156 51.972656 93.421875 51.765625 91.808594 51.304688 C 91.039062 51.082031 90.714844 52.277344 91.476562 52.496094 "/>
<path style=" stroke:none;fill-rule:nonzero;fill:rgb(47.839355%,29.798889%,31.759644%);fill-opacity:1;" d="M 85.835938 41.734375 C 86.007812 40.507812 85.359375 38.75 84.136719 39.175781 C 82.808594 39.636719 83.328125 42.128906 84.070312 42.683594 C 84.921875 43.324219 85.695312 42.753906 85.835938 41.734375 "/>
<path style=" stroke:none;fill-rule:nonzero;fill:rgb(47.839355%,29.798889%,31.759644%);fill-opacity:1;" d="M 82.515625 36.976562 C 83.074219 36.136719 84.429688 35.757812 85.300781 36.289062 C 85.980469 36.707031 86.601562 35.636719 85.921875 35.21875 C 84.457031 34.320312 82.378906 34.960938 81.449219 36.351562 C 81.007812 37.015625 82.074219 37.636719 82.515625 36.976562 "/>
<path style=" stroke:none;fill-rule:nonzero;fill:rgb(47.839355%,29.798889%,31.759644%);fill-opacity:1;" d="M 100.265625 41.734375 C 100.433594 40.507812 99.789062 38.75 98.566406 39.175781 C 97.238281 39.636719 97.753906 42.128906 98.496094 42.683594 C 99.347656 43.324219 100.121094 42.753906 100.265625 41.734375 "/>
<path style=" stroke:none;fill-rule:nonzero;fill:rgb(47.839355%,29.798889%,31.759644%);fill-opacity:1;" d="M 100.847656 35.640625 C 99.859375 34.347656 97.96875 34.128906 96.792969 35.179688 C 96.242188 35.671875 97.019531 36.542969 97.566406 36.054688 C 98.289062 35.40625 99.519531 35.785156 100.078125 36.515625 C 100.535156 37.121094 101.304688 36.242188 100.847656 35.640625 "/>
<path style=" stroke:none;fill-rule:nonzero;fill:rgb(93.328857%,56.079102%,37.649536%);fill-opacity:1;" d="M 107.382812 44.625 C 107.34375 46.800781 107.15625 48.867188 106.789062 50.773438 C 106.078125 51.4375 105.097656 51.859375 103.839844 51.859375 C 98.046875 51.859375 98.046875 42.847656 103.839844 42.847656 C 105.492188 42.847656 106.675781 43.578125 107.382812 44.625 "/>
<path style=" stroke:none;fill-rule:nonzero;fill:rgb(93.328857%,56.079102%,37.649536%);fill-opacity:1;" d="M 79.433594 42.847656 C 73.632812 42.847656 73.632812 51.863281 79.433594 51.863281 C 85.230469 51.863281 85.230469 42.847656 79.433594 42.847656 "/>
<path style=" stroke:none;fill-rule:nonzero;fill:rgb(93.328857%,56.079102%,37.649536%);fill-opacity:1;" d="M 93.632812 44.117188 C 94.105469 44.515625 94.636719 44.835938 95.121094 45.214844 C 95.332031 45.382812 95.558594 45.570312 95.710938 45.792969 C 95.785156 45.90625 95.738281 45.9375 95.773438 45.867188 C 95.707031 46.003906 95.503906 46.078125 95.386719 46.144531 C 94.6875 46.523438 95.308594 47.589844 96.011719 47.214844 C 96.84375 46.761719 97.300781 45.941406 96.71875 45.082031 C 96.175781 44.277344 95.230469 43.847656 94.503906 43.242188 C 93.894531 42.734375 93.015625 43.605469 93.632812 44.117188 "/>
<path style=" stroke:none;fill-rule:nonzero;fill:rgb(93.328857%,56.079102%,37.649536%);fill-opacity:1;" d="M 66.039062 41.625 C 64.007812 37.34375 58.03125 36.703125 57.921875 42.480469 C 57.820312 46.972656 62.085938 49.96875 66.464844 49.222656 "/>
<path style=" stroke:none;fill-rule:nonzero;fill:rgb(93.728638%,73.728943%,45.878601%);fill-opacity:1;" d="M 61.140625 43.335938 C 61.164062 42.835938 61.441406 42.367188 61.976562 42.304688 C 62.414062 42.25 62.765625 42.636719 62.742188 43.050781 C 62.707031 43.640625 62.441406 44.234375 62.320312 44.808594 C 62.21875 45.292969 62.183594 45.800781 62.507812 46.203125 C 62.9375 46.742188 63.914062 46.40625 64.417969 46.226562 C 64.820312 46.085938 64.648438 45.4375 64.238281 45.582031 C 63.910156 45.695312 63.371094 45.941406 63.023438 45.765625 C 62.808594 45.65625 62.933594 45.152344 62.964844 44.988281 C 63.089844 44.308594 63.375 43.660156 63.414062 42.96875 C 63.457031 42.191406 62.691406 41.628906 61.976562 41.632812 C 61.0625 41.636719 60.515625 42.515625 60.472656 43.335938 C 60.449219 43.769531 61.117188 43.765625 61.140625 43.335938 "/>
<path style=" stroke:none;fill-rule:nonzero;fill:rgb(93.728638%,73.728943%,45.878601%);fill-opacity:1;" d="M 103.371094 99.011719 C 104.316406 97.109375 95.050781 92.308594 92.96875 91.921875 C 91.828125 91.710938 78.65625 96.515625 66.113281 102.621094 C 67.816406 108.277344 68.410156 114.15625 69.03125 120.035156 C 73.777344 115.039062 77.960938 110.125 79.816406 108.074219 C 83.761719 109.78125 88.628906 106.355469 89.328125 105.679688 C 90.03125 105 97.542969 110.765625 97.652344 107.222656 C 97.671875 106.484375 96.226562 105.089844 94.53125 103.796875 C 97.445312 105.183594 102.050781 107.179688 102.523438 105.664062 C 102.679688 105.175781 102.40625 104.632812 101.882812 104.078125 C 102.582031 104.175781 103.277344 103.957031 103.246094 103.078125 C 103.226562 102.367188 101.25 100.449219 99.316406 98.765625 C 101.175781 99.460938 102.957031 99.851562 103.371094 99.011719 "/>
<path style=" stroke:none;fill-rule:nonzero;fill:rgb(93.328857%,56.079102%,37.649536%);fill-opacity:1;" d="M 78.015625 97.246094 C 74.265625 98.820312 70.15625 100.652344 66.113281 102.621094 C 67.816406 108.277344 68.410156 114.15625 69.03125 120.035156 C 73.457031 115.371094 77.257812 110.9375 79.273438 108.679688 C 77.324219 107.175781 76.175781 102.152344 78.015625 97.246094 "/>
<path style=" stroke:none;fill-rule:nonzero;fill:rgb(93.328857%,56.079102%,37.649536%);fill-opacity:1;" d="M 93.347656 103.527344 C 92.160156 102.464844 91.328125 101.132812 89.625 100.917969 C 89.1875 100.863281 89.207031 100.171875 89.644531 100.226562 C 91.589844 100.472656 92.484375 101.828125 93.851562 103.054688 C 94.183594 103.351562 93.679688 103.824219 93.347656 103.527344 "/>
<path style=" stroke:none;fill-rule:nonzero;fill:rgb(93.328857%,56.079102%,37.649536%);fill-opacity:1;" d="M 100.742188 103.445312 C 99.339844 102.359375 97.867188 101.386719 96.46875 100.289062 C 94.804688 98.988281 92.84375 97.09375 90.554688 97.425781 C 90.113281 97.488281 89.949219 96.816406 90.390625 96.753906 C 92.152344 96.5 93.582031 97.289062 94.984375 98.289062 C 97.042969 99.761719 99.113281 101.3125 101.109375 102.859375 C 101.457031 103.128906 101.09375 103.71875 100.742188 103.445312 "/>
<path style=" stroke:none;fill-rule:nonzero;fill:rgb(93.328857%,56.079102%,37.649536%);fill-opacity:1;" d="M 98.363281 98.714844 C 97.570312 98.015625 96.78125 97.3125 95.96875 96.636719 C 95.164062 95.960938 94.324219 94.925781 93.222656 94.785156 C 92.785156 94.730469 92.804688 94.039062 93.246094 94.09375 C 94.171875 94.214844 94.871094 94.777344 95.5625 95.367188 C 96.675781 96.308594 97.773438 97.273438 98.863281 98.242188 C 99.199219 98.539062 98.691406 99.007812 98.363281 98.714844 "/>
<path style=" stroke:none;fill-rule:nonzero;fill:rgb(48.629761%,47.44873%,21.958923%);fill-opacity:1;" d="M 20.957031 130.925781 C 24.96875 142.09375 83.316406 124.671875 83.316406 124.671875 C 83.316406 124.671875 77.003906 116.890625 76.324219 109.203125 C 75.652344 101.515625 79.433594 94.816406 79.433594 94.816406 C 79.433594 94.816406 49.890625 105.175781 40.117188 110.375 C 30.339844 115.574219 16.945312 119.753906 20.957031 130.925781 "/>
<path style=" stroke:none;fill-rule:nonzero;fill:rgb(47.839355%,29.798889%,31.759644%);fill-opacity:1;" d="M 27.429688 117.984375 C 31.121094 114.40625 36.039062 112.683594 40.679688 110.730469 C 46.046875 108.476562 51.394531 106.148438 56.746094 103.851562 C 61.101562 101.980469 65.535156 100.300781 69.925781 98.503906 C 71.828125 97.726562 73.738281 96.957031 75.671875 96.261719 C 77.023438 95.773438 79.160156 94.609375 80.316406 95.839844 C 80.613281 96.15625 81.082031 95.679688 80.789062 95.367188 C 79.769531 94.28125 79.128906 94.492188 77.769531 94.871094 C 75.71875 95.445312 73.726562 96.253906 71.753906 97.042969 C 67.257812 98.839844 62.746094 100.605469 58.277344 102.480469 C 52.464844 104.917969 46.652344 107.351562 40.894531 109.917969 C 36.03125 112.082031 30.867188 113.714844 26.957031 117.507812 C 26.648438 117.808594 27.121094 118.285156 27.429688 117.984375 "/>
<path style=" stroke:none;fill-rule:nonzero;fill:rgb(47.839355%,29.798889%,31.759644%);fill-opacity:1;" d="M 83.605469 109.4375 C 85.308594 111.625 84.378906 115.707031 84.332031 118.300781 C 84.28125 121.074219 82.648438 122.027344 80.34375 123.15625 C 76.734375 124.925781 72.84375 126.203125 69.0625 127.539062 C 64.050781 129.304688 59 130.964844 53.910156 132.492188 C 50.40625 133.546875 46.726562 134.839844 43.066406 135.1875 C 42.640625 135.226562 42.636719 135.898438 43.066406 135.859375 C 47.03125 135.480469 51 134.070312 54.792969 132.925781 C 60.464844 131.214844 66.085938 129.332031 71.660156 127.320312 C 75.429688 125.960938 79.351562 124.652344 82.800781 122.574219 C 84.941406 121.28125 84.984375 119.394531 85.015625 117.085938 C 85.050781 114.503906 85.800781 111.175781 84.078125 108.964844 C 83.8125 108.625 83.34375 109.101562 83.605469 109.4375 "/>
<path style=" stroke:none;fill-rule:nonzero;fill:rgb(47.839355%,29.798889%,31.759644%);fill-opacity:1;" d="M 113.417969 118.082031 C 113.328125 123.234375 110.828125 128.636719 108.601562 133.195312 C 108.410156 133.582031 108.988281 133.921875 109.175781 133.53125 C 111.464844 128.847656 113.996094 123.367188 114.085938 118.082031 C 114.09375 117.648438 113.425781 117.648438 113.417969 118.082031 "/>
<path style=" stroke:none;fill-rule:nonzero;fill:rgb(93.728638%,73.728943%,45.878601%);fill-opacity:1;" d="M 130.605469 129.304688 C 129.402344 123 127.558594 118.109375 127.621094 115.265625 C 127.6875 112.421875 128.398438 107.824219 127.953125 105.355469 C 127.308594 101.804688 123.90625 100.523438 121.789062 98.15625 C 120.199219 96.371094 119.558594 95.550781 119.078125 95.605469 C 117.707031 96.3125 118.273438 98.191406 118.332031 98.933594 C 117.503906 98.289062 116.617188 97.746094 115.585938 97.621094 C 114.480469 97.539062 112.640625 98.59375 112.976562 99.699219 C 111.246094 99.789062 109.667969 100.996094 110.523438 102.476562 C 110.039062 102.464844 109.578125 102.601562 109.195312 102.976562 C 108.460938 103.683594 108.675781 105.160156 109.199219 105.980469 C 108.507812 105.929688 107.886719 106.082031 107.496094 106.597656 C 106.128906 108.101562 110.035156 110.125 110.8125 110.996094 C 111.648438 111.925781 111.972656 113.125 112.613281 114.171875 C 113.855469 116.191406 115.199219 117.378906 115.972656 119.714844 C 116.710938 121.949219 117.074219 124.324219 117.761719 126.582031 C 118.574219 129.234375 131.808594 135.609375 130.605469 129.304688 "/>
<path style=" stroke:none;fill-rule:nonzero;fill:rgb(93.328857%,56.079102%,37.649536%);fill-opacity:1;" d="M 129.964844 126.285156 C 125.824219 127.1875 120.671875 125.292969 116.816406 122.859375 C 117.109375 124.105469 117.390625 125.359375 117.765625 126.582031 C 118.574219 129.234375 131.808594 135.609375 130.605469 129.304688 C 130.40625 128.257812 130.183594 127.25 129.964844 126.285156 "/>
<path style=" stroke:none;fill-rule:nonzero;fill:rgb(93.328857%,56.079102%,37.649536%);fill-opacity:1;" d="M 110.519531 106.757812 C 111.144531 107.171875 111.804688 107.476562 112.363281 107.988281 C 112.941406 108.519531 113.496094 109.074219 114.074219 109.605469 C 114.386719 109.902344 114.863281 109.425781 114.546875 109.132812 C 113.910156 108.542969 113.292969 107.933594 112.652344 107.347656 C 112.121094 106.859375 111.453125 106.570312 110.859375 106.175781 C 110.5 105.9375 110.164062 106.519531 110.519531 106.757812 "/>
<path style=" stroke:none;fill-rule:nonzero;fill:rgb(93.328857%,56.079102%,37.649536%);fill-opacity:1;" d="M 111.546875 103.101562 C 113.558594 103.875 115.695312 105.304688 116.804688 107.195312 C 117.023438 107.566406 117.601562 107.226562 117.382812 106.855469 C 116.179688 104.808594 113.898438 103.292969 111.722656 102.460938 C 111.324219 102.304688 111.148438 102.953125 111.546875 103.101562 "/>
<path style=" stroke:none;fill-rule:nonzero;fill:rgb(93.328857%,56.079102%,37.649536%);fill-opacity:1;" d="M 114.195312 100.890625 C 116.429688 101.855469 118.664062 102.867188 119.925781 105.070312 C 120.140625 105.445312 120.71875 105.109375 120.503906 104.734375 C 119.179688 102.425781 116.886719 101.328125 114.535156 100.3125 C 114.140625 100.144531 113.804688 100.722656 114.195312 100.890625 "/>
<path style=" stroke:none;fill-rule:nonzero;fill:rgb(93.328857%,56.079102%,37.649536%);fill-opacity:1;" d="M 119.097656 100.054688 C 120.316406 100.800781 121.316406 101.84375 122.550781 102.570312 C 122.925781 102.789062 123.261719 102.207031 122.890625 101.988281 C 121.65625 101.265625 120.652344 100.222656 119.4375 99.476562 C 119.066406 99.25 118.730469 99.828125 119.097656 100.054688 "/>
<path style=" stroke:none;fill-rule:nonzero;fill:rgb(47.839355%,29.798889%,31.759644%);fill-opacity:1;" d="M 97.519531 12.457031 C 94.390625 8.171875 88.5 7.765625 84.488281 8.4375 C 76.46875 9.777344 67.441406 16.476562 65.773438 24.519531 C 64.433594 31.222656 67.109375 40.265625 62.097656 45.960938 C 58.417969 49.984375 44.714844 54.003906 48.726562 62.378906 C 53.070312 71.425781 58.753906 57.355469 61.09375 55.007812 C 63.765625 53 67.109375 52.660156 69.449219 50.316406 C 71.789062 48.304688 73.457031 44.621094 74.460938 41.605469 C 76.46875 35.910156 77.089844 32.183594 79.433594 26.488281 C 81.101562 22.46875 85.339844 17.554688 92.160156 20.90625 C 95.328125 22.460938 100.652344 16.742188 97.519531 12.457031 "/>
<path style=" stroke:none;fill-rule:nonzero;fill:rgb(47.839355%,29.798889%,31.759644%);fill-opacity:1;" d="M 71.976562 37.074219 C 72.199219 39.976562 70.636719 42.433594 71.082031 45.339844 C 71.527344 48.242188 72.640625 50.921875 73.980469 53.378906 C 76.207031 57.621094 78.101562 61.207031 77.769531 66.109375 C 76.953125 78.03125 60.386719 88.894531 55.933594 86.660156 C 52.367188 84.652344 62.566406 82.539062 65.289062 69.683594 C 66.378906 64.542969 66.40625 55.835938 62.171875 52.039062 "/>
<path style=" stroke:none;fill-rule:nonzero;fill:rgb(48.629761%,47.44873%,21.958923%);fill-opacity:1;" d="M 72.976562 173.546875 C 71.417969 170.980469 92.28125 160.109375 102.976562 160.445312 C 101.972656 155.753906 109.660156 153.074219 113.003906 152.066406 C 117.679688 150.726562 121.023438 151.734375 125.703125 153.074219 C 133.722656 155.417969 152.738281 159.03125 153.074219 160.703125 C 153.410156 162.382812 134.316406 169.253906 129.710938 171.835938 C 125.105469 174.417969 113.925781 182.851562 110.328125 183.5625 C 106.734375 184.269531 74.535156 176.117188 72.976562 173.546875 "/>
<path style=" stroke:none;fill-rule:nonzero;fill:rgb(93.728638%,73.728943%,45.878601%);fill-opacity:1;" d="M 150.097656 157.207031 C 149.800781 156.957031 133.722656 150.503906 125.703125 148.160156 C 121.023438 146.816406 117.679688 145.8125 113.003906 147.152344 C 109.660156 148.160156 100.046875 153.027344 101.050781 157.71875 C 94.753906 157.523438 90.515625 158.554688 85.175781 161.488281 C 81.445312 163.535156 75.742188 167.457031 75.570312 168.261719 C 75.402344 169.070312 75.113281 171.417969 75.570312 171.550781 C 76.027344 171.6875 107.066406 180.699219 110.15625 181.003906 C 113.25 181.308594 129.335938 170.660156 129.375 169.191406 C 129.414062 167.726562 131.554688 165.085938 134.609375 163.699219 C 140.535156 161 149.742188 160.808594 150.097656 160.496094 C 150.636719 160.023438 150.398438 157.453125 150.097656 157.207031 "/>
<path style=" stroke:none;fill-rule:nonzero;fill:rgb(48.629761%,47.44873%,21.958923%);fill-opacity:1;" d="M 129.207031 167.601562 C 129.277344 166.136719 128.152344 165.640625 126.9375 165.191406 C 124.273438 164.210938 122.023438 162.90625 119.171875 162.429688 C 116.183594 161.929688 113.339844 161.390625 110.4375 160.484375 C 109.117188 160.078125 107.804688 159.753906 106.457031 159.480469 C 104.953125 159.175781 103.722656 158.421875 102.308594 157.898438 C 101.902344 157.746094 101.734375 158.394531 102.132812 158.542969 C 103.183594 158.933594 104.101562 159.566406 105.183594 159.871094 C 106.292969 160.1875 107.441406 160.324219 108.554688 160.625 C 110.855469 161.25 113.078125 162.078125 115.429688 162.519531 C 117.789062 162.960938 120.160156 163.125 122.433594 163.9375 C 123.667969 164.378906 124.851562 164.980469 126.03125 165.546875 C 127.019531 166.019531 128.609375 166.121094 128.539062 167.601562 C 128.519531 168.035156 129.1875 168.03125 129.207031 167.601562 "/>
<path style=" stroke:none;fill-rule:nonzero;fill:rgb(48.629761%,47.44873%,21.958923%);fill-opacity:1;" d="M 78.738281 168.847656 C 80.976562 169.246094 83.035156 170.296875 85.1875 171 C 87.734375 171.832031 90.339844 172.296875 92.972656 172.777344 C 95.585938 173.253906 98.175781 173.867188 100.710938 174.664062 C 103.210938 175.449219 105.589844 176.382812 108.148438 176.96875 C 110.15625 177.4375 112.132812 176.359375 113.835938 175.429688 C 116.144531 174.171875 118.007812 172.617188 120.535156 171.714844 C 122.371094 171.058594 123.929688 170.246094 125.519531 169.125 C 126.613281 168.351562 127.898438 167.546875 128.6875 166.441406 C 128.9375 166.089844 128.355469 165.753906 128.109375 166.101562 C 127.261719 167.292969 125.796875 168.117188 124.617188 168.945312 C 122.816406 170.203125 120.863281 170.835938 118.84375 171.632812 C 117.078125 172.328125 115.542969 173.511719 113.96875 174.546875 C 112.867188 175.28125 111.636719 175.859375 110.371094 176.238281 C 108.914062 176.679688 107.367188 176.117188 105.957031 175.742188 C 103.839844 175.1875 101.828125 174.289062 99.730469 173.660156 C 97.378906 172.957031 94.964844 172.460938 92.550781 172.023438 C 90.117188 171.574219 87.734375 171.089844 85.363281 170.351562 C 83.199219 169.679688 81.160156 168.597656 78.914062 168.199219 C 78.492188 168.125 78.3125 168.773438 78.738281 168.847656 "/>
<path style=" stroke:none;fill-rule:nonzero;fill:rgb(48.629761%,47.44873%,21.958923%);fill-opacity:1;" d="M 109.65625 176.816406 C 109.644531 177.308594 109.472656 178.035156 109.703125 178.492188 C 109.800781 178.691406 109.917969 178.859375 110.054688 179.03125 C 110.289062 179.3125 110.214844 179.488281 110.085938 179.824219 C 109.929688 180.230469 110.578125 180.402344 110.730469 180.003906 C 110.90625 179.550781 110.996094 179.113281 110.664062 178.714844 C 110.171875 178.128906 110.3125 177.53125 110.324219 176.816406 C 110.332031 176.382812 109.664062 176.382812 109.65625 176.816406 "/>
<path style=" stroke:none;fill-rule:nonzero;fill:rgb(48.629761%,47.44873%,21.958923%);fill-opacity:1;" d="M 128.695312 166.433594 C 128.953125 164.546875 130.492188 163.097656 131.71875 161.753906 C 133.449219 159.867188 136.269531 159.304688 138.695312 159.074219 C 140.863281 158.867188 143.019531 159.042969 145.1875 159.078125 C 146.335938 159.097656 147.730469 158.964844 148.460938 157.972656 C 148.71875 157.621094 148.136719 157.289062 147.882812 157.632812 C 146.8125 159.082031 143.417969 158.304688 141.851562 158.304688 C 139.453125 158.308594 137.105469 158.441406 134.800781 159.152344 C 131.96875 160.027344 128.472656 163.175781 128.046875 166.257812 C 127.992188 166.679688 128.636719 166.859375 128.695312 166.433594 "/>
<path style=" stroke:none;fill-rule:nonzero;fill:rgb(48.629761%,47.44873%,21.958923%);fill-opacity:1;" d="M 87 166.582031 C 88.949219 165.0625 90.792969 163.433594 93.039062 162.359375 C 95.539062 161.167969 98.417969 161.078125 101.132812 161.070312 C 101.566406 161.066406 101.566406 160.398438 101.132812 160.398438 C 98.4375 160.410156 95.835938 160.589844 93.285156 161.53125 C 90.714844 162.484375 88.65625 164.453125 86.527344 166.109375 C 86.1875 166.375 86.664062 166.84375 87 166.582031 "/>
<path style=" stroke:none;fill-rule:nonzero;fill:rgb(48.629761%,47.44873%,21.958923%);fill-opacity:1;" d="M 92.03125 168.257812 C 92.914062 167.894531 93.566406 167.203125 94.519531 166.953125 C 95.574219 166.675781 96.332031 166.1875 97.191406 165.523438 C 99.398438 163.824219 102.25 164.28125 104.730469 163.320312 C 105.128906 163.164062 104.957031 162.515625 104.554688 162.671875 C 102.328125 163.535156 99.871094 163.304688 97.707031 164.382812 C 96.484375 164.988281 95.722656 165.941406 94.339844 166.304688 C 93.292969 166.578125 92.804688 167.21875 91.855469 167.613281 C 91.460938 167.777344 91.632812 168.425781 92.03125 168.257812 "/>
<path style=" stroke:none;fill-rule:nonzero;fill:rgb(48.629761%,47.44873%,21.958923%);fill-opacity:1;" d="M 98.964844 170.070312 C 100.007812 169.433594 100.945312 168.835938 102.148438 168.527344 C 103.054688 168.292969 103.964844 168.011719 104.785156 167.550781 C 106.386719 166.660156 107.640625 164.765625 109.574219 164.585938 C 109.996094 164.546875 110 163.878906 109.574219 163.917969 C 107.804688 164.082031 106.449219 165.5 105.105469 166.527344 C 104.007812 167.359375 102.691406 167.695312 101.378906 168.03125 C 100.375 168.292969 99.5 168.960938 98.625 169.492188 C 98.257812 169.714844 98.59375 170.292969 98.964844 170.070312 "/>
<path style=" stroke:none;fill-rule:nonzero;fill:rgb(48.629761%,47.44873%,21.958923%);fill-opacity:1;" d="M 106.484375 172.664062 C 107.335938 172.054688 108.089844 171.335938 109.136719 171.070312 C 109.925781 170.867188 110.558594 170.722656 111.246094 170.269531 C 111.976562 169.792969 112.554688 169.023438 113.132812 168.386719 C 114.03125 167.394531 115.289062 167.003906 116.511719 166.585938 C 116.917969 166.445312 116.742188 165.800781 116.332031 165.9375 C 114.492188 166.570312 113.289062 167.203125 111.984375 168.667969 C 111.121094 169.632812 110.207031 170.148438 108.960938 170.425781 C 107.859375 170.667969 107.039062 171.445312 106.144531 172.085938 C 105.796875 172.335938 106.132812 172.917969 106.484375 172.664062 "/>
<path style=" stroke:none;fill-rule:nonzero;fill:rgb(48.629761%,47.44873%,21.958923%);fill-opacity:1;" d="M 108.472656 156.027344 C 109.878906 154.285156 110.648438 152.40625 112.710938 151.28125 C 114.84375 150.117188 117.378906 148.9375 119.851562 149.007812 C 120.28125 149.019531 120.28125 148.347656 119.851562 148.335938 C 117.507812 148.269531 115.328125 149.289062 113.253906 150.273438 C 112.226562 150.761719 111.292969 151.277344 110.464844 152.070312 C 109.441406 153.046875 108.882812 154.457031 108 155.554688 C 107.730469 155.886719 108.203125 156.367188 108.472656 156.027344 "/>
<path style=" stroke:none;fill-rule:nonzero;fill:rgb(48.629761%,47.44873%,21.958923%);fill-opacity:1;" d="M 112.648438 157.285156 C 113.257812 156.632812 113.605469 155.828125 114.164062 155.140625 C 114.980469 154.132812 116.898438 154.347656 118.019531 153.9375 C 120.011719 153.207031 121.308594 151.019531 123.609375 151.101562 C 124.039062 151.117188 124.039062 150.445312 123.609375 150.429688 C 121.121094 150.339844 119.59375 152.648438 117.410156 153.449219 C 116.296875 153.855469 115.140625 153.699219 114.082031 154.328125 C 113.195312 154.859375 112.859375 156.082031 112.175781 156.8125 C 111.882812 157.125 112.355469 157.601562 112.648438 157.285156 "/>
<path style=" stroke:none;fill-rule:nonzero;fill:rgb(48.629761%,47.44873%,21.958923%);fill-opacity:1;" d="M 119.667969 158.960938 C 121.21875 157.179688 122.8125 155.417969 124.945312 154.339844 C 126.300781 153.652344 127.761719 153.976562 129.207031 153.949219 C 130.214844 153.929688 131.21875 153.261719 132.21875 153.097656 C 132.644531 153.03125 132.464844 152.386719 132.042969 152.453125 C 130.636719 152.679688 129.507812 153.332031 128.035156 153.261719 C 126.769531 153.203125 125.78125 153.261719 124.609375 153.761719 C 122.414062 154.695312 120.71875 156.734375 119.195312 158.488281 C 118.914062 158.8125 119.382812 159.289062 119.667969 158.960938 "/>
<path style=" stroke:none;fill-rule:nonzero;fill:rgb(48.629761%,47.44873%,21.958923%);fill-opacity:1;" d="M 126.351562 160.550781 C 128.886719 158.085938 131.582031 155.265625 135.390625 155.375 C 135.820312 155.386719 135.820312 154.714844 135.390625 154.703125 C 131.398438 154.589844 128.550781 157.480469 125.878906 160.078125 C 125.570312 160.378906 126.042969 160.851562 126.351562 160.550781 "/>
<path style=" stroke:none;fill-rule:nonzero;fill:rgb(47.839355%,29.798889%,31.759644%);fill-opacity:1;" d="M 76.628906 112.660156 C 77.539062 115.761719 79.566406 121.308594 83.449219 121.394531 C 83.878906 121.402344 83.878906 120.734375 83.449219 120.722656 C 79.980469 120.648438 78.085938 115.25 77.277344 112.484375 C 77.152344 112.066406 76.507812 112.242188 76.628906 112.660156 "/>
<path style=" stroke:none;fill-rule:nonzero;fill:rgb(93.328857%,56.079102%,37.649536%);fill-opacity:1;" d="M 65.046875 32.058594 C 65.25 33.933594 65.613281 35.792969 65.324219 37.679688 C 65.261719 38.101562 65.90625 38.285156 65.972656 37.859375 C 66.269531 35.902344 65.929688 34.003906 65.71875 32.058594 C 65.671875 31.632812 65 31.628906 65.046875 32.058594 "/>
<path style=" stroke:none;fill-rule:nonzero;fill:rgb(93.328857%,56.079102%,37.649536%);fill-opacity:1;" d="M 71.09375 14.75 C 68.042969 17.519531 66.160156 21.054688 65.441406 25.109375 C 65.367188 25.53125 66.011719 25.710938 66.085938 25.285156 C 66.785156 21.332031 68.59375 17.921875 71.566406 15.222656 C 71.886719 14.933594 71.410156 14.460938 71.09375 14.75 "/>
<path style=" stroke:none;fill-rule:nonzero;fill:rgb(93.328857%,56.079102%,37.649536%);fill-opacity:1;" d="M 72.875 34.078125 C 71.886719 39.035156 70.914062 44.566406 66.855469 47.996094 C 63.382812 50.929688 58.609375 51.804688 55.78125 55.582031 C 55.519531 55.929688 56.101562 56.261719 56.355469 55.921875 C 59.386719 51.875 64.875 51.03125 68.371094 47.507812 C 71.753906 44.09375 72.621094 38.765625 73.519531 34.257812 C 73.601562 33.835938 72.957031 33.65625 72.875 34.078125 "/>
<path style=" stroke:none;fill-rule:nonzero;fill:rgb(93.328857%,56.079102%,37.649536%);fill-opacity:1;" d="M 88.046875 17.730469 C 82.027344 15.703125 76.898438 19.820312 74.613281 25.230469 C 74.449219 25.621094 75.023438 25.964844 75.191406 25.566406 C 77.355469 20.441406 82.113281 16.433594 87.867188 18.378906 C 88.277344 18.515625 88.453125 17.867188 88.046875 17.730469 "/>
<path style=" stroke:none;fill-rule:nonzero;fill:rgb(93.328857%,56.079102%,37.649536%);fill-opacity:1;" d="M 65.328125 46.046875 C 67.773438 43.941406 68.921875 40.871094 69.425781 37.746094 C 69.492188 37.324219 68.847656 37.144531 68.78125 37.570312 C 68.296875 40.582031 67.222656 43.535156 64.855469 45.574219 C 64.527344 45.855469 65.003906 46.328125 65.328125 46.046875 "/>
<path style=" stroke:none;fill-rule:nonzero;fill:rgb(93.328857%,56.079102%,37.649536%);fill-opacity:1;" d="M 48.023438 76.511719 C 51.925781 74.894531 54.867188 71.914062 57.25 68.484375 C 57.496094 68.128906 56.914062 67.792969 56.671875 68.144531 C 54.402344 71.414062 51.574219 74.320312 47.847656 75.863281 C 47.457031 76.027344 47.625 76.675781 48.023438 76.511719 "/>
<path style=" stroke:none;fill-rule:nonzero;fill:rgb(93.328857%,56.079102%,37.649536%);fill-opacity:1;" d="M 67.890625 77.597656 C 71.734375 72.742188 75.101562 65.636719 71.953125 59.601562 C 71.753906 59.21875 71.175781 59.558594 71.375 59.9375 C 74.367188 65.671875 71.0625 72.515625 67.417969 77.125 C 67.152344 77.457031 67.621094 77.9375 67.890625 77.597656 "/>
<path style=" stroke:none;fill-rule:nonzero;fill:rgb(93.328857%,56.079102%,37.649536%);fill-opacity:1;" d="M 96.0625 16.046875 C 95.914062 12.242188 91.714844 12.351562 88.875 12.359375 C 88.445312 12.363281 88.445312 13.035156 88.875 13.03125 C 91.273438 13.023438 95.261719 12.722656 95.390625 16.046875 C 95.410156 16.476562 96.078125 16.480469 96.0625 16.046875 "/>
<path style=" stroke:none;fill-rule:nonzero;fill:rgb(48.629761%,47.44873%,21.958923%);fill-opacity:1;" d="M 28.148438 191.679688 C 29.90625 193.492188 31.835938 194.929688 34.230469 195.757812 C 37.265625 196.804688 40.699219 196.730469 43.855469 197.109375 C 47.695312 197.574219 51.550781 198.121094 55.417969 198.289062 C 59.359375 198.460938 63.308594 198.070312 67.238281 197.78125 C 70.996094 197.503906 74.726562 197.378906 78.488281 197.699219 C 82.300781 198.019531 85.929688 198.28125 89.746094 197.878906 C 94.640625 197.359375 100.386719 198.058594 103.703125 193.621094 C 103.960938 193.277344 103.378906 192.941406 103.125 193.285156 C 101.320312 195.703125 98.570312 196.476562 95.703125 196.800781 C 93.027344 197.105469 90.3125 197.195312 87.628906 197.4375 C 84.179688 197.75 80.699219 197.195312 77.265625 196.929688 C 73.714844 196.65625 70.15625 196.898438 66.613281 197.160156 C 63.300781 197.402344 59.996094 197.667969 56.671875 197.648438 C 53.035156 197.628906 49.378906 197.121094 45.769531 196.675781 C 42.425781 196.265625 38.953125 196.171875 35.65625 195.457031 C 32.847656 194.847656 30.597656 193.238281 28.621094 191.207031 C 28.320312 190.898438 27.847656 191.371094 28.148438 191.679688 "/>
<path style=" stroke:none;fill-rule:nonzero;fill:rgb(48.629761%,47.44873%,21.958923%);fill-opacity:1;" d="M 47.265625 160.117188 C 47.265625 164.972656 47.105469 170.667969 50.816406 174.34375 C 52.867188 176.367188 55.882812 177.113281 58.644531 177.433594 C 62.957031 177.933594 67.324219 177.703125 71.574219 178.699219 C 71.996094 178.796875 72.171875 178.152344 71.753906 178.054688 C 68.453125 177.277344 65.085938 177.210938 61.71875 177.027344 C 58.203125 176.835938 54.398438 176.460938 51.578125 174.128906 C 47.632812 170.867188 47.9375 164.730469 47.9375 160.117188 C 47.9375 159.683594 47.265625 159.683594 47.265625 160.117188 "/>
<path style=" stroke:none;fill-rule:nonzero;fill:rgb(48.629761%,47.44873%,21.958923%);fill-opacity:1;" d="M 48.269531 168.15625 C 50.085938 168.203125 51.804688 167.804688 53.542969 167.324219 C 55.375 166.824219 57.304688 166.511719 59.066406 165.8125 C 61.605469 164.800781 62.894531 162.507812 63.933594 160.121094 C 64.101562 159.726562 63.527344 159.382812 63.355469 159.78125 C 62.296875 162.214844 61.066406 164.296875 58.5 165.320312 C 57.054688 165.894531 55.433594 166.101562 53.9375 166.519531 C 52.070312 167.042969 50.226562 167.535156 48.269531 167.488281 C 47.839844 167.476562 47.839844 168.148438 48.269531 168.15625 "/>
<path style=" stroke:none;fill-rule:nonzero;fill:rgb(48.629761%,47.44873%,21.958923%);fill-opacity:1;" d="M 94.554688 154.375 C 96.15625 155.066406 97.832031 155.539062 99.480469 156.082031 C 99.894531 156.21875 100.066406 155.574219 99.660156 155.4375 C 98.0625 154.910156 96.4375 154.464844 94.894531 153.796875 C 94.5 153.628906 94.160156 154.203125 94.554688 154.375 "/>
<path style=" stroke:none;fill-rule:nonzero;fill:rgb(48.629761%,47.44873%,21.958923%);fill-opacity:1;" d="M 105.308594 99.863281 C 107.285156 99.859375 108.984375 99.605469 110.558594 98.316406 C 110.890625 98.042969 110.414062 97.570312 110.085938 97.839844 C 108.664062 99.007812 107.085938 99.1875 105.308594 99.195312 C 104.878906 99.199219 104.878906 99.867188 105.308594 99.863281 "/>
<path style=" stroke:none;fill-rule:nonzero;fill:rgb(47.839355%,29.798889%,31.759644%);fill-opacity:1;" d="M 113.707031 128.289062 C 116.097656 131.511719 119.699219 133.257812 123.035156 135.316406 C 125.585938 136.882812 129.289062 138.910156 132.257812 137.285156 C 134.125 136.261719 134.601562 133.800781 134.503906 131.863281 C 134.378906 129.433594 133.253906 127.742188 131.609375 126.09375 C 131.304688 125.789062 130.832031 126.265625 131.136719 126.570312 C 132.609375 128.042969 133.539062 129.410156 133.804688 131.542969 C 134.054688 133.523438 133.535156 135.820312 131.675781 136.839844 C 128.816406 138.40625 124.765625 135.605469 122.429688 134.152344 C 119.5 132.328125 116.398438 130.796875 114.285156 127.949219 C 114.03125 127.609375 113.453125 127.941406 113.707031 128.289062 "/>
<path style=" stroke:none;fill-rule:nonzero;fill:rgb(48.629761%,47.44873%,21.958923%);fill-opacity:1;" d="M 62.195312 28.363281 C 62.351562 29.953125 75.339844 34.976562 76.175781 29.785156 C 76.675781 26.101562 62.035156 26.769531 62.195312 28.363281 "/>
<path style=" stroke:none;fill-rule:nonzero;fill:rgb(47.839355%,29.798889%,31.759644%);fill-opacity:1;" d="M 37.421875 95.710938 C 37.78125 97.695312 39.332031 97.605469 40.988281 97.273438 C 42.558594 96.957031 43.328125 97.394531 44.574219 98.335938 C 45.589844 99.105469 46.613281 99.292969 47.855469 99.125 C 48.816406 98.992188 49.636719 98.675781 50.625 98.882812 C 51.398438 99.046875 52.148438 99.464844 52.886719 99.734375 C 54.445312 100.300781 55.757812 99.457031 57.300781 99.285156 C 58.847656 99.117188 60.460938 100.316406 61.886719 100.777344 C 63.070312 101.164062 64.195312 101.003906 65.261719 100.398438 C 65.636719 100.1875 65.296875 99.609375 64.925781 99.820312 C 62.289062 101.320312 60.347656 98.734375 57.792969 98.636719 C 56.351562 98.578125 54.980469 99.492188 53.546875 99.226562 C 52.429688 99.019531 51.429688 98.179688 50.273438 98.132812 C 48.667969 98.070312 47.144531 98.90625 45.570312 98.210938 C 44.710938 97.828125 44.1875 96.882812 43.261719 96.597656 C 41.625 96.09375 38.496094 97.917969 38.066406 95.53125 C 37.988281 95.105469 37.34375 95.289062 37.421875 95.710938 "/>
<path style=" stroke:none;fill-rule:nonzero;fill:rgb(47.839355%,29.798889%,31.759644%);fill-opacity:1;" d="M 106.421875 89.253906 C 107.523438 89.355469 108 88.871094 108.335938 87.871094 C 109.152344 85.429688 111.585938 87.546875 113.34375 86.816406 C 115.128906 86.070312 114.1875 83.332031 116.75 83.773438 C 118.285156 84.039062 119.101562 84.65625 120.078125 83.058594 C 120.304688 82.6875 119.726562 82.351562 119.5 82.722656 C 118.550781 84.277344 116.445312 82.578125 115.09375 83.269531 C 113.753906 83.953125 114.316406 85.691406 112.804688 86.320312 C 111.515625 86.855469 110.148438 85.480469 108.757812 86.117188 C 107.609375 86.648438 107.925781 88.722656 106.421875 88.585938 C 105.992188 88.546875 105.996094 89.21875 106.421875 89.253906 "/>
<path style=" stroke:none;fill-rule:nonzero;fill:rgb(16.468811%,8.239746%,6.269836%);fill-opacity:1;" d="M 263.261719 129.539062 C 261.457031 131.089844 259.488281 134.402344 260.148438 137.507812 C 260.367188 138.730469 261.96875 139.726562 263.324219 139.949219 C 264.898438 140.171875 265.425781 138.839844 266.472656 137.953125 "/>
<path style=" stroke:none;fill-rule:nonzero;fill:rgb(83.529663%,30.979919%,28.62854%);fill-opacity:1;" d="M 292.976562 291.089844 C 292.976562 299.394531 295.292969 326.453125 295.628906 327.835938 C 295.96875 329.21875 299.699219 329.6875 299.953125 327.464844 C 300.207031 325.238281 302.609375 291.089844 302.609375 291.089844 "/>
<path style=" stroke:none;fill-rule:nonzero;fill:rgb(16.468811%,8.239746%,6.269836%);fill-opacity:1;" d="M 339.863281 291.089844 C 339.863281 299.394531 342.179688 326.453125 342.519531 327.835938 C 342.859375 329.21875 346.589844 329.6875 346.84375 327.464844 C 347.09375 325.238281 349.5 291.089844 349.5 291.089844 "/>
<path style=" stroke:none;fill-rule:nonzero;fill:rgb(83.529663%,30.979919%,28.62854%);fill-opacity:1;" d="M 185.703125 291.089844 C 185.703125 299.394531 188.019531 326.453125 188.363281 327.835938 C 188.703125 329.21875 192.429688 329.6875 192.683594 327.464844 C 192.933594 325.238281 195.339844 291.089844 195.339844 291.089844 "/>
<path style=" stroke:none;fill-rule:nonzero;fill:rgb(16.468811%,8.239746%,6.269836%);fill-opacity:1;" d="M 232.59375 291.089844 C 232.59375 299.394531 234.910156 326.453125 235.25 327.835938 C 235.589844 329.21875 239.320312 329.6875 239.574219 327.464844 C 239.824219 325.238281 242.230469 291.089844 242.230469 291.089844 "/>
<path style=" stroke:none;fill-rule:nonzero;fill:rgb(16.468811%,8.239746%,6.269836%);fill-opacity:1;" d="M 184.546875 228.070312 C 181.691406 228.070312 174.347656 230.140625 174.347656 241.125 C 174.347656 254.179688 174.003906 281.296875 174.003906 285.648438 C 174.003906 297.726562 181.21875 297.464844 184.84375 297.496094 C 198.773438 297.613281 229.648438 297.949219 238.707031 297.496094 C 247.765625 297.039062 327.128906 298.449219 338.472656 297.726562 C 349.816406 297.003906 363.601562 153.066406 358.027344 148.992188 C 352.453125 144.921875 256.597656 149.832031 253.878906 148.992188 C 250.378906 147.910156 246.09375 149.085938 244.472656 154.617188 C 241.589844 164.4375 236.234375 196.859375 225.941406 208.671875 C 215.648438 220.484375 194.839844 228.070312 184.546875 228.070312 "/>
<path style=" stroke:none;fill-rule:nonzero;fill:rgb(16.468811%,8.239746%,6.269836%);fill-opacity:1;" d="M 291.492188 123.402344 C 297.160156 123.625 301.546875 127.21875 304.894531 131.152344 C 308.152344 134.96875 308.730469 142.722656 306.832031 148 C 304.867188 153.730469 300.019531 159.683594 294.324219 161.816406 C 290.960938 163.050781 289.527344 162.378906 287.617188 159.792969 C 285.648438 156.875 283.714844 153.730469 282.835938 150.132812 C 282.171875 148 282.292969 145.753906 282.214844 143.394531 C 281.988281 141.261719 281.5625 139.015625 281.796875 136.765625 C 282.09375 134.070312 282.5625 131.710938 284.53125 129.578125 C 285.972656 128.007812 287.367188 126.769531 288.996094 125.421875 "/>
<path style=" stroke:none;fill-rule:nonzero;fill:rgb(83.529663%,30.979919%,28.62854%);fill-opacity:1;" d="M 227.289062 253.222656 C 227.277344 238.757812 245.699219 196.671875 248.984375 189.765625 C 252.273438 182.863281 258.191406 174.3125 279.246094 174.640625 C 287.878906 174.777344 300.011719 175.328125 308.710938 182.789062 C 316.332031 189.324219 314.527344 203.429688 312.230469 224.917969 C 310.441406 241.644531 298.71875 260.785156 287.199219 265.058594 C 275.679688 269.335938 227.296875 267.691406 227.289062 253.222656 "/>
<path style=" stroke:none;fill-rule:nonzero;fill:rgb(86.669922%,68.629456%,58.039856%);fill-opacity:1;" d="M 272.359375 175.222656 C 271.996094 176.550781 274.1875 179.105469 277.160156 179.535156 C 280.710938 180.042969 285.21875 178.179688 285.617188 176.609375 C 286.34375 173.726562 287.339844 169.28125 287.5625 165.4375 C 287.769531 161.855469 284.417969 158.859375 280.988281 158.859375 C 277.136719 158.859375 275.140625 162.066406 274.488281 165.453125 C 274.355469 166.136719 273.148438 172.304688 272.359375 175.222656 "/>
<path style=" stroke:none;fill-rule:nonzero;fill:rgb(100%,86.669922%,78.42865%);fill-opacity:1;" d="M 298.4375 136.417969 C 303.261719 143.363281 303.917969 153.285156 300.445312 159.703125 C 296.96875 166.117188 292.425781 172.265625 279.585938 172.269531 C 263.71875 172.273438 259.792969 163.933594 259.695312 152.296875 C 259.578125 139.203125 262.28125 134.488281 266.15625 130.402344 C 271.570312 124.699219 290.683594 125.246094 298.4375 136.417969 "/>
<path style=" stroke:none;fill-rule:nonzero;fill:rgb(86.669922%,68.629456%,58.039856%);fill-opacity:1;" d="M 275.347656 160.578125 C 273.425781 161.128906 271.535156 161.265625 269.710938 160.339844 C 269.011719 159.984375 269.628906 158.9375 270.324219 159.292969 C 271.847656 160.066406 273.4375 159.863281 275.027344 159.410156 C 275.78125 159.191406 276.101562 160.363281 275.347656 160.578125 "/>
<path style=" stroke:none;fill-rule:nonzero;fill:rgb(16.468811%,8.239746%,6.269836%);fill-opacity:1;" d="M 280.898438 150.019531 C 280.734375 148.816406 281.367188 147.085938 282.574219 147.503906 C 283.875 147.960938 283.367188 150.40625 282.636719 150.953125 C 281.800781 151.578125 281.039062 151.019531 280.898438 150.019531 "/>
<path style=" stroke:none;fill-rule:nonzero;fill:rgb(16.468811%,8.239746%,6.269836%);fill-opacity:1;" d="M 284.164062 145.347656 C 283.613281 144.523438 282.28125 144.148438 281.425781 144.675781 C 280.757812 145.082031 280.144531 144.03125 280.8125 143.625 C 282.257812 142.746094 284.300781 143.371094 285.210938 144.734375 C 285.648438 145.386719 284.597656 145.996094 284.164062 145.347656 "/>
<path style=" stroke:none;fill-rule:nonzero;fill:rgb(16.468811%,8.239746%,6.269836%);fill-opacity:1;" d="M 266.707031 150.019531 C 266.539062 148.816406 267.175781 147.085938 268.378906 147.503906 C 269.679688 147.960938 269.171875 150.40625 268.445312 150.953125 C 267.605469 151.578125 266.84375 151.019531 266.707031 150.019531 "/>
<path style=" stroke:none;fill-rule:nonzero;fill:rgb(16.468811%,8.239746%,6.269836%);fill-opacity:1;" d="M 266.128906 144.039062 C 267.101562 142.765625 268.960938 142.554688 270.117188 143.585938 C 270.660156 144.070312 269.894531 144.921875 269.359375 144.441406 C 268.644531 143.808594 267.4375 144.179688 266.890625 144.894531 C 266.4375 145.492188 265.679688 144.628906 266.128906 144.039062 "/>
<path style=" stroke:none;fill-rule:nonzero;fill:rgb(86.669922%,68.629456%,58.039856%);fill-opacity:1;" d="M 259.699219 152.855469 C 259.738281 154.992188 259.925781 157.015625 260.285156 158.890625 C 260.984375 159.539062 261.949219 159.953125 263.1875 159.953125 C 268.886719 159.953125 268.886719 151.109375 263.1875 151.109375 C 261.5625 151.109375 260.398438 151.828125 259.699219 152.855469 "/>
<path style=" stroke:none;fill-rule:nonzero;fill:rgb(86.669922%,68.629456%,58.039856%);fill-opacity:1;" d="M 287.199219 151.113281 C 292.902344 151.113281 292.902344 159.957031 287.199219 159.957031 C 281.496094 159.957031 281.496094 151.113281 287.199219 151.113281 "/>
<path style=" stroke:none;fill-rule:nonzero;fill:rgb(86.669922%,68.629456%,58.039856%);fill-opacity:1;" d="M 273.230469 152.355469 C 272.761719 152.746094 272.242188 153.0625 271.765625 153.4375 C 271.554688 153.597656 271.335938 153.78125 271.1875 154 C 271.109375 154.109375 271.15625 154.144531 271.125 154.074219 C 271.1875 154.207031 271.386719 154.28125 271.503906 154.34375 C 272.191406 154.71875 271.578125 155.765625 270.890625 155.394531 C 270.070312 154.953125 269.625 154.144531 270.195312 153.300781 C 270.730469 152.511719 271.65625 152.09375 272.371094 151.496094 C 272.96875 151.003906 273.832031 151.855469 273.230469 152.355469 "/>
<path style=" stroke:none;fill-rule:nonzero;fill:rgb(100%,86.669922%,78.42865%);fill-opacity:1;" d="M 300.378906 149.910156 C 302.375 145.710938 308.253906 145.078125 308.359375 150.75 C 308.464844 155.160156 304.261719 158.097656 299.957031 157.363281 "/>
<path style=" stroke:none;fill-rule:nonzero;fill:rgb(86.669922%,68.629456%,58.039856%);fill-opacity:1;" d="M 305.851562 151.589844 C 305.8125 150.800781 305.335938 150.035156 304.496094 149.933594 C 303.746094 149.839844 303.011719 150.382812 302.957031 151.15625 C 302.914062 151.796875 303.238281 152.488281 303.378906 153.105469 C 303.425781 153.320312 303.542969 153.742188 303.386719 153.9375 C 303.160156 154.21875 302.390625 153.878906 302.144531 153.792969 C 301.746094 153.652344 301.574219 154.285156 301.96875 154.425781 C 302.488281 154.609375 303.324219 154.894531 303.800781 154.449219 C 304.167969 154.105469 304.125 153.589844 304.054688 153.136719 C 303.957031 152.546875 303.734375 151.980469 303.628906 151.390625 C 303.558594 150.992188 303.832031 150.621094 304.246094 150.574219 C 304.828125 150.507812 305.167969 151.09375 305.195312 151.589844 C 305.214844 152.011719 305.875 152.011719 305.851562 151.589844 "/>
<path style=" stroke:none;fill-rule:nonzero;fill:rgb(100%,99.21875%,94.119263%);fill-opacity:1;" d="M 242.460938 191.695312 C 244.1875 188 267.308594 179.792969 268.828125 180.878906 C 270.34375 181.964844 276.640625 214.820312 276.085938 216.496094 C 275.527344 218.175781 251.71875 224.132812 249.039062 224.183594 C 246.355469 224.238281 230.925781 215.410156 229.417969 213.410156 C 228.226562 211.824219 223.5625 183.914062 223.511719 183.007812 C 223.460938 182.101562 225.097656 178.964844 226.339844 179.621094 C 227.585938 180.277344 241.960938 187.03125 242.460938 191.695312 "/>
<path style=" stroke:none;fill-rule:nonzero;fill:rgb(86.669922%,68.629456%,58.039856%);fill-opacity:1;" d="M 242.734375 193.238281 C 244.320312 192.703125 269.496094 184.113281 271.011719 185.199219 C 272.53125 186.285156 278.828125 219.140625 278.273438 220.816406 C 277.714844 222.496094 252.671875 228.804688 249.992188 228.855469 C 247.308594 228.910156 231.339844 219.546875 229.835938 217.542969 C 228.328125 215.539062 221.65625 182.796875 222.574219 181.925781 C 223.496094 181.054688 241.144531 193.773438 242.734375 193.238281 "/>
<path style=" stroke:none;fill-rule:nonzero;fill:rgb(86.669922%,68.629456%,58.039856%);fill-opacity:1;" d="M 259.734375 258.707031 C 270.011719 254.039062 271.714844 231.078125 257.429688 232.210938 C 243.144531 233.347656 217.917969 244.664062 211.628906 249.835938 C 206.589844 254.125 203.082031 263.996094 211.160156 270.71875 C 219.234375 277.441406 249.457031 263.375 259.734375 258.707031 "/>
<path style=" stroke:none;fill-rule:nonzero;fill:rgb(86.669922%,68.629456%,58.039856%);fill-opacity:1;" d="M 213.140625 248.957031 C 199.019531 255.171875 203.269531 300.507812 202.179688 311.382812 C 201.832031 314.851562 201.792969 316.890625 198.664062 320.609375 C 196.414062 323.527344 192.273438 324.980469 189.734375 327.792969 C 186.800781 331.207031 188.976562 332.785156 192.703125 333.0625 C 196.429688 333.339844 201.070312 330.570312 205.121094 328.710938 C 209.652344 326.652344 220.335938 320.980469 220.664062 316.691406 C 221.210938 309.507812 226.546875 280.414062 227.179688 269.050781 C 227.8125 257.6875 225.136719 243.683594 213.140625 248.957031 "/>
<path style=" stroke:none;fill-rule:nonzero;fill:rgb(100%,86.669922%,78.42865%);fill-opacity:1;" d="M 259.078125 270.203125 C 265.597656 271.613281 274.023438 270.308594 278.070312 264.09375 C 280.800781 259.382812 285 252.207031 277.199219 239.164062 C 269.394531 226.121094 245.730469 205.375 238.128906 201.21875 C 231.910156 197.949219 221.378906 196.449219 219.226562 206.328125 C 217.070312 216.210938 248.648438 267.949219 259.078125 270.203125 "/>
<path style=" stroke:none;fill-rule:nonzero;fill:rgb(86.669922%,68.629456%,58.039856%);fill-opacity:1;" d="M 274.839844 235.632812 C 262.289062 241.792969 250.902344 248.300781 237.175781 245.453125 C 246.035156 259.722656 253.921875 269.085938 259.078125 270.203125 C 265.597656 271.613281 274.023438 270.308594 278.070312 264.09375 C 280.800781 259.382812 285 252.207031 277.199219 239.164062 C 276.523438 238.039062 275.730469 236.855469 274.839844 235.632812 "/>
<path style=" stroke:none;fill-rule:nonzero;fill:rgb(100%,99.21875%,94.119263%);fill-opacity:1;" d="M 240.816406 252.347656 C 240.730469 251.90625 240.957031 251.089844 240.957031 251.089844 C 240.957031 251.089844 241.855469 252.125 242 252.089844 C 247.269531 250.859375 255.6875 246.839844 260.09375 243.28125 C 262.917969 241.035156 266.414062 234.050781 268.511719 229.453125 C 268.941406 228.503906 267.300781 226.589844 267.300781 226.589844 C 267.300781 226.589844 269.917969 224.734375 270.355469 225.210938 C 270.789062 225.683594 283.246094 239.136719 287.4375 245.703125 C 292.167969 253.296875 287.703125 261.699219 280.097656 267.917969 C 274.289062 272.753906 254.089844 275.054688 248.113281 267.804688 C 244.382812 263.277344 240.90625 252.789062 240.816406 252.347656 "/>
<path style=" stroke:none;fill-rule:nonzero;fill:rgb(100%,86.669922%,78.42865%);fill-opacity:1;" d="M 220.078125 203.84375 C 213.503906 214.207031 228.078125 258.949219 231.542969 267.128906 C 232.972656 270.476562 233.105469 272.589844 231.445312 276.890625 C 230.332031 280.222656 226.914062 282.523438 225.492188 285.808594 C 223.914062 289.773438 226.523438 290.847656 230.152344 290.324219 C 233.777344 289.796875 237.207031 286.101562 240.394531 283.417969 C 243.972656 280.441406 252.109375 272.621094 250.917969 268.363281 C 248.921875 261.230469 243.792969 231.6875 240.414062 220.457031 C 237.035156 209.226562 226.652344 193.480469 220.078125 203.84375 "/>
<g clip-path="url(#clip6)" clip-rule="nonzero">
<path style=" stroke:none;fill-rule:nonzero;fill:rgb(16.468811%,8.239746%,6.269836%);fill-opacity:1;" d="M 288.691406 228.070312 C 285.835938 228.070312 278.492188 230.140625 278.492188 241.125 C 278.492188 250.714844 278.308594 267.886719 278.210938 278.058594 C 278.171875 281.734375 274.167969 284.570312 270.972656 285.097656 C 267.773438 285.625 285.363281 297.464844 288.992188 297.496094 C 302.917969 297.613281 333.792969 297.949219 342.851562 297.496094 C 351.910156 297.039062 365.085938 296.585938 365.085938 284.28125 C 365.085938 271.976562 363.582031 160.542969 363.167969 154.617188 C 362.757812 148.695312 351.5 144.800781 348.617188 154.617188 C 345.734375 164.4375 340.382812 196.859375 330.089844 208.671875 C 319.792969 220.484375 298.984375 228.070312 288.691406 228.070312 "/>
</g>
<path style=" stroke:none;fill-rule:nonzero;fill:rgb(86.669922%,68.629456%,58.039856%);fill-opacity:1;" d="M 312.988281 232.265625 C 315.925781 232.957031 321.65625 231.40625 320.667969 218.691406 L 308.613281 218.691406 C 308.613281 218.691406 310.054688 231.574219 312.988281 232.265625 "/>
<path style=" stroke:none;fill-rule:nonzero;fill:rgb(83.529663%,30.979919%,28.62854%);fill-opacity:1;" d="M 288.644531 204.195312 C 289.214844 206.972656 290.6875 215.605469 293.707031 219.347656 C 296.730469 223.09375 330.972656 222.199219 329 215.839844 C 327.027344 209.484375 318.402344 195.824219 311.167969 185.632812 C 307.878906 180.699219 300.394531 181.320312 294.476562 186.578125 C 288.558594 191.839844 288.074219 201.414062 288.644531 204.195312 "/>
<path style=" stroke:none;fill-rule:nonzero;fill:rgb(100%,86.669922%,78.42865%);fill-opacity:1;" d="M 268.226562 192.816406 C 266.179688 193.195312 257.0625 197.90625 257.992188 199.777344 C 258.398438 200.601562 260.152344 200.21875 261.984375 199.53125 C 260.078125 201.1875 258.136719 203.066406 258.113281 203.765625 C 258.085938 204.628906 258.773438 204.839844 259.457031 204.746094 C 258.941406 205.292969 258.671875 205.820312 258.824219 206.300781 C 259.292969 207.792969 263.824219 205.832031 266.691406 204.46875 C 265.023438 205.742188 263.597656 207.109375 263.621094 207.832031 C 263.726562 211.3125 271.117188 205.652344 271.808594 206.316406 C 272.496094 206.984375 277.285156 210.34375 281.167969 208.667969 C 285.195312 213.109375 300.335938 231.191406 308.046875 233.722656 C 316.828125 236.601562 323.535156 227.871094 316.292969 217.644531 C 309.050781 207.421875 270.203125 192.449219 268.226562 192.816406 "/>
<path style=" stroke:none;fill-rule:nonzero;fill:rgb(86.669922%,68.629456%,58.039856%);fill-opacity:1;" d="M 267.851562 204.207031 C 269.019531 203.160156 269.839844 201.855469 271.515625 201.644531 C 271.945312 201.589844 271.929688 200.910156 271.496094 200.96875 C 269.582031 201.207031 268.703125 202.539062 267.359375 203.742188 C 267.03125 204.035156 267.53125 204.496094 267.851562 204.207031 "/>
<path style=" stroke:none;fill-rule:nonzero;fill:rgb(86.669922%,68.629456%,58.039856%);fill-opacity:1;" d="M 260.578125 204.125 C 261.957031 203.058594 263.40625 202.105469 264.78125 201.027344 C 266.421875 199.75 268.351562 197.894531 270.601562 198.21875 C 271.035156 198.28125 271.195312 197.621094 270.761719 197.558594 C 269.03125 197.308594 267.621094 198.085938 266.242188 199.066406 C 264.214844 200.507812 262.179688 202.03125 260.21875 203.550781 C 259.875 203.816406 260.234375 204.394531 260.578125 204.125 "/>
<path style=" stroke:none;fill-rule:nonzero;fill:rgb(86.669922%,68.629456%,58.039856%);fill-opacity:1;" d="M 262.921875 199.484375 C 263.699219 198.796875 264.476562 198.109375 265.273438 197.445312 C 266.066406 196.78125 266.890625 195.765625 267.976562 195.628906 C 268.40625 195.574219 268.390625 194.894531 267.953125 194.949219 C 267.042969 195.066406 266.355469 195.621094 265.671875 196.199219 C 264.578125 197.125 263.5 198.070312 262.425781 199.019531 C 262.097656 199.308594 262.597656 199.773438 262.921875 199.484375 "/>
<path style=" stroke:none;fill-rule:nonzero;fill:rgb(100%,86.669922%,78.42865%);fill-opacity:1;" d="M 221.699219 187.574219 C 221.074219 187.679688 220.160156 189.675781 220.40625 190.691406 C 220.6875 191.703125 221.761719 192.199219 222.609375 192.648438 C 224.464844 193.628906 227.265625 193.949219 227.265625 192.683594 C 227.269531 191.109375 222.324219 187.472656 221.699219 187.574219 "/>
<path style=" stroke:none;fill-rule:nonzero;fill:rgb(100%,86.669922%,78.42865%);fill-opacity:1;" d="M 222.546875 183.929688 C 222.546875 183.929688 221.308594 184.363281 220.835938 186.527344 C 220.589844 187.636719 221.742188 188.429688 222.523438 189.035156 C 223.171875 189.554688 224.253906 190.464844 225.160156 190.292969 C 226.15625 190.074219 226.199219 188.558594 225.769531 187.824219 C 225.292969 187.003906 224.144531 186.0625 223.515625 185.488281 C 222.890625 184.914062 222.546875 183.929688 222.546875 183.929688 "/>
<path style=" stroke:none;fill-rule:nonzero;fill:rgb(86.669922%,68.629456%,58.039856%);fill-opacity:1;" d="M 221.472656 188.6875 C 222.507812 189.621094 223.570312 190.238281 224.914062 190.628906 C 225.320312 190.746094 225.492188 190.109375 225.085938 189.992188 C 223.855469 189.636719 222.890625 189.082031 221.933594 188.222656 C 221.621094 187.941406 221.15625 188.40625 221.472656 188.6875 "/>
<path style=" stroke:none;fill-rule:nonzero;fill:rgb(100%,99.21875%,94.119263%);fill-opacity:1;" d="M 223.199219 341.402344 C 219.816406 339.210938 215.640625 340.207031 211.863281 340.605469 C 208.976562 340.847656 206.378906 341.308594 203.765625 342.03125 C 203.457031 341.609375 203.175781 341.253906 202.941406 341.003906 C 200.859375 338.5625 197.808594 338.710938 195.097656 339.925781 C 191.085938 341.347656 186.804688 343.542969 184.972656 347.8125 C 183.144531 352.078125 189.296875 354.664062 192.9375 354.898438 C 202.273438 355.191406 211.125 353.042969 219.753906 349.6875 C 223.332031 348.296875 228.769531 344.980469 223.199219 341.402344 "/>
<path style=" stroke:none;fill-rule:nonzero;fill:rgb(83.529663%,30.979919%,28.62854%);fill-opacity:1;" d="M 204.347656 343.324219 C 205.882812 345.042969 205.683594 347.5625 207.269531 349.28125 C 208.894531 351.039062 211.6875 350.378906 213.714844 349.972656 C 214.128906 349.890625 213.953125 349.253906 213.539062 349.335938 C 210.816406 349.886719 207.953125 350.242188 206.703125 347.160156 C 206.085938 345.640625 205.945312 344.128906 204.8125 342.859375 C 204.527344 342.542969 204.066406 343.011719 204.347656 343.324219 "/>
<path style=" stroke:none;fill-rule:nonzero;fill:rgb(83.529663%,30.979919%,28.62854%);fill-opacity:1;" d="M 220.777344 346.886719 C 222.917969 346.222656 222.796875 343.269531 221.152344 342.109375 C 220.804688 341.867188 220.476562 342.4375 220.820312 342.679688 C 222 343.507812 222.171875 345.765625 220.601562 346.253906 C 220.199219 346.382812 220.371094 347.015625 220.777344 346.886719 "/>
<path style=" stroke:none;fill-rule:nonzero;fill:rgb(100%,99.21875%,94.119263%);fill-opacity:1;" d="M 269.214844 349.328125 C 265.832031 347.140625 261.65625 348.136719 257.875 348.535156 C 254.988281 348.773438 252.390625 349.238281 249.777344 349.957031 C 249.46875 349.539062 249.1875 349.179688 248.953125 348.929688 C 246.871094 346.492188 243.820312 346.636719 241.113281 347.855469 C 237.101562 349.277344 232.820312 351.472656 230.988281 355.742188 C 229.15625 360.007812 235.308594 362.589844 238.953125 362.824219 C 248.285156 363.117188 257.136719 360.972656 265.765625 357.617188 C 269.347656 356.222656 274.78125 352.910156 269.214844 349.328125 "/>
<path style=" stroke:none;fill-rule:nonzero;fill:rgb(83.529663%,30.979919%,28.62854%);fill-opacity:1;" d="M 250.582031 351.253906 C 252.289062 352.710938 253.097656 354.84375 254.660156 356.421875 C 256.132812 357.910156 258.203125 358.007812 260.164062 358.011719 C 260.589844 358.011719 260.589844 357.355469 260.164062 357.351562 C 257.898438 357.347656 256.058594 357.085938 254.496094 355.28125 C 253.234375 353.820312 252.546875 352.066406 251.046875 350.785156 C 250.726562 350.511719 250.261719 350.976562 250.582031 351.253906 "/>
<path style=" stroke:none;fill-rule:nonzero;fill:rgb(83.529663%,30.979919%,28.62854%);fill-opacity:1;" d="M 264.75 350.042969 C 266.019531 350.242188 267.121094 350.851562 267.601562 352.101562 C 267.753906 352.492188 268.390625 352.324219 268.238281 351.925781 C 267.675781 350.464844 266.445312 349.648438 264.925781 349.410156 C 264.511719 349.34375 264.332031 349.976562 264.75 350.042969 "/>
<path style=" stroke:none;fill-rule:nonzero;fill:rgb(100%,99.21875%,94.119263%);fill-opacity:1;" d="M 294.789062 286.070312 C 294.785156 281.542969 294.648438 277.015625 294.660156 272.488281 C 294.675781 267.566406 295.203125 262.714844 295.507812 257.808594 C 295.679688 255.007812 295.664062 252.199219 295.699219 249.394531 C 295.726562 246.910156 295.488281 244.097656 296.558594 241.789062 C 297.882812 238.949219 302.066406 239.253906 304.644531 238.707031 C 305.058594 238.621094 304.882812 237.988281 304.46875 238.074219 C 301.851562 238.628906 298.457031 238.390625 296.546875 240.597656 C 295.550781 241.753906 295.308594 243.402344 295.164062 244.863281 C 294.875 247.855469 295.035156 250.925781 294.984375 253.925781 C 294.894531 259.460938 294.140625 264.949219 294.027344 270.484375 C 293.917969 275.679688 294.125 280.875 294.132812 286.070312 C 294.132812 286.496094 294.789062 286.496094 294.789062 286.070312 "/>
<path style=" stroke:none;fill-rule:nonzero;fill:rgb(100%,99.21875%,94.119263%);fill-opacity:1;" d="M 190.3125 286.070312 C 190.308594 281.542969 190.171875 277.015625 190.183594 272.488281 C 190.199219 267.566406 190.730469 262.714844 191.03125 257.808594 C 191.203125 255.007812 191.1875 252.199219 191.222656 249.394531 C 191.25 246.910156 191.011719 244.097656 192.085938 241.789062 C 193.402344 238.949219 197.585938 239.253906 200.167969 238.707031 C 200.585938 238.621094 200.40625 237.988281 199.992188 238.074219 C 197.375 238.628906 193.980469 238.390625 192.074219 240.597656 C 191.074219 241.753906 190.832031 243.402344 190.691406 244.863281 C 190.402344 247.855469 190.558594 250.925781 190.507812 253.925781 C 190.417969 259.460938 189.667969 264.949219 189.550781 270.484375 C 189.441406 275.679688 189.652344 280.875 189.65625 286.070312 C 189.65625 286.496094 190.3125 286.496094 190.3125 286.070312 "/>
<path style=" stroke:none;fill-rule:nonzero;fill:rgb(100%,99.21875%,94.119263%);fill-opacity:1;" d="M 330.320312 208.90625 C 333.011719 206.5625 334.703125 203.082031 336.207031 199.917969 C 338 196.132812 339.476562 192.183594 340.722656 188.1875 C 342.160156 183.574219 343.210938 178.78125 343.96875 174.015625 C 344.722656 169.257812 346.0625 164.597656 347.574219 160.03125 C 347.707031 159.625 347.070312 159.457031 346.9375 159.855469 C 345.472656 164.285156 344.109375 168.828125 343.386719 173.441406 C 342.660156 178.109375 341.644531 182.773438 340.300781 187.300781 C 339.097656 191.359375 337.589844 195.339844 335.824219 199.183594 C 334.332031 202.433594 332.597656 206.050781 329.855469 208.4375 C 329.535156 208.71875 330.003906 209.183594 330.320312 208.90625 "/>
<path style=" stroke:none;fill-rule:nonzero;fill:rgb(100%,99.21875%,94.119263%);fill-opacity:1;" d="M 255.554688 165.382812 C 255.949219 170.570312 252.917969 175.011719 251.425781 179.792969 C 251.296875 180.199219 251.933594 180.371094 252.058594 179.96875 C 253.570312 175.128906 256.613281 170.640625 256.214844 165.382812 C 256.179688 164.964844 255.523438 164.960938 255.554688 165.382812 "/>
<path style=" stroke:none;fill-rule:nonzero;fill:rgb(100%,99.21875%,94.119263%);fill-opacity:1;" d="M 239.039062 193.730469 C 239.226562 195.140625 239.546875 196.53125 239.644531 197.949219 C 239.722656 199.09375 239.839844 200.390625 240.148438 201.492188 C 240.261719 201.898438 240.898438 201.722656 240.78125 201.316406 C 240.46875 200.199219 240.34375 198.582031 240.265625 197.433594 C 240.183594 196.191406 239.863281 194.964844 239.699219 193.730469 C 239.644531 193.316406 238.984375 193.3125 239.039062 193.730469 "/>
<path style=" stroke:none;fill-rule:nonzero;fill:rgb(100%,99.21875%,94.119263%);fill-opacity:1;" d="M 244.476562 194.421875 C 244.78125 196.289062 244.695312 198.183594 244.839844 200.066406 C 244.980469 201.914062 245.507812 203.703125 245.5625 205.566406 C 245.574219 205.988281 246.230469 205.992188 246.21875 205.566406 C 246.167969 203.707031 245.703125 201.910156 245.5 200.066406 C 245.28125 198.128906 245.425781 196.179688 245.113281 194.246094 C 245.042969 193.828125 244.410156 194.003906 244.476562 194.421875 "/>
<path style=" stroke:none;fill-rule:nonzero;fill:rgb(86.669922%,68.629456%,58.039856%);fill-opacity:1;" d="M 240.128906 220.625 C 242.871094 224.230469 243.691406 229.257812 244.46875 233.601562 C 245.28125 238.140625 245.386719 241.523438 246.203125 246.058594 C 246.28125 246.476562 247.210938 247.519531 247.132812 247.101562 C 246.316406 242.566406 245.894531 237.96875 245.105469 233.429688 C 244.339844 229.035156 243.46875 223.933594 240.699219 220.292969 C 240.445312 219.957031 239.875 220.285156 240.128906 220.625 "/>
<path style=" stroke:none;fill-rule:nonzero;fill:rgb(100%,99.21875%,94.119263%);fill-opacity:1;" d="M 324.785156 232.421875 C 327.199219 232.339844 329.46875 230.957031 331.453125 229.707031 C 333.84375 228.199219 336.074219 226.421875 338.222656 224.589844 C 343.878906 219.765625 348.148438 212.726562 351.042969 205.957031 C 351.207031 205.570312 350.640625 205.234375 350.472656 205.625 C 347.734375 212.035156 343.75 218.835938 338.476562 223.5 C 336.496094 225.253906 334.417969 226.894531 332.242188 228.394531 C 330.105469 229.875 327.472656 231.675781 324.785156 231.765625 C 324.359375 231.777344 324.359375 232.4375 324.785156 232.421875 "/>
<g clip-path="url(#clip7)" clip-rule="nonzero">
<path style=" stroke:none;fill-rule:nonzero;fill:rgb(16.468811%,8.239746%,6.269836%);fill-opacity:1;" d="M 300.917969 132.699219 C 299.480469 129.589844 297.882812 126.488281 295.664062 123.855469 C 291.703125 119.152344 285.359375 118.203125 279.546875 118.46875 C 277.136719 118.578125 275.054688 119.234375 272.753906 119.675781 C 271.765625 119.785156 270.011719 119.890625 269.246094 119.234375 C 267.820312 118.140625 269.355469 117.371094 269.136719 116.054688 C 266.578125 115.617188 263.992188 117.566406 262.441406 119.398438 C 260.648438 121.515625 258.796875 124.089844 259.0625 127 C 259.296875 129.597656 260.878906 132.121094 263.109375 133.484375 C 265.082031 134.6875 267.382812 135.675781 269.574219 136.332031 C 274.285156 137.757812 279.875 137.539062 284.699219 137.097656 C 286.890625 136.882812 289.191406 136.222656 291.386719 136.441406 C 294.535156 136.804688 295.804688 139.523438 296.40625 142.300781 C 296.933594 144.75 297.414062 153.410156 302.632812 147.445312 C 304.257812 145.582031 302.308594 135.707031 300.917969 132.699219 "/>
</g>
<path style=" stroke:none;fill-rule:nonzero;fill:rgb(86.669922%,68.629456%,58.039856%);fill-opacity:1;" d="M 225.789062 181.90625 C 227.84375 182.859375 229.875 183.933594 231.558594 185.472656 C 231.871094 185.757812 232.335938 185.292969 232.023438 185.007812 C 230.300781 183.429688 228.226562 182.316406 226.121094 181.339844 C 225.738281 181.164062 225.40625 181.730469 225.789062 181.90625 "/>
<path style=" stroke:none;fill-rule:nonzero;fill:rgb(86.669922%,68.629456%,58.039856%);fill-opacity:1;" d="M 259.082031 186.097656 C 261.789062 184.804688 264.71875 184.195312 267.550781 183.257812 C 267.953125 183.121094 267.78125 182.488281 267.375 182.621094 C 264.488281 183.582031 261.511719 184.210938 258.75 185.53125 C 258.367188 185.714844 258.703125 186.28125 259.082031 186.097656 "/>
<path style=" stroke:none;fill-rule:nonzero;fill:rgb(83.529663%,30.979919%,28.62854%);fill-opacity:1;" d="M 270.023438 126.390625 C 270.671875 129.933594 274.65625 131.324219 277.757812 131.929688 C 279.433594 132.257812 281.164062 132.363281 282.863281 132.160156 C 285.933594 131.792969 288.972656 130.4375 291.875 132.175781 C 292.242188 132.394531 292.570312 131.828125 292.207031 131.609375 C 288.410156 129.335938 284.050781 131.835938 279.964844 131.5625 C 276.609375 131.339844 271.375 130.132812 270.660156 126.214844 C 270.582031 125.800781 269.949219 125.976562 270.023438 126.390625 "/>
<path style=" stroke:none;fill-rule:nonzero;fill:rgb(83.529663%,30.979919%,28.62854%);fill-opacity:1;" d="M 279.710938 125.765625 C 283.65625 128.5 288.988281 125.949219 292.632812 129.332031 C 292.941406 129.621094 293.40625 129.15625 293.097656 128.867188 C 289.339844 125.378906 284.035156 127.960938 280.042969 125.199219 C 279.691406 124.957031 279.363281 125.527344 279.710938 125.765625 "/>
<path style=" stroke:none;fill-rule:nonzero;fill:rgb(83.529663%,30.979919%,28.62854%);fill-opacity:1;" d="M 300.851562 136.234375 C 302.6875 137.886719 303.03125 140.738281 303.058594 143.070312 C 303.0625 143.496094 303.71875 143.496094 303.714844 143.070312 C 303.6875 140.5625 303.285156 137.539062 301.316406 135.769531 C 301 135.488281 300.535156 135.953125 300.851562 136.234375 "/>
<path style=" stroke:none;fill-rule:nonzero;fill:rgb(100%,99.21875%,94.119263%);fill-opacity:1;" d="M 269.894531 177.925781 C 273.820312 184.871094 284.4375 184.046875 288.871094 178.089844 C 289.128906 177.75 288.558594 177.425781 288.304688 177.757812 C 284.152344 183.335938 274.128906 184.078125 270.460938 177.59375 C 270.253906 177.226562 269.683594 177.558594 269.894531 177.925781 "/>
<path style=" stroke:none;fill-rule:nonzero;fill:rgb(100%,99.21875%,94.119263%);fill-opacity:1;" d="M 317.523438 216.886719 C 320.367188 216.808594 323.324219 215.6875 325.484375 213.832031 C 325.804688 213.554688 325.339844 213.089844 325.019531 213.367188 C 322.996094 215.105469 320.1875 216.15625 317.523438 216.230469 C 317.101562 216.242188 317.101562 216.898438 317.523438 216.886719 "/>
<path style=" stroke:none;fill-rule:nonzero;fill:rgb(100%,99.21875%,94.119263%);fill-opacity:1;" d="M 302.398438 205.378906 C 302.398438 203.242188 302.398438 201.105469 302.398438 198.96875 C 302.398438 198.542969 301.742188 198.542969 301.742188 198.96875 C 301.742188 201.105469 301.742188 203.242188 301.742188 205.378906 C 301.742188 205.804688 302.398438 205.804688 302.398438 205.378906 "/>
<path style=" stroke:none;fill-rule:nonzero;fill:rgb(83.529663%,30.979919%,28.62854%);fill-opacity:1;" d="M 250.121094 255.191406 C 255.800781 254.476562 260.570312 251.085938 264.785156 247.417969 C 269.132812 243.636719 272.398438 238.878906 273.289062 233.085938 C 273.355469 232.671875 272.71875 232.492188 272.65625 232.910156 C 271.808594 238.417969 268.792969 242.953125 264.707031 246.613281 C 260.589844 250.300781 255.75 253.824219 250.121094 254.535156 C 249.707031 254.585938 249.703125 255.242188 250.121094 255.191406 "/>
</g>
</svg>
