<?xml version="1.0" encoding="UTF-8"?>
<svg xmlns="http://www.w3.org/2000/svg" xmlns:xlink="http://www.w3.org/1999/xlink" width="1440pt" height="809.999993pt" viewBox="0 0 1440 809.999993" version="1.2">
<defs>
<clipPath id="clip1">
  <path d="M 963.863281 0 L 1440 0 L 1440 498.734375 L 963.863281 498.734375 Z M 963.863281 0 "/>
</clipPath>
<clipPath id="clip2">
  <path d="M 1025 11 L 1440 11 L 1440 398 L 1025 398 Z M 1025 11 "/>
</clipPath>
<clipPath id="clip3">
  <path d="M 1586.429688 156.859375 L 1138.972656 498.957031 L 942.1875 241.566406 L 1389.644531 -100.535156 Z M 1586.429688 156.859375 "/>
</clipPath>
<clipPath id="clip4">
  <path d="M 1586.429688 156.859375 L 1138.972656 498.957031 L 942.1875 241.566406 L 1389.644531 -100.535156 Z M 1586.429688 156.859375 "/>
</clipPath>
<clipPath id="clip5">
  <path d="M 1586.230469 156.59375 L 1137.71875 499.5 L 940.871094 242.03125 L 1389.382812 -100.875 Z M 1586.230469 156.59375 "/>
</clipPath>
<clipPath id="clip6">
  <path d="M 1586.230469 156.59375 L 1138.730469 498.726562 L 942.3125 241.816406 L 1389.8125 -100.316406 Z M 1586.230469 156.59375 "/>
</clipPath>
<clipPath id="clip7">
  <path d="M 1077 31 L 1440 31 L 1440 348 L 1077 348 Z M 1077 31 "/>
</clipPath>
<clipPath id="clip8">
  <path d="M 1586.429688 156.859375 L 1138.972656 498.957031 L 942.1875 241.566406 L 1389.644531 -100.535156 Z M 1586.429688 156.859375 "/>
</clipPath>
<clipPath id="clip9">
  <path d="M 1586.429688 156.859375 L 1138.972656 498.957031 L 942.1875 241.566406 L 1389.644531 -100.535156 Z M 1586.429688 156.859375 "/>
</clipPath>
<clipPath id="clip10">
  <path d="M 1139 55 L 1440 55 L 1440 288 L 1139 288 Z M 1139 55 "/>
</clipPath>
<clipPath id="clip11">
  <path d="M 1586.429688 156.859375 L 1138.972656 498.957031 L 942.1875 241.566406 L 1389.644531 -100.535156 Z M 1586.429688 156.859375 "/>
</clipPath>
<clipPath id="clip12">
  <path d="M 1586.429688 156.859375 L 1138.972656 498.957031 L 942.1875 241.566406 L 1389.644531 -100.535156 Z M 1586.429688 156.859375 "/>
</clipPath>
<clipPath id="clip13">
  <path d="M 1192 74 L 1415 74 L 1415 234 L 1192 234 Z M 1192 74 "/>
</clipPath>
<clipPath id="clip14">
  <path d="M 1586.429688 156.859375 L 1138.972656 498.957031 L 942.1875 241.566406 L 1389.644531 -100.535156 Z M 1586.429688 156.859375 "/>
</clipPath>
<clipPath id="clip15">
  <path d="M 1586.429688 156.859375 L 1138.972656 498.957031 L 942.1875 241.566406 L 1389.644531 -100.535156 Z M 1586.429688 156.859375 "/>
</clipPath>
<clipPath id="clip16">
  <path d="M 23 689 L 34 689 L 34 714 L 23 714 Z M 23 689 "/>
</clipPath>
<clipPath id="clip17">
  <path d="M 189.023438 331.980469 L 534.769531 590.988281 L 197.519531 1041.175781 L -148.226562 782.167969 Z M 189.023438 331.980469 "/>
</clipPath>
<clipPath id="clip18">
  <path d="M 189.023438 331.980469 L 534.769531 590.988281 L 197.519531 1041.175781 L -148.226562 782.167969 Z M 189.023438 331.980469 "/>
</clipPath>
<clipPath id="clip19">
  <path d="M 189.023438 331.980469 L 534.84375 591.042969 L 197.742188 1041.035156 L -148.078125 781.972656 Z M 189.023438 331.980469 "/>
</clipPath>
<clipPath id="clip20">
  <path d="M 146 778 L 157 778 L 157 804 L 146 804 Z M 146 778 "/>
</clipPath>
<clipPath id="clip21">
  <path d="M 189.023438 331.980469 L 534.769531 590.988281 L 197.519531 1041.175781 L -148.226562 782.167969 Z M 189.023438 331.980469 "/>
</clipPath>
<clipPath id="clip22">
  <path d="M 189.023438 331.980469 L 534.769531 590.988281 L 197.519531 1041.175781 L -148.226562 782.167969 Z M 189.023438 331.980469 "/>
</clipPath>
<clipPath id="clip23">
  <path d="M 189.023438 331.980469 L 534.84375 591.042969 L 197.742188 1041.035156 L -148.078125 781.972656 Z M 189.023438 331.980469 "/>
</clipPath>
<clipPath id="clip24">
  <path d="M 402 522 L 413 522 L 413 547 L 402 547 Z M 402 522 "/>
</clipPath>
<clipPath id="clip25">
  <path d="M 189.023438 331.980469 L 534.769531 590.988281 L 197.519531 1041.175781 L -148.226562 782.167969 Z M 189.023438 331.980469 "/>
</clipPath>
<clipPath id="clip26">
  <path d="M 189.023438 331.980469 L 534.769531 590.988281 L 197.519531 1041.175781 L -148.226562 782.167969 Z M 189.023438 331.980469 "/>
</clipPath>
<clipPath id="clip27">
  <path d="M 189.023438 331.980469 L 534.84375 591.042969 L 197.742188 1041.035156 L -148.078125 781.972656 Z M 189.023438 331.980469 "/>
</clipPath>
<clipPath id="clip28">
  <path d="M 46 563 L 57 563 L 57 589 L 46 589 Z M 46 563 "/>
</clipPath>
<clipPath id="clip29">
  <path d="M 189.023438 331.980469 L 534.769531 590.988281 L 197.519531 1041.175781 L -148.226562 782.167969 Z M 189.023438 331.980469 "/>
</clipPath>
<clipPath id="clip30">
  <path d="M 189.023438 331.980469 L 534.769531 590.988281 L 197.519531 1041.175781 L -148.226562 782.167969 Z M 189.023438 331.980469 "/>
</clipPath>
<clipPath id="clip31">
  <path d="M 189.023438 331.980469 L 534.84375 591.042969 L 197.742188 1041.035156 L -148.078125 781.972656 Z M 189.023438 331.980469 "/>
</clipPath>
<clipPath id="clip32">
  <path d="M 371 665 L 382 665 L 382 691 L 371 691 Z M 371 665 "/>
</clipPath>
<clipPath id="clip33">
  <path d="M 189.023438 331.980469 L 534.769531 590.988281 L 197.519531 1041.175781 L -148.226562 782.167969 Z M 189.023438 331.980469 "/>
</clipPath>
<clipPath id="clip34">
  <path d="M 189.023438 331.980469 L 534.769531 590.988281 L 197.519531 1041.175781 L -148.226562 782.167969 Z M 189.023438 331.980469 "/>
</clipPath>
<clipPath id="clip35">
  <path d="M 189.023438 331.980469 L 534.84375 591.042969 L 197.742188 1041.035156 L -148.078125 781.972656 Z M 189.023438 331.980469 "/>
</clipPath>
<clipPath id="clip36">
  <path d="M 365 477 L 376 477 L 376 503 L 365 503 Z M 365 477 "/>
</clipPath>
<clipPath id="clip37">
  <path d="M 189.023438 331.980469 L 534.769531 590.988281 L 197.519531 1041.175781 L -148.226562 782.167969 Z M 189.023438 331.980469 "/>
</clipPath>
<clipPath id="clip38">
  <path d="M 189.023438 331.980469 L 534.769531 590.988281 L 197.519531 1041.175781 L -148.226562 782.167969 Z M 189.023438 331.980469 "/>
</clipPath>
<clipPath id="clip39">
  <path d="M 189.023438 331.980469 L 534.84375 591.042969 L 197.742188 1041.035156 L -148.078125 781.972656 Z M 189.023438 331.980469 "/>
</clipPath>
<clipPath id="clip40">
  <path d="M 82 716 L 92 716 L 92 742 L 82 742 Z M 82 716 "/>
</clipPath>
<clipPath id="clip41">
  <path d="M 189.023438 331.980469 L 534.769531 590.988281 L 197.519531 1041.175781 L -148.226562 782.167969 Z M 189.023438 331.980469 "/>
</clipPath>
<clipPath id="clip42">
  <path d="M 189.023438 331.980469 L 534.769531 590.988281 L 197.519531 1041.175781 L -148.226562 782.167969 Z M 189.023438 331.980469 "/>
</clipPath>
<clipPath id="clip43">
  <path d="M 189.023438 331.980469 L 534.84375 591.042969 L 197.742188 1041.035156 L -148.078125 781.972656 Z M 189.023438 331.980469 "/>
</clipPath>
<clipPath id="clip44">
  <path d="M 325 647 L 336 647 L 336 673 L 325 673 Z M 325 647 "/>
</clipPath>
<clipPath id="clip45">
  <path d="M 189.023438 331.980469 L 534.769531 590.988281 L 197.519531 1041.175781 L -148.226562 782.167969 Z M 189.023438 331.980469 "/>
</clipPath>
<clipPath id="clip46">
  <path d="M 189.023438 331.980469 L 534.769531 590.988281 L 197.519531 1041.175781 L -148.226562 782.167969 Z M 189.023438 331.980469 "/>
</clipPath>
<clipPath id="clip47">
  <path d="M 189.023438 331.980469 L 534.84375 591.042969 L 197.742188 1041.035156 L -148.078125 781.972656 Z M 189.023438 331.980469 "/>
</clipPath>
<clipPath id="clip48">
  <path d="M 440 574 L 451 574 L 451 599 L 440 599 Z M 440 574 "/>
</clipPath>
<clipPath id="clip49">
  <path d="M 189.023438 331.980469 L 534.769531 590.988281 L 197.519531 1041.175781 L -148.226562 782.167969 Z M 189.023438 331.980469 "/>
</clipPath>
<clipPath id="clip50">
  <path d="M 189.023438 331.980469 L 534.769531 590.988281 L 197.519531 1041.175781 L -148.226562 782.167969 Z M 189.023438 331.980469 "/>
</clipPath>
<clipPath id="clip51">
  <path d="M 189.023438 331.980469 L 534.84375 591.042969 L 197.742188 1041.035156 L -148.078125 781.972656 Z M 189.023438 331.980469 "/>
</clipPath>
<clipPath id="clip52">
  <path d="M 398 570 L 409 570 L 409 596 L 398 596 Z M 398 570 "/>
</clipPath>
<clipPath id="clip53">
  <path d="M 189.023438 331.980469 L 534.769531 590.988281 L 197.519531 1041.175781 L -148.226562 782.167969 Z M 189.023438 331.980469 "/>
</clipPath>
<clipPath id="clip54">
  <path d="M 189.023438 331.980469 L 534.769531 590.988281 L 197.519531 1041.175781 L -148.226562 782.167969 Z M 189.023438 331.980469 "/>
</clipPath>
<clipPath id="clip55">
  <path d="M 189.023438 331.980469 L 534.84375 591.042969 L 197.742188 1041.035156 L -148.078125 781.972656 Z M 189.023438 331.980469 "/>
</clipPath>
<clipPath id="clip56">
  <path d="M 29 734 L 40 734 L 40 760 L 29 760 Z M 29 734 "/>
</clipPath>
<clipPath id="clip57">
  <path d="M 189.023438 331.980469 L 534.769531 590.988281 L 197.519531 1041.175781 L -148.226562 782.167969 Z M 189.023438 331.980469 "/>
</clipPath>
<clipPath id="clip58">
  <path d="M 189.023438 331.980469 L 534.769531 590.988281 L 197.519531 1041.175781 L -148.226562 782.167969 Z M 189.023438 331.980469 "/>
</clipPath>
<clipPath id="clip59">
  <path d="M 189.023438 331.980469 L 534.84375 591.042969 L 197.742188 1041.035156 L -148.078125 781.972656 Z M 189.023438 331.980469 "/>
</clipPath>
<clipPath id="clip60">
  <path d="M 104 673 L 115 673 L 115 699 L 104 699 Z M 104 673 "/>
</clipPath>
<clipPath id="clip61">
  <path d="M 189.023438 331.980469 L 534.769531 590.988281 L 197.519531 1041.175781 L -148.226562 782.167969 Z M 189.023438 331.980469 "/>
</clipPath>
<clipPath id="clip62">
  <path d="M 189.023438 331.980469 L 534.769531 590.988281 L 197.519531 1041.175781 L -148.226562 782.167969 Z M 189.023438 331.980469 "/>
</clipPath>
<clipPath id="clip63">
  <path d="M 189.023438 331.980469 L 534.84375 591.042969 L 197.742188 1041.035156 L -148.078125 781.972656 Z M 189.023438 331.980469 "/>
</clipPath>
<clipPath id="clip64">
  <path d="M 39 654 L 50 654 L 50 679 L 39 679 Z M 39 654 "/>
</clipPath>
<clipPath id="clip65">
  <path d="M 189.023438 331.980469 L 534.769531 590.988281 L 197.519531 1041.175781 L -148.226562 782.167969 Z M 189.023438 331.980469 "/>
</clipPath>
<clipPath id="clip66">
  <path d="M 189.023438 331.980469 L 534.769531 590.988281 L 197.519531 1041.175781 L -148.226562 782.167969 Z M 189.023438 331.980469 "/>
</clipPath>
<clipPath id="clip67">
  <path d="M 189.023438 331.980469 L 534.84375 591.042969 L 197.742188 1041.035156 L -148.078125 781.972656 Z M 189.023438 331.980469 "/>
</clipPath>
<clipPath id="clip68">
  <path d="M 191 515 L 201 515 L 201 540 L 191 540 Z M 191 515 "/>
</clipPath>
<clipPath id="clip69">
  <path d="M 189.023438 331.980469 L 534.769531 590.988281 L 197.519531 1041.175781 L -148.226562 782.167969 Z M 189.023438 331.980469 "/>
</clipPath>
<clipPath id="clip70">
  <path d="M 189.023438 331.980469 L 534.769531 590.988281 L 197.519531 1041.175781 L -148.226562 782.167969 Z M 189.023438 331.980469 "/>
</clipPath>
<clipPath id="clip71">
  <path d="M 189.023438 331.980469 L 534.84375 591.042969 L 197.742188 1041.035156 L -148.078125 781.972656 Z M 189.023438 331.980469 "/>
</clipPath>
<clipPath id="clip72">
  <path d="M 189 796 L 200 796 L 200 810 L 189 810 Z M 189 796 "/>
</clipPath>
<clipPath id="clip73">
  <path d="M 189.023438 331.980469 L 534.769531 590.988281 L 197.519531 1041.175781 L -148.226562 782.167969 Z M 189.023438 331.980469 "/>
</clipPath>
<clipPath id="clip74">
  <path d="M 189.023438 331.980469 L 534.769531 590.988281 L 197.519531 1041.175781 L -148.226562 782.167969 Z M 189.023438 331.980469 "/>
</clipPath>
<clipPath id="clip75">
  <path d="M 189.023438 331.980469 L 534.84375 591.042969 L 197.742188 1041.035156 L -148.078125 781.972656 Z M 189.023438 331.980469 "/>
</clipPath>
<clipPath id="clip76">
  <path d="M 52 765 L 63 765 L 63 791 L 52 791 Z M 52 765 "/>
</clipPath>
<clipPath id="clip77">
  <path d="M 189.023438 331.980469 L 534.769531 590.988281 L 197.519531 1041.175781 L -148.226562 782.167969 Z M 189.023438 331.980469 "/>
</clipPath>
<clipPath id="clip78">
  <path d="M 189.023438 331.980469 L 534.769531 590.988281 L 197.519531 1041.175781 L -148.226562 782.167969 Z M 189.023438 331.980469 "/>
</clipPath>
<clipPath id="clip79">
  <path d="M 189.023438 331.980469 L 534.84375 591.042969 L 197.742188 1041.035156 L -148.078125 781.972656 Z M 189.023438 331.980469 "/>
</clipPath>
<clipPath id="clip80">
  <path d="M 136 614 L 146 614 L 146 640 L 136 640 Z M 136 614 "/>
</clipPath>
<clipPath id="clip81">
  <path d="M 189.023438 331.980469 L 534.769531 590.988281 L 197.519531 1041.175781 L -148.226562 782.167969 Z M 189.023438 331.980469 "/>
</clipPath>
<clipPath id="clip82">
  <path d="M 189.023438 331.980469 L 534.769531 590.988281 L 197.519531 1041.175781 L -148.226562 782.167969 Z M 189.023438 331.980469 "/>
</clipPath>
<clipPath id="clip83">
  <path d="M 189.023438 331.980469 L 534.84375 591.042969 L 197.742188 1041.035156 L -148.078125 781.972656 Z M 189.023438 331.980469 "/>
</clipPath>
<clipPath id="clip84">
  <path d="M 20 808 L 31 808 L 31 810 L 20 810 Z M 20 808 "/>
</clipPath>
<clipPath id="clip85">
  <path d="M 189.023438 331.980469 L 534.769531 590.988281 L 197.519531 1041.175781 L -148.226562 782.167969 Z M 189.023438 331.980469 "/>
</clipPath>
<clipPath id="clip86">
  <path d="M 189.023438 331.980469 L 534.769531 590.988281 L 197.519531 1041.175781 L -148.226562 782.167969 Z M 189.023438 331.980469 "/>
</clipPath>
<clipPath id="clip87">
  <path d="M 189.023438 331.980469 L 534.84375 591.042969 L 197.742188 1041.035156 L -148.078125 781.972656 Z M 189.023438 331.980469 "/>
</clipPath>
<clipPath id="clip88">
  <path d="M 196 671 L 206 671 L 206 697 L 196 697 Z M 196 671 "/>
</clipPath>
<clipPath id="clip89">
  <path d="M 189.023438 331.980469 L 534.769531 590.988281 L 197.519531 1041.175781 L -148.226562 782.167969 Z M 189.023438 331.980469 "/>
</clipPath>
<clipPath id="clip90">
  <path d="M 189.023438 331.980469 L 534.769531 590.988281 L 197.519531 1041.175781 L -148.226562 782.167969 Z M 189.023438 331.980469 "/>
</clipPath>
<clipPath id="clip91">
  <path d="M 189.023438 331.980469 L 534.84375 591.042969 L 197.742188 1041.035156 L -148.078125 781.972656 Z M 189.023438 331.980469 "/>
</clipPath>
<clipPath id="clip92">
  <path d="M 266 677 L 277 677 L 277 702 L 266 702 Z M 266 677 "/>
</clipPath>
<clipPath id="clip93">
  <path d="M 189.023438 331.980469 L 534.769531 590.988281 L 197.519531 1041.175781 L -148.226562 782.167969 Z M 189.023438 331.980469 "/>
</clipPath>
<clipPath id="clip94">
  <path d="M 189.023438 331.980469 L 534.769531 590.988281 L 197.519531 1041.175781 L -148.226562 782.167969 Z M 189.023438 331.980469 "/>
</clipPath>
<clipPath id="clip95">
  <path d="M 189.023438 331.980469 L 534.84375 591.042969 L 197.742188 1041.035156 L -148.078125 781.972656 Z M 189.023438 331.980469 "/>
</clipPath>
<clipPath id="clip96">
  <path d="M 253 754 L 263 754 L 263 780 L 253 780 Z M 253 754 "/>
</clipPath>
<clipPath id="clip97">
  <path d="M 189.023438 331.980469 L 534.769531 590.988281 L 197.519531 1041.175781 L -148.226562 782.167969 Z M 189.023438 331.980469 "/>
</clipPath>
<clipPath id="clip98">
  <path d="M 189.023438 331.980469 L 534.769531 590.988281 L 197.519531 1041.175781 L -148.226562 782.167969 Z M 189.023438 331.980469 "/>
</clipPath>
<clipPath id="clip99">
  <path d="M 189.023438 331.980469 L 534.84375 591.042969 L 197.742188 1041.035156 L -148.078125 781.972656 Z M 189.023438 331.980469 "/>
</clipPath>
<clipPath id="clip100">
  <path d="M 229 642 L 239 642 L 239 668 L 229 668 Z M 229 642 "/>
</clipPath>
<clipPath id="clip101">
  <path d="M 189.023438 331.980469 L 534.769531 590.988281 L 197.519531 1041.175781 L -148.226562 782.167969 Z M 189.023438 331.980469 "/>
</clipPath>
<clipPath id="clip102">
  <path d="M 189.023438 331.980469 L 534.769531 590.988281 L 197.519531 1041.175781 L -148.226562 782.167969 Z M 189.023438 331.980469 "/>
</clipPath>
<clipPath id="clip103">
  <path d="M 189.023438 331.980469 L 534.84375 591.042969 L 197.742188 1041.035156 L -148.078125 781.972656 Z M 189.023438 331.980469 "/>
</clipPath>
<clipPath id="clip104">
  <path d="M 167 712 L 178 712 L 178 738 L 167 738 Z M 167 712 "/>
</clipPath>
<clipPath id="clip105">
  <path d="M 189.023438 331.980469 L 534.769531 590.988281 L 197.519531 1041.175781 L -148.226562 782.167969 Z M 189.023438 331.980469 "/>
</clipPath>
<clipPath id="clip106">
  <path d="M 189.023438 331.980469 L 534.769531 590.988281 L 197.519531 1041.175781 L -148.226562 782.167969 Z M 189.023438 331.980469 "/>
</clipPath>
<clipPath id="clip107">
  <path d="M 189.023438 331.980469 L 534.84375 591.042969 L 197.742188 1041.035156 L -148.078125 781.972656 Z M 189.023438 331.980469 "/>
</clipPath>
<clipPath id="clip108">
  <path d="M 195 745 L 206 745 L 206 771 L 195 771 Z M 195 745 "/>
</clipPath>
<clipPath id="clip109">
  <path d="M 189.023438 331.980469 L 534.769531 590.988281 L 197.519531 1041.175781 L -148.226562 782.167969 Z M 189.023438 331.980469 "/>
</clipPath>
<clipPath id="clip110">
  <path d="M 189.023438 331.980469 L 534.769531 590.988281 L 197.519531 1041.175781 L -148.226562 782.167969 Z M 189.023438 331.980469 "/>
</clipPath>
<clipPath id="clip111">
  <path d="M 189.023438 331.980469 L 534.84375 591.042969 L 197.742188 1041.035156 L -148.078125 781.972656 Z M 189.023438 331.980469 "/>
</clipPath>
<clipPath id="clip112">
  <path d="M 0 584 L 10 584 L 10 610 L 0 610 Z M 0 584 "/>
</clipPath>
<clipPath id="clip113">
  <path d="M 189.023438 331.980469 L 534.769531 590.988281 L 197.519531 1041.175781 L -148.226562 782.167969 Z M 189.023438 331.980469 "/>
</clipPath>
<clipPath id="clip114">
  <path d="M 189.023438 331.980469 L 534.769531 590.988281 L 197.519531 1041.175781 L -148.226562 782.167969 Z M 189.023438 331.980469 "/>
</clipPath>
<clipPath id="clip115">
  <path d="M 189.023438 331.980469 L 534.84375 591.042969 L 197.742188 1041.035156 L -148.078125 781.972656 Z M 189.023438 331.980469 "/>
</clipPath>
<clipPath id="clip116">
  <path d="M 304 602 L 314 602 L 314 628 L 304 628 Z M 304 602 "/>
</clipPath>
<clipPath id="clip117">
  <path d="M 189.023438 331.980469 L 534.769531 590.988281 L 197.519531 1041.175781 L -148.226562 782.167969 Z M 189.023438 331.980469 "/>
</clipPath>
<clipPath id="clip118">
  <path d="M 189.023438 331.980469 L 534.769531 590.988281 L 197.519531 1041.175781 L -148.226562 782.167969 Z M 189.023438 331.980469 "/>
</clipPath>
<clipPath id="clip119">
  <path d="M 189.023438 331.980469 L 534.84375 591.042969 L 197.742188 1041.035156 L -148.078125 781.972656 Z M 189.023438 331.980469 "/>
</clipPath>
<clipPath id="clip120">
  <path d="M 275 442 L 285 442 L 285 467 L 275 467 Z M 275 442 "/>
</clipPath>
<clipPath id="clip121">
  <path d="M 189.023438 331.980469 L 534.769531 590.988281 L 197.519531 1041.175781 L -148.226562 782.167969 Z M 189.023438 331.980469 "/>
</clipPath>
<clipPath id="clip122">
  <path d="M 189.023438 331.980469 L 534.769531 590.988281 L 197.519531 1041.175781 L -148.226562 782.167969 Z M 189.023438 331.980469 "/>
</clipPath>
<clipPath id="clip123">
  <path d="M 189.023438 331.980469 L 534.84375 591.042969 L 197.742188 1041.035156 L -148.078125 781.972656 Z M 189.023438 331.980469 "/>
</clipPath>
<clipPath id="clip124">
  <path d="M 321 436 L 332 436 L 332 461 L 321 461 Z M 321 436 "/>
</clipPath>
<clipPath id="clip125">
  <path d="M 189.023438 331.980469 L 534.769531 590.988281 L 197.519531 1041.175781 L -148.226562 782.167969 Z M 189.023438 331.980469 "/>
</clipPath>
<clipPath id="clip126">
  <path d="M 189.023438 331.980469 L 534.769531 590.988281 L 197.519531 1041.175781 L -148.226562 782.167969 Z M 189.023438 331.980469 "/>
</clipPath>
<clipPath id="clip127">
  <path d="M 189.023438 331.980469 L 534.84375 591.042969 L 197.742188 1041.035156 L -148.078125 781.972656 Z M 189.023438 331.980469 "/>
</clipPath>
<clipPath id="clip128">
  <path d="M 356 537 L 367 537 L 367 563 L 356 563 Z M 356 537 "/>
</clipPath>
<clipPath id="clip129">
  <path d="M 189.023438 331.980469 L 534.769531 590.988281 L 197.519531 1041.175781 L -148.226562 782.167969 Z M 189.023438 331.980469 "/>
</clipPath>
<clipPath id="clip130">
  <path d="M 189.023438 331.980469 L 534.769531 590.988281 L 197.519531 1041.175781 L -148.226562 782.167969 Z M 189.023438 331.980469 "/>
</clipPath>
<clipPath id="clip131">
  <path d="M 189.023438 331.980469 L 534.84375 591.042969 L 197.742188 1041.035156 L -148.078125 781.972656 Z M 189.023438 331.980469 "/>
</clipPath>
<clipPath id="clip132">
  <path d="M 97 543 L 108 543 L 108 569 L 97 569 Z M 97 543 "/>
</clipPath>
<clipPath id="clip133">
  <path d="M 189.023438 331.980469 L 534.769531 590.988281 L 197.519531 1041.175781 L -148.226562 782.167969 Z M 189.023438 331.980469 "/>
</clipPath>
<clipPath id="clip134">
  <path d="M 189.023438 331.980469 L 534.769531 590.988281 L 197.519531 1041.175781 L -148.226562 782.167969 Z M 189.023438 331.980469 "/>
</clipPath>
<clipPath id="clip135">
  <path d="M 189.023438 331.980469 L 534.84375 591.042969 L 197.742188 1041.035156 L -148.078125 781.972656 Z M 189.023438 331.980469 "/>
</clipPath>
<clipPath id="clip136">
  <path d="M 184 617 L 195 617 L 195 643 L 184 643 Z M 184 617 "/>
</clipPath>
<clipPath id="clip137">
  <path d="M 189.023438 331.980469 L 534.769531 590.988281 L 197.519531 1041.175781 L -148.226562 782.167969 Z M 189.023438 331.980469 "/>
</clipPath>
<clipPath id="clip138">
  <path d="M 189.023438 331.980469 L 534.769531 590.988281 L 197.519531 1041.175781 L -148.226562 782.167969 Z M 189.023438 331.980469 "/>
</clipPath>
<clipPath id="clip139">
  <path d="M 189.023438 331.980469 L 534.84375 591.042969 L 197.742188 1041.035156 L -148.078125 781.972656 Z M 189.023438 331.980469 "/>
</clipPath>
<clipPath id="clip140">
  <path d="M 443 623 L 454 623 L 454 648 L 443 648 Z M 443 623 "/>
</clipPath>
<clipPath id="clip141">
  <path d="M 189.023438 331.980469 L 534.769531 590.988281 L 197.519531 1041.175781 L -148.226562 782.167969 Z M 189.023438 331.980469 "/>
</clipPath>
<clipPath id="clip142">
  <path d="M 189.023438 331.980469 L 534.769531 590.988281 L 197.519531 1041.175781 L -148.226562 782.167969 Z M 189.023438 331.980469 "/>
</clipPath>
<clipPath id="clip143">
  <path d="M 189.023438 331.980469 L 534.84375 591.042969 L 197.742188 1041.035156 L -148.078125 781.972656 Z M 189.023438 331.980469 "/>
</clipPath>
<clipPath id="clip144">
  <path d="M 148 660 L 159 660 L 159 686 L 148 686 Z M 148 660 "/>
</clipPath>
<clipPath id="clip145">
  <path d="M 189.023438 331.980469 L 534.769531 590.988281 L 197.519531 1041.175781 L -148.226562 782.167969 Z M 189.023438 331.980469 "/>
</clipPath>
<clipPath id="clip146">
  <path d="M 189.023438 331.980469 L 534.769531 590.988281 L 197.519531 1041.175781 L -148.226562 782.167969 Z M 189.023438 331.980469 "/>
</clipPath>
<clipPath id="clip147">
  <path d="M 189.023438 331.980469 L 534.84375 591.042969 L 197.742188 1041.035156 L -148.078125 781.972656 Z M 189.023438 331.980469 "/>
</clipPath>
<clipPath id="clip148">
  <path d="M 78 637 L 88 637 L 88 662 L 78 662 Z M 78 637 "/>
</clipPath>
<clipPath id="clip149">
  <path d="M 189.023438 331.980469 L 534.769531 590.988281 L 197.519531 1041.175781 L -148.226562 782.167969 Z M 189.023438 331.980469 "/>
</clipPath>
<clipPath id="clip150">
  <path d="M 189.023438 331.980469 L 534.769531 590.988281 L 197.519531 1041.175781 L -148.226562 782.167969 Z M 189.023438 331.980469 "/>
</clipPath>
<clipPath id="clip151">
  <path d="M 189.023438 331.980469 L 534.84375 591.042969 L 197.742188 1041.035156 L -148.078125 781.972656 Z M 189.023438 331.980469 "/>
</clipPath>
<clipPath id="clip152">
  <path d="M 101 778 L 112 778 L 112 804 L 101 804 Z M 101 778 "/>
</clipPath>
<clipPath id="clip153">
  <path d="M 189.023438 331.980469 L 534.769531 590.988281 L 197.519531 1041.175781 L -148.226562 782.167969 Z M 189.023438 331.980469 "/>
</clipPath>
<clipPath id="clip154">
  <path d="M 189.023438 331.980469 L 534.769531 590.988281 L 197.519531 1041.175781 L -148.226562 782.167969 Z M 189.023438 331.980469 "/>
</clipPath>
<clipPath id="clip155">
  <path d="M 189.023438 331.980469 L 534.84375 591.042969 L 197.742188 1041.035156 L -148.078125 781.972656 Z M 189.023438 331.980469 "/>
</clipPath>
<clipPath id="clip156">
  <path d="M 349 596 L 360 596 L 360 622 L 349 622 Z M 349 596 "/>
</clipPath>
<clipPath id="clip157">
  <path d="M 189.023438 331.980469 L 534.769531 590.988281 L 197.519531 1041.175781 L -148.226562 782.167969 Z M 189.023438 331.980469 "/>
</clipPath>
<clipPath id="clip158">
  <path d="M 189.023438 331.980469 L 534.769531 590.988281 L 197.519531 1041.175781 L -148.226562 782.167969 Z M 189.023438 331.980469 "/>
</clipPath>
<clipPath id="clip159">
  <path d="M 189.023438 331.980469 L 534.84375 591.042969 L 197.742188 1041.035156 L -148.078125 781.972656 Z M 189.023438 331.980469 "/>
</clipPath>
<clipPath id="clip160">
  <path d="M 394 618 L 404 618 L 404 643 L 394 643 Z M 394 618 "/>
</clipPath>
<clipPath id="clip161">
  <path d="M 189.023438 331.980469 L 534.769531 590.988281 L 197.519531 1041.175781 L -148.226562 782.167969 Z M 189.023438 331.980469 "/>
</clipPath>
<clipPath id="clip162">
  <path d="M 189.023438 331.980469 L 534.769531 590.988281 L 197.519531 1041.175781 L -148.226562 782.167969 Z M 189.023438 331.980469 "/>
</clipPath>
<clipPath id="clip163">
  <path d="M 189.023438 331.980469 L 534.84375 591.042969 L 197.742188 1041.035156 L -148.078125 781.972656 Z M 189.023438 331.980469 "/>
</clipPath>
<clipPath id="clip164">
  <path d="M 127 725 L 138 725 L 138 751 L 127 751 Z M 127 725 "/>
</clipPath>
<clipPath id="clip165">
  <path d="M 189.023438 331.980469 L 534.769531 590.988281 L 197.519531 1041.175781 L -148.226562 782.167969 Z M 189.023438 331.980469 "/>
</clipPath>
<clipPath id="clip166">
  <path d="M 189.023438 331.980469 L 534.769531 590.988281 L 197.519531 1041.175781 L -148.226562 782.167969 Z M 189.023438 331.980469 "/>
</clipPath>
<clipPath id="clip167">
  <path d="M 189.023438 331.980469 L 534.84375 591.042969 L 197.742188 1041.035156 L -148.078125 781.972656 Z M 189.023438 331.980469 "/>
</clipPath>
<clipPath id="clip168">
  <path d="M 283 720 L 294 720 L 294 745 L 283 745 Z M 283 720 "/>
</clipPath>
<clipPath id="clip169">
  <path d="M 189.023438 331.980469 L 534.769531 590.988281 L 197.519531 1041.175781 L -148.226562 782.167969 Z M 189.023438 331.980469 "/>
</clipPath>
<clipPath id="clip170">
  <path d="M 189.023438 331.980469 L 534.769531 590.988281 L 197.519531 1041.175781 L -148.226562 782.167969 Z M 189.023438 331.980469 "/>
</clipPath>
<clipPath id="clip171">
  <path d="M 189.023438 331.980469 L 534.84375 591.042969 L 197.742188 1041.035156 L -148.078125 781.972656 Z M 189.023438 331.980469 "/>
</clipPath>
<clipPath id="clip172">
  <path d="M 413 662 L 424 662 L 424 688 L 413 688 Z M 413 662 "/>
</clipPath>
<clipPath id="clip173">
  <path d="M 189.023438 331.980469 L 534.769531 590.988281 L 197.519531 1041.175781 L -148.226562 782.167969 Z M 189.023438 331.980469 "/>
</clipPath>
<clipPath id="clip174">
  <path d="M 189.023438 331.980469 L 534.769531 590.988281 L 197.519531 1041.175781 L -148.226562 782.167969 Z M 189.023438 331.980469 "/>
</clipPath>
<clipPath id="clip175">
  <path d="M 189.023438 331.980469 L 534.84375 591.042969 L 197.742188 1041.035156 L -148.078125 781.972656 Z M 189.023438 331.980469 "/>
</clipPath>
<clipPath id="clip176">
  <path d="M 262 531 L 272 531 L 272 557 L 262 557 Z M 262 531 "/>
</clipPath>
<clipPath id="clip177">
  <path d="M 189.023438 331.980469 L 534.769531 590.988281 L 197.519531 1041.175781 L -148.226562 782.167969 Z M 189.023438 331.980469 "/>
</clipPath>
<clipPath id="clip178">
  <path d="M 189.023438 331.980469 L 534.769531 590.988281 L 197.519531 1041.175781 L -148.226562 782.167969 Z M 189.023438 331.980469 "/>
</clipPath>
<clipPath id="clip179">
  <path d="M 189.023438 331.980469 L 534.84375 591.042969 L 197.742188 1041.035156 L -148.078125 781.972656 Z M 189.023438 331.980469 "/>
</clipPath>
<clipPath id="clip180">
  <path d="M 228 712 L 239 712 L 239 738 L 228 738 Z M 228 712 "/>
</clipPath>
<clipPath id="clip181">
  <path d="M 189.023438 331.980469 L 534.769531 590.988281 L 197.519531 1041.175781 L -148.226562 782.167969 Z M 189.023438 331.980469 "/>
</clipPath>
<clipPath id="clip182">
  <path d="M 189.023438 331.980469 L 534.769531 590.988281 L 197.519531 1041.175781 L -148.226562 782.167969 Z M 189.023438 331.980469 "/>
</clipPath>
<clipPath id="clip183">
  <path d="M 189.023438 331.980469 L 534.84375 591.042969 L 197.742188 1041.035156 L -148.078125 781.972656 Z M 189.023438 331.980469 "/>
</clipPath>
<clipPath id="clip184">
  <path d="M 325 694 L 336 694 L 336 720 L 325 720 Z M 325 694 "/>
</clipPath>
<clipPath id="clip185">
  <path d="M 189.023438 331.980469 L 534.769531 590.988281 L 197.519531 1041.175781 L -148.226562 782.167969 Z M 189.023438 331.980469 "/>
</clipPath>
<clipPath id="clip186">
  <path d="M 189.023438 331.980469 L 534.769531 590.988281 L 197.519531 1041.175781 L -148.226562 782.167969 Z M 189.023438 331.980469 "/>
</clipPath>
<clipPath id="clip187">
  <path d="M 189.023438 331.980469 L 534.84375 591.042969 L 197.742188 1041.035156 L -148.078125 781.972656 Z M 189.023438 331.980469 "/>
</clipPath>
<clipPath id="clip188">
  <path d="M 280 488 L 291 488 L 291 514 L 280 514 Z M 280 488 "/>
</clipPath>
<clipPath id="clip189">
  <path d="M 189.023438 331.980469 L 534.769531 590.988281 L 197.519531 1041.175781 L -148.226562 782.167969 Z M 189.023438 331.980469 "/>
</clipPath>
<clipPath id="clip190">
  <path d="M 189.023438 331.980469 L 534.769531 590.988281 L 197.519531 1041.175781 L -148.226562 782.167969 Z M 189.023438 331.980469 "/>
</clipPath>
<clipPath id="clip191">
  <path d="M 189.023438 331.980469 L 534.84375 591.042969 L 197.742188 1041.035156 L -148.078125 781.972656 Z M 189.023438 331.980469 "/>
</clipPath>
<clipPath id="clip192">
  <path d="M 233 797 L 244 797 L 244 810 L 233 810 Z M 233 797 "/>
</clipPath>
<clipPath id="clip193">
  <path d="M 189.023438 331.980469 L 534.769531 590.988281 L 197.519531 1041.175781 L -148.226562 782.167969 Z M 189.023438 331.980469 "/>
</clipPath>
<clipPath id="clip194">
  <path d="M 189.023438 331.980469 L 534.769531 590.988281 L 197.519531 1041.175781 L -148.226562 782.167969 Z M 189.023438 331.980469 "/>
</clipPath>
<clipPath id="clip195">
  <path d="M 189.023438 331.980469 L 534.84375 591.042969 L 197.742188 1041.035156 L -148.078125 781.972656 Z M 189.023438 331.980469 "/>
</clipPath>
<clipPath id="clip196">
  <path d="M 308 549 L 319 549 L 319 575 L 308 575 Z M 308 549 "/>
</clipPath>
<clipPath id="clip197">
  <path d="M 189.023438 331.980469 L 534.769531 590.988281 L 197.519531 1041.175781 L -148.226562 782.167969 Z M 189.023438 331.980469 "/>
</clipPath>
<clipPath id="clip198">
  <path d="M 189.023438 331.980469 L 534.769531 590.988281 L 197.519531 1041.175781 L -148.226562 782.167969 Z M 189.023438 331.980469 "/>
</clipPath>
<clipPath id="clip199">
  <path d="M 189.023438 331.980469 L 534.84375 591.042969 L 197.742188 1041.035156 L -148.078125 781.972656 Z M 189.023438 331.980469 "/>
</clipPath>
<clipPath id="clip200">
  <path d="M 265 621 L 275 621 L 275 647 L 265 647 Z M 265 621 "/>
</clipPath>
<clipPath id="clip201">
  <path d="M 189.023438 331.980469 L 534.769531 590.988281 L 197.519531 1041.175781 L -148.226562 782.167969 Z M 189.023438 331.980469 "/>
</clipPath>
<clipPath id="clip202">
  <path d="M 189.023438 331.980469 L 534.769531 590.988281 L 197.519531 1041.175781 L -148.226562 782.167969 Z M 189.023438 331.980469 "/>
</clipPath>
<clipPath id="clip203">
  <path d="M 189.023438 331.980469 L 534.84375 591.042969 L 197.742188 1041.035156 L -148.078125 781.972656 Z M 189.023438 331.980469 "/>
</clipPath>
<clipPath id="clip204">
  <path d="M 154 530 L 165 530 L 165 556 L 154 556 Z M 154 530 "/>
</clipPath>
<clipPath id="clip205">
  <path d="M 189.023438 331.980469 L 534.769531 590.988281 L 197.519531 1041.175781 L -148.226562 782.167969 Z M 189.023438 331.980469 "/>
</clipPath>
<clipPath id="clip206">
  <path d="M 189.023438 331.980469 L 534.769531 590.988281 L 197.519531 1041.175781 L -148.226562 782.167969 Z M 189.023438 331.980469 "/>
</clipPath>
<clipPath id="clip207">
  <path d="M 189.023438 331.980469 L 534.84375 591.042969 L 197.742188 1041.035156 L -148.078125 781.972656 Z M 189.023438 331.980469 "/>
</clipPath>
<clipPath id="clip208">
  <path d="M 225 490 L 236 490 L 236 516 L 225 516 Z M 225 490 "/>
</clipPath>
<clipPath id="clip209">
  <path d="M 189.023438 331.980469 L 534.769531 590.988281 L 197.519531 1041.175781 L -148.226562 782.167969 Z M 189.023438 331.980469 "/>
</clipPath>
<clipPath id="clip210">
  <path d="M 189.023438 331.980469 L 534.769531 590.988281 L 197.519531 1041.175781 L -148.226562 782.167969 Z M 189.023438 331.980469 "/>
</clipPath>
<clipPath id="clip211">
  <path d="M 189.023438 331.980469 L 534.84375 591.042969 L 197.742188 1041.035156 L -148.078125 781.972656 Z M 189.023438 331.980469 "/>
</clipPath>
<clipPath id="clip212">
  <path d="M 325 496 L 335 496 L 335 521 L 325 521 Z M 325 496 "/>
</clipPath>
<clipPath id="clip213">
  <path d="M 189.023438 331.980469 L 534.769531 590.988281 L 197.519531 1041.175781 L -148.226562 782.167969 Z M 189.023438 331.980469 "/>
</clipPath>
<clipPath id="clip214">
  <path d="M 189.023438 331.980469 L 534.769531 590.988281 L 197.519531 1041.175781 L -148.226562 782.167969 Z M 189.023438 331.980469 "/>
</clipPath>
<clipPath id="clip215">
  <path d="M 189.023438 331.980469 L 534.84375 591.042969 L 197.742188 1041.035156 L -148.078125 781.972656 Z M 189.023438 331.980469 "/>
</clipPath>
<clipPath id="clip216">
  <path d="M 203 568 L 214 568 L 214 593 L 203 593 Z M 203 568 "/>
</clipPath>
<clipPath id="clip217">
  <path d="M 189.023438 331.980469 L 534.769531 590.988281 L 197.519531 1041.175781 L -148.226562 782.167969 Z M 189.023438 331.980469 "/>
</clipPath>
<clipPath id="clip218">
  <path d="M 189.023438 331.980469 L 534.769531 590.988281 L 197.519531 1041.175781 L -148.226562 782.167969 Z M 189.023438 331.980469 "/>
</clipPath>
<clipPath id="clip219">
  <path d="M 189.023438 331.980469 L 534.84375 591.042969 L 197.742188 1041.035156 L -148.078125 781.972656 Z M 189.023438 331.980469 "/>
</clipPath>
<clipPath id="clip220">
  <path d="M 146 569 L 156 569 L 156 595 L 146 595 Z M 146 569 "/>
</clipPath>
<clipPath id="clip221">
  <path d="M 189.023438 331.980469 L 534.769531 590.988281 L 197.519531 1041.175781 L -148.226562 782.167969 Z M 189.023438 331.980469 "/>
</clipPath>
<clipPath id="clip222">
  <path d="M 189.023438 331.980469 L 534.769531 590.988281 L 197.519531 1041.175781 L -148.226562 782.167969 Z M 189.023438 331.980469 "/>
</clipPath>
<clipPath id="clip223">
  <path d="M 189.023438 331.980469 L 534.84375 591.042969 L 197.742188 1041.035156 L -148.078125 781.972656 Z M 189.023438 331.980469 "/>
</clipPath>
<clipPath id="clip224">
  <path d="M 23 615 L 34 615 L 34 640 L 23 640 Z M 23 615 "/>
</clipPath>
<clipPath id="clip225">
  <path d="M 189.023438 331.980469 L 534.769531 590.988281 L 197.519531 1041.175781 L -148.226562 782.167969 Z M 189.023438 331.980469 "/>
</clipPath>
<clipPath id="clip226">
  <path d="M 189.023438 331.980469 L 534.769531 590.988281 L 197.519531 1041.175781 L -148.226562 782.167969 Z M 189.023438 331.980469 "/>
</clipPath>
<clipPath id="clip227">
  <path d="M 189.023438 331.980469 L 534.84375 591.042969 L 197.742188 1041.035156 L -148.078125 781.972656 Z M 189.023438 331.980469 "/>
</clipPath>
<clipPath id="clip228">
  <path d="M 244 577 L 255 577 L 255 603 L 244 603 Z M 244 577 "/>
</clipPath>
<clipPath id="clip229">
  <path d="M 189.023438 331.980469 L 534.769531 590.988281 L 197.519531 1041.175781 L -148.226562 782.167969 Z M 189.023438 331.980469 "/>
</clipPath>
<clipPath id="clip230">
  <path d="M 189.023438 331.980469 L 534.769531 590.988281 L 197.519531 1041.175781 L -148.226562 782.167969 Z M 189.023438 331.980469 "/>
</clipPath>
<clipPath id="clip231">
  <path d="M 189.023438 331.980469 L 534.84375 591.042969 L 197.742188 1041.035156 L -148.078125 781.972656 Z M 189.023438 331.980469 "/>
</clipPath>
<clipPath id="clip232">
  <path d="M 93 597 L 103 597 L 103 623 L 93 623 Z M 93 597 "/>
</clipPath>
<clipPath id="clip233">
  <path d="M 189.023438 331.980469 L 534.769531 590.988281 L 197.519531 1041.175781 L -148.226562 782.167969 Z M 189.023438 331.980469 "/>
</clipPath>
<clipPath id="clip234">
  <path d="M 189.023438 331.980469 L 534.769531 590.988281 L 197.519531 1041.175781 L -148.226562 782.167969 Z M 189.023438 331.980469 "/>
</clipPath>
<clipPath id="clip235">
  <path d="M 189.023438 331.980469 L 534.84375 591.042969 L 197.742188 1041.035156 L -148.078125 781.972656 Z M 189.023438 331.980469 "/>
</clipPath>
</defs>
<g id="surface1">
<path style=" stroke:none;fill-rule:nonzero;fill:rgb(81.959534%,87.449646%,78.819275%);fill-opacity:1;" d="M 517.011719 924.289062 C 493.449219 976.996094 424.390625 989.808594 383.898438 948.667969 C 376.925781 941.585938 370.203125 934.410156 363.660156 927.433594 C 362.914062 926.632812 362.164062 925.832031 361.425781 925.035156 C 315.066406 874.972656 250.507812 846.167969 182.335938 843.898438 C 180.429688 843.835938 178.5 843.761719 176.53125 843.671875 C 93.976562 839.886719 -8.867188 835.21875 -36.375 773.722656 C -93.121094 646.90625 -34.808594 567.546875 9.722656 536.828125 C 42.953125 513.898438 65.550781 533.808594 84.910156 520.269531 C 119.253906 496.21875 100.21875 434.800781 130.78125 401.332031 C 194.054688 332.066406 257.535156 400.695312 266.800781 473.269531 C 279.273438 570.984375 278.984375 569.25 385.398438 593.128906 C 408.863281 598.363281 477.695312 599.082031 495.570312 618.675781 C 530.460938 656.90625 479.132812 713.535156 485.109375 751.183594 C 493.257812 802.496094 534.53125 830.851562 528.253906 891.457031 C 527.5 898.789062 523.0625 910.75 517.011719 924.289062 "/>
<g clip-path="url(#clip1)" clip-rule="nonzero">
<path style=" stroke:none;fill-rule:nonzero;fill:rgb(83.139038%,86.669922%,93.728638%);fill-opacity:1;" d="M 1463.082031 483.804688 C 1424.003906 511.097656 1370.257812 499.796875 1344.867188 459.453125 C 1292.050781 375.542969 1254.035156 397.382812 1210.328125 429.332031 C 916.78125 644.136719 907.550781 265.90625 1066.808594 190.214844 C 1127.664062 161.355469 1158.671875 134.824219 1116.613281 77.460938 C 956.675781 -140.847656 1735.082031 -209.140625 1484.363281 117.773438 C 1341.605469 303.925781 1818.285156 235.71875 1463.082031 483.804688 "/>
</g>
<g clip-path="url(#clip2)" clip-rule="nonzero">
<g clip-path="url(#clip3)" clip-rule="nonzero">
<g clip-path="url(#clip4)" clip-rule="nonzero">
<g clip-path="url(#clip5)" clip-rule="nonzero">
<g clip-path="url(#clip6)" clip-rule="nonzero">
<path style=" stroke:none;fill-rule:nonzero;fill:rgb(87.449646%,75.689697%,72.158813%);fill-opacity:1;" d="M 1542.019531 183.238281 C 1561.277344 168.515625 1567.070312 151.8125 1559.253906 133.585938 C 1531.175781 68.140625 1346.9375 5.359375 1260.070312 19.15625 C 1230.414062 23.863281 1214.449219 36.402344 1212.648438 56.417969 C 1207.914062 109.066406 1159.75 160.074219 1113.171875 209.394531 C 1063.554688 261.933594 1016.695312 311.5625 1035.074219 352.960938 C 1043.476562 371.894531 1090.621094 388.261719 1144.730469 391.019531 C 1172.941406 392.460938 1267.613281 392.566406 1301.367188 333.472656 C 1340.109375 265.613281 1382.140625 252.296875 1430.816406 236.871094 C 1463.683594 226.457031 1500.933594 214.652344 1542.019531 183.238281 Z M 1222.902344 27.285156 C 1231.617188 20.625 1243.78125 15.980469 1259.175781 13.539062 C 1302.449219 6.671875 1369.851562 17.503906 1435.097656 41.824219 C 1502.902344 67.089844 1551.269531 100.558594 1564.476562 131.335938 C 1573.328125 151.976562 1566.757812 171.484375 1545.476562 187.753906 C 1503.589844 219.777344 1465.839844 231.734375 1432.539062 242.289062 C 1384.996094 257.355469 1343.9375 270.367188 1306.308594 336.292969 C 1270.945312 398.203125 1173.476562 398.175781 1144.445312 396.699219 C 1087.425781 393.789062 1039.242188 376.363281 1029.875 355.265625 C 1009.964844 310.40625 1058.082031 259.445312 1109.039062 205.488281 C 1154.945312 156.871094 1202.429688 106.597656 1206.984375 55.910156 C 1208.046875 44.140625 1213.441406 34.515625 1222.902344 27.285156 "/>
</g>
</g>
</g>
</g>
</g>
<g clip-path="url(#clip7)" clip-rule="nonzero">
<g clip-path="url(#clip8)" clip-rule="nonzero">
<g clip-path="url(#clip9)" clip-rule="nonzero">
<path style=" stroke:none;fill-rule:nonzero;fill:rgb(87.449646%,75.689697%,72.158813%);fill-opacity:1;" d="M 1500.75 171.941406 C 1516.308594 160.046875 1521 146.578125 1514.699219 131.890625 C 1491.777344 78.457031 1341.226562 27.21875 1270.238281 38.484375 C 1246.199219 42.304688 1233.277344 52.417969 1231.820312 68.546875 C 1227.925781 111.835938 1188.425781 153.675781 1150.21875 194.136719 C 1109.703125 237.039062 1071.4375 277.554688 1086.351562 311.148438 C 1093.164062 326.496094 1131.582031 339.761719 1175.726562 342.011719 C 1198.75 343.1875 1276.035156 343.277344 1303.527344 295.140625 C 1335.355469 239.398438 1369.867188 228.457031 1409.832031 215.792969 C 1436.707031 207.277344 1467.164062 197.617188 1500.75 171.941406 Z M 1239.390625 44.230469 C 1246.589844 38.726562 1256.632812 34.886719 1269.335938 32.871094 C 1304.859375 27.234375 1360.164062 36.113281 1413.671875 56.058594 C 1469.332031 76.804688 1509.054688 104.316406 1519.929688 129.65625 C 1525.054688 141.609375 1526.480469 159.425781 1504.203125 176.457031 C 1469.828125 202.738281 1438.867188 212.550781 1411.550781 221.210938 C 1372.722656 233.515625 1339.191406 244.136719 1308.464844 297.964844 C 1279.371094 348.910156 1199.285156 348.910156 1175.433594 347.6875 C 1128.550781 345.300781 1088.902344 330.898438 1081.152344 313.453125 C 1064.703125 276.402344 1104.238281 234.546875 1146.085938 190.230469 C 1183.625 150.46875 1222.449219 109.363281 1226.164062 68.03125 C 1227.046875 58.234375 1231.527344 50.242188 1239.390625 44.230469 "/>
</g>
</g>
</g>
<g clip-path="url(#clip10)" clip-rule="nonzero">
<g clip-path="url(#clip11)" clip-rule="nonzero">
<g clip-path="url(#clip12)" clip-rule="nonzero">
<path style=" stroke:none;fill-rule:nonzero;fill:rgb(87.449646%,75.689697%,72.158813%);fill-opacity:1;" d="M 1448.449219 158.023438 C 1459.625 149.476562 1462.875 140.226562 1458.378906 129.75 C 1441.773438 91.042969 1332.550781 53.945312 1281.027344 62.125 C 1263.90625 64.84375 1254.699219 71.984375 1253.679688 83.34375 C 1250.8125 115.160156 1221.921875 145.753906 1193.992188 175.339844 C 1164.644531 206.414062 1136.917969 235.765625 1147.585938 259.78125 C 1152.355469 270.542969 1180.679688 280.222656 1212.050781 281.824219 C 1228.730469 282.671875 1284.679688 282.757812 1304.5 248.050781 C 1327.851562 207.152344 1353.136719 199.140625 1382.417969 189.859375 C 1401.945312 183.671875 1424.082031 176.652344 1448.449219 158.023438 Z M 1257.964844 64.910156 C 1262.835938 61.1875 1269.921875 58.128906 1280.132812 56.507812 C 1334.5625 47.867188 1445.851562 86.132812 1463.605469 127.507812 C 1467.449219 136.472656 1468.535156 149.824219 1451.902344 162.539062 C 1426.742188 181.777344 1404.109375 188.949219 1384.140625 195.277344 C 1355.992188 204.199219 1331.679688 211.902344 1309.4375 250.863281 C 1288 288.390625 1229.257812 288.390625 1211.765625 287.496094 C 1176.769531 285.71875 1148.238281 275.265625 1142.390625 262.085938 C 1130.191406 234.621094 1159.171875 203.925781 1189.851562 171.429688 C 1217.128906 142.554688 1245.328125 112.691406 1248.011719 82.828125 C 1248.535156 77.03125 1250.945312 70.277344 1257.964844 64.910156 "/>
</g>
</g>
</g>
<g clip-path="url(#clip13)" clip-rule="nonzero">
<g clip-path="url(#clip14)" clip-rule="nonzero">
<g clip-path="url(#clip15)" clip-rule="nonzero">
<path style=" stroke:none;fill-rule:nonzero;fill:rgb(87.449646%,75.689697%,72.158813%);fill-opacity:1;" d="M 1401.023438 143.984375 C 1408.179688 138.515625 1410.277344 132.632812 1407.4375 126.007812 C 1397.121094 101.957031 1326.136719 75 1288.773438 80.9375 C 1277.691406 82.691406 1271.746094 87.226562 1271.097656 94.414062 C 1269.136719 116.210938 1249.539062 136.960938 1230.585938 157.035156 C 1210.992188 177.773438 1192.507812 197.359375 1199.441406 213 C 1202.15625 219.105469 1218.863281 226.132812 1242.148438 227.316406 C 1265.054688 228.488281 1293.25 223.234375 1303.664062 205 C 1319.59375 177.089844 1336.816406 171.640625 1356.753906 165.316406 C 1370.5 160.964844 1384.710938 156.457031 1401.023438 143.984375 Z M 1272.484375 81.171875 C 1275.890625 78.570312 1280.808594 76.4375 1287.882812 75.320312 C 1324.875 69.449219 1400.558594 95.5625 1412.65625 123.765625 C 1415.378906 130.121094 1416.171875 139.5625 1404.476562 148.5 C 1387.375 161.578125 1372.027344 166.445312 1358.476562 170.738281 C 1338.898438 176.945312 1323.433594 181.84375 1308.597656 207.816406 C 1298.671875 225.207031 1273.714844 234.625 1241.859375 233 C 1222.265625 231.996094 1199.011719 226.035156 1194.246094 215.304688 C 1185.773438 196.207031 1205.53125 175.285156 1226.449219 153.136719 C 1244.742188 133.761719 1263.652344 113.730469 1265.441406 93.902344 C 1265.808594 89.78125 1267.519531 84.96875 1272.484375 81.171875 "/>
</g>
</g>
</g>
<g clip-path="url(#clip16)" clip-rule="nonzero">
<g clip-path="url(#clip17)" clip-rule="nonzero">
<g clip-path="url(#clip18)" clip-rule="nonzero">
<g clip-path="url(#clip19)" clip-rule="nonzero">
<path style=" stroke:none;fill-rule:nonzero;fill:rgb(91.369629%,78.42865%,76.469421%);fill-opacity:1;" d="M 23.519531 693.535156 C 23.957031 698.296875 24.382812 703.058594 24.816406 707.820312 C 24.878906 708.503906 24.945312 709.195312 25.003906 709.878906 C 25.199219 712.054688 27.203125 714.011719 29.476562 713.742188 C 31.699219 713.488281 33.554688 711.609375 33.339844 709.273438 C 32.910156 704.515625 32.476562 699.75 32.039062 694.988281 C 31.980469 694.300781 31.921875 693.617188 31.855469 692.925781 C 31.65625 690.75 29.648438 688.800781 27.382812 689.0625 C 25.164062 689.332031 23.304688 691.199219 23.519531 693.535156 "/>
</g>
</g>
</g>
</g>
<g clip-path="url(#clip20)" clip-rule="nonzero">
<g clip-path="url(#clip21)" clip-rule="nonzero">
<g clip-path="url(#clip22)" clip-rule="nonzero">
<g clip-path="url(#clip23)" clip-rule="nonzero">
<path style=" stroke:none;fill-rule:nonzero;fill:rgb(91.369629%,78.42865%,76.469421%);fill-opacity:1;" d="M 146.476562 783.050781 C 146.90625 787.820312 147.34375 792.582031 147.769531 797.34375 C 147.835938 798.035156 147.898438 798.714844 147.960938 799.398438 C 148.15625 801.574219 150.160156 803.53125 152.4375 803.265625 C 154.648438 803.011719 156.503906 801.132812 156.296875 798.800781 C 155.863281 794.035156 155.425781 789.273438 154.992188 784.511719 C 154.9375 783.820312 154.871094 783.140625 154.8125 782.457031 C 154.609375 780.277344 152.605469 778.320312 150.335938 778.589844 C 148.117188 778.847656 146.265625 780.722656 146.476562 783.050781 "/>
</g>
</g>
</g>
</g>
<g clip-path="url(#clip24)" clip-rule="nonzero">
<g clip-path="url(#clip25)" clip-rule="nonzero">
<g clip-path="url(#clip26)" clip-rule="nonzero">
<g clip-path="url(#clip27)" clip-rule="nonzero">
<path style=" stroke:none;fill-rule:nonzero;fill:rgb(91.369629%,78.42865%,76.469421%);fill-opacity:1;" d="M 402.386719 526.757812 C 402.820312 531.527344 403.246094 536.289062 403.679688 541.050781 C 403.742188 541.734375 403.808594 542.425781 403.867188 543.113281 C 404.0625 545.285156 406.070312 547.238281 408.335938 546.976562 C 410.554688 546.714844 412.414062 544.839844 412.207031 542.507812 C 411.765625 537.742188 411.339844 532.980469 410.90625 528.210938 C 410.84375 527.53125 410.785156 526.847656 410.71875 526.15625 C 410.519531 523.980469 408.519531 522.027344 406.246094 522.292969 C 404.03125 522.554688 402.171875 524.425781 402.386719 526.757812 "/>
</g>
</g>
</g>
</g>
<g clip-path="url(#clip28)" clip-rule="nonzero">
<g clip-path="url(#clip29)" clip-rule="nonzero">
<g clip-path="url(#clip30)" clip-rule="nonzero">
<g clip-path="url(#clip31)" clip-rule="nonzero">
<path style=" stroke:none;fill-rule:nonzero;fill:rgb(91.369629%,78.42865%,76.469421%);fill-opacity:1;" d="M 46.828125 568.308594 C 47.257812 573.078125 47.695312 577.839844 48.132812 582.597656 C 48.1875 583.292969 48.25 583.96875 48.316406 584.660156 C 48.515625 586.835938 50.515625 588.792969 52.789062 588.523438 C 55.003906 588.261719 56.859375 586.394531 56.648438 584.058594 C 56.214844 579.292969 55.777344 574.53125 55.355469 569.765625 C 55.289062 569.078125 55.222656 568.398438 55.164062 567.710938 C 54.964844 565.539062 52.957031 563.574219 50.691406 563.847656 C 48.46875 564.105469 46.617188 565.980469 46.828125 568.308594 "/>
</g>
</g>
</g>
</g>
<g clip-path="url(#clip32)" clip-rule="nonzero">
<g clip-path="url(#clip33)" clip-rule="nonzero">
<g clip-path="url(#clip34)" clip-rule="nonzero">
<g clip-path="url(#clip35)" clip-rule="nonzero">
<path style=" stroke:none;fill-rule:nonzero;fill:rgb(91.369629%,78.42865%,76.469421%);fill-opacity:1;" d="M 371.546875 669.929688 C 371.980469 674.691406 372.414062 679.457031 372.84375 684.214844 C 372.910156 684.90625 372.96875 685.589844 373.027344 686.273438 C 373.230469 688.457031 375.238281 690.40625 377.507812 690.144531 C 379.722656 689.882812 381.585938 688.007812 381.371094 685.671875 C 380.933594 680.910156 380.496094 676.148438 380.066406 671.382812 C 380.007812 670.695312 379.945312 670.011719 379.886719 669.328125 C 379.683594 667.15625 377.675781 665.195312 375.410156 665.457031 C 373.191406 665.71875 371.335938 667.597656 371.546875 669.929688 "/>
</g>
</g>
</g>
</g>
<g clip-path="url(#clip36)" clip-rule="nonzero">
<g clip-path="url(#clip37)" clip-rule="nonzero">
<g clip-path="url(#clip38)" clip-rule="nonzero">
<g clip-path="url(#clip39)" clip-rule="nonzero">
<path style=" stroke:none;fill-rule:nonzero;fill:rgb(91.369629%,78.42865%,76.469421%);fill-opacity:1;" d="M 365.976562 481.964844 C 366.410156 486.726562 366.839844 491.484375 367.273438 496.25 C 367.332031 496.9375 367.398438 497.625 367.457031 498.3125 C 367.660156 500.480469 369.664062 502.4375 371.929688 502.175781 C 374.152344 501.917969 376.007812 500.039062 375.800781 497.710938 C 375.363281 492.949219 374.933594 488.179688 374.496094 483.417969 C 374.4375 482.734375 374.375 482.046875 374.308594 481.359375 C 374.113281 479.183594 372.105469 477.234375 369.839844 477.496094 C 367.621094 477.757812 365.761719 479.632812 365.976562 481.964844 "/>
</g>
</g>
</g>
</g>
<g clip-path="url(#clip40)" clip-rule="nonzero">
<g clip-path="url(#clip41)" clip-rule="nonzero">
<g clip-path="url(#clip42)" clip-rule="nonzero">
<g clip-path="url(#clip43)" clip-rule="nonzero">
<path style=" stroke:none;fill-rule:nonzero;fill:rgb(91.369629%,78.42865%,76.469421%);fill-opacity:1;" d="M 82.074219 721.300781 C 82.511719 726.0625 82.941406 730.828125 83.378906 735.589844 C 83.4375 736.277344 83.5 736.960938 83.5625 737.652344 C 83.761719 739.828125 85.765625 741.785156 88.035156 741.515625 C 90.25 741.253906 92.113281 739.378906 91.898438 737.042969 C 91.464844 732.28125 91.039062 727.519531 90.601562 722.757812 C 90.542969 722.074219 90.476562 721.382812 90.414062 720.699219 C 90.21875 718.523438 88.210938 716.570312 85.945312 716.835938 C 83.722656 717.089844 81.867188 718.96875 82.074219 721.300781 "/>
</g>
</g>
</g>
</g>
<g clip-path="url(#clip44)" clip-rule="nonzero">
<g clip-path="url(#clip45)" clip-rule="nonzero">
<g clip-path="url(#clip46)" clip-rule="nonzero">
<g clip-path="url(#clip47)" clip-rule="nonzero">
<path style=" stroke:none;fill-rule:nonzero;fill:rgb(91.369629%,78.42865%,76.469421%);fill-opacity:1;" d="M 325.546875 652.316406 C 325.976562 657.082031 326.414062 661.84375 326.847656 666.613281 C 326.90625 667.296875 326.972656 667.976562 327.035156 668.667969 C 327.226562 670.835938 329.238281 672.800781 331.507812 672.53125 C 333.722656 672.269531 335.582031 670.398438 335.367188 668.066406 C 334.933594 663.296875 334.503906 658.542969 334.074219 653.773438 C 334.003906 653.089844 333.941406 652.40625 333.882812 651.71875 C 333.6875 649.542969 331.675781 647.582031 329.40625 647.851562 C 327.191406 648.113281 325.339844 649.984375 325.546875 652.316406 "/>
</g>
</g>
</g>
</g>
<g clip-path="url(#clip48)" clip-rule="nonzero">
<g clip-path="url(#clip49)" clip-rule="nonzero">
<g clip-path="url(#clip50)" clip-rule="nonzero">
<g clip-path="url(#clip51)" clip-rule="nonzero">
<path style=" stroke:none;fill-rule:nonzero;fill:rgb(91.369629%,78.42865%,76.469421%);fill-opacity:1;" d="M 440.722656 578.492188 C 441.160156 583.253906 441.582031 588.019531 442.019531 592.78125 C 442.078125 593.464844 442.144531 594.15625 442.207031 594.839844 C 442.402344 597.015625 444.40625 598.972656 446.675781 598.703125 C 448.894531 598.441406 450.753906 596.566406 450.539062 594.234375 C 450.109375 589.476562 449.675781 584.714844 449.242188 579.945312 C 449.183594 579.261719 449.121094 578.578125 449.058594 577.886719 C 448.855469 575.71875 446.851562 573.761719 444.585938 574.023438 C 442.359375 574.285156 440.507812 576.160156 440.722656 578.492188 "/>
</g>
</g>
</g>
</g>
<g clip-path="url(#clip52)" clip-rule="nonzero">
<g clip-path="url(#clip53)" clip-rule="nonzero">
<g clip-path="url(#clip54)" clip-rule="nonzero">
<g clip-path="url(#clip55)" clip-rule="nonzero">
<path style=" stroke:none;fill-rule:nonzero;fill:rgb(91.369629%,78.42865%,76.469421%);fill-opacity:1;" d="M 398.199219 575.253906 C 398.632812 580.023438 399.066406 584.785156 399.492188 589.546875 C 399.558594 590.238281 399.617188 590.921875 399.683594 591.601562 C 399.878906 593.777344 401.882812 595.734375 404.160156 595.46875 C 406.375 595.210938 408.226562 593.335938 408.019531 591.003906 C 407.582031 586.246094 407.152344 581.476562 406.71875 576.707031 C 406.65625 576.03125 406.597656 575.34375 406.53125 574.65625 C 406.332031 572.480469 404.328125 570.523438 402.058594 570.789062 C 399.84375 571.050781 397.984375 572.921875 398.199219 575.253906 "/>
</g>
</g>
</g>
</g>
<g clip-path="url(#clip56)" clip-rule="nonzero">
<g clip-path="url(#clip57)" clip-rule="nonzero">
<g clip-path="url(#clip58)" clip-rule="nonzero">
<g clip-path="url(#clip59)" clip-rule="nonzero">
<path style=" stroke:none;fill-rule:nonzero;fill:rgb(91.369629%,78.42865%,76.469421%);fill-opacity:1;" d="M 29.191406 738.828125 C 29.625 743.597656 30.058594 748.359375 30.492188 753.125 C 30.550781 753.8125 30.609375 754.496094 30.675781 755.175781 C 30.878906 757.355469 32.882812 759.3125 35.152344 759.042969 C 37.371094 758.785156 39.21875 756.910156 39.011719 754.582031 C 38.582031 749.8125 38.144531 745.050781 37.71875 740.289062 C 37.652344 739.597656 37.589844 738.917969 37.527344 738.234375 C 37.332031 736.058594 35.320312 734.097656 33.050781 734.367188 C 30.835938 734.625 28.984375 736.5 29.191406 738.828125 "/>
</g>
</g>
</g>
</g>
<g clip-path="url(#clip60)" clip-rule="nonzero">
<g clip-path="url(#clip61)" clip-rule="nonzero">
<g clip-path="url(#clip62)" clip-rule="nonzero">
<g clip-path="url(#clip63)" clip-rule="nonzero">
<path style=" stroke:none;fill-rule:nonzero;fill:rgb(91.369629%,78.42865%,76.469421%);fill-opacity:1;" d="M 104.675781 678.144531 C 105.113281 682.90625 105.542969 687.675781 105.976562 692.441406 C 106.039062 693.121094 106.101562 693.808594 106.160156 694.492188 C 106.363281 696.671875 108.367188 698.628906 110.636719 698.359375 C 112.855469 698.101562 114.710938 696.230469 114.496094 693.894531 C 114.066406 689.128906 113.632812 684.359375 113.203125 679.605469 C 113.144531 678.917969 113.078125 678.230469 113.015625 677.542969 C 112.820312 675.367188 110.8125 673.417969 108.539062 673.675781 C 106.320312 673.941406 104.46875 675.816406 104.675781 678.144531 "/>
</g>
</g>
</g>
</g>
<g clip-path="url(#clip64)" clip-rule="nonzero">
<g clip-path="url(#clip65)" clip-rule="nonzero">
<g clip-path="url(#clip66)" clip-rule="nonzero">
<g clip-path="url(#clip67)" clip-rule="nonzero">
<path style=" stroke:none;fill-rule:nonzero;fill:rgb(91.369629%,78.42865%,76.469421%);fill-opacity:1;" d="M 39.171875 658.59375 C 39.605469 663.359375 40.039062 668.121094 40.464844 672.886719 C 40.53125 673.574219 40.589844 674.261719 40.652344 674.945312 C 40.851562 677.117188 42.855469 679.082031 45.128906 678.816406 C 47.34375 678.554688 49.199219 676.671875 48.992188 674.34375 C 48.554688 669.582031 48.125 664.816406 47.6875 660.054688 C 47.628906 659.367188 47.566406 658.683594 47.507812 657.996094 C 47.304688 655.816406 45.300781 653.859375 43.03125 654.128906 C 40.816406 654.390625 38.964844 656.265625 39.171875 658.59375 "/>
</g>
</g>
</g>
</g>
<g clip-path="url(#clip68)" clip-rule="nonzero">
<g clip-path="url(#clip69)" clip-rule="nonzero">
<g clip-path="url(#clip70)" clip-rule="nonzero">
<g clip-path="url(#clip71)" clip-rule="nonzero">
<path style=" stroke:none;fill-rule:nonzero;fill:rgb(91.369629%,78.42865%,76.469421%);fill-opacity:1;" d="M 191.042969 519.714844 C 191.46875 524.480469 191.90625 529.242188 192.335938 534.007812 C 192.394531 534.695312 192.457031 535.378906 192.523438 536.070312 C 192.722656 538.238281 194.726562 540.195312 196.992188 539.933594 C 199.214844 539.664062 201.070312 537.796875 200.855469 535.460938 C 200.421875 530.699219 199.996094 525.9375 199.558594 521.175781 C 199.492188 520.488281 199.433594 519.800781 199.375 519.117188 C 199.175781 516.941406 197.171875 514.984375 194.894531 515.246094 C 192.679688 515.507812 190.828125 517.382812 191.042969 519.714844 "/>
</g>
</g>
</g>
</g>
<g clip-path="url(#clip72)" clip-rule="nonzero">
<g clip-path="url(#clip73)" clip-rule="nonzero">
<g clip-path="url(#clip74)" clip-rule="nonzero">
<g clip-path="url(#clip75)" clip-rule="nonzero">
<path style=" stroke:none;fill-rule:nonzero;fill:rgb(91.369629%,78.42865%,76.469421%);fill-opacity:1;" d="M 189.675781 801.082031 C 190.105469 805.839844 190.539062 810.601562 190.972656 815.367188 C 191.03125 816.054688 191.097656 816.742188 191.160156 817.429688 C 191.359375 819.597656 193.359375 821.558594 195.628906 821.292969 C 197.851562 821.035156 199.707031 819.15625 199.492188 816.820312 C 199.0625 812.0625 198.632812 807.296875 198.195312 802.535156 C 198.136719 801.851562 198.070312 801.160156 198.007812 800.472656 C 197.8125 798.300781 195.804688 796.347656 193.539062 796.609375 C 191.316406 796.867188 189.460938 798.746094 189.675781 801.082031 "/>
</g>
</g>
</g>
</g>
<g clip-path="url(#clip76)" clip-rule="nonzero">
<g clip-path="url(#clip77)" clip-rule="nonzero">
<g clip-path="url(#clip78)" clip-rule="nonzero">
<g clip-path="url(#clip79)" clip-rule="nonzero">
<path style=" stroke:none;fill-rule:nonzero;fill:rgb(91.369629%,78.42865%,76.469421%);fill-opacity:1;" d="M 52.730469 769.914062 C 53.15625 774.675781 53.59375 779.4375 54.023438 784.203125 C 54.082031 784.890625 54.144531 785.574219 54.214844 786.257812 C 54.40625 788.441406 56.414062 790.390625 58.683594 790.121094 C 60.902344 789.863281 62.757812 787.992188 62.542969 785.660156 C 62.113281 780.890625 61.683594 776.132812 61.25 771.367188 C 61.1875 770.6875 61.121094 769.996094 61.0625 769.3125 C 60.863281 767.136719 58.859375 765.179688 56.589844 765.449219 C 54.367188 765.703125 52.515625 767.578125 52.730469 769.914062 "/>
</g>
</g>
</g>
</g>
<g clip-path="url(#clip80)" clip-rule="nonzero">
<g clip-path="url(#clip81)" clip-rule="nonzero">
<g clip-path="url(#clip82)" clip-rule="nonzero">
<g clip-path="url(#clip83)" clip-rule="nonzero">
<path style=" stroke:none;fill-rule:nonzero;fill:rgb(91.369629%,78.42865%,76.469421%);fill-opacity:1;" d="M 136.027344 619.109375 C 136.464844 623.871094 136.886719 628.636719 137.324219 633.394531 C 137.386719 634.082031 137.449219 634.773438 137.511719 635.457031 C 137.707031 637.632812 139.710938 639.589844 141.980469 639.320312 C 144.203125 639.0625 146.058594 637.183594 145.84375 634.851562 C 145.414062 630.09375 144.984375 625.324219 144.546875 620.5625 C 144.488281 619.878906 144.421875 619.1875 144.363281 618.503906 C 144.164062 616.328125 142.15625 614.378906 139.890625 614.640625 C 137.667969 614.894531 135.8125 616.777344 136.027344 619.109375 "/>
</g>
</g>
</g>
</g>
<g clip-path="url(#clip84)" clip-rule="nonzero">
<g clip-path="url(#clip85)" clip-rule="nonzero">
<g clip-path="url(#clip86)" clip-rule="nonzero">
<g clip-path="url(#clip87)" clip-rule="nonzero">
<path style=" stroke:none;fill-rule:nonzero;fill:rgb(91.369629%,78.42865%,76.469421%);fill-opacity:1;" d="M 20.414062 813.183594 C 20.84375 817.949219 21.28125 822.710938 21.71875 827.472656 C 21.777344 828.160156 21.835938 828.84375 21.898438 829.53125 C 22.101562 831.710938 24.101562 833.667969 26.375 833.398438 C 28.589844 833.136719 30.441406 831.261719 30.234375 828.933594 C 29.800781 824.164062 29.367188 819.402344 28.941406 814.640625 C 28.871094 813.957031 28.808594 813.273438 28.75 812.585938 C 28.550781 810.410156 26.542969 808.449219 24.273438 808.71875 C 22.054688 808.980469 20.203125 810.855469 20.414062 813.183594 "/>
</g>
</g>
</g>
</g>
<g clip-path="url(#clip88)" clip-rule="nonzero">
<g clip-path="url(#clip89)" clip-rule="nonzero">
<g clip-path="url(#clip90)" clip-rule="nonzero">
<g clip-path="url(#clip91)" clip-rule="nonzero">
<path style=" stroke:none;fill-rule:nonzero;fill:rgb(91.369629%,78.42865%,76.469421%);fill-opacity:1;" d="M 196.0625 675.953125 C 196.492188 680.71875 196.921875 685.476562 197.355469 690.242188 C 197.417969 690.921875 197.480469 691.621094 197.546875 692.296875 C 197.742188 694.472656 199.746094 696.429688 202.015625 696.160156 C 204.238281 695.90625 206.089844 694.03125 205.875 691.699219 C 205.449219 686.933594 205.015625 682.171875 204.582031 677.40625 C 204.519531 676.726562 204.457031 676.039062 204.398438 675.355469 C 204.195312 673.175781 202.191406 671.21875 199.921875 671.488281 C 197.703125 671.75 195.847656 673.617188 196.0625 675.953125 "/>
</g>
</g>
</g>
</g>
<g clip-path="url(#clip92)" clip-rule="nonzero">
<g clip-path="url(#clip93)" clip-rule="nonzero">
<g clip-path="url(#clip94)" clip-rule="nonzero">
<g clip-path="url(#clip95)" clip-rule="nonzero">
<path style=" stroke:none;fill-rule:nonzero;fill:rgb(91.369629%,78.42865%,76.469421%);fill-opacity:1;" d="M 266.964844 681.695312 C 267.402344 686.457031 267.832031 691.222656 268.261719 695.980469 C 268.328125 696.671875 268.390625 697.355469 268.449219 698.039062 C 268.644531 700.214844 270.652344 702.167969 272.925781 701.910156 C 275.144531 701.648438 277 699.769531 276.789062 697.4375 C 276.355469 692.675781 275.921875 687.910156 275.484375 683.148438 C 275.425781 682.460938 275.367188 681.777344 275.304688 681.09375 C 275.109375 678.917969 273.097656 676.960938 270.828125 677.222656 C 268.613281 677.484375 266.757812 679.363281 266.964844 681.695312 "/>
</g>
</g>
</g>
</g>
<g clip-path="url(#clip96)" clip-rule="nonzero">
<g clip-path="url(#clip97)" clip-rule="nonzero">
<g clip-path="url(#clip98)" clip-rule="nonzero">
<g clip-path="url(#clip99)" clip-rule="nonzero">
<path style=" stroke:none;fill-rule:nonzero;fill:rgb(91.369629%,78.42865%,76.469421%);fill-opacity:1;" d="M 253.15625 759.351562 C 253.585938 764.121094 254.023438 768.882812 254.449219 773.644531 C 254.515625 774.335938 254.574219 775.019531 254.640625 775.699219 C 254.835938 777.875 256.839844 779.832031 259.109375 779.5625 C 261.328125 779.3125 263.183594 777.433594 262.96875 775.097656 C 262.539062 770.339844 262.109375 765.574219 261.675781 760.804688 C 261.613281 760.125 261.550781 759.441406 261.484375 758.75 C 261.289062 756.574219 259.285156 754.621094 257.015625 754.886719 C 254.796875 755.148438 252.941406 757.019531 253.15625 759.351562 "/>
</g>
</g>
</g>
</g>
<g clip-path="url(#clip100)" clip-rule="nonzero">
<g clip-path="url(#clip101)" clip-rule="nonzero">
<g clip-path="url(#clip102)" clip-rule="nonzero">
<g clip-path="url(#clip103)" clip-rule="nonzero">
<path style=" stroke:none;fill-rule:nonzero;fill:rgb(91.369629%,78.42865%,76.469421%);fill-opacity:1;" d="M 229.019531 647.273438 C 229.453125 652.039062 229.890625 656.800781 230.316406 661.5625 C 230.378906 662.253906 230.445312 662.933594 230.503906 663.617188 C 230.703125 665.792969 232.707031 667.75 234.976562 667.480469 C 237.199219 667.226562 239.050781 665.351562 238.835938 663.019531 C 238.410156 658.253906 237.972656 653.492188 237.542969 648.726562 C 237.480469 648.039062 237.417969 647.363281 237.359375 646.675781 C 237.15625 644.496094 235.152344 642.539062 232.878906 642.808594 C 230.664062 643.070312 228.8125 644.941406 229.019531 647.273438 "/>
</g>
</g>
</g>
</g>
<g clip-path="url(#clip104)" clip-rule="nonzero">
<g clip-path="url(#clip105)" clip-rule="nonzero">
<g clip-path="url(#clip106)" clip-rule="nonzero">
<g clip-path="url(#clip107)" clip-rule="nonzero">
<path style=" stroke:none;fill-rule:nonzero;fill:rgb(91.369629%,78.42865%,76.469421%);fill-opacity:1;" d="M 167.363281 717.011719 C 167.789062 721.777344 168.222656 726.535156 168.65625 731.304688 C 168.714844 731.988281 168.78125 732.667969 168.839844 733.355469 C 169.042969 735.535156 171.046875 737.492188 173.316406 737.222656 C 175.53125 736.960938 177.390625 735.09375 177.175781 732.757812 C 176.742188 727.992188 176.308594 723.230469 175.882812 718.464844 C 175.824219 717.78125 175.757812 717.089844 175.691406 716.410156 C 175.496094 714.234375 173.492188 712.28125 171.222656 712.546875 C 169 712.804688 167.148438 714.679688 167.363281 717.011719 "/>
</g>
</g>
</g>
</g>
<g clip-path="url(#clip108)" clip-rule="nonzero">
<g clip-path="url(#clip109)" clip-rule="nonzero">
<g clip-path="url(#clip110)" clip-rule="nonzero">
<g clip-path="url(#clip111)" clip-rule="nonzero">
<path style=" stroke:none;fill-rule:nonzero;fill:rgb(91.369629%,78.42865%,76.469421%);fill-opacity:1;" d="M 195.609375 750.460938 C 196.046875 755.222656 196.476562 759.988281 196.914062 764.75 C 196.972656 765.433594 197.035156 766.121094 197.101562 766.808594 C 197.292969 768.980469 199.300781 770.941406 201.570312 770.675781 C 203.789062 770.414062 205.644531 768.542969 205.429688 766.210938 C 205 761.441406 204.566406 756.675781 204.136719 751.917969 C 204.070312 751.226562 204.011719 750.542969 203.953125 749.855469 C 203.753906 747.679688 201.742188 745.726562 199.46875 745.996094 C 197.257812 746.25 195.402344 748.128906 195.609375 750.460938 "/>
</g>
</g>
</g>
</g>
<g clip-path="url(#clip112)" clip-rule="nonzero">
<g clip-path="url(#clip113)" clip-rule="nonzero">
<g clip-path="url(#clip114)" clip-rule="nonzero">
<g clip-path="url(#clip115)" clip-rule="nonzero">
<path style=" stroke:none;fill-rule:nonzero;fill:rgb(91.369629%,78.42865%,76.469421%);fill-opacity:1;" d="M -0.734375 588.863281 C -0.296875 593.625 0.132812 598.394531 0.570312 603.15625 C 0.628906 603.839844 0.691406 604.527344 0.75 605.210938 C 0.953125 607.390625 2.957031 609.347656 5.226562 609.078125 C 7.445312 608.820312 9.292969 606.945312 9.085938 604.617188 C 8.65625 599.847656 8.226562 595.089844 7.792969 590.324219 C 7.726562 589.632812 7.664062 588.953125 7.605469 588.261719 C 7.40625 586.09375 5.394531 584.132812 3.136719 584.398438 C 0.910156 584.660156 -0.941406 586.535156 -0.734375 588.863281 "/>
</g>
</g>
</g>
</g>
<g clip-path="url(#clip116)" clip-rule="nonzero">
<g clip-path="url(#clip117)" clip-rule="nonzero">
<g clip-path="url(#clip118)" clip-rule="nonzero">
<g clip-path="url(#clip119)" clip-rule="nonzero">
<path style=" stroke:none;fill-rule:nonzero;fill:rgb(91.369629%,78.42865%,76.469421%);fill-opacity:1;" d="M 304.144531 607.238281 C 304.578125 612.007812 305.011719 616.769531 305.445312 621.535156 C 305.503906 622.222656 305.5625 622.90625 305.628906 623.597656 C 305.824219 625.761719 307.835938 627.722656 310.101562 627.460938 C 312.320312 627.191406 314.179688 625.324219 313.964844 622.988281 C 313.527344 618.226562 313.097656 613.460938 312.671875 608.695312 C 312.601562 608.011719 312.539062 607.328125 312.480469 606.644531 C 312.285156 604.46875 310.273438 602.507812 308.003906 602.773438 C 305.789062 603.035156 303.9375 604.910156 304.144531 607.238281 "/>
</g>
</g>
</g>
</g>
<g clip-path="url(#clip120)" clip-rule="nonzero">
<g clip-path="url(#clip121)" clip-rule="nonzero">
<g clip-path="url(#clip122)" clip-rule="nonzero">
<g clip-path="url(#clip123)" clip-rule="nonzero">
<path style=" stroke:none;fill-rule:nonzero;fill:rgb(91.369629%,78.42865%,76.469421%);fill-opacity:1;" d="M 275.085938 446.660156 C 275.519531 451.414062 275.949219 456.183594 276.386719 460.945312 C 276.445312 461.628906 276.503906 462.316406 276.570312 463.003906 C 276.769531 465.179688 278.769531 467.136719 281.042969 466.867188 C 283.257812 466.609375 285.121094 464.730469 284.90625 462.398438 C 284.476562 457.640625 284.039062 452.878906 283.609375 448.113281 C 283.546875 447.425781 283.480469 446.738281 283.421875 446.050781 C 283.222656 443.882812 281.21875 441.925781 278.953125 442.1875 C 276.734375 442.449219 274.875 444.324219 275.085938 446.660156 "/>
</g>
</g>
</g>
</g>
<g clip-path="url(#clip124)" clip-rule="nonzero">
<g clip-path="url(#clip125)" clip-rule="nonzero">
<g clip-path="url(#clip126)" clip-rule="nonzero">
<g clip-path="url(#clip127)" clip-rule="nonzero">
<path style=" stroke:none;fill-rule:nonzero;fill:rgb(91.369629%,78.42865%,76.469421%);fill-opacity:1;" d="M 321.707031 440.730469 C 322.140625 445.5 322.574219 450.257812 323.007812 455.027344 C 323.066406 455.710938 323.128906 456.398438 323.199219 457.082031 C 323.394531 459.257812 325.398438 461.214844 327.667969 460.945312 C 329.886719 460.683594 331.742188 458.816406 331.527344 456.480469 C 331.097656 451.714844 330.660156 446.953125 330.234375 442.1875 C 330.171875 441.507812 330.105469 440.820312 330.042969 440.132812 C 329.847656 437.957031 327.84375 436.003906 325.566406 436.265625 C 323.351562 436.527344 321.5 438.402344 321.707031 440.730469 "/>
</g>
</g>
</g>
</g>
<g clip-path="url(#clip128)" clip-rule="nonzero">
<g clip-path="url(#clip129)" clip-rule="nonzero">
<g clip-path="url(#clip130)" clip-rule="nonzero">
<g clip-path="url(#clip131)" clip-rule="nonzero">
<path style=" stroke:none;fill-rule:nonzero;fill:rgb(91.369629%,78.42865%,76.469421%);fill-opacity:1;" d="M 356.78125 542.046875 C 357.210938 546.800781 357.644531 551.570312 358.082031 556.332031 C 358.140625 557.015625 358.207031 557.707031 358.265625 558.390625 C 358.464844 560.566406 360.464844 562.523438 362.738281 562.253906 C 364.960938 562 366.8125 560.125 366.597656 557.789062 C 366.171875 553.027344 365.738281 548.261719 365.304688 543.5 C 365.242188 542.8125 365.175781 542.125 365.117188 541.4375 C 364.921875 539.261719 362.914062 537.3125 360.644531 537.574219 C 358.421875 537.832031 356.566406 539.710938 356.78125 542.046875 "/>
</g>
</g>
</g>
</g>
<g clip-path="url(#clip132)" clip-rule="nonzero">
<g clip-path="url(#clip133)" clip-rule="nonzero">
<g clip-path="url(#clip134)" clip-rule="nonzero">
<g clip-path="url(#clip135)" clip-rule="nonzero">
<path style=" stroke:none;fill-rule:nonzero;fill:rgb(91.369629%,78.42865%,76.469421%);fill-opacity:1;" d="M 97.402344 548.1875 C 97.839844 552.949219 98.273438 557.71875 98.707031 562.480469 C 98.769531 563.164062 98.828125 563.851562 98.886719 564.535156 C 99.089844 566.714844 101.09375 568.671875 103.363281 568.402344 C 105.582031 568.140625 107.4375 566.273438 107.222656 563.9375 C 106.792969 559.171875 106.359375 554.402344 105.929688 549.648438 C 105.863281 548.957031 105.804688 548.269531 105.746094 547.585938 C 105.546875 545.410156 103.535156 543.457031 101.269531 543.71875 C 99.046875 543.984375 97.195312 545.859375 97.402344 548.1875 "/>
</g>
</g>
</g>
</g>
<g clip-path="url(#clip136)" clip-rule="nonzero">
<g clip-path="url(#clip137)" clip-rule="nonzero">
<g clip-path="url(#clip138)" clip-rule="nonzero">
<g clip-path="url(#clip139)" clip-rule="nonzero">
<path style=" stroke:none;fill-rule:nonzero;fill:rgb(91.369629%,78.42865%,76.469421%);fill-opacity:1;" d="M 184.78125 622.214844 C 185.210938 626.972656 185.644531 631.738281 186.074219 636.507812 C 186.140625 637.183594 186.199219 637.871094 186.265625 638.5625 C 186.460938 640.734375 188.464844 642.691406 190.734375 642.425781 C 192.953125 642.164062 194.808594 640.292969 194.59375 637.960938 C 194.164062 633.191406 193.734375 628.433594 193.300781 623.667969 C 193.242188 622.980469 193.175781 622.292969 193.117188 621.605469 C 192.914062 619.4375 190.910156 617.480469 188.644531 617.742188 C 186.421875 618 184.566406 619.878906 184.78125 622.214844 "/>
</g>
</g>
</g>
</g>
<g clip-path="url(#clip140)" clip-rule="nonzero">
<g clip-path="url(#clip141)" clip-rule="nonzero">
<g clip-path="url(#clip142)" clip-rule="nonzero">
<g clip-path="url(#clip143)" clip-rule="nonzero">
<path style=" stroke:none;fill-rule:nonzero;fill:rgb(91.369629%,78.42865%,76.469421%);fill-opacity:1;" d="M 443.996094 627.574219 C 444.433594 632.335938 444.863281 637.089844 445.292969 641.859375 C 445.359375 642.550781 445.421875 643.234375 445.480469 643.921875 C 445.683594 646.089844 447.683594 648.046875 449.957031 647.789062 C 452.175781 647.527344 454.03125 645.648438 453.820312 643.316406 C 453.386719 638.554688 452.953125 633.789062 452.515625 629.027344 C 452.457031 628.339844 452.390625 627.652344 452.332031 626.964844 C 452.132812 624.789062 450.125 622.839844 447.859375 623.101562 C 445.644531 623.363281 443.78125 625.238281 443.996094 627.574219 "/>
</g>
</g>
</g>
</g>
<g clip-path="url(#clip144)" clip-rule="nonzero">
<g clip-path="url(#clip145)" clip-rule="nonzero">
<g clip-path="url(#clip146)" clip-rule="nonzero">
<g clip-path="url(#clip147)" clip-rule="nonzero">
<path style=" stroke:none;fill-rule:nonzero;fill:rgb(91.369629%,78.42865%,76.469421%);fill-opacity:1;" d="M 148.894531 665.214844 C 149.324219 669.984375 149.761719 674.746094 150.1875 679.507812 C 150.253906 680.199219 150.3125 680.882812 150.378906 681.5625 C 150.574219 683.738281 152.585938 685.699219 154.851562 685.4375 C 157.066406 685.175781 158.921875 683.296875 158.714844 680.96875 C 158.277344 676.207031 157.847656 671.4375 157.417969 666.679688 C 157.351562 665.992188 157.289062 665.304688 157.230469 664.621094 C 157.035156 662.445312 155.023438 660.484375 152.753906 660.753906 C 150.539062 661.011719 148.6875 662.886719 148.894531 665.214844 "/>
</g>
</g>
</g>
</g>
<g clip-path="url(#clip148)" clip-rule="nonzero">
<g clip-path="url(#clip149)" clip-rule="nonzero">
<g clip-path="url(#clip150)" clip-rule="nonzero">
<g clip-path="url(#clip151)" clip-rule="nonzero">
<path style=" stroke:none;fill-rule:nonzero;fill:rgb(91.369629%,78.42865%,76.469421%);fill-opacity:1;" d="M 78.070312 641.496094 C 78.5 646.261719 78.933594 651.019531 79.363281 655.785156 C 79.421875 656.472656 79.488281 657.164062 79.550781 657.847656 C 79.75 660.015625 81.753906 661.972656 84.019531 661.710938 C 86.246094 661.449219 88.097656 659.574219 87.882812 657.242188 C 87.453125 652.484375 87.023438 647.714844 86.589844 642.949219 C 86.527344 642.269531 86.460938 641.578125 86.398438 640.894531 C 86.203125 638.71875 84.199219 636.761719 81.929688 637.03125 C 79.707031 637.285156 77.851562 639.167969 78.070312 641.496094 "/>
</g>
</g>
</g>
</g>
<g clip-path="url(#clip152)" clip-rule="nonzero">
<g clip-path="url(#clip153)" clip-rule="nonzero">
<g clip-path="url(#clip154)" clip-rule="nonzero">
<g clip-path="url(#clip155)" clip-rule="nonzero">
<path style=" stroke:none;fill-rule:nonzero;fill:rgb(91.369629%,78.42865%,76.469421%);fill-opacity:1;" d="M 101.925781 783.363281 C 102.363281 788.121094 102.800781 792.882812 103.222656 797.648438 C 103.289062 798.335938 103.351562 799.023438 103.410156 799.707031 C 103.613281 801.878906 105.621094 803.839844 107.886719 803.578125 C 110.109375 803.308594 111.960938 801.433594 111.746094 799.101562 C 111.316406 794.34375 110.882812 789.578125 110.453125 784.808594 C 110.386719 784.128906 110.328125 783.445312 110.261719 782.753906 C 110.066406 780.578125 108.0625 778.621094 105.789062 778.890625 C 103.574219 779.152344 101.71875 781.03125 101.925781 783.363281 "/>
</g>
</g>
</g>
</g>
<g clip-path="url(#clip156)" clip-rule="nonzero">
<g clip-path="url(#clip157)" clip-rule="nonzero">
<g clip-path="url(#clip158)" clip-rule="nonzero">
<g clip-path="url(#clip159)" clip-rule="nonzero">
<path style=" stroke:none;fill-rule:nonzero;fill:rgb(91.369629%,78.42865%,76.469421%);fill-opacity:1;" d="M 349.335938 601.25 C 349.761719 606.011719 350.195312 610.773438 350.628906 615.539062 C 350.6875 616.226562 350.753906 616.914062 350.8125 617.601562 C 351.015625 619.769531 353.019531 621.726562 355.285156 621.464844 C 357.511719 621.203125 359.363281 619.328125 359.148438 616.996094 C 358.71875 612.238281 358.285156 607.46875 357.855469 602.703125 C 357.789062 602.023438 357.726562 601.332031 357.664062 600.648438 C 357.46875 598.472656 355.464844 596.515625 353.195312 596.785156 C 350.972656 597.039062 349.121094 598.914062 349.335938 601.25 "/>
</g>
</g>
</g>
</g>
<g clip-path="url(#clip160)" clip-rule="nonzero">
<g clip-path="url(#clip161)" clip-rule="nonzero">
<g clip-path="url(#clip162)" clip-rule="nonzero">
<g clip-path="url(#clip163)" clip-rule="nonzero">
<path style=" stroke:none;fill-rule:nonzero;fill:rgb(91.369629%,78.42865%,76.469421%);fill-opacity:1;" d="M 394.035156 622.5 C 394.46875 627.265625 394.898438 632.035156 395.328125 636.792969 C 395.390625 637.476562 395.457031 638.167969 395.515625 638.851562 C 395.710938 641.027344 397.714844 642.984375 399.988281 642.714844 C 402.210938 642.460938 404.066406 640.578125 403.855469 638.25 C 403.421875 633.488281 402.988281 628.71875 402.550781 623.960938 C 402.492188 623.273438 402.433594 622.589844 402.371094 621.902344 C 402.167969 619.722656 400.167969 617.765625 397.894531 618.035156 C 395.679688 618.296875 393.824219 620.175781 394.035156 622.5 "/>
</g>
</g>
</g>
</g>
<g clip-path="url(#clip164)" clip-rule="nonzero">
<g clip-path="url(#clip165)" clip-rule="nonzero">
<g clip-path="url(#clip166)" clip-rule="nonzero">
<g clip-path="url(#clip167)" clip-rule="nonzero">
<path style=" stroke:none;fill-rule:nonzero;fill:rgb(91.369629%,78.42865%,76.469421%);fill-opacity:1;" d="M 127.171875 730.414062 C 127.605469 735.175781 128.039062 739.945312 128.46875 744.703125 C 128.527344 745.386719 128.59375 746.078125 128.65625 746.761719 C 128.851562 748.9375 130.859375 750.886719 133.125 750.625 C 135.347656 750.371094 137.203125 748.488281 136.996094 746.160156 C 136.558594 741.398438 136.121094 736.636719 135.691406 731.871094 C 135.632812 731.183594 135.570312 730.5 135.503906 729.808594 C 135.304688 727.640625 133.300781 725.683594 131.035156 725.945312 C 128.8125 726.210938 126.957031 728.082031 127.171875 730.414062 "/>
</g>
</g>
</g>
</g>
<g clip-path="url(#clip168)" clip-rule="nonzero">
<g clip-path="url(#clip169)" clip-rule="nonzero">
<g clip-path="url(#clip170)" clip-rule="nonzero">
<g clip-path="url(#clip171)" clip-rule="nonzero">
<path style=" stroke:none;fill-rule:nonzero;fill:rgb(91.369629%,78.42865%,76.469421%);fill-opacity:1;" d="M 283.648438 724.585938 C 284.082031 729.34375 284.511719 734.109375 284.949219 738.871094 C 285.007812 739.554688 285.066406 740.242188 285.132812 740.933594 C 285.332031 743.109375 287.332031 745.0625 289.605469 744.796875 C 291.828125 744.539062 293.679688 742.664062 293.464844 740.332031 C 293.03125 735.5625 292.601562 730.808594 292.171875 726.039062 C 292.109375 725.355469 292.042969 724.664062 291.984375 723.976562 C 291.785156 721.808594 289.78125 719.851562 287.515625 720.113281 C 285.296875 720.375 283.4375 722.25 283.648438 724.585938 "/>
</g>
</g>
</g>
</g>
<g clip-path="url(#clip172)" clip-rule="nonzero">
<g clip-path="url(#clip173)" clip-rule="nonzero">
<g clip-path="url(#clip174)" clip-rule="nonzero">
<g clip-path="url(#clip175)" clip-rule="nonzero">
<path style=" stroke:none;fill-rule:nonzero;fill:rgb(91.369629%,78.42865%,76.469421%);fill-opacity:1;" d="M 413.835938 666.976562 C 414.269531 671.746094 414.703125 676.507812 415.132812 681.261719 C 415.195312 681.960938 415.261719 682.636719 415.320312 683.324219 C 415.515625 685.5 417.527344 687.460938 419.796875 687.191406 C 422.015625 686.929688 423.863281 685.058594 423.65625 682.726562 C 423.226562 677.960938 422.789062 673.199219 422.363281 668.4375 C 422.296875 667.746094 422.234375 667.066406 422.171875 666.382812 C 421.976562 664.207031 419.96875 662.246094 417.695312 662.511719 C 415.480469 662.773438 413.628906 664.648438 413.835938 666.976562 "/>
</g>
</g>
</g>
</g>
<g clip-path="url(#clip176)" clip-rule="nonzero">
<g clip-path="url(#clip177)" clip-rule="nonzero">
<g clip-path="url(#clip178)" clip-rule="nonzero">
<g clip-path="url(#clip179)" clip-rule="nonzero">
<path style=" stroke:none;fill-rule:nonzero;fill:rgb(91.369629%,78.42865%,76.469421%);fill-opacity:1;" d="M 262.027344 536.222656 C 262.457031 540.988281 262.882812 545.753906 263.320312 550.515625 C 263.378906 551.199219 263.445312 551.890625 263.511719 552.570312 C 263.703125 554.75 265.710938 556.699219 267.976562 556.4375 C 270.199219 556.183594 272.054688 554.300781 271.839844 551.96875 C 271.410156 547.210938 270.980469 542.441406 270.542969 537.683594 C 270.484375 536.996094 270.417969 536.304688 270.355469 535.621094 C 270.160156 533.445312 268.15625 531.488281 265.886719 531.757812 C 263.667969 532.019531 261.8125 533.886719 262.027344 536.222656 "/>
</g>
</g>
</g>
</g>
<g clip-path="url(#clip180)" clip-rule="nonzero">
<g clip-path="url(#clip181)" clip-rule="nonzero">
<g clip-path="url(#clip182)" clip-rule="nonzero">
<g clip-path="url(#clip183)" clip-rule="nonzero">
<path style=" stroke:none;fill-rule:nonzero;fill:rgb(91.369629%,78.42865%,76.469421%);fill-opacity:1;" d="M 228.492188 717.148438 C 228.921875 721.917969 229.359375 726.679688 229.785156 731.441406 C 229.851562 732.132812 229.914062 732.8125 229.976562 733.496094 C 230.179688 735.675781 232.183594 737.632812 234.453125 737.363281 C 236.667969 737.105469 238.519531 735.230469 238.3125 732.902344 C 237.878906 728.132812 237.445312 723.371094 237.011719 718.605469 C 236.949219 717.925781 236.886719 717.238281 236.828125 716.554688 C 236.632812 714.378906 234.628906 712.421875 232.351562 712.6875 C 230.132812 712.945312 228.285156 714.820312 228.492188 717.148438 "/>
</g>
</g>
</g>
</g>
<g clip-path="url(#clip184)" clip-rule="nonzero">
<g clip-path="url(#clip185)" clip-rule="nonzero">
<g clip-path="url(#clip186)" clip-rule="nonzero">
<g clip-path="url(#clip187)" clip-rule="nonzero">
<path style=" stroke:none;fill-rule:nonzero;fill:rgb(91.369629%,78.42865%,76.469421%);fill-opacity:1;" d="M 325.972656 699.152344 C 326.410156 703.914062 326.839844 708.683594 327.273438 713.449219 C 327.335938 714.128906 327.394531 714.816406 327.457031 715.5 C 327.652344 717.675781 329.664062 719.636719 331.933594 719.367188 C 334.148438 719.109375 336 717.234375 335.792969 714.90625 C 335.359375 710.136719 334.925781 705.375 334.5 700.613281 C 334.433594 699.921875 334.367188 699.242188 334.300781 698.554688 C 334.105469 696.378906 332.101562 694.421875 329.835938 694.683594 C 327.617188 694.949219 325.757812 696.820312 325.972656 699.152344 "/>
</g>
</g>
</g>
</g>
<g clip-path="url(#clip188)" clip-rule="nonzero">
<g clip-path="url(#clip189)" clip-rule="nonzero">
<g clip-path="url(#clip190)" clip-rule="nonzero">
<g clip-path="url(#clip191)" clip-rule="nonzero">
<path style=" stroke:none;fill-rule:nonzero;fill:rgb(91.369629%,78.42865%,76.469421%);fill-opacity:1;" d="M 280.9375 492.804688 C 281.363281 497.570312 281.800781 502.332031 282.230469 507.097656 C 282.289062 507.785156 282.355469 508.464844 282.421875 509.152344 C 282.617188 511.328125 284.621094 513.285156 286.890625 513.015625 C 289.109375 512.753906 290.964844 510.886719 290.75 508.550781 C 290.328125 503.789062 289.890625 499.027344 289.457031 494.261719 C 289.398438 493.574219 289.332031 492.882812 289.269531 492.207031 C 289.070312 490.03125 287.066406 488.074219 284.796875 488.34375 C 282.574219 488.597656 280.722656 490.472656 280.9375 492.804688 "/>
</g>
</g>
</g>
</g>
<g clip-path="url(#clip192)" clip-rule="nonzero">
<g clip-path="url(#clip193)" clip-rule="nonzero">
<g clip-path="url(#clip194)" clip-rule="nonzero">
<g clip-path="url(#clip195)" clip-rule="nonzero">
<path style=" stroke:none;fill-rule:nonzero;fill:rgb(91.369629%,78.42865%,76.469421%);fill-opacity:1;" d="M 233.351562 801.730469 C 233.78125 806.488281 234.210938 811.253906 234.648438 816.015625 C 234.707031 816.699219 234.769531 817.386719 234.832031 818.066406 C 235.03125 820.25 237.039062 822.203125 239.308594 821.933594 C 241.527344 821.671875 243.378906 819.796875 243.167969 817.46875 C 242.734375 812.707031 242.300781 807.941406 241.875 803.175781 C 241.8125 802.496094 241.746094 801.808594 241.683594 801.121094 C 241.488281 798.945312 239.484375 796.992188 237.214844 797.257812 C 234.992188 797.515625 233.136719 799.394531 233.351562 801.730469 "/>
</g>
</g>
</g>
</g>
<g clip-path="url(#clip196)" clip-rule="nonzero">
<g clip-path="url(#clip197)" clip-rule="nonzero">
<g clip-path="url(#clip198)" clip-rule="nonzero">
<g clip-path="url(#clip199)" clip-rule="nonzero">
<path style=" stroke:none;fill-rule:nonzero;fill:rgb(91.369629%,78.42865%,76.469421%);fill-opacity:1;" d="M 308.566406 553.851562 C 308.992188 558.613281 309.429688 563.375 309.863281 568.136719 C 309.925781 568.824219 309.984375 569.507812 310.042969 570.195312 C 310.246094 572.375 312.25 574.332031 314.519531 574.0625 C 316.738281 573.800781 318.589844 571.925781 318.378906 569.597656 C 317.949219 564.832031 317.511719 560.070312 317.085938 555.304688 C 317.027344 554.621094 316.957031 553.9375 316.894531 553.25 C 316.699219 551.074219 314.695312 549.117188 312.425781 549.386719 C 310.203125 549.644531 308.351562 551.519531 308.566406 553.851562 "/>
</g>
</g>
</g>
</g>
<g clip-path="url(#clip200)" clip-rule="nonzero">
<g clip-path="url(#clip201)" clip-rule="nonzero">
<g clip-path="url(#clip202)" clip-rule="nonzero">
<g clip-path="url(#clip203)" clip-rule="nonzero">
<path style=" stroke:none;fill-rule:nonzero;fill:rgb(91.369629%,78.42865%,76.469421%);fill-opacity:1;" d="M 265.144531 625.796875 C 265.582031 630.558594 266.011719 635.324219 266.449219 640.085938 C 266.507812 640.769531 266.570312 641.457031 266.628906 642.140625 C 266.828125 644.316406 268.839844 646.273438 271.105469 646.011719 C 273.324219 645.75 275.179688 643.867188 274.96875 641.539062 C 274.535156 636.777344 274.101562 632.011719 273.671875 627.253906 C 273.605469 626.5625 273.546875 625.878906 273.488281 625.191406 C 273.289062 623.019531 271.28125 621.066406 269.007812 621.324219 C 266.792969 621.585938 264.9375 623.464844 265.144531 625.796875 "/>
</g>
</g>
</g>
</g>
<g clip-path="url(#clip204)" clip-rule="nonzero">
<g clip-path="url(#clip205)" clip-rule="nonzero">
<g clip-path="url(#clip206)" clip-rule="nonzero">
<g clip-path="url(#clip207)" clip-rule="nonzero">
<path style=" stroke:none;fill-rule:nonzero;fill:rgb(91.369629%,78.42865%,76.469421%);fill-opacity:1;" d="M 154.214844 535.375 C 154.644531 540.144531 155.082031 544.90625 155.511719 549.671875 C 155.578125 550.351562 155.636719 551.039062 155.703125 551.726562 C 155.902344 553.902344 157.902344 555.859375 160.175781 555.589844 C 162.390625 555.332031 164.25 553.460938 164.035156 551.128906 C 163.601562 546.359375 163.167969 541.597656 162.742188 536.835938 C 162.679688 536.148438 162.613281 535.460938 162.550781 534.78125 C 162.351562 532.605469 160.351562 530.648438 158.078125 530.917969 C 155.855469 531.171875 154.007812 533.046875 154.214844 535.375 "/>
</g>
</g>
</g>
</g>
<g clip-path="url(#clip208)" clip-rule="nonzero">
<g clip-path="url(#clip209)" clip-rule="nonzero">
<g clip-path="url(#clip210)" clip-rule="nonzero">
<g clip-path="url(#clip211)" clip-rule="nonzero">
<path style=" stroke:none;fill-rule:nonzero;fill:rgb(91.369629%,78.42865%,76.469421%);fill-opacity:1;" d="M 225.835938 495.3125 C 226.265625 500.078125 226.703125 504.839844 227.132812 509.605469 C 227.195312 510.292969 227.257812 510.972656 227.320312 511.65625 C 227.515625 513.832031 229.523438 515.792969 231.796875 515.523438 C 234.011719 515.265625 235.867188 513.394531 235.65625 511.0625 C 235.222656 506.292969 234.785156 501.53125 234.363281 496.769531 C 234.296875 496.078125 234.234375 495.394531 234.171875 494.714844 C 233.972656 492.539062 231.972656 490.582031 229.695312 490.847656 C 227.476562 491.105469 225.625 492.980469 225.835938 495.3125 "/>
</g>
</g>
</g>
</g>
<g clip-path="url(#clip212)" clip-rule="nonzero">
<g clip-path="url(#clip213)" clip-rule="nonzero">
<g clip-path="url(#clip214)" clip-rule="nonzero">
<g clip-path="url(#clip215)" clip-rule="nonzero">
<path style=" stroke:none;fill-rule:nonzero;fill:rgb(91.369629%,78.42865%,76.469421%);fill-opacity:1;" d="M 325.121094 500.714844 C 325.558594 505.476562 325.984375 510.238281 326.417969 515 C 326.484375 515.691406 326.546875 516.375 326.605469 517.0625 C 326.800781 519.238281 328.804688 521.191406 331.074219 520.925781 C 333.296875 520.667969 335.152344 518.789062 334.933594 516.460938 C 334.511719 511.699219 334.078125 506.929688 333.640625 502.167969 C 333.582031 501.484375 333.523438 500.796875 333.457031 500.109375 C 333.257812 497.933594 331.257812 495.976562 328.984375 496.242188 C 326.769531 496.503906 324.90625 498.378906 325.121094 500.714844 "/>
</g>
</g>
</g>
</g>
<g clip-path="url(#clip216)" clip-rule="nonzero">
<g clip-path="url(#clip217)" clip-rule="nonzero">
<g clip-path="url(#clip218)" clip-rule="nonzero">
<g clip-path="url(#clip219)" clip-rule="nonzero">
<path style=" stroke:none;fill-rule:nonzero;fill:rgb(91.369629%,78.42865%,76.469421%);fill-opacity:1;" d="M 203.28125 572.511719 C 203.710938 577.269531 204.144531 582.039062 204.574219 586.804688 C 204.640625 587.484375 204.699219 588.167969 204.765625 588.859375 C 204.960938 591.035156 206.964844 592.992188 209.234375 592.722656 C 211.453125 592.460938 213.308594 590.59375 213.09375 588.257812 C 212.664062 583.492188 212.238281 578.726562 211.800781 573.964844 C 211.742188 573.28125 211.675781 572.589844 211.609375 571.910156 C 211.417969 569.730469 209.410156 567.78125 207.144531 568.042969 C 204.921875 568.296875 203.066406 570.179688 203.28125 572.511719 "/>
</g>
</g>
</g>
</g>
<g clip-path="url(#clip220)" clip-rule="nonzero">
<g clip-path="url(#clip221)" clip-rule="nonzero">
<g clip-path="url(#clip222)" clip-rule="nonzero">
<g clip-path="url(#clip223)" clip-rule="nonzero">
<path style=" stroke:none;fill-rule:nonzero;fill:rgb(91.369629%,78.42865%,76.469421%);fill-opacity:1;" d="M 146.078125 574.277344 C 146.511719 579.046875 146.941406 583.804688 147.371094 588.570312 C 147.429688 589.257812 147.496094 589.945312 147.5625 590.625 C 147.753906 592.808594 149.761719 594.757812 152.027344 594.496094 C 154.25 594.238281 156.105469 592.359375 155.890625 590.023438 C 155.460938 585.265625 155.03125 580.5 154.597656 575.730469 C 154.535156 575.054688 154.476562 574.367188 154.410156 573.679688 C 154.210938 571.503906 152.207031 569.546875 149.9375 569.8125 C 147.722656 570.074219 145.863281 571.945312 146.078125 574.277344 "/>
</g>
</g>
</g>
</g>
<g clip-path="url(#clip224)" clip-rule="nonzero">
<g clip-path="url(#clip225)" clip-rule="nonzero">
<g clip-path="url(#clip226)" clip-rule="nonzero">
<g clip-path="url(#clip227)" clip-rule="nonzero">
<path style=" stroke:none;fill-rule:nonzero;fill:rgb(91.369629%,78.42865%,76.469421%);fill-opacity:1;" d="M 23.238281 619.691406 C 23.675781 624.453125 24.109375 629.21875 24.542969 633.980469 C 24.605469 634.667969 24.664062 635.351562 24.722656 636.039062 C 24.921875 638.214844 26.933594 640.167969 29.199219 639.90625 C 31.417969 639.644531 33.273438 637.765625 33.066406 635.4375 C 32.628906 630.675781 32.195312 625.90625 31.761719 621.144531 C 31.699219 620.460938 31.640625 619.773438 31.582031 619.089844 C 31.382812 616.914062 29.371094 614.957031 27.105469 615.222656 C 24.886719 615.480469 23.03125 617.363281 23.238281 619.691406 "/>
</g>
</g>
</g>
</g>
<g clip-path="url(#clip228)" clip-rule="nonzero">
<g clip-path="url(#clip229)" clip-rule="nonzero">
<g clip-path="url(#clip230)" clip-rule="nonzero">
<g clip-path="url(#clip231)" clip-rule="nonzero">
<path style=" stroke:none;fill-rule:nonzero;fill:rgb(91.369629%,78.42865%,76.469421%);fill-opacity:1;" d="M 244.960938 581.804688 C 245.390625 586.574219 245.828125 591.335938 246.261719 596.101562 C 246.320312 596.789062 246.382812 597.464844 246.449219 598.15625 C 246.640625 600.328125 248.648438 602.289062 250.921875 602.019531 C 253.136719 601.757812 254.996094 599.890625 254.78125 597.554688 C 254.347656 592.789062 253.914062 588.027344 253.488281 583.261719 C 253.421875 582.574219 253.355469 581.894531 253.296875 581.210938 C 253.101562 579.035156 251.097656 577.078125 248.820312 577.339844 C 246.601562 577.601562 244.753906 579.476562 244.960938 581.804688 "/>
</g>
</g>
</g>
</g>
<g clip-path="url(#clip232)" clip-rule="nonzero">
<g clip-path="url(#clip233)" clip-rule="nonzero">
<g clip-path="url(#clip234)" clip-rule="nonzero">
<g clip-path="url(#clip235)" clip-rule="nonzero">
<path style=" stroke:none;fill-rule:nonzero;fill:rgb(91.369629%,78.42865%,76.469421%);fill-opacity:1;" d="M 93.109375 601.914062 C 93.539062 606.679688 93.972656 611.449219 94.40625 616.210938 C 94.46875 616.894531 94.527344 617.578125 94.585938 618.265625 C 94.785156 620.441406 96.792969 622.402344 99.066406 622.132812 C 101.28125 621.871094 103.136719 619.992188 102.929688 617.664062 C 102.492188 612.902344 102.0625 608.132812 101.628906 603.378906 C 101.566406 602.6875 101.503906 602 101.445312 601.316406 C 101.246094 599.140625 99.238281 597.179688 96.96875 597.449219 C 94.75 597.710938 92.902344 599.582031 93.109375 601.914062 "/>
</g>
</g>
</g>
</g>
</g>
</svg>
