<?xml version="1.0" encoding="UTF-8"?>
<svg xmlns="http://www.w3.org/2000/svg" xmlns:xlink="http://www.w3.org/1999/xlink" width="1440pt" height="809.999993pt" viewBox="0 0 1440 809.999993" version="1.2">
<defs>
<clipPath id="clip1">
  <path d="M 986.464844 0 L 1440 0 L 1440 443.707031 L 986.464844 443.707031 Z M 986.464844 0 "/>
</clipPath>
<clipPath id="clip2">
  <path d="M 0 346 L 425 346 L 425 810 L 0 810 Z M 0 346 "/>
</clipPath>
<clipPath id="clip3">
  <path d="M -134.957031 615.4375 L 179.691406 311.816406 L 538.515625 683.671875 L 223.871094 987.292969 Z M -134.957031 615.4375 "/>
</clipPath>
<clipPath id="clip4">
  <path d="M -134.957031 615.4375 L 179.691406 311.816406 L 538.515625 683.671875 L 223.871094 987.292969 Z M -134.957031 615.4375 "/>
</clipPath>
<clipPath id="clip5">
  <path d="M 1228 297 L 1251 297 L 1251 333 L 1228 333 Z M 1228 297 "/>
</clipPath>
<clipPath id="clip6">
  <path d="M 1127.667969 -106.339844 L 1540.75 86.789062 L 1355.5625 482.886719 L 942.480469 289.757812 Z M 1127.667969 -106.339844 "/>
</clipPath>
<clipPath id="clip7">
  <path d="M 1127.667969 -106.339844 L 1540.75 86.789062 L 1355.5625 482.886719 L 942.480469 289.757812 Z M 1127.667969 -106.339844 "/>
</clipPath>
<clipPath id="clip8">
  <path d="M 1279 212 L 1302 212 L 1302 248 L 1279 248 Z M 1279 212 "/>
</clipPath>
<clipPath id="clip9">
  <path d="M 1127.667969 -106.339844 L 1540.75 86.789062 L 1355.5625 482.886719 L 942.480469 289.757812 Z M 1127.667969 -106.339844 "/>
</clipPath>
<clipPath id="clip10">
  <path d="M 1127.667969 -106.339844 L 1540.75 86.789062 L 1355.5625 482.886719 L 942.480469 289.757812 Z M 1127.667969 -106.339844 "/>
</clipPath>
<clipPath id="clip11">
  <path d="M 1359 233 L 1382 233 L 1382 268 L 1359 268 Z M 1359 233 "/>
</clipPath>
<clipPath id="clip12">
  <path d="M 1127.667969 -106.339844 L 1540.75 86.789062 L 1355.5625 482.886719 L 942.480469 289.757812 Z M 1127.667969 -106.339844 "/>
</clipPath>
<clipPath id="clip13">
  <path d="M 1127.667969 -106.339844 L 1540.75 86.789062 L 1355.5625 482.886719 L 942.480469 289.757812 Z M 1127.667969 -106.339844 "/>
</clipPath>
<clipPath id="clip14">
  <path d="M 1005 129 L 1028 129 L 1028 164 L 1005 164 Z M 1005 129 "/>
</clipPath>
<clipPath id="clip15">
  <path d="M 1127.667969 -106.339844 L 1540.75 86.789062 L 1355.5625 482.886719 L 942.480469 289.757812 Z M 1127.667969 -106.339844 "/>
</clipPath>
<clipPath id="clip16">
  <path d="M 1127.667969 -106.339844 L 1540.75 86.789062 L 1355.5625 482.886719 L 942.480469 289.757812 Z M 1127.667969 -106.339844 "/>
</clipPath>
<clipPath id="clip17">
  <path d="M 1298 375 L 1321 375 L 1321 410 L 1298 410 Z M 1298 375 "/>
</clipPath>
<clipPath id="clip18">
  <path d="M 1127.667969 -106.339844 L 1540.75 86.789062 L 1355.5625 482.886719 L 942.480469 289.757812 Z M 1127.667969 -106.339844 "/>
</clipPath>
<clipPath id="clip19">
  <path d="M 1127.667969 -106.339844 L 1540.75 86.789062 L 1355.5625 482.886719 L 942.480469 289.757812 Z M 1127.667969 -106.339844 "/>
</clipPath>
<clipPath id="clip20">
  <path d="M 1320 9 L 1343 9 L 1343 45 L 1320 45 Z M 1320 9 "/>
</clipPath>
<clipPath id="clip21">
  <path d="M 1127.667969 -106.339844 L 1540.75 86.789062 L 1355.5625 482.886719 L 942.480469 289.757812 Z M 1127.667969 -106.339844 "/>
</clipPath>
<clipPath id="clip22">
  <path d="M 1127.667969 -106.339844 L 1540.75 86.789062 L 1355.5625 482.886719 L 942.480469 289.757812 Z M 1127.667969 -106.339844 "/>
</clipPath>
<clipPath id="clip23">
  <path d="M 1396 340 L 1419 340 L 1419 375 L 1396 375 Z M 1396 340 "/>
</clipPath>
<clipPath id="clip24">
  <path d="M 1127.667969 -106.339844 L 1540.75 86.789062 L 1355.5625 482.886719 L 942.480469 289.757812 Z M 1127.667969 -106.339844 "/>
</clipPath>
<clipPath id="clip25">
  <path d="M 1127.667969 -106.339844 L 1540.75 86.789062 L 1355.5625 482.886719 L 942.480469 289.757812 Z M 1127.667969 -106.339844 "/>
</clipPath>
<clipPath id="clip26">
  <path d="M 1409.710938 336.386719 L 1423.085938 342.640625 L 1405.59375 380.054688 L 1392.21875 373.800781 Z M 1409.710938 336.386719 "/>
</clipPath>
<clipPath id="clip27">
  <path d="M 1409.710938 336.386719 L 1421.539062 341.917969 L 1404.046875 379.332031 L 1392.21875 373.800781 Z M 1409.710938 336.386719 "/>
</clipPath>
<clipPath id="clip28">
  <path d="M 1398 155 L 1421 155 L 1421 191 L 1398 191 Z M 1398 155 "/>
</clipPath>
<clipPath id="clip29">
  <path d="M 1127.667969 -106.339844 L 1540.75 86.789062 L 1355.5625 482.886719 L 942.480469 289.757812 Z M 1127.667969 -106.339844 "/>
</clipPath>
<clipPath id="clip30">
  <path d="M 1127.667969 -106.339844 L 1540.75 86.789062 L 1355.5625 482.886719 L 942.480469 289.757812 Z M 1127.667969 -106.339844 "/>
</clipPath>
<clipPath id="clip31">
  <path d="M 1153 203 L 1176 203 L 1176 239 L 1153 239 Z M 1153 203 "/>
</clipPath>
<clipPath id="clip32">
  <path d="M 1127.667969 -106.339844 L 1540.75 86.789062 L 1355.5625 482.886719 L 942.480469 289.757812 Z M 1127.667969 -106.339844 "/>
</clipPath>
<clipPath id="clip33">
  <path d="M 1127.667969 -106.339844 L 1540.75 86.789062 L 1355.5625 482.886719 L 942.480469 289.757812 Z M 1127.667969 -106.339844 "/>
</clipPath>
<clipPath id="clip34">
  <path d="M 1303 127 L 1326 127 L 1326 162 L 1303 162 Z M 1303 127 "/>
</clipPath>
<clipPath id="clip35">
  <path d="M 1127.667969 -106.339844 L 1540.75 86.789062 L 1355.5625 482.886719 L 942.480469 289.757812 Z M 1127.667969 -106.339844 "/>
</clipPath>
<clipPath id="clip36">
  <path d="M 1127.667969 -106.339844 L 1540.75 86.789062 L 1355.5625 482.886719 L 942.480469 289.757812 Z M 1127.667969 -106.339844 "/>
</clipPath>
<clipPath id="clip37">
  <path d="M 1368 77 L 1391 77 L 1391 112 L 1368 112 Z M 1368 77 "/>
</clipPath>
<clipPath id="clip38">
  <path d="M 1127.667969 -106.339844 L 1540.75 86.789062 L 1355.5625 482.886719 L 942.480469 289.757812 Z M 1127.667969 -106.339844 "/>
</clipPath>
<clipPath id="clip39">
  <path d="M 1127.667969 -106.339844 L 1540.75 86.789062 L 1355.5625 482.886719 L 942.480469 289.757812 Z M 1127.667969 -106.339844 "/>
</clipPath>
<clipPath id="clip40">
  <path d="M 1240 58 L 1263 58 L 1263 93 L 1240 93 Z M 1240 58 "/>
</clipPath>
<clipPath id="clip41">
  <path d="M 1127.667969 -106.339844 L 1540.75 86.789062 L 1355.5625 482.886719 L 942.480469 289.757812 Z M 1127.667969 -106.339844 "/>
</clipPath>
<clipPath id="clip42">
  <path d="M 1127.667969 -106.339844 L 1540.75 86.789062 L 1355.5625 482.886719 L 942.480469 289.757812 Z M 1127.667969 -106.339844 "/>
</clipPath>
<clipPath id="clip43">
  <path d="M 1222 157 L 1245 157 L 1245 192 L 1222 192 Z M 1222 157 "/>
</clipPath>
<clipPath id="clip44">
  <path d="M 1127.667969 -106.339844 L 1540.75 86.789062 L 1355.5625 482.886719 L 942.480469 289.757812 Z M 1127.667969 -106.339844 "/>
</clipPath>
<clipPath id="clip45">
  <path d="M 1127.667969 -106.339844 L 1540.75 86.789062 L 1355.5625 482.886719 L 942.480469 289.757812 Z M 1127.667969 -106.339844 "/>
</clipPath>
<clipPath id="clip46">
  <path d="M 1079 127 L 1102 127 L 1102 162 L 1079 162 Z M 1079 127 "/>
</clipPath>
<clipPath id="clip47">
  <path d="M 1127.667969 -106.339844 L 1540.75 86.789062 L 1355.5625 482.886719 L 942.480469 289.757812 Z M 1127.667969 -106.339844 "/>
</clipPath>
<clipPath id="clip48">
  <path d="M 1127.667969 -106.339844 L 1540.75 86.789062 L 1355.5625 482.886719 L 942.480469 289.757812 Z M 1127.667969 -106.339844 "/>
</clipPath>
<clipPath id="clip49">
  <path d="M 1151 33 L 1174 33 L 1174 69 L 1151 69 Z M 1151 33 "/>
</clipPath>
<clipPath id="clip50">
  <path d="M 1127.667969 -106.339844 L 1540.75 86.789062 L 1355.5625 482.886719 L 942.480469 289.757812 Z M 1127.667969 -106.339844 "/>
</clipPath>
<clipPath id="clip51">
  <path d="M 1127.667969 -106.339844 L 1540.75 86.789062 L 1355.5625 482.886719 L 942.480469 289.757812 Z M 1127.667969 -106.339844 "/>
</clipPath>
<clipPath id="clip52">
  <path d="M 1315 301 L 1338 301 L 1338 336 L 1315 336 Z M 1315 301 "/>
</clipPath>
<clipPath id="clip53">
  <path d="M 1127.667969 -106.339844 L 1540.75 86.789062 L 1355.5625 482.886719 L 942.480469 289.757812 Z M 1127.667969 -106.339844 "/>
</clipPath>
<clipPath id="clip54">
  <path d="M 1127.667969 -106.339844 L 1540.75 86.789062 L 1355.5625 482.886719 L 942.480469 289.757812 Z M 1127.667969 -106.339844 "/>
</clipPath>
<clipPath id="clip55">
  <path d="M 1007 241 L 1030 241 L 1030 276 L 1007 276 Z M 1007 241 "/>
</clipPath>
<clipPath id="clip56">
  <path d="M 1127.667969 -106.339844 L 1540.75 86.789062 L 1355.5625 482.886719 L 942.480469 289.757812 Z M 1127.667969 -106.339844 "/>
</clipPath>
<clipPath id="clip57">
  <path d="M 1127.667969 -106.339844 L 1540.75 86.789062 L 1355.5625 482.886719 L 942.480469 289.757812 Z M 1127.667969 -106.339844 "/>
</clipPath>
<clipPath id="clip58">
  <path d="M 1433 251 L 1440 251 L 1440 286 L 1433 286 Z M 1433 251 "/>
</clipPath>
<clipPath id="clip59">
  <path d="M 1127.667969 -106.339844 L 1540.75 86.789062 L 1355.5625 482.886719 L 942.480469 289.757812 Z M 1127.667969 -106.339844 "/>
</clipPath>
<clipPath id="clip60">
  <path d="M 1127.667969 -106.339844 L 1540.75 86.789062 L 1355.5625 482.886719 L 942.480469 289.757812 Z M 1127.667969 -106.339844 "/>
</clipPath>
<clipPath id="clip61">
  <path d="M 1154 284 L 1177 284 L 1177 320 L 1154 320 Z M 1154 284 "/>
</clipPath>
<clipPath id="clip62">
  <path d="M 1127.667969 -106.339844 L 1540.75 86.789062 L 1355.5625 482.886719 L 942.480469 289.757812 Z M 1127.667969 -106.339844 "/>
</clipPath>
<clipPath id="clip63">
  <path d="M 1127.667969 -106.339844 L 1540.75 86.789062 L 1355.5625 482.886719 L 942.480469 289.757812 Z M 1127.667969 -106.339844 "/>
</clipPath>
<clipPath id="clip64">
  <path d="M 1049 35 L 1073 35 L 1073 70 L 1049 70 Z M 1049 35 "/>
</clipPath>
<clipPath id="clip65">
  <path d="M 1127.667969 -106.339844 L 1540.75 86.789062 L 1355.5625 482.886719 L 942.480469 289.757812 Z M 1127.667969 -106.339844 "/>
</clipPath>
<clipPath id="clip66">
  <path d="M 1127.667969 -106.339844 L 1540.75 86.789062 L 1355.5625 482.886719 L 942.480469 289.757812 Z M 1127.667969 -106.339844 "/>
</clipPath>
<clipPath id="clip67">
  <path d="M 1155 110 L 1179 110 L 1179 146 L 1155 146 Z M 1155 110 "/>
</clipPath>
<clipPath id="clip68">
  <path d="M 1127.667969 -106.339844 L 1540.75 86.789062 L 1355.5625 482.886719 L 942.480469 289.757812 Z M 1127.667969 -106.339844 "/>
</clipPath>
<clipPath id="clip69">
  <path d="M 1127.667969 -106.339844 L 1540.75 86.789062 L 1355.5625 482.886719 L 942.480469 289.757812 Z M 1127.667969 -106.339844 "/>
</clipPath>
<clipPath id="clip70">
  <path d="M 1083 322 L 1106 322 L 1106 357 L 1083 357 Z M 1083 322 "/>
</clipPath>
<clipPath id="clip71">
  <path d="M 1127.667969 -106.339844 L 1540.75 86.789062 L 1355.5625 482.886719 L 942.480469 289.757812 Z M 1127.667969 -106.339844 "/>
</clipPath>
<clipPath id="clip72">
  <path d="M 1127.667969 -106.339844 L 1540.75 86.789062 L 1355.5625 482.886719 L 942.480469 289.757812 Z M 1127.667969 -106.339844 "/>
</clipPath>
<clipPath id="clip73">
  <path d="M 1094.871094 319.445312 L 1108.246094 325.699219 L 1092.003906 360.4375 L 1078.628906 354.183594 Z M 1094.871094 319.445312 "/>
</clipPath>
<clipPath id="clip74">
  <path d="M 1094.871094 319.445312 L 1108.246094 325.699219 L 1092.644531 359.070312 L 1079.269531 352.816406 Z M 1094.871094 319.445312 "/>
</clipPath>
<clipPath id="clip75">
  <path d="M 1069 221 L 1092 221 L 1092 257 L 1069 257 Z M 1069 221 "/>
</clipPath>
<clipPath id="clip76">
  <path d="M 1127.667969 -106.339844 L 1540.75 86.789062 L 1355.5625 482.886719 L 942.480469 289.757812 Z M 1127.667969 -106.339844 "/>
</clipPath>
<clipPath id="clip77">
  <path d="M 1127.667969 -106.339844 L 1540.75 86.789062 L 1355.5625 482.886719 L 942.480469 289.757812 Z M 1127.667969 -106.339844 "/>
</clipPath>
<clipPath id="clip78">
  <path d="M 1188 368 L 1211 368 L 1211 403 L 1188 403 Z M 1188 368 "/>
</clipPath>
<clipPath id="clip79">
  <path d="M 1127.667969 -106.339844 L 1540.75 86.789062 L 1355.5625 482.886719 L 942.480469 289.757812 Z M 1127.667969 -106.339844 "/>
</clipPath>
<clipPath id="clip80">
  <path d="M 1127.667969 -106.339844 L 1540.75 86.789062 L 1355.5625 482.886719 L 942.480469 289.757812 Z M 1127.667969 -106.339844 "/>
</clipPath>
</defs>
<g id="surface1">
<path style=" stroke:none;fill-rule:nonzero;fill:rgb(90.19928%,97.24884%,95.289612%);fill-opacity:1;" d="M 446.71875 808.777344 C 447.828125 803.125 449.480469 797.632812 451.671875 792.304688 C 453.863281 786.972656 456.550781 781.910156 459.734375 777.105469 C 463.421875 773.527344 468.683594 769.570312 473.890625 765.175781 C 484.71875 756.074219 493.957031 745.570312 501.601562 733.667969 C 538.375 670.65625 504.207031 599.722656 458.214844 555.367188 C 453.660156 548.53125 448.722656 541.863281 443.570312 535.246094 C 433.265625 522.125 421.878906 509.597656 412.550781 497.285156 C 349.527344 415.941406 312.757812 258.355469 184.113281 300.382812 C 134.21875 318.765625 91.914062 334.492188 39.6875 347.613281 C 5.519531 355.53125 -18.074219 384.382812 -31.253906 415.890625 C -49.585938 465.78125 -52.242188 518.273438 -75.886719 565.558594 C -77.457031 568.328125 -78.894531 571.160156 -80.199219 574.058594 C -81.503906 576.960938 -82.671875 579.914062 -83.703125 582.921875 C -84.734375 585.929688 -85.621094 588.980469 -86.367188 592.074219 C -87.113281 595.164062 -87.714844 598.285156 -88.171875 601.429688 C -88.628906 604.578125 -88.9375 607.738281 -89.097656 610.914062 C -89.257812 614.089844 -89.273438 617.269531 -89.140625 620.445312 C -89.003906 623.621094 -88.722656 626.785156 -88.296875 629.9375 C -87.867188 633.089844 -87.292969 636.214844 -86.574219 639.3125 C -86.574219 618.269531 -89.230469 594.679688 -76.105469 573.640625 C -86.574219 591.859375 -91.832031 615.667969 -83.699219 636.652344 C -68.1875 697.066406 -70.84375 754.820312 -57.71875 817.832031 C -57.269531 820.558594 -56.714844 823.261719 -56.0625 825.941406 C -55.40625 828.625 -54.648438 831.277344 -53.789062 833.902344 C -52.933594 836.527344 -51.976562 839.117188 -50.921875 841.667969 C -49.871094 844.222656 -48.71875 846.730469 -47.476562 849.195312 C -46.230469 851.660156 -44.894531 854.074219 -43.46875 856.4375 C -42.039062 858.800781 -40.523438 861.105469 -38.921875 863.355469 C -37.316406 865.605469 -35.628906 867.789062 -33.863281 869.910156 C -32.09375 872.027344 -30.246094 874.078125 -28.320312 876.058594 C -26.394531 878.039062 -24.398438 879.941406 -22.328125 881.769531 C -20.257812 883.601562 -18.125 885.347656 -15.921875 887.011719 C -13.71875 888.679688 -11.457031 890.257812 -9.132812 891.753906 C -6.8125 893.246094 -4.4375 894.652344 -2.007812 895.964844 C 0.421875 897.28125 2.898438 898.5 5.417969 899.625 C 7.941406 900.75 10.5 901.78125 13.101562 902.710938 C 15.699219 903.640625 18.332031 904.472656 20.996094 905.203125 C 23.65625 905.9375 26.34375 906.566406 29.054688 907.09375 C 36.605469 908.757812 44.203125 910.15625 51.847656 911.292969 C 59.492188 912.425781 67.167969 913.296875 74.875 913.898438 C 82.582031 914.5 90.300781 914.832031 98.027344 914.898438 C 105.757812 914.964844 113.480469 914.761719 121.195312 914.289062 C 128.910156 913.816406 136.601562 913.078125 144.265625 912.070312 C 151.929688 911.066406 159.546875 909.792969 167.125 908.257812 C 174.699219 906.722656 182.210938 904.925781 189.664062 902.867188 C 197.113281 900.808594 204.484375 898.492188 211.773438 895.921875 C 219.90625 893.046875 228.042969 889.902344 235.796875 886.433594 C 312.648438 912.351562 420.195312 904.488281 446.609375 809.589844 C 446.695312 809.324219 446.730469 809.054688 446.71875 808.777344 Z M 446.71875 808.777344 "/>
<g clip-path="url(#clip1)" clip-rule="nonzero">
<path style=" stroke:none;fill-rule:nonzero;fill:rgb(93.728638%,82.348633%,79.219055%);fill-opacity:1;" d="M 1190.957031 418.679688 C 1139.875 461.449219 1062.234375 447.488281 1026.078125 391.496094 C 976.742188 315.113281 959.132812 275.4375 1059.222656 130.445312 C 1130.4375 27.289062 1144.46875 -67.363281 1225.769531 -67.363281 C 1566.308594 -67.363281 1689.90625 360.203125 1423.226562 360.203125 C 1332.53125 360.203125 1300.929688 299.40625 1199.699219 410.417969 C 1197.179688 413.183594 1194.25 415.953125 1190.957031 418.679688 "/>
</g>
<g clip-path="url(#clip2)" clip-rule="nonzero">
<g clip-path="url(#clip3)" clip-rule="nonzero">
<g clip-path="url(#clip4)" clip-rule="nonzero">
<path style=" stroke:none;fill-rule:nonzero;fill:rgb(84.709167%,90.19928%,88.62915%);fill-opacity:1;" d="M 209.082031 846.492188 C 208.664062 846.546875 208.257812 846.648438 207.863281 846.796875 C 207.472656 846.945312 207.097656 847.136719 206.746094 847.371094 C 206.398438 847.605469 206.078125 847.875 205.789062 848.183594 C 205.5 848.488281 205.25 848.824219 205.039062 849.191406 C 204.828125 849.554688 204.660156 849.9375 204.535156 850.339844 C 204.414062 850.742188 204.335938 851.15625 204.308594 851.574219 C 204.277344 851.996094 204.296875 852.414062 204.363281 852.828125 C 204.429688 853.246094 204.542969 853.648438 204.703125 854.039062 C 204.859375 854.429688 205.0625 854.796875 205.304688 855.140625 C 205.546875 855.484375 205.828125 855.796875 206.140625 856.074219 C 206.457031 856.355469 206.800781 856.597656 207.167969 856.796875 C 207.539062 857 207.925781 857.15625 208.332031 857.269531 C 208.738281 857.382812 209.152344 857.449219 209.574219 857.464844 C 209.992188 857.484375 210.410156 857.453125 210.824219 857.375 C 211.238281 857.296875 211.640625 857.175781 212.023438 857.003906 C 212.410156 856.835938 212.773438 856.625 213.109375 856.371094 C 213.445312 856.121094 213.75 855.832031 214.023438 855.511719 C 214.292969 855.1875 214.527344 854.839844 214.71875 854.464844 C 214.910156 854.089844 215.054688 853.695312 215.15625 853.289062 C 215.257812 852.878906 215.3125 852.464844 215.320312 852.042969 C 215.324219 851.621094 215.285156 851.207031 215.195312 850.792969 C 215.105469 850.382812 214.972656 849.984375 214.792969 849.605469 C 214.613281 849.222656 214.390625 848.867188 214.128906 848.539062 C 213.867188 848.207031 213.574219 847.910156 213.242188 847.648438 C 212.652344 847.191406 211.996094 846.863281 211.277344 846.664062 C 210.554688 846.460938 209.824219 846.40625 209.082031 846.492188 Z M 210.558594 380.332031 C 209.5625 380.421875 208.664062 380.765625 207.863281 381.363281 C 207.320312 381.753906 206.863281 382.222656 206.488281 382.769531 C 206.113281 383.320312 205.84375 383.917969 205.679688 384.5625 C 205.515625 385.207031 205.46875 385.863281 205.535156 386.523438 C 205.601562 387.1875 205.78125 387.816406 206.074219 388.417969 C 206.363281 389.015625 206.746094 389.546875 207.226562 390.007812 C 207.703125 390.472656 208.246094 390.839844 208.855469 391.109375 C 209.464844 391.378906 210.101562 391.539062 210.765625 391.585938 C 211.429688 391.628906 212.078125 391.5625 212.71875 391.375 C 213.359375 391.191406 213.945312 390.902344 214.484375 390.507812 C 215.023438 390.117188 215.476562 389.644531 215.84375 389.089844 C 216.214844 388.539062 216.480469 387.9375 216.636719 387.289062 C 216.792969 386.644531 216.835938 385.988281 216.761719 385.328125 C 216.675781 384.582031 216.453125 383.878906 216.101562 383.214844 C 215.75 382.550781 215.289062 381.976562 214.71875 381.488281 C 214.140625 381.035156 213.5 380.710938 212.796875 380.511719 C 212.09375 380.3125 211.378906 380.253906 210.652344 380.335938 Z M 337.628906 849.828125 C 336.667969 849.941406 335.742188 850.191406 334.851562 850.578125 C 333.960938 850.96875 333.148438 851.472656 332.410156 852.101562 C 331.667969 852.726562 331.035156 853.449219 330.507812 854.261719 C 329.976562 855.074219 329.578125 855.949219 329.304688 856.878906 C 329.035156 857.808594 328.902344 858.757812 328.910156 859.730469 C 328.917969 860.699219 329.066406 861.648438 329.351562 862.574219 C 329.636719 863.5 330.050781 864.367188 330.59375 865.171875 C 331.132812 865.976562 331.777344 866.6875 332.527344 867.300781 C 333.554688 868.125 334.699219 868.730469 335.960938 869.109375 C 337.21875 869.488281 338.503906 869.621094 339.816406 869.5 C 340.441406 869.527344 341.066406 869.496094 341.683594 869.40625 C 342.304688 869.316406 342.910156 869.167969 343.5 868.960938 C 344.089844 868.753906 344.65625 868.496094 345.199219 868.179688 C 345.742188 867.867188 346.246094 867.503906 346.71875 867.089844 C 347.191406 866.679688 347.621094 866.226562 348.003906 865.734375 C 348.390625 865.242188 348.726562 864.714844 349.011719 864.160156 C 349.296875 863.601562 349.527344 863.023438 349.703125 862.421875 C 349.875 861.820312 349.992188 861.207031 350.050781 860.582031 C 350.105469 859.960938 350.105469 859.335938 350.042969 858.714844 C 349.980469 858.089844 349.863281 857.480469 349.683594 856.878906 C 349.503906 856.277344 349.269531 855.699219 348.984375 855.144531 C 348.695312 854.589844 348.355469 854.066406 347.964844 853.574219 C 347.578125 853.085938 347.144531 852.636719 346.671875 852.226562 C 346.195312 851.820312 345.6875 851.460938 345.144531 851.148438 C 344.601562 850.835938 344.03125 850.582031 343.4375 850.378906 C 342.847656 850.175781 342.242188 850.03125 341.621094 849.945312 C 340.296875 849.671875 338.96875 849.632812 337.628906 849.828125 Z M 37.632812 733.183594 C 38.785156 733.027344 39.941406 732.960938 41.101562 732.984375 C 42.261719 733.011719 43.414062 733.125 44.554688 733.332031 C 45.699219 733.539062 46.816406 733.835938 47.914062 734.21875 C 49.011719 734.601562 50.070312 735.070312 51.09375 735.621094 C 52.113281 736.171875 53.085938 736.800781 54.011719 737.503906 C 54.933594 738.207031 55.796875 738.980469 56.597656 739.824219 C 57.398438 740.664062 58.128906 741.5625 58.785156 742.519531 C 59.445312 743.472656 60.023438 744.476562 60.527344 745.523438 C 61.027344 746.570312 61.441406 747.652344 61.773438 748.765625 C 62.101562 749.878906 62.34375 751.011719 62.496094 752.164062 C 62.644531 753.3125 62.707031 754.46875 62.671875 755.632812 C 62.640625 756.792969 62.519531 757.941406 62.304688 759.085938 C 62.09375 760.226562 61.792969 761.34375 61.402344 762.4375 C 61.011719 763.53125 60.539062 764.585938 59.980469 765.605469 C 59.425781 766.625 58.792969 767.59375 58.082031 768.511719 C 57.371094 769.433594 56.59375 770.289062 55.75 771.085938 C 35.101562 791.007812 4.117188 758.511719 24.707031 738.917969 C 26.476562 737.269531 28.460938 735.949219 30.667969 734.960938 C 32.875 733.96875 35.179688 733.363281 37.585938 733.136719 Z M 145.949219 648.507812 C 162.039062 647.199219 162.480469 617.050781 142.808594 619.140625 C 141.980469 619.269531 141.171875 619.46875 140.378906 619.734375 C 139.585938 619.996094 138.820312 620.328125 138.085938 620.722656 C 137.347656 621.117188 136.648438 621.570312 135.988281 622.085938 C 135.328125 622.597656 134.714844 623.164062 134.152344 623.78125 C 133.585938 624.398438 133.078125 625.058594 132.625 625.761719 C 132.171875 626.464844 131.785156 627.199219 131.457031 627.96875 C 131.128906 628.738281 130.867188 629.53125 130.671875 630.34375 C 130.480469 631.15625 130.355469 631.980469 130.300781 632.816406 C 130.246094 633.648438 130.261719 634.484375 130.351562 635.316406 C 130.4375 636.148438 130.59375 636.964844 130.820312 637.769531 C 131.042969 638.574219 131.335938 639.355469 131.695312 640.113281 C 132.050781 640.867188 132.46875 641.589844 132.949219 642.273438 C 133.429688 642.957031 133.964844 643.597656 134.550781 644.191406 C 135.140625 644.789062 135.773438 645.328125 136.453125 645.816406 C 137.132812 646.304688 137.847656 646.730469 138.601562 647.09375 C 139.351562 647.460938 140.128906 647.761719 140.933594 647.996094 C 142.566406 648.390625 144.226562 648.542969 145.902344 648.460938 Z M 218.953125 698.054688 C 221.070312 697.855469 223.179688 697.921875 225.277344 698.257812 C 227.378906 698.589844 229.402344 699.179688 231.355469 700.019531 C 233.304688 700.863281 235.121094 701.9375 236.800781 703.238281 C 238.484375 704.539062 239.976562 706.027344 241.28125 707.707031 C 241.730469 708.367188 242.148438 709.050781 242.53125 709.75 C 242.917969 710.453125 243.269531 711.171875 243.585938 711.90625 C 243.902344 712.636719 244.1875 713.386719 244.433594 714.144531 C 244.679688 714.90625 244.894531 715.675781 245.070312 716.457031 C 245.242188 717.238281 245.382812 718.023438 245.484375 718.816406 C 245.585938 719.613281 245.652344 720.40625 245.679688 721.207031 C 245.707031 722.007812 245.695312 722.804688 245.648438 723.605469 C 245.601562 724.402344 245.515625 725.195312 245.394531 725.988281 C 245.273438 726.777344 245.113281 727.5625 244.917969 728.335938 C 244.726562 729.113281 244.492188 729.875 244.226562 730.632812 C 243.960938 731.386719 243.660156 732.125 243.324219 732.851562 C 242.988281 733.578125 242.617188 734.285156 242.214844 734.976562 C 241.8125 735.667969 241.378906 736.339844 240.914062 736.988281 C 240.449219 737.640625 239.957031 738.269531 239.433594 738.871094 C 238.910156 739.476562 238.359375 740.054688 237.78125 740.609375 C 237.203125 741.160156 236.597656 741.683594 235.972656 742.183594 C 210.371094 760.886719 181.296875 721.101562 206.804688 702.390625 C 208.570312 701.109375 210.476562 700.089844 212.527344 699.335938 C 214.574219 698.582031 216.6875 698.121094 218.863281 697.957031 Z M -11.964844 598.289062 C -15.121094 598.847656 -18.125 599.855469 -20.976562 601.320312 C -23.832031 602.78125 -26.402344 604.628906 -28.699219 606.867188 C -29.035156 607.285156 -29.355469 607.714844 -29.664062 608.152344 C -29.96875 608.589844 -30.261719 609.039062 -30.542969 609.496094 C -30.820312 609.953125 -31.082031 610.417969 -31.332031 610.894531 C -31.578125 611.367188 -31.8125 611.851562 -32.027344 612.339844 C -32.246094 612.828125 -32.445312 613.324219 -32.632812 613.828125 C -32.816406 614.332031 -32.984375 614.839844 -33.136719 615.351562 C -33.289062 615.867188 -33.421875 616.386719 -33.539062 616.90625 C -33.660156 617.429688 -33.761719 617.957031 -33.84375 618.484375 C -33.929688 619.011719 -33.996094 619.542969 -34.042969 620.078125 C -34.09375 620.609375 -34.125 621.144531 -34.140625 621.679688 C -34.15625 622.214844 -34.152344 622.75 -34.132812 623.285156 C -34.113281 623.820312 -34.078125 624.355469 -34.023438 624.886719 C -33.96875 625.421875 -33.898438 625.953125 -33.808594 626.480469 C -33.71875 627.007812 -33.613281 627.53125 -33.492188 628.054688 C -33.367188 628.574219 -33.226562 629.09375 -33.070312 629.605469 C -32.914062 630.117188 -32.742188 630.625 -32.554688 631.125 C -32.363281 631.625 -32.160156 632.121094 -31.9375 632.609375 C -31.714844 633.09375 -31.480469 633.574219 -31.226562 634.046875 C -30.976562 634.519531 -30.707031 634.984375 -30.425781 635.4375 C -30.140625 635.894531 -29.84375 636.339844 -29.535156 636.773438 C -29.222656 637.210938 -28.898438 637.636719 -28.558594 638.050781 C -28.21875 638.464844 -27.867188 638.867188 -27.503906 639.261719 C -27.136719 639.652344 -26.761719 640.03125 -26.371094 640.398438 C -25.980469 640.765625 -25.578125 641.121094 -25.167969 641.464844 C -24.753906 641.804688 -24.332031 642.132812 -23.894531 642.445312 C -23.460938 642.761719 -23.019531 643.058594 -22.566406 643.34375 C -22.113281 643.628906 -21.648438 643.898438 -21.179688 644.15625 C -20.707031 644.410156 -20.230469 644.648438 -19.742188 644.875 C -19.257812 645.097656 -18.761719 645.304688 -18.261719 645.5 C -17.761719 645.691406 -17.257812 645.867188 -16.746094 646.027344 C -16.234375 646.183594 -15.71875 646.328125 -15.199219 646.453125 C -14.679688 646.578125 -14.152344 646.6875 -13.625 646.78125 C -1.5 648.921875 14.867188 639.773438 15.113281 626.0625 L 15.222656 619.773438 C 15.054688 618.15625 14.726562 616.570312 14.242188 615.019531 C 13.757812 613.464844 13.128906 611.976562 12.351562 610.546875 C 11.578125 609.121094 10.667969 607.78125 9.628906 606.53125 C 8.589844 605.28125 7.4375 604.144531 6.171875 603.121094 C 4.921875 602.097656 3.574219 601.214844 2.132812 600.476562 C 0.691406 599.738281 -0.808594 599.160156 -2.375 598.746094 C -3.9375 598.328125 -5.527344 598.082031 -7.144531 598.003906 C -8.761719 597.925781 -10.371094 598.023438 -11.964844 598.289062 Z M 397.847656 574.902344 C 397.09375 574.980469 396.34375 575.09375 395.597656 575.242188 C 394.851562 575.390625 394.113281 575.570312 393.386719 575.789062 C 392.65625 576.003906 391.941406 576.253906 391.234375 576.535156 C 390.53125 576.816406 389.839844 577.128906 389.164062 577.476562 C 388.488281 577.820312 387.828125 578.199219 387.183594 578.605469 C 386.542969 579.011719 385.921875 579.445312 385.320312 579.910156 C 384.71875 580.375 384.140625 580.863281 383.582031 581.382812 C 383.027344 581.898438 382.496094 582.441406 381.988281 583.007812 C 381.484375 583.574219 381.003906 584.164062 380.550781 584.773438 C 380.101562 585.382812 379.675781 586.011719 379.28125 586.664062 C 378.890625 587.3125 378.527344 587.980469 378.191406 588.664062 C 377.859375 589.34375 377.558594 590.042969 377.292969 590.753906 C 377.023438 591.464844 376.789062 592.183594 376.585938 592.917969 C 376.386719 593.652344 376.21875 594.390625 376.085938 595.136719 C 375.953125 595.886719 375.855469 596.640625 375.789062 597.394531 C 375.726562 598.152344 375.695312 598.910156 375.703125 599.671875 C 375.710938 600.429688 375.75 601.1875 375.824219 601.945312 C 375.902344 602.699219 376.011719 603.453125 376.15625 604.199219 C 376.304688 604.941406 376.484375 605.679688 376.695312 606.410156 C 376.910156 607.140625 377.15625 607.855469 377.433594 608.5625 C 377.714844 609.269531 378.027344 609.960938 378.371094 610.640625 C 378.710938 611.316406 379.085938 611.976562 379.492188 612.621094 C 379.894531 613.265625 380.328125 613.886719 380.789062 614.492188 C 381.25 615.09375 381.738281 615.675781 382.253906 616.234375 C 382.769531 616.792969 383.3125 617.324219 383.875 617.832031 C 384.441406 618.34375 385.027344 618.824219 385.636719 619.277344 C 386.246094 619.734375 386.875 620.15625 387.523438 620.554688 C 388.167969 620.949219 388.835938 621.316406 389.515625 621.652344 C 390.199219 621.988281 390.894531 622.289062 391.605469 622.558594 C 392.3125 622.832031 393.035156 623.070312 393.765625 623.273438 C 394.5 623.476562 395.238281 623.648438 395.984375 623.785156 C 396.734375 623.917969 397.484375 624.019531 398.242188 624.085938 C 430.269531 627.054688 434.167969 576.960938 402.21875 574.746094 C 400.757812 574.65625 399.300781 574.707031 397.847656 574.902344 Z M 309.011719 451.5625 C 300.605469 446.199219 287.070312 446.613281 288.722656 461.910156 C 288.929688 463.609375 289.445312 465.210938 290.273438 466.714844 C 291.097656 468.214844 292.175781 469.507812 293.5 470.589844 C 294.054688 471.015625 294.636719 471.398438 295.25 471.730469 C 295.863281 472.066406 296.5 472.351562 297.15625 472.582031 C 297.816406 472.816406 298.488281 473 299.171875 473.125 C 299.859375 473.253906 300.550781 473.328125 301.25 473.347656 C 301.949219 473.367188 302.644531 473.328125 303.335938 473.238281 C 304.027344 473.148438 304.707031 473.003906 305.378906 472.804688 C 306.046875 472.605469 306.695312 472.355469 307.328125 472.054688 C 307.957031 471.757812 308.558594 471.40625 309.132812 471.011719 L 311.667969 468.566406 C 318.351562 462.394531 315.046875 455.429688 309.011719 451.5625 Z M 165.558594 480.703125 C 178.691406 492.492188 184.855469 513.035156 176.121094 528.753906 C 135.558594 601.492188 58.238281 472.394531 141.726562 471.210938 C 143.921875 471.210938 146.097656 471.421875 148.257812 471.835938 C 150.414062 472.25 152.511719 472.863281 154.550781 473.675781 C 156.59375 474.488281 158.539062 475.484375 160.390625 476.667969 C 162.242188 477.847656 163.964844 479.195312 165.558594 480.703125 Z M 266.65625 577.628906 C 266 577.699219 265.359375 577.84375 264.734375 578.058594 C 264.105469 578.273438 263.511719 578.550781 262.949219 578.894531 C 262.382812 579.242188 261.863281 579.644531 261.386719 580.101562 C 260.914062 580.558594 260.492188 581.066406 260.125 581.617188 C 259.761719 582.167969 259.460938 582.753906 259.222656 583.371094 C 258.988281 583.988281 258.820312 584.621094 258.722656 585.277344 C 258.625 585.929688 258.601562 586.585938 258.648438 587.246094 C 258.695312 587.90625 258.8125 588.550781 259 589.1875 C 259.191406 589.820312 259.445312 590.425781 259.769531 591.003906 C 260.089844 591.578125 260.46875 592.117188 260.910156 592.609375 C 261.351562 593.101562 261.835938 593.542969 262.375 593.929688 C 262.910156 594.316406 263.480469 594.640625 264.089844 594.902344 C 264.695312 595.164062 265.324219 595.355469 265.976562 595.480469 C 266.625 595.601562 267.28125 595.652344 267.941406 595.632812 C 268.601562 595.613281 269.25 595.519531 269.890625 595.355469 C 270.53125 595.195312 271.148438 594.960938 271.738281 594.664062 C 272.328125 594.363281 272.878906 594.007812 273.390625 593.585938 C 273.898438 593.167969 274.359375 592.699219 274.765625 592.175781 C 275.175781 591.65625 275.523438 591.097656 275.808594 590.5 C 276.09375 589.90625 276.308594 589.285156 276.457031 588.640625 C 276.605469 587.996094 276.683594 587.34375 276.691406 586.683594 C 276.695312 586.023438 276.628906 585.367188 276.492188 584.722656 C 276.351562 584.074219 276.148438 583.449219 275.871094 582.847656 C 275.597656 582.25 275.261719 581.683594 274.859375 581.15625 C 274.390625 580.53125 273.847656 579.972656 273.234375 579.488281 C 272.617188 579.003906 271.949219 578.609375 271.230469 578.296875 C 270.507812 577.988281 269.761719 577.777344 268.988281 577.664062 C 268.210938 577.550781 267.433594 577.539062 266.65625 577.628906 Z M 371.566406 734.835938 C 368.621094 735.148438 365.957031 736.183594 363.574219 737.9375 L 360.324219 741.070312 C 359.625 741.941406 359.019531 742.875 358.515625 743.871094 C 358.007812 744.867188 357.605469 745.902344 357.3125 746.980469 C 357.019531 748.058594 356.835938 749.152344 356.769531 750.269531 C 356.699219 751.382812 356.746094 752.492188 356.90625 753.597656 C 359.109375 775.011719 392.707031 771.570312 390.273438 749.921875 C 390.046875 747.710938 389.402344 745.632812 388.335938 743.683594 C 387.273438 741.730469 385.871094 740.066406 384.132812 738.679688 C 382.378906 737.191406 380.402344 736.105469 378.207031 735.421875 C 376.007812 734.738281 373.765625 734.511719 371.476562 734.742188 Z M 148.6875 346.441406 C 145.746094 346.765625 143.066406 347.78125 140.648438 349.488281 L 137.398438 352.625 C 136.691406 353.488281 136.085938 354.414062 135.574219 355.40625 C 135.066406 356.394531 134.664062 357.429688 134.375 358.503906 C 134.085938 359.582031 133.910156 360.675781 133.851562 361.789062 C 133.792969 362.898438 133.855469 364.007812 134.03125 365.105469 C 136.234375 386.519531 169.832031 383.078125 167.398438 361.429688 C 167.144531 359.226562 166.484375 357.15625 165.421875 355.210938 C 164.359375 353.265625 162.972656 351.589844 161.257812 350.1875 C 159.488281 348.761719 157.519531 347.722656 155.34375 347.074219 C 153.164062 346.425781 150.949219 346.214844 148.6875 346.441406 Z M 28.074219 480.734375 C 25.128906 481.039062 22.445312 482.058594 20.035156 483.78125 L 16.785156 486.917969 C 16.082031 487.785156 15.472656 488.714844 14.960938 489.710938 C 14.449219 490.703125 14.046875 491.742188 13.75 492.820312 C 13.457031 493.898438 13.277344 494.996094 13.214844 496.113281 C 13.148438 497.230469 13.203125 498.339844 13.371094 499.445312 C 13.429688 499.988281 13.515625 500.53125 13.628906 501.066406 C 13.742188 501.601562 13.878906 502.128906 14.042969 502.652344 C 14.210938 503.171875 14.398438 503.6875 14.613281 504.191406 C 14.828125 504.691406 15.066406 505.183594 15.332031 505.664062 C 15.59375 506.144531 15.878906 506.609375 16.1875 507.0625 C 16.496094 507.515625 16.828125 507.949219 17.179688 508.371094 C 17.53125 508.789062 17.902344 509.191406 18.292969 509.574219 C 18.683594 509.957031 19.089844 510.320312 19.519531 510.664062 C 19.945312 511.007812 20.386719 511.328125 20.84375 511.628906 C 21.300781 511.925781 21.773438 512.203125 22.257812 512.457031 C 22.742188 512.710938 23.242188 512.9375 23.746094 513.144531 C 24.253906 513.347656 24.773438 513.527344 25.296875 513.683594 C 25.820312 513.835938 26.355469 513.964844 26.890625 514.066406 C 27.429688 514.167969 27.96875 514.242188 28.515625 514.292969 C 29.0625 514.339844 29.605469 514.363281 30.152344 514.359375 C 30.703125 514.355469 31.246094 514.320312 31.792969 514.265625 C 32.335938 514.207031 32.875 514.121094 33.410156 514.007812 C 33.945312 513.898438 34.476562 513.761719 35 513.597656 C 35.519531 513.433594 36.035156 513.246094 36.539062 513.03125 C 37.042969 512.820312 37.535156 512.582031 38.015625 512.320312 C 38.496094 512.058594 38.960938 511.773438 39.414062 511.464844 C 39.867188 511.160156 40.304688 510.828125 40.722656 510.480469 C 41.144531 510.128906 41.546875 509.757812 41.929688 509.367188 C 42.316406 508.980469 42.679688 508.570312 43.023438 508.144531 C 43.367188 507.71875 43.6875 507.277344 43.988281 506.820312 C 44.289062 506.363281 44.570312 505.894531 44.824219 505.410156 C 45.078125 504.925781 45.308594 504.429688 45.515625 503.921875 C 45.71875 503.414062 45.902344 502.898438 46.054688 502.375 C 46.210938 501.847656 46.339844 501.320312 46.445312 500.78125 C 46.546875 500.242188 46.625 499.703125 46.671875 499.15625 C 46.722656 498.613281 46.746094 498.066406 46.742188 497.519531 C 46.742188 496.972656 46.710938 496.425781 46.652344 495.882812 C 46.597656 495.335938 46.511719 494.796875 46.402344 494.261719 C 46.292969 493.726562 46.15625 493.195312 45.996094 492.671875 C 45.832031 492.148438 45.644531 491.636719 45.433594 491.132812 C 45.222656 490.628906 44.984375 490.132812 44.722656 489.652344 C 44.464844 489.171875 44.179688 488.703125 43.875 488.25 C 43.566406 487.796875 43.238281 487.359375 42.890625 486.9375 C 42.539062 486.519531 42.171875 486.113281 41.78125 485.730469 C 41.394531 485.34375 40.988281 484.980469 40.5625 484.632812 C 40.136719 484.289062 39.695312 483.964844 39.238281 483.664062 C 38.785156 483.359375 38.3125 483.082031 37.828125 482.828125 C 37.347656 482.570312 36.851562 482.339844 36.34375 482.132812 C 35.835938 481.925781 35.320312 481.742188 34.796875 481.585938 C 34.273438 481.429688 33.742188 481.296875 33.207031 481.195312 C 32.667969 481.089844 32.128906 481.011719 31.582031 480.960938 C 31.039062 480.90625 30.492188 480.882812 29.945312 480.886719 C 29.398438 480.886719 28.851562 480.914062 28.304688 480.972656 Z M 28.074219 480.734375 "/>
</g>
</g>
</g>
<g clip-path="url(#clip5)" clip-rule="nonzero">
<g clip-path="url(#clip6)" clip-rule="nonzero">
<g clip-path="url(#clip7)" clip-rule="nonzero">
<path style=" stroke:none;fill-rule:nonzero;fill:rgb(84.709167%,90.19928%,88.62915%);fill-opacity:1;" d="M 1238.617188 301.453125 C 1235.734375 307.925781 1232.832031 314.40625 1229.941406 320.890625 C 1229.53125 321.816406 1229.105469 322.75 1228.699219 323.679688 C 1227.367188 326.632812 1228.550781 330.617188 1231.683594 331.917969 C 1234.746094 333.1875 1238.511719 332.109375 1239.921875 328.925781 C 1242.820312 322.457031 1245.722656 315.980469 1248.609375 309.507812 C 1249.019531 308.566406 1249.441406 307.644531 1249.855469 306.707031 C 1251.183594 303.753906 1250.003906 299.765625 1246.867188 298.464844 C 1243.792969 297.195312 1240.035156 298.285156 1238.617188 301.453125 "/>
</g>
</g>
</g>
<g clip-path="url(#clip8)" clip-rule="nonzero">
<g clip-path="url(#clip9)" clip-rule="nonzero">
<g clip-path="url(#clip10)" clip-rule="nonzero">
<path style=" stroke:none;fill-rule:nonzero;fill:rgb(84.709167%,90.19928%,88.62915%);fill-opacity:1;" d="M 1290.160156 216.21875 C 1287.269531 222.703125 1284.371094 229.171875 1281.480469 235.65625 C 1281.070312 236.585938 1280.648438 237.519531 1280.238281 238.445312 C 1278.917969 241.402344 1280.101562 245.390625 1283.234375 246.691406 C 1286.296875 247.957031 1290.050781 246.875 1291.472656 243.699219 C 1294.359375 237.226562 1297.257812 230.757812 1300.148438 224.273438 C 1300.566406 223.347656 1300.980469 222.410156 1301.40625 221.476562 C 1302.71875 218.53125 1301.539062 214.542969 1298.402344 213.242188 C 1295.339844 211.976562 1291.574219 213.054688 1290.160156 216.21875 "/>
</g>
</g>
</g>
<g clip-path="url(#clip11)" clip-rule="nonzero">
<g clip-path="url(#clip12)" clip-rule="nonzero">
<g clip-path="url(#clip13)" clip-rule="nonzero">
<path style=" stroke:none;fill-rule:nonzero;fill:rgb(84.709167%,90.19928%,88.62915%);fill-opacity:1;" d="M 1370.035156 236.621094 C 1367.132812 243.097656 1364.246094 249.574219 1361.351562 256.042969 C 1360.9375 256.980469 1360.511719 257.914062 1360.105469 258.84375 C 1358.785156 261.800781 1359.964844 265.785156 1363.101562 267.085938 C 1366.164062 268.355469 1369.933594 267.265625 1371.339844 264.09375 C 1374.234375 257.625 1377.125 251.144531 1380.011719 244.667969 C 1380.4375 243.734375 1380.855469 242.8125 1381.269531 241.875 C 1382.589844 238.914062 1381.410156 234.929688 1378.273438 233.628906 C 1375.210938 232.363281 1371.453125 233.453125 1370.035156 236.621094 "/>
</g>
</g>
</g>
<g clip-path="url(#clip14)" clip-rule="nonzero">
<g clip-path="url(#clip15)" clip-rule="nonzero">
<g clip-path="url(#clip16)" clip-rule="nonzero">
<path style=" stroke:none;fill-rule:nonzero;fill:rgb(84.709167%,90.19928%,88.62915%);fill-opacity:1;" d="M 1015.777344 132.980469 C 1012.890625 139.453125 1009.988281 145.933594 1007.101562 152.40625 C 1006.679688 153.339844 1006.269531 154.265625 1005.847656 155.203125 C 1004.527344 158.160156 1005.710938 162.136719 1008.847656 163.4375 C 1011.910156 164.703125 1015.675781 163.625 1017.09375 160.457031 C 1019.984375 153.976562 1022.878906 147.507812 1025.773438 141.023438 C 1026.179688 140.09375 1026.605469 139.160156 1027.011719 138.230469 C 1028.332031 135.273438 1027.164062 131.292969 1024.027344 129.992188 C 1020.964844 128.726562 1017.195312 129.8125 1015.777344 132.980469 "/>
</g>
</g>
</g>
<g clip-path="url(#clip17)" clip-rule="nonzero">
<g clip-path="url(#clip18)" clip-rule="nonzero">
<g clip-path="url(#clip19)" clip-rule="nonzero">
<path style=" stroke:none;fill-rule:nonzero;fill:rgb(84.709167%,90.19928%,88.62915%);fill-opacity:1;" d="M 1309 378.828125 C 1306.113281 385.300781 1303.210938 391.78125 1300.324219 398.253906 C 1299.902344 399.1875 1299.492188 400.117188 1299.078125 401.054688 C 1297.75 404.007812 1298.929688 407.992188 1302.066406 409.292969 C 1305.128906 410.5625 1308.890625 409.484375 1310.3125 406.308594 C 1313.199219 399.832031 1316.089844 393.351562 1318.988281 386.882812 C 1319.402344 385.941406 1319.820312 385.019531 1320.234375 384.082031 C 1321.5625 381.128906 1320.371094 377.136719 1317.242188 375.851562 C 1314.183594 374.574219 1310.414062 375.660156 1309 378.828125 "/>
</g>
</g>
</g>
<g clip-path="url(#clip20)" clip-rule="nonzero">
<g clip-path="url(#clip21)" clip-rule="nonzero">
<g clip-path="url(#clip22)" clip-rule="nonzero">
<path style=" stroke:none;fill-rule:nonzero;fill:rgb(84.709167%,90.19928%,88.62915%);fill-opacity:1;" d="M 1330.621094 13.117188 C 1327.726562 19.585938 1324.832031 26.070312 1321.945312 32.542969 C 1321.523438 33.476562 1321.113281 34.40625 1320.691406 35.339844 C 1319.371094 38.296875 1320.550781 42.285156 1323.691406 43.574219 C 1326.75 44.851562 1330.507812 43.757812 1331.925781 40.59375 C 1334.828125 34.113281 1337.714844 27.640625 1340.605469 21.15625 C 1341.023438 20.234375 1341.449219 19.300781 1341.855469 18.371094 C 1343.175781 15.414062 1341.996094 11.425781 1338.859375 10.125 C 1335.796875 8.859375 1332.03125 9.9375 1330.621094 13.117188 "/>
</g>
</g>
</g>
<g clip-path="url(#clip23)" clip-rule="nonzero">
<g clip-path="url(#clip24)" clip-rule="nonzero">
<g clip-path="url(#clip25)" clip-rule="nonzero">
<g clip-path="url(#clip26)" clip-rule="nonzero">
<g clip-path="url(#clip27)" clip-rule="nonzero">
<path style=" stroke:none;fill-rule:nonzero;fill:rgb(84.709167%,90.19928%,88.62915%);fill-opacity:1;" d="M 1406.578125 343.660156 C 1403.679688 350.128906 1400.789062 356.613281 1397.890625 363.082031 C 1397.476562 364.023438 1397.070312 364.949219 1396.644531 365.882812 C 1395.324219 368.839844 1396.507812 372.828125 1399.636719 374.113281 C 1402.710938 375.386719 1406.464844 374.304688 1407.878906 371.136719 C 1410.78125 364.65625 1413.667969 358.183594 1416.566406 351.714844 C 1416.976562 350.777344 1417.390625 349.839844 1417.8125 348.914062 C 1419.128906 345.957031 1417.949219 341.972656 1414.8125 340.671875 C 1411.75 339.402344 1407.996094 340.484375 1406.578125 343.660156 "/>
</g>
</g>
</g>
</g>
</g>
<g clip-path="url(#clip28)" clip-rule="nonzero">
<g clip-path="url(#clip29)" clip-rule="nonzero">
<g clip-path="url(#clip30)" clip-rule="nonzero">
<path style=" stroke:none;fill-rule:nonzero;fill:rgb(84.709167%,90.19928%,88.62915%);fill-opacity:1;" d="M 1408.863281 159.234375 C 1405.964844 165.710938 1403.078125 172.1875 1400.191406 178.660156 C 1399.765625 179.59375 1399.351562 180.53125 1398.933594 181.457031 C 1397.613281 184.414062 1398.792969 188.398438 1401.929688 189.699219 C 1404.992188 190.964844 1408.75 189.875 1410.167969 186.707031 C 1413.066406 180.238281 1415.957031 173.753906 1418.855469 167.285156 C 1419.265625 166.347656 1419.675781 165.417969 1420.097656 164.484375 C 1421.417969 161.527344 1420.238281 157.542969 1417.101562 156.242188 C 1414.039062 154.976562 1410.269531 156.0625 1408.863281 159.234375 "/>
</g>
</g>
</g>
<g clip-path="url(#clip31)" clip-rule="nonzero">
<g clip-path="url(#clip32)" clip-rule="nonzero">
<g clip-path="url(#clip33)" clip-rule="nonzero">
<path style=" stroke:none;fill-rule:nonzero;fill:rgb(84.709167%,90.19928%,88.62915%);fill-opacity:1;" d="M 1164.054688 207.125 C 1161.164062 213.609375 1158.277344 220.082031 1155.378906 226.550781 C 1154.964844 227.488281 1154.542969 228.421875 1154.132812 229.351562 C 1152.8125 232.308594 1153.996094 236.296875 1157.121094 237.589844 C 1160.183594 238.859375 1163.945312 237.78125 1165.367188 234.605469 C 1168.253906 228.128906 1171.15625 221.652344 1174.042969 215.179688 C 1174.464844 214.242188 1174.875 213.316406 1175.300781 212.382812 C 1176.617188 209.425781 1175.4375 205.4375 1172.296875 204.148438 C 1169.238281 202.871094 1165.472656 203.957031 1164.054688 207.125 "/>
</g>
</g>
</g>
<g clip-path="url(#clip34)" clip-rule="nonzero">
<g clip-path="url(#clip35)" clip-rule="nonzero">
<g clip-path="url(#clip36)" clip-rule="nonzero">
<path style=" stroke:none;fill-rule:nonzero;fill:rgb(84.709167%,90.19928%,88.62915%);fill-opacity:1;" d="M 1313.554688 130.660156 C 1310.65625 137.128906 1307.765625 143.613281 1304.878906 150.085938 C 1304.457031 151.019531 1304.046875 151.949219 1303.621094 152.882812 C 1302.304688 155.839844 1303.484375 159.828125 1306.609375 161.125 C 1309.683594 162.394531 1313.441406 161.300781 1314.855469 158.136719 C 1317.742188 151.664062 1320.644531 145.183594 1323.53125 138.710938 C 1323.957031 137.777344 1324.363281 136.847656 1324.789062 135.914062 C 1326.109375 132.957031 1324.925781 128.96875 1321.792969 127.667969 C 1318.730469 126.402344 1314.960938 127.492188 1313.554688 130.660156 "/>
</g>
</g>
</g>
<g clip-path="url(#clip37)" clip-rule="nonzero">
<g clip-path="url(#clip38)" clip-rule="nonzero">
<g clip-path="url(#clip39)" clip-rule="nonzero">
<path style=" stroke:none;fill-rule:nonzero;fill:rgb(84.709167%,90.19928%,88.62915%);fill-opacity:1;" d="M 1378.816406 80.769531 C 1375.925781 87.253906 1373.027344 93.722656 1370.136719 100.207031 C 1369.730469 101.132812 1369.304688 102.066406 1368.890625 103.007812 C 1367.570312 105.964844 1368.757812 109.941406 1371.882812 111.238281 C 1374.945312 112.503906 1378.710938 111.425781 1380.125 108.257812 C 1383.027344 101.78125 1385.914062 95.308594 1388.804688 88.824219 C 1389.222656 87.898438 1389.636719 86.960938 1390.050781 86.023438 C 1391.375 83.078125 1390.195312 79.09375 1387.058594 77.792969 C 1383.996094 76.527344 1380.234375 77.601562 1378.816406 80.769531 "/>
</g>
</g>
</g>
<g clip-path="url(#clip40)" clip-rule="nonzero">
<g clip-path="url(#clip41)" clip-rule="nonzero">
<g clip-path="url(#clip42)" clip-rule="nonzero">
<path style=" stroke:none;fill-rule:nonzero;fill:rgb(84.709167%,90.19928%,88.62915%);fill-opacity:1;" d="M 1250.519531 61.65625 C 1247.632812 68.128906 1244.730469 74.609375 1241.84375 81.082031 C 1241.429688 82.019531 1241.011719 82.945312 1240.597656 83.882812 C 1239.269531 86.835938 1240.449219 90.820312 1243.585938 92.121094 C 1246.648438 93.390625 1250.414062 92.300781 1251.832031 89.136719 C 1254.71875 82.664062 1257.621094 76.183594 1260.507812 69.710938 C 1260.921875 68.769531 1261.34375 67.835938 1261.753906 66.910156 C 1263.082031 63.957031 1261.902344 59.96875 1258.765625 58.667969 C 1255.703125 57.402344 1251.941406 58.480469 1250.519531 61.65625 "/>
</g>
</g>
</g>
<g clip-path="url(#clip43)" clip-rule="nonzero">
<g clip-path="url(#clip44)" clip-rule="nonzero">
<g clip-path="url(#clip45)" clip-rule="nonzero">
<path style=" stroke:none;fill-rule:nonzero;fill:rgb(84.709167%,90.19928%,88.62915%);fill-opacity:1;" d="M 1233.226562 160.855469 C 1230.324219 167.332031 1227.4375 173.804688 1224.539062 180.285156 C 1224.128906 181.214844 1223.703125 182.148438 1223.296875 183.078125 C 1221.972656 186.042969 1223.15625 190.019531 1226.28125 191.316406 C 1229.355469 192.585938 1233.109375 191.503906 1234.53125 188.328125 C 1237.417969 181.855469 1240.320312 175.375 1243.207031 168.902344 C 1243.628906 167.96875 1244.039062 167.039062 1244.460938 166.105469 C 1245.78125 163.148438 1244.597656 159.171875 1241.460938 157.871094 C 1238.402344 156.59375 1234.632812 157.683594 1233.226562 160.855469 "/>
</g>
</g>
</g>
<g clip-path="url(#clip46)" clip-rule="nonzero">
<g clip-path="url(#clip47)" clip-rule="nonzero">
<g clip-path="url(#clip48)" clip-rule="nonzero">
<path style=" stroke:none;fill-rule:nonzero;fill:rgb(84.709167%,90.19928%,88.62915%);fill-opacity:1;" d="M 1089.601562 130.859375 C 1086.703125 137.328125 1083.8125 143.8125 1080.917969 150.28125 C 1080.503906 151.21875 1080.082031 152.144531 1079.671875 153.082031 C 1078.351562 156.039062 1079.53125 160.027344 1082.671875 161.316406 C 1085.734375 162.582031 1089.488281 161.5 1090.90625 158.335938 C 1093.808594 151.855469 1096.691406 145.382812 1099.585938 138.898438 C 1100.003906 137.976562 1100.417969 137.035156 1100.835938 136.113281 C 1102.15625 133.15625 1100.976562 129.167969 1097.839844 127.867188 C 1094.777344 126.601562 1091.007812 127.6875 1089.601562 130.859375 "/>
</g>
</g>
</g>
<g clip-path="url(#clip49)" clip-rule="nonzero">
<g clip-path="url(#clip50)" clip-rule="nonzero">
<g clip-path="url(#clip51)" clip-rule="nonzero">
<path style=" stroke:none;fill-rule:nonzero;fill:rgb(84.709167%,90.19928%,88.62915%);fill-opacity:1;" d="M 1161.664062 37.195312 C 1158.773438 43.679688 1155.875 50.148438 1152.984375 56.632812 C 1152.574219 57.5625 1152.152344 58.496094 1151.742188 59.425781 C 1150.425781 62.382812 1151.59375 66.363281 1154.730469 67.664062 C 1157.804688 68.933594 1161.554688 67.851562 1162.976562 64.675781 C 1165.863281 58.203125 1168.765625 51.722656 1171.652344 45.25 C 1172.078125 44.316406 1172.484375 43.386719 1172.910156 42.453125 C 1174.226562 39.496094 1173.042969 35.519531 1169.90625 34.21875 C 1166.847656 32.945312 1163.082031 34.03125 1161.664062 37.195312 "/>
</g>
</g>
</g>
<g clip-path="url(#clip52)" clip-rule="nonzero">
<g clip-path="url(#clip53)" clip-rule="nonzero">
<g clip-path="url(#clip54)" clip-rule="nonzero">
<path style=" stroke:none;fill-rule:nonzero;fill:rgb(84.709167%,90.19928%,88.62915%);fill-opacity:1;" d="M 1325.695312 304.867188 C 1322.796875 311.347656 1319.910156 317.820312 1317.015625 324.304688 C 1316.597656 325.230469 1316.183594 326.167969 1315.765625 327.089844 C 1314.445312 330.046875 1315.628906 334.035156 1318.761719 335.335938 C 1321.824219 336.601562 1325.578125 335.519531 1327 332.34375 C 1329.898438 325.875 1332.789062 319.390625 1335.6875 312.921875 C 1336.097656 311.984375 1336.507812 311.054688 1336.933594 310.121094 C 1338.25 307.164062 1337.066406 303.1875 1333.929688 301.886719 C 1330.871094 300.609375 1327.101562 301.699219 1325.695312 304.867188 "/>
</g>
</g>
</g>
<g clip-path="url(#clip55)" clip-rule="nonzero">
<g clip-path="url(#clip56)" clip-rule="nonzero">
<g clip-path="url(#clip57)" clip-rule="nonzero">
<path style=" stroke:none;fill-rule:nonzero;fill:rgb(84.709167%,90.19928%,88.62915%);fill-opacity:1;" d="M 1017.984375 244.957031 C 1015.085938 251.425781 1012.195312 257.910156 1009.296875 264.375 C 1008.882812 265.316406 1008.476562 266.242188 1008.050781 267.179688 C 1006.734375 270.136719 1007.914062 274.121094 1011.050781 275.421875 C 1014.113281 276.6875 1017.871094 275.597656 1019.285156 272.429688 C 1022.183594 265.960938 1025.074219 259.476562 1027.972656 253.007812 C 1028.386719 252.070312 1028.804688 251.148438 1029.21875 250.207031 C 1030.535156 247.25 1029.355469 243.265625 1026.222656 241.964844 C 1023.15625 240.699219 1019.398438 241.789062 1017.984375 244.957031 "/>
</g>
</g>
</g>
<g clip-path="url(#clip58)" clip-rule="nonzero">
<g clip-path="url(#clip59)" clip-rule="nonzero">
<g clip-path="url(#clip60)" clip-rule="nonzero">
<path style=" stroke:none;fill-rule:nonzero;fill:rgb(84.709167%,90.19928%,88.62915%);fill-opacity:1;" d="M 1443.785156 254.921875 C 1440.898438 261.394531 1438 267.875 1435.113281 274.347656 C 1434.6875 275.28125 1434.277344 276.210938 1433.855469 277.144531 C 1432.546875 280.105469 1433.714844 284.085938 1436.851562 285.386719 C 1439.914062 286.65625 1443.683594 285.566406 1445.101562 282.402344 C 1447.988281 275.925781 1450.878906 269.445312 1453.773438 262.976562 C 1454.1875 262.035156 1454.609375 261.113281 1455.019531 260.175781 C 1456.339844 257.214844 1455.171875 253.234375 1452.035156 251.933594 C 1448.972656 250.667969 1445.203125 251.753906 1443.785156 254.921875 "/>
</g>
</g>
</g>
<g clip-path="url(#clip61)" clip-rule="nonzero">
<g clip-path="url(#clip62)" clip-rule="nonzero">
<g clip-path="url(#clip63)" clip-rule="nonzero">
<path style=" stroke:none;fill-rule:nonzero;fill:rgb(84.709167%,90.19928%,88.62915%);fill-opacity:1;" d="M 1164.480469 288.3125 C 1161.578125 294.792969 1158.691406 301.265625 1155.804688 307.738281 C 1155.382812 308.671875 1154.96875 309.609375 1154.546875 310.535156 C 1153.230469 313.492188 1154.410156 317.480469 1157.546875 318.78125 C 1160.609375 320.046875 1164.378906 318.957031 1165.785156 315.789062 C 1168.679688 309.320312 1171.570312 302.835938 1174.46875 296.367188 C 1174.882812 295.425781 1175.300781 294.503906 1175.714844 293.566406 C 1177.035156 290.609375 1175.847656 286.632812 1172.710938 285.332031 C 1169.65625 284.054688 1165.894531 285.144531 1164.480469 288.3125 "/>
</g>
</g>
</g>
<g clip-path="url(#clip64)" clip-rule="nonzero">
<g clip-path="url(#clip65)" clip-rule="nonzero">
<g clip-path="url(#clip66)" clip-rule="nonzero">
<path style=" stroke:none;fill-rule:nonzero;fill:rgb(84.709167%,90.19928%,88.62915%);fill-opacity:1;" d="M 1060.273438 38.867188 C 1057.371094 45.347656 1054.488281 51.820312 1051.601562 58.292969 C 1051.175781 59.226562 1050.753906 60.164062 1050.34375 61.089844 C 1049.023438 64.046875 1050.203125 68.035156 1053.339844 69.335938 C 1056.402344 70.601562 1060.15625 69.519531 1061.578125 66.34375 C 1064.476562 59.875 1067.367188 53.390625 1070.253906 46.917969 C 1070.675781 45.984375 1071.085938 45.054688 1071.507812 44.121094 C 1072.828125 41.164062 1071.648438 37.175781 1068.507812 35.886719 C 1065.449219 34.609375 1061.679688 35.699219 1060.273438 38.867188 "/>
</g>
</g>
</g>
<g clip-path="url(#clip67)" clip-rule="nonzero">
<g clip-path="url(#clip68)" clip-rule="nonzero">
<g clip-path="url(#clip69)" clip-rule="nonzero">
<path style=" stroke:none;fill-rule:nonzero;fill:rgb(84.709167%,90.19928%,88.62915%);fill-opacity:1;" d="M 1166.3125 114.417969 C 1163.414062 120.886719 1160.523438 127.371094 1157.636719 133.84375 C 1157.214844 134.78125 1156.800781 135.71875 1156.382812 136.640625 C 1155.0625 139.597656 1156.242188 143.585938 1159.378906 144.886719 C 1162.441406 146.152344 1166.199219 145.0625 1167.617188 141.894531 C 1170.511719 135.425781 1173.40625 128.941406 1176.292969 122.46875 C 1176.714844 121.535156 1177.132812 120.609375 1177.546875 119.671875 C 1178.867188 116.714844 1177.6875 112.726562 1174.550781 111.425781 C 1171.488281 110.160156 1167.71875 111.25 1166.3125 114.417969 "/>
</g>
</g>
</g>
<g clip-path="url(#clip70)" clip-rule="nonzero">
<g clip-path="url(#clip71)" clip-rule="nonzero">
<g clip-path="url(#clip72)" clip-rule="nonzero">
<g clip-path="url(#clip73)" clip-rule="nonzero">
<g clip-path="url(#clip74)" clip-rule="nonzero">
<path style=" stroke:none;fill-rule:nonzero;fill:rgb(84.709167%,90.19928%,88.62915%);fill-opacity:1;" d="M 1093.769531 325.886719 C 1090.867188 332.367188 1087.980469 338.839844 1085.078125 345.320312 C 1084.667969 346.246094 1084.246094 347.183594 1083.835938 348.109375 C 1082.519531 351.066406 1083.699219 355.054688 1086.832031 356.355469 C 1089.898438 357.621094 1093.65625 356.527344 1095.070312 353.363281 C 1097.96875 346.894531 1100.859375 340.410156 1103.746094 333.9375 C 1104.171875 333.003906 1104.578125 332.074219 1105.003906 331.140625 C 1106.320312 328.183594 1105.140625 324.195312 1102.003906 322.894531 C 1098.9375 321.640625 1095.175781 322.714844 1093.769531 325.886719 "/>
</g>
</g>
</g>
</g>
</g>
<g clip-path="url(#clip75)" clip-rule="nonzero">
<g clip-path="url(#clip76)" clip-rule="nonzero">
<g clip-path="url(#clip77)" clip-rule="nonzero">
<path style=" stroke:none;fill-rule:nonzero;fill:rgb(84.709167%,90.19928%,88.62915%);fill-opacity:1;" d="M 1079.578125 225.300781 C 1076.691406 231.777344 1073.800781 238.257812 1070.902344 244.726562 C 1070.488281 245.667969 1070.070312 246.589844 1069.65625 247.527344 C 1068.335938 250.488281 1069.519531 254.472656 1072.644531 255.769531 C 1075.707031 257.035156 1079.472656 255.949219 1080.890625 252.78125 C 1083.777344 246.308594 1086.679688 239.828125 1089.570312 233.34375 C 1089.988281 232.421875 1090.398438 231.492188 1090.824219 230.558594 C 1092.140625 227.601562 1090.960938 223.617188 1087.824219 222.316406 C 1084.761719 221.046875 1081 222.125 1079.578125 225.300781 "/>
</g>
</g>
</g>
<g clip-path="url(#clip78)" clip-rule="nonzero">
<g clip-path="url(#clip79)" clip-rule="nonzero">
<g clip-path="url(#clip80)" clip-rule="nonzero">
<path style=" stroke:none;fill-rule:nonzero;fill:rgb(84.709167%,90.19928%,88.62915%);fill-opacity:1;" d="M 1199.058594 371.742188 C 1196.164062 378.226562 1193.269531 384.695312 1190.378906 391.179688 C 1189.96875 392.109375 1189.546875 393.042969 1189.125 393.964844 C 1187.808594 396.921875 1188.988281 400.910156 1192.125 402.210938 C 1195.1875 403.476562 1198.949219 402.398438 1200.371094 399.222656 C 1203.257812 392.75 1206.15625 386.28125 1209.046875 379.796875 C 1209.453125 378.867188 1209.878906 377.933594 1210.292969 376.996094 C 1211.617188 374.054688 1210.4375 370.066406 1207.300781 368.765625 C 1204.238281 367.5 1200.472656 368.578125 1199.058594 371.742188 "/>
</g>
</g>
</g>
</g>
</svg>
