<?xml version="1.0" encoding="UTF-8"?>
<svg xmlns="http://www.w3.org/2000/svg" xmlns:xlink="http://www.w3.org/1999/xlink" width="1440pt" height="809.999993pt" viewBox="0 0 1440 809.999993" version="1.2">
<defs>
<clipPath id="clip1">
  <path d="M 963.863281 0 L 1440 0 L 1440 498.734375 L 963.863281 498.734375 Z M 963.863281 0 "/>
</clipPath>
<clipPath id="clip2">
  <path d="M 989 36 L 1440 36 L 1440 422 L 989 422 Z M 989 36 "/>
</clipPath>
<clipPath id="clip3">
  <path d="M 1551.074219 181.671875 L 1103.613281 523.769531 L 906.828125 266.378906 L 1354.285156 -75.722656 Z M 1551.074219 181.671875 "/>
</clipPath>
<clipPath id="clip4">
  <path d="M 1551.074219 181.671875 L 1103.613281 523.769531 L 906.828125 266.378906 L 1354.285156 -75.722656 Z M 1551.074219 181.671875 "/>
</clipPath>
<clipPath id="clip5">
  <path d="M 1550.871094 181.410156 L 1102.359375 524.3125 L 905.515625 266.84375 L 1354.027344 -76.058594 Z M 1550.871094 181.410156 "/>
</clipPath>
<clipPath id="clip6">
  <path d="M 1550.871094 181.410156 L 1103.371094 523.539062 L 906.953125 266.628906 L 1354.453125 -75.5 Z M 1550.871094 181.410156 "/>
</clipPath>
<clipPath id="clip7">
  <path d="M 1041 56 L 1440 56 L 1440 373 L 1041 373 Z M 1041 56 "/>
</clipPath>
<clipPath id="clip8">
  <path d="M 1551.074219 181.671875 L 1103.613281 523.769531 L 906.828125 266.378906 L 1354.285156 -75.722656 Z M 1551.074219 181.671875 "/>
</clipPath>
<clipPath id="clip9">
  <path d="M 1551.074219 181.671875 L 1103.613281 523.769531 L 906.828125 266.378906 L 1354.285156 -75.722656 Z M 1551.074219 181.671875 "/>
</clipPath>
<clipPath id="clip10">
  <path d="M 1104 80 L 1431 80 L 1431 313 L 1104 313 Z M 1104 80 "/>
</clipPath>
<clipPath id="clip11">
  <path d="M 1551.074219 181.671875 L 1103.613281 523.769531 L 906.828125 266.378906 L 1354.285156 -75.722656 Z M 1551.074219 181.671875 "/>
</clipPath>
<clipPath id="clip12">
  <path d="M 1551.074219 181.671875 L 1103.613281 523.769531 L 906.828125 266.378906 L 1354.285156 -75.722656 Z M 1551.074219 181.671875 "/>
</clipPath>
<clipPath id="clip13">
  <path d="M 1156 99 L 1379 99 L 1379 258 L 1156 258 Z M 1156 99 "/>
</clipPath>
<clipPath id="clip14">
  <path d="M 1551.074219 181.671875 L 1103.613281 523.769531 L 906.828125 266.378906 L 1354.285156 -75.722656 Z M 1551.074219 181.671875 "/>
</clipPath>
<clipPath id="clip15">
  <path d="M 1551.074219 181.671875 L 1103.613281 523.769531 L 906.828125 266.378906 L 1354.285156 -75.722656 Z M 1551.074219 181.671875 "/>
</clipPath>
<clipPath id="clip16">
  <path d="M 329 776 L 345.042969 776 L 345.042969 793.867188 L 329 793.867188 Z M 329 776 "/>
</clipPath>
</defs>
<g id="surface1">
<path style=" stroke:none;fill-rule:nonzero;fill:rgb(100%,88.62915%,89.019775%);fill-opacity:1;" d="M 517.011719 924.289062 C 493.449219 976.996094 424.390625 989.808594 383.898438 948.667969 C 376.925781 941.585938 370.203125 934.410156 363.660156 927.433594 C 362.914062 926.632812 362.164062 925.832031 361.425781 925.035156 C 315.066406 874.972656 250.507812 846.167969 182.335938 843.898438 C 180.429688 843.835938 178.5 843.761719 176.53125 843.671875 C 93.976562 839.886719 -8.867188 835.21875 -36.375 773.722656 C -93.121094 646.90625 -34.808594 567.546875 9.722656 536.828125 C 42.953125 513.898438 65.550781 533.808594 84.910156 520.269531 C 119.253906 496.21875 100.21875 434.800781 130.78125 401.332031 C 194.054688 332.066406 257.535156 400.695312 266.800781 473.269531 C 279.273438 570.984375 278.984375 569.25 385.398438 593.128906 C 408.863281 598.363281 477.695312 599.082031 495.570312 618.675781 C 530.460938 656.90625 479.132812 713.535156 485.109375 751.183594 C 493.257812 802.496094 534.53125 830.851562 528.253906 891.457031 C 527.5 898.789062 523.0625 910.75 517.011719 924.289062 "/>
<g clip-path="url(#clip1)" clip-rule="nonzero">
<path style=" stroke:none;fill-rule:nonzero;fill:rgb(81.959534%,87.449646%,78.819275%);fill-opacity:1;" d="M 1463.082031 483.804688 C 1424.003906 511.097656 1370.257812 499.796875 1344.867188 459.453125 C 1292.050781 375.542969 1254.035156 397.382812 1210.328125 429.332031 C 916.78125 644.136719 907.550781 265.90625 1066.808594 190.214844 C 1127.664062 161.355469 1158.671875 134.824219 1116.613281 77.460938 C 956.675781 -140.847656 1735.082031 -209.140625 1484.363281 117.773438 C 1341.605469 303.925781 1818.285156 235.71875 1463.082031 483.804688 "/>
</g>
<g clip-path="url(#clip2)" clip-rule="nonzero">
<g clip-path="url(#clip3)" clip-rule="nonzero">
<g clip-path="url(#clip4)" clip-rule="nonzero">
<g clip-path="url(#clip5)" clip-rule="nonzero">
<g clip-path="url(#clip6)" clip-rule="nonzero">
<path style=" stroke:none;fill-rule:nonzero;fill:rgb(87.449646%,75.689697%,72.158813%);fill-opacity:1;" d="M 1506.664062 208.050781 C 1525.917969 193.328125 1531.714844 176.625 1523.898438 158.398438 C 1495.820312 92.953125 1311.582031 30.171875 1224.714844 43.96875 C 1195.054688 48.675781 1179.089844 61.21875 1177.289062 81.234375 C 1172.554688 133.882812 1124.394531 184.886719 1077.8125 234.207031 C 1028.195312 286.746094 981.339844 336.375 999.714844 377.773438 C 1008.117188 396.707031 1055.265625 413.074219 1109.375 415.832031 C 1137.585938 417.273438 1232.257812 417.378906 1266.011719 358.285156 C 1304.753906 290.425781 1346.785156 277.109375 1395.460938 261.683594 C 1428.328125 251.269531 1465.574219 239.464844 1506.664062 208.050781 Z M 1187.546875 52.097656 C 1196.257812 45.4375 1208.425781 40.792969 1223.820312 38.351562 C 1267.09375 31.484375 1334.496094 42.316406 1399.738281 66.636719 C 1467.546875 91.902344 1515.910156 125.371094 1529.121094 156.148438 C 1537.96875 176.789062 1531.398438 196.296875 1510.117188 212.566406 C 1468.234375 244.589844 1430.480469 256.546875 1397.183594 267.105469 C 1349.636719 282.167969 1308.582031 295.179688 1270.953125 361.105469 C 1235.589844 423.015625 1138.117188 422.988281 1109.085938 421.511719 C 1052.066406 418.601562 1003.882812 401.175781 994.519531 380.078125 C 974.605469 335.21875 1022.726562 284.257812 1073.683594 230.304688 C 1119.589844 181.683594 1167.070312 131.410156 1171.628906 80.726562 C 1172.691406 68.953125 1178.085938 59.328125 1187.546875 52.097656 "/>
</g>
</g>
</g>
</g>
</g>
<g clip-path="url(#clip7)" clip-rule="nonzero">
<g clip-path="url(#clip8)" clip-rule="nonzero">
<g clip-path="url(#clip9)" clip-rule="nonzero">
<path style=" stroke:none;fill-rule:nonzero;fill:rgb(87.449646%,75.689697%,72.158813%);fill-opacity:1;" d="M 1465.394531 196.753906 C 1480.949219 184.859375 1485.644531 171.390625 1479.339844 156.703125 C 1456.421875 103.269531 1305.871094 52.03125 1234.878906 63.296875 C 1210.839844 67.117188 1197.917969 77.230469 1196.460938 93.359375 C 1192.570312 136.652344 1153.070312 178.492188 1114.859375 218.949219 C 1074.347656 261.855469 1036.078125 302.367188 1050.992188 335.960938 C 1057.808594 351.308594 1096.222656 364.574219 1140.367188 366.824219 C 1163.390625 368 1240.679688 368.089844 1268.171875 319.953125 C 1299.996094 264.210938 1334.511719 253.269531 1374.472656 240.609375 C 1401.351562 232.089844 1431.804688 222.433594 1465.394531 196.753906 Z M 1204.03125 69.042969 C 1211.234375 63.539062 1221.277344 59.699219 1233.980469 57.683594 C 1269.503906 52.046875 1324.808594 60.925781 1378.316406 80.871094 C 1433.972656 101.617188 1473.695312 129.128906 1484.570312 154.46875 C 1489.695312 166.421875 1491.125 184.238281 1468.847656 201.269531 C 1434.472656 227.550781 1403.511719 237.363281 1376.191406 246.023438 C 1337.363281 258.328125 1303.832031 268.949219 1273.105469 322.777344 C 1244.015625 373.722656 1163.929688 373.722656 1140.078125 372.5 C 1093.195312 370.117188 1053.546875 355.714844 1045.796875 338.265625 C 1029.347656 301.214844 1068.882812 259.359375 1110.730469 215.046875 C 1148.269531 175.28125 1187.089844 134.175781 1190.808594 92.84375 C 1191.691406 83.046875 1196.171875 75.054688 1204.03125 69.042969 "/>
</g>
</g>
</g>
<g clip-path="url(#clip10)" clip-rule="nonzero">
<g clip-path="url(#clip11)" clip-rule="nonzero">
<g clip-path="url(#clip12)" clip-rule="nonzero">
<path style=" stroke:none;fill-rule:nonzero;fill:rgb(87.449646%,75.689697%,72.158813%);fill-opacity:1;" d="M 1413.09375 182.835938 C 1424.269531 174.289062 1427.519531 165.039062 1423.023438 154.5625 C 1406.414062 115.855469 1297.191406 78.757812 1245.667969 86.9375 C 1228.546875 89.65625 1219.34375 96.796875 1218.320312 108.15625 C 1215.453125 139.972656 1186.566406 170.570312 1158.636719 200.152344 C 1129.289062 231.230469 1101.5625 260.578125 1112.230469 284.59375 C 1117 295.355469 1145.320312 305.035156 1176.695312 306.640625 C 1193.375 307.484375 1249.324219 307.570312 1269.144531 272.863281 C 1292.492188 231.964844 1317.78125 223.953125 1347.0625 214.671875 C 1366.589844 208.484375 1388.722656 201.464844 1413.09375 182.835938 Z M 1222.609375 89.722656 C 1227.476562 86.003906 1234.566406 82.941406 1244.777344 81.324219 C 1299.207031 72.679688 1410.496094 110.945312 1428.246094 152.320312 C 1432.089844 161.285156 1433.179688 174.636719 1416.546875 187.351562 C 1391.382812 206.589844 1368.753906 213.761719 1348.785156 220.09375 C 1320.632812 229.015625 1296.320312 236.714844 1274.082031 275.675781 C 1252.644531 313.203125 1193.898438 313.207031 1176.410156 312.308594 C 1141.410156 310.53125 1112.878906 300.082031 1107.03125 286.902344 C 1094.835938 259.433594 1123.816406 228.738281 1154.496094 196.246094 C 1181.769531 167.367188 1209.96875 137.503906 1212.65625 107.640625 C 1213.179688 101.84375 1215.589844 95.089844 1222.609375 89.722656 "/>
</g>
</g>
</g>
<g clip-path="url(#clip13)" clip-rule="nonzero">
<g clip-path="url(#clip14)" clip-rule="nonzero">
<g clip-path="url(#clip15)" clip-rule="nonzero">
<path style=" stroke:none;fill-rule:nonzero;fill:rgb(87.449646%,75.689697%,72.158813%);fill-opacity:1;" d="M 1365.667969 168.796875 C 1372.820312 163.328125 1374.921875 157.445312 1372.082031 150.820312 C 1361.761719 126.769531 1290.78125 99.8125 1253.417969 105.75 C 1242.332031 107.503906 1236.390625 112.039062 1235.738281 119.226562 C 1233.78125 141.023438 1214.179688 161.777344 1195.226562 181.847656 C 1175.636719 202.585938 1157.148438 222.171875 1164.082031 237.8125 C 1166.796875 243.917969 1183.507812 250.949219 1206.789062 252.132812 C 1229.699219 253.300781 1257.890625 248.046875 1268.304688 229.816406 C 1284.238281 201.902344 1301.460938 196.453125 1321.394531 190.128906 C 1335.144531 185.777344 1349.351562 181.269531 1365.667969 168.796875 Z M 1237.128906 105.984375 C 1240.53125 103.382812 1245.453125 101.253906 1252.523438 100.132812 C 1289.519531 94.261719 1365.199219 120.375 1377.300781 148.582031 C 1380.023438 154.933594 1380.8125 164.375 1369.121094 173.316406 C 1352.019531 186.390625 1336.667969 191.257812 1323.117188 195.550781 C 1303.539062 201.757812 1288.078125 206.65625 1273.242188 232.628906 C 1263.316406 250.023438 1238.359375 259.4375 1206.503906 257.8125 C 1186.910156 256.808594 1163.65625 250.851562 1158.886719 240.117188 C 1150.417969 221.019531 1170.175781 200.097656 1191.089844 177.949219 C 1209.386719 158.574219 1228.296875 138.542969 1230.082031 118.714844 C 1230.453125 114.59375 1232.160156 109.785156 1237.128906 105.984375 "/>
</g>
</g>
</g>
<path style=" stroke:none;fill-rule:nonzero;fill:rgb(91.369629%,78.42865%,76.469421%);fill-opacity:1;" d="M 57.011719 728.011719 C 59.671875 730.964844 62.324219 733.917969 64.980469 736.871094 C 65.363281 737.296875 65.75 737.722656 66.128906 738.148438 C 67.34375 739.496094 69.644531 739.800781 71.019531 738.492188 C 72.367188 737.210938 72.664062 735.035156 71.363281 733.589844 C 68.710938 730.640625 66.050781 727.683594 63.394531 724.734375 C 63.011719 724.308594 62.632812 723.882812 62.246094 723.457031 C 61.03125 722.105469 58.730469 721.808594 57.355469 723.113281 C 56.011719 724.398438 55.710938 726.566406 57.011719 728.011719 "/>
<path style=" stroke:none;fill-rule:nonzero;fill:rgb(91.369629%,78.42865%,76.469421%);fill-opacity:1;" d="M 183.179688 726.289062 C 185.839844 729.246094 188.496094 732.195312 191.148438 735.152344 C 191.535156 735.578125 191.914062 736 192.296875 736.425781 C 193.507812 737.773438 195.8125 738.078125 197.191406 736.765625 C 198.535156 735.496094 198.832031 733.320312 197.535156 731.875 C 194.875 728.917969 192.21875 725.964844 189.558594 723.015625 C 189.179688 722.582031 188.800781 722.164062 188.417969 721.738281 C 187.199219 720.386719 184.894531 720.085938 183.523438 721.394531 C 182.179688 722.675781 181.882812 724.84375 183.179688 726.289062 "/>
<path style=" stroke:none;fill-rule:nonzero;fill:rgb(91.369629%,78.42865%,76.469421%);fill-opacity:1;" d="M -1.152344 718.117188 C 1.496094 721.066406 4.15625 724.023438 6.8125 726.972656 C 7.195312 727.398438 7.574219 727.824219 7.960938 728.25 C 9.175781 729.601562 11.476562 729.902344 12.851562 728.59375 C 14.195312 727.316406 14.496094 725.144531 13.195312 723.699219 C 10.535156 720.742188 7.886719 717.792969 5.226562 714.835938 C 4.847656 714.410156 4.460938 713.992188 4.078125 713.558594 C 2.867188 712.214844 0.5625 711.914062 -0.8125 713.214844 C -2.160156 714.5 -2.457031 716.671875 -1.152344 718.117188 "/>
<path style=" stroke:none;fill-rule:nonzero;fill:rgb(91.369629%,78.42865%,76.469421%);fill-opacity:1;" d="M 286.082031 789.230469 C 288.734375 792.1875 291.390625 795.144531 294.050781 798.09375 C 294.429688 798.519531 294.816406 798.949219 295.199219 799.375 C 296.410156 800.722656 298.714844 801.019531 300.089844 799.714844 C 301.4375 798.4375 301.734375 796.261719 300.429688 794.816406 C 297.777344 791.867188 295.121094 788.910156 292.460938 785.957031 C 292.082031 785.53125 291.695312 785.105469 291.3125 784.679688 C 290.101562 783.332031 287.796875 783.027344 286.425781 784.339844 C 285.074219 785.617188 284.777344 787.785156 286.082031 789.230469 "/>
<path style=" stroke:none;fill-rule:nonzero;fill:rgb(91.369629%,78.42865%,76.469421%);fill-opacity:1;" d="M 225.617188 428.246094 C 228.277344 431.203125 230.929688 434.160156 233.585938 437.109375 C 233.964844 437.535156 234.355469 437.960938 234.734375 438.386719 C 235.945312 439.738281 238.25 440.035156 239.625 438.730469 C 240.964844 437.453125 241.269531 435.277344 239.972656 433.828125 C 237.308594 430.878906 234.65625 427.921875 232 424.964844 C 231.617188 424.546875 231.238281 424.121094 230.851562 423.695312 C 229.636719 422.34375 227.335938 422.042969 225.960938 423.351562 C 224.617188 424.628906 224.316406 426.800781 225.617188 428.246094 "/>
<g clip-path="url(#clip16)" clip-rule="nonzero">
<path style=" stroke:none;fill-rule:nonzero;fill:rgb(91.369629%,78.42865%,76.469421%);fill-opacity:1;" d="M 329.855469 781.878906 C 332.515625 784.835938 335.171875 787.792969 337.832031 790.742188 C 338.210938 791.167969 338.589844 791.59375 338.972656 792.019531 C 340.183594 793.371094 342.496094 793.671875 343.867188 792.363281 C 345.210938 791.085938 345.507812 788.910156 344.210938 787.460938 C 341.550781 784.511719 338.894531 781.554688 336.242188 778.605469 C 335.855469 778.179688 335.476562 777.753906 335.09375 777.328125 C 333.882812 775.976562 331.578125 775.675781 330.199219 776.984375 C 328.855469 778.261719 328.558594 780.4375 329.855469 781.878906 "/>
</g>
<path style=" stroke:none;fill-rule:nonzero;fill:rgb(91.369629%,78.42865%,76.469421%);fill-opacity:1;" d="M 10.199219 633.089844 C 12.859375 636.046875 15.515625 638.996094 18.175781 641.945312 C 18.554688 642.378906 18.9375 642.796875 19.324219 643.222656 C 20.535156 644.574219 22.839844 644.878906 24.214844 643.566406 C 25.554688 642.289062 25.859375 640.121094 24.554688 638.671875 C 21.898438 635.714844 19.238281 632.765625 16.589844 629.808594 C 16.199219 629.382812 15.820312 628.964844 15.441406 628.539062 C 14.226562 627.1875 11.917969 626.886719 10.550781 628.195312 C 9.199219 629.472656 8.902344 631.644531 10.199219 633.089844 "/>
<path style=" stroke:none;fill-rule:nonzero;fill:rgb(91.369629%,78.42865%,76.469421%);fill-opacity:1;" d="M 276.351562 538.863281 C 279.011719 541.8125 281.667969 544.769531 284.320312 547.71875 C 284.707031 548.144531 285.089844 548.570312 285.46875 549 C 286.6875 550.347656 288.992188 550.644531 290.367188 549.339844 C 291.707031 548.0625 292.011719 545.886719 290.707031 544.441406 C 288.050781 541.488281 285.390625 538.539062 282.734375 535.582031 C 282.351562 535.15625 281.972656 534.730469 281.59375 534.304688 C 280.378906 532.960938 278.070312 532.660156 276.695312 533.964844 C 275.351562 535.242188 275.054688 537.417969 276.351562 538.863281 "/>
<path style=" stroke:none;fill-rule:nonzero;fill:rgb(91.369629%,78.42865%,76.469421%);fill-opacity:1;" d="M 179.160156 416.59375 C 181.820312 419.542969 184.46875 422.492188 187.128906 425.449219 C 187.507812 425.875 187.894531 426.300781 188.277344 426.726562 C 189.488281 428.070312 191.792969 428.375 193.167969 427.070312 C 194.515625 425.792969 194.8125 423.617188 193.515625 422.171875 C 190.855469 419.21875 188.199219 416.265625 185.542969 413.3125 C 185.160156 412.886719 184.78125 412.460938 184.394531 412.035156 C 183.179688 410.6875 180.875 410.390625 179.503906 411.691406 C 178.160156 412.972656 177.859375 415.148438 179.160156 416.59375 "/>
<path style=" stroke:none;fill-rule:nonzero;fill:rgb(91.369629%,78.42865%,76.469421%);fill-opacity:1;" d="M 109.703125 717.304688 C 112.359375 720.253906 115.019531 723.210938 117.675781 726.160156 C 118.058594 726.585938 118.4375 727.011719 118.824219 727.4375 C 120.039062 728.789062 122.34375 729.089844 123.714844 727.78125 C 125.058594 726.503906 125.359375 724.328125 124.058594 722.878906 C 121.398438 719.929688 118.75 716.972656 116.089844 714.023438 C 115.710938 713.597656 115.324219 713.171875 114.941406 712.746094 C 113.730469 711.394531 111.425781 711.097656 110.050781 712.402344 C 108.703125 713.679688 108.40625 715.855469 109.703125 717.304688 "/>
<path style=" stroke:none;fill-rule:nonzero;fill:rgb(91.369629%,78.42865%,76.469421%);fill-opacity:1;" d="M 237.050781 550.070312 C 239.707031 553.027344 242.367188 555.976562 245.023438 558.933594 C 245.40625 559.359375 245.785156 559.777344 246.171875 560.203125 C 247.378906 561.554688 249.6875 561.859375 251.0625 560.546875 C 252.40625 559.269531 252.707031 557.101562 251.40625 555.652344 C 248.746094 552.695312 246.09375 549.746094 243.4375 546.789062 C 243.050781 546.371094 242.667969 545.945312 242.289062 545.519531 C 241.078125 544.167969 238.765625 543.867188 237.390625 545.175781 C 236.050781 546.453125 235.753906 548.625 237.050781 550.070312 "/>
<path style=" stroke:none;fill-rule:nonzero;fill:rgb(91.369629%,78.42865%,76.469421%);fill-opacity:1;" d="M 276.804688 443.558594 C 279.464844 446.507812 282.113281 449.464844 284.773438 452.414062 C 285.152344 452.839844 285.539062 453.265625 285.921875 453.695312 C 287.132812 455.042969 289.4375 455.347656 290.8125 454.035156 C 292.152344 452.757812 292.457031 450.582031 291.152344 449.136719 C 288.5 446.1875 285.84375 443.234375 283.183594 440.277344 C 282.804688 439.851562 282.425781 439.425781 282.035156 439 C 280.824219 437.65625 278.519531 437.355469 277.148438 438.660156 C 275.796875 439.941406 275.5 442.113281 276.804688 443.558594 "/>
<path style=" stroke:none;fill-rule:nonzero;fill:rgb(91.369629%,78.42865%,76.469421%);fill-opacity:1;" d="M 246.960938 462.597656 C 249.617188 465.550781 252.277344 468.503906 254.925781 471.460938 C 255.316406 471.886719 255.695312 472.3125 256.074219 472.730469 C 257.289062 474.082031 259.59375 474.382812 260.972656 473.074219 C 262.316406 471.796875 262.613281 469.625 261.316406 468.179688 C 258.65625 465.230469 256 462.273438 253.339844 459.316406 C 252.960938 458.898438 252.578125 458.472656 252.191406 458.042969 C 250.980469 456.695312 248.675781 456.390625 247.300781 457.703125 C 245.960938 458.980469 245.65625 461.148438 246.960938 462.597656 "/>
<path style=" stroke:none;fill-rule:nonzero;fill:rgb(91.369629%,78.42865%,76.469421%);fill-opacity:1;" d="M 83.308594 755.320312 C 85.96875 758.277344 88.625 761.226562 91.285156 764.183594 C 91.664062 764.609375 92.046875 765.035156 92.425781 765.457031 C 93.644531 766.804688 95.949219 767.109375 97.324219 765.796875 C 98.664062 764.519531 98.960938 762.351562 97.664062 760.902344 C 95.007812 757.949219 92.347656 754.996094 89.695312 752.039062 C 89.308594 751.613281 88.929688 751.195312 88.546875 750.769531 C 87.335938 749.417969 85.027344 749.117188 83.652344 750.425781 C 82.308594 751.703125 82.011719 753.875 83.308594 755.320312 "/>
<path style=" stroke:none;fill-rule:nonzero;fill:rgb(91.369629%,78.42865%,76.469421%);fill-opacity:1;" d="M 103.246094 677.328125 C 105.902344 680.28125 108.5625 683.238281 111.21875 686.191406 C 111.601562 686.613281 111.980469 687.039062 112.359375 687.464844 C 113.582031 688.8125 115.882812 689.117188 117.257812 687.808594 C 118.601562 686.527344 118.902344 684.359375 117.601562 682.914062 C 114.941406 679.957031 112.285156 677 109.632812 674.050781 C 109.25 673.625 108.863281 673.199219 108.484375 672.773438 C 107.269531 671.421875 104.96875 671.125 103.585938 672.429688 C 102.246094 673.714844 101.949219 675.882812 103.246094 677.328125 "/>
<path style=" stroke:none;fill-rule:nonzero;fill:rgb(91.369629%,78.42865%,76.469421%);fill-opacity:1;" d="M 50.027344 696.96875 C 52.683594 699.925781 55.34375 702.875 57.992188 705.832031 C 58.382812 706.257812 58.761719 706.683594 59.140625 707.109375 C 60.355469 708.453125 62.664062 708.761719 64.039062 707.453125 C 65.382812 706.171875 65.679688 703.996094 64.382812 702.550781 C 61.722656 699.601562 59.066406 696.644531 56.40625 693.695312 C 56.027344 693.269531 55.644531 692.84375 55.265625 692.417969 C 54.046875 691.066406 51.742188 690.765625 50.367188 692.074219 C 49.027344 693.351562 48.730469 695.523438 50.027344 696.96875 "/>
<path style=" stroke:none;fill-rule:nonzero;fill:rgb(91.369629%,78.42865%,76.469421%);fill-opacity:1;" d="M 81.789062 528.890625 C 84.4375 531.84375 87.097656 534.796875 89.753906 537.753906 C 90.136719 538.179688 90.515625 538.605469 90.902344 539.03125 C 92.117188 540.375 94.417969 540.675781 95.792969 539.371094 C 97.136719 538.089844 97.4375 535.917969 96.136719 534.472656 C 93.476562 531.523438 90.824219 528.566406 88.167969 525.617188 C 87.78125 525.191406 87.398438 524.761719 87.019531 524.335938 C 85.808594 522.988281 83.503906 522.683594 82.121094 523.996094 C 80.78125 525.273438 80.484375 527.441406 81.789062 528.890625 "/>
<path style=" stroke:none;fill-rule:nonzero;fill:rgb(91.369629%,78.42865%,76.469421%);fill-opacity:1;" d="M 220.832031 716.753906 C 223.484375 719.703125 226.140625 722.65625 228.800781 725.609375 C 229.179688 726.039062 229.566406 726.464844 229.945312 726.890625 C 231.160156 728.230469 233.464844 728.542969 234.835938 727.230469 C 236.1875 725.953125 236.484375 723.777344 235.179688 722.332031 C 232.527344 719.382812 229.871094 716.425781 227.210938 713.476562 C 226.832031 713.046875 226.445312 712.621094 226.0625 712.195312 C 224.851562 710.847656 222.546875 710.550781 221.171875 711.855469 C 219.824219 713.132812 219.527344 715.308594 220.832031 716.753906 "/>
<path style=" stroke:none;fill-rule:nonzero;fill:rgb(91.369629%,78.42865%,76.469421%);fill-opacity:1;" d="M 114.398438 764.269531 C 117.050781 767.222656 119.710938 770.175781 122.367188 773.132812 C 122.75 773.558594 123.128906 773.984375 123.515625 774.402344 C 124.730469 775.757812 127.03125 776.054688 128.40625 774.746094 C 129.75 773.46875 130.050781 771.296875 128.75 769.851562 C 126.089844 766.894531 123.4375 763.945312 120.78125 760.988281 C 120.398438 760.570312 120.011719 760.140625 119.632812 759.714844 C 118.417969 758.367188 116.117188 758.0625 114.742188 759.375 C 113.394531 760.652344 113.097656 762.820312 114.398438 764.269531 "/>
<path style=" stroke:none;fill-rule:nonzero;fill:rgb(91.369629%,78.42865%,76.469421%);fill-opacity:1;" d="M 94.695312 622.429688 C 97.355469 625.382812 100.007812 628.335938 102.664062 631.289062 C 103.046875 631.714844 103.433594 632.140625 103.8125 632.566406 C 105.027344 633.914062 107.328125 634.21875 108.703125 632.910156 C 110.050781 631.628906 110.347656 629.453125 109.046875 628.007812 C 106.394531 625.058594 103.734375 622.101562 101.078125 619.152344 C 100.695312 618.726562 100.308594 618.300781 99.929688 617.875 C 98.714844 616.523438 96.414062 616.226562 95.039062 617.53125 C 93.691406 618.808594 93.394531 620.984375 94.695312 622.429688 "/>
<path style=" stroke:none;fill-rule:nonzero;fill:rgb(91.369629%,78.42865%,76.469421%);fill-opacity:1;" d="M 114.464844 809.160156 C 117.121094 812.117188 119.78125 815.066406 122.4375 818.015625 C 122.820312 818.441406 123.199219 818.871094 123.582031 819.296875 C 124.800781 820.644531 127.101562 820.949219 128.476562 819.636719 C 129.820312 818.359375 130.117188 816.191406 128.820312 814.746094 C 126.160156 811.789062 123.503906 808.835938 120.851562 805.878906 C 120.464844 805.460938 120.082031 805.035156 119.703125 804.609375 C 118.492188 803.257812 116.179688 802.957031 114.804688 804.265625 C 113.464844 805.546875 113.167969 807.714844 114.464844 809.160156 "/>
<path style=" stroke:none;fill-rule:nonzero;fill:rgb(91.369629%,78.42865%,76.469421%);fill-opacity:1;" d="M 43.238281 765.628906 C 45.890625 768.585938 48.550781 771.535156 51.207031 774.492188 C 51.585938 774.917969 51.976562 775.34375 52.355469 775.773438 C 53.566406 777.113281 55.871094 777.417969 57.246094 776.113281 C 58.59375 774.828125 58.890625 772.660156 57.585938 771.214844 C 54.9375 768.261719 52.277344 765.308594 49.621094 762.351562 C 49.238281 761.929688 48.859375 761.503906 48.472656 761.078125 C 47.257812 759.730469 44.957031 759.425781 43.582031 760.738281 C 42.238281 762.015625 41.9375 764.191406 43.238281 765.628906 "/>
<path style=" stroke:none;fill-rule:nonzero;fill:rgb(91.369629%,78.42865%,76.469421%);fill-opacity:1;" d="M 149.652344 796.507812 C 152.308594 799.464844 154.96875 802.421875 157.625 805.371094 C 158.007812 805.796875 158.386719 806.222656 158.765625 806.648438 C 159.980469 808 162.289062 808.296875 163.664062 806.992188 C 165.007812 805.710938 165.308594 803.539062 164.007812 802.089844 C 161.347656 799.140625 158.691406 796.183594 156.039062 793.234375 C 155.652344 792.808594 155.269531 792.382812 154.890625 791.957031 C 153.675781 790.605469 151.367188 790.308594 149.992188 791.613281 C 148.652344 792.890625 148.355469 795.0625 149.652344 796.507812 "/>
<path style=" stroke:none;fill-rule:nonzero;fill:rgb(91.369629%,78.42865%,76.469421%);fill-opacity:1;" d="M 244.371094 792.808594 C 247.03125 795.765625 249.6875 798.714844 252.347656 801.671875 C 252.726562 802.097656 253.109375 802.515625 253.488281 802.941406 C 254.703125 804.292969 257.011719 804.597656 258.386719 803.285156 C 259.726562 802.015625 260.023438 799.839844 258.726562 798.390625 C 256.070312 795.433594 253.410156 792.484375 250.761719 789.535156 C 250.371094 789.101562 249.992188 788.683594 249.613281 788.257812 C 248.398438 786.90625 246.089844 786.605469 244.714844 787.914062 C 243.371094 789.191406 243.074219 791.363281 244.371094 792.808594 "/>
<path style=" stroke:none;fill-rule:nonzero;fill:rgb(91.369629%,78.42865%,76.469421%);fill-opacity:1;" d="M 162.832031 630.324219 C 165.488281 633.28125 168.140625 636.234375 170.800781 639.191406 C 171.179688 639.609375 171.566406 640.042969 171.949219 640.460938 C 173.160156 641.8125 175.464844 642.113281 176.839844 640.804688 C 178.1875 639.527344 178.484375 637.355469 177.179688 635.910156 C 174.527344 632.953125 171.871094 630.003906 169.210938 627.046875 C 168.832031 626.628906 168.449219 626.199219 168.070312 625.773438 C 166.851562 624.425781 164.546875 624.121094 163.171875 625.433594 C 161.832031 626.710938 161.527344 628.878906 162.832031 630.324219 "/>
<path style=" stroke:none;fill-rule:nonzero;fill:rgb(91.369629%,78.42865%,76.469421%);fill-opacity:1;" d="M 212.765625 598.808594 C 215.425781 601.761719 218.082031 604.714844 220.734375 607.667969 C 221.121094 608.09375 221.503906 608.519531 221.882812 608.945312 C 223.097656 610.292969 225.398438 610.589844 226.78125 609.289062 C 228.121094 608.007812 228.417969 605.832031 227.121094 604.386719 C 224.464844 601.4375 221.804688 598.480469 219.148438 595.53125 C 218.765625 595.105469 218.386719 594.679688 218.003906 594.253906 C 216.792969 592.902344 214.484375 592.605469 213.109375 593.910156 C 211.765625 595.1875 211.46875 597.363281 212.765625 598.808594 "/>
<path style=" stroke:none;fill-rule:nonzero;fill:rgb(91.369629%,78.42865%,76.469421%);fill-opacity:1;" d="M 242.222656 657.355469 C 244.882812 660.3125 247.539062 663.261719 250.191406 666.21875 C 250.578125 666.644531 250.960938 667.070312 251.339844 667.492188 C 252.554688 668.839844 254.855469 669.144531 256.230469 667.832031 C 257.578125 666.5625 257.875 664.386719 256.574219 662.941406 C 253.921875 659.988281 251.261719 657.03125 248.605469 654.078125 C 248.222656 653.65625 247.84375 653.230469 247.457031 652.804688 C 246.242188 651.457031 243.941406 651.152344 242.566406 652.460938 C 241.222656 653.742188 240.921875 655.910156 242.222656 657.355469 "/>
<path style=" stroke:none;fill-rule:nonzero;fill:rgb(91.369629%,78.42865%,76.469421%);fill-opacity:1;" d="M 170.449219 594.820312 C 173.109375 597.777344 175.765625 600.726562 178.417969 603.683594 C 178.804688 604.109375 179.1875 604.53125 179.566406 604.957031 C 180.78125 606.304688 183.082031 606.609375 184.457031 605.296875 C 185.804688 604.019531 186.101562 601.851562 184.800781 600.402344 C 182.148438 597.449219 179.488281 594.496094 176.832031 591.539062 C 176.449219 591.113281 176.070312 590.695312 175.691406 590.269531 C 174.46875 588.917969 172.167969 588.617188 170.792969 589.925781 C 169.449219 591.203125 169.152344 593.375 170.449219 594.820312 "/>
<path style=" stroke:none;fill-rule:nonzero;fill:rgb(91.369629%,78.42865%,76.469421%);fill-opacity:1;" d="M 164.199219 671.945312 C 166.851562 674.902344 169.507812 677.851562 172.167969 680.808594 C 172.546875 681.234375 172.929688 681.65625 173.308594 682.082031 C 174.527344 683.429688 176.832031 683.734375 178.207031 682.421875 C 179.546875 681.144531 179.851562 678.976562 178.546875 677.53125 C 175.890625 674.574219 173.230469 671.621094 170.578125 668.667969 C 170.199219 668.238281 169.8125 667.8125 169.433594 667.394531 C 168.21875 666.046875 165.914062 665.742188 164.542969 667.050781 C 163.191406 668.332031 162.894531 670.5 164.199219 671.945312 "/>
<path style=" stroke:none;fill-rule:nonzero;fill:rgb(91.369629%,78.42865%,76.469421%);fill-opacity:1;" d="M 199.59375 680.117188 C 202.25 683.070312 204.910156 686.023438 207.566406 688.976562 C 207.949219 689.402344 208.328125 689.828125 208.714844 690.253906 C 209.921875 691.601562 212.230469 691.90625 213.605469 690.597656 C 214.949219 689.316406 215.25 687.148438 213.949219 685.703125 C 211.289062 682.746094 208.632812 679.789062 205.980469 676.839844 C 205.59375 676.414062 205.210938 675.988281 204.832031 675.5625 C 203.617188 674.210938 201.308594 673.914062 199.933594 675.226562 C 198.59375 676.496094 198.296875 678.671875 199.59375 680.117188 "/>
<path style=" stroke:none;fill-rule:nonzero;fill:rgb(91.369629%,78.42865%,76.469421%);fill-opacity:1;" d="M -11.152344 670.46875 C -8.496094 673.417969 -5.835938 676.375 -3.179688 679.324219 C -2.800781 679.75 -2.417969 680.175781 -2.039062 680.601562 C -0.816406 681.953125 1.484375 682.253906 2.859375 680.945312 C 4.199219 679.667969 4.496094 677.496094 3.199219 676.050781 C 0.542969 673.09375 -2.109375 670.144531 -4.765625 667.1875 C -5.152344 666.761719 -5.535156 666.34375 -5.914062 665.910156 C -7.128906 664.566406 -9.4375 664.261719 -10.804688 665.566406 C -12.152344 666.851562 -12.449219 669.019531 -11.152344 670.46875 "/>
<path style=" stroke:none;fill-rule:nonzero;fill:rgb(91.369629%,78.42865%,76.469421%);fill-opacity:1;" d="M 200.417969 530.746094 C 203.078125 533.703125 205.734375 536.65625 208.394531 539.613281 C 208.773438 540.039062 209.152344 540.464844 209.539062 540.890625 C 210.746094 542.234375 213.058594 542.535156 214.429688 541.230469 C 215.773438 539.949219 216.078125 537.777344 214.773438 536.332031 C 212.113281 533.382812 209.457031 530.425781 206.804688 527.46875 C 206.417969 527.050781 206.039062 526.621094 205.65625 526.195312 C 204.445312 524.847656 202.132812 524.542969 200.761719 525.855469 C 199.417969 527.132812 199.121094 529.300781 200.417969 530.746094 "/>
<path style=" stroke:none;fill-rule:nonzero;fill:rgb(91.369629%,78.42865%,76.469421%);fill-opacity:1;" d="M 101.25 438.398438 C 103.902344 441.351562 106.5625 444.308594 109.21875 447.257812 C 109.601562 447.683594 109.980469 448.109375 110.367188 448.535156 C 111.582031 449.882812 113.882812 450.1875 115.257812 448.878906 C 116.601562 447.597656 116.902344 445.425781 115.601562 443.976562 C 112.949219 441.027344 110.289062 438.078125 107.632812 435.121094 C 107.25 434.695312 106.863281 434.269531 106.484375 433.84375 C 105.269531 432.5 102.96875 432.195312 101.59375 433.5 C 100.25 434.777344 99.949219 436.953125 101.25 438.398438 "/>
<path style=" stroke:none;fill-rule:nonzero;fill:rgb(91.369629%,78.42865%,76.469421%);fill-opacity:1;" d="M 129.257812 411.222656 C 131.914062 414.179688 134.574219 417.128906 137.230469 420.085938 C 137.613281 420.511719 137.992188 420.9375 138.378906 421.355469 C 139.59375 422.707031 141.894531 423.011719 143.269531 421.699219 C 144.613281 420.421875 144.914062 418.253906 143.613281 416.804688 C 140.953125 413.847656 138.296875 410.898438 135.644531 407.941406 C 135.265625 407.523438 134.878906 407.097656 134.496094 406.671875 C 133.285156 405.320312 130.980469 405.019531 129.601562 406.328125 C 128.257812 407.605469 127.960938 409.777344 129.257812 411.222656 "/>
<path style=" stroke:none;fill-rule:nonzero;fill:rgb(91.369629%,78.42865%,76.469421%);fill-opacity:1;" d="M 202.941406 461.144531 C 205.59375 464.09375 208.25 467.050781 210.910156 470 C 211.289062 470.425781 211.675781 470.851562 212.058594 471.277344 C 213.269531 472.628906 215.574219 472.929688 216.949219 471.621094 C 218.296875 470.34375 218.59375 468.171875 217.289062 466.726562 C 214.636719 463.769531 211.980469 460.8125 209.320312 457.863281 C 208.941406 457.4375 208.554688 457.011719 208.171875 456.585938 C 206.960938 455.238281 204.65625 454.941406 203.28125 456.242188 C 201.933594 457.523438 201.636719 459.699219 202.941406 461.144531 "/>
<path style=" stroke:none;fill-rule:nonzero;fill:rgb(91.369629%,78.42865%,76.469421%);fill-opacity:1;" d="M 33.773438 594.496094 C 36.433594 597.449219 39.089844 600.402344 41.75 603.355469 C 42.128906 603.78125 42.511719 604.207031 42.890625 604.632812 C 44.109375 605.980469 46.414062 606.285156 47.789062 604.976562 C 49.128906 603.695312 49.433594 601.527344 48.128906 600.082031 C 45.472656 597.125 42.8125 594.167969 40.160156 591.21875 C 39.773438 590.792969 39.394531 590.367188 39.011719 589.941406 C 37.800781 588.589844 35.492188 588.292969 34.117188 589.597656 C 32.773438 590.882812 32.476562 593.050781 33.773438 594.496094 "/>
<path style=" stroke:none;fill-rule:nonzero;fill:rgb(91.369629%,78.42865%,76.469421%);fill-opacity:1;" d="M 128.613281 600.199219 C 131.265625 603.148438 133.921875 606.105469 136.582031 609.0625 C 136.960938 609.480469 137.339844 609.90625 137.730469 610.332031 C 138.941406 611.683594 141.246094 611.984375 142.617188 610.675781 C 143.960938 609.398438 144.265625 607.226562 142.960938 605.78125 C 140.304688 602.824219 137.652344 599.875 134.992188 596.917969 C 134.613281 596.492188 134.226562 596.066406 133.84375 595.640625 C 132.632812 594.296875 130.328125 593.992188 128.953125 595.296875 C 127.605469 596.574219 127.308594 598.75 128.613281 600.199219 "/>
<path style=" stroke:none;fill-rule:nonzero;fill:rgb(91.369629%,78.42865%,76.469421%);fill-opacity:1;" d="M 303.390625 474.578125 C 306.050781 477.527344 308.703125 480.476562 311.359375 483.433594 C 311.746094 483.859375 312.128906 484.285156 312.507812 484.710938 C 313.71875 486.054688 316.023438 486.359375 317.40625 485.054688 C 318.746094 483.777344 319.042969 481.601562 317.746094 480.15625 C 315.089844 477.203125 312.429688 474.25 309.773438 471.296875 C 309.390625 470.871094 309.003906 470.445312 308.625 470.019531 C 307.410156 468.671875 305.109375 468.375 303.734375 469.675781 C 302.390625 470.957031 302.089844 473.132812 303.390625 474.578125 "/>
<path style=" stroke:none;fill-rule:nonzero;fill:rgb(91.369629%,78.42865%,76.469421%);fill-opacity:1;" d="M 247.953125 750.382812 C 250.613281 753.332031 253.269531 756.289062 255.925781 759.246094 C 256.308594 759.664062 256.6875 760.089844 257.070312 760.515625 C 258.28125 761.867188 260.59375 762.167969 261.964844 760.859375 C 263.308594 759.582031 263.605469 757.410156 262.308594 755.964844 C 259.648438 753.007812 256.992188 750.058594 254.339844 747.101562 C 253.953125 746.675781 253.574219 746.25 253.191406 745.832031 C 251.972656 744.480469 249.667969 744.175781 248.296875 745.480469 C 246.953125 746.765625 246.65625 748.933594 247.953125 750.382812 "/>
<path style=" stroke:none;fill-rule:nonzero;fill:rgb(91.369629%,78.42865%,76.469421%);fill-opacity:1;" d="M 126.175781 646.691406 C 128.832031 649.648438 131.488281 652.597656 134.140625 655.554688 C 134.527344 655.980469 134.910156 656.40625 135.289062 656.828125 C 136.503906 658.175781 138.8125 658.480469 140.1875 657.175781 C 141.527344 655.898438 141.824219 653.722656 140.527344 652.273438 C 137.871094 649.324219 135.210938 646.367188 132.5625 643.417969 C 132.175781 642.992188 131.792969 642.566406 131.414062 642.140625 C 130.199219 640.789062 127.890625 640.488281 126.515625 641.796875 C 125.175781 643.074219 124.878906 645.246094 126.175781 646.691406 "/>
<path style=" stroke:none;fill-rule:nonzero;fill:rgb(91.369629%,78.42865%,76.469421%);fill-opacity:1;" d="M 67.347656 666.207031 C 70.007812 669.164062 72.660156 672.113281 75.316406 675.070312 C 75.695312 675.496094 76.085938 675.921875 76.464844 676.347656 C 77.675781 677.691406 79.980469 677.996094 81.355469 676.691406 C 82.703125 675.40625 83 673.238281 81.695312 671.789062 C 79.046875 668.839844 76.386719 665.882812 73.730469 662.925781 C 73.347656 662.507812 72.960938 662.082031 72.582031 661.65625 C 71.367188 660.304688 69.066406 660.003906 67.691406 661.3125 C 66.34375 662.589844 66.046875 664.765625 67.347656 666.207031 "/>
<path style=" stroke:none;fill-rule:nonzero;fill:rgb(91.369629%,78.42865%,76.469421%);fill-opacity:1;" d="M 153.753906 748.695312 C 156.414062 751.648438 159.070312 754.597656 161.722656 757.554688 C 162.109375 757.980469 162.488281 758.40625 162.871094 758.832031 C 164.082031 760.175781 166.394531 760.476562 167.765625 759.175781 C 169.109375 757.890625 169.40625 755.71875 168.101562 754.273438 C 165.449219 751.324219 162.792969 748.367188 160.136719 745.410156 C 159.753906 744.992188 159.375 744.566406 158.988281 744.140625 C 157.773438 742.789062 155.46875 742.484375 154.097656 743.796875 C 152.753906 745.074219 152.457031 747.25 153.753906 748.695312 "/>
<path style=" stroke:none;fill-rule:nonzero;fill:rgb(91.369629%,78.42865%,76.469421%);fill-opacity:1;" d="M 227.445312 504.242188 C 230.09375 507.199219 232.753906 510.148438 235.410156 513.105469 C 235.792969 513.53125 236.179688 513.957031 236.558594 514.382812 C 237.773438 515.726562 240.078125 516.027344 241.449219 514.726562 C 242.796875 513.441406 243.09375 511.269531 241.792969 509.824219 C 239.140625 506.875 236.484375 503.917969 233.824219 500.960938 C 233.445312 500.542969 233.058594 500.117188 232.675781 499.691406 C 231.464844 498.339844 229.160156 498.039062 227.785156 499.347656 C 226.4375 500.625 226.140625 502.796875 227.445312 504.242188 "/>
<path style=" stroke:none;fill-rule:nonzero;fill:rgb(91.369629%,78.42865%,76.469421%);fill-opacity:1;" d="M 267.695312 496.101562 C 270.351562 499.058594 273.011719 502.015625 275.664062 504.964844 C 276.042969 505.390625 276.429688 505.816406 276.8125 506.242188 C 278.023438 507.589844 280.328125 507.894531 281.703125 506.585938 C 283.050781 505.304688 283.347656 503.128906 282.050781 501.683594 C 279.390625 498.734375 276.734375 495.777344 274.074219 492.828125 C 273.695312 492.402344 273.316406 491.976562 272.933594 491.550781 C 271.714844 490.199219 269.410156 489.898438 268.039062 491.207031 C 266.695312 492.484375 266.398438 494.660156 267.695312 496.101562 "/>
<path style=" stroke:none;fill-rule:nonzero;fill:rgb(91.369629%,78.42865%,76.469421%);fill-opacity:1;" d="M 284.332031 707.03125 C 286.992188 709.988281 289.648438 712.9375 292.308594 715.894531 C 292.6875 716.320312 293.070312 716.746094 293.457031 717.171875 C 294.667969 718.515625 296.972656 718.820312 298.347656 717.515625 C 299.695312 716.230469 299.992188 714.0625 298.6875 712.617188 C 296.03125 709.664062 293.378906 706.710938 290.722656 703.753906 C 290.339844 703.332031 289.953125 702.90625 289.574219 702.480469 C 288.359375 701.132812 286.054688 700.828125 284.683594 702.136719 C 283.339844 703.417969 283.035156 705.585938 284.332031 707.03125 "/>
<path style=" stroke:none;fill-rule:nonzero;fill:rgb(91.369629%,78.42865%,76.469421%);fill-opacity:1;" d="M 144.179688 700.894531 C 146.839844 703.84375 149.496094 706.800781 152.148438 709.75 C 152.527344 710.175781 152.914062 710.601562 153.296875 711.027344 C 154.507812 712.378906 156.8125 712.675781 158.1875 711.371094 C 159.535156 710.09375 159.832031 707.917969 158.535156 706.46875 C 155.878906 703.519531 153.21875 700.570312 150.5625 697.613281 C 150.179688 697.1875 149.800781 696.761719 149.414062 696.335938 C 148.199219 694.992188 145.894531 694.6875 144.523438 695.992188 C 143.179688 697.277344 142.878906 699.445312 144.179688 700.894531 "/>
<path style=" stroke:none;fill-rule:nonzero;fill:rgb(91.369629%,78.42865%,76.469421%);fill-opacity:1;" d="M 81.523438 813.265625 C 84.175781 816.222656 86.832031 819.171875 89.492188 822.128906 C 89.871094 822.554688 90.257812 822.976562 90.640625 823.402344 C 91.851562 824.75 94.15625 825.054688 95.527344 823.742188 C 96.871094 822.464844 97.175781 820.296875 95.871094 818.851562 C 93.21875 815.894531 90.5625 812.941406 87.902344 809.988281 C 87.523438 809.558594 87.140625 809.140625 86.753906 808.714844 C 85.542969 807.367188 83.238281 807.0625 81.863281 808.371094 C 80.523438 809.652344 80.21875 811.820312 81.523438 813.265625 "/>
<path style=" stroke:none;fill-rule:nonzero;fill:rgb(91.369629%,78.42865%,76.469421%);fill-opacity:1;" d="M 245.179688 619.027344 C 247.832031 621.980469 250.488281 624.9375 253.148438 627.886719 C 253.527344 628.3125 253.910156 628.738281 254.296875 629.164062 C 255.507812 630.511719 257.8125 630.816406 259.1875 629.507812 C 260.535156 628.226562 260.832031 626.058594 259.527344 624.613281 C 256.871094 621.65625 254.21875 618.707031 251.558594 615.75 C 251.179688 615.324219 250.792969 614.898438 250.410156 614.472656 C 249.199219 613.128906 246.894531 612.824219 245.519531 614.128906 C 244.179688 615.40625 243.875 617.582031 245.179688 619.027344 "/>
<path style=" stroke:none;fill-rule:nonzero;fill:rgb(91.369629%,78.42865%,76.469421%);fill-opacity:1;" d="M 302.964844 515.824219 C 305.625 518.777344 308.28125 521.730469 310.933594 524.679688 C 311.320312 525.113281 311.703125 525.53125 312.082031 525.957031 C 313.292969 527.308594 315.605469 527.609375 316.980469 526.300781 C 318.320312 525.023438 318.617188 522.851562 317.320312 521.40625 C 314.664062 518.449219 312.003906 515.5 309.351562 512.542969 C 308.964844 512.117188 308.585938 511.699219 308.203125 511.269531 C 306.992188 509.921875 304.683594 509.617188 303.308594 510.929688 C 301.964844 512.207031 301.667969 514.375 302.964844 515.824219 "/>
<path style=" stroke:none;fill-rule:nonzero;fill:rgb(91.369629%,78.42865%,76.469421%);fill-opacity:1;" d="M 137.128906 504.492188 C 139.785156 507.449219 142.4375 510.40625 145.097656 513.355469 C 145.476562 513.78125 145.863281 514.207031 146.246094 514.628906 C 147.457031 515.984375 149.761719 516.28125 151.136719 514.976562 C 152.484375 513.699219 152.78125 511.523438 151.476562 510.078125 C 148.824219 507.125 146.167969 504.171875 143.507812 501.21875 C 143.128906 500.792969 142.742188 500.367188 142.359375 499.941406 C 141.148438 498.59375 138.84375 498.289062 137.472656 499.597656 C 136.128906 500.878906 135.824219 503.046875 137.128906 504.492188 "/>
<path style=" stroke:none;fill-rule:nonzero;fill:rgb(91.369629%,78.42865%,76.469421%);fill-opacity:1;" d="M 287.035156 749.40625 C 289.6875 752.355469 292.347656 755.3125 295.003906 758.265625 C 295.386719 758.691406 295.773438 759.117188 296.152344 759.542969 C 297.367188 760.890625 299.667969 761.1875 301.042969 759.882812 C 302.386719 758.605469 302.6875 756.429688 301.386719 754.984375 C 298.726562 752.035156 296.070312 749.078125 293.417969 746.128906 C 293.035156 745.703125 292.648438 745.273438 292.269531 744.847656 C 291.054688 743.5 288.753906 743.203125 287.378906 744.507812 C 286.03125 745.785156 285.734375 747.960938 287.035156 749.40625 "/>
<path style=" stroke:none;fill-rule:nonzero;fill:rgb(91.369629%,78.42865%,76.469421%);fill-opacity:1;" d="M 204.855469 641.570312 C 207.515625 644.527344 210.171875 647.480469 212.824219 650.433594 C 213.210938 650.863281 213.59375 651.28125 213.972656 651.707031 C 215.191406 653.054688 217.496094 653.359375 218.871094 652.050781 C 220.210938 650.769531 220.507812 648.601562 219.210938 647.15625 C 216.554688 644.199219 213.894531 641.25 211.238281 638.292969 C 210.855469 637.871094 210.476562 637.445312 210.097656 637.019531 C 208.882812 635.671875 206.578125 635.367188 205.199219 636.679688 C 203.855469 637.957031 203.558594 640.125 204.855469 641.570312 "/>
<path style=" stroke:none;fill-rule:nonzero;fill:rgb(91.369629%,78.42865%,76.469421%);fill-opacity:1;" d="M 260.628906 581.019531 C 263.289062 583.96875 265.945312 586.925781 268.605469 589.882812 C 268.984375 590.300781 269.367188 590.726562 269.746094 591.152344 C 270.960938 592.503906 273.269531 592.804688 274.644531 591.496094 C 275.984375 590.21875 276.28125 588.046875 274.984375 586.601562 C 272.328125 583.644531 269.667969 580.695312 267.019531 577.738281 C 266.628906 577.3125 266.25 576.894531 265.863281 576.464844 C 264.648438 575.117188 262.347656 574.8125 260.972656 576.117188 C 259.628906 577.402344 259.328125 579.570312 260.628906 581.019531 "/>
<path style=" stroke:none;fill-rule:nonzero;fill:rgb(91.369629%,78.42865%,76.469421%);fill-opacity:1;" d="M 183.566406 788.835938 C 186.226562 791.789062 188.882812 794.746094 191.542969 797.695312 C 191.921875 798.121094 192.300781 798.546875 192.691406 798.972656 C 193.894531 800.324219 196.207031 800.625 197.578125 799.316406 C 198.921875 798.035156 199.226562 795.867188 197.921875 794.421875 C 195.265625 791.464844 192.613281 788.515625 189.953125 785.558594 C 189.566406 785.132812 189.1875 784.710938 188.804688 784.28125 C 187.59375 782.9375 185.28125 782.632812 183.910156 783.9375 C 182.566406 785.222656 182.269531 787.390625 183.566406 788.835938 "/>
<path style=" stroke:none;fill-rule:nonzero;fill:rgb(91.369629%,78.42865%,76.469421%);fill-opacity:1;" d="M 128.089844 466.183594 C 130.742188 469.140625 133.398438 472.09375 136.058594 475.046875 C 136.4375 475.476562 136.820312 475.894531 137.207031 476.320312 C 138.417969 477.667969 140.722656 477.972656 142.097656 476.664062 C 143.4375 475.382812 143.742188 473.214844 142.4375 471.769531 C 139.785156 468.8125 137.128906 465.863281 134.472656 462.90625 C 134.089844 462.480469 133.703125 462.054688 133.324219 461.632812 C 132.109375 460.285156 129.804688 459.980469 128.433594 461.292969 C 127.082031 462.570312 126.785156 464.738281 128.089844 466.183594 "/>
<path style=" stroke:none;fill-rule:nonzero;fill:rgb(91.369629%,78.42865%,76.469421%);fill-opacity:1;" d="M 250.152344 695.417969 C 252.804688 698.367188 255.464844 701.324219 258.121094 704.277344 C 258.5 704.703125 258.882812 705.128906 259.261719 705.546875 C 260.484375 706.902344 262.785156 707.199219 264.160156 705.890625 C 265.5 704.609375 265.796875 702.441406 264.5 700.996094 C 261.84375 698.046875 259.1875 695.089844 256.535156 692.132812 C 256.152344 691.710938 255.765625 691.285156 255.386719 690.859375 C 254.171875 689.511719 251.871094 689.207031 250.496094 690.519531 C 249.148438 691.796875 248.851562 693.972656 250.152344 695.417969 "/>
<path style=" stroke:none;fill-rule:nonzero;fill:rgb(91.369629%,78.42865%,76.469421%);fill-opacity:1;" d="M 176.800781 493.027344 C 179.449219 495.984375 182.109375 498.933594 184.765625 501.886719 C 185.148438 502.3125 185.527344 502.738281 185.910156 503.164062 C 187.128906 504.511719 189.429688 504.816406 190.804688 503.503906 C 192.148438 502.226562 192.445312 500.058594 191.148438 498.613281 C 188.488281 495.65625 185.832031 492.703125 183.179688 489.75 C 182.800781 489.320312 182.414062 488.902344 182.03125 488.476562 C 180.820312 487.128906 178.515625 486.824219 177.140625 488.132812 C 175.792969 489.414062 175.496094 491.582031 176.800781 493.027344 "/>
<path style=" stroke:none;fill-rule:nonzero;fill:rgb(91.369629%,78.42865%,76.469421%);fill-opacity:1;" d="M 183.753906 562.527344 C 186.414062 565.480469 189.070312 568.4375 191.726562 571.386719 C 192.109375 571.8125 192.488281 572.238281 192.871094 572.664062 C 194.082031 574.011719 196.394531 574.3125 197.765625 573.007812 C 199.109375 571.726562 199.40625 569.554688 198.109375 568.105469 C 195.449219 565.15625 192.792969 562.199219 190.140625 559.25 C 189.753906 558.824219 189.375 558.398438 188.992188 557.972656 C 187.78125 556.621094 185.476562 556.324219 184.097656 557.628906 C 182.753906 558.90625 182.457031 561.082031 183.753906 562.527344 "/>
<path style=" stroke:none;fill-rule:nonzero;fill:rgb(91.369629%,78.42865%,76.469421%);fill-opacity:1;" d="M 206.96875 761.246094 C 209.625 764.203125 212.28125 767.152344 214.933594 770.109375 C 215.320312 770.535156 215.703125 770.957031 216.082031 771.382812 C 217.296875 772.730469 219.605469 773.035156 220.980469 771.722656 C 222.320312 770.445312 222.617188 768.277344 221.320312 766.832031 C 218.664062 763.875 216.003906 760.921875 213.355469 757.96875 C 212.964844 757.539062 212.585938 757.121094 212.207031 756.695312 C 210.992188 755.347656 208.683594 755.042969 207.308594 756.351562 C 205.96875 757.632812 205.671875 759.800781 206.96875 761.246094 "/>
<path style=" stroke:none;fill-rule:nonzero;fill:rgb(91.369629%,78.42865%,76.469421%);fill-opacity:1;" d="M 65.121094 557.660156 C 67.78125 560.617188 70.4375 563.570312 73.097656 566.523438 C 73.476562 566.945312 73.859375 567.371094 74.246094 567.796875 C 75.457031 569.144531 77.761719 569.449219 79.136719 568.140625 C 80.476562 566.859375 80.78125 564.691406 79.476562 563.246094 C 76.820312 560.289062 74.160156 557.339844 71.511719 554.382812 C 71.128906 553.957031 70.742188 553.53125 70.363281 553.109375 C 69.148438 551.761719 66.84375 551.457031 65.472656 552.769531 C 64.121094 554.046875 63.828125 556.214844 65.121094 557.660156 "/>
<path style=" stroke:none;fill-rule:nonzero;fill:rgb(91.369629%,78.42865%,76.469421%);fill-opacity:1;" d="M 92.75 495.3125 C 95.40625 498.269531 98.066406 501.21875 100.722656 504.175781 C 101.101562 504.601562 101.484375 505.023438 101.863281 505.449219 C 103.078125 506.796875 105.386719 507.101562 106.761719 505.789062 C 108.101562 504.511719 108.40625 502.34375 107.101562 500.898438 C 104.445312 497.941406 101.789062 494.992188 99.136719 492.035156 C 98.75 491.609375 98.367188 491.179688 97.988281 490.761719 C 96.773438 489.414062 94.472656 489.109375 93.089844 490.417969 C 91.75 491.699219 91.453125 493.867188 92.75 495.3125 "/>
<path style=" stroke:none;fill-rule:nonzero;fill:rgb(91.369629%,78.42865%,76.469421%);fill-opacity:1;" d="M 161.359375 449.425781 C 164.019531 452.375 166.671875 455.332031 169.328125 458.285156 C 169.714844 458.710938 170.097656 459.136719 170.476562 459.5625 C 171.691406 460.910156 173.992188 461.214844 175.367188 459.902344 C 176.714844 458.625 177.011719 456.449219 175.710938 455.011719 C 173.058594 452.054688 170.398438 449.097656 167.742188 446.148438 C 167.359375 445.722656 166.980469 445.292969 166.59375 444.867188 C 165.378906 443.519531 163.078125 443.214844 161.703125 444.527344 C 160.359375 445.804688 160.058594 447.980469 161.359375 449.425781 "/>
<path style=" stroke:none;fill-rule:nonzero;fill:rgb(91.369629%,78.42865%,76.469421%);fill-opacity:1;" d="M 116.175781 557.914062 C 118.824219 560.863281 121.484375 563.820312 124.140625 566.777344 C 124.523438 567.195312 124.902344 567.621094 125.289062 568.046875 C 126.503906 569.398438 128.804688 569.703125 130.179688 568.390625 C 131.523438 567.113281 131.824219 564.945312 130.523438 563.496094 C 127.863281 560.539062 125.210938 557.585938 122.554688 554.632812 C 122.175781 554.207031 121.785156 553.78125 121.40625 553.363281 C 120.195312 552.007812 117.890625 551.710938 116.515625 553.011719 C 115.167969 554.292969 114.871094 556.46875 116.175781 557.914062 "/>
<path style=" stroke:none;fill-rule:nonzero;fill:rgb(91.369629%,78.42865%,76.469421%);fill-opacity:1;" d="M 322.992188 735.945312 C 325.648438 738.898438 328.308594 741.855469 330.964844 744.804688 C 331.347656 745.230469 331.726562 745.65625 332.113281 746.082031 C 333.320312 747.429688 335.628906 747.734375 337.003906 746.425781 C 338.347656 745.144531 338.648438 742.96875 337.347656 741.523438 C 334.6875 738.574219 332.035156 735.625 329.378906 732.667969 C 328.992188 732.242188 328.609375 731.816406 328.230469 731.390625 C 327.015625 730.039062 324.707031 729.738281 323.332031 731.046875 C 321.992188 732.324219 321.695312 734.5 322.992188 735.945312 "/>
<path style=" stroke:none;fill-rule:nonzero;fill:rgb(91.369629%,78.42865%,76.469421%);fill-opacity:1;" d="M 79.070312 587.597656 C 81.730469 590.554688 84.382812 593.503906 87.039062 596.460938 C 87.417969 596.886719 87.808594 597.3125 88.1875 597.730469 C 89.398438 599.085938 91.703125 599.382812 93.078125 598.082031 C 94.425781 596.800781 94.722656 594.625 93.417969 593.179688 C 90.769531 590.230469 88.109375 587.273438 85.453125 584.316406 C 85.070312 583.898438 84.691406 583.472656 84.304688 583.046875 C 83.089844 581.695312 80.789062 581.390625 79.414062 582.703125 C 78.070312 583.980469 77.769531 586.148438 79.070312 587.597656 "/>
<path style=" stroke:none;fill-rule:nonzero;fill:rgb(91.369629%,78.42865%,76.469421%);fill-opacity:1;" d="M 20.097656 679.027344 C 22.753906 681.976562 25.414062 684.933594 28.070312 687.882812 C 28.453125 688.3125 28.832031 688.738281 29.214844 689.164062 C 30.425781 690.511719 32.734375 690.808594 34.109375 689.503906 C 35.453125 688.226562 35.75 686.050781 34.453125 684.605469 C 31.792969 681.65625 29.136719 678.699219 26.476562 675.746094 C 26.097656 675.320312 25.71875 674.894531 25.335938 674.46875 C 24.125 673.121094 21.8125 672.824219 20.441406 674.128906 C 19.097656 675.40625 18.800781 677.582031 20.097656 679.027344 "/>
<path style=" stroke:none;fill-rule:nonzero;fill:rgb(91.369629%,78.42865%,76.469421%);fill-opacity:1;" d="M 148.46875 543.324219 C 151.128906 546.28125 153.785156 549.230469 156.445312 552.1875 C 156.824219 552.613281 157.207031 553.03125 157.59375 553.457031 C 158.800781 554.808594 161.109375 555.113281 162.484375 553.800781 C 163.824219 552.523438 164.128906 550.355469 162.824219 548.90625 C 160.167969 545.949219 157.507812 543 154.859375 540.042969 C 154.46875 539.617188 154.089844 539.199219 153.710938 538.773438 C 152.496094 537.421875 150.191406 537.121094 148.8125 538.429688 C 147.46875 539.707031 147.175781 541.878906 148.46875 543.324219 "/>
<path style=" stroke:none;fill-rule:nonzero;fill:rgb(91.369629%,78.42865%,76.469421%);fill-opacity:1;" d="M 57.644531 632.378906 C 60.304688 635.335938 62.960938 638.292969 65.621094 641.242188 C 66 641.667969 66.382812 642.09375 66.761719 642.519531 C 67.972656 643.871094 70.285156 644.171875 71.660156 642.863281 C 73 641.585938 73.296875 639.410156 72 637.964844 C 69.34375 635.011719 66.683594 632.054688 64.03125 629.105469 C 63.644531 628.679688 63.265625 628.253906 62.882812 627.828125 C 61.671875 626.480469 59.363281 626.175781 57.988281 627.484375 C 56.644531 628.765625 56.347656 630.933594 57.644531 632.378906 "/>
</g>
</svg>
