<?xml version="1.0" encoding="UTF-8"?>
<svg xmlns="http://www.w3.org/2000/svg" xmlns:xlink="http://www.w3.org/1999/xlink" width="375pt" height="374.999991pt" viewBox="0 0 375 374.999991" version="1.2">
<defs>
<clipPath id="clip1">
  <path d="M 0 0 L 238 0 L 238 107 L 0 107 Z M 0 0 "/>
</clipPath>
<clipPath id="clip2">
  <path d="M 119.242188 -135.597656 L 239.09375 44.101562 L 60.640625 163.117188 L -59.210938 -16.582031 Z M 119.242188 -135.597656 "/>
</clipPath>
<clipPath id="clip3">
  <path d="M 119.242188 -135.597656 L 239.09375 44.101562 L 60.640625 163.117188 L -59.210938 -16.582031 Z M 119.242188 -135.597656 "/>
</clipPath>
<clipPath id="clip4">
  <path d="M 0 0 L 127 0 L 127 77 L 0 77 Z M 0 0 "/>
</clipPath>
<clipPath id="clip5">
  <path d="M -73.089844 46.285156 L 116.21875 -31.714844 L 148.21875 45.949219 L -41.089844 123.953125 Z M -73.089844 46.285156 "/>
</clipPath>
<clipPath id="clip6">
  <path d="M -73.089844 46.285156 L 116.21875 -31.714844 L 148.21875 45.949219 L -41.089844 123.953125 Z M -73.089844 46.285156 "/>
</clipPath>
<clipPath id="clip7">
  <path d="M 127 0 L 337.476562 0 L 337.476562 182.046875 L 127 182.046875 Z M 127 0 "/>
</clipPath>
<clipPath id="clip8">
  <path d="M 145 0 L 364 0 L 364 156 L 145 156 Z M 145 0 "/>
</clipPath>
<clipPath id="clip9">
  <path d="M 106.820312 -11.597656 L 333.335938 -105.617188 L 409.527344 77.949219 L 183.011719 171.96875 Z M 106.820312 -11.597656 "/>
</clipPath>
<clipPath id="clip10">
  <path d="M 106.820312 -11.597656 L 333.335938 -105.617188 L 409.527344 77.949219 L 183.011719 171.96875 Z M 106.820312 -11.597656 "/>
</clipPath>
</defs>
<g id="surface1">
<g clip-path="url(#clip1)" clip-rule="nonzero">
<g clip-path="url(#clip2)" clip-rule="nonzero">
<g clip-path="url(#clip3)" clip-rule="nonzero">
<path style=" stroke:none;fill-rule:nonzero;fill:rgb(14.898682%,38.038635%,31.369019%);fill-opacity:1;" d="M -5.375 62.742188 L -8.953125 56.90625 C -10.136719 54.902344 -11.355469 53.078125 -12.535156 51.074219 L -12.609375 50.964844 L -13.46875 49.675781 L -16.832031 44.164062 C -18.015625 42.15625 -19.125 40.261719 -20.234375 38.363281 C -22.3125 34.785156 -24.460938 31.097656 -26.71875 27.480469 C -28.257812 24.9375 -29.796875 22.398438 -31.339844 19.855469 L -33.164062 16.882812 C -34.5625 14.554688 -35.957031 12.230469 -37.355469 9.902344 C -38.75 7.574219 -40.003906 5.464844 -41.328125 3.242188 C -42.367188 1.453125 -43.585938 -0.371094 -44.730469 -2.089844 C -45.878906 -3.808594 -46.882812 -5.3125 -48.027344 -7.03125 C -49.171875 -8.75 -50.140625 -10.433594 -51.285156 -12.148438 L -52.824219 -14.691406 C -52.96875 -14.90625 -53.183594 -15.230469 -53.328125 -15.445312 L -53.398438 -15.550781 C -53.757812 -16.089844 -54.042969 -16.519531 -54.332031 -16.945312 C -54.546875 -17.269531 -54.6875 -17.484375 -54.902344 -17.804688 C -55.117188 -18.59375 -54.867188 -19.382812 -54.222656 -19.8125 C -53.398438 -20.207031 -52.433594 -20.386719 -51.5 -20.386719 C -50.570312 -20.386719 -49.816406 -20.421875 -48.886719 -20.421875 C -45.628906 -20.421875 -42.40625 -20.246094 -39.144531 -20.246094 C -38.394531 -20.28125 -37.640625 -20.320312 -36.78125 -20.425781 C -36.386719 -20.535156 -36.101562 -20.570312 -35.707031 -20.679688 C -35.3125 -20.785156 -34.8125 -20.964844 -34.488281 -21.179688 C -34.167969 -21.394531 -33.558594 -21.644531 -33.128906 -21.933594 C -32.484375 -22.363281 -31.734375 -22.863281 -31.160156 -23.402344 C -29.582031 -24.761719 -28.117188 -26.050781 -26.574219 -27.234375 C -24.929688 -28.488281 -23.03125 -29.597656 -21.167969 -30.53125 C -19.378906 -31.570312 -17.371094 -32.285156 -15.367188 -33.003906 C -13.324219 -33.433594 -11.425781 -33.613281 -9.386719 -33.578125 C -7.628906 -33.507812 -6.089844 -33.292969 -4.40625 -32.863281 C -2.722656 -32.433594 -1.042969 -32.003906 0.535156 -31.503906 L 0.355469 -31.539062 C 2.398438 -31.039062 4.367188 -30.644531 6.371094 -30.433594 C 7.554688 -30.289062 8.734375 -30.148438 9.953125 -30.183594 C 10.417969 -30.183594 10.992188 -30.253906 11.457031 -30.253906 C 12.425781 -30.433594 13.5 -30.683594 14.324219 -31.078125 C 14.929688 -31.332031 15.46875 -31.6875 16.003906 -32.046875 C 16.542969 -32.40625 17.078125 -32.761719 17.617188 -33.121094 C 17.832031 -33.265625 18.15625 -33.480469 18.40625 -33.800781 C 18.976562 -34.339844 19.40625 -35.09375 19.980469 -35.628906 C 20.554688 -36.167969 21.199219 -37.0625 21.914062 -37.851562 C 23.238281 -39.355469 24.816406 -40.714844 26.605469 -41.753906 C 28.398438 -42.792969 30.222656 -43.546875 32.191406 -44.085938 C 33.160156 -44.261719 34.234375 -44.515625 35.273438 -44.585938 C 36.3125 -44.660156 37.242188 -44.660156 38.28125 -44.730469 C 40.824219 -44.875 43.292969 -44.660156 45.800781 -44.160156 C 47.054688 -43.910156 48.199219 -43.589844 49.453125 -43.339844 C 50.707031 -43.089844 51.710938 -42.980469 52.894531 -42.839844 C 53.539062 -42.800781 54.183594 -42.765625 54.933594 -42.804688 C 55.398438 -42.804688 55.972656 -42.875 56.546875 -42.945312 C 57.011719 -42.945312 57.511719 -43.125 58.015625 -43.304688 C 58.515625 -43.484375 59.015625 -43.664062 59.519531 -43.84375 C 60.019531 -44.023438 60.234375 -44.164062 60.449219 -44.308594 C 60.664062 -44.453125 61.199219 -44.8125 61.523438 -45.027344 C 61.847656 -45.242188 61.988281 -45.492188 62.203125 -45.632812 C 62.417969 -45.777344 62.5625 -46.027344 62.8125 -46.351562 C 63.0625 -46.671875 63.207031 -46.925781 63.386719 -47.355469 C 64.351562 -49.394531 64.925781 -51.328125 66 -52.976562 C 67.074219 -54.625 68.398438 -56.128906 70.046875 -57.382812 C 71.695312 -58.636719 73.554688 -59.566406 75.5625 -60.285156 C 77.566406 -61 79.535156 -61.539062 81.542969 -61.789062 C 82.796875 -62.003906 84.191406 -62.007812 85.519531 -62.113281 C 86.914062 -62.113281 88.382812 -62.007812 89.742188 -61.828125 C 91.175781 -61.542969 92.5 -61.1875 93.828125 -60.828125 C 95.042969 -60.398438 96.191406 -60.078125 97.441406 -59.828125 C 98.519531 -59.613281 99.59375 -59.398438 100.773438 -59.253906 C 101.488281 -59.113281 102.242188 -59.148438 102.886719 -59.113281 C 103.460938 -59.183594 103.925781 -59.183594 104.5 -59.257812 C 104.964844 -59.257812 105.464844 -59.4375 105.859375 -59.542969 C 106.253906 -59.652344 106.648438 -59.757812 107.078125 -60.046875 C 107.507812 -60.332031 107.613281 -60.402344 107.902344 -60.4375 C 108.1875 -60.476562 108.4375 -60.796875 108.761719 -61.011719 C 109.082031 -61.226562 109.117188 -61.40625 109.332031 -61.550781 C 109.546875 -61.691406 109.796875 -62.015625 109.941406 -62.265625 C 110.480469 -63.089844 110.980469 -63.734375 111.519531 -64.558594 C 112.054688 -65.382812 112.59375 -66.207031 113.128906 -67.03125 L 113.238281 -67.101562 C 113.773438 -68.390625 114.382812 -69.574219 115.097656 -70.824219 C 115.492188 -71.398438 115.992188 -72.042969 116.386719 -72.617188 C 116.855469 -73.082031 117.320312 -73.546875 117.785156 -74.015625 C 118.894531 -74.910156 120.003906 -75.804688 121.257812 -76.484375 C 122.796875 -77.203125 124.230469 -77.847656 125.878906 -78.171875 C 126.882812 -78.527344 128.0625 -78.851562 129.207031 -78.996094 L 129.386719 -78.960938 C 129.601562 -79.101562 129.710938 -79.175781 129.996094 -79.210938 C 132.863281 -79.570312 135.761719 -79.640625 138.699219 -79.429688 C 141.3125 -79 144.359375 -78.855469 147.257812 -78.464844 C 147.617188 -78.394531 147.796875 -78.355469 148.152344 -78.285156 C 148.511719 -78.214844 148.761719 -78.070312 149.011719 -77.929688 C 149.480469 -77.929688 149.800781 -77.675781 150.125 -77.425781 C 150.589844 -76.960938 151.019531 -76.316406 151.554688 -75.746094 L 153.097656 -74.132812 C 154.097656 -73.09375 154.992188 -71.984375 155.890625 -70.875 C 157.824219 -68.441406 159.613281 -65.757812 161.441406 -63.25 C 163.265625 -60.746094 165.238281 -58.023438 167.242188 -55.484375 L 167.097656 -55.699219 C 171.289062 -50.578125 175.371094 -45.386719 179.277344 -40.234375 C 181.316406 -37.40625 183.429688 -34.933594 185.433594 -32.394531 C 187.441406 -29.851562 189.445312 -27.308594 191.34375 -24.695312 C 193.242188 -22.082031 195.140625 -19.46875 196.824219 -16.714844 C 198.507812 -13.957031 200.261719 -11.09375 202.050781 -8.410156 C 203.878906 -5.4375 206.097656 -2.574219 208.140625 0.253906 C 209.894531 2.652344 211.722656 5.160156 213.371094 7.628906 C 214.371094 9.132812 215.304688 10.527344 216.304688 12.03125 C 217.308594 13.535156 218.277344 14.753906 219.207031 16.148438 C 221.175781 18.871094 223.074219 21.484375 224.9375 24.277344 C 226.800781 27.066406 228.804688 29.609375 230.703125 32.222656 L 233.53125 36.234375 C 234.464844 37.628906 235.503906 38.953125 236.433594 40.347656 C 236.898438 40.816406 237.222656 41.53125 237.363281 42.210938 C 237.398438 42.496094 237.328125 42.855469 237.292969 43.035156 C 237.4375 43.25 237.398438 43.429688 237.4375 43.714844 C 237.613281 44.679688 236.898438 45.46875 235.933594 45.648438 C 233.460938 45.902344 231.027344 45.972656 228.484375 46.117188 C 226.40625 46.261719 224.222656 46.476562 222.109375 46.800781 C 221.429688 46.941406 220.570312 47.050781 219.851562 47.375 C 219.242188 47.625 218.632812 47.875 218.0625 47.945312 C 217.34375 48.269531 216.523438 48.664062 215.769531 49.164062 C 215.445312 49.378906 215.125 49.59375 214.800781 49.808594 C 214.335938 50.277344 213.90625 50.5625 213.441406 51.027344 C 212.832031 51.746094 212.332031 52.390625 211.722656 53.105469 C 211.4375 53.605469 211.042969 54.179688 210.757812 54.679688 C 209.859375 56.363281 209.035156 58.15625 207.960938 59.804688 C 207.316406 60.699219 206.671875 61.59375 205.886719 62.273438 C 205.167969 63.0625 204.203125 63.707031 203.34375 64.28125 C 202.484375 64.855469 201.550781 65.320312 200.550781 65.679688 C 199.617188 66.144531 198.617188 66.503906 197.542969 66.753906 C 195.355469 67.433594 193.242188 67.757812 190.988281 67.867188 C 189.125 67.867188 187.476562 67.722656 185.652344 67.546875 C 183.824219 67.367188 181.746094 67.046875 179.742188 66.832031 C 179.203125 66.722656 178.558594 66.6875 177.914062 66.652344 C 177.269531 66.617188 176.625 66.582031 175.875 66.617188 C 174.550781 66.726562 173.332031 66.761719 171.898438 66.941406 C 170.933594 67.121094 169.964844 67.300781 169.070312 67.585938 C 168.175781 67.875 167.28125 68.160156 166.457031 68.554688 C 165.632812 68.949219 165.203125 69.234375 164.484375 69.558594 C 163.769531 69.878906 163.519531 70.203125 162.980469 70.5625 C 162.410156 71.097656 161.765625 71.527344 161.261719 72.171875 C 160.332031 73.105469 159.472656 74.144531 158.613281 75.183594 C 157.644531 76.292969 156.714844 77.222656 155.605469 78.117188 C 154.496094 79.015625 153.277344 79.980469 152.023438 80.664062 C 150.769531 81.34375 149.625 81.953125 148.261719 82.238281 C 147.261719 82.597656 146.292969 82.777344 145.328125 82.957031 C 144.359375 83.136719 143.320312 83.207031 142.28125 83.28125 C 141.171875 83.246094 140.132812 83.316406 138.953125 83.171875 C 137.839844 83.136719 136.730469 83.101562 135.65625 82.886719 C 133.722656 82.78125 131.824219 82.496094 129.710938 82.355469 C 127.597656 82.210938 125.664062 82.105469 123.695312 82.175781 C 123.410156 82.210938 123.050781 82.140625 122.65625 82.25 C 122.011719 82.214844 121.261719 82.25 120.6875 82.320312 C 120.113281 82.394531 119.253906 82.5 118.503906 82.535156 C 117.75 82.574219 116.746094 82.929688 115.78125 83.109375 C 115.171875 83.359375 114.5625 83.613281 114.0625 83.792969 C 113.5625 83.96875 113.023438 84.328125 112.488281 84.6875 C 111.734375 85.1875 110.980469 85.691406 110.300781 86.300781 C 108.871094 87.410156 107.578125 88.734375 106.039062 89.917969 C 104.5 91.097656 102.996094 92.101562 101.242188 92.960938 C 99.34375 94.074219 97.230469 94.863281 95.011719 95.257812 C 93.933594 95.507812 92.898438 95.578125 91.859375 95.652344 C 90.75 95.617188 89.636719 95.582031 88.636719 95.472656 C 84.625 95.046875 80.863281 93.828125 76.851562 93.402344 C 76.027344 93.328125 75.207031 93.257812 74.453125 93.292969 C 73.234375 93.332031 72.089844 93.472656 70.835938 93.691406 C 70.261719 93.761719 69.761719 93.941406 69.261719 94.121094 C 68.757812 94.300781 67.972656 94.515625 67.253906 94.835938 C 66.933594 95.050781 66.539062 95.160156 66.214844 95.375 C 65.785156 95.660156 65.464844 95.875 65.035156 96.164062 C 64.570312 96.628906 64.03125 96.984375 63.675781 97.378906 C 62.3125 99.0625 60.808594 100.53125 59.125 101.964844 C 58.160156 102.609375 57.371094 103.289062 56.332031 103.828125 C 55.472656 104.402344 54.433594 104.9375 53.503906 105.40625 C 53 105.582031 52.5 105.761719 52 105.941406 C 51.320312 106.085938 50.816406 106.265625 50.246094 106.335938 C 49.097656 106.480469 48.058594 106.550781 47.019531 106.625 C 44.800781 106.554688 42.6875 106.410156 40.429688 106.054688 C 37.460938 105.554688 34.628906 104.800781 31.835938 103.871094 C 30.441406 103.40625 29.152344 102.871094 27.753906 102.40625 L 25.496094 101.582031 C 25.066406 101.40625 24.460938 101.191406 23.921875 101.082031 C 23.8125 101.152344 23.636719 101.117188 23.636719 101.117188 C 23.457031 101.082031 23.167969 101.117188 22.917969 100.976562 C 22.453125 100.976562 22.023438 100.796875 21.808594 100.472656 C 21.488281 100.222656 21.199219 99.792969 20.804688 99.4375 L 19.730469 98.292969 C 18.371094 96.714844 17.011719 95.140625 15.683594 93.386719 L 12.03125 88.375 C 10.777344 86.726562 9.523438 85.082031 8.273438 83.433594 C 5.765625 80.140625 3.257812 76.847656 0.785156 73.375 L -0.289062 71.765625 C -1.828125 68.757812 -3.546875 65.714844 -5.375 62.742188 Z M -5.375 62.742188 "/>
</g>
</g>
</g>
<g clip-path="url(#clip4)" clip-rule="nonzero">
<g clip-path="url(#clip5)" clip-rule="nonzero">
<g clip-path="url(#clip6)" clip-rule="nonzero">
<path style=" stroke:none;fill-rule:nonzero;fill:rgb(90.979004%,80.778503%,74.899292%);fill-opacity:1;" d="M -56.128906 40.414062 C -51.3125 38.429688 -46.171875 37.503906 -41.035156 37.886719 C -35.039062 38.238281 -29.167969 37.773438 -23.164062 37.363281 C -15.675781 36.882812 -8.046875 37 -0.515625 36.613281 C 7.90625 36.292969 16.359375 35.523438 24.558594 33.339844 C 30.101562 31.816406 35.570312 30.105469 41.054688 28.171875 C 45.519531 26.65625 49.816406 24.996094 54.128906 23.109375 C 61.789062 19.628906 68.539062 14.457031 73.898438 8.015625 C 79.621094 0.878906 85.34375 -6.257812 90.855469 -13.636719 C 92.835938 -16.1875 94.085938 -19.203125 95.726562 -22.050781 C 96.128906 -22.648438 96.234375 -23.453125 97.316406 -22.921875 C 97.449219 -22.867188 97.726562 -22.980469 97.910156 -23.058594 C 99.246094 -23.5 100.617188 -23.847656 101.976562 -23.972656 C 104.539062 -24.050781 105.9375 -22.238281 106.964844 -20.273438 C 109.132812 -16.0625 109.257812 -11.550781 108.976562 -6.980469 C 108.613281 -1.292969 106.15625 3.519531 103.515625 8.410156 C 102.113281 11.050781 100.617188 13.730469 99.214844 16.371094 C 96.574219 21.261719 95.929688 27.0625 97.609375 32.453125 C 98.941406 36.46875 99.488281 40.691406 99.371094 44.871094 C 98.972656 51.003906 97.476562 56.835938 93.140625 61.554688 C 89.78125 65.21875 86.507812 68.847656 82.355469 71.644531 C 76.652344 75.410156 69.828125 77.242188 62.992188 76.691406 C 57.222656 76.355469 51.523438 75.660156 45.808594 75.191406 C 39.554688 74.730469 33.222656 74.082031 26.949219 73.839844 C 20.378906 73.398438 13.910156 72.152344 7.636719 70.070312 C 0.992188 68.136719 -5.945312 66.542969 -12.605469 64.835938 C -16.277344 64.066406 -20.128906 63.917969 -23.976562 64.304688 C -29.253906 64.636719 -34.445312 64.386719 -39.660156 63.820312 C -44.335938 63.246094 -49.097656 63.253906 -53.773438 62.683594 C -56.941406 62.359375 -60.035156 61.679688 -63.074219 60.867188 C -64.609375 60.304688 -65.898438 59.535156 -67.214844 58.445312 C -68.492188 57.453125 -69.046875 55.835938 -68.675781 54.378906 C -68.09375 51.316406 -66.992188 48.472656 -65.328125 45.941406 C -63.867188 43.710938 -61.550781 42.753906 -59.367188 41.746094 C -58.257812 41.289062 -57.238281 40.871094 -56.128906 40.414062 Z M -55.871094 41.828125 C -57.589844 42.644531 -59.351562 43.367188 -60.9375 44.242188 C -62.105469 44.828125 -63.15625 45.695312 -63.945312 46.671875 C -65.554688 49.074219 -66.695312 51.824219 -67.125 54.71875 C -67.390625 55.914062 -66.988281 57.160156 -65.957031 57.820312 C -64.980469 58.613281 -63.765625 59.199219 -62.585938 59.691406 C -59.585938 60.40625 -56.621094 61.03125 -53.546875 61.394531 C -48.777344 61.929688 -43.886719 61.976562 -39.078125 62.601562 C -34.179688 63.191406 -29.25 63.332031 -24.378906 63.0625 C -20.589844 62.800781 -16.664062 62.597656 -12.917969 63.550781 C -5.71875 65.253906 1.480469 66.957031 8.519531 69.054688 C 14.621094 70.992188 20.960938 72.179688 27.363281 72.476562 C 33.410156 72.699219 39.519531 73.332031 45.550781 73.777344 C 51.582031 74.226562 57.636719 74.988281 63.722656 75.304688 C 70.125 75.601562 76.414062 74.3125 81.503906 70.367188 C 85.265625 67.40625 88.6875 64.148438 91.902344 60.652344 C 95.984375 56.363281 97.371094 50.796875 97.773438 45.203125 C 97.894531 41.023438 97.382812 36.890625 96.054688 32.878906 C 94.3125 27.078125 94.933594 20.960938 97.828125 15.636719 C 99.285156 12.867188 100.835938 10.054688 102.292969 7.285156 C 104.53125 2.996094 106.824219 -1.425781 107.140625 -6.441406 C 107.5 -10.828125 107.449219 -15.152344 105.414062 -19.308594 C 104.042969 -22.109375 102.042969 -23.023438 99.09375 -22.023438 C 98 -21.792969 97.304688 -20.851562 97.316406 -19.773438 C 97.152344 -19.378906 96.859375 -19.039062 96.453125 -18.980469 C 95.964844 -19.105469 95.449219 -18.785156 95.230469 -18.261719 C 93.898438 -15.976562 92.476562 -13.648438 90.882812 -11.472656 C 85.730469 -4.789062 80.488281 1.933594 75.167969 8.46875 C 69.644531 15.304688 62.601562 20.8125 54.570312 24.449219 C 50.203125 26.464844 45.628906 28.242188 41.03125 29.699219 C 35.601562 31.503906 30.082031 33.34375 24.535156 34.867188 C 17.082031 36.746094 9.1875 37.828125 1.171875 38.089844 C -6.484375 38.421875 -14.207031 38.34375 -21.789062 38.863281 C -28.5 39.128906 -35.191406 39.714844 -41.855469 39.308594 C -46.691406 39.132812 -51.425781 39.996094 -55.871094 41.828125 Z M 123.417969 -11.085938 C 123.101562 -11.066406 122.808594 -10.726562 122.4375 -10.574219 C 122.554688 -10.296875 122.800781 -9.964844 123.007812 -9.722656 C 123.382812 -9.335938 123.945312 -9.023438 124.175781 -8.464844 C 124.554688 -7.539062 124.753906 -6.53125 124.726562 -5.542969 C 124.429688 -0.75 124.128906 4.042969 123.699219 8.78125 C 123.445312 11.054688 123.601562 13.273438 124.164062 15.429688 C 125.089844 18.199219 125.328125 21.140625 124.933594 24.128906 C 124.453125 27.691406 123.878906 31.296875 123.214844 34.9375 C 123.003906 36 122.570312 37.046875 122.003906 38.042969 C 120.050781 41.453125 117.078125 41.589844 114.882812 38.367188 C 114.84375 38.277344 114.808594 38.183594 114.808594 38.183594 C 113.179688 35.8125 112.703125 33.078125 112.132812 30.378906 C 110.34375 23.40625 111.1875 16 114.429688 9.667969 C 115.628906 7.328125 116.792969 4.894531 117.730469 2.441406 C 119.199219 -1.09375 120.441406 -4.648438 121.644531 -8.292969 C 121.808594 -8.6875 121.488281 -9.207031 121.386719 -9.707031 C 121.054688 -9.460938 120.460938 -9.324219 120.390625 -8.972656 C 118.160156 -2.296875 115.445312 4.253906 112.300781 10.546875 C 110.300781 14.628906 109.347656 19.148438 109.734375 23.765625 C 110.085938 26.988281 110.53125 30.171875 111.199219 33.371094 C 111.621094 36.238281 113.046875 38.90625 115.097656 40.996094 C 116.605469 42.546875 118.96875 42.765625 120.722656 41.5 C 122.605469 40.292969 123.867188 38.359375 124.382812 36.191406 C 125.164062 32.832031 125.851562 29.503906 126.316406 26.164062 C 126.710938 23.179688 126.972656 20.136719 126.101562 17.238281 C 124.925781 13.597656 125.144531 9.921875 125.550781 6.171875 C 126.007812 2.289062 126.074219 -1.753906 126.175781 -5.707031 C 126.148438 -6.566406 126.082031 -7.515625 125.832031 -8.386719 C 125.085938 -9.929688 124.667969 -10.949219 123.417969 -11.085938 Z M 79.339844 25.429688 C 79.710938 25.277344 79.796875 24.699219 79.996094 24.398438 C 79.511719 24.273438 79.066406 24.238281 78.617188 24.207031 C 78.25 24.359375 77.878906 24.511719 77.546875 24.757812 C 72.832031 27.242188 68.191406 29.914062 63.402344 32.214844 C 53.800781 37.039062 43.535156 40.507812 32.84375 42.414062 C 21.074219 44.332031 9.28125 45.933594 -2.476562 47.628906 C -9.511719 48.683594 -16.640625 48.46875 -23.59375 47.097656 C -27.84375 46.242188 -32.160156 46.285156 -36.457031 46.101562 C -37.445312 46.070312 -38.410156 46.359375 -39.296875 46.835938 C -41.257812 47.859375 -41.230469 50.023438 -39.378906 51.105469 C -38.386719 51.671875 -37.378906 52.015625 -36.351562 52.136719 C -33.632812 52.429688 -30.769531 52.550781 -27.957031 52.804688 C -25.628906 52.933594 -23.210938 53.023438 -20.9375 53.28125 C -16.933594 53.800781 -13.019531 54.363281 -9.070312 55.015625 C -6.273438 55.492188 -3.425781 55.839844 -0.683594 56.445312 C 2.675781 57.234375 6.015625 58.25 9.355469 59.261719 C 11.335938 59.859375 13.257812 60.585938 15.238281 61.183594 C 17.960938 62.015625 20.6875 62.847656 23.429688 63.453125 C 27.457031 64.292969 31.5 64.90625 35.621094 65.707031 C 43.636719 67.292969 51.667969 68.652344 59.914062 67.644531 C 64.761719 67.058594 69.082031 65.710938 72.707031 62.15625 C 75.945312 58.976562 78.414062 55.242188 79.925781 51.035156 C 81.386719 46.957031 83.109375 42.988281 85.09375 39.132812 C 86.679688 36.414062 87.445312 33.273438 87.316406 30.070312 C 87.28125 28.671875 87.0625 27.351562 86.75 26.066406 C 86.132812 24.042969 84.554688 22.84375 82.84375 22.898438 C 82.527344 22.921875 82.179688 23.390625 81.847656 23.636719 C 82.148438 23.835938 82.433594 24.261719 82.785156 24.335938 C 83.867188 24.324219 84.804688 25.023438 85.132812 26.082031 C 85.589844 27.199219 85.773438 28.425781 85.914062 29.5625 C 86.097656 32.636719 85.390625 35.644531 83.894531 38.324219 C 81.761719 42.351562 79.988281 46.449219 78.511719 50.75 C 76.972656 54.640625 74.707031 58.074219 71.667969 60.953125 C 69.445312 63.171875 66.6875 64.632812 63.589844 65.261719 C 57.390625 66.511719 50.957031 66.664062 44.75 65.527344 C 37.480469 64.179688 30.15625 62.960938 22.886719 61.613281 C 20.628906 61.132812 18.429688 60.519531 16.28125 59.773438 C 13.949219 59.105469 11.632812 58.214844 9.300781 57.546875 C 6.3125 56.605469 3.273438 55.792969 0.230469 54.984375 C -2.0625 54.410156 -4.449219 53.871094 -6.855469 53.558594 C -10.320312 53.03125 -13.78125 53.046875 -17.230469 52.296875 C -21.480469 51.441406 -25.855469 51.070312 -30.207031 51.019531 C -32.628906 50.929688 -35.160156 50.5625 -37.511719 50.117188 C -38.21875 49.976562 -39.289062 49.222656 -39.292969 48.679688 C -39.265625 47.691406 -38.082031 47.421875 -37.171875 47.261719 C -36.667969 47.164062 -36.222656 47.199219 -35.683594 47.191406 C -34.511719 47.144531 -33.394531 47.226562 -32.148438 47.363281 C -27.789062 47.957031 -23.464844 48.457031 -19.070312 49.144531 C -12.621094 50.070312 -6.195312 49.378906 0.15625 48.5 C 6.507812 47.617188 12.707031 46.367188 19.003906 45.621094 C 32.585938 44.152344 45.851562 41.398438 58.25 35.746094 C 65.808594 33.066406 72.554688 29.203125 79.339844 25.429688 Z M 79.339844 25.429688 "/>
</g>
</g>
</g>
<g clip-path="url(#clip7)" clip-rule="nonzero">
<path style=" stroke:none;fill-rule:nonzero;fill:rgb(83.529663%,30.979919%,28.62854%);fill-opacity:1;" d="M 337.449219 60.671875 C 337.449219 112.191406 278.53125 182.046875 227.082031 182.046875 C 175.632812 182.046875 127.558594 120.355469 127.558594 68.835938 C 127.558594 17.320312 126.753906 -31.703125 178.203125 -31.703125 C 229.652344 -31.703125 337.449219 9.15625 337.449219 60.671875 Z M 337.449219 60.671875 "/>
</g>
<g clip-path="url(#clip8)" clip-rule="nonzero">
<g clip-path="url(#clip9)" clip-rule="nonzero">
<g clip-path="url(#clip10)" clip-rule="nonzero">
<path style=" stroke:none;fill-rule:nonzero;fill:rgb(86.669922%,68.629456%,58.039856%);fill-opacity:1;" d="M 147.675781 67.738281 C 156.652344 63.046875 164.003906 55.839844 168.917969 46.941406 C 170.941406 43.203125 177.207031 45.722656 175.097656 49.496094 C 169.347656 60.09375 161 68.390625 150.242188 73.917969 C 146.421875 75.890625 143.855469 69.710938 147.675781 67.738281 Z M 238.75 14.671875 C 239.210938 10.425781 232.632812 9.484375 232.089844 13.765625 C 231.253906 21.070312 229.554688 28.148438 226.753906 34.914062 C 224.054688 41.445312 220.398438 50.109375 213.40625 52.820312 C 209.414062 54.382812 211.976562 60.5625 215.96875 59 C 224.035156 55.847656 228.34375 47.585938 231.828125 40.152344 C 235.472656 32.164062 237.769531 23.484375 238.75 14.671875 Z M 246.335938 127.738281 C 242.496094 140.148438 230.027344 145.035156 219.003906 149.222656 C 215.011719 150.785156 217.578125 156.964844 221.570312 155.402344 C 234.273438 150.613281 248.203125 144.347656 252.519531 130.289062 C 253.726562 126.214844 247.625 123.625 246.335938 127.738281 Z M 198.210938 120.082031 C 193.484375 129.191406 182.386719 131.09375 173.1875 132.691406 C 168.9375 133.394531 169.75 140.011719 174 139.308594 C 185.945312 137.34375 198.40625 134.296875 204.394531 122.636719 C 206.382812 118.816406 200.117188 116.296875 198.210938 120.082031 Z M 272.195312 42.621094 C 271.214844 55.390625 264.425781 66.519531 253.535156 73.355469 C 249.933594 75.625 254.046875 80.871094 257.648438 78.605469 C 269.835938 70.9375 277.609375 57.761719 278.738281 43.476562 C 279.199219 39.230469 272.539062 38.324219 272.195312 42.621094 Z M 293.246094 106.140625 C 291.960938 117.492188 279.300781 120.527344 269.953125 121.992188 C 265.703125 122.691406 266.515625 129.3125 270.765625 128.609375 C 283.273438 126.605469 298.148438 121.6875 299.902344 107.046875 C 300.328125 102.71875 293.703125 101.894531 293.246094 106.140625 Z M 259.757812 -21.578125 C 259.902344 -11.6875 256.355469 -2.292969 249.902344 5.214844 C 247.109375 8.5 252.464844 12.554688 255.261719 9.269531 C 262.890625 0.402344 266.675781 -10.734375 266.496094 -22.347656 C 266.324219 -26.71875 259.621094 -25.867188 259.757812 -21.578125 Z M 304.589844 -10.914062 C 305.011719 0.113281 300.070312 10.570312 291.46875 17.328125 C 288.121094 19.972656 292.183594 25.339844 295.582031 22.578125 C 306.136719 14.234375 311.710938 1.585938 311.175781 -11.8125 C 311.039062 -16.105469 304.453125 -15.207031 304.589844 -10.914062 Z M 184.175781 20.128906 C 191.789062 17.742188 195.585938 9.886719 198.347656 3.039062 C 201.582031 -4.773438 203.449219 -13.082031 203.921875 -21.492188 C 204.183594 -25.753906 197.523438 -26.660156 197.265625 -22.398438 C 196.855469 -15.464844 195.582031 -8.753906 193.160156 -2.242188 C 190.980469 3.683594 188.117188 11.925781 181.445312 14.015625 C 177.515625 15.261719 180.082031 21.441406 184.175781 20.128906 Z M 216.179688 -11.992188 C 224.816406 -22.628906 229.972656 -35.585938 230.742188 -49.335938 C 231.003906 -53.597656 224.34375 -54.503906 224.082031 -50.242188 C 223.347656 -37.570312 218.839844 -25.847656 210.824219 -16.046875 C 208.144531 -12.714844 213.46875 -8.742188 216.179688 -11.992188 Z M 356.941406 34.398438 C 354.597656 44.355469 349.804688 53.300781 343.019531 60.945312 C 340.191406 64.148438 345.550781 68.203125 348.375 65 C 355.945312 56.449219 360.972656 46.441406 363.515625 35.339844 C 364.574219 31.132812 357.914062 30.226562 356.941406 34.398438 Z M 307.820312 -54.375 C 317.355469 -65.867188 325.535156 -79.695312 323.746094 -95.183594 C 323.210938 -99.5 316.625 -98.601562 317.125 -94.367188 C 318.757812 -80.648438 310.902344 -68.597656 302.460938 -58.429688 C 299.703125 -55.0625 305.023438 -51.089844 307.820312 -54.375 Z M 172.492188 90.957031 C 168.34375 91.90625 169.15625 98.523438 173.304688 97.574219 C 183.140625 95.425781 191.589844 89.695312 196.921875 81.109375 C 199.179688 77.464844 193.820312 73.410156 191.5625 77.054688 C 187.226562 84.070312 180.625 89.128906 172.492188 90.957031 Z M 234.542969 95.828125 C 230.917969 97.8125 227.296875 99.800781 223.558594 101.738281 C 219.769531 103.792969 222.335938 109.972656 226.125 107.917969 C 229.746094 105.929688 233.367188 103.945312 237.105469 102.007812 C 240.8125 99.988281 238.328125 93.773438 234.542969 95.828125 Z M 352.785156 -37.101562 C 350.214844 -25.121094 346.351562 -13.46875 341.4375 -2.253906 C 339.679688 1.664062 345.863281 4.21875 347.621094 0.300781 C 352.8125 -11.417969 356.71875 -23.664062 359.441406 -36.195312 C 360.417969 -40.367188 353.757812 -41.273438 352.785156 -37.101562 Z M 352.785156 -37.101562 "/>
</g>
</g>
</g>
<path style=" stroke:none;fill-rule:nonzero;fill:rgb(51.368713%,64.309692%,45.098877%);fill-opacity:1;" d="M 352.5625 262.191406 C 377.183594 272.148438 405.425781 265.164062 423.851562 246.046875 C 451.371094 217.375 491.683594 163.96875 475.59375 108.953125 C 451.855469 27.835938 413.472656 33.617188 368.652344 -12.402344 C 323.835938 -58.421875 271.210938 -122.351562 238.300781 -109.578125 C 205.390625 -96.808594 182.941406 -44.125 250.207031 78.191406 C 303.796875 175.613281 304.121094 242.675781 352.5625 262.191406 Z M 352.5625 262.191406 "/>
</g>
</svg>
