<?xml version="1.0" encoding="UTF-8"?>
<svg xmlns="http://www.w3.org/2000/svg" xmlns:xlink="http://www.w3.org/1999/xlink" width="375pt" height="374.999991pt" viewBox="0 0 375 374.999991" version="1.2">
<defs>
<clipPath id="clip1">
  <path d="M 0 0 L 158 0 L 158 241 L 0 241 Z M 0 0 "/>
</clipPath>
<clipPath id="clip2">
  <path d="M -205.605469 108.511719 L 102.140625 -96.441406 L 226.445312 90.207031 L -81.304688 295.15625 Z M -205.605469 108.511719 "/>
</clipPath>
<clipPath id="clip3">
  <path d="M -205.605469 108.511719 L 102.140625 -96.441406 L 226.445312 90.207031 L -81.304688 295.15625 Z M -205.605469 108.511719 "/>
</clipPath>
<clipPath id="clip4">
  <path d="M 0 139 L 83 139 L 83 148.78125 L 0 148.78125 Z M 0 139 "/>
</clipPath>
<clipPath id="clip5">
  <path d="M 96 0 L 317 0 L 317 132 L 96 132 Z M 96 0 "/>
</clipPath>
<clipPath id="clip6">
  <path d="M 168.601562 -112.617188 L 355.210938 6.242188 L 248.4375 173.875 L 61.828125 55.015625 Z M 168.601562 -112.617188 "/>
</clipPath>
<clipPath id="clip7">
  <path d="M 168.601562 -112.617188 L 355.210938 6.242188 L 248.4375 173.875 L 61.828125 55.015625 Z M 168.601562 -112.617188 "/>
</clipPath>
<clipPath id="clip8">
  <path d="M 253 0 L 375 0 L 375 237 L 253 237 Z M 253 0 "/>
</clipPath>
<clipPath id="clip9">
  <path d="M 187.5 -14.039062 L 316.460938 -96.371094 L 487.179688 171.027344 L 358.222656 253.359375 Z M 187.5 -14.039062 "/>
</clipPath>
<clipPath id="clip10">
  <path d="M 187.5 -14.039062 L 316.460938 -96.371094 L 487.179688 171.027344 L 358.222656 253.359375 Z M 187.5 -14.039062 "/>
</clipPath>
<clipPath id="clip11">
  <path d="M 256 23 L 263 23 L 263 30 L 256 30 Z M 256 23 "/>
</clipPath>
<clipPath id="clip12">
  <path d="M 187.5 139.972656 L 210.816406 -35.484375 L 429.394531 -6.4375 L 406.078125 169.019531 Z M 187.5 139.972656 "/>
</clipPath>
<clipPath id="clip13">
  <path d="M 187.5 139.972656 L 210.816406 -35.484375 L 429.394531 -6.4375 L 406.078125 169.019531 Z M 187.5 139.972656 "/>
</clipPath>
<clipPath id="clip14">
  <path d="M 293 65 L 299 65 L 299 72 L 293 72 Z M 293 65 "/>
</clipPath>
<clipPath id="clip15">
  <path d="M 187.5 139.972656 L 210.816406 -35.484375 L 429.394531 -6.4375 L 406.078125 169.019531 Z M 187.5 139.972656 "/>
</clipPath>
<clipPath id="clip16">
  <path d="M 187.5 139.972656 L 210.816406 -35.484375 L 429.394531 -6.4375 L 406.078125 169.019531 Z M 187.5 139.972656 "/>
</clipPath>
<clipPath id="clip17">
  <path d="M 310 21 L 317 21 L 317 28 L 310 28 Z M 310 21 "/>
</clipPath>
<clipPath id="clip18">
  <path d="M 187.5 139.972656 L 210.816406 -35.484375 L 429.394531 -6.4375 L 406.078125 169.019531 Z M 187.5 139.972656 "/>
</clipPath>
<clipPath id="clip19">
  <path d="M 187.5 139.972656 L 210.816406 -35.484375 L 429.394531 -6.4375 L 406.078125 169.019531 Z M 187.5 139.972656 "/>
</clipPath>
<clipPath id="clip20">
  <path d="M 322 7 L 329 7 L 329 14 L 322 14 Z M 322 7 "/>
</clipPath>
<clipPath id="clip21">
  <path d="M 187.5 139.972656 L 210.816406 -35.484375 L 429.394531 -6.4375 L 406.078125 169.019531 Z M 187.5 139.972656 "/>
</clipPath>
<clipPath id="clip22">
  <path d="M 187.5 139.972656 L 210.816406 -35.484375 L 429.394531 -6.4375 L 406.078125 169.019531 Z M 187.5 139.972656 "/>
</clipPath>
<clipPath id="clip23">
  <path d="M 320 95 L 327 95 L 327 101 L 320 101 Z M 320 95 "/>
</clipPath>
<clipPath id="clip24">
  <path d="M 187.5 139.972656 L 210.816406 -35.484375 L 429.394531 -6.4375 L 406.078125 169.019531 Z M 187.5 139.972656 "/>
</clipPath>
<clipPath id="clip25">
  <path d="M 187.5 139.972656 L 210.816406 -35.484375 L 429.394531 -6.4375 L 406.078125 169.019531 Z M 187.5 139.972656 "/>
</clipPath>
<clipPath id="clip26">
  <path d="M 343 88 L 350 88 L 350 94 L 343 94 Z M 343 88 "/>
</clipPath>
<clipPath id="clip27">
  <path d="M 187.5 139.972656 L 210.816406 -35.484375 L 429.394531 -6.4375 L 406.078125 169.019531 Z M 187.5 139.972656 "/>
</clipPath>
<clipPath id="clip28">
  <path d="M 187.5 139.972656 L 210.816406 -35.484375 L 429.394531 -6.4375 L 406.078125 169.019531 Z M 187.5 139.972656 "/>
</clipPath>
<clipPath id="clip29">
  <path d="M 252 70 L 258 70 L 258 77 L 252 77 Z M 252 70 "/>
</clipPath>
<clipPath id="clip30">
  <path d="M 187.5 139.972656 L 210.816406 -35.484375 L 429.394531 -6.4375 L 406.078125 169.019531 Z M 187.5 139.972656 "/>
</clipPath>
<clipPath id="clip31">
  <path d="M 187.5 139.972656 L 210.816406 -35.484375 L 429.394531 -6.4375 L 406.078125 169.019531 Z M 187.5 139.972656 "/>
</clipPath>
<clipPath id="clip32">
  <path d="M 198 56 L 205 56 L 205 63 L 198 63 Z M 198 56 "/>
</clipPath>
<clipPath id="clip33">
  <path d="M 187.5 139.972656 L 210.816406 -35.484375 L 429.394531 -6.4375 L 406.078125 169.019531 Z M 187.5 139.972656 "/>
</clipPath>
<clipPath id="clip34">
  <path d="M 187.5 139.972656 L 210.816406 -35.484375 L 429.394531 -6.4375 L 406.078125 169.019531 Z M 187.5 139.972656 "/>
</clipPath>
<clipPath id="clip35">
  <path d="M 308 71 L 314 71 L 314 78 L 308 78 Z M 308 71 "/>
</clipPath>
<clipPath id="clip36">
  <path d="M 187.5 139.972656 L 210.816406 -35.484375 L 429.394531 -6.4375 L 406.078125 169.019531 Z M 187.5 139.972656 "/>
</clipPath>
<clipPath id="clip37">
  <path d="M 187.5 139.972656 L 210.816406 -35.484375 L 429.394531 -6.4375 L 406.078125 169.019531 Z M 187.5 139.972656 "/>
</clipPath>
<clipPath id="clip38">
  <path d="M 333 20 L 339 20 L 339 27 L 333 27 Z M 333 20 "/>
</clipPath>
<clipPath id="clip39">
  <path d="M 187.5 139.972656 L 210.816406 -35.484375 L 429.394531 -6.4375 L 406.078125 169.019531 Z M 187.5 139.972656 "/>
</clipPath>
<clipPath id="clip40">
  <path d="M 187.5 139.972656 L 210.816406 -35.484375 L 429.394531 -6.4375 L 406.078125 169.019531 Z M 187.5 139.972656 "/>
</clipPath>
<clipPath id="clip41">
  <path d="M 274 26 L 281 26 L 281 32 L 274 32 Z M 274 26 "/>
</clipPath>
<clipPath id="clip42">
  <path d="M 187.5 139.972656 L 210.816406 -35.484375 L 429.394531 -6.4375 L 406.078125 169.019531 Z M 187.5 139.972656 "/>
</clipPath>
<clipPath id="clip43">
  <path d="M 187.5 139.972656 L 210.816406 -35.484375 L 429.394531 -6.4375 L 406.078125 169.019531 Z M 187.5 139.972656 "/>
</clipPath>
<clipPath id="clip44">
  <path d="M 279 54 L 285 54 L 285 61 L 279 61 Z M 279 54 "/>
</clipPath>
<clipPath id="clip45">
  <path d="M 187.5 139.972656 L 210.816406 -35.484375 L 429.394531 -6.4375 L 406.078125 169.019531 Z M 187.5 139.972656 "/>
</clipPath>
<clipPath id="clip46">
  <path d="M 187.5 139.972656 L 210.816406 -35.484375 L 429.394531 -6.4375 L 406.078125 169.019531 Z M 187.5 139.972656 "/>
</clipPath>
<clipPath id="clip47">
  <path d="M 270 3 L 277 3 L 277 10 L 270 10 Z M 270 3 "/>
</clipPath>
<clipPath id="clip48">
  <path d="M 187.5 139.972656 L 210.816406 -35.484375 L 429.394531 -6.4375 L 406.078125 169.019531 Z M 187.5 139.972656 "/>
</clipPath>
<clipPath id="clip49">
  <path d="M 187.5 139.972656 L 210.816406 -35.484375 L 429.394531 -6.4375 L 406.078125 169.019531 Z M 187.5 139.972656 "/>
</clipPath>
<clipPath id="clip50">
  <path d="M 248 0 L 254 0 L 254 3 L 248 3 Z M 248 0 "/>
</clipPath>
<clipPath id="clip51">
  <path d="M 187.5 139.972656 L 210.816406 -35.484375 L 429.394531 -6.4375 L 406.078125 169.019531 Z M 187.5 139.972656 "/>
</clipPath>
<clipPath id="clip52">
  <path d="M 187.5 139.972656 L 210.816406 -35.484375 L 429.394531 -6.4375 L 406.078125 169.019531 Z M 187.5 139.972656 "/>
</clipPath>
<clipPath id="clip53">
  <path d="M 359 97 L 366 97 L 366 104 L 359 104 Z M 359 97 "/>
</clipPath>
<clipPath id="clip54">
  <path d="M 187.5 139.972656 L 210.816406 -35.484375 L 429.394531 -6.4375 L 406.078125 169.019531 Z M 187.5 139.972656 "/>
</clipPath>
<clipPath id="clip55">
  <path d="M 187.5 139.972656 L 210.816406 -35.484375 L 429.394531 -6.4375 L 406.078125 169.019531 Z M 187.5 139.972656 "/>
</clipPath>
<clipPath id="clip56">
  <path d="M 271 69 L 278 69 L 278 76 L 271 76 Z M 271 69 "/>
</clipPath>
<clipPath id="clip57">
  <path d="M 187.5 139.972656 L 210.816406 -35.484375 L 429.394531 -6.4375 L 406.078125 169.019531 Z M 187.5 139.972656 "/>
</clipPath>
<clipPath id="clip58">
  <path d="M 187.5 139.972656 L 210.816406 -35.484375 L 429.394531 -6.4375 L 406.078125 169.019531 Z M 187.5 139.972656 "/>
</clipPath>
<clipPath id="clip59">
  <path d="M 305 54 L 312 54 L 312 60 L 305 60 Z M 305 54 "/>
</clipPath>
<clipPath id="clip60">
  <path d="M 187.5 139.972656 L 210.816406 -35.484375 L 429.394531 -6.4375 L 406.078125 169.019531 Z M 187.5 139.972656 "/>
</clipPath>
<clipPath id="clip61">
  <path d="M 187.5 139.972656 L 210.816406 -35.484375 L 429.394531 -6.4375 L 406.078125 169.019531 Z M 187.5 139.972656 "/>
</clipPath>
<clipPath id="clip62">
  <path d="M 254 37 L 261 37 L 261 43 L 254 43 Z M 254 37 "/>
</clipPath>
<clipPath id="clip63">
  <path d="M 187.5 139.972656 L 210.816406 -35.484375 L 429.394531 -6.4375 L 406.078125 169.019531 Z M 187.5 139.972656 "/>
</clipPath>
<clipPath id="clip64">
  <path d="M 187.5 139.972656 L 210.816406 -35.484375 L 429.394531 -6.4375 L 406.078125 169.019531 Z M 187.5 139.972656 "/>
</clipPath>
<clipPath id="clip65">
  <path d="M 239 12 L 246 12 L 246 19 L 239 19 Z M 239 12 "/>
</clipPath>
<clipPath id="clip66">
  <path d="M 187.5 139.972656 L 210.816406 -35.484375 L 429.394531 -6.4375 L 406.078125 169.019531 Z M 187.5 139.972656 "/>
</clipPath>
<clipPath id="clip67">
  <path d="M 187.5 139.972656 L 210.816406 -35.484375 L 429.394531 -6.4375 L 406.078125 169.019531 Z M 187.5 139.972656 "/>
</clipPath>
<clipPath id="clip68">
  <path d="M 290 44 L 296 44 L 296 51 L 290 51 Z M 290 44 "/>
</clipPath>
<clipPath id="clip69">
  <path d="M 187.5 139.972656 L 210.816406 -35.484375 L 429.394531 -6.4375 L 406.078125 169.019531 Z M 187.5 139.972656 "/>
</clipPath>
<clipPath id="clip70">
  <path d="M 187.5 139.972656 L 210.816406 -35.484375 L 429.394531 -6.4375 L 406.078125 169.019531 Z M 187.5 139.972656 "/>
</clipPath>
<clipPath id="clip71">
  <path d="M 342 58 L 349 58 L 349 65 L 342 65 Z M 342 58 "/>
</clipPath>
<clipPath id="clip72">
  <path d="M 187.5 139.972656 L 210.816406 -35.484375 L 429.394531 -6.4375 L 406.078125 169.019531 Z M 187.5 139.972656 "/>
</clipPath>
<clipPath id="clip73">
  <path d="M 187.5 139.972656 L 210.816406 -35.484375 L 429.394531 -6.4375 L 406.078125 169.019531 Z M 187.5 139.972656 "/>
</clipPath>
<clipPath id="clip74">
  <path d="M 328 48 L 334 48 L 334 55 L 328 55 Z M 328 48 "/>
</clipPath>
<clipPath id="clip75">
  <path d="M 187.5 139.972656 L 210.816406 -35.484375 L 429.394531 -6.4375 L 406.078125 169.019531 Z M 187.5 139.972656 "/>
</clipPath>
<clipPath id="clip76">
  <path d="M 187.5 139.972656 L 210.816406 -35.484375 L 429.394531 -6.4375 L 406.078125 169.019531 Z M 187.5 139.972656 "/>
</clipPath>
<clipPath id="clip77">
  <path d="M 258 11 L 264 11 L 264 17 L 258 17 Z M 258 11 "/>
</clipPath>
<clipPath id="clip78">
  <path d="M 187.5 139.972656 L 210.816406 -35.484375 L 429.394531 -6.4375 L 406.078125 169.019531 Z M 187.5 139.972656 "/>
</clipPath>
<clipPath id="clip79">
  <path d="M 187.5 139.972656 L 210.816406 -35.484375 L 429.394531 -6.4375 L 406.078125 169.019531 Z M 187.5 139.972656 "/>
</clipPath>
<clipPath id="clip80">
  <path d="M 309 39 L 316 39 L 316 46 L 309 46 Z M 309 39 "/>
</clipPath>
<clipPath id="clip81">
  <path d="M 187.5 139.972656 L 210.816406 -35.484375 L 429.394531 -6.4375 L 406.078125 169.019531 Z M 187.5 139.972656 "/>
</clipPath>
<clipPath id="clip82">
  <path d="M 187.5 139.972656 L 210.816406 -35.484375 L 429.394531 -6.4375 L 406.078125 169.019531 Z M 187.5 139.972656 "/>
</clipPath>
<clipPath id="clip83">
  <path d="M 294 31 L 301 31 L 301 37 L 294 37 Z M 294 31 "/>
</clipPath>
<clipPath id="clip84">
  <path d="M 187.5 139.972656 L 210.816406 -35.484375 L 429.394531 -6.4375 L 406.078125 169.019531 Z M 187.5 139.972656 "/>
</clipPath>
<clipPath id="clip85">
  <path d="M 187.5 139.972656 L 210.816406 -35.484375 L 429.394531 -6.4375 L 406.078125 169.019531 Z M 187.5 139.972656 "/>
</clipPath>
<clipPath id="clip86">
  <path d="M 347 106 L 354 106 L 354 113 L 347 113 Z M 347 106 "/>
</clipPath>
<clipPath id="clip87">
  <path d="M 187.5 139.972656 L 210.816406 -35.484375 L 429.394531 -6.4375 L 406.078125 169.019531 Z M 187.5 139.972656 "/>
</clipPath>
<clipPath id="clip88">
  <path d="M 187.5 139.972656 L 210.816406 -35.484375 L 429.394531 -6.4375 L 406.078125 169.019531 Z M 187.5 139.972656 "/>
</clipPath>
<clipPath id="clip89">
  <path d="M 216 50 L 223 50 L 223 56 L 216 56 Z M 216 50 "/>
</clipPath>
<clipPath id="clip90">
  <path d="M 187.5 139.972656 L 210.816406 -35.484375 L 429.394531 -6.4375 L 406.078125 169.019531 Z M 187.5 139.972656 "/>
</clipPath>
<clipPath id="clip91">
  <path d="M 187.5 139.972656 L 210.816406 -35.484375 L 429.394531 -6.4375 L 406.078125 169.019531 Z M 187.5 139.972656 "/>
</clipPath>
<clipPath id="clip92">
  <path d="M 205 74 L 211 74 L 211 80 L 205 80 Z M 205 74 "/>
</clipPath>
<clipPath id="clip93">
  <path d="M 187.5 139.972656 L 210.816406 -35.484375 L 429.394531 -6.4375 L 406.078125 169.019531 Z M 187.5 139.972656 "/>
</clipPath>
<clipPath id="clip94">
  <path d="M 187.5 139.972656 L 210.816406 -35.484375 L 429.394531 -6.4375 L 406.078125 169.019531 Z M 187.5 139.972656 "/>
</clipPath>
<clipPath id="clip95">
  <path d="M 341 73 L 347 73 L 347 80 L 341 80 Z M 341 73 "/>
</clipPath>
<clipPath id="clip96">
  <path d="M 187.5 139.972656 L 210.816406 -35.484375 L 429.394531 -6.4375 L 406.078125 169.019531 Z M 187.5 139.972656 "/>
</clipPath>
<clipPath id="clip97">
  <path d="M 187.5 139.972656 L 210.816406 -35.484375 L 429.394531 -6.4375 L 406.078125 169.019531 Z M 187.5 139.972656 "/>
</clipPath>
<clipPath id="clip98">
  <path d="M 218 28 L 225 28 L 225 35 L 218 35 Z M 218 28 "/>
</clipPath>
<clipPath id="clip99">
  <path d="M 187.5 139.972656 L 210.816406 -35.484375 L 429.394531 -6.4375 L 406.078125 169.019531 Z M 187.5 139.972656 "/>
</clipPath>
<clipPath id="clip100">
  <path d="M 187.5 139.972656 L 210.816406 -35.484375 L 429.394531 -6.4375 L 406.078125 169.019531 Z M 187.5 139.972656 "/>
</clipPath>
<clipPath id="clip101">
  <path d="M 250 58 L 256 58 L 256 64 L 250 64 Z M 250 58 "/>
</clipPath>
<clipPath id="clip102">
  <path d="M 187.5 139.972656 L 210.816406 -35.484375 L 429.394531 -6.4375 L 406.078125 169.019531 Z M 187.5 139.972656 "/>
</clipPath>
<clipPath id="clip103">
  <path d="M 187.5 139.972656 L 210.816406 -35.484375 L 429.394531 -6.4375 L 406.078125 169.019531 Z M 187.5 139.972656 "/>
</clipPath>
<clipPath id="clip104">
  <path d="M 308 86 L 314 86 L 314 93 L 308 93 Z M 308 86 "/>
</clipPath>
<clipPath id="clip105">
  <path d="M 187.5 139.972656 L 210.816406 -35.484375 L 429.394531 -6.4375 L 406.078125 169.019531 Z M 187.5 139.972656 "/>
</clipPath>
<clipPath id="clip106">
  <path d="M 187.5 139.972656 L 210.816406 -35.484375 L 429.394531 -6.4375 L 406.078125 169.019531 Z M 187.5 139.972656 "/>
</clipPath>
<clipPath id="clip107">
  <path d="M 305 7 L 312 7 L 312 13 L 305 13 Z M 305 7 "/>
</clipPath>
<clipPath id="clip108">
  <path d="M 187.5 139.972656 L 210.816406 -35.484375 L 429.394531 -6.4375 L 406.078125 169.019531 Z M 187.5 139.972656 "/>
</clipPath>
<clipPath id="clip109">
  <path d="M 187.5 139.972656 L 210.816406 -35.484375 L 429.394531 -6.4375 L 406.078125 169.019531 Z M 187.5 139.972656 "/>
</clipPath>
<clipPath id="clip110">
  <path d="M 365 126 L 372 126 L 372 133 L 365 133 Z M 365 126 "/>
</clipPath>
<clipPath id="clip111">
  <path d="M 187.5 139.972656 L 210.816406 -35.484375 L 429.394531 -6.4375 L 406.078125 169.019531 Z M 187.5 139.972656 "/>
</clipPath>
<clipPath id="clip112">
  <path d="M 187.5 139.972656 L 210.816406 -35.484375 L 429.394531 -6.4375 L 406.078125 169.019531 Z M 187.5 139.972656 "/>
</clipPath>
<clipPath id="clip113">
  <path d="M 363 55 L 369 55 L 369 62 L 363 62 Z M 363 55 "/>
</clipPath>
<clipPath id="clip114">
  <path d="M 187.5 139.972656 L 210.816406 -35.484375 L 429.394531 -6.4375 L 406.078125 169.019531 Z M 187.5 139.972656 "/>
</clipPath>
<clipPath id="clip115">
  <path d="M 187.5 139.972656 L 210.816406 -35.484375 L 429.394531 -6.4375 L 406.078125 169.019531 Z M 187.5 139.972656 "/>
</clipPath>
<clipPath id="clip116">
  <path d="M 219 15 L 226 15 L 226 21 L 219 21 Z M 219 15 "/>
</clipPath>
<clipPath id="clip117">
  <path d="M 187.5 139.972656 L 210.816406 -35.484375 L 429.394531 -6.4375 L 406.078125 169.019531 Z M 187.5 139.972656 "/>
</clipPath>
<clipPath id="clip118">
  <path d="M 187.5 139.972656 L 210.816406 -35.484375 L 429.394531 -6.4375 L 406.078125 169.019531 Z M 187.5 139.972656 "/>
</clipPath>
<clipPath id="clip119">
  <path d="M 285 0 L 292 0 L 292 7 L 285 7 Z M 285 0 "/>
</clipPath>
<clipPath id="clip120">
  <path d="M 187.5 139.972656 L 210.816406 -35.484375 L 429.394531 -6.4375 L 406.078125 169.019531 Z M 187.5 139.972656 "/>
</clipPath>
<clipPath id="clip121">
  <path d="M 187.5 139.972656 L 210.816406 -35.484375 L 429.394531 -6.4375 L 406.078125 169.019531 Z M 187.5 139.972656 "/>
</clipPath>
<clipPath id="clip122">
  <path d="M 286 16 L 293 16 L 293 23 L 286 23 Z M 286 16 "/>
</clipPath>
<clipPath id="clip123">
  <path d="M 187.5 139.972656 L 210.816406 -35.484375 L 429.394531 -6.4375 L 406.078125 169.019531 Z M 187.5 139.972656 "/>
</clipPath>
<clipPath id="clip124">
  <path d="M 187.5 139.972656 L 210.816406 -35.484375 L 429.394531 -6.4375 L 406.078125 169.019531 Z M 187.5 139.972656 "/>
</clipPath>
<clipPath id="clip125">
  <path d="M 320 63 L 327 63 L 327 70 L 320 70 Z M 320 63 "/>
</clipPath>
<clipPath id="clip126">
  <path d="M 187.5 139.972656 L 210.816406 -35.484375 L 429.394531 -6.4375 L 406.078125 169.019531 Z M 187.5 139.972656 "/>
</clipPath>
<clipPath id="clip127">
  <path d="M 187.5 139.972656 L 210.816406 -35.484375 L 429.394531 -6.4375 L 406.078125 169.019531 Z M 187.5 139.972656 "/>
</clipPath>
<clipPath id="clip128">
  <path d="M 368 112 L 375 112 L 375 118 L 368 118 Z M 368 112 "/>
</clipPath>
<clipPath id="clip129">
  <path d="M 187.5 139.972656 L 210.816406 -35.484375 L 429.394531 -6.4375 L 406.078125 169.019531 Z M 187.5 139.972656 "/>
</clipPath>
<clipPath id="clip130">
  <path d="M 187.5 139.972656 L 210.816406 -35.484375 L 429.394531 -6.4375 L 406.078125 169.019531 Z M 187.5 139.972656 "/>
</clipPath>
<clipPath id="clip131">
  <path d="M 358 4 L 365 4 L 365 11 L 358 11 Z M 358 4 "/>
</clipPath>
<clipPath id="clip132">
  <path d="M 187.5 139.972656 L 210.816406 -35.484375 L 429.394531 -6.4375 L 406.078125 169.019531 Z M 187.5 139.972656 "/>
</clipPath>
<clipPath id="clip133">
  <path d="M 187.5 139.972656 L 210.816406 -35.484375 L 429.394531 -6.4375 L 406.078125 169.019531 Z M 187.5 139.972656 "/>
</clipPath>
<clipPath id="clip134">
  <path d="M 368 155 L 374 155 L 374 162 L 368 162 Z M 368 155 "/>
</clipPath>
<clipPath id="clip135">
  <path d="M 187.5 139.972656 L 210.816406 -35.484375 L 429.394531 -6.4375 L 406.078125 169.019531 Z M 187.5 139.972656 "/>
</clipPath>
<clipPath id="clip136">
  <path d="M 187.5 139.972656 L 210.816406 -35.484375 L 429.394531 -6.4375 L 406.078125 169.019531 Z M 187.5 139.972656 "/>
</clipPath>
<clipPath id="clip137">
  <path d="M 214 64 L 221 64 L 221 71 L 214 71 Z M 214 64 "/>
</clipPath>
<clipPath id="clip138">
  <path d="M 187.5 139.972656 L 210.816406 -35.484375 L 429.394531 -6.4375 L 406.078125 169.019531 Z M 187.5 139.972656 "/>
</clipPath>
<clipPath id="clip139">
  <path d="M 187.5 139.972656 L 210.816406 -35.484375 L 429.394531 -6.4375 L 406.078125 169.019531 Z M 187.5 139.972656 "/>
</clipPath>
<clipPath id="clip140">
  <path d="M 357 142 L 364 142 L 364 149 L 357 149 Z M 357 142 "/>
</clipPath>
<clipPath id="clip141">
  <path d="M 187.5 139.972656 L 210.816406 -35.484375 L 429.394531 -6.4375 L 406.078125 169.019531 Z M 187.5 139.972656 "/>
</clipPath>
<clipPath id="clip142">
  <path d="M 187.5 139.972656 L 210.816406 -35.484375 L 429.394531 -6.4375 L 406.078125 169.019531 Z M 187.5 139.972656 "/>
</clipPath>
<clipPath id="clip143">
  <path d="M 357 70 L 364 70 L 364 76 L 357 76 Z M 357 70 "/>
</clipPath>
<clipPath id="clip144">
  <path d="M 187.5 139.972656 L 210.816406 -35.484375 L 429.394531 -6.4375 L 406.078125 169.019531 Z M 187.5 139.972656 "/>
</clipPath>
<clipPath id="clip145">
  <path d="M 187.5 139.972656 L 210.816406 -35.484375 L 429.394531 -6.4375 L 406.078125 169.019531 Z M 187.5 139.972656 "/>
</clipPath>
<clipPath id="clip146">
  <path d="M 238 30 L 244 30 L 244 37 L 238 37 Z M 238 30 "/>
</clipPath>
<clipPath id="clip147">
  <path d="M 187.5 139.972656 L 210.816406 -35.484375 L 429.394531 -6.4375 L 406.078125 169.019531 Z M 187.5 139.972656 "/>
</clipPath>
<clipPath id="clip148">
  <path d="M 187.5 139.972656 L 210.816406 -35.484375 L 429.394531 -6.4375 L 406.078125 169.019531 Z M 187.5 139.972656 "/>
</clipPath>
<clipPath id="clip149">
  <path d="M 290 79 L 296 79 L 296 86 L 290 86 Z M 290 79 "/>
</clipPath>
<clipPath id="clip150">
  <path d="M 187.5 139.972656 L 210.816406 -35.484375 L 429.394531 -6.4375 L 406.078125 169.019531 Z M 187.5 139.972656 "/>
</clipPath>
<clipPath id="clip151">
  <path d="M 187.5 139.972656 L 210.816406 -35.484375 L 429.394531 -6.4375 L 406.078125 169.019531 Z M 187.5 139.972656 "/>
</clipPath>
<clipPath id="clip152">
  <path d="M 360 21 L 367 21 L 367 28 L 360 28 Z M 360 21 "/>
</clipPath>
<clipPath id="clip153">
  <path d="M 187.5 139.972656 L 210.816406 -35.484375 L 429.394531 -6.4375 L 406.078125 169.019531 Z M 187.5 139.972656 "/>
</clipPath>
<clipPath id="clip154">
  <path d="M 187.5 139.972656 L 210.816406 -35.484375 L 429.394531 -6.4375 L 406.078125 169.019531 Z M 187.5 139.972656 "/>
</clipPath>
<clipPath id="clip155">
  <path d="M 326 78 L 333 78 L 333 85 L 326 85 Z M 326 78 "/>
</clipPath>
<clipPath id="clip156">
  <path d="M 187.5 139.972656 L 210.816406 -35.484375 L 429.394531 -6.4375 L 406.078125 169.019531 Z M 187.5 139.972656 "/>
</clipPath>
<clipPath id="clip157">
  <path d="M 187.5 139.972656 L 210.816406 -35.484375 L 429.394531 -6.4375 L 406.078125 169.019531 Z M 187.5 139.972656 "/>
</clipPath>
<clipPath id="clip158">
  <path d="M 230 42 L 236 42 L 236 49 L 230 49 Z M 230 42 "/>
</clipPath>
<clipPath id="clip159">
  <path d="M 187.5 139.972656 L 210.816406 -35.484375 L 429.394531 -6.4375 L 406.078125 169.019531 Z M 187.5 139.972656 "/>
</clipPath>
<clipPath id="clip160">
  <path d="M 187.5 139.972656 L 210.816406 -35.484375 L 429.394531 -6.4375 L 406.078125 169.019531 Z M 187.5 139.972656 "/>
</clipPath>
<clipPath id="clip161">
  <path d="M 323 34 L 330 34 L 330 40 L 323 40 Z M 323 34 "/>
</clipPath>
<clipPath id="clip162">
  <path d="M 187.5 139.972656 L 210.816406 -35.484375 L 429.394531 -6.4375 L 406.078125 169.019531 Z M 187.5 139.972656 "/>
</clipPath>
<clipPath id="clip163">
  <path d="M 187.5 139.972656 L 210.816406 -35.484375 L 429.394531 -6.4375 L 406.078125 169.019531 Z M 187.5 139.972656 "/>
</clipPath>
<clipPath id="clip164">
  <path d="M 346 31 L 353 31 L 353 38 L 346 38 Z M 346 31 "/>
</clipPath>
<clipPath id="clip165">
  <path d="M 187.5 139.972656 L 210.816406 -35.484375 L 429.394531 -6.4375 L 406.078125 169.019531 Z M 187.5 139.972656 "/>
</clipPath>
<clipPath id="clip166">
  <path d="M 187.5 139.972656 L 210.816406 -35.484375 L 429.394531 -6.4375 L 406.078125 169.019531 Z M 187.5 139.972656 "/>
</clipPath>
<clipPath id="clip167">
  <path d="M 341 8 L 348 8 L 348 15 L 341 15 Z M 341 8 "/>
</clipPath>
<clipPath id="clip168">
  <path d="M 187.5 139.972656 L 210.816406 -35.484375 L 429.394531 -6.4375 L 406.078125 169.019531 Z M 187.5 139.972656 "/>
</clipPath>
<clipPath id="clip169">
  <path d="M 187.5 139.972656 L 210.816406 -35.484375 L 429.394531 -6.4375 L 406.078125 169.019531 Z M 187.5 139.972656 "/>
</clipPath>
<clipPath id="clip170">
  <path d="M 328 103 L 334 103 L 334 110 L 328 110 Z M 328 103 "/>
</clipPath>
<clipPath id="clip171">
  <path d="M 187.5 139.972656 L 210.816406 -35.484375 L 429.394531 -6.4375 L 406.078125 169.019531 Z M 187.5 139.972656 "/>
</clipPath>
<clipPath id="clip172">
  <path d="M 187.5 139.972656 L 210.816406 -35.484375 L 429.394531 -6.4375 L 406.078125 169.019531 Z M 187.5 139.972656 "/>
</clipPath>
<clipPath id="clip173">
  <path d="M 345 45 L 351 45 L 351 51 L 345 51 Z M 345 45 "/>
</clipPath>
<clipPath id="clip174">
  <path d="M 187.5 139.972656 L 210.816406 -35.484375 L 429.394531 -6.4375 L 406.078125 169.019531 Z M 187.5 139.972656 "/>
</clipPath>
<clipPath id="clip175">
  <path d="M 187.5 139.972656 L 210.816406 -35.484375 L 429.394531 -6.4375 L 406.078125 169.019531 Z M 187.5 139.972656 "/>
</clipPath>
<clipPath id="clip176">
  <path d="M 263 49 L 270 49 L 270 55 L 263 55 Z M 263 49 "/>
</clipPath>
<clipPath id="clip177">
  <path d="M 187.5 139.972656 L 210.816406 -35.484375 L 429.394531 -6.4375 L 406.078125 169.019531 Z M 187.5 139.972656 "/>
</clipPath>
<clipPath id="clip178">
  <path d="M 187.5 139.972656 L 210.816406 -35.484375 L 429.394531 -6.4375 L 406.078125 169.019531 Z M 187.5 139.972656 "/>
</clipPath>
<clipPath id="clip179">
  <path d="M 228 73 L 235 73 L 235 79 L 228 79 Z M 228 73 "/>
</clipPath>
<clipPath id="clip180">
  <path d="M 187.5 139.972656 L 210.816406 -35.484375 L 429.394531 -6.4375 L 406.078125 169.019531 Z M 187.5 139.972656 "/>
</clipPath>
<clipPath id="clip181">
  <path d="M 187.5 139.972656 L 210.816406 -35.484375 L 429.394531 -6.4375 L 406.078125 169.019531 Z M 187.5 139.972656 "/>
</clipPath>
<clipPath id="clip182">
  <path d="M 362 39 L 368 39 L 368 45 L 362 45 Z M 362 39 "/>
</clipPath>
<clipPath id="clip183">
  <path d="M 187.5 139.972656 L 210.816406 -35.484375 L 429.394531 -6.4375 L 406.078125 169.019531 Z M 187.5 139.972656 "/>
</clipPath>
<clipPath id="clip184">
  <path d="M 187.5 139.972656 L 210.816406 -35.484375 L 429.394531 -6.4375 L 406.078125 169.019531 Z M 187.5 139.972656 "/>
</clipPath>
<clipPath id="clip185">
  <path d="M 227 0 L 234 0 L 234 6 L 227 6 Z M 227 0 "/>
</clipPath>
<clipPath id="clip186">
  <path d="M 187.5 139.972656 L 210.816406 -35.484375 L 429.394531 -6.4375 L 406.078125 169.019531 Z M 187.5 139.972656 "/>
</clipPath>
<clipPath id="clip187">
  <path d="M 187.5 139.972656 L 210.816406 -35.484375 L 429.394531 -6.4375 L 406.078125 169.019531 Z M 187.5 139.972656 "/>
</clipPath>
<clipPath id="clip188">
  <path d="M 336 117 L 343 117 L 343 123 L 336 123 Z M 336 117 "/>
</clipPath>
<clipPath id="clip189">
  <path d="M 187.5 139.972656 L 210.816406 -35.484375 L 429.394531 -6.4375 L 406.078125 169.019531 Z M 187.5 139.972656 "/>
</clipPath>
<clipPath id="clip190">
  <path d="M 187.5 139.972656 L 210.816406 -35.484375 L 429.394531 -6.4375 L 406.078125 169.019531 Z M 187.5 139.972656 "/>
</clipPath>
<clipPath id="clip191">
  <path d="M 363 81 L 369 81 L 369 88 L 363 88 Z M 363 81 "/>
</clipPath>
<clipPath id="clip192">
  <path d="M 187.5 139.972656 L 210.816406 -35.484375 L 429.394531 -6.4375 L 406.078125 169.019531 Z M 187.5 139.972656 "/>
</clipPath>
<clipPath id="clip193">
  <path d="M 187.5 139.972656 L 210.816406 -35.484375 L 429.394531 -6.4375 L 406.078125 169.019531 Z M 187.5 139.972656 "/>
</clipPath>
<clipPath id="clip194">
  <path d="M 204 37 L 210 37 L 210 43 L 204 43 Z M 204 37 "/>
</clipPath>
<clipPath id="clip195">
  <path d="M 187.5 139.972656 L 210.816406 -35.484375 L 429.394531 -6.4375 L 406.078125 169.019531 Z M 187.5 139.972656 "/>
</clipPath>
<clipPath id="clip196">
  <path d="M 187.5 139.972656 L 210.816406 -35.484375 L 429.394531 -6.4375 L 406.078125 169.019531 Z M 187.5 139.972656 "/>
</clipPath>
<clipPath id="clip197">
  <path d="M 235 57 L 242 57 L 242 63 L 235 63 Z M 235 57 "/>
</clipPath>
<clipPath id="clip198">
  <path d="M 187.5 139.972656 L 210.816406 -35.484375 L 429.394531 -6.4375 L 406.078125 169.019531 Z M 187.5 139.972656 "/>
</clipPath>
<clipPath id="clip199">
  <path d="M 187.5 139.972656 L 210.816406 -35.484375 L 429.394531 -6.4375 L 406.078125 169.019531 Z M 187.5 139.972656 "/>
</clipPath>
<clipPath id="clip200">
  <path d="M 348 125 L 354 125 L 354 132 L 348 132 Z M 348 125 "/>
</clipPath>
<clipPath id="clip201">
  <path d="M 187.5 139.972656 L 210.816406 -35.484375 L 429.394531 -6.4375 L 406.078125 169.019531 Z M 187.5 139.972656 "/>
</clipPath>
<clipPath id="clip202">
  <path d="M 187.5 139.972656 L 210.816406 -35.484375 L 429.394531 -6.4375 L 406.078125 169.019531 Z M 187.5 139.972656 "/>
</clipPath>
</defs>
<g id="surface1">
<g clip-path="url(#clip1)" clip-rule="nonzero">
<g clip-path="url(#clip2)" clip-rule="nonzero">
<g clip-path="url(#clip3)" clip-rule="nonzero">
<path style=" stroke:none;fill-rule:nonzero;fill:rgb(51.368713%,64.309692%,45.098877%);fill-opacity:1;" d="M 135.230469 -45.058594 C 132.203125 -51.5 128.019531 -57.074219 122.6875 -61.785156 C 120.964844 -63.246094 119.15625 -64.59375 117.261719 -65.824219 C 115.367188 -67.054688 113.402344 -68.160156 111.367188 -69.140625 C 109.332031 -70.121094 107.242188 -70.964844 105.097656 -71.675781 C 102.953125 -72.386719 100.769531 -72.957031 98.554688 -73.386719 C 96.335938 -73.816406 94.101562 -74.105469 91.847656 -74.25 C 89.59375 -74.390625 87.339844 -74.390625 85.082031 -74.246094 C 82.828125 -74.097656 80.59375 -73.808594 78.378906 -73.378906 C 76.160156 -72.945312 73.980469 -72.371094 71.839844 -71.660156 C 60.085938 -67.59375 50.199219 -59.574219 40.816406 -51.398438 C 25.390625 -38.0625 10.03125 -24.167969 -0.242188 -6.496094 C -13.773438 16.890625 -17.261719 44.9375 -30.019531 68.753906 C -31.898438 72.628906 -34.191406 76.242188 -36.894531 79.589844 C -39.597656 82.941406 -42.644531 85.941406 -46.035156 88.597656 C -56.890625 96.441406 -70.847656 98.027344 -83.632812 101.921875 C -133.554688 117.03125 -161.320312 175.011719 -117.949219 213.78125 C -114.671875 216.65625 -111.234375 219.324219 -107.636719 221.789062 C -104.039062 224.25 -100.304688 226.488281 -96.4375 228.5 C -92.570312 230.511719 -88.597656 232.285156 -84.519531 233.820312 C -80.4375 235.355469 -76.28125 236.640625 -72.046875 237.675781 C -67.8125 238.707031 -63.53125 239.484375 -59.203125 240.003906 C -54.875 240.523438 -50.53125 240.78125 -46.171875 240.78125 C -41.816406 240.777344 -37.472656 240.511719 -33.144531 239.988281 C -28.820312 239.460938 -24.539062 238.679688 -20.308594 237.636719 C -16.097656 236.519531 -11.972656 235.152344 -7.929688 233.539062 C -3.882812 231.925781 0.046875 230.074219 3.871094 227.984375 C 7.691406 225.898438 11.375 223.589844 14.917969 221.058594 C 18.460938 218.527344 21.839844 215.792969 25.054688 212.859375 C 28.269531 209.921875 31.296875 206.800781 34.136719 203.5 C 36.976562 200.199219 39.609375 196.742188 42.035156 193.125 C 44.457031 189.503906 46.65625 185.753906 48.628906 181.875 C 50.601562 177.992188 52.335938 174.003906 53.828125 169.914062 C 55.355469 163.300781 62.367188 159.273438 69.128906 158.5 C 75.890625 157.730469 82.617188 159.335938 89.394531 159.871094 C 92.191406 160.089844 94.992188 160.121094 97.792969 159.96875 C 100.597656 159.8125 103.375 159.472656 106.132812 158.945312 C 108.886719 158.417969 111.597656 157.707031 114.257812 156.820312 C 116.921875 155.929688 119.511719 154.867188 122.03125 153.632812 C 124.550781 152.394531 126.976562 150.996094 129.308594 149.4375 C 131.640625 147.875 133.855469 146.167969 135.960938 144.308594 C 138.0625 142.453125 140.035156 140.460938 141.871094 138.339844 C 143.707031 136.21875 145.394531 133.984375 146.933594 131.636719 C 148.472656 129.292969 149.847656 126.851562 151.058594 124.320312 C 152.273438 121.789062 153.308594 119.1875 154.175781 116.519531 C 155.039062 113.847656 155.71875 111.132812 156.222656 108.371094 C 156.722656 105.609375 157.035156 102.828125 157.164062 100.023438 C 157.292969 97.21875 157.234375 94.417969 156.988281 91.625 C 156.742188 88.828125 156.3125 86.058594 155.695312 83.320312 C 155.082031 80.582031 154.285156 77.898438 153.308594 75.265625 C 152.335938 72.632812 151.1875 70.078125 149.871094 67.597656 C 142.902344 54.46875 131.074219 43.136719 129.578125 28.351562 C 128.160156 14.246094 136.613281 1.183594 139.363281 -12.726562 C 139.882812 -15.445312 140.183594 -18.1875 140.269531 -20.953125 C 140.351562 -23.71875 140.21875 -26.476562 139.867188 -29.222656 C 139.515625 -31.964844 138.953125 -34.667969 138.175781 -37.324219 C 137.398438 -39.976562 136.417969 -42.558594 135.230469 -45.058594 Z M 135.230469 -45.058594 "/>
</g>
</g>
</g>
<g clip-path="url(#clip4)" clip-rule="nonzero">
<path style=" stroke:none;fill-rule:nonzero;fill:rgb(90.979004%,80.778503%,74.899292%);fill-opacity:1;" d="M -10.691406 143.003906 C 5.53125 141.335938 24.074219 140.757812 38.722656 140.378906 L 37.941406 140.378906 C 38.988281 140.378906 81.304688 139.855469 82.527344 139.8125 C 63.378906 147.558594 37.738281 148.824219 17.085938 148.460938 C 9.0625 148.339844 -3.085938 145.402344 -10.691406 143.003906 Z M -10.691406 143.003906 "/>
</g>
<path style=" stroke:none;fill-rule:nonzero;fill:rgb(90.979004%,80.778503%,74.899292%);fill-opacity:1;" d="M -33.683594 129.308594 C -22.835938 128.554688 105.910156 122.050781 108.582031 121.957031 C 105.613281 124.984375 104.621094 126.574219 96.488281 132.042969 C 94.015625 132.191406 52.332031 134.050781 48.597656 134.199219 L 49.402344 134.199219 C 30.753906 134.640625 2.855469 136.621094 -17.503906 140.488281 C -23.375 137.914062 -27.40625 134.613281 -33.683594 129.308594 Z M -33.683594 129.308594 "/>
<path style=" stroke:none;fill-rule:nonzero;fill:rgb(90.979004%,80.778503%,74.899292%);fill-opacity:1;" d="M -54.992188 105.648438 C -40.628906 104.609375 -35.484375 104.300781 -18.550781 104.015625 C -16.347656 104.015625 113.019531 106.066406 120.476562 106.28125 C 118.007812 110.386719 115.269531 114.304688 112.265625 118.035156 C 43.933594 117.808594 41.207031 118.722656 22.234375 118.9375 L 23.160156 118.9375 C 19.546875 119.019531 -40.710938 121.402344 -41.730469 121.457031 C -47.898438 114.898438 -50.773438 111.882812 -54.992188 105.648438 Z M -54.992188 105.648438 "/>
<path style=" stroke:none;fill-rule:nonzero;fill:rgb(90.979004%,80.778503%,74.899292%);fill-opacity:1;" d="M -63.445312 91.425781 C -54.820312 91.128906 18.011719 88.730469 29.636719 88.382812 L 29.410156 88.382812 C 34.957031 88.234375 128.605469 86.1875 128.765625 86.171875 C 127.636719 90.25 126.164062 94.195312 124.347656 98.011719 C 82.769531 96.972656 -17.636719 98.726562 -17.785156 98.726562 L -17.460938 98.726562 C -28.023438 99.019531 -42.066406 100.070312 -57.414062 101.957031 C -57.5625 101.753906 -62.277344 94.226562 -63.445312 91.425781 Z M -63.445312 91.425781 "/>
<path style=" stroke:none;fill-rule:nonzero;fill:rgb(90.979004%,80.778503%,74.899292%);fill-opacity:1;" d="M -68.632812 70.027344 C -66.46875 70.121094 -58.125 69.945312 -55.8125 69.878906 L -56.390625 69.878906 L -49.1875 69.730469 L -49.660156 69.730469 C 2.574219 68.746094 6.496094 70.699219 46.234375 70.539062 C 52.480469 70.539062 126.027344 70.308594 131.910156 70.308594 C 131.855469 74.402344 131.195312 78.390625 129.921875 82.28125 C 102.738281 82.28125 53.003906 80.046875 -57.949219 83.25 L -56.863281 83.25 C -59.96875 83.332031 -63.074219 83.425781 -66.175781 83.535156 C -67.371094 79.101562 -68.191406 74.597656 -68.632812 70.027344 Z M -68.632812 70.027344 "/>
<path style=" stroke:none;fill-rule:nonzero;fill:rgb(90.979004%,80.778503%,74.899292%);fill-opacity:1;" d="M -68.875 54.417969 C -63.632812 54.417969 129.128906 54.578125 131.523438 54.566406 C 131.84375 58.109375 131.777344 58.1875 131.882812 61.769531 C 126.214844 61.769531 83.65625 61.972656 80.605469 62.054688 L 80.808594 62.054688 L 79.707031 62.054688 L 80.09375 62.054688 C 75.984375 62.148438 71.886719 62.269531 67.785156 62.378906 L 68.863281 62.378906 L 67.71875 62.378906 L 67.828125 62.378906 C 11.859375 63.859375 -7.574219 62.621094 -34.042969 64.113281 C -39.5 64.4375 -68.484375 66.308594 -68.914062 66.324219 C -69.125 62.355469 -69.109375 58.386719 -68.875 54.417969 Z M -68.875 54.417969 "/>
<path style=" stroke:none;fill-rule:nonzero;fill:rgb(90.979004%,80.778503%,74.899292%);fill-opacity:1;" d="M -66.253906 37.410156 C -65.273438 37.328125 0.625 34.203125 7.234375 34.015625 C 39.847656 33.113281 128.902344 36.707031 129.050781 36.707031 C 130.496094 41.132812 131.234375 45.667969 131.265625 50.324219 C 131.132812 50.324219 -6.902344 45.785156 -68 45.921875 C -67.800781 44.722656 -66.644531 39 -66.253906 37.410156 Z M -66.253906 37.410156 "/>
<path style=" stroke:none;fill-rule:nonzero;fill:rgb(90.979004%,80.778503%,74.899292%);fill-opacity:1;" d="M -58.488281 18.691406 C -27.929688 14.960938 44.835938 15.269531 49.96875 15.160156 C 54.886719 15.066406 118.863281 13.597656 121.632812 13.558594 C 123.703125 18.503906 125.449219 23.5625 126.871094 28.734375 C 96.570312 26.796875 32.957031 26.527344 16.683594 27.132812 C -2.773438 27.847656 -48.035156 31.171875 -65.074219 33.058594 C -61.523438 22.097656 -58.40625 18.554688 -58.488281 18.691406 Z M -58.488281 18.691406 "/>
<path style=" stroke:none;fill-rule:nonzero;fill:rgb(90.979004%,80.778503%,74.899292%);fill-opacity:1;" d="M -42.269531 -0.191406 C -39.78125 -2.65625 -37.378906 -4.742188 -37.511719 -4.621094 C -21.789062 -2.128906 15.59375 -3.4375 33.601562 -2.992188 C 78.066406 -1.886719 63.445312 -4.488281 112.238281 -2.035156 C 117.210938 4.28125 118.246094 6.367188 119.804688 9.519531 C 80.929688 8.722656 64.078125 9.007812 54.699219 9.15625 C 30.160156 9.546875 -22.140625 7.996094 -52.304688 11.121094 C -47.5625 5.695312 -44.175781 1.695312 -42.269531 -0.191406 Z M -42.269531 -0.191406 "/>
<g clip-path="url(#clip5)" clip-rule="nonzero">
<g clip-path="url(#clip6)" clip-rule="nonzero">
<g clip-path="url(#clip7)" clip-rule="nonzero">
<path style=" stroke:none;fill-rule:nonzero;fill:rgb(14.898682%,38.038635%,31.369019%);fill-opacity:1;" d="M 256.695312 103.484375 C 257.523438 102.824219 258.382812 102.214844 259.28125 101.65625 C 264.082031 99.050781 269.085938 96.925781 274.292969 95.277344 C 296.753906 86.683594 316.789062 66.492188 316.6875 42.398438 C 316.691406 29.445312 311.011719 17.25 305.371094 5.453125 C 295.253906 -16.179688 282.660156 -40.085938 259.699219 -47.667969 C 241.574219 -53.589844 221.511719 -47.441406 202.714844 -50.890625 C 186.296875 -53.839844 168.640625 -64.828125 151.789062 -58.839844 C 132.691406 -52.015625 113.242188 -25.449219 104.511719 -7.910156 C 94.828125 11.574219 93.242188 36.679688 106.328125 54.113281 C 113.761719 64.007812 125.015625 70.363281 136.316406 75.417969 C 139.519531 76.574219 142.417969 78.257812 145.007812 80.460938 C 148.714844 84.125 149.964844 89.414062 151.628906 94.417969 C 152.015625 95.507812 152.4375 96.585938 152.894531 97.652344 C 153.347656 98.714844 153.835938 99.765625 154.355469 100.800781 C 154.875 101.835938 155.425781 102.855469 156.011719 103.855469 C 156.59375 104.855469 157.207031 105.839844 157.847656 106.804688 C 158.492188 107.765625 159.164062 108.710938 159.867188 109.632812 C 160.570312 110.554688 161.296875 111.453125 162.054688 112.332031 C 162.8125 113.207031 163.59375 114.0625 164.40625 114.890625 C 165.214844 115.71875 166.050781 116.523438 166.910156 117.300781 C 167.769531 118.078125 168.648438 118.828125 169.554688 119.550781 C 170.460938 120.277344 171.386719 120.972656 172.335938 121.636719 C 173.285156 122.304688 174.253906 122.941406 175.238281 123.546875 C 176.226562 124.152344 177.234375 124.730469 178.253906 125.273438 C 179.277344 125.820312 180.316406 126.332031 181.371094 126.8125 C 182.425781 127.292969 183.496094 127.742188 184.578125 128.15625 C 185.660156 128.570312 186.753906 128.953125 187.859375 129.296875 C 188.964844 129.644531 190.078125 129.960938 191.203125 130.238281 C 192.328125 130.515625 193.460938 130.761719 194.601562 130.96875 C 195.738281 131.179688 196.886719 131.351562 198.035156 131.492188 C 199.1875 131.628906 200.339844 131.730469 201.496094 131.796875 C 202.652344 131.867188 203.808594 131.898438 204.96875 131.894531 C 206.125 131.890625 207.285156 131.847656 208.4375 131.773438 C 209.59375 131.699219 210.746094 131.585938 211.894531 131.441406 C 213.042969 131.292969 214.1875 131.113281 215.324219 130.894531 C 216.460938 130.679688 217.59375 130.425781 218.714844 130.140625 C 219.835938 129.851562 220.949219 129.53125 222.050781 129.175781 C 223.152344 128.820312 224.242188 128.429688 225.320312 128.007812 C 226.394531 127.585938 227.460938 127.128906 228.507812 126.640625 C 229.558594 126.152344 230.589844 125.632812 231.609375 125.082031 C 232.625 124.53125 233.625 123.945312 234.605469 123.332031 C 235.585938 122.71875 236.546875 122.074219 237.488281 121.402344 C 238.429688 120.730469 239.351562 120.027344 240.246094 119.296875 C 241.144531 118.566406 242.019531 117.8125 242.871094 117.027344 C 247.605469 112.652344 251.613281 107.40625 256.695312 103.484375 Z M 256.695312 103.484375 "/>
</g>
</g>
</g>
<g clip-path="url(#clip8)" clip-rule="nonzero">
<g clip-path="url(#clip9)" clip-rule="nonzero">
<g clip-path="url(#clip10)" clip-rule="nonzero">
<path style=" stroke:none;fill-rule:nonzero;fill:rgb(96.859741%,56.079102%,52.938843%);fill-opacity:1;" d="M 404.640625 223.039062 C 396.074219 228.722656 386.792969 232.75 376.789062 235.125 C 374.117188 235.726562 371.414062 236.027344 368.675781 236.019531 C 365.9375 236.011719 363.234375 235.699219 360.566406 235.082031 C 357.898438 234.464844 355.335938 233.554688 352.871094 232.359375 C 350.410156 231.160156 348.109375 229.707031 345.976562 227.988281 C 336.351562 219.523438 333.90625 205.203125 336.082031 192.554688 C 339.164062 180.085938 343.773438 168.210938 349.902344 156.925781 C 351.226562 154.699219 352.140625 152.3125 352.644531 149.773438 C 353.148438 147.230469 353.214844 144.679688 352.839844 142.113281 C 350.640625 133.734375 340.546875 130.730469 332.117188 128.539062 C 327.019531 127.449219 322.097656 125.835938 317.34375 123.695312 C 312.589844 121.558594 308.117188 118.941406 303.917969 115.847656 C 301.859375 114.269531 300.007812 112.476562 298.359375 110.46875 C 296.710938 108.460938 295.3125 106.292969 294.164062 103.964844 C 293.015625 101.636719 292.144531 99.210938 291.554688 96.683594 C 290.960938 94.15625 290.664062 91.59375 290.660156 88.996094 C 291.601562 72.113281 308.582031 58.523438 307.285156 41.59375 C 305.949219 26.496094 290.847656 17.105469 277.90625 9.214844 C 246.933594 -9.8125 243.003906 -48.382812 276.679688 -67.402344 C 279.207031 -69.019531 281.871094 -70.367188 284.671875 -71.441406 C 287.476562 -72.511719 290.355469 -73.292969 293.320312 -73.777344 C 296.28125 -74.261719 299.261719 -74.441406 302.257812 -74.320312 C 305.257812 -74.195312 308.210938 -73.769531 311.125 -73.042969 C 323.511719 -68.957031 331.777344 -57.480469 339.179688 -46.726562 C 378.710938 11.136719 418.253906 68.945312 457.808594 126.699219 C 464.707031 136.769531 471.910156 148.054688 470.546875 160.183594 C 469.179688 172.316406 459.945312 181.5625 450.769531 189.429688 C 436.804688 201.386719 422.003906 212.199219 406.371094 221.867188 Z M 404.640625 223.039062 "/>
</g>
</g>
</g>
<g clip-path="url(#clip11)" clip-rule="nonzero">
<g clip-path="url(#clip12)" clip-rule="nonzero">
<g clip-path="url(#clip13)" clip-rule="nonzero">
<path style=" stroke:none;fill-rule:nonzero;fill:rgb(100%,100%,100%);fill-opacity:1;" d="M 256.921875 26.421875 C 257.125 24.875 258.394531 23.445312 259.9375 23.652344 C 261.480469 23.855469 262.574219 25.601562 262.371094 27.144531 C 262.164062 28.6875 260.722656 29.554688 259.179688 29.347656 C 257.636719 29.144531 256.714844 27.960938 256.921875 26.421875 "/>
</g>
</g>
</g>
<g clip-path="url(#clip14)" clip-rule="nonzero">
<g clip-path="url(#clip15)" clip-rule="nonzero">
<g clip-path="url(#clip16)" clip-rule="nonzero">
<path style=" stroke:none;fill-rule:nonzero;fill:rgb(100%,100%,100%);fill-opacity:1;" d="M 293.226562 68.210938 C 293.433594 66.667969 294.742188 65.785156 296.285156 65.992188 C 297.832031 66.195312 298.972656 67.40625 298.769531 68.949219 C 298.5625 70.488281 297.148438 71.328125 295.601562 71.121094 C 294.058594 70.917969 293.023438 69.753906 293.226562 68.210938 "/>
</g>
</g>
</g>
<g clip-path="url(#clip17)" clip-rule="nonzero">
<g clip-path="url(#clip18)" clip-rule="nonzero">
<g clip-path="url(#clip19)" clip-rule="nonzero">
<path style=" stroke:none;fill-rule:nonzero;fill:rgb(100%,100%,100%);fill-opacity:1;" d="M 310.078125 24.074219 C 310.28125 22.53125 312.019531 21.550781 313.5625 21.753906 C 315.109375 21.960938 316.28125 23.328125 316.078125 24.875 C 315.875 26.414062 314.40625 27.246094 312.863281 27.042969 C 311.320312 26.835938 309.871094 25.617188 310.078125 24.074219 "/>
</g>
</g>
</g>
<g clip-path="url(#clip20)" clip-rule="nonzero">
<g clip-path="url(#clip21)" clip-rule="nonzero">
<g clip-path="url(#clip22)" clip-rule="nonzero">
<path style=" stroke:none;fill-rule:nonzero;fill:rgb(100%,100%,100%);fill-opacity:1;" d="M 322.242188 10.144531 C 322.449219 8.597656 323.894531 7.433594 325.441406 7.640625 C 326.984375 7.847656 328.398438 9.390625 328.191406 10.933594 C 327.988281 12.480469 326.261719 13.300781 324.71875 13.097656 C 323.171875 12.890625 322.039062 11.6875 322.242188 10.144531 "/>
</g>
</g>
</g>
<g clip-path="url(#clip23)" clip-rule="nonzero">
<g clip-path="url(#clip24)" clip-rule="nonzero">
<g clip-path="url(#clip25)" clip-rule="nonzero">
<path style=" stroke:none;fill-rule:nonzero;fill:rgb(100%,100%,100%);fill-opacity:1;" d="M 320.253906 97.460938 C 320.460938 95.917969 321.816406 94.855469 323.363281 95.058594 C 324.90625 95.265625 326.304688 96.695312 326.097656 98.238281 C 325.894531 99.78125 324.195312 100.621094 322.652344 100.414062 C 321.105469 100.210938 320.050781 99.003906 320.253906 97.460938 "/>
</g>
</g>
</g>
<g clip-path="url(#clip26)" clip-rule="nonzero">
<g clip-path="url(#clip27)" clip-rule="nonzero">
<g clip-path="url(#clip28)" clip-rule="nonzero">
<path style=" stroke:none;fill-rule:nonzero;fill:rgb(100%,100%,100%);fill-opacity:1;" d="M 343.757812 90.398438 C 343.964844 88.855469 345.332031 87.933594 346.878906 88.140625 C 348.421875 88.34375 349.78125 89.628906 349.578125 91.171875 C 349.371094 92.714844 347.695312 93.789062 346.152344 93.582031 C 344.609375 93.375 343.554688 91.941406 343.757812 90.398438 "/>
</g>
</g>
</g>
<g clip-path="url(#clip29)" clip-rule="nonzero">
<g clip-path="url(#clip30)" clip-rule="nonzero">
<g clip-path="url(#clip31)" clip-rule="nonzero">
<path style=" stroke:none;fill-rule:nonzero;fill:rgb(100%,100%,100%);fill-opacity:1;" d="M 252.304688 73.019531 C 252.507812 71.480469 253.796875 70.292969 255.339844 70.5 C 256.882812 70.703125 257.761719 72.175781 257.554688 73.71875 C 257.351562 75.261719 256.101562 76.585938 254.558594 76.382812 C 253.015625 76.175781 252.101562 74.566406 252.304688 73.019531 "/>
</g>
</g>
</g>
<g clip-path="url(#clip32)" clip-rule="nonzero">
<g clip-path="url(#clip33)" clip-rule="nonzero">
<g clip-path="url(#clip34)" clip-rule="nonzero">
<path style=" stroke:none;fill-rule:nonzero;fill:rgb(100%,100%,100%);fill-opacity:1;" d="M 198.25 59.089844 C 198.453125 57.546875 200.046875 56.203125 201.59375 56.40625 C 203.136719 56.613281 204.402344 58.335938 204.199219 59.878906 C 203.992188 61.425781 202.382812 62.257812 200.839844 62.054688 C 199.296875 61.847656 198.042969 60.632812 198.25 59.089844 "/>
</g>
</g>
</g>
<g clip-path="url(#clip35)" clip-rule="nonzero">
<g clip-path="url(#clip36)" clip-rule="nonzero">
<g clip-path="url(#clip37)" clip-rule="nonzero">
<path style=" stroke:none;fill-rule:nonzero;fill:rgb(100%,100%,100%);fill-opacity:1;" d="M 308.40625 74.046875 C 308.609375 72.5 309.820312 71.40625 311.363281 71.609375 C 312.910156 71.816406 314.070312 73.226562 313.867188 74.769531 C 313.660156 76.3125 312.171875 77.371094 310.625 77.164062 C 309.082031 76.960938 308.199219 75.585938 308.40625 74.046875 "/>
</g>
</g>
</g>
<g clip-path="url(#clip38)" clip-rule="nonzero">
<g clip-path="url(#clip39)" clip-rule="nonzero">
<g clip-path="url(#clip40)" clip-rule="nonzero">
<path style=" stroke:none;fill-rule:nonzero;fill:rgb(100%,100%,100%);fill-opacity:1;" d="M 333.828125 23.234375 C 334.03125 21.695312 335.117188 20.660156 336.660156 20.863281 C 338.207031 21.070312 339.148438 22.375 338.945312 23.914062 C 338.738281 25.457031 337.476562 26.570312 335.929688 26.367188 C 334.386719 26.160156 333.621094 24.777344 333.828125 23.234375 "/>
</g>
</g>
</g>
<g clip-path="url(#clip41)" clip-rule="nonzero">
<g clip-path="url(#clip42)" clip-rule="nonzero">
<g clip-path="url(#clip43)" clip-rule="nonzero">
<path style=" stroke:none;fill-rule:nonzero;fill:rgb(100%,100%,100%);fill-opacity:1;" d="M 274.855469 28.804688 C 275.058594 27.261719 276.648438 26.023438 278.191406 26.226562 C 279.738281 26.433594 280.90625 28.039062 280.699219 29.582031 C 280.496094 31.125 279.007812 31.933594 277.460938 31.726562 C 275.917969 31.523438 274.648438 30.347656 274.855469 28.804688 "/>
</g>
</g>
</g>
<g clip-path="url(#clip44)" clip-rule="nonzero">
<g clip-path="url(#clip45)" clip-rule="nonzero">
<g clip-path="url(#clip46)" clip-rule="nonzero">
<path style=" stroke:none;fill-rule:nonzero;fill:rgb(100%,100%,100%);fill-opacity:1;" d="M 279.132812 57.632812 C 279.339844 56.089844 280.507812 54.757812 282.054688 54.964844 C 283.597656 55.167969 284.339844 56.753906 284.136719 58.296875 C 283.929688 59.839844 282.820312 61.015625 281.277344 60.808594 C 279.730469 60.605469 278.929688 59.175781 279.132812 57.632812 "/>
</g>
</g>
</g>
<g clip-path="url(#clip47)" clip-rule="nonzero">
<g clip-path="url(#clip48)" clip-rule="nonzero">
<g clip-path="url(#clip49)" clip-rule="nonzero">
<path style=" stroke:none;fill-rule:nonzero;fill:rgb(100%,100%,100%);fill-opacity:1;" d="M 270.863281 6.472656 C 271.070312 4.933594 272.28125 3.757812 273.824219 3.960938 C 275.371094 4.167969 276.648438 5.671875 276.445312 7.214844 C 276.238281 8.757812 274.59375 10.03125 273.046875 9.824219 C 271.503906 9.617188 270.660156 8.015625 270.863281 6.472656 "/>
</g>
</g>
</g>
<g clip-path="url(#clip50)" clip-rule="nonzero">
<g clip-path="url(#clip51)" clip-rule="nonzero">
<g clip-path="url(#clip52)" clip-rule="nonzero">
<path style=" stroke:none;fill-rule:nonzero;fill:rgb(100%,100%,100%);fill-opacity:1;" d="M 248.152344 -0.578125 C 248.359375 -2.125 249.734375 -3.261719 251.28125 -3.054688 C 252.824219 -2.851562 254.148438 -1.355469 253.945312 0.191406 C 253.738281 1.730469 252.050781 2.953125 250.507812 2.746094 C 248.960938 2.539062 247.949219 0.960938 248.152344 -0.578125 "/>
</g>
</g>
</g>
<g clip-path="url(#clip53)" clip-rule="nonzero">
<g clip-path="url(#clip54)" clip-rule="nonzero">
<g clip-path="url(#clip55)" clip-rule="nonzero">
<path style=" stroke:none;fill-rule:nonzero;fill:rgb(100%,100%,100%);fill-opacity:1;" d="M 359.472656 99.746094 C 359.679688 98.203125 361.339844 97.296875 362.882812 97.503906 C 364.429688 97.710938 365.394531 98.960938 365.191406 100.503906 C 364.988281 102.046875 363.699219 103.214844 362.152344 103.007812 C 360.609375 102.804688 359.269531 101.285156 359.472656 99.746094 "/>
</g>
</g>
</g>
<g clip-path="url(#clip56)" clip-rule="nonzero">
<g clip-path="url(#clip57)" clip-rule="nonzero">
<g clip-path="url(#clip58)" clip-rule="nonzero">
<path style=" stroke:none;fill-rule:nonzero;fill:rgb(100%,100%,100%);fill-opacity:1;" d="M 271.980469 72.386719 C 272.1875 70.839844 273.644531 69.769531 275.191406 69.972656 C 276.734375 70.179688 277.484375 71.546875 277.277344 73.089844 C 277.074219 74.632812 276 75.703125 274.457031 75.496094 C 272.910156 75.289062 271.773438 73.929688 271.980469 72.386719 "/>
</g>
</g>
</g>
<g clip-path="url(#clip59)" clip-rule="nonzero">
<g clip-path="url(#clip60)" clip-rule="nonzero">
<g clip-path="url(#clip61)" clip-rule="nonzero">
<path style=" stroke:none;fill-rule:nonzero;fill:rgb(100%,100%,100%);fill-opacity:1;" d="M 305.964844 56.640625 C 306.171875 55.101562 307.488281 54.117188 309.035156 54.324219 C 310.578125 54.527344 311.957031 55.871094 311.75 57.410156 C 311.546875 58.957031 309.878906 59.785156 308.335938 59.582031 C 306.789062 59.375 305.761719 58.1875 305.964844 56.640625 "/>
</g>
</g>
</g>
<g clip-path="url(#clip62)" clip-rule="nonzero">
<g clip-path="url(#clip63)" clip-rule="nonzero">
<g clip-path="url(#clip64)" clip-rule="nonzero">
<path style=" stroke:none;fill-rule:nonzero;fill:rgb(100%,100%,100%);fill-opacity:1;" d="M 254.453125 39.957031 C 254.65625 38.417969 256.207031 37.589844 257.753906 37.796875 C 259.296875 38 260.210938 39.152344 260.003906 40.695312 C 259.800781 42.238281 258.621094 43.074219 257.078125 42.867188 C 255.53125 42.664062 254.246094 41.5 254.453125 39.957031 "/>
</g>
</g>
</g>
<g clip-path="url(#clip65)" clip-rule="nonzero">
<g clip-path="url(#clip66)" clip-rule="nonzero">
<g clip-path="url(#clip67)" clip-rule="nonzero">
<path style=" stroke:none;fill-rule:nonzero;fill:rgb(100%,100%,100%);fill-opacity:1;" d="M 239.609375 15.238281 C 239.8125 13.691406 241.167969 12.457031 242.710938 12.660156 C 244.257812 12.867188 245.222656 14.410156 245.019531 15.957031 C 244.8125 17.5 243.523438 18.410156 241.976562 18.203125 C 240.433594 18 239.402344 16.78125 239.609375 15.238281 "/>
</g>
</g>
</g>
<g clip-path="url(#clip68)" clip-rule="nonzero">
<g clip-path="url(#clip69)" clip-rule="nonzero">
<g clip-path="url(#clip70)" clip-rule="nonzero">
<path style=" stroke:none;fill-rule:nonzero;fill:rgb(100%,100%,100%);fill-opacity:1;" d="M 290.253906 46.871094 C 290.460938 45.328125 291.816406 44.296875 293.359375 44.503906 C 294.90625 44.707031 295.769531 46.035156 295.5625 47.578125 C 295.359375 49.121094 294.140625 50.464844 292.59375 50.261719 C 291.050781 50.054688 290.050781 48.414062 290.253906 46.871094 "/>
</g>
</g>
</g>
<g clip-path="url(#clip71)" clip-rule="nonzero">
<g clip-path="url(#clip72)" clip-rule="nonzero">
<g clip-path="url(#clip73)" clip-rule="nonzero">
<path style=" stroke:none;fill-rule:nonzero;fill:rgb(100%,100%,100%);fill-opacity:1;" d="M 342.890625 60.941406 C 343.09375 59.398438 344.210938 58.195312 345.753906 58.398438 C 347.300781 58.605469 348.660156 60.136719 348.453125 61.679688 C 348.25 63.222656 346.535156 64.359375 344.988281 64.15625 C 343.445312 63.949219 342.6875 62.480469 342.890625 60.941406 "/>
</g>
</g>
</g>
<g clip-path="url(#clip74)" clip-rule="nonzero">
<g clip-path="url(#clip75)" clip-rule="nonzero">
<g clip-path="url(#clip76)" clip-rule="nonzero">
<path style=" stroke:none;fill-rule:nonzero;fill:rgb(100%,100%,100%);fill-opacity:1;" d="M 328.1875 51.269531 C 328.390625 49.726562 329.703125 48.363281 331.246094 48.570312 C 332.789062 48.773438 333.753906 50.441406 333.546875 51.980469 C 333.34375 53.527344 331.992188 54.792969 330.445312 54.589844 C 328.902344 54.382812 327.980469 52.8125 328.1875 51.269531 "/>
</g>
</g>
</g>
<g clip-path="url(#clip77)" clip-rule="nonzero">
<g clip-path="url(#clip78)" clip-rule="nonzero">
<g clip-path="url(#clip79)" clip-rule="nonzero">
<path style=" stroke:none;fill-rule:nonzero;fill:rgb(100%,100%,100%);fill-opacity:1;" d="M 258.609375 13.8125 C 258.8125 12.273438 260.054688 11.21875 261.597656 11.425781 C 263.140625 11.628906 264.035156 12.964844 263.828125 14.507812 C 263.625 16.050781 262.4375 16.925781 260.894531 16.71875 C 259.351562 16.515625 258.40625 15.355469 258.609375 13.8125 "/>
</g>
</g>
</g>
<g clip-path="url(#clip80)" clip-rule="nonzero">
<g clip-path="url(#clip81)" clip-rule="nonzero">
<g clip-path="url(#clip82)" clip-rule="nonzero">
<path style=" stroke:none;fill-rule:nonzero;fill:rgb(100%,100%,100%);fill-opacity:1;" d="M 309.660156 42.628906 C 309.867188 41.089844 311.609375 39.773438 313.152344 39.980469 C 314.699219 40.183594 315.453125 41.832031 315.246094 43.371094 C 315.042969 44.917969 313.914062 46.097656 312.367188 45.894531 C 310.824219 45.6875 309.457031 44.175781 309.660156 42.628906 "/>
</g>
</g>
</g>
<g clip-path="url(#clip83)" clip-rule="nonzero">
<g clip-path="url(#clip84)" clip-rule="nonzero">
<g clip-path="url(#clip85)" clip-rule="nonzero">
<path style=" stroke:none;fill-rule:nonzero;fill:rgb(100%,100%,100%);fill-opacity:1;" d="M 294.6875 33.5625 C 294.890625 32.019531 296.472656 30.925781 298.019531 31.128906 C 299.5625 31.335938 300.777344 32.800781 300.570312 34.34375 C 300.367188 35.886719 298.839844 36.777344 297.296875 36.574219 C 295.75 36.367188 294.480469 35.105469 294.6875 33.5625 "/>
</g>
</g>
</g>
<g clip-path="url(#clip86)" clip-rule="nonzero">
<g clip-path="url(#clip87)" clip-rule="nonzero">
<g clip-path="url(#clip88)" clip-rule="nonzero">
<path style=" stroke:none;fill-rule:nonzero;fill:rgb(100%,100%,100%);fill-opacity:1;" d="M 347.621094 108.605469 C 347.828125 107.0625 349.019531 105.867188 350.5625 106.070312 C 352.109375 106.277344 353.269531 107.785156 353.066406 109.328125 C 352.859375 110.871094 351.320312 112.207031 349.773438 112 C 348.230469 111.796875 347.417969 110.144531 347.621094 108.605469 "/>
</g>
</g>
</g>
<g clip-path="url(#clip89)" clip-rule="nonzero">
<g clip-path="url(#clip90)" clip-rule="nonzero">
<g clip-path="url(#clip91)" clip-rule="nonzero">
<path style=" stroke:none;fill-rule:nonzero;fill:rgb(100%,100%,100%);fill-opacity:1;" d="M 216.957031 52.585938 C 217.160156 51.042969 218.511719 49.964844 220.054688 50.167969 C 221.601562 50.375 222.46875 51.746094 222.265625 53.292969 C 222.058594 54.832031 220.886719 55.765625 219.339844 55.5625 C 217.796875 55.355469 216.75 54.128906 216.957031 52.585938 "/>
</g>
</g>
</g>
<g clip-path="url(#clip92)" clip-rule="nonzero">
<g clip-path="url(#clip93)" clip-rule="nonzero">
<g clip-path="url(#clip94)" clip-rule="nonzero">
<path style=" stroke:none;fill-rule:nonzero;fill:rgb(100%,100%,100%);fill-opacity:1;" d="M 205.097656 76.695312 C 205.300781 75.15625 206.488281 74.292969 208.03125 74.5 C 209.578125 74.703125 210.59375 75.859375 210.390625 77.398438 C 210.183594 78.945312 208.914062 79.703125 207.367188 79.5 C 205.824219 79.292969 204.890625 78.242188 205.097656 76.695312 "/>
</g>
</g>
</g>
<g clip-path="url(#clip95)" clip-rule="nonzero">
<g clip-path="url(#clip96)" clip-rule="nonzero">
<g clip-path="url(#clip97)" clip-rule="nonzero">
<path style=" stroke:none;fill-rule:nonzero;fill:rgb(100%,100%,100%);fill-opacity:1;" d="M 341.34375 75.785156 C 341.546875 74.242188 342.761719 72.851562 344.308594 73.054688 C 345.851562 73.261719 346.886719 74.953125 346.683594 76.496094 C 346.476562 78.039062 345.046875 79.300781 343.503906 79.097656 C 341.957031 78.890625 341.136719 77.328125 341.34375 75.785156 "/>
</g>
</g>
</g>
<g clip-path="url(#clip98)" clip-rule="nonzero">
<g clip-path="url(#clip99)" clip-rule="nonzero">
<g clip-path="url(#clip100)" clip-rule="nonzero">
<path style=" stroke:none;fill-rule:nonzero;fill:rgb(100%,100%,100%);fill-opacity:1;" d="M 218.625 30.699219 C 218.832031 29.15625 220.554688 28.039062 222.101562 28.242188 C 223.644531 28.449219 224.734375 29.941406 224.53125 31.484375 C 224.324219 33.027344 222.878906 34.210938 221.335938 34.003906 C 219.789062 33.800781 218.421875 32.242188 218.625 30.699219 "/>
</g>
</g>
</g>
<g clip-path="url(#clip101)" clip-rule="nonzero">
<g clip-path="url(#clip102)" clip-rule="nonzero">
<g clip-path="url(#clip103)" clip-rule="nonzero">
<path style=" stroke:none;fill-rule:nonzero;fill:rgb(100%,100%,100%);fill-opacity:1;" d="M 250.53125 60.671875 C 250.738281 59.128906 251.910156 58.042969 253.457031 58.246094 C 255.003906 58.453125 255.941406 59.820312 255.734375 61.363281 C 255.53125 62.90625 254.273438 63.933594 252.730469 63.730469 C 251.183594 63.523438 250.328125 62.214844 250.53125 60.671875 "/>
</g>
</g>
</g>
<g clip-path="url(#clip104)" clip-rule="nonzero">
<g clip-path="url(#clip105)" clip-rule="nonzero">
<g clip-path="url(#clip106)" clip-rule="nonzero">
<path style=" stroke:none;fill-rule:nonzero;fill:rgb(100%,100%,100%);fill-opacity:1;" d="M 308.125 88.878906 C 308.332031 87.335938 309.753906 86.328125 311.300781 86.53125 C 312.84375 86.738281 314.09375 88.101562 313.886719 89.644531 C 313.683594 91.1875 312.070312 92.554688 310.527344 92.351562 C 308.980469 92.144531 307.921875 90.421875 308.125 88.878906 "/>
</g>
</g>
</g>
<g clip-path="url(#clip107)" clip-rule="nonzero">
<g clip-path="url(#clip108)" clip-rule="nonzero">
<g clip-path="url(#clip109)" clip-rule="nonzero">
<path style=" stroke:none;fill-rule:nonzero;fill:rgb(100%,100%,100%);fill-opacity:1;" d="M 305.21875 10.082031 C 305.425781 8.539062 306.996094 7.289062 308.539062 7.496094 C 310.085938 7.703125 311.210938 9.304688 311.003906 10.851562 C 310.800781 12.390625 309.363281 13.144531 307.816406 12.9375 C 306.273438 12.734375 305.015625 11.621094 305.21875 10.082031 "/>
</g>
</g>
</g>
<g clip-path="url(#clip110)" clip-rule="nonzero">
<g clip-path="url(#clip111)" clip-rule="nonzero">
<g clip-path="url(#clip112)" clip-rule="nonzero">
<path style=" stroke:none;fill-rule:nonzero;fill:rgb(100%,100%,100%);fill-opacity:1;" d="M 365.824219 129.367188 C 366.027344 127.824219 367.371094 126.664062 368.914062 126.871094 C 370.460938 127.074219 371.761719 128.585938 371.558594 130.128906 C 371.351562 131.671875 369.722656 132.628906 368.179688 132.421875 C 366.636719 132.21875 365.617188 130.90625 365.824219 129.367188 "/>
</g>
</g>
</g>
<g clip-path="url(#clip113)" clip-rule="nonzero">
<g clip-path="url(#clip114)" clip-rule="nonzero">
<g clip-path="url(#clip115)" clip-rule="nonzero">
<path style=" stroke:none;fill-rule:nonzero;fill:rgb(100%,100%,100%);fill-opacity:1;" d="M 363.222656 58.105469 C 363.425781 56.5625 364.605469 55.109375 366.148438 55.316406 C 367.691406 55.519531 368.566406 57.246094 368.359375 58.789062 C 368.15625 60.332031 366.914062 61.371094 365.371094 61.164062 C 363.828125 60.960938 363.015625 59.648438 363.222656 58.105469 "/>
</g>
</g>
</g>
<g clip-path="url(#clip116)" clip-rule="nonzero">
<g clip-path="url(#clip117)" clip-rule="nonzero">
<g clip-path="url(#clip118)" clip-rule="nonzero">
<path style=" stroke:none;fill-rule:nonzero;fill:rgb(100%,100%,100%);fill-opacity:1;" d="M 219.839844 17.738281 C 220.042969 16.199219 221.460938 15.117188 223.003906 15.324219 C 224.550781 15.527344 225.8125 16.964844 225.609375 18.503906 C 225.402344 20.050781 223.835938 20.894531 222.289062 20.6875 C 220.746094 20.484375 219.632812 19.28125 219.839844 17.738281 "/>
</g>
</g>
</g>
<g clip-path="url(#clip119)" clip-rule="nonzero">
<g clip-path="url(#clip120)" clip-rule="nonzero">
<g clip-path="url(#clip121)" clip-rule="nonzero">
<path style=" stroke:none;fill-rule:nonzero;fill:rgb(100%,100%,100%);fill-opacity:1;" d="M 285.445312 2.769531 C 285.652344 1.226562 287.128906 0.480469 288.671875 0.683594 C 290.21875 0.890625 291.191406 1.960938 290.984375 3.507812 C 290.78125 5.046875 289.480469 6.429688 287.9375 6.222656 C 286.394531 6.019531 285.242188 4.3125 285.445312 2.769531 "/>
</g>
</g>
</g>
<g clip-path="url(#clip122)" clip-rule="nonzero">
<g clip-path="url(#clip123)" clip-rule="nonzero">
<g clip-path="url(#clip124)" clip-rule="nonzero">
<path style=" stroke:none;fill-rule:nonzero;fill:rgb(100%,100%,100%);fill-opacity:1;" d="M 286.351562 19.261719 C 286.554688 17.71875 288.324219 16.488281 289.867188 16.691406 C 291.414062 16.898438 292.386719 18.492188 292.183594 20.039062 C 291.976562 21.582031 290.660156 22.570312 289.113281 22.367188 C 287.570312 22.160156 286.144531 20.804688 286.351562 19.261719 "/>
</g>
</g>
</g>
<g clip-path="url(#clip125)" clip-rule="nonzero">
<g clip-path="url(#clip126)" clip-rule="nonzero">
<g clip-path="url(#clip127)" clip-rule="nonzero">
<path style=" stroke:none;fill-rule:nonzero;fill:rgb(100%,100%,100%);fill-opacity:1;" d="M 320.953125 66.300781 C 321.15625 64.757812 322.621094 63.8125 324.164062 64.019531 C 325.710938 64.222656 326.898438 65.519531 326.691406 67.0625 C 326.488281 68.605469 324.996094 69.589844 323.449219 69.386719 C 321.90625 69.179688 320.746094 67.839844 320.953125 66.300781 "/>
</g>
</g>
</g>
<g clip-path="url(#clip128)" clip-rule="nonzero">
<g clip-path="url(#clip129)" clip-rule="nonzero">
<g clip-path="url(#clip130)" clip-rule="nonzero">
<path style=" stroke:none;fill-rule:nonzero;fill:rgb(100%,100%,100%);fill-opacity:1;" d="M 368.289062 114.738281 C 368.496094 113.191406 369.855469 111.882812 371.398438 112.089844 C 372.945312 112.296875 374.246094 113.957031 374.039062 115.5 C 373.835938 117.042969 372.195312 117.953125 370.648438 117.746094 C 369.105469 117.542969 368.085938 116.277344 368.289062 114.738281 "/>
</g>
</g>
</g>
<g clip-path="url(#clip131)" clip-rule="nonzero">
<g clip-path="url(#clip132)" clip-rule="nonzero">
<g clip-path="url(#clip133)" clip-rule="nonzero">
<path style=" stroke:none;fill-rule:nonzero;fill:rgb(100%,100%,100%);fill-opacity:1;" d="M 358.707031 6.957031 C 358.910156 5.414062 360.328125 4.511719 361.875 4.714844 C 363.417969 4.921875 364.527344 6.160156 364.324219 7.703125 C 364.117188 9.246094 362.695312 10.332031 361.152344 10.128906 C 359.609375 9.921875 358.5 8.496094 358.707031 6.957031 "/>
</g>
</g>
</g>
<g clip-path="url(#clip134)" clip-rule="nonzero">
<g clip-path="url(#clip135)" clip-rule="nonzero">
<g clip-path="url(#clip136)" clip-rule="nonzero">
<path style=" stroke:none;fill-rule:nonzero;fill:rgb(100%,100%,100%);fill-opacity:1;" d="M 368.367188 158.097656 C 368.574219 156.550781 369.6875 155.535156 371.230469 155.742188 C 372.777344 155.945312 373.945312 157.265625 373.738281 158.808594 C 373.535156 160.351562 372.070312 161.265625 370.523438 161.058594 C 368.980469 160.851562 368.164062 159.636719 368.367188 158.097656 "/>
</g>
</g>
</g>
<g clip-path="url(#clip137)" clip-rule="nonzero">
<g clip-path="url(#clip138)" clip-rule="nonzero">
<g clip-path="url(#clip139)" clip-rule="nonzero">
<path style=" stroke:none;fill-rule:nonzero;fill:rgb(100%,100%,100%);fill-opacity:1;" d="M 214.421875 66.976562 C 214.628906 65.429688 216.242188 64.636719 217.789062 64.84375 C 219.332031 65.046875 220.515625 66.214844 220.3125 67.757812 C 220.105469 69.296875 218.578125 70.703125 217.035156 70.5 C 215.488281 70.292969 214.21875 68.515625 214.421875 66.976562 "/>
</g>
</g>
</g>
<g clip-path="url(#clip140)" clip-rule="nonzero">
<g clip-path="url(#clip141)" clip-rule="nonzero">
<g clip-path="url(#clip142)" clip-rule="nonzero">
<path style=" stroke:none;fill-rule:nonzero;fill:rgb(100%,100%,100%);fill-opacity:1;" d="M 357.53125 145.214844 C 357.738281 143.671875 359.34375 142.359375 360.886719 142.566406 C 362.429688 142.769531 363.289062 144.40625 363.082031 145.953125 C 362.878906 147.492188 361.664062 148.546875 360.121094 148.34375 C 358.574219 148.136719 357.328125 146.753906 357.53125 145.214844 "/>
</g>
</g>
</g>
<g clip-path="url(#clip143)" clip-rule="nonzero">
<g clip-path="url(#clip144)" clip-rule="nonzero">
<g clip-path="url(#clip145)" clip-rule="nonzero">
<path style=" stroke:none;fill-rule:nonzero;fill:rgb(100%,100%,100%);fill-opacity:1;" d="M 357.46875 72.292969 C 357.675781 70.746094 359.363281 70.035156 360.90625 70.238281 C 362.453125 70.445312 363.667969 71.542969 363.464844 73.085938 C 363.257812 74.628906 361.800781 75.359375 360.253906 75.15625 C 358.710938 74.949219 357.265625 73.832031 357.46875 72.292969 "/>
</g>
</g>
</g>
<g clip-path="url(#clip146)" clip-rule="nonzero">
<g clip-path="url(#clip147)" clip-rule="nonzero">
<g clip-path="url(#clip148)" clip-rule="nonzero">
<path style=" stroke:none;fill-rule:nonzero;fill:rgb(100%,100%,100%);fill-opacity:1;" d="M 238.148438 33.148438 C 238.355469 31.601562 239.632812 30.667969 241.175781 30.875 C 242.71875 31.078125 243.882812 32.339844 243.679688 33.882812 C 243.472656 35.421875 242.019531 36.367188 240.476562 36.164062 C 238.929688 35.957031 237.945312 34.6875 238.148438 33.148438 "/>
</g>
</g>
</g>
<g clip-path="url(#clip149)" clip-rule="nonzero">
<g clip-path="url(#clip150)" clip-rule="nonzero">
<g clip-path="url(#clip151)" clip-rule="nonzero">
<path style=" stroke:none;fill-rule:nonzero;fill:rgb(100%,100%,100%);fill-opacity:1;" d="M 290.136719 82.664062 C 290.34375 81.121094 292.039062 79.808594 293.585938 80.011719 C 295.128906 80.21875 295.949219 81.863281 295.746094 83.410156 C 295.539062 84.949219 294.34375 86.121094 292.800781 85.914062 C 291.253906 85.710938 289.933594 84.203125 290.136719 82.664062 "/>
</g>
</g>
</g>
<g clip-path="url(#clip152)" clip-rule="nonzero">
<g clip-path="url(#clip153)" clip-rule="nonzero">
<g clip-path="url(#clip154)" clip-rule="nonzero">
<path style=" stroke:none;fill-rule:nonzero;fill:rgb(100%,100%,100%);fill-opacity:1;" d="M 360.3125 23.863281 C 360.519531 22.320312 362.207031 21.511719 363.753906 21.71875 C 365.296875 21.921875 366.226562 23.078125 366.023438 24.621094 C 365.816406 26.164062 364.554688 27.507812 363.011719 27.304688 C 361.464844 27.097656 360.109375 25.40625 360.3125 23.863281 "/>
</g>
</g>
</g>
<g clip-path="url(#clip155)" clip-rule="nonzero">
<g clip-path="url(#clip156)" clip-rule="nonzero">
<g clip-path="url(#clip157)" clip-rule="nonzero">
<path style=" stroke:none;fill-rule:nonzero;fill:rgb(100%,100%,100%);fill-opacity:1;" d="M 326.957031 80.792969 C 327.160156 79.25 328.371094 78.433594 329.914062 78.640625 C 331.460938 78.84375 332.316406 79.9375 332.113281 81.476562 C 331.90625 83.019531 330.730469 84.316406 329.1875 84.113281 C 327.644531 83.90625 326.75 82.335938 326.957031 80.792969 "/>
</g>
</g>
</g>
<g clip-path="url(#clip158)" clip-rule="nonzero">
<g clip-path="url(#clip159)" clip-rule="nonzero">
<g clip-path="url(#clip160)" clip-rule="nonzero">
<path style=" stroke:none;fill-rule:nonzero;fill:rgb(100%,100%,100%);fill-opacity:1;" d="M 230.089844 44.675781 C 230.292969 43.136719 231.996094 42.191406 233.542969 42.394531 C 235.085938 42.601562 236.03125 43.898438 235.824219 45.4375 C 235.621094 46.980469 234.332031 48.277344 232.789062 48.074219 C 231.242188 47.867188 229.886719 46.21875 230.089844 44.675781 "/>
</g>
</g>
</g>
<g clip-path="url(#clip161)" clip-rule="nonzero">
<g clip-path="url(#clip162)" clip-rule="nonzero">
<g clip-path="url(#clip163)" clip-rule="nonzero">
<path style=" stroke:none;fill-rule:nonzero;fill:rgb(100%,100%,100%);fill-opacity:1;" d="M 323.558594 36.714844 C 323.765625 35.171875 325.40625 33.9375 326.953125 34.140625 C 328.496094 34.347656 329.285156 35.902344 329.078125 37.449219 C 328.875 38.988281 327.722656 40.171875 326.179688 39.96875 C 324.632812 39.761719 323.355469 38.253906 323.558594 36.714844 "/>
</g>
</g>
</g>
<g clip-path="url(#clip164)" clip-rule="nonzero">
<g clip-path="url(#clip165)" clip-rule="nonzero">
<g clip-path="url(#clip166)" clip-rule="nonzero">
<path style=" stroke:none;fill-rule:nonzero;fill:rgb(100%,100%,100%);fill-opacity:1;" d="M 346.949219 34.117188 C 347.15625 32.578125 348.761719 31.769531 350.308594 31.972656 C 351.851562 32.179688 352.976562 33.351562 352.773438 34.890625 C 352.566406 36.4375 351.15625 37.402344 349.613281 37.199219 C 348.066406 36.992188 346.746094 35.660156 346.949219 34.117188 "/>
</g>
</g>
</g>
<g clip-path="url(#clip167)" clip-rule="nonzero">
<g clip-path="url(#clip168)" clip-rule="nonzero">
<g clip-path="url(#clip169)" clip-rule="nonzero">
<path style=" stroke:none;fill-rule:nonzero;fill:rgb(100%,100%,100%);fill-opacity:1;" d="M 341.945312 10.929688 C 342.152344 9.386719 343.464844 8.242188 345.007812 8.449219 C 346.554688 8.652344 347.894531 10.148438 347.691406 11.695312 C 347.484375 13.234375 345.785156 14.449219 344.238281 14.246094 C 342.695312 14.039062 341.742188 12.472656 341.945312 10.929688 "/>
</g>
</g>
</g>
<g clip-path="url(#clip170)" clip-rule="nonzero">
<g clip-path="url(#clip171)" clip-rule="nonzero">
<g clip-path="url(#clip172)" clip-rule="nonzero">
<path style=" stroke:none;fill-rule:nonzero;fill:rgb(100%,100%,100%);fill-opacity:1;" d="M 328.40625 106.523438 C 328.613281 104.980469 330.183594 103.582031 331.726562 103.785156 C 333.273438 103.992188 334.167969 105.71875 333.964844 107.261719 C 333.757812 108.800781 332.453125 110.167969 330.90625 109.960938 C 329.363281 109.753906 328.203125 108.0625 328.40625 106.523438 "/>
</g>
</g>
</g>
<g clip-path="url(#clip173)" clip-rule="nonzero">
<g clip-path="url(#clip174)" clip-rule="nonzero">
<g clip-path="url(#clip175)" clip-rule="nonzero">
<path style=" stroke:none;fill-rule:nonzero;fill:rgb(100%,100%,100%);fill-opacity:1;" d="M 345.488281 47.652344 C 345.691406 46.113281 346.75 45.105469 348.296875 45.3125 C 349.839844 45.515625 350.710938 46.78125 350.507812 48.320312 C 350.300781 49.863281 349.121094 50.921875 347.578125 50.714844 C 346.03125 50.511719 345.28125 49.195312 345.488281 47.652344 "/>
</g>
</g>
</g>
<g clip-path="url(#clip176)" clip-rule="nonzero">
<g clip-path="url(#clip177)" clip-rule="nonzero">
<g clip-path="url(#clip178)" clip-rule="nonzero">
<path style=" stroke:none;fill-rule:nonzero;fill:rgb(100%,100%,100%);fill-opacity:1;" d="M 263.703125 51.328125 C 263.90625 49.789062 265.566406 49.050781 267.109375 49.257812 C 268.652344 49.464844 270.050781 50.605469 269.847656 52.148438 C 269.640625 53.691406 267.976562 54.550781 266.433594 54.34375 C 264.886719 54.140625 263.496094 52.875 263.703125 51.328125 "/>
</g>
</g>
</g>
<g clip-path="url(#clip179)" clip-rule="nonzero">
<g clip-path="url(#clip180)" clip-rule="nonzero">
<g clip-path="url(#clip181)" clip-rule="nonzero">
<path style=" stroke:none;fill-rule:nonzero;fill:rgb(100%,100%,100%);fill-opacity:1;" d="M 228.34375 75.59375 C 228.546875 74.046875 230.152344 72.980469 231.699219 73.1875 C 233.246094 73.390625 234.277344 74.808594 234.074219 76.355469 C 233.867188 77.894531 232.515625 78.878906 230.96875 78.671875 C 229.425781 78.464844 228.136719 77.132812 228.34375 75.59375 "/>
</g>
</g>
</g>
<g clip-path="url(#clip182)" clip-rule="nonzero">
<g clip-path="url(#clip183)" clip-rule="nonzero">
<g clip-path="url(#clip184)" clip-rule="nonzero">
<path style=" stroke:none;fill-rule:nonzero;fill:rgb(100%,100%,100%);fill-opacity:1;" d="M 362.164062 41.648438 C 362.371094 40.105469 363.789062 38.910156 365.335938 39.117188 C 366.875 39.320312 367.804688 40.828125 367.601562 42.371094 C 367.394531 43.914062 366.109375 45.105469 364.566406 44.902344 C 363.019531 44.695312 361.960938 43.191406 362.164062 41.648438 "/>
</g>
</g>
</g>
<g clip-path="url(#clip185)" clip-rule="nonzero">
<g clip-path="url(#clip186)" clip-rule="nonzero">
<g clip-path="url(#clip187)" clip-rule="nonzero">
<path style=" stroke:none;fill-rule:nonzero;fill:rgb(100%,100%,100%);fill-opacity:1;" d="M 227.644531 1.796875 C 227.847656 0.253906 229.429688 -0.886719 230.976562 -0.679688 C 232.519531 -0.472656 233.328125 0.984375 233.121094 2.523438 C 232.917969 4.066406 231.746094 5.332031 230.203125 5.125 C 228.65625 4.917969 227.4375 3.339844 227.644531 1.796875 "/>
</g>
</g>
</g>
<g clip-path="url(#clip188)" clip-rule="nonzero">
<g clip-path="url(#clip189)" clip-rule="nonzero">
<g clip-path="url(#clip190)" clip-rule="nonzero">
<path style=" stroke:none;fill-rule:nonzero;fill:rgb(100%,100%,100%);fill-opacity:1;" d="M 336.992188 119.542969 C 337.195312 118 338.425781 116.921875 339.972656 117.128906 C 341.515625 117.332031 342.515625 118.707031 342.308594 120.25 C 342.105469 121.789062 340.742188 123.167969 339.199219 122.960938 C 337.652344 122.757812 336.785156 121.085938 336.992188 119.542969 "/>
</g>
</g>
</g>
<g clip-path="url(#clip191)" clip-rule="nonzero">
<g clip-path="url(#clip192)" clip-rule="nonzero">
<g clip-path="url(#clip193)" clip-rule="nonzero">
<path style=" stroke:none;fill-rule:nonzero;fill:rgb(100%,100%,100%);fill-opacity:1;" d="M 363.0625 84.078125 C 363.269531 82.535156 364.542969 81.152344 366.085938 81.355469 C 367.632812 81.5625 368.960938 83.292969 368.753906 84.835938 C 368.550781 86.378906 366.871094 87.296875 365.324219 87.09375 C 363.78125 86.886719 362.859375 85.621094 363.0625 84.078125 "/>
</g>
</g>
</g>
<g clip-path="url(#clip194)" clip-rule="nonzero">
<g clip-path="url(#clip195)" clip-rule="nonzero">
<g clip-path="url(#clip196)" clip-rule="nonzero">
<path style=" stroke:none;fill-rule:nonzero;fill:rgb(100%,100%,100%);fill-opacity:1;" d="M 204.378906 39.269531 C 204.582031 37.726562 205.847656 36.859375 207.390625 37.066406 C 208.9375 37.269531 209.960938 38.441406 209.757812 39.984375 C 209.550781 41.527344 208.183594 42.9375 206.636719 42.730469 C 205.09375 42.527344 204.175781 40.8125 204.378906 39.269531 "/>
</g>
</g>
</g>
<g clip-path="url(#clip197)" clip-rule="nonzero">
<g clip-path="url(#clip198)" clip-rule="nonzero">
<g clip-path="url(#clip199)" clip-rule="nonzero">
<path style=" stroke:none;fill-rule:nonzero;fill:rgb(100%,100%,100%);fill-opacity:1;" d="M 235.757812 59.472656 C 235.964844 57.929688 237.371094 57.15625 238.914062 57.359375 C 240.460938 57.566406 241.394531 58.648438 241.1875 60.195312 C 240.984375 61.734375 239.769531 62.769531 238.222656 62.5625 C 236.679688 62.359375 235.554688 61.011719 235.757812 59.472656 "/>
</g>
</g>
</g>
<g clip-path="url(#clip200)" clip-rule="nonzero">
<g clip-path="url(#clip201)" clip-rule="nonzero">
<g clip-path="url(#clip202)" clip-rule="nonzero">
<path style=" stroke:none;fill-rule:nonzero;fill:rgb(100%,100%,100%);fill-opacity:1;" d="M 348.789062 128.480469 C 348.992188 126.9375 350.246094 125.75 351.792969 125.953125 C 353.335938 126.160156 354.101562 127.617188 353.894531 129.160156 C 353.691406 130.699219 352.59375 131.746094 351.050781 131.542969 C 349.503906 131.335938 348.585938 130.019531 348.789062 128.480469 "/>
</g>
</g>
</g>
</g>
</svg>
