<?xml version="1.0" encoding="UTF-8"?>
<svg xmlns="http://www.w3.org/2000/svg" xmlns:xlink="http://www.w3.org/1999/xlink" width="30pt" height="30.000001pt" viewBox="0 0 30 30.000001" version="1.2">
<defs>
<clipPath id="clip1">
  <path d="M 0.484375 1.769531 L 29.515625 1.769531 L 29.515625 27 L 0.484375 27 Z M 0.484375 1.769531 "/>
</clipPath>
</defs>
<g id="surface1">
<g clip-path="url(#clip1)" clip-rule="nonzero">
<path style=" stroke:none;fill-rule:nonzero;fill:rgb(98.039246%,74.899292%,21.958923%);fill-opacity:1;" d="M 28.222656 9.480469 C 25.214844 8.558594 22.117188 8.714844 19.015625 8.828125 C 18.609375 8.84375 18.207031 8.851562 17.8125 8.851562 C 17.695312 8.527344 17.578125 8.207031 17.464844 7.886719 C 17.148438 6.996094 16.84375 6.097656 16.554688 5.203125 C 16.265625 4.304688 16.117188 3.328125 15.648438 2.507812 C 15.277344 1.851562 14.152344 1.769531 13.804688 2.507812 C 13.3125 3.550781 12.535156 4.433594 12.011719 5.46875 C 11.605469 6.261719 11.269531 7.085938 10.953125 7.914062 C 7.808594 7.117188 3.28125 6 1.179688 8.59375 C 0.707031 9.171875 0.484375 10.183594 1.179688 10.734375 C 3.273438 12.414062 5.300781 14.171875 7.289062 15.976562 C 6.824219 16.90625 6.355469 17.835938 5.910156 18.773438 C 5.421875 19.796875 4.859375 20.867188 4.554688 21.980469 C 4.488281 22.128906 4.453125 22.292969 4.441406 22.457031 C 4.4375 22.496094 4.425781 22.535156 4.417969 22.582031 C 4.398438 22.71875 4.425781 22.835938 4.488281 22.933594 C 4.664062 23.675781 5.34375 24.347656 6.308594 24.140625 C 8.726562 23.636719 11.097656 22.699219 13.394531 21.621094 C 15.050781 23.164062 16.714844 24.699219 18.40625 26.203125 C 19.5 27.171875 21.28125 26.242188 20.894531 24.753906 C 20.335938 22.609375 20.210938 20.402344 20.023438 18.199219 C 23.210938 16.46875 26.507812 14.460938 28.832031 11.773438 C 29.515625 10.996094 29.265625 9.796875 28.222656 9.480469 Z M 14.710938 8.152344 C 14.773438 8.332031 14.828125 8.515625 14.890625 8.695312 C 14.078125 8.605469 13.257812 8.46875 12.425781 8.28125 C 12.824219 7.3125 13.28125 6.273438 13.867188 5.410156 C 14.089844 6.351562 14.425781 7.289062 14.710938 8.152344 Z M 12.632812 11.328125 C 13.714844 11.550781 14.800781 11.648438 15.894531 11.675781 C 16.117188 12.382812 16.328125 13.09375 16.503906 13.816406 C 16.730469 14.75 16.886719 15.699219 16.992188 16.644531 C 16.867188 16.707031 16.75 16.769531 16.621094 16.832031 C 15.78125 17.265625 14.925781 17.707031 14.050781 18.132812 C 12.597656 16.769531 11.144531 15.414062 9.679688 14.074219 C 10.222656 13.066406 10.753906 12.054688 11.242188 11.023438 C 11.703125 11.128906 12.164062 11.234375 12.632812 11.328125 Z M 7.085938 10.207031 C 8.007812 10.324219 8.917969 10.507812 9.824219 10.707031 C 9.464844 11.535156 9.082031 12.355469 8.683594 13.179688 C 7.507812 12.117188 6.308594 11.066406 5.089844 10.046875 C 5.792969 10.019531 6.53125 10.136719 7.085938 10.207031 Z M 5.90625 21.183594 C 6.21875 20.5 6.59375 19.828125 6.929688 19.183594 C 7.347656 18.386719 7.773438 17.59375 8.199219 16.804688 C 9.175781 17.695312 10.144531 18.59375 11.105469 19.488281 C 9.40625 20.203125 7.671875 20.804688 5.90625 21.183594 Z M 17.242188 19.683594 C 17.277344 20.199219 17.316406 20.714844 17.359375 21.230469 C 16.988281 20.890625 16.617188 20.542969 16.246094 20.199219 C 16.582031 20.027344 16.917969 19.851562 17.242188 19.683594 Z M 19.28125 13.292969 C 19.132812 12.730469 18.96875 12.179688 18.792969 11.628906 C 20.894531 11.550781 22.996094 11.414062 25.0625 11.652344 C 23.449219 13.039062 21.570312 14.195312 19.679688 15.226562 C 19.578125 14.582031 19.453125 13.933594 19.28125 13.292969 Z M 19.28125 13.292969 "/>
</g>
</g>
</svg>
