<?xml version="1.0" encoding="UTF-8"?>
<svg xmlns="http://www.w3.org/2000/svg" xmlns:xlink="http://www.w3.org/1999/xlink" width="375pt" height="374.999991pt" viewBox="0 0 375 374.999991" version="1.2">
<defs>
<clipPath id="clip1">
  <path d="M 170 138 L 371 138 L 371 375 L 170 375 Z M 170 138 "/>
</clipPath>
<clipPath id="clip2">
  <path d="M 318.757812 117.664062 L 377.6875 406.460938 L 213.8125 439.898438 L 154.882812 151.101562 Z M 318.757812 117.664062 "/>
</clipPath>
<clipPath id="clip3">
  <path d="M 318.757812 117.664062 L 377.6875 406.460938 L 213.8125 439.898438 L 154.882812 151.101562 Z M 318.757812 117.664062 "/>
</clipPath>
<clipPath id="clip4">
  <path d="M 318.859375 118.171875 L 377.6875 406.46875 L 211.480469 440.386719 L 152.652344 152.089844 Z M 318.859375 118.171875 "/>
</clipPath>
<clipPath id="clip5">
  <path d="M 318.859375 118.171875 L 377.597656 406.023438 L 213.671875 439.472656 L 154.933594 151.625 Z M 318.859375 118.171875 "/>
</clipPath>
<clipPath id="clip6">
  <path d="M 0 188 L 54 188 L 54 339 L 0 339 Z M 0 188 "/>
</clipPath>
<clipPath id="clip7">
  <path d="M 64.457031 198.746094 L 4.101562 344.222656 L -51.320312 321.230469 L 9.035156 175.753906 Z M 64.457031 198.746094 "/>
</clipPath>
<clipPath id="clip8">
  <path d="M 64.457031 198.746094 L 4.101562 344.222656 L -51.320312 321.230469 L 9.035156 175.753906 Z M 64.457031 198.746094 "/>
</clipPath>
<clipPath id="clip9">
  <path d="M 64.417969 198.832031 L 3.652344 345.300781 L -53.273438 321.683594 L 7.492188 175.214844 Z M 64.417969 198.832031 "/>
</clipPath>
<clipPath id="clip10">
  <path d="M 64.417969 198.832031 L 4.152344 344.105469 L -51.234375 321.128906 L 9.035156 175.855469 Z M 64.417969 198.832031 "/>
</clipPath>
<clipPath id="clip11">
  <path d="M 0 212.292969 L 180.945312 212.292969 L 180.945312 375 L 0 375 Z M 0 212.292969 "/>
</clipPath>
<clipPath id="clip12">
  <path d="M 148 370 L 160 370 L 160 375 L 148 375 Z M 148 370 "/>
</clipPath>
<clipPath id="clip13">
  <path d="M -46.363281 334.320312 L 83.835938 194.230469 L 266.226562 363.746094 L 136.027344 503.835938 Z M -46.363281 334.320312 "/>
</clipPath>
<clipPath id="clip14">
  <path d="M -46.363281 334.320312 L 83.835938 194.230469 L 266.226562 363.746094 L 136.027344 503.835938 Z M -46.363281 334.320312 "/>
</clipPath>
<clipPath id="clip15">
  <path d="M -46.363281 334.320312 L 83.902344 194.164062 L 266.238281 363.628906 L 135.976562 503.785156 Z M -46.363281 334.320312 "/>
</clipPath>
<clipPath id="clip16">
  <path d="M 210 353 L 222 353 L 222 357 L 210 357 Z M 210 353 "/>
</clipPath>
<clipPath id="clip17">
  <path d="M -46.363281 334.320312 L 83.835938 194.230469 L 266.226562 363.746094 L 136.027344 503.835938 Z M -46.363281 334.320312 "/>
</clipPath>
<clipPath id="clip18">
  <path d="M -46.363281 334.320312 L 83.835938 194.230469 L 266.226562 363.746094 L 136.027344 503.835938 Z M -46.363281 334.320312 "/>
</clipPath>
<clipPath id="clip19">
  <path d="M -46.363281 334.320312 L 83.902344 194.164062 L 266.238281 363.628906 L 135.976562 503.785156 Z M -46.363281 334.320312 "/>
</clipPath>
<clipPath id="clip20">
  <path d="M 47 245 L 59 245 L 59 250 L 47 250 Z M 47 245 "/>
</clipPath>
<clipPath id="clip21">
  <path d="M -46.363281 334.320312 L 83.835938 194.230469 L 266.226562 363.746094 L 136.027344 503.835938 Z M -46.363281 334.320312 "/>
</clipPath>
<clipPath id="clip22">
  <path d="M -46.363281 334.320312 L 83.835938 194.230469 L 266.226562 363.746094 L 136.027344 503.835938 Z M -46.363281 334.320312 "/>
</clipPath>
<clipPath id="clip23">
  <path d="M -46.363281 334.320312 L 83.902344 194.164062 L 266.238281 363.628906 L 135.976562 503.785156 Z M -46.363281 334.320312 "/>
</clipPath>
<clipPath id="clip24">
  <path d="M 223 333 L 235 333 L 235 338 L 223 338 Z M 223 333 "/>
</clipPath>
<clipPath id="clip25">
  <path d="M -46.363281 334.320312 L 83.835938 194.230469 L 266.226562 363.746094 L 136.027344 503.835938 Z M -46.363281 334.320312 "/>
</clipPath>
<clipPath id="clip26">
  <path d="M -46.363281 334.320312 L 83.835938 194.230469 L 266.226562 363.746094 L 136.027344 503.835938 Z M -46.363281 334.320312 "/>
</clipPath>
<clipPath id="clip27">
  <path d="M -46.363281 334.320312 L 83.902344 194.164062 L 266.238281 363.628906 L 135.976562 503.785156 Z M -46.363281 334.320312 "/>
</clipPath>
<clipPath id="clip28">
  <path d="M 222.234375 335.335938 L 228.835938 328.234375 L 235.929688 334.824219 L 229.328125 341.925781 Z M 222.234375 335.335938 "/>
</clipPath>
<clipPath id="clip29">
  <path d="M 222.234375 335.335938 L 228.339844 328.765625 L 235.433594 335.359375 L 229.328125 341.925781 Z M 222.234375 335.335938 "/>
</clipPath>
<clipPath id="clip30">
  <path d="M 109 266 L 121 266 L 121 270 L 109 270 Z M 109 266 "/>
</clipPath>
<clipPath id="clip31">
  <path d="M -46.363281 334.320312 L 83.835938 194.230469 L 266.226562 363.746094 L 136.027344 503.835938 Z M -46.363281 334.320312 "/>
</clipPath>
<clipPath id="clip32">
  <path d="M -46.363281 334.320312 L 83.835938 194.230469 L 266.226562 363.746094 L 136.027344 503.835938 Z M -46.363281 334.320312 "/>
</clipPath>
<clipPath id="clip33">
  <path d="M -46.363281 334.320312 L 83.902344 194.164062 L 266.238281 363.628906 L 135.976562 503.785156 Z M -46.363281 334.320312 "/>
</clipPath>
<clipPath id="clip34">
  <path d="M 26 259 L 38 259 L 38 264 L 26 264 Z M 26 259 "/>
</clipPath>
<clipPath id="clip35">
  <path d="M -46.363281 334.320312 L 83.835938 194.230469 L 266.226562 363.746094 L 136.027344 503.835938 Z M -46.363281 334.320312 "/>
</clipPath>
<clipPath id="clip36">
  <path d="M -46.363281 334.320312 L 83.835938 194.230469 L 266.226562 363.746094 L 136.027344 503.835938 Z M -46.363281 334.320312 "/>
</clipPath>
<clipPath id="clip37">
  <path d="M -46.363281 334.320312 L 83.902344 194.164062 L 266.238281 363.628906 L 135.976562 503.785156 Z M -46.363281 334.320312 "/>
</clipPath>
<clipPath id="clip38">
  <path d="M 99 285 L 111 285 L 111 290 L 99 290 Z M 99 285 "/>
</clipPath>
<clipPath id="clip39">
  <path d="M -46.363281 334.320312 L 83.835938 194.230469 L 266.226562 363.746094 L 136.027344 503.835938 Z M -46.363281 334.320312 "/>
</clipPath>
<clipPath id="clip40">
  <path d="M -46.363281 334.320312 L 83.835938 194.230469 L 266.226562 363.746094 L 136.027344 503.835938 Z M -46.363281 334.320312 "/>
</clipPath>
<clipPath id="clip41">
  <path d="M -46.363281 334.320312 L 83.902344 194.164062 L 266.238281 363.628906 L 135.976562 503.785156 Z M -46.363281 334.320312 "/>
</clipPath>
<clipPath id="clip42">
  <path d="M 72 231 L 84 231 L 84 236 L 72 236 Z M 72 231 "/>
</clipPath>
<clipPath id="clip43">
  <path d="M -46.363281 334.320312 L 83.835938 194.230469 L 266.226562 363.746094 L 136.027344 503.835938 Z M -46.363281 334.320312 "/>
</clipPath>
<clipPath id="clip44">
  <path d="M -46.363281 334.320312 L 83.835938 194.230469 L 266.226562 363.746094 L 136.027344 503.835938 Z M -46.363281 334.320312 "/>
</clipPath>
<clipPath id="clip45">
  <path d="M -46.363281 334.320312 L 83.902344 194.164062 L 266.238281 363.628906 L 135.976562 503.785156 Z M -46.363281 334.320312 "/>
</clipPath>
<clipPath id="clip46">
  <path d="M 68 249 L 80 249 L 80 254 L 68 254 Z M 68 249 "/>
</clipPath>
<clipPath id="clip47">
  <path d="M -46.363281 334.320312 L 83.835938 194.230469 L 266.226562 363.746094 L 136.027344 503.835938 Z M -46.363281 334.320312 "/>
</clipPath>
<clipPath id="clip48">
  <path d="M -46.363281 334.320312 L 83.835938 194.230469 L 266.226562 363.746094 L 136.027344 503.835938 Z M -46.363281 334.320312 "/>
</clipPath>
<clipPath id="clip49">
  <path d="M -46.363281 334.320312 L 83.902344 194.164062 L 266.238281 363.628906 L 135.976562 503.785156 Z M -46.363281 334.320312 "/>
</clipPath>
<clipPath id="clip50">
  <path d="M 34 338 L 46 338 L 46 343 L 34 343 Z M 34 338 "/>
</clipPath>
<clipPath id="clip51">
  <path d="M -46.363281 334.320312 L 83.835938 194.230469 L 266.226562 363.746094 L 136.027344 503.835938 Z M -46.363281 334.320312 "/>
</clipPath>
<clipPath id="clip52">
  <path d="M -46.363281 334.320312 L 83.835938 194.230469 L 266.226562 363.746094 L 136.027344 503.835938 Z M -46.363281 334.320312 "/>
</clipPath>
<clipPath id="clip53">
  <path d="M -46.363281 334.320312 L 83.902344 194.164062 L 266.238281 363.628906 L 135.976562 503.785156 Z M -46.363281 334.320312 "/>
</clipPath>
<clipPath id="clip54">
  <path d="M 158 352 L 170 352 L 170 357 L 158 357 Z M 158 352 "/>
</clipPath>
<clipPath id="clip55">
  <path d="M -46.363281 334.320312 L 83.835938 194.230469 L 266.226562 363.746094 L 136.027344 503.835938 Z M -46.363281 334.320312 "/>
</clipPath>
<clipPath id="clip56">
  <path d="M -46.363281 334.320312 L 83.835938 194.230469 L 266.226562 363.746094 L 136.027344 503.835938 Z M -46.363281 334.320312 "/>
</clipPath>
<clipPath id="clip57">
  <path d="M -46.363281 334.320312 L 83.902344 194.164062 L 266.238281 363.628906 L 135.976562 503.785156 Z M -46.363281 334.320312 "/>
</clipPath>
<clipPath id="clip58">
  <path d="M 75 367 L 87 367 L 87 372 L 75 372 Z M 75 367 "/>
</clipPath>
<clipPath id="clip59">
  <path d="M -46.363281 334.320312 L 83.835938 194.230469 L 266.226562 363.746094 L 136.027344 503.835938 Z M -46.363281 334.320312 "/>
</clipPath>
<clipPath id="clip60">
  <path d="M -46.363281 334.320312 L 83.835938 194.230469 L 266.226562 363.746094 L 136.027344 503.835938 Z M -46.363281 334.320312 "/>
</clipPath>
<clipPath id="clip61">
  <path d="M -46.363281 334.320312 L 83.902344 194.164062 L 266.238281 363.628906 L 135.976562 503.785156 Z M -46.363281 334.320312 "/>
</clipPath>
<clipPath id="clip62">
  <path d="M 196 370 L 208 370 L 208 375 L 196 375 Z M 196 370 "/>
</clipPath>
<clipPath id="clip63">
  <path d="M -46.363281 334.320312 L 83.835938 194.230469 L 266.226562 363.746094 L 136.027344 503.835938 Z M -46.363281 334.320312 "/>
</clipPath>
<clipPath id="clip64">
  <path d="M -46.363281 334.320312 L 83.835938 194.230469 L 266.226562 363.746094 L 136.027344 503.835938 Z M -46.363281 334.320312 "/>
</clipPath>
<clipPath id="clip65">
  <path d="M -46.363281 334.320312 L 83.902344 194.164062 L 266.238281 363.628906 L 135.976562 503.785156 Z M -46.363281 334.320312 "/>
</clipPath>
<clipPath id="clip66">
  <path d="M 103 343 L 115 343 L 115 348 L 103 348 Z M 103 343 "/>
</clipPath>
<clipPath id="clip67">
  <path d="M -46.363281 334.320312 L 83.835938 194.230469 L 266.226562 363.746094 L 136.027344 503.835938 Z M -46.363281 334.320312 "/>
</clipPath>
<clipPath id="clip68">
  <path d="M -46.363281 334.320312 L 83.835938 194.230469 L 266.226562 363.746094 L 136.027344 503.835938 Z M -46.363281 334.320312 "/>
</clipPath>
<clipPath id="clip69">
  <path d="M -46.363281 334.320312 L 83.902344 194.164062 L 266.238281 363.628906 L 135.976562 503.785156 Z M -46.363281 334.320312 "/>
</clipPath>
<clipPath id="clip70">
  <path d="M 109 312 L 121 312 L 121 317 L 109 317 Z M 109 312 "/>
</clipPath>
<clipPath id="clip71">
  <path d="M -46.363281 334.320312 L 83.835938 194.230469 L 266.226562 363.746094 L 136.027344 503.835938 Z M -46.363281 334.320312 "/>
</clipPath>
<clipPath id="clip72">
  <path d="M -46.363281 334.320312 L 83.835938 194.230469 L 266.226562 363.746094 L 136.027344 503.835938 Z M -46.363281 334.320312 "/>
</clipPath>
<clipPath id="clip73">
  <path d="M -46.363281 334.320312 L 83.902344 194.164062 L 266.238281 363.628906 L 135.976562 503.785156 Z M -46.363281 334.320312 "/>
</clipPath>
<clipPath id="clip74">
  <path d="M 143 322 L 154 322 L 154 327 L 143 327 Z M 143 322 "/>
</clipPath>
<clipPath id="clip75">
  <path d="M -46.363281 334.320312 L 83.835938 194.230469 L 266.226562 363.746094 L 136.027344 503.835938 Z M -46.363281 334.320312 "/>
</clipPath>
<clipPath id="clip76">
  <path d="M -46.363281 334.320312 L 83.835938 194.230469 L 266.226562 363.746094 L 136.027344 503.835938 Z M -46.363281 334.320312 "/>
</clipPath>
<clipPath id="clip77">
  <path d="M -46.363281 334.320312 L 83.902344 194.164062 L 266.238281 363.628906 L 135.976562 503.785156 Z M -46.363281 334.320312 "/>
</clipPath>
<clipPath id="clip78">
  <path d="M 92 327 L 104 327 L 104 332 L 92 332 Z M 92 327 "/>
</clipPath>
<clipPath id="clip79">
  <path d="M -46.363281 334.320312 L 83.835938 194.230469 L 266.226562 363.746094 L 136.027344 503.835938 Z M -46.363281 334.320312 "/>
</clipPath>
<clipPath id="clip80">
  <path d="M -46.363281 334.320312 L 83.835938 194.230469 L 266.226562 363.746094 L 136.027344 503.835938 Z M -46.363281 334.320312 "/>
</clipPath>
<clipPath id="clip81">
  <path d="M -46.363281 334.320312 L 83.902344 194.164062 L 266.238281 363.628906 L 135.976562 503.785156 Z M -46.363281 334.320312 "/>
</clipPath>
<clipPath id="clip82">
  <path d="M 120 358 L 132 358 L 132 362 L 120 362 Z M 120 358 "/>
</clipPath>
<clipPath id="clip83">
  <path d="M -46.363281 334.320312 L 83.835938 194.230469 L 266.226562 363.746094 L 136.027344 503.835938 Z M -46.363281 334.320312 "/>
</clipPath>
<clipPath id="clip84">
  <path d="M -46.363281 334.320312 L 83.835938 194.230469 L 266.226562 363.746094 L 136.027344 503.835938 Z M -46.363281 334.320312 "/>
</clipPath>
<clipPath id="clip85">
  <path d="M -46.363281 334.320312 L 83.902344 194.164062 L 266.238281 363.628906 L 135.976562 503.785156 Z M -46.363281 334.320312 "/>
</clipPath>
<clipPath id="clip86">
  <path d="M 136 347 L 148 347 L 148 352 L 136 352 Z M 136 347 "/>
</clipPath>
<clipPath id="clip87">
  <path d="M -46.363281 334.320312 L 83.835938 194.230469 L 266.226562 363.746094 L 136.027344 503.835938 Z M -46.363281 334.320312 "/>
</clipPath>
<clipPath id="clip88">
  <path d="M -46.363281 334.320312 L 83.835938 194.230469 L 266.226562 363.746094 L 136.027344 503.835938 Z M -46.363281 334.320312 "/>
</clipPath>
<clipPath id="clip89">
  <path d="M -46.363281 334.320312 L 83.902344 194.164062 L 266.238281 363.628906 L 135.976562 503.785156 Z M -46.363281 334.320312 "/>
</clipPath>
<clipPath id="clip90">
  <path d="M 78 292 L 90 292 L 90 297 L 78 297 Z M 78 292 "/>
</clipPath>
<clipPath id="clip91">
  <path d="M -46.363281 334.320312 L 83.835938 194.230469 L 266.226562 363.746094 L 136.027344 503.835938 Z M -46.363281 334.320312 "/>
</clipPath>
<clipPath id="clip92">
  <path d="M -46.363281 334.320312 L 83.835938 194.230469 L 266.226562 363.746094 L 136.027344 503.835938 Z M -46.363281 334.320312 "/>
</clipPath>
<clipPath id="clip93">
  <path d="M -46.363281 334.320312 L 83.902344 194.164062 L 266.238281 363.628906 L 135.976562 503.785156 Z M -46.363281 334.320312 "/>
</clipPath>
<clipPath id="clip94">
  <path d="M 6 298 L 18 298 L 18 302 L 6 302 Z M 6 298 "/>
</clipPath>
<clipPath id="clip95">
  <path d="M -46.363281 334.320312 L 83.835938 194.230469 L 266.226562 363.746094 L 136.027344 503.835938 Z M -46.363281 334.320312 "/>
</clipPath>
<clipPath id="clip96">
  <path d="M -46.363281 334.320312 L 83.835938 194.230469 L 266.226562 363.746094 L 136.027344 503.835938 Z M -46.363281 334.320312 "/>
</clipPath>
<clipPath id="clip97">
  <path d="M -46.363281 334.320312 L 83.902344 194.164062 L 266.238281 363.628906 L 135.976562 503.785156 Z M -46.363281 334.320312 "/>
</clipPath>
<clipPath id="clip98">
  <path d="M 5 277 L 17 277 L 17 282 L 5 282 Z M 5 277 "/>
</clipPath>
<clipPath id="clip99">
  <path d="M -46.363281 334.320312 L 83.835938 194.230469 L 266.226562 363.746094 L 136.027344 503.835938 Z M -46.363281 334.320312 "/>
</clipPath>
<clipPath id="clip100">
  <path d="M -46.363281 334.320312 L 83.835938 194.230469 L 266.226562 363.746094 L 136.027344 503.835938 Z M -46.363281 334.320312 "/>
</clipPath>
<clipPath id="clip101">
  <path d="M -46.363281 334.320312 L 83.902344 194.164062 L 266.238281 363.628906 L 135.976562 503.785156 Z M -46.363281 334.320312 "/>
</clipPath>
<clipPath id="clip102">
  <path d="M 52 266 L 64 266 L 64 271 L 52 271 Z M 52 266 "/>
</clipPath>
<clipPath id="clip103">
  <path d="M -46.363281 334.320312 L 83.835938 194.230469 L 266.226562 363.746094 L 136.027344 503.835938 Z M -46.363281 334.320312 "/>
</clipPath>
<clipPath id="clip104">
  <path d="M -46.363281 334.320312 L 83.835938 194.230469 L 266.226562 363.746094 L 136.027344 503.835938 Z M -46.363281 334.320312 "/>
</clipPath>
<clipPath id="clip105">
  <path d="M -46.363281 334.320312 L 83.902344 194.164062 L 266.238281 363.628906 L 135.976562 503.785156 Z M -46.363281 334.320312 "/>
</clipPath>
<clipPath id="clip106">
  <path d="M 79 346 L 91 346 L 91 350 L 79 350 Z M 79 346 "/>
</clipPath>
<clipPath id="clip107">
  <path d="M -46.363281 334.320312 L 83.835938 194.230469 L 266.226562 363.746094 L 136.027344 503.835938 Z M -46.363281 334.320312 "/>
</clipPath>
<clipPath id="clip108">
  <path d="M -46.363281 334.320312 L 83.835938 194.230469 L 266.226562 363.746094 L 136.027344 503.835938 Z M -46.363281 334.320312 "/>
</clipPath>
<clipPath id="clip109">
  <path d="M -46.363281 334.320312 L 83.902344 194.164062 L 266.238281 363.628906 L 135.976562 503.785156 Z M -46.363281 334.320312 "/>
</clipPath>
<clipPath id="clip110">
  <path d="M 93 232 L 105 232 L 105 236 L 93 236 Z M 93 232 "/>
</clipPath>
<clipPath id="clip111">
  <path d="M -46.363281 334.320312 L 83.835938 194.230469 L 266.226562 363.746094 L 136.027344 503.835938 Z M -46.363281 334.320312 "/>
</clipPath>
<clipPath id="clip112">
  <path d="M -46.363281 334.320312 L 83.835938 194.230469 L 266.226562 363.746094 L 136.027344 503.835938 Z M -46.363281 334.320312 "/>
</clipPath>
<clipPath id="clip113">
  <path d="M -46.363281 334.320312 L 83.902344 194.164062 L 266.238281 363.628906 L 135.976562 503.785156 Z M -46.363281 334.320312 "/>
</clipPath>
<clipPath id="clip114">
  <path d="M 181 353 L 193 353 L 193 358 L 181 358 Z M 181 353 "/>
</clipPath>
<clipPath id="clip115">
  <path d="M -46.363281 334.320312 L 83.835938 194.230469 L 266.226562 363.746094 L 136.027344 503.835938 Z M -46.363281 334.320312 "/>
</clipPath>
<clipPath id="clip116">
  <path d="M -46.363281 334.320312 L 83.835938 194.230469 L 266.226562 363.746094 L 136.027344 503.835938 Z M -46.363281 334.320312 "/>
</clipPath>
<clipPath id="clip117">
  <path d="M -46.363281 334.320312 L 83.902344 194.164062 L 266.238281 363.628906 L 135.976562 503.785156 Z M -46.363281 334.320312 "/>
</clipPath>
<clipPath id="clip118">
  <path d="M 96 363 L 108 363 L 108 368 L 96 368 Z M 96 363 "/>
</clipPath>
<clipPath id="clip119">
  <path d="M -46.363281 334.320312 L 83.835938 194.230469 L 266.226562 363.746094 L 136.027344 503.835938 Z M -46.363281 334.320312 "/>
</clipPath>
<clipPath id="clip120">
  <path d="M -46.363281 334.320312 L 83.835938 194.230469 L 266.226562 363.746094 L 136.027344 503.835938 Z M -46.363281 334.320312 "/>
</clipPath>
<clipPath id="clip121">
  <path d="M -46.363281 334.320312 L 83.902344 194.164062 L 266.238281 363.628906 L 135.976562 503.785156 Z M -46.363281 334.320312 "/>
</clipPath>
<clipPath id="clip122">
  <path d="M 77 272 L 89 272 L 89 277 L 77 277 Z M 77 272 "/>
</clipPath>
<clipPath id="clip123">
  <path d="M -46.363281 334.320312 L 83.835938 194.230469 L 266.226562 363.746094 L 136.027344 503.835938 Z M -46.363281 334.320312 "/>
</clipPath>
<clipPath id="clip124">
  <path d="M -46.363281 334.320312 L 83.835938 194.230469 L 266.226562 363.746094 L 136.027344 503.835938 Z M -46.363281 334.320312 "/>
</clipPath>
<clipPath id="clip125">
  <path d="M -46.363281 334.320312 L 83.902344 194.164062 L 266.238281 363.628906 L 135.976562 503.785156 Z M -46.363281 334.320312 "/>
</clipPath>
<clipPath id="clip126">
  <path d="M 89 253 L 101 253 L 101 258 L 89 258 Z M 89 253 "/>
</clipPath>
<clipPath id="clip127">
  <path d="M -46.363281 334.320312 L 83.835938 194.230469 L 266.226562 363.746094 L 136.027344 503.835938 Z M -46.363281 334.320312 "/>
</clipPath>
<clipPath id="clip128">
  <path d="M -46.363281 334.320312 L 83.835938 194.230469 L 266.226562 363.746094 L 136.027344 503.835938 Z M -46.363281 334.320312 "/>
</clipPath>
<clipPath id="clip129">
  <path d="M -46.363281 334.320312 L 83.902344 194.164062 L 266.238281 363.628906 L 135.976562 503.785156 Z M -46.363281 334.320312 "/>
</clipPath>
<clipPath id="clip130">
  <path d="M 177 323 L 189 323 L 189 328 L 177 328 Z M 177 323 "/>
</clipPath>
<clipPath id="clip131">
  <path d="M -46.363281 334.320312 L 83.835938 194.230469 L 266.226562 363.746094 L 136.027344 503.835938 Z M -46.363281 334.320312 "/>
</clipPath>
<clipPath id="clip132">
  <path d="M -46.363281 334.320312 L 83.835938 194.230469 L 266.226562 363.746094 L 136.027344 503.835938 Z M -46.363281 334.320312 "/>
</clipPath>
<clipPath id="clip133">
  <path d="M -46.363281 334.320312 L 83.902344 194.164062 L 266.238281 363.628906 L 135.976562 503.785156 Z M -46.363281 334.320312 "/>
</clipPath>
<clipPath id="clip134">
  <path d="M 129 307 L 141 307 L 141 312 L 129 312 Z M 129 307 "/>
</clipPath>
<clipPath id="clip135">
  <path d="M -46.363281 334.320312 L 83.835938 194.230469 L 266.226562 363.746094 L 136.027344 503.835938 Z M -46.363281 334.320312 "/>
</clipPath>
<clipPath id="clip136">
  <path d="M -46.363281 334.320312 L 83.835938 194.230469 L 266.226562 363.746094 L 136.027344 503.835938 Z M -46.363281 334.320312 "/>
</clipPath>
<clipPath id="clip137">
  <path d="M -46.363281 334.320312 L 83.902344 194.164062 L 266.238281 363.628906 L 135.976562 503.785156 Z M -46.363281 334.320312 "/>
</clipPath>
<clipPath id="clip138">
  <path d="M 109 247 L 121 247 L 121 252 L 109 252 Z M 109 247 "/>
</clipPath>
<clipPath id="clip139">
  <path d="M -46.363281 334.320312 L 83.835938 194.230469 L 266.226562 363.746094 L 136.027344 503.835938 Z M -46.363281 334.320312 "/>
</clipPath>
<clipPath id="clip140">
  <path d="M -46.363281 334.320312 L 83.835938 194.230469 L 266.226562 363.746094 L 136.027344 503.835938 Z M -46.363281 334.320312 "/>
</clipPath>
<clipPath id="clip141">
  <path d="M -46.363281 334.320312 L 83.902344 194.164062 L 266.238281 363.628906 L 135.976562 503.785156 Z M -46.363281 334.320312 "/>
</clipPath>
<clipPath id="clip142">
  <path d="M 45 308 L 57 308 L 57 312 L 45 312 Z M 45 308 "/>
</clipPath>
<clipPath id="clip143">
  <path d="M -46.363281 334.320312 L 83.835938 194.230469 L 266.226562 363.746094 L 136.027344 503.835938 Z M -46.363281 334.320312 "/>
</clipPath>
<clipPath id="clip144">
  <path d="M -46.363281 334.320312 L 83.835938 194.230469 L 266.226562 363.746094 L 136.027344 503.835938 Z M -46.363281 334.320312 "/>
</clipPath>
<clipPath id="clip145">
  <path d="M -46.363281 334.320312 L 83.902344 194.164062 L 266.238281 363.628906 L 135.976562 503.785156 Z M -46.363281 334.320312 "/>
</clipPath>
<clipPath id="clip146">
  <path d="M 195 338 L 207 338 L 207 343 L 195 343 Z M 195 338 "/>
</clipPath>
<clipPath id="clip147">
  <path d="M -46.363281 334.320312 L 83.835938 194.230469 L 266.226562 363.746094 L 136.027344 503.835938 Z M -46.363281 334.320312 "/>
</clipPath>
<clipPath id="clip148">
  <path d="M -46.363281 334.320312 L 83.835938 194.230469 L 266.226562 363.746094 L 136.027344 503.835938 Z M -46.363281 334.320312 "/>
</clipPath>
<clipPath id="clip149">
  <path d="M -46.363281 334.320312 L 83.902344 194.164062 L 266.238281 363.628906 L 135.976562 503.785156 Z M -46.363281 334.320312 "/>
</clipPath>
<clipPath id="clip150">
  <path d="M 123 331 L 135 331 L 135 336 L 123 336 Z M 123 331 "/>
</clipPath>
<clipPath id="clip151">
  <path d="M -46.363281 334.320312 L 83.835938 194.230469 L 266.226562 363.746094 L 136.027344 503.835938 Z M -46.363281 334.320312 "/>
</clipPath>
<clipPath id="clip152">
  <path d="M -46.363281 334.320312 L 83.835938 194.230469 L 266.226562 363.746094 L 136.027344 503.835938 Z M -46.363281 334.320312 "/>
</clipPath>
<clipPath id="clip153">
  <path d="M -46.363281 334.320312 L 83.902344 194.164062 L 266.238281 363.628906 L 135.976562 503.785156 Z M -46.363281 334.320312 "/>
</clipPath>
<clipPath id="clip154">
  <path d="M 119 287 L 131 287 L 131 292 L 119 292 Z M 119 287 "/>
</clipPath>
<clipPath id="clip155">
  <path d="M -46.363281 334.320312 L 83.835938 194.230469 L 266.226562 363.746094 L 136.027344 503.835938 Z M -46.363281 334.320312 "/>
</clipPath>
<clipPath id="clip156">
  <path d="M -46.363281 334.320312 L 83.835938 194.230469 L 266.226562 363.746094 L 136.027344 503.835938 Z M -46.363281 334.320312 "/>
</clipPath>
<clipPath id="clip157">
  <path d="M -46.363281 334.320312 L 83.902344 194.164062 L 266.238281 363.628906 L 135.976562 503.785156 Z M -46.363281 334.320312 "/>
</clipPath>
<clipPath id="clip158">
  <path d="M 26 297 L 38 297 L 38 302 L 26 302 Z M 26 297 "/>
</clipPath>
<clipPath id="clip159">
  <path d="M -46.363281 334.320312 L 83.835938 194.230469 L 266.226562 363.746094 L 136.027344 503.835938 Z M -46.363281 334.320312 "/>
</clipPath>
<clipPath id="clip160">
  <path d="M -46.363281 334.320312 L 83.835938 194.230469 L 266.226562 363.746094 L 136.027344 503.835938 Z M -46.363281 334.320312 "/>
</clipPath>
<clipPath id="clip161">
  <path d="M -46.363281 334.320312 L 83.902344 194.164062 L 266.238281 363.628906 L 135.976562 503.785156 Z M -46.363281 334.320312 "/>
</clipPath>
<clipPath id="clip162">
  <path d="M 160 333 L 172 333 L 172 337 L 160 337 Z M 160 333 "/>
</clipPath>
<clipPath id="clip163">
  <path d="M -46.363281 334.320312 L 83.835938 194.230469 L 266.226562 363.746094 L 136.027344 503.835938 Z M -46.363281 334.320312 "/>
</clipPath>
<clipPath id="clip164">
  <path d="M -46.363281 334.320312 L 83.835938 194.230469 L 266.226562 363.746094 L 136.027344 503.835938 Z M -46.363281 334.320312 "/>
</clipPath>
<clipPath id="clip165">
  <path d="M -46.363281 334.320312 L 83.902344 194.164062 L 266.238281 363.628906 L 135.976562 503.785156 Z M -46.363281 334.320312 "/>
</clipPath>
<clipPath id="clip166">
  <path d="M 55 288 L 67 288 L 67 293 L 55 293 Z M 55 288 "/>
</clipPath>
<clipPath id="clip167">
  <path d="M -46.363281 334.320312 L 83.835938 194.230469 L 266.226562 363.746094 L 136.027344 503.835938 Z M -46.363281 334.320312 "/>
</clipPath>
<clipPath id="clip168">
  <path d="M -46.363281 334.320312 L 83.835938 194.230469 L 266.226562 363.746094 L 136.027344 503.835938 Z M -46.363281 334.320312 "/>
</clipPath>
<clipPath id="clip169">
  <path d="M -46.363281 334.320312 L 83.902344 194.164062 L 266.238281 363.628906 L 135.976562 503.785156 Z M -46.363281 334.320312 "/>
</clipPath>
<clipPath id="clip170">
  <path d="M 84 310 L 96 310 L 96 315 L 84 315 Z M 84 310 "/>
</clipPath>
<clipPath id="clip171">
  <path d="M -46.363281 334.320312 L 83.835938 194.230469 L 266.226562 363.746094 L 136.027344 503.835938 Z M -46.363281 334.320312 "/>
</clipPath>
<clipPath id="clip172">
  <path d="M -46.363281 334.320312 L 83.835938 194.230469 L 266.226562 363.746094 L 136.027344 503.835938 Z M -46.363281 334.320312 "/>
</clipPath>
<clipPath id="clip173">
  <path d="M -46.363281 334.320312 L 83.902344 194.164062 L 266.238281 363.628906 L 135.976562 503.785156 Z M -46.363281 334.320312 "/>
</clipPath>
<clipPath id="clip174">
  <path d="M 228 359 L 240 359 L 240 363 L 228 363 Z M 228 359 "/>
</clipPath>
<clipPath id="clip175">
  <path d="M -46.363281 334.320312 L 83.835938 194.230469 L 266.226562 363.746094 L 136.027344 503.835938 Z M -46.363281 334.320312 "/>
</clipPath>
<clipPath id="clip176">
  <path d="M -46.363281 334.320312 L 83.835938 194.230469 L 266.226562 363.746094 L 136.027344 503.835938 Z M -46.363281 334.320312 "/>
</clipPath>
<clipPath id="clip177">
  <path d="M -46.363281 334.320312 L 83.902344 194.164062 L 266.238281 363.628906 L 135.976562 503.785156 Z M -46.363281 334.320312 "/>
</clipPath>
<clipPath id="clip178">
  <path d="M 170 373 L 182 373 L 182 375 L 170 375 Z M 170 373 "/>
</clipPath>
<clipPath id="clip179">
  <path d="M -46.363281 334.320312 L 83.835938 194.230469 L 266.226562 363.746094 L 136.027344 503.835938 Z M -46.363281 334.320312 "/>
</clipPath>
<clipPath id="clip180">
  <path d="M -46.363281 334.320312 L 83.835938 194.230469 L 266.226562 363.746094 L 136.027344 503.835938 Z M -46.363281 334.320312 "/>
</clipPath>
<clipPath id="clip181">
  <path d="M -46.363281 334.320312 L 83.902344 194.164062 L 266.238281 363.628906 L 135.976562 503.785156 Z M -46.363281 334.320312 "/>
</clipPath>
<clipPath id="clip182">
  <path d="M 39 355 L 51 355 L 51 360 L 39 360 Z M 39 355 "/>
</clipPath>
<clipPath id="clip183">
  <path d="M -46.363281 334.320312 L 83.835938 194.230469 L 266.226562 363.746094 L 136.027344 503.835938 Z M -46.363281 334.320312 "/>
</clipPath>
<clipPath id="clip184">
  <path d="M -46.363281 334.320312 L 83.835938 194.230469 L 266.226562 363.746094 L 136.027344 503.835938 Z M -46.363281 334.320312 "/>
</clipPath>
<clipPath id="clip185">
  <path d="M -46.363281 334.320312 L 83.902344 194.164062 L 266.238281 363.628906 L 135.976562 503.785156 Z M -46.363281 334.320312 "/>
</clipPath>
<clipPath id="clip186">
  <path d="M 25 322 L 37 322 L 37 326 L 25 326 Z M 25 322 "/>
</clipPath>
<clipPath id="clip187">
  <path d="M -46.363281 334.320312 L 83.835938 194.230469 L 266.226562 363.746094 L 136.027344 503.835938 Z M -46.363281 334.320312 "/>
</clipPath>
<clipPath id="clip188">
  <path d="M -46.363281 334.320312 L 83.835938 194.230469 L 266.226562 363.746094 L 136.027344 503.835938 Z M -46.363281 334.320312 "/>
</clipPath>
<clipPath id="clip189">
  <path d="M -46.363281 334.320312 L 83.902344 194.164062 L 266.238281 363.628906 L 135.976562 503.785156 Z M -46.363281 334.320312 "/>
</clipPath>
<clipPath id="clip190">
  <path d="M 32 278 L 44 278 L 44 283 L 32 283 Z M 32 278 "/>
</clipPath>
<clipPath id="clip191">
  <path d="M -46.363281 334.320312 L 83.835938 194.230469 L 266.226562 363.746094 L 136.027344 503.835938 Z M -46.363281 334.320312 "/>
</clipPath>
<clipPath id="clip192">
  <path d="M -46.363281 334.320312 L 83.835938 194.230469 L 266.226562 363.746094 L 136.027344 503.835938 Z M -46.363281 334.320312 "/>
</clipPath>
<clipPath id="clip193">
  <path d="M -46.363281 334.320312 L 83.902344 194.164062 L 266.238281 363.628906 L 135.976562 503.785156 Z M -46.363281 334.320312 "/>
</clipPath>
<clipPath id="clip194">
  <path d="M 58 335 L 70 335 L 70 340 L 58 340 Z M 58 335 "/>
</clipPath>
<clipPath id="clip195">
  <path d="M -46.363281 334.320312 L 83.835938 194.230469 L 266.226562 363.746094 L 136.027344 503.835938 Z M -46.363281 334.320312 "/>
</clipPath>
<clipPath id="clip196">
  <path d="M -46.363281 334.320312 L 83.835938 194.230469 L 266.226562 363.746094 L 136.027344 503.835938 Z M -46.363281 334.320312 "/>
</clipPath>
<clipPath id="clip197">
  <path d="M -46.363281 334.320312 L 83.902344 194.164062 L 266.238281 363.628906 L 135.976562 503.785156 Z M -46.363281 334.320312 "/>
</clipPath>
<clipPath id="clip198">
  <path d="M 203 319 L 215 319 L 215 324 L 203 324 Z M 203 319 "/>
</clipPath>
<clipPath id="clip199">
  <path d="M -46.363281 334.320312 L 83.835938 194.230469 L 266.226562 363.746094 L 136.027344 503.835938 Z M -46.363281 334.320312 "/>
</clipPath>
<clipPath id="clip200">
  <path d="M -46.363281 334.320312 L 83.835938 194.230469 L 266.226562 363.746094 L 136.027344 503.835938 Z M -46.363281 334.320312 "/>
</clipPath>
<clipPath id="clip201">
  <path d="M -46.363281 334.320312 L 83.902344 194.164062 L 266.238281 363.628906 L 135.976562 503.785156 Z M -46.363281 334.320312 "/>
</clipPath>
<clipPath id="clip202">
  <path d="M 56 360 L 68 360 L 68 365 L 56 365 Z M 56 360 "/>
</clipPath>
<clipPath id="clip203">
  <path d="M -46.363281 334.320312 L 83.835938 194.230469 L 266.226562 363.746094 L 136.027344 503.835938 Z M -46.363281 334.320312 "/>
</clipPath>
<clipPath id="clip204">
  <path d="M -46.363281 334.320312 L 83.835938 194.230469 L 266.226562 363.746094 L 136.027344 503.835938 Z M -46.363281 334.320312 "/>
</clipPath>
<clipPath id="clip205">
  <path d="M -46.363281 334.320312 L 83.902344 194.164062 L 266.238281 363.628906 L 135.976562 503.785156 Z M -46.363281 334.320312 "/>
</clipPath>
<clipPath id="clip206">
  <path d="M 64 317 L 76 317 L 76 322 L 64 322 Z M 64 317 "/>
</clipPath>
<clipPath id="clip207">
  <path d="M -46.363281 334.320312 L 83.835938 194.230469 L 266.226562 363.746094 L 136.027344 503.835938 Z M -46.363281 334.320312 "/>
</clipPath>
<clipPath id="clip208">
  <path d="M -46.363281 334.320312 L 83.835938 194.230469 L 266.226562 363.746094 L 136.027344 503.835938 Z M -46.363281 334.320312 "/>
</clipPath>
<clipPath id="clip209">
  <path d="M -46.363281 334.320312 L 83.902344 194.164062 L 266.238281 363.628906 L 135.976562 503.785156 Z M -46.363281 334.320312 "/>
</clipPath>
<clipPath id="clip210">
  <path d="M 318 264 L 338.328125 264 L 338.328125 295 L 318 295 Z M 318 264 "/>
</clipPath>
<clipPath id="clip211">
  <path d="M 235.578125 234 L 259 234 L 259 266 L 235.578125 266 Z M 235.578125 234 "/>
</clipPath>
</defs>
<g id="surface1">
<path style=" stroke:none;fill-rule:nonzero;fill:rgb(14.898682%,38.038635%,31.369019%);fill-opacity:1;" d="M 265.589844 350.609375 C 264.808594 335.351562 259.597656 319.953125 259.648438 304.484375 C 259.648438 297.035156 260.929688 289.601562 260.539062 282.152344 C 259.507812 262.421875 247.25 245.261719 234.796875 229.914062 C 225.03125 217.777344 214.355469 205.660156 200.285156 198.957031 C 151.734375 175.789062 131.59375 237.097656 127.34375 273.617188 C 128.800781 267.152344 130.273438 260.675781 131.753906 254.191406 C 129.238281 262.339844 127.242188 270.617188 125.769531 279.023438 C 124.300781 287.425781 123.363281 295.890625 122.960938 304.414062 C 122.558594 312.933594 122.695312 321.449219 123.367188 329.953125 C 124.042969 338.460938 125.25 346.890625 126.988281 355.242188 C 130.066406 369.910156 135.046875 384.71875 145.117188 395.824219 C 155.183594 406.925781 171.285156 413.539062 185.554688 408.976562 C 191.140625 407.195312 196.226562 403.808594 202.027344 402.898438 C 206.632812 402.1875 211.332031 403.09375 215.972656 403.328125 C 238.40625 404.394531 260.308594 387.285156 264.683594 365.222656 C 265.609375 360.390625 265.910156 355.519531 265.589844 350.609375 Z M 265.589844 350.609375 "/>
<path style=" stroke:none;fill-rule:nonzero;fill:rgb(89.019775%,43.919373%,33.329773%);fill-opacity:1;" d="M 481.992188 424.140625 C 471.886719 446.738281 442.265625 452.230469 424.898438 434.59375 C 421.910156 431.554688 419.027344 428.480469 416.21875 425.488281 C 415.898438 425.144531 415.578125 424.800781 415.261719 424.460938 C 395.378906 402.996094 367.691406 390.648438 338.449219 389.675781 C 337.632812 389.648438 336.804688 389.617188 335.960938 389.578125 C 300.554688 387.957031 256.445312 385.953125 244.644531 359.585938 C 220.304688 305.21875 245.316406 271.191406 264.417969 258.023438 C 278.667969 248.191406 288.359375 256.730469 296.664062 250.925781 C 311.394531 240.613281 303.230469 214.28125 316.339844 199.929688 C 343.476562 170.234375 370.703125 199.65625 374.675781 230.773438 C 380.027344 272.667969 379.902344 271.921875 425.542969 282.160156 C 435.605469 284.40625 465.128906 284.714844 472.796875 293.113281 C 487.761719 309.503906 465.746094 333.785156 468.308594 349.925781 C 471.804688 371.925781 489.507812 384.082031 486.8125 410.066406 C 486.488281 413.207031 484.585938 418.335938 481.992188 424.140625 "/>
<g clip-path="url(#clip1)" clip-rule="nonzero">
<g clip-path="url(#clip2)" clip-rule="nonzero">
<g clip-path="url(#clip3)" clip-rule="nonzero">
<g clip-path="url(#clip4)" clip-rule="nonzero">
<g clip-path="url(#clip5)" clip-rule="nonzero">
<path style=" stroke:none;fill-rule:nonzero;fill:rgb(99.21875%,97.24884%,96.078491%);fill-opacity:1;" d="M 171.105469 230.871094 C 168.390625 217.578125 188.890625 159.476562 196.664062 150.328125 C 212.640625 131.476562 240.507812 137.753906 259.628906 151.554688 C 290.46875 173.804688 269.144531 199.695312 276.609375 227.886719 C 281.648438 246.929688 299.804688 249.425781 320.730469 247.945312 C 336.089844 246.875 348.003906 261.191406 344.085938 276.070312 C 337.957031 299.332031 335.902344 330.316406 357.832031 351.667969 C 371.757812 365.226562 376.339844 374.789062 361.261719 396.242188 C 350.140625 412.070312 331.804688 419.046875 310.976562 415.367188 C 261.371094 406.597656 251.980469 362.859375 252.53125 363.6875 C 246.433594 333.796875 261.011719 277.949219 216.4375 261.585938 C 198.8125 255.113281 174.390625 246.972656 171.105469 230.871094 "/>
</g>
</g>
</g>
</g>
</g>
<g clip-path="url(#clip6)" clip-rule="nonzero">
<g clip-path="url(#clip7)" clip-rule="nonzero">
<g clip-path="url(#clip8)" clip-rule="nonzero">
<g clip-path="url(#clip9)" clip-rule="nonzero">
<g clip-path="url(#clip10)" clip-rule="nonzero">
<path style=" stroke:none;fill-rule:nonzero;fill:rgb(16.468811%,8.239746%,6.269836%);fill-opacity:1;" d="M -23.597656 272.832031 C 13.292969 240.042969 -27.570312 175.398438 46.191406 191.414062 C 74.867188 197.632812 8.527344 333.332031 -1.671875 337.9375 C -11.441406 342.367188 -72.253906 316.085938 -23.597656 272.832031 "/>
</g>
</g>
</g>
</g>
</g>
<g clip-path="url(#clip11)" clip-rule="nonzero">
<path style=" stroke:none;fill-rule:nonzero;fill:rgb(51.368713%,64.309692%,45.098877%);fill-opacity:1;" d="M 133.503906 420.417969 C 119.722656 430.03125 100.765625 426.050781 91.8125 411.839844 C 73.183594 382.277344 59.78125 389.972656 44.367188 401.226562 C -59.160156 476.902344 -62.414062 343.65625 -6.25 316.988281 C 15.210938 306.820312 26.148438 297.476562 11.316406 277.265625 C -45.089844 200.359375 229.425781 176.300781 141.007812 291.46875 C 90.660156 357.046875 258.769531 333.019531 133.503906 420.417969 "/>
</g>
<g clip-path="url(#clip12)" clip-rule="nonzero">
<g clip-path="url(#clip13)" clip-rule="nonzero">
<g clip-path="url(#clip14)" clip-rule="nonzero">
<g clip-path="url(#clip15)" clip-rule="nonzero">
<path style=" stroke:none;fill-rule:nonzero;fill:rgb(91.369629%,78.42865%,76.469421%);fill-opacity:1;" d="M 150.25 374.140625 C 152.367188 374.175781 154.484375 374.207031 156.601562 374.242188 C 156.910156 374.242188 157.210938 374.246094 157.515625 374.253906 C 158.484375 374.269531 159.4375 373.476562 159.429688 372.460938 C 159.421875 371.476562 158.679688 370.570312 157.644531 370.554688 C 155.523438 370.519531 153.40625 370.492188 151.289062 370.460938 C 150.984375 370.453125 150.679688 370.449219 150.378906 370.445312 C 149.40625 370.429688 148.453125 371.222656 148.464844 372.234375 C 148.476562 373.222656 149.214844 374.125 150.25 374.140625 "/>
</g>
</g>
</g>
</g>
<g clip-path="url(#clip16)" clip-rule="nonzero">
<g clip-path="url(#clip17)" clip-rule="nonzero">
<g clip-path="url(#clip18)" clip-rule="nonzero">
<g clip-path="url(#clip19)" clip-rule="nonzero">
<path style=" stroke:none;fill-rule:nonzero;fill:rgb(91.369629%,78.42865%,76.469421%);fill-opacity:1;" d="M 212.199219 356.730469 C 214.316406 356.765625 216.433594 356.800781 218.550781 356.828125 C 218.855469 356.835938 219.164062 356.839844 219.46875 356.84375 C 220.433594 356.859375 221.386719 356.066406 221.378906 355.054688 C 221.371094 354.066406 220.628906 353.160156 219.589844 353.144531 C 217.476562 353.113281 215.355469 353.082031 213.242188 353.050781 C 212.9375 353.042969 212.628906 353.039062 212.324219 353.035156 C 211.355469 353.019531 210.402344 353.8125 210.414062 354.824219 C 210.421875 355.8125 211.160156 356.714844 212.199219 356.730469 "/>
</g>
</g>
</g>
</g>
<g clip-path="url(#clip20)" clip-rule="nonzero">
<g clip-path="url(#clip21)" clip-rule="nonzero">
<g clip-path="url(#clip22)" clip-rule="nonzero">
<g clip-path="url(#clip23)" clip-rule="nonzero">
<path style=" stroke:none;fill-rule:nonzero;fill:rgb(91.369629%,78.42865%,76.469421%);fill-opacity:1;" d="M 49.394531 249.480469 C 51.511719 249.511719 53.628906 249.546875 55.746094 249.578125 C 56.050781 249.582031 56.359375 249.585938 56.660156 249.589844 C 57.628906 249.605469 58.582031 248.8125 58.574219 247.804688 C 58.5625 246.816406 57.824219 245.910156 56.789062 245.890625 C 54.667969 245.863281 52.550781 245.828125 50.433594 245.792969 C 50.128906 245.792969 49.824219 245.785156 49.519531 245.78125 C 48.550781 245.769531 47.597656 246.558594 47.609375 247.570312 C 47.617188 248.558594 48.355469 249.464844 49.394531 249.480469 "/>
</g>
</g>
</g>
</g>
<g clip-path="url(#clip24)" clip-rule="nonzero">
<g clip-path="url(#clip25)" clip-rule="nonzero">
<g clip-path="url(#clip26)" clip-rule="nonzero">
<g clip-path="url(#clip27)" clip-rule="nonzero">
<g clip-path="url(#clip28)" clip-rule="nonzero">
<g clip-path="url(#clip29)" clip-rule="nonzero">
<path style=" stroke:none;fill-rule:nonzero;fill:rgb(91.369629%,78.42865%,76.469421%);fill-opacity:1;" d="M 225.238281 336.949219 C 227.355469 336.984375 229.476562 337.015625 231.59375 337.046875 C 231.898438 337.050781 232.203125 337.058594 232.507812 337.0625 C 233.472656 337.078125 234.429688 336.285156 234.417969 335.273438 C 234.410156 334.285156 233.667969 333.378906 232.632812 333.363281 C 230.515625 333.332031 228.394531 333.300781 226.28125 333.265625 C 225.972656 333.261719 225.667969 333.257812 225.363281 333.25 C 224.398438 333.238281 223.441406 334.027344 223.453125 335.042969 C 223.464844 336.03125 224.203125 336.933594 225.238281 336.949219 "/>
</g>
</g>
</g>
</g>
</g>
</g>
<g clip-path="url(#clip30)" clip-rule="nonzero">
<g clip-path="url(#clip31)" clip-rule="nonzero">
<g clip-path="url(#clip32)" clip-rule="nonzero">
<g clip-path="url(#clip33)" clip-rule="nonzero">
<path style=" stroke:none;fill-rule:nonzero;fill:rgb(91.369629%,78.42865%,76.469421%);fill-opacity:1;" d="M 110.984375 269.75 C 113.101562 269.78125 115.222656 269.816406 117.335938 269.847656 C 117.644531 269.851562 117.949219 269.855469 118.253906 269.863281 C 119.222656 269.875 120.175781 269.082031 120.164062 268.070312 C 120.152344 267.082031 119.414062 266.175781 118.378906 266.160156 C 116.261719 266.132812 114.144531 266.101562 112.023438 266.066406 C 111.71875 266.0625 111.414062 266.054688 111.109375 266.050781 C 110.144531 266.039062 109.1875 266.832031 109.199219 267.839844 C 109.207031 268.828125 109.949219 269.734375 110.984375 269.75 "/>
</g>
</g>
</g>
</g>
<g clip-path="url(#clip34)" clip-rule="nonzero">
<g clip-path="url(#clip35)" clip-rule="nonzero">
<g clip-path="url(#clip36)" clip-rule="nonzero">
<g clip-path="url(#clip37)" clip-rule="nonzero">
<path style=" stroke:none;fill-rule:nonzero;fill:rgb(91.369629%,78.42865%,76.469421%);fill-opacity:1;" d="M 27.964844 263.417969 C 30.082031 263.449219 32.195312 263.480469 34.316406 263.515625 C 34.621094 263.519531 34.925781 263.523438 35.230469 263.527344 C 36.195312 263.542969 37.152344 262.75 37.140625 261.742188 C 37.132812 260.75 36.390625 259.84375 35.355469 259.828125 C 33.238281 259.796875 31.121094 259.765625 29.003906 259.734375 C 28.699219 259.726562 28.394531 259.722656 28.085938 259.71875 C 27.121094 259.703125 26.167969 260.496094 26.175781 261.507812 C 26.1875 262.496094 26.925781 263.402344 27.964844 263.417969 "/>
</g>
</g>
</g>
</g>
<g clip-path="url(#clip38)" clip-rule="nonzero">
<g clip-path="url(#clip39)" clip-rule="nonzero">
<g clip-path="url(#clip40)" clip-rule="nonzero">
<g clip-path="url(#clip41)" clip-rule="nonzero">
<path style=" stroke:none;fill-rule:nonzero;fill:rgb(91.369629%,78.42865%,76.469421%);fill-opacity:1;" d="M 101.074219 289.183594 C 103.195312 289.214844 105.3125 289.246094 107.429688 289.277344 C 107.734375 289.285156 108.039062 289.289062 108.34375 289.289062 C 109.308594 289.308594 110.265625 288.515625 110.253906 287.503906 C 110.242188 286.515625 109.507812 285.609375 108.46875 285.59375 C 106.351562 285.5625 104.234375 285.527344 102.117188 285.496094 C 101.8125 285.496094 101.507812 285.488281 101.203125 285.484375 C 100.234375 285.46875 99.277344 286.261719 99.289062 287.273438 C 99.300781 288.261719 100.039062 289.164062 101.074219 289.183594 "/>
</g>
</g>
</g>
</g>
<g clip-path="url(#clip42)" clip-rule="nonzero">
<g clip-path="url(#clip43)" clip-rule="nonzero">
<g clip-path="url(#clip44)" clip-rule="nonzero">
<g clip-path="url(#clip45)" clip-rule="nonzero">
<path style=" stroke:none;fill-rule:nonzero;fill:rgb(91.369629%,78.42865%,76.469421%);fill-opacity:1;" d="M 73.96875 235.019531 C 76.085938 235.046875 78.203125 235.082031 80.316406 235.113281 C 80.621094 235.121094 80.929688 235.121094 81.234375 235.128906 C 82.203125 235.144531 83.15625 234.351562 83.144531 233.339844 C 83.132812 232.351562 82.394531 231.445312 81.359375 231.429688 C 79.242188 231.398438 77.125 231.367188 75.007812 231.332031 C 74.703125 231.328125 74.398438 231.324219 74.089844 231.320312 C 73.125 231.308594 72.171875 232.097656 72.179688 233.105469 C 72.191406 234.101562 72.929688 235.003906 73.96875 235.019531 "/>
</g>
</g>
</g>
</g>
<g clip-path="url(#clip46)" clip-rule="nonzero">
<g clip-path="url(#clip47)" clip-rule="nonzero">
<g clip-path="url(#clip48)" clip-rule="nonzero">
<g clip-path="url(#clip49)" clip-rule="nonzero">
<path style=" stroke:none;fill-rule:nonzero;fill:rgb(91.369629%,78.42865%,76.469421%);fill-opacity:1;" d="M 70.550781 253.589844 C 72.667969 253.621094 74.785156 253.652344 76.902344 253.6875 C 77.210938 253.691406 77.515625 253.695312 77.816406 253.699219 C 78.785156 253.714844 79.738281 252.925781 79.730469 251.910156 C 79.71875 250.921875 78.980469 250.019531 77.945312 250.003906 C 75.828125 249.972656 73.707031 249.9375 71.589844 249.90625 C 71.285156 249.902344 70.980469 249.898438 70.675781 249.894531 C 69.707031 249.878906 68.753906 250.667969 68.765625 251.683594 C 68.777344 252.667969 69.511719 253.574219 70.550781 253.589844 "/>
</g>
</g>
</g>
</g>
<g clip-path="url(#clip50)" clip-rule="nonzero">
<g clip-path="url(#clip51)" clip-rule="nonzero">
<g clip-path="url(#clip52)" clip-rule="nonzero">
<g clip-path="url(#clip53)" clip-rule="nonzero">
<path style=" stroke:none;fill-rule:nonzero;fill:rgb(91.369629%,78.42865%,76.469421%);fill-opacity:1;" d="M 36.390625 342.207031 C 38.507812 342.242188 40.625 342.273438 42.742188 342.304688 C 43.046875 342.3125 43.351562 342.316406 43.660156 342.320312 C 44.625 342.332031 45.578125 341.542969 45.570312 340.53125 C 45.558594 339.542969 44.820312 338.636719 43.785156 338.621094 C 41.667969 338.59375 39.550781 338.558594 37.433594 338.527344 C 37.125 338.523438 36.820312 338.519531 36.515625 338.511719 C 35.550781 338.496094 34.59375 339.289062 34.601562 340.300781 C 34.613281 341.289062 35.351562 342.191406 36.390625 342.207031 "/>
</g>
</g>
</g>
</g>
<g clip-path="url(#clip54)" clip-rule="nonzero">
<g clip-path="url(#clip55)" clip-rule="nonzero">
<g clip-path="url(#clip56)" clip-rule="nonzero">
<g clip-path="url(#clip57)" clip-rule="nonzero">
<path style=" stroke:none;fill-rule:nonzero;fill:rgb(91.369629%,78.42865%,76.469421%);fill-opacity:1;" d="M 160.210938 355.964844 C 162.324219 355.996094 164.441406 356.027344 166.5625 356.058594 C 166.867188 356.066406 167.171875 356.070312 167.476562 356.074219 C 168.441406 356.085938 169.402344 355.296875 169.386719 354.285156 C 169.378906 353.296875 168.640625 352.390625 167.601562 352.375 C 165.488281 352.34375 163.367188 352.308594 161.25 352.28125 C 160.945312 352.273438 160.640625 352.269531 160.335938 352.265625 C 159.367188 352.25 158.414062 353.042969 158.421875 354.054688 C 158.433594 355.042969 159.171875 355.949219 160.210938 355.964844 "/>
</g>
</g>
</g>
</g>
<g clip-path="url(#clip58)" clip-rule="nonzero">
<g clip-path="url(#clip59)" clip-rule="nonzero">
<g clip-path="url(#clip60)" clip-rule="nonzero">
<g clip-path="url(#clip61)" clip-rule="nonzero">
<path style=" stroke:none;fill-rule:nonzero;fill:rgb(91.369629%,78.42865%,76.469421%);fill-opacity:1;" d="M 77.574219 371.078125 C 79.691406 371.109375 81.808594 371.144531 83.925781 371.175781 C 84.230469 371.179688 84.539062 371.183594 84.84375 371.191406 C 85.808594 371.203125 86.765625 370.414062 86.753906 369.402344 C 86.746094 368.410156 86.003906 367.507812 84.964844 367.492188 C 82.851562 367.457031 80.730469 367.425781 78.617188 367.394531 C 78.3125 367.390625 78.003906 367.386719 77.699219 367.378906 C 76.730469 367.367188 75.78125 368.160156 75.789062 369.167969 C 75.796875 370.160156 76.539062 371.0625 77.574219 371.078125 "/>
</g>
</g>
</g>
</g>
<g clip-path="url(#clip62)" clip-rule="nonzero">
<g clip-path="url(#clip63)" clip-rule="nonzero">
<g clip-path="url(#clip64)" clip-rule="nonzero">
<g clip-path="url(#clip65)" clip-rule="nonzero">
<path style=" stroke:none;fill-rule:nonzero;fill:rgb(91.369629%,78.42865%,76.469421%);fill-opacity:1;" d="M 198.4375 374.335938 C 200.558594 374.367188 202.671875 374.398438 204.792969 374.433594 C 205.097656 374.4375 205.398438 374.441406 205.703125 374.445312 C 206.671875 374.460938 207.628906 373.667969 207.617188 372.65625 C 207.609375 371.671875 206.867188 370.765625 205.832031 370.75 C 203.710938 370.714844 201.597656 370.683594 199.480469 370.652344 C 199.171875 370.644531 198.871094 370.644531 198.566406 370.636719 C 197.597656 370.621094 196.640625 371.414062 196.652344 372.429688 C 196.664062 373.417969 197.402344 374.320312 198.4375 374.335938 "/>
</g>
</g>
</g>
</g>
<g clip-path="url(#clip66)" clip-rule="nonzero">
<g clip-path="url(#clip67)" clip-rule="nonzero">
<g clip-path="url(#clip68)" clip-rule="nonzero">
<g clip-path="url(#clip69)" clip-rule="nonzero">
<path style=" stroke:none;fill-rule:nonzero;fill:rgb(91.369629%,78.42865%,76.469421%);fill-opacity:1;" d="M 105.414062 347.300781 C 107.535156 347.335938 109.648438 347.367188 111.769531 347.402344 C 112.070312 347.402344 112.378906 347.410156 112.683594 347.414062 C 113.648438 347.425781 114.605469 346.636719 114.59375 345.625 C 114.585938 344.632812 113.847656 343.730469 112.808594 343.714844 C 110.691406 343.679688 108.574219 343.652344 106.457031 343.617188 C 106.152344 343.613281 105.847656 343.609375 105.542969 343.601562 C 104.574219 343.589844 103.621094 344.382812 103.632812 345.394531 C 103.640625 346.382812 104.378906 347.285156 105.414062 347.300781 "/>
</g>
</g>
</g>
</g>
<g clip-path="url(#clip70)" clip-rule="nonzero">
<g clip-path="url(#clip71)" clip-rule="nonzero">
<g clip-path="url(#clip72)" clip-rule="nonzero">
<g clip-path="url(#clip73)" clip-rule="nonzero">
<path style=" stroke:none;fill-rule:nonzero;fill:rgb(91.369629%,78.42865%,76.469421%);fill-opacity:1;" d="M 111.265625 316.351562 C 113.382812 316.378906 115.503906 316.414062 117.617188 316.445312 C 117.921875 316.449219 118.226562 316.453125 118.53125 316.460938 C 119.5 316.476562 120.453125 315.683594 120.445312 314.671875 C 120.433594 313.683594 119.695312 312.777344 118.660156 312.761719 C 116.542969 312.730469 114.421875 312.695312 112.304688 312.667969 C 112 312.660156 111.695312 312.65625 111.390625 312.648438 C 110.425781 312.632812 109.46875 313.429688 109.480469 314.441406 C 109.488281 315.425781 110.230469 316.332031 111.265625 316.351562 "/>
</g>
</g>
</g>
</g>
<g clip-path="url(#clip74)" clip-rule="nonzero">
<g clip-path="url(#clip75)" clip-rule="nonzero">
<g clip-path="url(#clip76)" clip-rule="nonzero">
<g clip-path="url(#clip77)" clip-rule="nonzero">
<path style=" stroke:none;fill-rule:nonzero;fill:rgb(91.369629%,78.42865%,76.469421%);fill-opacity:1;" d="M 144.8125 326.0625 C 146.929688 326.09375 149.046875 326.125 151.164062 326.160156 C 151.472656 326.164062 151.777344 326.167969 152.078125 326.171875 C 153.046875 326.1875 154 325.394531 153.988281 324.382812 C 153.984375 323.394531 153.242188 322.492188 152.203125 322.476562 C 150.089844 322.441406 147.96875 322.410156 145.851562 322.378906 C 145.550781 322.375 145.246094 322.367188 144.9375 322.363281 C 143.96875 322.351562 143.015625 323.140625 143.027344 324.152344 C 143.039062 325.140625 143.773438 326.046875 144.8125 326.0625 "/>
</g>
</g>
</g>
</g>
<g clip-path="url(#clip78)" clip-rule="nonzero">
<g clip-path="url(#clip79)" clip-rule="nonzero">
<g clip-path="url(#clip80)" clip-rule="nonzero">
<g clip-path="url(#clip81)" clip-rule="nonzero">
<path style=" stroke:none;fill-rule:nonzero;fill:rgb(91.369629%,78.42865%,76.469421%);fill-opacity:1;" d="M 94.332031 331.449219 C 96.453125 331.480469 98.570312 331.511719 100.6875 331.546875 C 100.992188 331.550781 101.292969 331.554688 101.597656 331.558594 C 102.566406 331.574219 103.523438 330.785156 103.511719 329.769531 C 103.5 328.78125 102.761719 327.878906 101.726562 327.863281 C 99.609375 327.828125 97.492188 327.796875 95.371094 327.765625 C 95.066406 327.757812 94.765625 327.753906 94.460938 327.75 C 93.492188 327.738281 92.535156 328.527344 92.546875 329.539062 C 92.558594 330.527344 93.296875 331.429688 94.332031 331.449219 "/>
</g>
</g>
</g>
</g>
<g clip-path="url(#clip82)" clip-rule="nonzero">
<g clip-path="url(#clip83)" clip-rule="nonzero">
<g clip-path="url(#clip84)" clip-rule="nonzero">
<g clip-path="url(#clip85)" clip-rule="nonzero">
<path style=" stroke:none;fill-rule:nonzero;fill:rgb(91.369629%,78.42865%,76.469421%);fill-opacity:1;" d="M 122.148438 361.859375 C 124.265625 361.894531 126.382812 361.925781 128.503906 361.957031 C 128.808594 361.960938 129.109375 361.964844 129.414062 361.972656 C 130.382812 361.984375 131.339844 361.195312 131.328125 360.179688 C 131.316406 359.191406 130.582031 358.289062 129.542969 358.273438 C 127.421875 358.238281 125.304688 358.210938 123.1875 358.175781 C 122.886719 358.167969 122.578125 358.164062 122.277344 358.164062 C 121.308594 358.148438 120.351562 358.9375 120.367188 359.949219 C 120.375 360.941406 121.113281 361.84375 122.148438 361.859375 "/>
</g>
</g>
</g>
</g>
<g clip-path="url(#clip86)" clip-rule="nonzero">
<g clip-path="url(#clip87)" clip-rule="nonzero">
<g clip-path="url(#clip88)" clip-rule="nonzero">
<g clip-path="url(#clip89)" clip-rule="nonzero">
<path style=" stroke:none;fill-rule:nonzero;fill:rgb(91.369629%,78.42865%,76.469421%);fill-opacity:1;" d="M 138.199219 350.984375 C 140.316406 351.015625 142.4375 351.046875 144.554688 351.078125 C 144.859375 351.082031 145.164062 351.089844 145.46875 351.089844 C 146.433594 351.109375 147.390625 350.316406 147.378906 349.304688 C 147.367188 348.316406 146.632812 347.410156 145.59375 347.394531 C 143.476562 347.363281 141.355469 347.328125 139.242188 347.296875 C 138.933594 347.292969 138.628906 347.289062 138.324219 347.28125 C 137.359375 347.265625 136.402344 348.0625 136.414062 349.074219 C 136.425781 350.0625 137.164062 350.964844 138.199219 350.984375 "/>
</g>
</g>
</g>
</g>
<g clip-path="url(#clip90)" clip-rule="nonzero">
<g clip-path="url(#clip91)" clip-rule="nonzero">
<g clip-path="url(#clip92)" clip-rule="nonzero">
<g clip-path="url(#clip93)" clip-rule="nonzero">
<path style=" stroke:none;fill-rule:nonzero;fill:rgb(91.369629%,78.42865%,76.469421%);fill-opacity:1;" d="M 80.226562 296.5 C 82.34375 296.53125 84.460938 296.5625 86.582031 296.59375 C 86.886719 296.601562 87.191406 296.605469 87.496094 296.609375 C 88.460938 296.625 89.417969 295.832031 89.40625 294.820312 C 89.394531 293.832031 88.65625 292.925781 87.621094 292.910156 C 85.503906 292.878906 83.382812 292.847656 81.265625 292.8125 C 80.960938 292.8125 80.65625 292.804688 80.351562 292.800781 C 79.386719 292.785156 78.429688 293.578125 78.441406 294.589844 C 78.453125 295.578125 79.191406 296.480469 80.226562 296.5 "/>
</g>
</g>
</g>
</g>
<g clip-path="url(#clip94)" clip-rule="nonzero">
<g clip-path="url(#clip95)" clip-rule="nonzero">
<g clip-path="url(#clip96)" clip-rule="nonzero">
<g clip-path="url(#clip97)" clip-rule="nonzero">
<path style=" stroke:none;fill-rule:nonzero;fill:rgb(91.369629%,78.42865%,76.469421%);fill-opacity:1;" d="M 8.160156 301.785156 C 10.277344 301.820312 12.394531 301.851562 14.511719 301.882812 C 14.816406 301.886719 15.121094 301.894531 15.425781 301.898438 C 16.394531 301.914062 17.351562 301.121094 17.339844 300.109375 C 17.328125 299.121094 16.589844 298.214844 15.550781 298.199219 C 13.4375 298.164062 11.320312 298.136719 9.199219 298.101562 C 8.894531 298.097656 8.589844 298.09375 8.285156 298.089844 C 7.320312 298.074219 6.363281 298.867188 6.375 299.875 C 6.382812 300.863281 7.125 301.773438 8.160156 301.785156 "/>
</g>
</g>
</g>
</g>
<g clip-path="url(#clip98)" clip-rule="nonzero">
<g clip-path="url(#clip99)" clip-rule="nonzero">
<g clip-path="url(#clip100)" clip-rule="nonzero">
<g clip-path="url(#clip101)" clip-rule="nonzero">
<path style=" stroke:none;fill-rule:nonzero;fill:rgb(91.369629%,78.42865%,76.469421%);fill-opacity:1;" d="M 7.734375 280.980469 C 9.855469 281.015625 11.972656 281.046875 14.089844 281.078125 C 14.394531 281.082031 14.699219 281.089844 15.003906 281.089844 C 15.972656 281.105469 16.925781 280.3125 16.914062 279.300781 C 16.902344 278.3125 16.167969 277.410156 15.128906 277.394531 C 13.011719 277.359375 10.894531 277.332031 8.777344 277.296875 C 8.472656 277.292969 8.167969 277.289062 7.863281 277.28125 C 6.894531 277.269531 5.941406 278.058594 5.949219 279.074219 C 5.960938 280.0625 6.699219 280.964844 7.734375 280.980469 "/>
</g>
</g>
</g>
</g>
<g clip-path="url(#clip102)" clip-rule="nonzero">
<g clip-path="url(#clip103)" clip-rule="nonzero">
<g clip-path="url(#clip104)" clip-rule="nonzero">
<g clip-path="url(#clip105)" clip-rule="nonzero">
<path style=" stroke:none;fill-rule:nonzero;fill:rgb(91.369629%,78.42865%,76.469421%);fill-opacity:1;" d="M 53.988281 270.273438 C 56.101562 270.308594 58.21875 270.339844 60.335938 270.371094 C 60.640625 270.375 60.949219 270.378906 61.253906 270.382812 C 62.21875 270.398438 63.175781 269.609375 63.164062 268.597656 C 63.15625 267.605469 62.417969 266.703125 61.378906 266.6875 C 59.261719 266.652344 57.144531 266.621094 55.027344 266.589844 C 54.722656 266.585938 54.414062 266.582031 54.109375 266.574219 C 53.144531 266.5625 52.191406 267.351562 52.199219 268.363281 C 52.207031 269.355469 52.949219 270.257812 53.988281 270.273438 "/>
</g>
</g>
</g>
</g>
<g clip-path="url(#clip106)" clip-rule="nonzero">
<g clip-path="url(#clip107)" clip-rule="nonzero">
<g clip-path="url(#clip108)" clip-rule="nonzero">
<g clip-path="url(#clip109)" clip-rule="nonzero">
<path style=" stroke:none;fill-rule:nonzero;fill:rgb(91.369629%,78.42865%,76.469421%);fill-opacity:1;" d="M 81.226562 349.757812 C 83.339844 349.789062 85.460938 349.820312 87.582031 349.855469 C 87.882812 349.859375 88.1875 349.863281 88.492188 349.867188 C 89.460938 349.882812 90.417969 349.089844 90.402344 348.078125 C 90.394531 347.089844 89.65625 346.1875 88.621094 346.171875 C 86.5 346.136719 84.386719 346.105469 82.265625 346.074219 C 81.960938 346.066406 81.65625 346.0625 81.351562 346.058594 C 80.386719 346.046875 79.429688 346.835938 79.441406 347.847656 C 79.449219 348.835938 80.1875 349.742188 81.226562 349.757812 "/>
</g>
</g>
</g>
</g>
<g clip-path="url(#clip110)" clip-rule="nonzero">
<g clip-path="url(#clip111)" clip-rule="nonzero">
<g clip-path="url(#clip112)" clip-rule="nonzero">
<g clip-path="url(#clip113)" clip-rule="nonzero">
<path style=" stroke:none;fill-rule:nonzero;fill:rgb(91.369629%,78.42865%,76.469421%);fill-opacity:1;" d="M 95.730469 235.871094 C 97.847656 235.902344 99.960938 235.933594 102.082031 235.964844 C 102.386719 235.96875 102.691406 235.976562 102.996094 235.980469 C 103.960938 235.992188 104.917969 235.203125 104.910156 234.191406 C 104.898438 233.203125 104.160156 232.296875 103.121094 232.28125 C 101.007812 232.25 98.886719 232.214844 96.769531 232.1875 C 96.464844 232.179688 96.160156 232.175781 95.855469 232.171875 C 94.886719 232.15625 93.933594 232.949219 93.941406 233.960938 C 93.953125 234.949219 94.691406 235.855469 95.730469 235.871094 "/>
</g>
</g>
</g>
</g>
<g clip-path="url(#clip114)" clip-rule="nonzero">
<g clip-path="url(#clip115)" clip-rule="nonzero">
<g clip-path="url(#clip116)" clip-rule="nonzero">
<g clip-path="url(#clip117)" clip-rule="nonzero">
<path style=" stroke:none;fill-rule:nonzero;fill:rgb(91.369629%,78.42865%,76.469421%);fill-opacity:1;" d="M 183.1875 357.550781 C 185.304688 357.582031 187.421875 357.617188 189.542969 357.648438 C 189.84375 357.652344 190.148438 357.65625 190.453125 357.664062 C 191.421875 357.679688 192.378906 356.886719 192.367188 355.871094 C 192.355469 354.882812 191.617188 353.980469 190.582031 353.964844 C 188.460938 353.929688 186.34375 353.902344 184.226562 353.867188 C 183.921875 353.863281 183.617188 353.855469 183.3125 353.855469 C 182.34375 353.839844 181.390625 354.632812 181.398438 355.640625 C 181.414062 356.632812 182.152344 357.535156 183.1875 357.550781 "/>
</g>
</g>
</g>
</g>
<g clip-path="url(#clip118)" clip-rule="nonzero">
<g clip-path="url(#clip119)" clip-rule="nonzero">
<g clip-path="url(#clip120)" clip-rule="nonzero">
<g clip-path="url(#clip121)" clip-rule="nonzero">
<path style=" stroke:none;fill-rule:nonzero;fill:rgb(91.369629%,78.42865%,76.469421%);fill-opacity:1;" d="M 98.480469 367.570312 C 100.597656 367.601562 102.714844 367.632812 104.832031 367.667969 C 105.140625 367.671875 105.445312 367.675781 105.746094 367.679688 C 106.714844 367.695312 107.671875 366.902344 107.660156 365.890625 C 107.652344 364.902344 106.910156 363.996094 105.875 363.980469 C 103.757812 363.949219 101.636719 363.917969 99.523438 363.882812 C 99.214844 363.882812 98.910156 363.875 98.609375 363.871094 C 97.640625 363.855469 96.683594 364.648438 96.695312 365.660156 C 96.707031 366.648438 97.445312 367.550781 98.480469 367.570312 "/>
</g>
</g>
</g>
</g>
<g clip-path="url(#clip122)" clip-rule="nonzero">
<g clip-path="url(#clip123)" clip-rule="nonzero">
<g clip-path="url(#clip124)" clip-rule="nonzero">
<g clip-path="url(#clip125)" clip-rule="nonzero">
<path style=" stroke:none;fill-rule:nonzero;fill:rgb(91.369629%,78.42865%,76.469421%);fill-opacity:1;" d="M 79.703125 276.320312 C 81.820312 276.355469 83.9375 276.386719 86.058594 276.417969 C 86.363281 276.425781 86.667969 276.429688 86.972656 276.433594 C 87.9375 276.445312 88.894531 275.65625 88.886719 274.644531 C 88.875 273.652344 88.136719 272.75 87.097656 272.734375 C 84.984375 272.703125 82.863281 272.667969 80.742188 272.636719 C 80.441406 272.632812 80.136719 272.628906 79.832031 272.625 C 78.863281 272.609375 77.90625 273.398438 77.921875 274.414062 C 77.929688 275.402344 78.667969 276.304688 79.703125 276.320312 "/>
</g>
</g>
</g>
</g>
<g clip-path="url(#clip126)" clip-rule="nonzero">
<g clip-path="url(#clip127)" clip-rule="nonzero">
<g clip-path="url(#clip128)" clip-rule="nonzero">
<g clip-path="url(#clip129)" clip-rule="nonzero">
<path style=" stroke:none;fill-rule:nonzero;fill:rgb(91.369629%,78.42865%,76.469421%);fill-opacity:1;" d="M 91.15625 257.632812 C 93.273438 257.664062 95.394531 257.695312 97.507812 257.730469 C 97.8125 257.734375 98.121094 257.738281 98.425781 257.746094 C 99.390625 257.757812 100.347656 256.96875 100.335938 255.957031 C 100.328125 254.964844 99.585938 254.0625 98.550781 254.042969 C 96.433594 254.011719 94.316406 253.980469 92.199219 253.949219 C 91.894531 253.945312 91.589844 253.9375 91.285156 253.933594 C 90.3125 253.921875 89.359375 254.710938 89.371094 255.722656 C 89.382812 256.710938 90.121094 257.617188 91.15625 257.632812 "/>
</g>
</g>
</g>
</g>
<g clip-path="url(#clip130)" clip-rule="nonzero">
<g clip-path="url(#clip131)" clip-rule="nonzero">
<g clip-path="url(#clip132)" clip-rule="nonzero">
<g clip-path="url(#clip133)" clip-rule="nonzero">
<path style=" stroke:none;fill-rule:nonzero;fill:rgb(91.369629%,78.42865%,76.469421%);fill-opacity:1;" d="M 179.496094 327.609375 C 181.613281 327.640625 183.730469 327.671875 185.851562 327.707031 C 186.15625 327.710938 186.460938 327.71875 186.765625 327.71875 C 187.730469 327.734375 188.6875 326.941406 188.675781 325.933594 C 188.664062 324.9375 187.925781 324.035156 186.890625 324.023438 C 184.773438 323.992188 182.65625 323.957031 180.535156 323.921875 C 180.234375 323.917969 179.925781 323.917969 179.621094 323.910156 C 178.65625 323.894531 177.699219 324.6875 177.710938 325.699219 C 177.722656 326.6875 178.457031 327.59375 179.496094 327.609375 "/>
</g>
</g>
</g>
</g>
<g clip-path="url(#clip134)" clip-rule="nonzero">
<g clip-path="url(#clip135)" clip-rule="nonzero">
<g clip-path="url(#clip136)" clip-rule="nonzero">
<g clip-path="url(#clip137)" clip-rule="nonzero">
<path style=" stroke:none;fill-rule:nonzero;fill:rgb(91.369629%,78.42865%,76.469421%);fill-opacity:1;" d="M 130.933594 311.007812 C 133.046875 311.042969 135.167969 311.074219 137.285156 311.105469 C 137.589844 311.109375 137.894531 311.117188 138.199219 311.121094 C 139.167969 311.132812 140.121094 310.34375 140.109375 309.332031 C 140.101562 308.339844 139.363281 307.4375 138.324219 307.421875 C 136.207031 307.390625 134.089844 307.355469 131.972656 307.324219 C 131.667969 307.320312 131.359375 307.316406 131.054688 307.308594 C 130.089844 307.296875 129.136719 308.089844 129.144531 309.097656 C 129.15625 310.085938 129.894531 310.992188 130.933594 311.007812 "/>
</g>
</g>
</g>
</g>
<g clip-path="url(#clip138)" clip-rule="nonzero">
<g clip-path="url(#clip139)" clip-rule="nonzero">
<g clip-path="url(#clip140)" clip-rule="nonzero">
<g clip-path="url(#clip141)" clip-rule="nonzero">
<path style=" stroke:none;fill-rule:nonzero;fill:rgb(91.369629%,78.42865%,76.469421%);fill-opacity:1;" d="M 111.667969 250.992188 C 113.785156 251.023438 115.902344 251.054688 118.019531 251.089844 C 118.328125 251.09375 118.628906 251.097656 118.933594 251.101562 C 119.902344 251.117188 120.859375 250.324219 120.847656 249.3125 C 120.835938 248.324219 120.097656 247.421875 119.0625 247.40625 C 116.941406 247.371094 114.824219 247.339844 112.707031 247.304688 C 112.402344 247.300781 112.101562 247.300781 111.796875 247.292969 C 110.828125 247.277344 109.871094 248.070312 109.882812 249.085938 C 109.894531 250.070312 110.632812 250.976562 111.667969 250.992188 "/>
</g>
</g>
</g>
</g>
<g clip-path="url(#clip142)" clip-rule="nonzero">
<g clip-path="url(#clip143)" clip-rule="nonzero">
<g clip-path="url(#clip144)" clip-rule="nonzero">
<g clip-path="url(#clip145)" clip-rule="nonzero">
<path style=" stroke:none;fill-rule:nonzero;fill:rgb(91.369629%,78.42865%,76.469421%);fill-opacity:1;" d="M 46.984375 311.722656 C 49.101562 311.757812 51.21875 311.792969 53.335938 311.824219 C 53.640625 311.828125 53.949219 311.832031 54.25 311.835938 C 55.21875 311.851562 56.171875 311.058594 56.164062 310.050781 C 56.15625 309.058594 55.414062 308.152344 54.375 308.140625 C 52.261719 308.105469 50.140625 308.074219 48.023438 308.042969 C 47.71875 308.035156 47.414062 308.035156 47.109375 308.027344 C 46.140625 308.011719 45.1875 308.804688 45.199219 309.816406 C 45.210938 310.804688 45.945312 311.710938 46.984375 311.722656 "/>
</g>
</g>
</g>
</g>
<g clip-path="url(#clip146)" clip-rule="nonzero">
<g clip-path="url(#clip147)" clip-rule="nonzero">
<g clip-path="url(#clip148)" clip-rule="nonzero">
<g clip-path="url(#clip149)" clip-rule="nonzero">
<path style=" stroke:none;fill-rule:nonzero;fill:rgb(91.369629%,78.42865%,76.469421%);fill-opacity:1;" d="M 197.007812 341.917969 C 199.125 341.949219 201.242188 341.984375 203.359375 342.015625 C 203.664062 342.019531 203.972656 342.023438 204.277344 342.027344 C 205.242188 342.042969 206.195312 341.25 206.1875 340.242188 C 206.175781 339.253906 205.4375 338.34375 204.398438 338.328125 C 202.28125 338.300781 200.164062 338.265625 198.046875 338.234375 C 197.742188 338.226562 197.4375 338.226562 197.132812 338.21875 C 196.164062 338.203125 195.210938 338.996094 195.222656 340.007812 C 195.230469 340.996094 195.972656 341.902344 197.007812 341.917969 "/>
</g>
</g>
</g>
</g>
<g clip-path="url(#clip150)" clip-rule="nonzero">
<g clip-path="url(#clip151)" clip-rule="nonzero">
<g clip-path="url(#clip152)" clip-rule="nonzero">
<g clip-path="url(#clip153)" clip-rule="nonzero">
<path style=" stroke:none;fill-rule:nonzero;fill:rgb(91.369629%,78.42865%,76.469421%);fill-opacity:1;" d="M 125.074219 334.949219 C 127.195312 334.980469 129.3125 335.011719 131.429688 335.046875 C 131.734375 335.050781 132.039062 335.054688 132.339844 335.058594 C 133.3125 335.070312 134.265625 334.28125 134.253906 333.269531 C 134.242188 332.28125 133.503906 331.378906 132.46875 331.359375 C 130.351562 331.328125 128.234375 331.296875 126.113281 331.265625 C 125.8125 331.261719 125.507812 331.253906 125.203125 331.25 C 124.234375 331.234375 123.28125 332.023438 123.289062 333.039062 C 123.300781 334.027344 124.039062 334.929688 125.074219 334.949219 "/>
</g>
</g>
</g>
</g>
<g clip-path="url(#clip154)" clip-rule="nonzero">
<g clip-path="url(#clip155)" clip-rule="nonzero">
<g clip-path="url(#clip156)" clip-rule="nonzero">
<g clip-path="url(#clip157)" clip-rule="nonzero">
<path style=" stroke:none;fill-rule:nonzero;fill:rgb(91.369629%,78.42865%,76.469421%);fill-opacity:1;" d="M 121.71875 291.183594 C 123.835938 291.214844 125.953125 291.246094 128.074219 291.28125 C 128.375 291.285156 128.679688 291.289062 128.984375 291.296875 C 129.953125 291.308594 130.910156 290.515625 130.898438 289.503906 C 130.886719 288.515625 130.148438 287.613281 129.113281 287.597656 C 126.992188 287.5625 124.875 287.535156 122.757812 287.496094 C 122.453125 287.496094 122.152344 287.492188 121.84375 287.488281 C 120.875 287.472656 119.921875 288.265625 119.929688 289.273438 C 119.945312 290.265625 120.679688 291.167969 121.71875 291.183594 "/>
</g>
</g>
</g>
</g>
<g clip-path="url(#clip158)" clip-rule="nonzero">
<g clip-path="url(#clip159)" clip-rule="nonzero">
<g clip-path="url(#clip160)" clip-rule="nonzero">
<g clip-path="url(#clip161)" clip-rule="nonzero">
<path style=" stroke:none;fill-rule:nonzero;fill:rgb(91.369629%,78.42865%,76.469421%);fill-opacity:1;" d="M 28.753906 301.367188 C 30.871094 301.402344 32.988281 301.433594 35.105469 301.464844 C 35.410156 301.472656 35.714844 301.476562 36.019531 301.480469 C 36.988281 301.492188 37.941406 300.703125 37.929688 299.691406 C 37.921875 298.703125 37.183594 297.796875 36.144531 297.78125 C 34.027344 297.746094 31.914062 297.71875 29.792969 297.683594 C 29.488281 297.679688 29.179688 297.675781 28.878906 297.671875 C 27.914062 297.65625 26.957031 298.449219 26.96875 299.460938 C 26.976562 300.449219 27.714844 301.351562 28.753906 301.367188 "/>
</g>
</g>
</g>
</g>
<g clip-path="url(#clip162)" clip-rule="nonzero">
<g clip-path="url(#clip163)" clip-rule="nonzero">
<g clip-path="url(#clip164)" clip-rule="nonzero">
<g clip-path="url(#clip165)" clip-rule="nonzero">
<path style=" stroke:none;fill-rule:nonzero;fill:rgb(91.369629%,78.42865%,76.469421%);fill-opacity:1;" d="M 162.542969 336.761719 C 164.65625 336.796875 166.777344 336.828125 168.894531 336.859375 C 169.199219 336.863281 169.503906 336.871094 169.804688 336.875 C 170.777344 336.886719 171.730469 336.09375 171.71875 335.082031 C 171.707031 334.09375 170.96875 333.191406 169.933594 333.175781 C 167.816406 333.144531 165.695312 333.113281 163.578125 333.074219 C 163.277344 333.074219 162.96875 333.070312 162.664062 333.0625 C 161.699219 333.050781 160.742188 333.839844 160.753906 334.851562 C 160.765625 335.84375 161.503906 336.746094 162.542969 336.761719 "/>
</g>
</g>
</g>
</g>
<g clip-path="url(#clip166)" clip-rule="nonzero">
<g clip-path="url(#clip167)" clip-rule="nonzero">
<g clip-path="url(#clip168)" clip-rule="nonzero">
<g clip-path="url(#clip169)" clip-rule="nonzero">
<path style=" stroke:none;fill-rule:nonzero;fill:rgb(91.369629%,78.42865%,76.469421%);fill-opacity:1;" d="M 56.925781 292.054688 C 59.042969 292.089844 61.160156 292.121094 63.277344 292.152344 C 63.582031 292.160156 63.886719 292.164062 64.191406 292.167969 C 65.160156 292.183594 66.117188 291.390625 66.105469 290.378906 C 66.09375 289.390625 65.355469 288.488281 64.320312 288.472656 C 62.199219 288.4375 60.082031 288.40625 57.964844 288.371094 C 57.660156 288.367188 57.355469 288.367188 57.050781 288.359375 C 56.085938 288.34375 55.128906 289.136719 55.140625 290.148438 C 55.148438 291.140625 55.886719 292.042969 56.925781 292.054688 "/>
</g>
</g>
</g>
</g>
<g clip-path="url(#clip170)" clip-rule="nonzero">
<g clip-path="url(#clip171)" clip-rule="nonzero">
<g clip-path="url(#clip172)" clip-rule="nonzero">
<g clip-path="url(#clip173)" clip-rule="nonzero">
<path style=" stroke:none;fill-rule:nonzero;fill:rgb(91.369629%,78.42865%,76.469421%);fill-opacity:1;" d="M 86.570312 314.539062 C 88.6875 314.570312 90.804688 314.601562 92.921875 314.632812 C 93.226562 314.636719 93.53125 314.644531 93.835938 314.648438 C 94.800781 314.664062 95.757812 313.867188 95.75 312.859375 C 95.738281 311.871094 94.996094 310.964844 93.960938 310.949219 C 91.84375 310.917969 89.726562 310.886719 87.609375 310.851562 C 87.304688 310.847656 87 310.84375 86.695312 310.835938 C 85.726562 310.824219 84.773438 311.613281 84.78125 312.628906 C 84.792969 313.617188 85.535156 314.519531 86.570312 314.539062 "/>
</g>
</g>
</g>
</g>
<g clip-path="url(#clip174)" clip-rule="nonzero">
<g clip-path="url(#clip175)" clip-rule="nonzero">
<g clip-path="url(#clip176)" clip-rule="nonzero">
<g clip-path="url(#clip177)" clip-rule="nonzero">
<path style=" stroke:none;fill-rule:nonzero;fill:rgb(91.369629%,78.42865%,76.469421%);fill-opacity:1;" d="M 230.554688 362.734375 C 232.675781 362.765625 234.789062 362.800781 236.910156 362.832031 C 237.214844 362.839844 237.519531 362.84375 237.820312 362.84375 C 238.789062 362.859375 239.746094 362.070312 239.734375 361.058594 C 239.722656 360.070312 238.984375 359.164062 237.949219 359.148438 C 235.832031 359.117188 233.714844 359.082031 231.597656 359.050781 C 231.292969 359.046875 230.988281 359.042969 230.679688 359.039062 C 229.714844 359.023438 228.757812 359.8125 228.769531 360.828125 C 228.78125 361.8125 229.515625 362.71875 230.554688 362.734375 "/>
</g>
</g>
</g>
</g>
<g clip-path="url(#clip178)" clip-rule="nonzero">
<g clip-path="url(#clip179)" clip-rule="nonzero">
<g clip-path="url(#clip180)" clip-rule="nonzero">
<g clip-path="url(#clip181)" clip-rule="nonzero">
<path style=" stroke:none;fill-rule:nonzero;fill:rgb(91.369629%,78.42865%,76.469421%);fill-opacity:1;" d="M 172.53125 377.515625 C 174.652344 377.550781 176.765625 377.582031 178.882812 377.617188 C 179.191406 377.617188 179.492188 377.621094 179.796875 377.628906 C 180.765625 377.644531 181.722656 376.851562 181.710938 375.835938 C 181.699219 374.847656 180.960938 373.945312 179.925781 373.929688 C 177.804688 373.898438 175.691406 373.867188 173.574219 373.832031 C 173.265625 373.828125 172.964844 373.824219 172.660156 373.820312 C 171.691406 373.804688 170.734375 374.597656 170.746094 375.609375 C 170.757812 376.597656 171.496094 377.5 172.53125 377.515625 "/>
</g>
</g>
</g>
</g>
<g clip-path="url(#clip182)" clip-rule="nonzero">
<g clip-path="url(#clip183)" clip-rule="nonzero">
<g clip-path="url(#clip184)" clip-rule="nonzero">
<g clip-path="url(#clip185)" clip-rule="nonzero">
<path style=" stroke:none;fill-rule:nonzero;fill:rgb(91.369629%,78.42865%,76.469421%);fill-opacity:1;" d="M 41.558594 359.15625 C 43.679688 359.1875 45.796875 359.21875 47.917969 359.253906 C 48.21875 359.257812 48.523438 359.261719 48.828125 359.265625 C 49.796875 359.28125 50.753906 358.488281 50.738281 357.476562 C 50.730469 356.488281 49.992188 355.582031 48.957031 355.570312 C 46.835938 355.535156 44.71875 355.503906 42.601562 355.46875 C 42.296875 355.464844 41.992188 355.460938 41.6875 355.457031 C 40.722656 355.441406 39.765625 356.234375 39.777344 357.246094 C 39.785156 358.238281 40.523438 359.140625 41.558594 359.15625 "/>
</g>
</g>
</g>
</g>
<g clip-path="url(#clip186)" clip-rule="nonzero">
<g clip-path="url(#clip187)" clip-rule="nonzero">
<g clip-path="url(#clip188)" clip-rule="nonzero">
<g clip-path="url(#clip189)" clip-rule="nonzero">
<path style=" stroke:none;fill-rule:nonzero;fill:rgb(91.369629%,78.42865%,76.469421%);fill-opacity:1;" d="M 27.273438 325.746094 C 29.394531 325.78125 31.511719 325.8125 33.628906 325.84375 C 33.933594 325.847656 34.238281 325.851562 34.542969 325.859375 C 35.507812 325.875 36.464844 325.082031 36.453125 324.066406 C 36.445312 323.078125 35.707031 322.175781 34.667969 322.160156 C 32.550781 322.128906 30.433594 322.097656 28.316406 322.0625 C 28.007812 322.058594 27.703125 322.050781 27.402344 322.050781 C 26.4375 322.035156 25.480469 322.824219 25.488281 323.839844 C 25.5 324.828125 26.238281 325.730469 27.273438 325.746094 "/>
</g>
</g>
</g>
</g>
<g clip-path="url(#clip190)" clip-rule="nonzero">
<g clip-path="url(#clip191)" clip-rule="nonzero">
<g clip-path="url(#clip192)" clip-rule="nonzero">
<g clip-path="url(#clip193)" clip-rule="nonzero">
<path style=" stroke:none;fill-rule:nonzero;fill:rgb(91.369629%,78.42865%,76.469421%);fill-opacity:1;" d="M 34.304688 282.28125 C 36.421875 282.3125 38.539062 282.347656 40.65625 282.378906 C 40.964844 282.382812 41.269531 282.386719 41.574219 282.394531 C 42.539062 282.410156 43.496094 281.617188 43.484375 280.605469 C 43.472656 279.613281 42.734375 278.710938 41.699219 278.699219 C 39.582031 278.664062 37.460938 278.628906 35.34375 278.597656 C 35.039062 278.59375 34.734375 278.585938 34.429688 278.585938 C 33.460938 278.570312 32.507812 279.359375 32.519531 280.371094 C 32.53125 281.359375 33.269531 282.269531 34.304688 282.28125 "/>
</g>
</g>
</g>
</g>
<g clip-path="url(#clip194)" clip-rule="nonzero">
<g clip-path="url(#clip195)" clip-rule="nonzero">
<g clip-path="url(#clip196)" clip-rule="nonzero">
<g clip-path="url(#clip197)" clip-rule="nonzero">
<path style=" stroke:none;fill-rule:nonzero;fill:rgb(91.369629%,78.42865%,76.469421%);fill-opacity:1;" d="M 60.210938 339.289062 C 62.324219 339.320312 64.445312 339.351562 66.5625 339.386719 C 66.867188 339.390625 67.171875 339.394531 67.476562 339.398438 C 68.445312 339.414062 69.398438 338.621094 69.386719 337.609375 C 69.375 336.621094 68.640625 335.71875 67.601562 335.703125 C 65.484375 335.667969 63.367188 335.632812 61.25 335.605469 C 60.945312 335.597656 60.636719 335.59375 60.335938 335.589844 C 59.367188 335.574219 58.414062 336.367188 58.421875 337.378906 C 58.429688 338.367188 59.171875 339.273438 60.210938 339.289062 "/>
</g>
</g>
</g>
</g>
<g clip-path="url(#clip198)" clip-rule="nonzero">
<g clip-path="url(#clip199)" clip-rule="nonzero">
<g clip-path="url(#clip200)" clip-rule="nonzero">
<g clip-path="url(#clip201)" clip-rule="nonzero">
<path style=" stroke:none;fill-rule:nonzero;fill:rgb(91.369629%,78.42865%,76.469421%);fill-opacity:1;" d="M 204.824219 322.980469 C 206.941406 323.007812 209.058594 323.042969 211.175781 323.074219 C 211.480469 323.078125 211.785156 323.085938 212.09375 323.085938 C 213.058594 323.105469 214.015625 322.3125 214.003906 321.300781 C 213.992188 320.3125 213.253906 319.402344 212.214844 319.390625 C 210.097656 319.359375 207.984375 319.324219 205.863281 319.292969 C 205.558594 319.289062 205.253906 319.285156 204.949219 319.277344 C 203.980469 319.261719 203.023438 320.054688 203.035156 321.070312 C 203.046875 322.058594 203.789062 322.960938 204.824219 322.980469 "/>
</g>
</g>
</g>
</g>
<g clip-path="url(#clip202)" clip-rule="nonzero">
<g clip-path="url(#clip203)" clip-rule="nonzero">
<g clip-path="url(#clip204)" clip-rule="nonzero">
<g clip-path="url(#clip205)" clip-rule="nonzero">
<path style=" stroke:none;fill-rule:nonzero;fill:rgb(91.369629%,78.42865%,76.469421%);fill-opacity:1;" d="M 58.308594 364.558594 C 60.425781 364.589844 62.542969 364.625 64.660156 364.65625 C 64.964844 364.660156 65.273438 364.664062 65.574219 364.667969 C 66.542969 364.683594 67.496094 363.890625 67.488281 362.882812 C 67.480469 361.890625 66.738281 360.988281 65.699219 360.972656 C 63.585938 360.9375 61.464844 360.90625 59.347656 360.875 C 59.042969 360.871094 58.742188 360.863281 58.433594 360.859375 C 57.464844 360.847656 56.511719 361.636719 56.523438 362.648438 C 56.535156 363.636719 57.269531 364.542969 58.308594 364.558594 "/>
</g>
</g>
</g>
</g>
<g clip-path="url(#clip206)" clip-rule="nonzero">
<g clip-path="url(#clip207)" clip-rule="nonzero">
<g clip-path="url(#clip208)" clip-rule="nonzero">
<g clip-path="url(#clip209)" clip-rule="nonzero">
<path style=" stroke:none;fill-rule:nonzero;fill:rgb(91.369629%,78.42865%,76.469421%);fill-opacity:1;" d="M 66.253906 321.371094 C 68.375 321.402344 70.492188 321.433594 72.609375 321.464844 C 72.914062 321.472656 73.214844 321.476562 73.523438 321.476562 C 74.488281 321.496094 75.445312 320.703125 75.433594 319.691406 C 75.421875 318.703125 74.6875 317.796875 73.648438 317.78125 C 71.53125 317.75 69.414062 317.71875 67.296875 317.683594 C 66.988281 317.679688 66.6875 317.675781 66.382812 317.671875 C 65.414062 317.65625 64.460938 318.445312 64.46875 319.460938 C 64.480469 320.449219 65.21875 321.351562 66.253906 321.371094 "/>
</g>
</g>
</g>
</g>
<path style=" stroke:none;fill-rule:nonzero;fill:rgb(16.468811%,8.239746%,6.269836%);fill-opacity:1;" d="M 279.945312 183.734375 C 278.378906 187.796875 277.417969 192 277.0625 196.34375 C 276.539062 201.207031 276.128906 207.332031 278.902344 211.5625 C 279.488281 212.53125 280.195312 213.390625 281.03125 214.152344 C 281.867188 214.910156 282.792969 215.53125 283.8125 216.019531 C 284.828125 216.507812 285.894531 216.839844 287.007812 217.019531 C 288.125 217.195312 289.242188 217.207031 290.359375 217.058594 C 291.472656 216.921875 292.546875 216.625 293.570312 216.167969 C 294.597656 215.714844 295.539062 215.117188 296.386719 214.386719 C 297.238281 213.652344 297.964844 212.8125 298.566406 211.863281 C 299.167969 210.914062 299.621094 209.898438 299.921875 208.816406 C 300.546875 206.371094 300.546875 203.925781 299.921875 201.480469 C 299.726562 200.710938 299.480469 199.96875 299.316406 199.199219 C 299.152344 198.433594 298.902344 197.414062 298.738281 196.453125 C 298.574219 195.492188 298.601562 193.433594 298.738281 196.261719 C 298.738281 192.855469 297.996094 189.449219 297.914062 186.042969 C 297.90625 185.496094 297.847656 184.957031 297.746094 184.421875 C 297.640625 183.886719 297.488281 183.367188 297.289062 182.859375 C 297.089844 182.351562 296.851562 181.863281 296.566406 181.398438 C 296.28125 180.9375 295.957031 180.5 295.59375 180.09375 C 295.230469 179.6875 294.835938 179.316406 294.40625 178.980469 C 293.976562 178.644531 293.519531 178.347656 293.039062 178.09375 C 292.558594 177.839844 292.054688 177.628906 291.535156 177.464844 C 291.019531 177.300781 290.488281 177.183594 289.949219 177.113281 C 289.40625 177.050781 288.863281 177.03125 288.320312 177.066406 C 287.777344 177.097656 287.238281 177.175781 286.710938 177.300781 C 286.179688 177.425781 285.664062 177.597656 285.164062 177.816406 C 284.667969 178.03125 284.1875 178.292969 283.734375 178.59375 C 283.28125 178.894531 282.855469 179.230469 282.460938 179.605469 C 282.066406 179.980469 281.707031 180.386719 281.386719 180.828125 C 281.0625 181.265625 280.78125 181.730469 280.539062 182.21875 C 280.296875 182.707031 280.101562 183.210938 279.945312 183.734375 Z M 279.945312 183.734375 "/>
<path style=" stroke:none;fill-rule:nonzero;fill:rgb(16.468811%,8.239746%,6.269836%);fill-opacity:1;" d="M 309.617188 200.082031 C 308.085938 203.476562 307.308594 207.039062 307.28125 210.765625 L 307.035156 212.855469 C 307.199219 211.507812 307.035156 212.414062 307.035156 213.210938 C 306.816406 214.695312 306.570312 216.152344 306.320312 217.609375 C 305.304688 223.488281 308.21875 229.203125 314.5625 230.054688 C 315.265625 230.152344 315.96875 230.175781 316.671875 230.121094 C 317.378906 230.070312 318.070312 229.941406 318.75 229.742188 C 319.425781 229.542969 320.078125 229.273438 320.699219 228.933594 C 321.316406 228.59375 321.894531 228.191406 322.429688 227.726562 C 322.964844 227.265625 323.445312 226.75 323.871094 226.183594 C 324.292969 225.617188 324.65625 225.015625 324.949219 224.371094 C 325.246094 223.726562 325.46875 223.0625 325.621094 222.371094 C 325.773438 221.679688 325.851562 220.980469 325.855469 220.273438 C 325.664062 217.222656 325.414062 214.203125 325.058594 211.179688 C 325.03125 207.292969 324.113281 203.632812 322.3125 200.191406 C 322.148438 199.914062 321.972656 199.652344 321.777344 199.398438 C 321.582031 199.148438 321.371094 198.910156 321.148438 198.683594 C 320.921875 198.460938 320.683594 198.25 320.429688 198.058594 C 320.175781 197.863281 319.910156 197.6875 319.636719 197.527344 C 319.359375 197.367188 319.074219 197.226562 318.78125 197.101562 C 318.488281 196.980469 318.1875 196.875 317.878906 196.792969 C 317.574219 196.707031 317.261719 196.644531 316.945312 196.601562 C 316.632812 196.558594 316.3125 196.535156 315.996094 196.53125 C 315.675781 196.527344 315.359375 196.546875 315.042969 196.585938 C 314.726562 196.625 314.414062 196.679688 314.105469 196.761719 C 313.796875 196.839844 313.496094 196.9375 313.199219 197.054688 C 312.902344 197.171875 312.617188 197.308594 312.339844 197.464844 C 312.058594 197.617188 311.792969 197.789062 311.535156 197.980469 C 311.28125 198.167969 311.039062 198.375 310.808594 198.59375 C 310.578125 198.816406 310.363281 199.050781 310.164062 199.300781 C 309.964844 199.546875 309.785156 199.808594 309.617188 200.082031 Z M 309.617188 200.082031 "/>
<path style=" stroke:none;fill-rule:nonzero;fill:rgb(16.468811%,8.239746%,6.269836%);fill-opacity:1;" d="M 282.695312 244.972656 C 282.359375 251.480469 283.441406 257.742188 285.9375 263.761719 C 286.304688 264.390625 286.726562 264.980469 287.203125 265.535156 C 287.679688 266.085938 288.199219 266.589844 288.769531 267.046875 C 289.335938 267.503906 289.941406 267.90625 290.578125 268.253906 C 291.21875 268.601562 291.886719 268.890625 292.578125 269.117188 C 293.269531 269.34375 293.976562 269.507812 294.699219 269.605469 C 295.421875 269.703125 296.148438 269.738281 296.875 269.703125 C 297.601562 269.671875 298.320312 269.574219 299.03125 269.410156 C 299.742188 269.25 300.433594 269.023438 301.101562 268.734375 C 301.769531 268.449219 302.410156 268.109375 303.015625 267.710938 C 303.625 267.308594 304.191406 266.859375 304.71875 266.359375 C 305.246094 265.859375 305.726562 265.316406 306.15625 264.730469 C 306.589844 264.144531 306.964844 263.527344 307.285156 262.871094 C 307.605469 262.21875 307.863281 261.542969 308.0625 260.84375 C 308.261719 260.144531 308.398438 259.433594 308.472656 258.710938 C 308.542969 257.988281 308.550781 257.261719 308.496094 256.539062 C 308.4375 255.8125 308.320312 255.097656 308.132812 254.394531 C 307.746094 252.601562 307.070312 250.925781 306.101562 249.367188 C 306.429688 249.863281 306.953125 251.648438 306.429688 250.109375 C 306.238281 249.503906 305.992188 248.925781 305.800781 248.296875 C 305.125 246.25 304.574219 244.171875 304.152344 242.058594 C 303.957031 241.449219 303.710938 240.855469 303.414062 240.289062 C 303.117188 239.71875 302.769531 239.179688 302.378906 238.671875 C 301.988281 238.164062 301.554688 237.691406 301.078125 237.261719 C 300.605469 236.828125 300.097656 236.441406 299.554688 236.097656 C 299.011719 235.753906 298.445312 235.460938 297.847656 235.214844 C 297.253906 234.972656 296.644531 234.78125 296.019531 234.644531 C 295.390625 234.507812 294.757812 234.425781 294.113281 234.402344 C 293.472656 234.375 292.835938 234.40625 292.199219 234.492188 C 291.5625 234.578125 290.9375 234.71875 290.328125 234.914062 C 289.714844 235.109375 289.125 235.359375 288.558594 235.65625 C 287.988281 235.957031 287.453125 236.304688 286.945312 236.695312 C 286.4375 237.089844 285.96875 237.523438 285.535156 238 C 285.105469 238.476562 284.71875 238.984375 284.375 239.527344 C 284.035156 240.070312 283.742188 240.640625 283.5 241.234375 C 283.257812 241.828125 283.070312 242.441406 282.933594 243.066406 C 282.796875 243.695312 282.71875 244.328125 282.695312 244.972656 Z M 282.695312 244.972656 "/>
<g clip-path="url(#clip210)" clip-rule="nonzero">
<path style=" stroke:none;fill-rule:nonzero;fill:rgb(16.468811%,8.239746%,6.269836%);fill-opacity:1;" d="M 328.988281 265.027344 L 328.765625 265.027344 C 328.167969 265.191406 327.597656 265.425781 327.058594 265.738281 C 326.519531 266.050781 326.03125 266.429688 325.59375 266.871094 C 325.152344 267.3125 324.78125 267.800781 324.46875 268.34375 C 324.160156 268.882812 323.925781 269.453125 323.765625 270.054688 C 323.285156 272.492188 322.625 274.882812 321.789062 277.226562 C 321.515625 277.96875 321.460938 278.023438 321.789062 277.226562 C 321.542969 277.773438 321.265625 278.351562 320.992188 278.902344 C 320.71875 279.449219 320.386719 279.972656 320.140625 280.523438 C 319.371094 282.273438 318.925781 284.105469 318.792969 286.015625 C 318.792969 287.007812 318.953125 287.972656 319.269531 288.914062 C 319.585938 289.851562 320.046875 290.714844 320.644531 291.503906 C 321.246094 292.292969 321.957031 292.96875 322.777344 293.523438 C 323.597656 294.078125 324.488281 294.488281 325.441406 294.753906 C 326.402344 294.976562 327.375 295.046875 328.359375 294.964844 C 329.34375 294.886719 330.289062 294.660156 331.203125 294.285156 C 332.117188 293.914062 332.949219 293.410156 333.707031 292.777344 C 334.464844 292.140625 335.105469 291.410156 335.636719 290.578125 C 337.695312 287.828125 337.886719 283.269531 338.191406 279.917969 C 338.4375 277.308594 338.4375 274.699219 338.191406 272.085938 C 338.171875 271.28125 338.027344 270.496094 337.753906 269.734375 C 337.480469 268.976562 337.097656 268.277344 336.601562 267.640625 C 336.101562 267.003906 335.519531 266.464844 334.84375 266.015625 C 334.171875 265.570312 333.449219 265.238281 332.667969 265.027344 C 331.441406 264.804688 330.214844 264.804688 328.988281 265.027344 Z M 328.988281 265.027344 "/>
</g>
<path style=" stroke:none;fill-rule:nonzero;fill:rgb(16.468811%,8.239746%,6.269836%);fill-opacity:1;" d="M 302.53125 304.535156 C 301.929688 305.175781 301.410156 305.878906 300.980469 306.644531 C 300.546875 307.410156 300.210938 308.214844 299.972656 309.0625 C 299.734375 309.90625 299.597656 310.769531 299.566406 311.648438 C 299.535156 312.527344 299.605469 313.398438 299.78125 314.257812 C 299.957031 315.6875 300.285156 317.078125 300.773438 318.433594 C 300.96875 319.125 301.25 319.78125 301.609375 320.402344 C 301.972656 321.019531 302.40625 321.585938 302.910156 322.097656 C 303.414062 322.609375 303.972656 323.050781 304.585938 323.421875 C 305.203125 323.789062 305.855469 324.078125 306.542969 324.285156 C 306.972656 324.402344 307.410156 324.476562 307.855469 324.507812 C 308.300781 324.539062 308.746094 324.527344 309.191406 324.472656 C 309.632812 324.417969 310.066406 324.316406 310.492188 324.175781 C 310.914062 324.035156 311.320312 323.855469 311.710938 323.636719 C 312.097656 323.414062 312.460938 323.160156 312.800781 322.867188 C 313.136719 322.574219 313.445312 322.253906 313.71875 321.902344 C 313.996094 321.550781 314.234375 321.175781 314.4375 320.777344 C 314.636719 320.378906 314.800781 319.964844 314.921875 319.535156 C 315.171875 318.460938 315.222656 317.382812 315.070312 316.292969 C 314.917969 315.203125 314.574219 314.175781 314.042969 313.214844 C 313.765625 312.71875 313.464844 312.226562 313.164062 311.757812 C 312.53125 310.824219 313.164062 311.757812 312.886719 311.238281 C 312.082031 308.816406 310.917969 306.582031 309.398438 304.535156 C 309.171875 304.3125 308.925781 304.113281 308.660156 303.941406 C 308.394531 303.765625 308.113281 303.617188 307.816406 303.5 C 307.523438 303.378906 307.21875 303.289062 306.910156 303.226562 C 306.597656 303.167969 306.28125 303.136719 305.964844 303.136719 C 305.648438 303.136719 305.332031 303.167969 305.019531 303.226562 C 304.707031 303.289062 304.40625 303.378906 304.109375 303.5 C 303.816406 303.617188 303.535156 303.765625 303.269531 303.941406 C 303.003906 304.113281 302.757812 304.3125 302.53125 304.535156 Z M 302.53125 304.535156 "/>
<g clip-path="url(#clip211)" clip-rule="nonzero">
<path style=" stroke:none;fill-rule:nonzero;fill:rgb(16.468811%,8.239746%,6.269836%);fill-opacity:1;" d="M 237.832031 238.925781 C 236.53125 241.03125 235.871094 243.320312 235.851562 245.796875 C 235.640625 247.851562 235.730469 249.894531 236.128906 251.921875 C 236.390625 253.988281 236.972656 255.957031 237.871094 257.835938 C 238.765625 259.714844 239.933594 261.40625 241.375 262.910156 C 242.164062 263.664062 243.050781 264.273438 244.035156 264.746094 C 245.019531 265.214844 246.054688 265.519531 247.136719 265.660156 C 248.21875 265.800781 249.292969 265.769531 250.367188 265.570312 C 251.4375 265.367188 252.453125 265.003906 253.40625 264.476562 C 254.320312 263.894531 255.125 263.1875 255.820312 262.355469 C 256.511719 261.519531 257.0625 260.601562 257.472656 259.597656 C 257.878906 258.59375 258.128906 257.550781 258.210938 256.472656 C 258.296875 255.390625 258.214844 254.324219 257.96875 253.269531 C 257.496094 251.484375 256.746094 249.828125 255.714844 248.296875 C 255.46875 247.882812 254.148438 245.851562 255.46875 248.074219 C 255.316406 247.550781 255.1875 247.019531 255.082031 246.484375 C 254.671875 245.382812 254.09375 244.3125 253.683594 243.214844 C 254.121094 244.339844 254.09375 244.203125 253.683594 243.214844 C 253.042969 241.019531 252 239.042969 250.550781 237.277344 C 249.675781 236.367188 248.636719 235.710938 247.4375 235.316406 C 246.234375 234.921875 245.011719 234.835938 243.765625 235.054688 C 242.539062 235.234375 241.410156 235.664062 240.371094 236.339844 C 239.335938 237.015625 238.488281 237.878906 237.832031 238.925781 Z M 237.832031 238.925781 "/>
</g>
<path style=" stroke:none;fill-rule:nonzero;fill:rgb(16.468811%,8.239746%,6.269836%);fill-opacity:1;" d="M 265.359375 292.28125 C 260.578125 293.023438 260.304688 298.214844 259.863281 302.089844 C 259.546875 304.058594 259.546875 306.027344 259.863281 307.996094 C 260.246094 310.148438 261.160156 312.046875 262.613281 313.683594 C 262.871094 313.941406 263.152344 314.164062 263.464844 314.359375 C 263.773438 314.550781 264.101562 314.707031 264.445312 314.824219 C 264.792969 314.941406 265.148438 315.019531 265.507812 315.054688 C 265.871094 315.09375 266.234375 315.085938 266.597656 315.042969 C 266.960938 314.996094 267.3125 314.90625 267.652344 314.78125 C 267.996094 314.652344 268.320312 314.488281 268.625 314.289062 C 268.929688 314.085938 269.207031 313.855469 269.457031 313.589844 C 269.707031 313.324219 269.925781 313.035156 270.113281 312.71875 C 271.089844 310.726562 271.613281 308.621094 271.675781 306.402344 C 271.675781 304.589844 271.457031 302.71875 271.402344 300.90625 C 271.402344 298.40625 271.675781 295.933594 269.78125 293.957031 C 269.242188 293.308594 268.578125 292.835938 267.789062 292.535156 C 267.003906 292.238281 266.191406 292.152344 265.359375 292.28125 Z M 265.359375 292.28125 "/>
</g>
</svg>
